<svg width="20" height="20" viewBox="0 0 20 20" fill="none" xmlns="http://www.w3.org/2000/svg">
<path d="M4.494 3.07501C4.37676 3.07658 4.26478 3.12398 4.18201 3.20703L2.18201 5.20703C2.09774 5.29141 2.0504 5.40577 2.0504 5.52502C2.0504 5.64427 2.09774 5.75864 2.18201 5.84302L4.18201 7.84302C4.26638 7.92729 4.38075 7.97464 4.5 7.97464C4.61925 7.97464 4.73362 7.92729 4.81799 7.84302L6.81799 5.84302C6.90226 5.75864 6.9496 5.64427 6.9496 5.52502C6.9496 5.40577 6.90226 5.29141 6.81799 5.20703L4.81799 3.20703C4.77545 3.16469 4.72488 3.13129 4.66924 3.1088C4.61359 3.0863 4.55402 3.07514 4.494 3.07602V3.07501ZM15.494 3.07501C15.3768 3.07658 15.2648 3.12398 15.182 3.20703L13.182 5.20703C13.0977 5.29141 13.0504 5.40577 13.0504 5.52502C13.0504 5.64427 13.0977 5.75864 13.182 5.84302L15.182 7.84302C15.2664 7.92729 15.3807 7.97464 15.5 7.97464C15.6193 7.97464 15.7336 7.92729 15.818 7.84302L17.818 5.84302C17.9023 5.75864 17.9496 5.64427 17.9496 5.52502C17.9496 5.40577 17.9023 5.29141 17.818 5.20703L15.818 3.20703C15.7755 3.16469 15.7249 3.13129 15.6692 3.1088C15.6136 3.0863 15.554 3.07514 15.494 3.07602V3.07501ZM9.467 9.82501C9.35319 9.83392 9.24702 9.88578 9.17 9.97003L6.17 13.22C6.09122 13.3054 6.04848 13.4178 6.05072 13.5339C6.05296 13.65 6.10001 13.7608 6.18201 13.843L9.18201 16.843C9.26638 16.9273 9.38075 16.9746 9.5 16.9746C9.61925 16.9746 9.73362 16.9273 9.81799 16.843L12.818 13.843C12.9 13.7608 12.947 13.65 12.9493 13.5339C12.9515 13.4178 12.9088 13.3054 12.83 13.22L9.83 9.97003C9.7842 9.9203 9.72778 9.88153 9.66493 9.8566C9.60209 9.83167 9.53443 9.82121 9.467 9.82602V9.82501ZM9.5 10.937L11.877 13.513L9.5 15.888L7.123 13.511L9.5 10.937Z" fill="currentColor"/>
<path d="M6.121 3.02502L7.561 4.46503C7.84191 4.74628 7.99968 5.12752 7.99968 5.52502C7.99968 5.92253 7.84191 6.30377 7.561 6.58502L6.121 8.02502H13.879L12.439 6.58502C12.1581 6.30377 12.0003 5.92253 12.0003 5.52502C12.0003 5.12752 12.1581 4.74628 12.439 4.46503L13.879 3.02502H6.121Z" fill="currentColor"/>
</svg>
