<svg width="20" height="20" viewBox="0 0 20 20" fill="none" xmlns="http://www.w3.org/2000/svg">
<path d="M5.494 3.04999C5.37676 3.05156 5.26478 3.09896 5.18201 3.18201L3.18201 5.18201C3.09774 5.26638 3.0504 5.38075 3.0504 5.5C3.0504 5.61925 3.09774 5.73362 3.18201 5.81799L5.18201 7.81799C5.26638 7.90226 5.38075 7.94962 5.5 7.94962C5.61925 7.94962 5.73362 7.90226 5.81799 7.81799L7.81799 5.81799C7.90226 5.73362 7.9496 5.61925 7.9496 5.5C7.9496 5.38075 7.90226 5.26638 7.81799 5.18201L5.81799 3.18201C5.77545 3.13967 5.72488 3.10627 5.66924 3.08377C5.61359 3.06127 5.55402 3.05012 5.494 3.05099V3.04999ZM14.494 3.04999C14.3768 3.05156 14.2648 3.09896 14.182 3.18201L12.182 5.18201C12.0977 5.26638 12.0504 5.38075 12.0504 5.5C12.0504 5.61925 12.0977 5.73362 12.182 5.81799L14.182 7.81799C14.2664 7.90226 14.3807 7.94962 14.5 7.94962C14.6193 7.94962 14.7336 7.90226 14.818 7.81799L16.818 5.81799C16.9023 5.73362 16.9496 5.61925 16.9496 5.5C16.9496 5.38075 16.9023 5.26638 16.818 5.18201L14.818 3.18201C14.7755 3.13967 14.7249 3.10627 14.6692 3.08377C14.6136 3.06127 14.554 3.05012 14.494 3.05099V3.04999Z" fill="currentColor"/>
<path d="M7.121 3L8.561 4.44C8.84191 4.72125 8.99968 5.1025 8.99968 5.5C8.99968 5.8975 8.84191 6.27875 8.561 6.56L7.121 8H12.879L11.439 6.56C11.1581 6.27875 11.0003 5.8975 11.0003 5.5C11.0003 5.1025 11.1581 4.72125 11.439 4.44L12.879 3H7.121Z" fill="currentColor"/>
<path d="M8.502 9C8.41914 8.99976 8.33751 9.02012 8.26446 9.05925C8.19141 9.09838 8.12924 9.15505 8.08352 9.22417C8.03781 9.29329 8.00999 9.37268 8.00257 9.45522C7.99514 9.53775 8.00835 9.62084 8.041 9.697L11.041 16.697C11.0809 16.7902 11.1483 16.8691 11.2341 16.9231C11.3199 16.9772 11.4201 17.0039 11.5215 16.9997C11.6228 16.9954 11.7204 16.9605 11.8014 16.8995C11.8824 16.8384 11.943 16.7542 11.975 16.658L12.895 13.894L15.658 12.974C15.754 12.9419 15.8379 12.8814 15.8988 12.8006C15.9596 12.7198 15.9946 12.6224 15.9989 12.5213C16.0032 12.4202 15.9768 12.3201 15.9231 12.2344C15.8693 12.1486 15.7909 12.0812 15.698 12.041L8.698 9.041C8.63578 9.01415 8.56877 9.00021 8.501 9H8.502Z" fill="currentColor"/>
</svg>
