<svg width="20" height="20" viewBox="0 0 20 20" fill="none" xmlns="http://www.w3.org/2000/svg">
<path d="M10.007 5.47996C9.94033 5.47915 9.87417 5.49168 9.81241 5.51682C9.75066 5.54196 9.69456 5.57923 9.64741 5.62638C9.60026 5.67353 9.56302 5.7296 9.53788 5.79136C9.51273 5.85311 9.5002 5.91927 9.501 5.98594V9.48795H5.999C5.93081 9.48363 5.86247 9.49333 5.79818 9.51645C5.73388 9.53958 5.67501 9.57565 5.62519 9.62241C5.57538 9.66917 5.53567 9.7256 5.50853 9.78831C5.48139 9.85101 5.4674 9.91865 5.4674 9.98697C5.4674 10.0553 5.48139 10.1229 5.50853 10.1856C5.53567 10.2483 5.57538 10.3048 5.62519 10.3515C5.67501 10.3983 5.73388 10.4343 5.79818 10.4574C5.86247 10.4806 5.93081 10.4903 5.999 10.4859H9.501V13.988C9.49668 14.0561 9.50638 14.1245 9.52951 14.1888C9.55263 14.253 9.58868 14.3119 9.63544 14.3617C9.6822 14.4115 9.73868 14.4513 9.80138 14.4784C9.86408 14.5056 9.93168 14.5196 10 14.5196C10.0683 14.5196 10.1359 14.5056 10.1986 14.4784C10.2613 14.4513 10.3178 14.4115 10.3646 14.3617C10.4113 14.3119 10.4474 14.253 10.4705 14.1888C10.4936 14.1245 10.5033 14.0561 10.499 13.988V10.4859H14.001C14.0692 10.4903 14.1375 10.4806 14.2018 10.4574C14.2661 10.4343 14.325 10.3983 14.3748 10.3515C14.4246 10.3048 14.4643 10.2483 14.4915 10.1856C14.5186 10.1229 14.5326 10.0553 14.5326 9.98697C14.5326 9.91865 14.5186 9.85101 14.4915 9.78831C14.4643 9.7256 14.4246 9.66917 14.3748 9.62241C14.325 9.57565 14.2661 9.53958 14.2018 9.51645C14.1375 9.49333 14.0692 9.48363 14.001 9.48795H10.499V5.98594C10.5006 5.85367 10.4497 5.72616 10.3575 5.63132C10.2653 5.53648 10.1393 5.48206 10.007 5.47996Z" fill="currentColor"/>
</svg>
