<svg width="20" height="20" viewBox="0 0 20 20" fill="none" xmlns="http://www.w3.org/2000/svg">
<path d="M3.5 3C3.36739 3 3.24021 3.05268 3.14645 3.14645C3.05268 3.24021 3 3.36739 3 3.5V16.5C3 16.6326 3.05268 16.7598 3.14645 16.8536C3.24021 16.9473 3.36739 17 3.5 17H16.5C16.6326 17 16.7598 16.9473 16.8536 16.8536C16.9473 16.7598 17 16.6326 17 16.5V3.5C17 3.36739 16.9473 3.24021 16.8536 3.14645C16.7598 3.05268 16.6326 3 16.5 3H3.5ZM4 4H16V16H4V4Z" fill="currentColor"/>
<path d="M5.492 8C5.35939 8 5.23221 8.05268 5.13844 8.14645C5.04468 8.24021 4.992 8.36739 4.992 8.5C4.992 8.63261 5.04468 8.75979 5.13844 8.85355C5.23221 8.94732 5.35939 9 5.492 9H14.486C14.6186 9 14.7458 8.94732 14.8396 8.85355C14.9333 8.75979 14.986 8.63261 14.986 8.5C14.986 8.36739 14.9333 8.24021 14.8396 8.14645C14.7458 8.05268 14.6186 8 14.486 8H5.492ZM5.492 10C5.35939 10 5.23221 10.0527 5.13844 10.1464C5.04468 10.2402 4.992 10.3674 4.992 10.5C4.992 10.6326 5.04468 10.7598 5.13844 10.8536C5.23221 10.9473 5.35939 11 5.492 11H14.486C14.6186 11 14.7458 10.9473 14.8396 10.8536C14.9333 10.7598 14.986 10.6326 14.986 10.5C14.986 10.3674 14.9333 10.2402 14.8396 10.1464C14.7458 10.0527 14.6186 10 14.486 10H5.492Z" fill="currentColor"/>
</svg>
