<svg width="20" height="20" viewBox="0 0 20 20" fill="none" xmlns="http://www.w3.org/2000/svg">
<path d="M3.504 3.5C3.37139 3.5 3.24422 3.55268 3.15045 3.64645C3.05668 3.74021 3.004 3.86739 3.004 4C3.004 4.13261 3.05668 4.25979 3.15045 4.35355C3.24422 4.44732 3.37139 4.5 3.504 4.5H16.496C16.6286 4.5 16.7558 4.44732 16.8496 4.35355C16.9433 4.25979 16.996 4.13261 16.996 4C16.996 3.86739 16.9433 3.74021 16.8496 3.64645C16.7558 3.55268 16.6286 3.5 16.496 3.5H3.504ZM3.504 6.5C3.37139 6.5 3.24422 6.55268 3.15045 6.64645C3.05668 6.74021 3.004 6.86739 3.004 7C3.004 7.13261 3.05668 7.25979 3.15045 7.35355C3.24422 7.44732 3.37139 7.5 3.504 7.5H9.496C9.62861 7.5 9.75579 7.44732 9.84956 7.35355C9.94332 7.25979 9.996 7.13261 9.996 7C9.996 6.86739 9.94332 6.74021 9.84956 6.64645C9.75579 6.55268 9.62861 6.5 9.496 6.5H3.504ZM3.504 9.5C3.37139 9.5 3.24422 9.55268 3.15045 9.64645C3.05668 9.74021 3.004 9.86739 3.004 10C3.004 10.1326 3.05668 10.2598 3.15045 10.3536C3.24422 10.4473 3.37139 10.5 3.504 10.5H16.496C16.6286 10.5 16.7558 10.4473 16.8496 10.3536C16.9433 10.2598 16.996 10.1326 16.996 10C16.996 9.86739 16.9433 9.74021 16.8496 9.64645C16.7558 9.55268 16.6286 9.5 16.496 9.5H3.504ZM3.504 12.5C3.37139 12.5 3.24422 12.5527 3.15045 12.6464C3.05668 12.7402 3.004 12.8674 3.004 13C3.004 13.1326 3.05668 13.2598 3.15045 13.3536C3.24422 13.4473 3.37139 13.5 3.504 13.5H9.496C9.62861 13.5 9.75579 13.4473 9.84956 13.3536C9.94332 13.2598 9.996 13.1326 9.996 13C9.996 12.8674 9.94332 12.7402 9.84956 12.6464C9.75579 12.5527 9.62861 12.5 9.496 12.5H3.504ZM3.504 15.5C3.37139 15.5 3.24422 15.5527 3.15045 15.6464C3.05668 15.7402 3.004 15.8674 3.004 16C3.004 16.1326 3.05668 16.2598 3.15045 16.3536C3.24422 16.4473 3.37139 16.5 3.504 16.5H16.496C16.6286 16.5 16.7558 16.4473 16.8496 16.3536C16.9433 16.2598 16.996 16.1326 16.996 16C16.996 15.8674 16.9433 15.7402 16.8496 15.6464C16.7558 15.5527 16.6286 15.5 16.496 15.5H3.504Z" fill="currentColor"/>
</svg>
