<svg width="20" height="20" viewBox="0 0 20 20" fill="none" xmlns="http://www.w3.org/2000/svg">
<path d="M3.5 3C3.36739 3 3.24021 3.05268 3.14645 3.14645C3.05268 3.24021 3 3.36739 3 3.5V16.5C3 16.6326 3.05268 16.7598 3.14645 16.8536C3.24021 16.9473 3.36739 17 3.5 17H16.5C16.6326 17 16.7598 16.9473 16.8536 16.8536C16.9473 16.7598 17 16.6326 17 16.5V3.5C17 3.36739 16.9473 3.24021 16.8536 3.14645C16.7598 3.05268 16.6326 3 16.5 3H3.5ZM4 4H16V16H4V4Z" fill="currentColor"/>
<path d="M5.492 5C5.35939 5 5.23221 5.05268 5.13844 5.14645C5.04468 5.24021 4.992 5.36739 4.992 5.5C4.992 5.63261 5.04468 5.75979 5.13844 5.85355C5.23221 5.94732 5.35939 6 5.492 6H14.486C14.6186 6 14.7458 5.94732 14.8396 5.85355C14.9333 5.75979 14.986 5.63261 14.986 5.5C14.986 5.36739 14.9333 5.24021 14.8396 5.14645C14.7458 5.05268 14.6186 5 14.486 5H5.492ZM5.492 7C5.35939 7 5.23221 7.05268 5.13844 7.14645C5.04468 7.24021 4.992 7.36739 4.992 7.5C4.992 7.63261 5.04468 7.75979 5.13844 7.85355C5.23221 7.94732 5.35939 8 5.492 8H14.486C14.6186 8 14.7458 7.94732 14.8396 7.85355C14.9333 7.75979 14.986 7.63261 14.986 7.5C14.986 7.36739 14.9333 7.24021 14.8396 7.14645C14.7458 7.05268 14.6186 7 14.486 7H5.492Z" fill="currentColor"/>
</svg>
