<svg width="20" height="20" viewBox="0 0 20 20" fill="none" xmlns="http://www.w3.org/2000/svg">
<path d="M3.504 3.5C3.37139 3.5 3.24419 3.55266 3.15042 3.64642C3.05665 3.74019 3.004 3.86739 3.004 4C3.004 4.13261 3.05665 4.25981 3.15042 4.35358C3.24419 4.44734 3.37139 4.5 3.504 4.5H5.496C5.62861 4.5 5.75581 4.44734 5.84958 4.35358C5.94335 4.25981 5.996 4.13261 5.996 4C5.996 3.86739 5.94335 3.74019 5.84958 3.64642C5.75581 3.55266 5.62861 3.5 5.496 3.5H3.504ZM7.52701 3.5C7.3944 3.5 7.2672 3.55266 7.17343 3.64642C7.07967 3.74019 7.02701 3.86739 7.02701 4C7.02701 4.13261 7.07967 4.25981 7.17343 4.35358C7.2672 4.44734 7.3944 4.5 7.52701 4.5H9.44303C9.57563 4.5 9.70277 4.44734 9.79654 4.35358C9.89031 4.25981 9.94303 4.13261 9.94303 4C9.94303 3.86739 9.89031 3.74019 9.79654 3.64642C9.70277 3.55266 9.57563 3.5 9.44303 3.5H7.52701ZM11.498 3.5C11.3654 3.5 11.2382 3.55266 11.1444 3.64642C11.0507 3.74019 10.998 3.86739 10.998 4C10.998 4.13261 11.0507 4.25981 11.1444 4.35358C11.2382 4.44734 11.3654 4.5 11.498 4.5H13.496C13.6286 4.5 13.7558 4.44734 13.8496 4.35358C13.9433 4.25981 13.996 4.13261 13.996 4C13.996 3.86739 13.9433 3.74019 13.8496 3.64642C13.7558 3.55266 13.6286 3.5 13.496 3.5H11.498ZM15.496 3.5C15.3634 3.5 15.2362 3.55266 15.1424 3.64642C15.0487 3.74019 14.996 3.86739 14.996 4C14.996 4.13261 15.0487 4.25981 15.1424 4.35358C15.2362 4.44734 15.3634 4.5 15.496 4.5H16.496C16.6286 4.5 16.7558 4.44734 16.8496 4.35358C16.9433 4.25981 16.996 4.13261 16.996 4C16.996 3.86739 16.9433 3.74019 16.8496 3.64642C16.7558 3.55266 16.6286 3.5 16.496 3.5H15.496ZM3.504 6.5C3.37139 6.5 3.24419 6.55266 3.15042 6.64642C3.05665 6.74019 3.004 6.86739 3.004 7C3.004 7.13261 3.05665 7.25981 3.15042 7.35358C3.24419 7.44734 3.37139 7.5 3.504 7.5H4.504C4.63661 7.5 4.76381 7.44734 4.85758 7.35358C4.95134 7.25981 5.004 7.13261 5.004 7C5.004 6.86739 4.95134 6.74019 4.85758 6.64642C4.76381 6.55266 4.63661 6.5 4.504 6.5H3.504ZM6.504 6.5C6.37139 6.5 6.24419 6.55266 6.15042 6.64642C6.05665 6.74019 6.004 6.86739 6.004 7C6.004 7.13261 6.05665 7.25981 6.15042 7.35358C6.24419 7.44734 6.37139 7.5 6.504 7.5H8.50199C8.63459 7.5 8.76179 7.44734 8.85556 7.35358C8.94933 7.25981 9.00199 7.13261 9.00199 7C9.00199 6.86739 8.94933 6.74019 8.85556 6.64642C8.76179 6.55266 8.63459 6.5 8.50199 6.5H6.504ZM10.557 6.5C10.4244 6.5 10.2972 6.55266 10.2035 6.64642C10.1097 6.74019 10.057 6.86739 10.057 7C10.057 7.13261 10.1097 7.25981 10.2035 7.35358C10.2972 7.44734 10.4244 7.5 10.557 7.5H12.475C12.6076 7.5 12.7348 7.44734 12.8285 7.35358C12.9223 7.25981 12.975 7.13261 12.975 7C12.975 6.86739 12.9223 6.74019 12.8285 6.64642C12.7348 6.55266 12.6076 6.5 12.475 6.5H10.557ZM14.504 6.5C14.3714 6.5 14.2442 6.55266 14.1504 6.64642C14.0567 6.74019 14.004 6.86739 14.004 7C14.004 7.13261 14.0567 7.25981 14.1504 7.35358C14.2442 7.44734 14.3714 7.5 14.504 7.5H16.496C16.6286 7.5 16.7558 7.44734 16.8496 7.35358C16.9433 7.25981 16.996 7.13261 16.996 7C16.996 6.86739 16.9433 6.74019 16.8496 6.64642C16.7558 6.55266 16.6286 6.5 16.496 6.5H14.504ZM3.504 9.5C3.37139 9.5 3.24419 9.55266 3.15042 9.64642C3.05665 9.74019 3.004 9.86739 3.004 10C3.004 10.1326 3.05665 10.2598 3.15042 10.3536C3.24419 10.4473 3.37139 10.5 3.504 10.5H5.496C5.62861 10.5 5.75581 10.4473 5.84958 10.3536C5.94335 10.2598 5.996 10.1326 5.996 10C5.996 9.86739 5.94335 9.74019 5.84958 9.64642C5.75581 9.55266 5.62861 9.5 5.496 9.5H3.504ZM7.52701 9.5C7.3944 9.5 7.2672 9.55266 7.17343 9.64642C7.07967 9.74019 7.02701 9.86739 7.02701 10C7.02701 10.1326 7.07967 10.2598 7.17343 10.3536C7.2672 10.4473 7.3944 10.5 7.52701 10.5H9.44303C9.57563 10.5 9.70277 10.4473 9.79654 10.3536C9.89031 10.2598 9.94303 10.1326 9.94303 10C9.94303 9.86739 9.89031 9.74019 9.79654 9.64642C9.70277 9.55266 9.57563 9.5 9.44303 9.5H7.52701ZM11.498 9.5C11.3654 9.5 11.2382 9.55266 11.1444 9.64642C11.0507 9.74019 10.998 9.86739 10.998 10C10.998 10.1326 11.0507 10.2598 11.1444 10.3536C11.2382 10.4473 11.3654 10.5 11.498 10.5H13.496C13.6286 10.5 13.7558 10.4473 13.8496 10.3536C13.9433 10.2598 13.996 10.1326 13.996 10C13.996 9.86739 13.9433 9.74019 13.8496 9.64642C13.7558 9.55266 13.6286 9.5 13.496 9.5H11.498ZM15.496 9.5C15.3634 9.5 15.2362 9.55266 15.1424 9.64642C15.0487 9.74019 14.996 9.86739 14.996 10C14.996 10.1326 15.0487 10.2598 15.1424 10.3536C15.2362 10.4473 15.3634 10.5 15.496 10.5H16.496C16.6286 10.5 16.7558 10.4473 16.8496 10.3536C16.9433 10.2598 16.996 10.1326 16.996 10C16.996 9.86739 16.9433 9.74019 16.8496 9.64642C16.7558 9.55266 16.6286 9.5 16.496 9.5H15.496ZM3.504 12.5C3.37139 12.5 3.24419 12.5527 3.15042 12.6464C3.05665 12.7402 3.004 12.8674 3.004 13C3.004 13.1326 3.05665 13.2598 3.15042 13.3536C3.24419 13.4473 3.37139 13.5 3.504 13.5H4.504C4.63661 13.5 4.76381 13.4473 4.85758 13.3536C4.95134 13.2598 5.004 13.1326 5.004 13C5.004 12.8674 4.95134 12.7402 4.85758 12.6464C4.76381 12.5527 4.63661 12.5 4.504 12.5H3.504ZM6.504 12.5C6.37139 12.5 6.24419 12.5527 6.15042 12.6464C6.05665 12.7402 6.004 12.8674 6.004 13C6.004 13.1326 6.05665 13.2598 6.15042 13.3536C6.24419 13.4473 6.37139 13.5 6.504 13.5H8.50199C8.63459 13.5 8.76179 13.4473 8.85556 13.3536C8.94933 13.2598 9.00199 13.1326 9.00199 13C9.00199 12.8674 8.94933 12.7402 8.85556 12.6464C8.76179 12.5527 8.63459 12.5 8.50199 12.5H6.504ZM10.557 12.5C10.4244 12.5 10.2972 12.5527 10.2035 12.6464C10.1097 12.7402 10.057 12.8674 10.057 13C10.057 13.1326 10.1097 13.2598 10.2035 13.3536C10.2972 13.4473 10.4244 13.5 10.557 13.5H12.475C12.6076 13.5 12.7348 13.4473 12.8285 13.3536C12.9223 13.2598 12.975 13.1326 12.975 13C12.975 12.8674 12.9223 12.7402 12.8285 12.6464C12.7348 12.5527 12.6076 12.5 12.475 12.5H10.557ZM14.504 12.5C14.3714 12.5 14.2442 12.5527 14.1504 12.6464C14.0567 12.7402 14.004 12.8674 14.004 13C14.004 13.1326 14.0567 13.2598 14.1504 13.3536C14.2442 13.4473 14.3714 13.5 14.504 13.5H16.496C16.6286 13.5 16.7558 13.4473 16.8496 13.3536C16.9433 13.2598 16.996 13.1326 16.996 13C16.996 12.8674 16.9433 12.7402 16.8496 12.6464C16.7558 12.5527 16.6286 12.5 16.496 12.5H14.504ZM3.504 15.5C3.37139 15.5 3.24419 15.5527 3.15042 15.6464C3.05665 15.7402 3.004 15.8674 3.004 16C3.004 16.1326 3.05665 16.2598 3.15042 16.3536C3.24419 16.4473 3.37139 16.5 3.504 16.5H5.496C5.62861 16.5 5.75581 16.4473 5.84958 16.3536C5.94335 16.2598 5.996 16.1326 5.996 16C5.996 15.8674 5.94335 15.7402 5.84958 15.6464C5.75581 15.5527 5.62861 15.5 5.496 15.5H3.504ZM7.52701 15.5C7.3944 15.5 7.2672 15.5527 7.17343 15.6464C7.07967 15.7402 7.02701 15.8674 7.02701 16C7.02701 16.1326 7.07967 16.2598 7.17343 16.3536C7.2672 16.4473 7.3944 16.5 7.52701 16.5H9.44303C9.57563 16.5 9.70277 16.4473 9.79654 16.3536C9.89031 16.2598 9.94303 16.1326 9.94303 16C9.94303 15.8674 9.89031 15.7402 9.79654 15.6464C9.70277 15.5527 9.57563 15.5 9.44303 15.5H7.52701ZM11.498 15.5C11.3654 15.5 11.2382 15.5527 11.1444 15.6464C11.0507 15.7402 10.998 15.8674 10.998 16C10.998 16.1326 11.0507 16.2598 11.1444 16.3536C11.2382 16.4473 11.3654 16.5 11.498 16.5H13.496C13.6286 16.5 13.7558 16.4473 13.8496 16.3536C13.9433 16.2598 13.996 16.1326 13.996 16C13.996 15.8674 13.9433 15.7402 13.8496 15.6464C13.7558 15.5527 13.6286 15.5 13.496 15.5H11.498ZM15.496 15.5C15.3634 15.5 15.2362 15.5527 15.1424 15.6464C15.0487 15.7402 14.996 15.8674 14.996 16C14.996 16.1326 15.0487 16.2598 15.1424 16.3536C15.2362 16.4473 15.3634 16.5 15.496 16.5H16.496C16.6286 16.5 16.7558 16.4473 16.8496 16.3536C16.9433 16.2598 16.996 16.1326 16.996 16C16.996 15.8674 16.9433 15.7402 16.8496 15.6464C16.7558 15.5527 16.6286 15.5 16.496 15.5H15.496Z" fill="currentColor"/>
</svg>
