<svg width="20" height="20" viewBox="0 0 20 20" fill="none" xmlns="http://www.w3.org/2000/svg">
<path d="M3.503 3.5C3.37039 3.5 3.24321 3.55268 3.14945 3.64645C3.05568 3.74021 3.003 3.86739 3.003 4C3.003 4.13261 3.05568 4.25979 3.14945 4.35355C3.24321 4.44732 3.37039 4.5 3.503 4.5H16.497C16.6296 4.5 16.7568 4.44732 16.8506 4.35355C16.9443 4.25979 16.997 4.13261 16.997 4C16.997 3.86739 16.9443 3.74021 16.8506 3.64645C16.7568 3.55268 16.6296 3.5 16.497 3.5H3.503ZM10.503 6.5C10.3704 6.5 10.2432 6.55268 10.1494 6.64645C10.0557 6.74021 10.003 6.86739 10.003 7C10.003 7.13261 10.0557 7.25979 10.1494 7.35355C10.2432 7.44732 10.3704 7.5 10.503 7.5H16.497C16.6296 7.5 16.7568 7.44732 16.8506 7.35355C16.9443 7.25979 16.997 7.13261 16.997 7C16.997 6.86739 16.9443 6.74021 16.8506 6.64645C16.7568 6.55268 16.6296 6.5 16.497 6.5H10.503ZM3.503 9.5C3.37039 9.5 3.24321 9.55268 3.14945 9.64645C3.05568 9.74021 3.003 9.86739 3.003 10C3.003 10.1326 3.05568 10.2598 3.14945 10.3536C3.24321 10.4473 3.37039 10.5 3.503 10.5H16.497C16.6296 10.5 16.7568 10.4473 16.8506 10.3536C16.9443 10.2598 16.997 10.1326 16.997 10C16.997 9.86739 16.9443 9.74021 16.8506 9.64645C16.7568 9.55268 16.6296 9.5 16.497 9.5H3.503ZM10.503 12.5C10.3704 12.5 10.2432 12.5527 10.1494 12.6464C10.0557 12.7402 10.003 12.8674 10.003 13C10.003 13.1326 10.0557 13.2598 10.1494 13.3536C10.2432 13.4473 10.3704 13.5 10.503 13.5H16.497C16.6296 13.5 16.7568 13.4473 16.8506 13.3536C16.9443 13.2598 16.997 13.1326 16.997 13C16.997 12.8674 16.9443 12.7402 16.8506 12.6464C16.7568 12.5527 16.6296 12.5 16.497 12.5H10.503ZM3.503 15.5C3.37039 15.5 3.24321 15.5527 3.14945 15.6464C3.05568 15.7402 3.003 15.8674 3.003 16C3.003 16.1326 3.05568 16.2598 3.14945 16.3536C3.24321 16.4473 3.37039 16.5 3.503 16.5H16.497C16.6296 16.5 16.7568 16.4473 16.8506 16.3536C16.9443 16.2598 16.997 16.1326 16.997 16C16.997 15.8674 16.9443 15.7402 16.8506 15.6464C16.7568 15.5527 16.6296 15.5 16.497 15.5H3.503Z" fill="currentColor"/>
</svg>
