<svg width="20" height="20" viewBox="0 0 20 20" fill="none" xmlns="http://www.w3.org/2000/svg">
<path d="M3.5 3C3.36739 3 3.24021 3.05268 3.14645 3.14645C3.05268 3.24021 3 3.36739 3 3.5V16.5C3 16.6326 3.05268 16.7598 3.14645 16.8536C3.24021 16.9473 3.36739 17 3.5 17H16.5C16.6326 17 16.7598 16.9473 16.8536 16.8536C16.9473 16.7598 17 16.6326 17 16.5V3.5C17 3.36739 16.9473 3.24021 16.8536 3.14645C16.7598 3.05268 16.6326 3 16.5 3H3.5ZM4 4H16V16H4V4Z" fill="currentColor"/>
<path d="M5.492 12C5.35939 12 5.23222 12.0527 5.13845 12.1464C5.04468 12.2402 4.992 12.3674 4.992 12.5C4.992 12.6326 5.04468 12.7598 5.13845 12.8536C5.23222 12.9473 5.35939 13 5.492 13H14.486C14.6186 13 14.7458 12.9473 14.8396 12.8536C14.9333 12.7598 14.986 12.6326 14.986 12.5C14.986 12.3674 14.9333 12.2402 14.8396 12.1464C14.7458 12.0527 14.6186 12 14.486 12H5.492ZM5.492 14C5.35939 14 5.23222 14.0527 5.13845 14.1464C5.04468 14.2402 4.992 14.3674 4.992 14.5C4.992 14.6326 5.04468 14.7598 5.13845 14.8536C5.23222 14.9473 5.35939 15 5.492 15H14.486C14.6186 15 14.7458 14.9473 14.8396 14.8536C14.9333 14.7598 14.986 14.6326 14.986 14.5C14.986 14.3674 14.9333 14.2402 14.8396 14.1464C14.7458 14.0527 14.6186 14 14.486 14H5.492Z" fill="currentColor"/>
</svg>
