<svg width="20" height="20" viewBox="0 0 20 20" fill="none" xmlns="http://www.w3.org/2000/svg">
<path d="M3.50401 13.5C2.82801 13.51 2.82801 12.49 3.50401 12.5H6.572C6.38616 12.8125 6.24417 13.1489 6.15001 13.5H3.50401ZM13.858 13.5C13.763 13.145 13.62 12.81 13.436 12.5H16.496C17.172 12.49 17.172 13.51 16.496 13.5H13.858ZM3.50401 10.5C2.82801 10.51 2.82801 9.49005 3.50401 9.50005H16.496C17.172 9.49005 17.172 10.51 16.496 10.5H3.50401ZM3.50401 7.50005C2.82801 7.51005 2.82801 6.49005 3.50401 6.50005H16.496C17.172 6.49005 17.172 7.51005 16.496 7.50005H3.50401ZM3.50401 4.50005C2.82801 4.51005 2.82801 3.49005 3.50401 3.50005H16.496C17.172 3.49005 17.172 4.51005 16.496 4.50005H3.50401Z" fill="currentColor"/>
<path d="M10.004 13C10.8324 13 11.504 13.6716 11.504 14.5C11.504 15.3284 10.8324 16 10.004 16C9.17557 16 8.504 15.3284 8.504 14.5C8.504 13.6716 9.17557 13 10.004 13Z" fill="currentColor"/>
</svg>
