<svg width="20" height="20" viewBox="0 0 20 20" fill="none" xmlns="http://www.w3.org/2000/svg">
<path d="M15.5 4.99995C16.176 4.98995 16.176 6.00995 15.5 5.99995H3.50798C2.83198 6.00995 2.83198 4.98995 3.50798 4.99995H15.5ZM11.568 7.99995C11.384 8.30995 11.241 8.64495 11.146 8.99995H3.50798C2.83198 9.00995 2.83198 7.98995 3.50798 7.99995H11.568ZM11.146 11C11.241 11.355 11.384 11.69 11.568 12H3.50798C2.83198 12.01 2.83198 10.99 3.50798 11H11.146ZM15.5 14C16.176 13.99 16.176 15.01 15.5 15H3.50798C2.83198 15.01 2.83198 13.99 3.50798 14H15.5Z" fill="currentColor"/>
<path d="M15 8.5C14.1716 8.5 13.5 9.17157 13.5 10C13.5 10.8284 14.1716 11.5 15 11.5C15.8284 11.5 16.5 10.8284 16.5 10C16.5 9.17157 15.8284 8.5 15 8.5Z" fill="currentColor"/>
</svg>
