<svg width="20" height="20" viewBox="0 0 20 20" fill="none" xmlns="http://www.w3.org/2000/svg">
<path d="M3.50401 4.99995C2.82801 4.98995 2.82801 6.00995 3.50401 5.99995H16.496C17.172 6.00995 17.172 4.98995 16.496 4.99995H3.50401ZM3.50401 7.99995C2.82801 7.98995 2.82801 9.00995 3.50401 8.99995H6.14201C6.23701 8.64495 6.38001 8.30995 6.56401 7.99995H3.50401ZM13.428 7.99995C13.612 8.30995 13.755 8.64495 13.85 8.99995H16.496C17.172 9.00995 17.172 7.98995 16.496 7.99995H13.428ZM3.50401 11C2.82801 10.99 2.82801 12.01 3.50401 12H6.56401C6.37817 11.6875 6.23617 11.3511 6.14201 11H3.50401ZM13.85 11C13.755 11.355 13.612 11.69 13.428 12H16.496C17.172 12.01 17.172 10.99 16.496 11H13.85ZM3.50401 14C2.82801 13.99 2.82801 15.01 3.50401 15H16.496C17.172 15.01 17.172 13.99 16.496 14H3.50401Z" fill="currentColor"/>
<path d="M9.996 8.5C9.16758 8.5 8.496 9.17157 8.496 10C8.496 10.8284 9.16758 11.5 9.996 11.5C10.8244 11.5 11.496 10.8284 11.496 10C11.496 9.17157 10.8244 8.5 9.996 8.5Z" fill="currentColor"/>
</svg>
