<svg width="20" height="20" viewBox="0 0 20 20" fill="none" xmlns="http://www.w3.org/2000/svg">
<path d="M3.50401 6.49995C2.82801 6.48995 2.82801 7.50995 3.50401 7.49995H6.572C6.38616 7.18754 6.24417 6.85105 6.15001 6.49995H3.50401ZM13.858 6.49995C13.763 6.85495 13.62 7.18995 13.436 7.49995H16.496C17.172 7.50995 17.172 6.48995 16.496 6.49995H13.858ZM3.50401 9.49995C2.82801 9.48995 2.82801 10.51 3.50401 10.5H16.496C17.172 10.51 17.172 9.48995 16.496 9.49995H3.50401ZM3.50401 12.5C2.82801 12.49 2.82801 13.51 3.50401 13.5H16.496C17.172 13.51 17.172 12.49 16.496 12.5H3.50401ZM3.50401 15.5C2.82801 15.49 2.82801 16.51 3.50401 16.5H16.496C17.172 16.51 17.172 15.49 16.496 15.5H3.50401Z" fill="currentColor"/>
<path d="M10.004 7C10.8324 7 11.504 6.32843 11.504 5.5C11.504 4.67157 10.8324 4 10.004 4C9.17557 4 8.504 4.67157 8.504 5.5C8.504 6.32843 9.17557 7 10.004 7Z" fill="currentColor"/>
</svg>
