<svg width="20" height="20" viewBox="0 0 20 20" fill="none" xmlns="http://www.w3.org/2000/svg">
<path d="M4.50001 4.99995C3.82401 4.98995 3.82401 6.00995 4.50001 5.99995H16.492C17.168 6.00995 17.168 4.98995 16.492 4.99995H4.50001ZM8.43202 7.99995C8.61602 8.30995 8.75902 8.64495 8.85402 8.99995H16.492C17.168 9.00995 17.168 7.98995 16.492 7.99995H8.43202ZM8.85402 11C8.75902 11.355 8.61602 11.69 8.43202 12H16.492C17.168 12.01 17.168 10.99 16.492 11H8.85402ZM4.50001 14C3.82401 13.99 3.82401 15.01 4.50001 15H16.492C17.168 15.01 17.168 13.99 16.492 14H4.50001Z" fill="currentColor"/>
<path d="M5 8.5C5.82843 8.5 6.5 9.17157 6.5 10C6.5 10.8284 5.82843 11.5 5 11.5C4.17157 11.5 3.5 10.8284 3.5 10C3.5 9.17157 4.17157 8.5 5 8.5Z" fill="currentColor"/>
</svg>
