<svg width="20" height="20" viewBox="0 0 20 20" fill="none" xmlns="http://www.w3.org/2000/svg">
<path d="M7.998 3.073C9.185 3.073 10.134 3.763 10.521 4.694C10.909 5.624 10.729 6.799 9.851 7.677L7.351 10.177C6.729 10.799 6.65901 11.499 6.89601 12.069C7.13401 12.639 7.686 13.073 8.498 13.073L15.033 13.065L12.894 10.926C12.8462 10.8799 12.8081 10.8247 12.7819 10.7637C12.7557 10.7027 12.742 10.6371 12.7414 10.5707C12.7408 10.5043 12.7534 10.4385 12.7786 10.377C12.8037 10.3156 12.8409 10.2597 12.8878 10.2128C12.9348 10.1659 12.9906 10.1287 13.052 10.1036C13.1135 10.0784 13.1793 10.0658 13.2457 10.0664C13.3121 10.067 13.3777 10.0807 13.4387 10.1069C13.4997 10.1331 13.5549 10.1712 13.601 10.219L16.535 13.155L16.545 13.163C16.6106 13.2104 16.6637 13.273 16.6998 13.3455C16.7358 13.4179 16.7537 13.4981 16.752 13.579C16.752 13.5817 16.752 13.5843 16.752 13.587C16.7514 13.6027 16.7501 13.6184 16.748 13.634C16.7461 13.6505 16.7435 13.6668 16.74 13.683C16.7143 13.8026 16.6456 13.9086 16.547 13.981L13.601 16.927C13.5549 16.9748 13.4997 17.0129 13.4387 17.0391C13.3777 17.0653 13.3121 17.079 13.2457 17.0796C13.1793 17.0802 13.1135 17.0676 13.052 17.0424C12.9906 17.0173 12.9348 16.9801 12.8878 16.9332C12.8409 16.8863 12.8037 16.8304 12.7786 16.769C12.7534 16.7075 12.7408 16.6417 12.7414 16.5753C12.742 16.5089 12.7557 16.4433 12.7819 16.3823C12.8081 16.3213 12.8462 16.2661 12.894 16.22L15.049 14.065L8.498 14.073C7.31 14.073 6.36202 13.383 5.97402 12.453C5.58702 11.522 5.767 10.348 6.644 9.47L9.144 6.97C9.767 6.348 9.83702 5.647 9.59902 5.077C9.36202 4.507 8.81 4.073 7.998 4.073H3.248C3.1154 4.073 2.98823 4.02031 2.89446 3.92654C2.80069 3.83278 2.748 3.70561 2.748 3.573C2.748 3.44039 2.80069 3.31322 2.89446 3.21945C2.98823 3.12568 3.1154 3.073 3.248 3.073H7.998Z" fill="currentColor"/>
</svg>
