<svg width="20" height="20" viewBox="0 0 20 20" fill="none" xmlns="http://www.w3.org/2000/svg">
<path d="M11.744 2.00398C10.85 2.02198 9.915 2.37798 9.146 3.14598L4.146 8.14598C3.309 8.98398 2.968 10.188 3.027 11.373C3.087 12.558 3.543 13.75 4.397 14.603C5.249 15.456 6.434 15.918 7.617 15.98C8.8 16.043 10.007 15.7 10.854 14.854L16.854 8.85398C16.9005 8.80749 16.9374 8.7523 16.9625 8.69156C16.9877 8.63082 17.0006 8.56572 17.0006 8.49998C17.0006 8.43423 16.9877 8.36914 16.9625 8.3084C16.9374 8.24766 16.9005 8.19247 16.854 8.14598C16.8075 8.09949 16.7523 8.06261 16.6916 8.03745C16.6308 8.01229 16.5657 7.99934 16.5 7.99934C16.4343 7.99934 16.3692 8.01229 16.3084 8.03745C16.2477 8.06261 16.1925 8.09949 16.146 8.14598L10.146 14.146C9.543 14.75 8.624 15.033 7.67 14.982C6.716 14.932 5.751 14.544 5.104 13.896C4.457 13.25 4.074 12.28 4.025 11.322C3.978 10.364 4.263 9.44398 4.854 8.85398L9.854 3.85398C11.038 2.66898 12.612 2.84898 13.408 3.60498C14.205 4.36198 14.271 6.02198 13.146 7.14598L8.646 11.646C8.054 12.239 7.552 12.095 7.229 11.771C6.905 11.448 6.761 10.946 7.354 10.354L10.854 6.85398C10.9005 6.80749 10.9374 6.7523 10.9625 6.69156C10.9877 6.63082 11.0006 6.56572 11.0006 6.49998C11.0006 6.43423 10.9877 6.36914 10.9625 6.3084C10.9374 6.24766 10.9005 6.19247 10.854 6.14598C10.8075 6.09949 10.7523 6.06261 10.6916 6.03745C10.6308 6.01229 10.5657 5.99934 10.5 5.99934C10.4343 5.99934 10.3692 6.01229 10.3084 6.03745C10.2477 6.06261 10.1925 6.09949 10.146 6.14598L6.646 9.64598C5.739 10.554 5.845 11.802 6.521 12.479C7.198 13.155 8.446 13.261 9.354 12.354L13.854 7.85398C15.337 6.36998 15.374 4.09098 14.098 2.87898C13.492 2.30298 12.638 1.98498 11.744 2.00398Z" fill="currentColor"/>
</svg>
