<svg width="20" height="20" viewBox="0 0 20 20" fill="none" xmlns="http://www.w3.org/2000/svg">
<path d="M3.529 2.98999C3.65814 2.99941 3.77859 3.05856 3.865 3.15499L6.513 5.99699H7.521C7.75163 6.30453 8.05007 6.55473 8.39312 6.72817C8.73618 6.90161 9.11461 6.9936 9.499 6.99699H6.296C6.22725 6.9973 6.15917 6.98343 6.09603 6.95624C6.03288 6.92906 5.97602 6.88914 5.929 6.83899L3.134 3.83899C3.06645 3.76939 3.0206 3.68164 3.00204 3.58644C2.98349 3.49124 2.99302 3.3927 3.02948 3.30282C3.06594 3.21294 3.12775 3.1356 3.20739 3.08024C3.28703 3.02487 3.38105 2.99386 3.478 2.99099C3.49465 2.99016 3.51134 2.99016 3.528 2.99099L3.529 2.98999ZM9.499 6.99699C9.88356 6.99375 10.2622 6.90183 10.6054 6.72839C10.9487 6.55495 11.2473 6.30466 11.478 5.99699H13.499C13.5647 5.99687 13.6298 6.00971 13.6905 6.03476C13.7513 6.05981 13.8065 6.09659 13.853 6.14299L16.853 9.14299C16.9008 9.18911 16.9388 9.24429 16.965 9.30529C16.9913 9.36629 17.005 9.4319 17.0056 9.49829C17.0062 9.56468 16.9935 9.63052 16.9684 9.69197C16.9433 9.75342 16.9061 9.80924 16.8592 9.85619C16.8122 9.90313 16.7564 9.94026 16.695 9.9654C16.6335 9.99054 16.5677 10.0032 16.5013 10.0026C16.4349 10.002 16.3693 9.98825 16.3083 9.96204C16.2473 9.93584 16.1921 9.89775 16.146 9.84999L13.292 6.99699H11V10.829C11.964 12.478 13.83 14.544 16.582 15.003C16.6469 15.0138 16.709 15.0372 16.7648 15.072C16.8206 15.1067 16.869 15.1522 16.9073 15.2057C16.9455 15.2591 16.9729 15.3196 16.9878 15.3837C17.0027 15.4478 17.0048 15.5141 16.994 15.579C16.9832 15.6439 16.9598 15.706 16.925 15.7618C16.8902 15.8176 16.8448 15.866 16.7913 15.9043C16.7378 15.9425 16.6773 15.9699 16.6133 15.9848C16.5492 15.9996 16.4829 16.0018 16.418 15.991C13.992 15.586 12.203 14.126 11.02 12.643C11.0193 12.643 11.0187 12.643 11.018 12.643H11.014C10.009 11.721 8.84 11.643 7.785 12.405C6.731 13.167 6.002 14.752 6.002 16.503C6.002 16.6356 5.94932 16.7628 5.85555 16.8565C5.76178 16.9503 5.63461 17.003 5.502 17.003C5.36939 17.003 5.24221 16.9503 5.14844 16.8565C5.05468 16.7628 5.002 16.6356 5.002 16.503C5.002 14.481 5.803 12.603 7.199 11.594C7.85733 11.1081 8.66661 10.8714 9.483 10.926C9.656 10.938 9.829 10.969 10 11.008C9.99996 11.0047 9.99996 11.0013 10 10.998V6.99799L9.499 6.99699ZM9.499 2.99699C10.322 2.99699 10.999 3.67399 10.999 4.49699C10.999 5.31899 10.322 5.99699 9.499 5.99699C8.677 5.99699 7.999 5.31899 7.999 4.49699C7.999 3.67399 8.677 2.99699 9.499 2.99699Z" fill="currentColor"/>
</svg>
