<svg width="20" height="20" viewBox="0 0 20 20" fill="none" xmlns="http://www.w3.org/2000/svg">
<path d="M13.496 6.49403C13.3961 6.49342 13.2982 6.52278 13.2152 6.5783C13.1321 6.63383 13.0675 6.71298 13.0299 6.80554C12.9922 6.8981 12.9831 6.99983 13.0038 7.09759C13.0245 7.19536 13.074 7.28468 13.146 7.35403L15.293 9.50003H4.707L6.854 7.35403C6.90049 7.30754 6.93737 7.25235 6.96252 7.19161C6.98768 7.13087 7.00063 7.06577 7.00063 7.00003C7.00063 6.93428 6.98768 6.86918 6.96252 6.80844C6.93737 6.7477 6.90049 6.69252 6.854 6.64603C6.80751 6.59954 6.75232 6.56266 6.69158 6.5375C6.63085 6.51235 6.56575 6.4994 6.5 6.4994C6.43426 6.4994 6.36916 6.51235 6.30842 6.5375C6.24768 6.56266 6.19249 6.59954 6.146 6.64603L3.146 9.64603C3.09944 9.69247 3.0625 9.74765 3.03729 9.80839C3.01208 9.86914 2.99911 9.93426 2.99911 10C2.99911 10.0658 3.01208 10.1309 3.03729 10.1917C3.0625 10.2524 3.09944 10.3076 3.146 10.354L6.146 13.354C6.19249 13.4005 6.24768 13.4374 6.30842 13.4626C6.36916 13.4877 6.43426 13.5007 6.5 13.5007C6.56575 13.5007 6.63085 13.4877 6.69158 13.4626C6.75232 13.4374 6.80751 13.4005 6.854 13.354C6.90049 13.3075 6.93737 13.2524 6.96252 13.1916C6.98768 13.1309 7.00063 13.0658 7.00063 13C7.00063 12.9343 6.98768 12.8692 6.96252 12.8084C6.93737 12.7477 6.90049 12.6925 6.854 12.646L4.707 10.5H15.293L13.146 12.646C13.0995 12.6925 13.0626 12.7477 13.0375 12.8084C13.0123 12.8692 12.9994 12.9343 12.9994 13C12.9994 13.0658 13.0123 13.1309 13.0375 13.1916C13.0626 13.2524 13.0995 13.3075 13.146 13.354C13.1925 13.4005 13.2477 13.4374 13.3084 13.4626C13.3692 13.4877 13.4343 13.5007 13.5 13.5007C13.5657 13.5007 13.6308 13.4877 13.6916 13.4626C13.7523 13.4374 13.8075 13.4005 13.854 13.354L16.854 10.354C16.9006 10.3076 16.9375 10.2524 16.9627 10.1917C16.9879 10.1309 17.0009 10.0658 17.0009 10C17.0009 9.93426 16.9879 9.86914 16.9627 9.80839C16.9375 9.74765 16.9006 9.69247 16.854 9.64603L13.854 6.64603C13.8075 6.59806 13.7519 6.5599 13.6904 6.53379C13.6289 6.50768 13.5628 6.49416 13.496 6.49403Z" fill="currentColor"/>
</svg>
