<svg width="20" height="20" viewBox="0 0 20 20" fill="none" xmlns="http://www.w3.org/2000/svg">
<path d="M10.5 3C10.3674 3 10.2402 3.05268 10.1464 3.14645C10.0527 3.24021 10 3.36739 10 3.5V16.5C10 16.6326 10.0527 16.7598 10.1464 16.8536C10.2402 16.9473 10.3674 17 10.5 17H12.5C12.6326 17 12.7598 16.9473 12.8536 16.8536C12.9473 16.7598 13 16.6326 13 16.5V3.5C13 3.36739 12.9473 3.24021 12.8536 3.14645C12.7598 3.05268 12.6326 3 12.5 3H10.5ZM10 8.482C9.99672 8.39192 9.96916 8.30441 9.92022 8.22871C9.87128 8.15302 9.80279 8.09196 9.722 8.052L7.722 7.052C7.6033 6.99305 7.46606 6.98364 7.34043 7.02583C7.2148 7.06802 7.11106 7.15836 7.052 7.277L3.052 15.277C2.99305 15.3957 2.98364 15.5329 3.02583 15.6586C3.06802 15.7842 3.15836 15.8879 3.277 15.947L5.277 16.947C5.39557 17.006 5.53272 17.0156 5.65833 16.9736C5.78394 16.9316 5.88776 16.8415 5.947 16.723L9.947 8.723C9.98436 8.64866 10.0026 8.56616 10 8.483V8.482ZM11 4H12V16H11V4ZM14.5 5C14.3674 5 14.2402 5.05268 14.1464 5.14645C14.0527 5.24021 14 5.36739 14 5.5V16.5C14 16.6326 14.0527 16.7598 14.1464 16.8536C14.2402 16.9473 14.3674 17 14.5 17H16.5C16.6326 17 16.7598 16.9473 16.8536 16.8536C16.9473 16.7598 17 16.6326 17 16.5V5.5C17 5.36739 16.9473 5.24021 16.8536 5.14645C16.7598 5.05268 16.6326 5 16.5 5H14.5Z" fill="currentColor"/>
</svg>
