<svg width="20" height="20" viewBox="0 0 20 20" fill="none" xmlns="http://www.w3.org/2000/svg">
<path d="M6.003 5C4.786 5 3.761 5.347 3.056 6.053C2.35 6.758 2.003 7.783 2.003 9V12.42C1.99145 12.4915 1.99557 12.5647 2.01508 12.6344C2.03459 12.7042 2.06903 12.7689 2.116 12.824C2.12116 12.8308 2.1265 12.8375 2.132 12.844C2.13786 12.8498 2.14386 12.8555 2.15 12.861C2.15133 12.8617 2.15266 12.8623 2.154 12.863C2.1645 12.8742 2.17552 12.8848 2.187 12.895C2.18833 12.8957 2.18966 12.8963 2.191 12.897C2.24577 12.9409 2.30916 12.9727 2.37704 12.9904C2.44492 13.0082 2.51578 13.0114 2.585 13H2.753C2.86404 13.0012 2.97231 12.9654 3.06073 12.8982C3.14916 12.831 3.21271 12.7363 3.24136 12.6291C3.27002 12.5218 3.26214 12.408 3.21899 12.3057C3.17583 12.2034 3.09984 12.1183 3.003 12.064V9C3.003 7.968 3.281 7.242 3.763 6.76C4.245 6.278 4.97 6 6.003 6H10.296L13.15 8.854C13.2437 8.94747 13.3706 8.99997 13.503 9H15.003C15.643 9 16.126 9.205 16.463 9.541C16.799 9.877 17.003 10.361 17.003 11V12.5C17.003 12.6326 17.0557 12.7598 17.1494 12.8536C17.2432 12.9473 17.3704 13 17.503 13C17.6356 13 17.7628 12.9473 17.8566 12.8536C17.9503 12.7598 18.003 12.6326 18.003 12.5V11C18.003 10.139 17.708 9.373 17.169 8.834C16.631 8.295 15.864 8 15.003 8H13.71L10.857 5.146C10.8105 5.0996 10.7553 5.06282 10.6945 5.03777C10.6338 5.01272 10.5687 4.99988 10.503 5H6.003ZM5.503 12C4.681 12 4.003 12.677 4.003 13.5C4.003 14.323 4.681 15 5.503 15C6.326 15 7.003 14.323 7.003 13.5C7.003 12.677 6.326 12 5.503 12ZM8.503 12C8.37039 12 8.24322 12.0527 8.14945 12.1464C8.05568 12.2402 8.003 12.3674 8.003 12.5C8.003 12.6326 8.05568 12.7598 8.14945 12.8536C8.24322 12.9473 8.37039 13 8.503 13H11.503C11.6356 13 11.7628 12.9473 11.8566 12.8536C11.9503 12.7598 12.003 12.6326 12.003 12.5C12.003 12.3674 11.9503 12.2402 11.8566 12.1464C11.7628 12.0527 11.6356 12 11.503 12H8.503ZM14.503 12C13.681 12 13.003 12.677 13.003 13.5C13.003 14.323 13.681 15 14.503 15C15.326 15 16.003 14.323 16.003 13.5C16.003 12.677 15.326 12 14.503 12ZM5.503 13C5.785 13 6.003 13.218 6.003 13.5C6.003 13.782 5.785 14 5.503 14C5.43708 14.0009 5.37164 13.9887 5.31055 13.9639C5.24946 13.9391 5.19397 13.9023 5.14735 13.8557C5.10073 13.809 5.06393 13.7535 5.03914 13.6925C5.01435 13.6314 5.00206 13.5659 5.003 13.5C5.003 13.218 5.221 13 5.503 13ZM14.503 13C14.785 13 15.003 13.218 15.003 13.5C15.003 13.782 14.785 14 14.503 14C14.4371 14.0009 14.3716 13.9887 14.3105 13.9639C14.2495 13.9391 14.194 13.9023 14.1473 13.8557C14.1007 13.809 14.0639 13.7535 14.0391 13.6925C14.0143 13.6314 14.0021 13.5659 14.003 13.5C14.003 13.218 14.221 13 14.503 13Z" fill="currentColor"/>
</svg>
