<svg width="20" height="20" viewBox="0 0 20 20" fill="none" xmlns="http://www.w3.org/2000/svg">
<path d="M13.496 2.99597C13.3634 2.99597 13.2362 3.04866 13.1425 3.14243C13.0487 3.23619 12.996 3.36336 12.996 3.49597V6.50397C12.996 6.63658 13.0487 6.76378 13.1425 6.85754C13.2362 6.95131 13.3634 7.00397 13.496 7.00397H16.504C16.6366 7.00397 16.7638 6.95131 16.8575 6.85754C16.9513 6.76378 17.004 6.63658 17.004 6.50397V3.49597C17.004 3.36336 16.9513 3.23619 16.8575 3.14243C16.7638 3.04866 16.6366 2.99597 16.504 2.99597H13.496ZM3.496 12.996C3.36339 12.996 3.23622 13.0487 3.14245 13.1424C3.04869 13.2362 2.996 13.3634 2.996 13.496V16.504C2.996 16.6366 3.04869 16.7638 3.14245 16.8575C3.23622 16.9513 3.36339 17.004 3.496 17.004H6.504C6.6366 17.004 6.76377 16.9513 6.85754 16.8575C6.95131 16.7638 7.004 16.6366 7.004 16.504V13.496C7.004 13.3634 6.95131 13.2362 6.85754 13.1424C6.76377 13.0487 6.6366 12.996 6.504 12.996H3.496Z" fill="currentColor"/>
<path d="M7.488 4.99597C7.3554 4.99597 7.22823 5.04866 7.13446 5.14243C7.04069 5.23619 6.988 5.36336 6.988 5.49597V6.99597H5.488C5.3554 6.99597 5.22823 7.04866 5.13446 7.14243C5.04069 7.23619 4.988 7.36336 4.988 7.49597L4.996 10.496C4.99627 10.6286 5.0492 10.7557 5.14316 10.8492C5.23711 10.9428 5.3644 10.9952 5.49701 10.995C5.62962 10.9947 5.75667 10.9418 5.85025 10.8478C5.94383 10.7539 5.99627 10.6266 5.996 10.494L5.98999 7.99597H7.488C7.62061 7.99597 7.74778 7.94329 7.84155 7.84952C7.93532 7.75575 7.988 7.62858 7.988 7.49597V5.99597H10.488C10.6206 5.99597 10.7478 5.94329 10.8416 5.84952C10.9353 5.75575 10.988 5.62858 10.988 5.49597C10.988 5.36336 10.9353 5.23619 10.8416 5.14243C10.7478 5.04866 10.6206 4.99597 10.488 4.99597H7.488ZM11.486 7.98398C11.3562 7.98742 11.2328 8.0412 11.142 8.13397L8.142 11.142C8.0925 11.1877 8.05279 11.243 8.02521 11.3045C7.99762 11.366 7.98276 11.4325 7.9815 11.4998C7.98025 11.5672 7.99263 11.6342 8.01791 11.6967C8.04319 11.7591 8.08084 11.8159 8.1286 11.8634C8.17636 11.911 8.23325 11.9484 8.29584 11.9734C8.35842 11.9984 8.42544 12.0105 8.49283 12.009C8.56021 12.0075 8.62657 11.9923 8.68796 11.9645C8.74934 11.9366 8.80446 11.8967 8.85 11.847L11.85 8.84198C11.9222 8.77169 11.9714 8.68123 11.9913 8.58246C12.0112 8.48369 12.0008 8.38123 11.9615 8.28848C11.9221 8.19573 11.8557 8.11702 11.7708 8.06268C11.686 8.00835 11.5867 7.98092 11.486 7.98398ZM14.488 8.98798C14.4223 8.98902 14.3575 9.00299 14.2973 9.02908C14.237 9.05518 14.1825 9.0929 14.1368 9.14008C14.0911 9.18725 14.0551 9.24295 14.031 9.30402C14.0068 9.36508 13.9949 9.43031 13.996 9.49597V11.996H12.496C12.3634 11.996 12.2362 12.0487 12.1425 12.1424C12.0487 12.2362 11.996 12.3634 11.996 12.496V13.994L9.49801 13.988C9.43235 13.9877 9.36728 14.0004 9.30652 14.0253C9.24575 14.0502 9.19047 14.0868 9.14386 14.133C9.09724 14.1792 9.06019 14.2342 9.03482 14.2948C9.00945 14.3554 8.99626 14.4203 8.996 14.486C8.99574 14.5516 9.00841 14.6167 9.03329 14.6775C9.05818 14.7382 9.09478 14.7935 9.14102 14.8401C9.18726 14.8867 9.24226 14.9238 9.30282 14.9492C9.36339 14.9745 9.42833 14.9877 9.49399 14.988L12.494 14.996C12.5598 14.9962 12.625 14.9835 12.6859 14.9585C12.7468 14.9335 12.8022 14.8967 12.8488 14.8503C12.8955 14.8038 12.9325 14.7486 12.9578 14.6878C12.983 14.627 12.996 14.5618 12.996 14.496V12.996H14.496C14.6286 12.996 14.7558 12.9433 14.8495 12.8495C14.9433 12.7557 14.996 12.6286 14.996 12.496V9.49597C14.9971 9.42896 14.9847 9.36241 14.9595 9.30029C14.9344 9.23817 14.897 9.18176 14.8496 9.13437C14.8022 9.08698 14.7458 9.04959 14.6837 9.02444C14.6216 8.9993 14.555 8.9869 14.488 8.98798Z" fill="currentColor"/>
</svg>
