<svg width="20" height="20" viewBox="0 0 20 20" fill="none" xmlns="http://www.w3.org/2000/svg">
<path d="M13.496 2.99597C13.3634 2.99597 13.2362 3.04866 13.1425 3.14243C13.0487 3.23619 12.996 3.36336 12.996 3.49597V6.50397C12.996 6.63658 13.0487 6.76378 13.1425 6.85754C13.2362 6.95131 13.3634 7.00397 13.496 7.00397H16.504C16.6366 7.00397 16.7638 6.95131 16.8575 6.85754C16.9513 6.76378 17.004 6.63658 17.004 6.50397V3.49597C17.004 3.36336 16.9513 3.23619 16.8575 3.14243C16.7638 3.04866 16.6366 2.99597 16.504 2.99597H13.496ZM13.996 3.99597H16.004V6.00397H13.996V3.99597ZM3.496 12.996C3.36339 12.996 3.23622 13.0487 3.14245 13.1424C3.04869 13.2362 2.996 13.3634 2.996 13.496V16.504C2.996 16.6366 3.04869 16.7638 3.14245 16.8575C3.23622 16.9513 3.36339 17.004 3.496 17.004H6.504C6.6366 17.004 6.76377 16.9513 6.85754 16.8575C6.95131 16.7638 7.004 16.6366 7.004 16.504V13.496C7.004 13.3634 6.95131 13.2362 6.85754 13.1424C6.76377 13.0487 6.6366 12.996 6.504 12.996H3.496ZM3.996 13.996H6.004V16.004H3.996V13.996Z" fill="currentColor"/>
<path d="M9.5 4.98794C9.43362 4.98729 9.36777 4.99986 9.3063 5.02493C9.24484 5.04999 9.18899 5.08705 9.142 5.13393L8.142 6.13393C8.09551 6.18042 8.05864 6.23561 8.03348 6.29635C8.00832 6.35709 7.99536 6.42219 7.99536 6.48794C7.99536 6.55368 8.00832 6.61879 8.03348 6.67953C8.05864 6.74027 8.09551 6.79545 8.142 6.84194C8.18848 6.88843 8.24367 6.9253 8.30441 6.95046C8.36515 6.97562 8.43026 6.98858 8.496 6.98858C8.56174 6.98858 8.62685 6.97562 8.68759 6.95046C8.74833 6.9253 8.80352 6.88843 8.85 6.84194L9.70099 5.98995L10.486 5.99593C10.6186 5.99673 10.7461 5.94482 10.8404 5.85162C10.9348 5.75841 10.9882 5.63153 10.989 5.49893C10.9898 5.36632 10.9379 5.23882 10.8447 5.14449C10.7515 5.05016 10.6246 4.99673 10.492 4.99593L9.5 4.98794ZM6.48599 7.98394C6.3562 7.98738 6.23284 8.04117 6.142 8.13393L5.142 9.13393C5.09559 9.18045 5.05883 9.23567 5.03378 9.29641C5.00873 9.35715 4.99588 9.42223 4.996 9.48794V10.4959C4.996 10.6285 5.04869 10.7557 5.14245 10.8495C5.23622 10.9432 5.36339 10.9959 5.496 10.9959C5.62861 10.9959 5.75578 10.9432 5.84955 10.8495C5.94331 10.7557 5.996 10.6285 5.996 10.4959V9.69494L6.85 8.84194C6.92219 8.77166 6.97144 8.68119 6.99133 8.58242C7.01122 8.48365 7.00083 8.3812 6.96149 8.28845C6.92214 8.19569 6.85569 8.11698 6.77084 8.06265C6.686 8.00831 6.5867 7.98088 6.48599 7.98394ZM14.48 8.97994C14.4143 8.98099 14.3495 8.99496 14.2892 9.02105C14.229 9.04715 14.1745 9.08484 14.1288 9.13201C14.0831 9.17919 14.0471 9.23491 14.023 9.29598C13.9988 9.35705 13.9869 9.42228 13.988 9.48794V10.2879L13.135 11.1419C13.0873 11.1881 13.0492 11.2432 13.0229 11.3042C12.9967 11.3652 12.983 11.4309 12.9824 11.4972C12.9818 11.5636 12.9945 11.6295 13.0196 11.6909C13.0447 11.7524 13.0819 11.8082 13.1288 11.8551C13.1758 11.9021 13.2316 11.9392 13.293 11.9643C13.3545 11.9895 13.4203 12.0021 13.4867 12.0015C13.5531 12.001 13.6187 11.9872 13.6797 11.961C13.7407 11.9348 13.7959 11.8967 13.842 11.8489L14.842 10.8489C14.9355 10.7552 14.988 10.6283 14.988 10.4959V9.48794C14.9891 9.42093 14.9767 9.35438 14.9515 9.29226C14.9264 9.23014 14.889 9.17369 14.8416 9.12631C14.7942 9.07892 14.7378 9.04156 14.6757 9.01641C14.6136 8.99127 14.547 8.97886 14.48 8.97994ZM11.478 12.99C11.3483 12.9942 11.2253 13.0487 11.135 13.1419L10.283 13.994L9.5 13.9879C9.36739 13.9869 9.23978 14.0385 9.14526 14.1316C9.05074 14.2246 8.99706 14.3513 8.996 14.4839C8.99494 14.6165 9.0466 14.7442 9.13962 14.8387C9.23263 14.9332 9.35939 14.9869 9.492 14.9879L10.484 14.9959C10.5505 14.9965 10.6163 14.9837 10.6778 14.9585C10.7393 14.9332 10.7951 14.896 10.842 14.8489L11.842 13.8489C11.9146 13.7787 11.9641 13.6882 11.9843 13.5892C12.0044 13.4903 11.994 13.3875 11.9546 13.2946C11.9152 13.2016 11.8486 13.1228 11.7635 13.0684C11.6785 13.014 11.5789 12.9867 11.478 12.99Z" fill="currentColor"/>
</svg>
