<svg width="20" height="20" viewBox="0 0 20 20" fill="none" xmlns="http://www.w3.org/2000/svg">
<path d="M10.012 12.004C9.95431 12.0026 9.89683 12.011 9.84201 12.029L3.84201 14.029C3.74198 14.0619 3.65486 14.1255 3.59311 14.2108C3.53136 14.2961 3.49814 14.3987 3.49814 14.504C3.49814 14.6093 3.53136 14.7119 3.59311 14.7972C3.65486 14.8825 3.74198 14.9461 3.84201 14.979L9.84201 16.979C9.94457 17.0132 10.0554 17.0132 10.158 16.979L16.158 14.979C16.258 14.9461 16.3451 14.8825 16.4069 14.7972C16.4686 14.7119 16.5019 14.6093 16.5019 14.504C16.5019 14.3987 16.4686 14.2961 16.4069 14.2108C16.3451 14.1255 16.258 14.0619 16.158 14.029L10.158 12.029C10.1108 12.0135 10.0616 12.005 10.012 12.004Z" fill="currentColor"/>
<path d="M9.99202 2.99598C9.92636 2.99702 9.86155 3.01099 9.80128 3.03708C9.74102 3.06318 9.68648 3.10089 9.64079 3.14807C9.5951 3.19524 9.55914 3.25095 9.53499 3.31202C9.51083 3.37308 9.49896 3.43832 9.50001 3.50398V9.39298L3.84202 11.279C3.71605 11.3209 3.61186 11.4111 3.55241 11.5298C3.49296 11.6485 3.4831 11.786 3.52501 11.912C3.56691 12.038 3.65715 12.1421 3.77586 12.2016C3.89457 12.261 4.03203 12.2709 4.158 12.229L10 10.281L15.842 12.229C15.968 12.2709 16.1055 12.261 16.2242 12.2016C16.3429 12.1421 16.4331 12.038 16.475 11.912C16.5169 11.786 16.5071 11.6485 16.4476 11.5298C16.3882 11.4111 16.284 11.3209 16.158 11.279L10.5 9.39398V3.50398C10.5011 3.43697 10.4887 3.37043 10.4635 3.30831C10.4384 3.24619 10.401 3.18975 10.3536 3.14236C10.3062 3.09497 10.2498 3.05759 10.1877 3.03244C10.1256 3.0073 10.059 2.99489 9.99202 2.99598Z" fill="currentColor"/>
</svg>
