<svg width="20" height="20" viewBox="0 0 20 20" fill="none" xmlns="http://www.w3.org/2000/svg">
<path d="M11.665 3.51001C11.7307 3.51106 11.7955 3.52503 11.8557 3.55112C11.916 3.57722 11.9705 3.61493 12.0162 3.66211C12.0619 3.70928 12.0979 3.76499 12.122 3.82605C12.1462 3.88712 12.1581 3.95235 12.157 4.01802V12.928L16.843 14.803C16.9663 14.8524 17.065 14.9486 17.1173 15.0707C17.1697 15.1928 17.1713 15.3307 17.122 15.454C17.0727 15.5773 16.9764 15.676 16.8543 15.7283C16.7322 15.7807 16.5943 15.7823 16.471 15.733L11.643 13.801L3.81899 16.491C3.75668 16.5131 3.69062 16.5226 3.62462 16.5189C3.55863 16.5153 3.49401 16.4986 3.4345 16.4699C3.37499 16.4411 3.32176 16.4008 3.27791 16.3514C3.23407 16.3019 3.20048 16.2442 3.17907 16.1817C3.15765 16.1192 3.14884 16.053 3.15316 15.9871C3.15747 15.9211 3.17483 15.8567 3.20421 15.7975C3.23359 15.7382 3.27442 15.6854 3.32433 15.6421C3.37425 15.5988 3.43226 15.5658 3.49502 15.545L11.157 12.911V4.01802C11.1559 3.95101 11.1683 3.88447 11.1935 3.82235C11.2186 3.76022 11.256 3.70379 11.3034 3.6564C11.3508 3.60901 11.4072 3.57163 11.4693 3.54648C11.5314 3.52134 11.598 3.50893 11.665 3.51001Z" fill="currentColor"/>
<path d="M9.65099 3.95402C9.71715 3.95322 9.78284 3.96557 9.84419 3.99034C9.90555 4.01511 9.96137 4.05182 10.0084 4.09833C10.0555 4.14483 10.0929 4.20022 10.1184 4.26128C10.1439 4.32234 10.157 4.38785 10.157 4.45402V11.338C10.1571 11.4442 10.1235 11.5476 10.0609 11.6334C9.99836 11.7191 9.91013 11.7827 9.80901 11.815L3.80901 13.745C3.73399 13.769 3.65439 13.7748 3.57667 13.7622C3.49896 13.7495 3.42532 13.7187 3.36177 13.6722C3.29822 13.6257 3.24657 13.5649 3.21098 13.4946C3.1754 13.4244 3.15689 13.3468 3.157 13.268V6.38302C3.15707 6.27703 3.19082 6.17382 3.25337 6.08826C3.31592 6.00271 3.40402 5.93924 3.50499 5.90702L9.50499 3.97702C9.55225 3.96216 9.60145 3.95441 9.65099 3.95402Z" fill="currentColor"/>
</svg>
