<svg width="20" height="20" viewBox="0 0 20 20" fill="none" xmlns="http://www.w3.org/2000/svg">
<path d="M7.987 5.494C7.85692 5.49797 7.73351 5.5525 7.643 5.646L3.643 9.646C3.54926 9.73977 3.4966 9.86692 3.4966 9.9995C3.4966 10.1321 3.54926 10.2592 3.643 10.353L7.643 14.353C7.68912 14.4008 7.74429 14.4388 7.8053 14.4651C7.8663 14.4913 7.93191 14.505 7.9983 14.5056C8.06469 14.5062 8.13053 14.4936 8.19197 14.4684C8.25342 14.4433 8.30925 14.4061 8.3562 14.3592C8.40314 14.3123 8.44027 14.2564 8.46541 14.195C8.49055 14.1335 8.5032 14.0677 8.50262 14.0013C8.50205 13.9349 8.48825 13.8693 8.46205 13.8083C8.43584 13.7473 8.39775 13.6921 8.35 13.646L5.203 10.499H15.996C16.1286 10.499 16.2558 10.4463 16.3496 10.3526C16.4433 10.2588 16.496 10.1316 16.496 9.999C16.496 9.86639 16.4433 9.73922 16.3496 9.64545C16.2558 9.55168 16.1286 9.499 15.996 9.499H5.203L8.35 6.353C8.42284 6.2829 8.47272 6.19236 8.49306 6.09334C8.5134 5.99431 8.50325 5.89144 8.46393 5.7983C8.42462 5.70516 8.358 5.62613 8.27285 5.57163C8.18771 5.51712 8.08804 5.48971 7.987 5.493V5.494Z" fill="currentColor"/>
</svg>
