<svg width="20" height="20" viewBox="0 0 20 20" fill="none" xmlns="http://www.w3.org/2000/svg">
<path d="M9.93002 2.96863C9.00145 2.96863 8.63002 4.08291 9.28002 4.73291L10.6729 6.03291H3.98717C2.59432 6.03291 2.59432 8.07576 3.98717 8.07576H7.05145L2.31574 12.3472C1.29432 13.2758 2.68717 14.7615 3.61574 13.8329L5.93717 11.6972C6.03003 14.6686 8.44431 17.0829 11.4157 17.0829C14.48 17.0829 16.8943 14.5758 16.8943 11.6043C16.8943 10.0258 16.2443 8.63291 15.13 7.61148L10.4872 3.34006C10.4872 3.06149 10.2086 2.96863 9.93002 2.96863ZM11.5086 7.98291C13.4586 7.98291 15.0372 9.56148 15.0372 11.5115C15.0372 13.4615 13.4586 15.04 11.5086 15.04C9.55859 15.04 7.98002 13.4615 7.98002 11.5115C7.98002 9.56148 9.55859 7.98291 11.5086 7.98291ZM11.5086 9.74719C10.58 9.74719 9.7443 10.49 9.7443 11.4186C9.7443 12.3472 10.4872 13.09 11.5086 13.09C12.4372 13.09 13.2729 12.3472 13.2729 11.4186C13.18 10.5829 12.4372 9.74719 11.5086 9.74719Z" fill="currentColor"/>
</svg>
