<svg width="20" height="20" viewBox="0 0 20 20" fill="none" xmlns="http://www.w3.org/2000/svg">
<path d="M14.476 3.03799C13.878 2.91099 13.193 3.08299 12.576 3.60299C12.041 4.05499 11.524 4.88999 10.998 5.91299C10.481 4.89899 9.96999 4.06998 9.43499 3.62298C8.81799 3.10598 8.129 2.936 7.529 3.062C6.329 3.314 5.57899 4.44498 5.08199 5.20498C5.04177 5.25976 5.01314 5.32217 4.99785 5.38839C4.98257 5.45461 4.98094 5.52327 4.99308 5.59014C5.00521 5.65701 5.03085 5.72071 5.06843 5.77733C5.106 5.83396 5.15474 5.88232 5.21164 5.91949C5.26855 5.95665 5.33242 5.98185 5.39937 5.99349C5.46633 6.00514 5.53497 6.00301 5.60108 5.98723C5.66719 5.97146 5.72937 5.94237 5.78386 5.90175C5.83835 5.86114 5.88399 5.80985 5.91799 5.751C6.38499 5.038 7.114 4.17098 7.734 4.04098C8.044 3.97598 8.35199 4.01899 8.79299 4.38799C9.23399 4.75799 9.771 5.47798 10.333 6.68798C10.3731 6.77461 10.4371 6.84799 10.5176 6.89937C10.598 6.95076 10.6915 6.97803 10.787 6.97799H11.209C11.304 6.97811 11.397 6.95118 11.4772 6.90035C11.5574 6.84953 11.6215 6.77692 11.662 6.691C12.237 5.47 12.778 4.74198 13.221 4.36898C13.664 3.99498 13.965 3.95098 14.267 4.01498C14.873 4.14498 15.595 5.019 16.074 5.751C16.108 5.80985 16.1536 5.86114 16.2081 5.90175C16.2626 5.94237 16.3248 5.97146 16.3909 5.98723C16.457 6.00301 16.5257 6.00514 16.5926 5.99349C16.6596 5.98185 16.7234 5.95665 16.7803 5.91949C16.8372 5.88232 16.886 5.83396 16.9236 5.77733C16.9611 5.72071 16.9868 5.65701 16.9989 5.59014C17.011 5.52327 17.0094 5.45461 16.9941 5.38839C16.9788 5.32217 16.9502 5.25976 16.91 5.20498C16.408 4.43698 15.673 3.29399 14.476 3.03899V3.03799ZM5.49599 10.011C4.60199 9.84098 3.789 10.368 3.111 11.181C3.06897 11.2316 3.03732 11.2899 3.01784 11.3527C2.99837 11.4155 2.99145 11.4815 2.99749 11.547C3.00968 11.6792 3.07388 11.8011 3.17598 11.886C3.27809 11.9708 3.40974 12.0117 3.54195 11.9995C3.67416 11.9873 3.79612 11.9231 3.88099 11.821C4.45299 11.135 4.891 10.914 5.309 10.994C5.727 11.074 6.348 11.562 7.066 12.759C7.11027 12.8336 7.17319 12.8954 7.24859 12.9383C7.32398 12.9813 7.40924 13.0038 7.49599 13.0038C7.58275 13.0038 7.66801 12.9813 7.7434 12.9383C7.81879 12.8954 7.88171 12.8336 7.92598 12.759C8.64398 11.562 9.26599 11.073 9.68299 10.994C10.102 10.914 10.539 11.134 11.111 11.822C11.153 11.8725 11.2046 11.9143 11.2628 11.945C11.3209 11.9756 11.3846 11.9945 11.45 12.0005C11.5155 12.0065 11.5815 11.9996 11.6443 11.9802C11.7071 11.9607 11.7654 11.929 11.816 11.887C11.8666 11.845 11.9083 11.7934 11.939 11.7352C11.9696 11.677 11.9885 11.6134 11.9945 11.548C12.0005 11.4825 11.9936 11.4165 11.9741 11.3537C11.9547 11.2909 11.923 11.2326 11.881 11.182C11.203 10.368 10.391 9.84098 9.49599 10.012C8.76599 10.15 8.13099 10.778 7.49599 11.679C6.86099 10.779 6.22599 10.15 5.49599 10.011ZM11.682 14.029C11.4647 13.9974 11.2429 14.0359 11.049 14.139C10.67 14.337 10.404 14.682 10.072 15.212C10.0371 15.2677 10.0134 15.3297 10.0025 15.3945C9.99151 15.4593 9.99342 15.5256 10.0081 15.5897C10.0228 15.6538 10.0499 15.7143 10.088 15.7679C10.1261 15.8215 10.1743 15.8671 10.23 15.902C10.2857 15.9369 10.3477 15.9606 10.4125 15.9715C10.4773 15.9825 10.5436 15.9806 10.6077 15.9659C10.6718 15.9512 10.7323 15.9241 10.7859 15.886C10.8395 15.8479 10.8851 15.7997 10.92 15.744C11.213 15.274 11.447 15.058 11.514 15.023C11.547 15.005 11.524 15.016 11.518 15.015C11.511 15.014 11.536 15.018 11.596 15.064C11.834 15.249 12.343 16.042 13.141 16.853C13.1875 16.8999 13.2428 16.937 13.3037 16.9624C13.3646 16.9878 13.43 17.0009 13.496 17.0009C13.562 17.0009 13.6274 16.9878 13.6883 16.9624C13.7492 16.937 13.8045 16.8999 13.851 16.853C14.649 16.043 15.158 15.249 15.396 15.063C15.456 15.018 15.481 15.013 15.475 15.015C15.468 15.015 15.445 15.005 15.479 15.023C15.545 15.058 15.779 15.273 16.072 15.743C16.1423 15.8555 16.2544 15.9354 16.3836 15.9652C16.5128 15.995 16.6485 15.9723 16.761 15.902C16.8734 15.8317 16.9534 15.7196 16.9832 15.5904C17.013 15.4612 16.9903 15.3254 16.92 15.213C16.589 14.683 16.322 14.337 15.943 14.138C15.7493 14.0354 15.528 13.9969 15.311 14.028C15.1172 14.0639 14.9355 14.1482 14.783 14.273C14.333 14.623 13.953 15.195 13.496 15.746C13.04 15.196 12.659 14.623 12.209 14.273C12.0566 14.1487 11.8754 14.0647 11.682 14.029Z" fill="currentColor"/>
</svg>
