<svg width="20" height="20" viewBox="0 0 20 20" fill="none" xmlns="http://www.w3.org/2000/svg">
<path d="M5.507 3C5.24178 3 4.98743 3.10536 4.79989 3.29289C4.61236 3.48043 4.507 3.73478 4.507 4V9.832C4.48917 9.93993 4.48917 10.0501 4.507 10.158V16C4.507 16.2652 4.61236 16.5196 4.79989 16.7071C4.98743 16.8946 5.24178 17 5.507 17H11.507C13.704 17 15.507 15.197 15.507 13C15.507 11.233 14.321 9.772 12.722 9.248C13.179 8.598 13.507 7.849 13.507 7C13.507 4.803 11.704 3 9.507 3H5.507ZM6.507 5H9.507C10.623 5 11.507 5.884 11.507 7C11.507 8.116 10.623 9 9.507 9H6.507V5ZM6.507 11H11.507C12.623 11 13.507 11.884 13.507 13C13.507 14.116 12.623 15 11.507 15H6.507V11Z" fill="currentColor"/>
</svg>
