<svg width="20" height="20" viewBox="0 0 20 20" fill="none" xmlns="http://www.w3.org/2000/svg">
<path d="M7.504 3C6.68 3 6.004 3.68 6.004 4.5V6H4.504C3.684 6 3.004 6.676 3.004 7.5C3.004 8.324 3.684 9 4.504 9H5.504C5.93 9 6.27 8.786 6.539 8.498L11.502 13.463C11.212 13.731 10.996 14.072 10.996 14.5V15.5C10.996 16.32 11.672 17 12.496 17C13.32 17 13.996 16.32 13.996 15.5V14H15.496C16.316 14 16.996 13.324 16.996 12.5C16.996 11.676 16.316 11 15.496 11H14.496C14.07 11 13.73 11.214 13.461 11.502L8.498 6.537C8.788 6.269 9.004 5.928 9.004 5.5V4.5C9.004 3.68 8.328 3 7.504 3Z" fill="currentColor"/>
</svg>
