<svg width="20" height="20" viewBox="0 0 20 20" fill="none" xmlns="http://www.w3.org/2000/svg">
<path d="M6 3C5.86739 3 5.74021 3.05268 5.64645 3.14645C5.55268 3.24021 5.5 3.36739 5.5 3.5V16.5C5.50002 16.5989 5.52939 16.6956 5.5844 16.7779C5.6394 16.8601 5.71757 16.9242 5.809 16.962C5.90043 16.9998 6.00102 17.0096 6.09804 16.9902C6.19505 16.9708 6.28413 16.923 6.354 16.853L10 13.207L13.646 16.853C13.7159 16.923 13.8049 16.9708 13.902 16.9902C13.999 17.0096 14.0996 16.9998 14.191 16.962C14.2824 16.9242 14.3606 16.8601 14.4156 16.7779C14.4706 16.6956 14.5 16.5989 14.5 16.5V3.5C14.5 3.36739 14.4473 3.24021 14.3536 3.14645C14.2598 3.05268 14.1326 3 14 3H6Z" fill="currentColor"/>
</svg>
