<svg width="20" height="20" viewBox="0 0 20 20" fill="none" xmlns="http://www.w3.org/2000/svg">
<path d="M11 2.49999C10.514 2.49999 10.021 2.66 9.637 3.002C9.252 3.344 9 3.87499 9 4.49999V8.49999H5.5C5.36739 8.49999 5.24021 8.55267 5.14645 8.64644C5.05268 8.74021 5 8.86738 5 8.99999V13C5 13.333 4.818 13.725 4.521 14.021C4.225 14.318 3.833 14.5 3.5 14.5C3.36739 14.5 3.24021 14.5527 3.14645 14.6464C3.05268 14.7402 3 14.8674 3 15V17C3 17.1326 3.05268 17.2598 3.14645 17.3535C3.24021 17.4473 3.36739 17.5 3.5 17.5H6.5C6.5657 17.5001 6.63079 17.4873 6.69153 17.4622C6.75227 17.4372 6.80748 17.4004 6.854 17.354L8 16.207V17C8 17.1326 8.05268 17.2598 8.14645 17.3535C8.24021 17.4473 8.36739 17.5 8.5 17.5H13.5C15.278 17.5 17 16.036 17 14V8.99999C17 8.86738 16.9473 8.74021 16.8536 8.64644C16.7598 8.55267 16.6326 8.49999 16.5 8.49999H13V4.49999C13 3.87499 12.748 3.344 12.363 3.002C11.9854 2.67344 11.5005 2.4948 11 2.49999ZM11 3.49999C11.264 3.49999 11.521 3.58997 11.7 3.74797C11.877 3.90597 12 4.12499 12 4.49999V8.49999H11.5C10.824 8.48999 10.824 9.50999 11.5 9.49999H16V10.5H6V9.49999H9.5C9.63261 9.49999 9.75979 9.4473 9.85355 9.35353C9.94732 9.25977 10 9.1326 10 8.99999V4.49999C10 4.12499 10.123 3.90597 10.3 3.74797C10.4962 3.58439 10.7445 3.49643 11 3.49999ZM6 11.5H16V14C16 15.464 14.722 16.5 13.5 16.5H13V15C13 14.8674 12.9473 14.7402 12.8536 14.6464C12.7598 14.5527 12.6326 14.5 12.5 14.5C12.3674 14.5 12.2402 14.5527 12.1464 14.6464C12.0527 14.7402 12 14.8674 12 15V16.5H9V15C9.00018 14.901 8.97095 14.8041 8.91602 14.7217C8.86109 14.6393 8.78294 14.5751 8.69146 14.5372C8.59999 14.4993 8.49932 14.4894 8.40221 14.5087C8.3051 14.5281 8.21593 14.5759 8.146 14.646L6.293 16.5H4V15.277C4.444 15.157 4.906 15.051 5.229 14.729C5.682 14.275 6 13.667 6 13V11.5Z" fill="currentColor"/>
</svg>
