<svg width="20" height="20" viewBox="0 0 20 20" fill="none" xmlns="http://www.w3.org/2000/svg">
<path d="M4.998 2.99695C4.415 2.99695 3.889 3.15104 3.521 3.51904C3.154 3.88604 3 4.41395 3 4.99695V8.005H9V5.51904C8.998 5.18204 9.17801 4.79104 9.47501 4.49304C9.77101 4.19604 10.165 4.01103 10.504 4.00903C11.162 3.99703 11.158 3.01503 10.5 3.00903H10.496L8 3.005V3.49097C8.01 4.16697 6.99 4.16697 7 3.49097V3.00305H6V3.49304C6.01 4.16904 4.99 4.16904 5 3.49304V3.00098H4.998V2.99695ZM3 9.005V9.505C3 9.757 3.164 10.003 3.5 9.99097L5.002 10.001L5 15.995C4.98 17.348 7.02 17.348 7 15.995L6.998 10.001L8.5 9.99097C8.821 9.99097 9 9.745 9 9.505V9.005H3Z" fill="currentColor"/>
<path d="M15 2.99097C14.495 2.99097 13.99 3.329 14 4.005V11.005H16V4.005C16.01 3.329 15.505 2.99097 15 2.99097ZM15 12.019C13.901 12.019 13 12.92 13 14.019C13 14.846 12.867 15.3551 12.668 15.6121C12.468 15.8691 12.168 16.005 11.5 16.005C11.4246 16.0055 11.3502 16.0233 11.2828 16.0571C11.2153 16.0909 11.1565 16.1398 11.111 16.2C11.0701 16.2528 11.0401 16.3134 11.023 16.3781L11.013 16.427C11.0038 16.4765 11.0031 16.5273 11.011 16.577C11.0243 16.6599 11.0572 16.7384 11.107 16.806C11.153 16.867 11.2123 16.9167 11.2804 16.9512C11.3485 16.9857 11.4236 17.004 11.5 17.005C13.519 17.005 14.81 16.741 15.67 16.259C16.526 15.779 16.9 15.0271 16.97 14.3411C16.9887 14.2347 16.9988 14.127 17 14.019C17 12.92 16.098 12.019 15 12.019Z" fill="currentColor"/>
</svg>
