<svg width="20" height="20" viewBox="0 0 20 20" fill="none" xmlns="http://www.w3.org/2000/svg">
<path d="M13 5.49799C12.177 5.49799 11.5 6.17499 11.5 6.99799C11.5 7.82099 12.177 8.49799 13 8.49799C13.823 8.49799 14.5 7.82099 14.5 6.99799C14.5 6.17499 13.823 5.49799 13 5.49799ZM13 6.49799C13.282 6.49799 13.5 6.71599 13.5 6.99799C13.5 7.27999 13.282 7.49799 13 7.49799C12.9341 7.49893 12.8686 7.48665 12.8076 7.46185C12.7465 7.43706 12.691 7.40032 12.6443 7.3537C12.5977 7.30708 12.5609 7.25158 12.5361 7.19049C12.5113 7.1294 12.4991 7.06391 12.5 6.99799C12.5 6.71599 12.718 6.49799 13 6.49799ZM6 7.49799C5.86739 7.49799 5.74022 7.5507 5.64645 7.64447C5.55269 7.73824 5.5 7.86538 5.5 7.99799C5.5 8.13059 5.55269 8.25773 5.64645 8.3515C5.74022 8.44527 5.86739 8.49799 6 8.49799C6.13261 8.49799 6.25978 8.44527 6.35355 8.3515C6.44731 8.25773 6.5 8.13059 6.5 7.99799C6.5 7.86538 6.44731 7.73824 6.35355 7.64447C6.25978 7.5507 6.13261 7.49799 6 7.49799Z" fill="currentColor"/>
<path d="M12 11.502H12.498C16.092 11.502 17.5 9.00201 17.5 7.00201C17.5 4.52201 15.48 2.50201 13 2.50201C11.11 2.50201 9.54299 3.76201 8.89499 5.50201H8.37701C7.73101 4.88901 6.89901 4.50401 6.00201 4.50201H6C5.07239 4.50413 4.18339 4.87356 3.52747 5.52948C2.87155 6.1854 2.50211 7.07441 2.5 8.00201C2.5 9.92901 4.073 11.502 6 11.502H12ZM6 10.498C5.6714 10.499 5.34584 10.4351 5.04205 10.3099C4.73826 10.1846 4.46225 10.0005 4.22989 9.76813C3.99753 9.53577 3.8134 9.25978 3.68814 8.95599C3.56288 8.6522 3.49894 8.32659 3.5 7.99799C3.49946 7.49218 3.65261 6.99817 3.93915 6.58136C4.22569 6.16455 4.63211 5.84465 5.10455 5.664C5.577 5.48335 6.09318 5.45046 6.58472 5.56976C7.07625 5.68906 7.51993 5.95484 7.85699 6.33197C7.90399 6.38432 7.96151 6.42617 8.02579 6.45477C8.09006 6.48338 8.15966 6.49812 8.23001 6.49799H9.133C9.24382 6.49796 9.35151 6.46113 9.43912 6.39325C9.52673 6.32537 9.5893 6.23029 9.617 6.12299C9.80996 5.37224 10.247 4.70694 10.8594 4.23175C11.4718 3.75656 12.2248 3.49843 13 3.49799C14.939 3.49799 16.5 5.05899 16.5 6.99799C16.5013 7.92074 16.1371 8.80642 15.4869 9.46124C14.8368 10.1161 13.9537 10.4867 13.031 10.492C12.992 10.492 12.953 10.492 12.914 10.502H12L6 10.498ZM4.992 12.4899C4.92622 12.4906 4.86123 12.5044 4.80078 12.5303C4.74033 12.5563 4.68563 12.5939 4.63986 12.6412C4.5941 12.6884 4.55816 12.7444 4.53415 12.8056C4.51014 12.8668 4.49854 12.9322 4.5 12.998V14.998C4.509 15.655 5.49 15.655 5.5 14.998V14.498H6.5V15.998C6.50003 16.1303 6.55253 16.2573 6.646 16.351L7.646 17.351C7.74 17.445 7.867 17.498 8 17.498H13C13.1326 17.498 13.2598 17.4453 13.3535 17.3515C13.4473 17.2577 13.5 17.1306 13.5 16.998V15.494H13.836L16.456 17.398C16.5409 17.4618 16.6439 17.4968 16.75 17.498H17C17.1326 17.498 17.2598 17.4453 17.3535 17.3515C17.4473 17.2577 17.5 17.1306 17.5 16.998V12.998C17.5 12.8654 17.4473 12.7382 17.3535 12.6445C17.2598 12.5507 17.1326 12.498 17 12.498H16.75C16.644 12.4981 16.5407 12.5317 16.455 12.5939L13.838 14.498H13.5V12.498H12.5V16.498H8.207L7.5 15.791V12.498H6.5V13.498H5.5V12.998C5.50108 12.931 5.48868 12.8644 5.46353 12.8023C5.43838 12.7402 5.401 12.6838 5.35361 12.6364C5.30622 12.589 5.2498 12.5516 5.18768 12.5264C5.12556 12.5013 5.05901 12.4888 4.992 12.4899ZM16.5 13.799V16.197L14.85 14.998L16.5 13.799Z" fill="currentColor"/>
<path d="M7.5 12.498H12.5V13.498H7.5V12.498Z" fill="currentColor"/>
</svg>
