<svg width="20" height="20" viewBox="0 0 20 20" fill="none" xmlns="http://www.w3.org/2000/svg">
<path d="M10 3C6.14 3 3 6.14 3 10C3 13.86 6.14 17 10 17C13.86 17 17 13.86 17 10C17 6.14 13.86 3 10 3ZM12.99 5.986C13.1915 5.98109 13.3898 6.03719 13.5589 6.14697C13.728 6.25674 13.8599 6.41504 13.9375 6.60113C14.015 6.78721 14.0345 6.99238 13.9933 7.18972C13.9522 7.38707 13.8524 7.56738 13.707 7.707L11.414 10L13.707 12.293C13.8025 12.3852 13.8787 12.4956 13.9311 12.6176C13.9835 12.7396 14.0111 12.8708 14.0123 13.0036C14.0134 13.1364 13.9881 13.2681 13.9378 13.391C13.8875 13.5139 13.8133 13.6255 13.7194 13.7194C13.6255 13.8133 13.5139 13.8875 13.391 13.9378C13.2681 13.9881 13.1364 14.0134 13.0036 14.0123C12.8708 14.0111 12.7396 13.9835 12.6176 13.9311C12.4956 13.8787 12.3852 13.8025 12.293 13.707L10 11.414L7.707 13.707C7.61475 13.8025 7.50441 13.8787 7.3824 13.9311C7.2604 13.9835 7.12918 14.0111 6.9964 14.0123C6.86362 14.0134 6.73194 13.9881 6.60905 13.9378C6.48615 13.8875 6.3745 13.8133 6.2806 13.7194C6.18671 13.6255 6.11246 13.5139 6.06218 13.391C6.0119 13.2681 5.9866 13.1364 5.98775 13.0036C5.9889 12.8708 6.01649 12.7396 6.0689 12.6176C6.12131 12.4956 6.19749 12.3852 6.293 12.293L8.586 10L6.293 7.707C6.15033 7.5683 6.05229 7.39019 6.01141 7.19546C5.97053 7.00073 5.98867 6.79823 6.06351 6.61387C6.13835 6.42951 6.26649 6.27166 6.43153 6.16052C6.59658 6.04939 6.79102 5.99001 6.99 5.99C7.1237 5.99001 7.25604 6.01683 7.37919 6.06887C7.50235 6.12092 7.61381 6.19713 7.707 6.293L10 8.586L12.293 6.293C12.4757 6.10274 12.7263 5.99239 12.99 5.986Z" fill="currentColor"/>
</svg>
