<svg width="20" height="20" viewBox="0 0 20 20" fill="none" xmlns="http://www.w3.org/2000/svg">
<path d="M13.5 9.48999C13.4002 9.48979 13.3027 9.51943 13.2199 9.5751C13.1371 9.63078 13.0729 9.70995 13.0355 9.80243C12.9981 9.89491 12.9892 9.99646 13.0099 10.094C13.0307 10.1916 13.0802 10.2808 13.152 10.35L15.3 12.496H4.70799L6.855 10.35C6.94888 10.2561 7.00163 10.1288 7.00163 9.99599C7.00163 9.86321 6.94888 9.73587 6.855 9.64198C6.76111 9.5481 6.63378 9.49536 6.50101 9.49536C6.36823 9.49536 6.24089 9.5481 6.147 9.64198L3.19 12.6C3.12929 12.6465 3.08008 12.7064 3.04614 12.775C3.01221 12.8435 2.99446 12.919 2.99426 12.9955C2.99407 13.072 3.01144 13.1475 3.04503 13.2163C3.07862 13.285 3.12753 13.3451 3.18801 13.392C3.19065 13.394 3.19331 13.396 3.196 13.398L6.148 16.35C6.19412 16.3977 6.2493 16.4358 6.3103 16.462C6.37131 16.4882 6.43691 16.502 6.5033 16.5026C6.56969 16.5032 6.63553 16.4905 6.69698 16.4654C6.75843 16.4403 6.81425 16.4031 6.86119 16.3562C6.90814 16.3092 6.94527 16.2534 6.97041 16.192C6.99556 16.1305 7.00821 16.0647 7.00763 15.9983C7.00705 15.9319 6.99326 15.8663 6.96706 15.8053C6.94085 15.7443 6.90275 15.6891 6.855 15.643L4.707 13.496H15.299L13.152 15.642C13.1055 15.6884 13.0686 15.7435 13.0434 15.8042C13.0183 15.8649 13.0053 15.9299 13.0052 15.9956C13.0052 16.0613 13.0181 16.1264 13.0432 16.1871C13.0683 16.2478 13.1051 16.303 13.1515 16.3495C13.1979 16.396 13.253 16.4329 13.3137 16.4581C13.3744 16.4832 13.4394 16.4962 13.5051 16.4963C13.5708 16.4963 13.6359 16.4834 13.6966 16.4583C13.7573 16.4332 13.8125 16.3964 13.859 16.35L16.824 13.383C16.8308 13.3778 16.8375 13.3725 16.844 13.367L16.859 13.35C16.9486 13.2605 17.001 13.1403 17.0054 13.0137C17.0099 12.8871 16.9661 12.7636 16.883 12.668C16.8753 12.659 16.8673 12.6504 16.859 12.642C16.8557 12.6386 16.8524 12.6353 16.849 12.632L13.859 9.64198C13.8124 9.5939 13.7566 9.55567 13.6949 9.52956C13.6333 9.50345 13.567 9.48999 13.5 9.48999Z" fill="currentColor"/>
<path d="M11 4.99397C11 5.39127 10.8422 5.77229 10.5612 6.05322C10.2803 6.33415 9.89929 6.49197 9.502 6.49197C9.1047 6.49197 8.72368 6.33415 8.44275 6.05322C8.16182 5.77229 8.004 5.39127 8.004 4.99397C8.004 4.59668 8.16182 4.21565 8.44275 3.93472C8.72368 3.65379 9.1047 3.49597 9.502 3.49597C9.89929 3.49597 10.2803 3.65379 10.5612 3.93472C10.8422 4.21565 11 4.59668 11 4.99397ZM16 4.99397C16 5.39127 15.8422 5.77229 15.5612 6.05322C15.2803 6.33415 14.8993 6.49197 14.502 6.49197C14.1047 6.49197 13.7237 6.33415 13.4427 6.05322C13.1618 5.77229 13.004 5.39127 13.004 4.99397C13.004 4.59668 13.1618 4.21565 13.4427 3.93472C13.7237 3.65379 14.1047 3.49597 14.502 3.49597C14.8993 3.49597 15.2803 3.65379 15.5612 3.93472C15.8422 4.21565 16 4.59668 16 4.99397ZM6 4.99397C6 5.39127 5.84218 5.77229 5.56125 6.05322C5.28032 6.33415 4.89929 6.49197 4.502 6.49197C4.1047 6.49197 3.72368 6.33415 3.44275 6.05322C3.16182 5.77229 3.004 5.39127 3.004 4.99397C3.004 4.59668 3.16182 4.21565 3.44275 3.93472C3.72368 3.65379 4.1047 3.49597 4.502 3.49597C4.89929 3.49597 5.28032 3.65379 5.56125 3.93472C5.84218 4.21565 6 4.59668 6 4.99397Z" fill="currentColor"/>
</svg>
