<svg width="20" height="20" viewBox="0 0 20 20" fill="none" xmlns="http://www.w3.org/2000/svg">
<path d="M6.031 5C5.75829 5.00235 5.49741 5.11173 5.30457 5.30457C5.11173 5.49741 5.00235 5.75829 5 6.031V13.969C5.00235 14.2417 5.11173 14.5026 5.30457 14.6954C5.49741 14.8883 5.75829 14.9977 6.031 15H13.969C14.2417 14.9977 14.5026 14.8883 14.6954 14.6954C14.8883 14.5026 14.9977 14.2417 15 13.969V6.03C14.9974 5.75746 14.8879 5.49684 14.6951 5.30421C14.5023 5.11159 14.2415 5.00235 13.969 5H6.031ZM6.031 6H13.969C13.995 6 14 6.005 14 6.031V13.969C14 13.995 13.995 13.999 13.969 13.999H6.03C6.004 13.999 6 13.995 6 13.969V6.03C5.999 6.005 6.004 6 6.03 6H6.031Z" fill="currentColor"/>
</svg>
