<svg width="20" height="20" viewBox="0 0 20 20" fill="none" xmlns="http://www.w3.org/2000/svg">
<path d="M6.031 5C5.75829 5.00235 5.49741 5.11173 5.30457 5.30457C5.11173 5.49741 5.00235 5.75829 5 6.031V13.969C5.00235 14.2417 5.11173 14.5026 5.30457 14.6954C5.49741 14.8883 5.75829 14.9977 6.031 15H13.969C14.2417 14.9977 14.5026 14.8883 14.6954 14.6954C14.8883 14.5026 14.9977 14.2417 15 13.969V6.03C14.9974 5.75746 14.8879 5.49684 14.6951 5.30421C14.5023 5.11159 14.2415 5.00235 13.969 5H6.031ZM12.981 6.99C13.1825 6.98408 13.381 7.03917 13.5506 7.14804C13.7202 7.25692 13.8529 7.4145 13.9314 7.60012C14.0099 7.78575 14.0305 7.99076 13.9904 8.18828C13.9504 8.38579 13.8516 8.5666 13.707 8.707L9.707 12.707C9.51947 12.8945 9.26516 12.9998 9 12.9998C8.73484 12.9998 8.48053 12.8945 8.293 12.707L6.293 10.707C6.19749 10.6148 6.12131 10.5044 6.0689 10.3824C6.01649 10.2604 5.9889 10.1292 5.98775 9.9964C5.9866 9.86362 6.0119 9.73194 6.06218 9.60905C6.11246 9.48615 6.18671 9.3745 6.2806 9.28061C6.3745 9.18671 6.48615 9.11246 6.60905 9.06218C6.73194 9.0119 6.86362 8.9866 6.9964 8.98775C7.12918 8.9889 7.2604 9.01649 7.3824 9.0689C7.50441 9.12131 7.61475 9.19749 7.707 9.293L9 10.586L12.293 7.293C12.4739 7.1066 12.7203 6.99793 12.98 6.99H12.981Z" fill="currentColor"/>
</svg>
