<svg width="20" height="20" viewBox="0 0 20 20" fill="none" xmlns="http://www.w3.org/2000/svg">
<path d="M13.983 6.495C13.723 6.50267 13.4762 6.61136 13.295 6.798L9.002 11.091L6.71 8.798C6.61775 8.70249 6.50741 8.62631 6.3854 8.5739C6.2634 8.52149 6.13218 8.4939 5.9994 8.49275C5.86662 8.49159 5.73494 8.5169 5.61205 8.56718C5.48915 8.61746 5.3775 8.69171 5.28361 8.7856C5.18971 8.8795 5.11546 8.99115 5.06518 9.11405C5.0149 9.23694 4.9896 9.36862 4.99075 9.5014C4.9919 9.63418 5.01949 9.7654 5.0719 9.8874C5.12431 10.0094 5.20049 10.1198 5.296 10.212L8.296 13.212C8.48353 13.3995 8.73784 13.5048 9.003 13.5048C9.26816 13.5048 9.52247 13.3995 9.71 13.212L14.71 8.212C14.8546 8.0716 14.9534 7.89079 14.9934 7.69327C15.0335 7.49576 15.0129 7.29075 14.9344 7.10512C14.8559 6.91949 14.7232 6.76192 14.5536 6.65304C14.384 6.54417 14.1855 6.48908 13.984 6.495H13.983Z" fill="currentColor"/>
</svg>
