<svg width="20" height="20" viewBox="0 0 20 20" fill="none" xmlns="http://www.w3.org/2000/svg">
<path d="M8 11C7.73478 11 7.48044 11.1054 7.29291 11.2929C7.10537 11.4804 7 11.7348 7 12C7 12.2652 7.10537 12.5196 7.29291 12.7071C7.48044 12.8946 7.73478 13 8 13H10C10.2652 13 10.5196 12.8946 10.7071 12.7071C10.8946 12.5196 11 12.2652 11 12C11 11.7348 10.8946 11.4804 10.7071 11.2929C10.5196 11.1054 10.2652 11 10 11H8ZM3.5 5C3.36739 5 3.24022 5.05266 3.14645 5.14642C3.05269 5.24019 3 5.36739 3 5.5V8.5C3 8.63261 3.05269 8.75981 3.14645 8.85358C3.24022 8.94734 3.36739 9 3.5 9H4V16.5C4 16.6326 4.05269 16.7598 4.14645 16.8536C4.24022 16.9473 4.36739 17 4.5 17H13.5C13.6326 17 13.7598 16.9473 13.8535 16.8536C13.9473 16.7598 14 16.6326 14 16.5V11.5C14 11.3674 13.9473 11.2402 13.8535 11.1464C13.7598 11.0527 13.6326 11 13.5 11C13.3674 11 13.2402 11.0527 13.1465 11.1464C13.0527 11.2402 13 11.3674 13 11.5V16H5V9H8.5C8.63261 9 8.75978 8.94734 8.85355 8.85358C8.94731 8.75981 9 8.63261 9 8.5C9 8.36739 8.94731 8.24019 8.85355 8.14642C8.75978 8.05266 8.63261 8 8.5 8H4V6H8.5C8.63261 6 8.75978 5.94734 8.85355 5.85358C8.94731 5.75981 9 5.63261 9 5.5C9 5.36739 8.94731 5.24019 8.85355 5.14642C8.75978 5.05266 8.63261 5 8.5 5H3.5Z" fill="currentColor"/>
<path d="M13.5 3C12.5717 3 11.6815 3.36877 11.0251 4.02515C10.3687 4.68152 10 5.57174 10 6.5C10 7.42826 10.3687 8.31848 11.0251 8.97485C11.6815 9.63123 12.5717 10 13.5 10C14.4283 10 15.3185 9.63123 15.9749 8.97485C16.6313 8.31848 17 7.42826 17 6.5C17 5.57174 16.6313 4.68152 15.9749 4.02515C15.3185 3.36877 14.4283 3 13.5 3ZM13 4H14V6H16V7H14V9H13V7H11V6H13V4Z" fill="currentColor"/>
</svg>
