<svg width="20" height="20" viewBox="0 0 20 20" fill="none" xmlns="http://www.w3.org/2000/svg">
<path d="M3.504 3C3.37139 3 3.24421 3.05266 3.15045 3.14642C3.05668 3.24019 3.004 3.36739 3.004 3.5L2.996 14C2.996 15.517 4.216 17 5.981 17C7.746 17 8.996 15.525 8.996 14L9.004 3.5C9.004 3.36739 8.95132 3.24019 8.85755 3.14642C8.76379 3.05266 8.63661 3 8.504 3H3.504ZM6.004 13C6.55 13 7.004 13.454 7.004 14C7.004 14.546 6.55 15 6.004 15C5.458 15 5.004 14.546 5.004 14C5.004 13.454 5.458 13 6.004 13Z" fill="currentColor"/>
<path d="M14.496 11C14.3636 11 14.2367 11.0525 14.143 11.146L9.393 15.896C9.34642 15.9424 9.30946 15.9976 9.28423 16.0583C9.25901 16.1191 9.24601 16.1842 9.246 16.25V16.5C9.246 16.6326 9.29868 16.7598 9.39245 16.8536C9.48621 16.9473 9.61339 17 9.746 17H16.504C16.6366 17 16.7638 16.9473 16.8576 16.8536C16.9513 16.7598 17.004 16.6326 17.004 16.5V11.5C17.004 11.3674 16.9513 11.2402 16.8576 11.1464C16.7638 11.0527 16.6366 11 16.504 11H14.496Z" fill="currentColor"/>
<path d="M12.49 3.99999C12.3598 4.0018 12.2353 4.05414 12.143 4.14598L10.143 6.14598C10.0964 6.19242 10.0595 6.24759 10.0342 6.30834C10.009 6.36908 9.99602 6.43421 9.996 6.49999V12.5C9.99582 12.599 10.0251 12.6959 10.08 12.7782C10.1349 12.8606 10.2131 12.9248 10.3045 12.9628C10.396 13.0007 10.4967 13.0106 10.5938 12.9912C10.6909 12.9718 10.7801 12.9241 10.85 12.854L15.85 7.85399C15.8966 7.80754 15.9335 7.75238 15.9587 7.69164C15.9839 7.63089 15.9969 7.56575 15.9969 7.49999C15.9969 7.43422 15.9839 7.36908 15.9587 7.30834C15.9335 7.24759 15.8966 7.19243 15.85 7.14598L12.85 4.14598C12.8028 4.09886 12.7466 4.06168 12.6848 4.03661C12.6229 4.01153 12.5567 3.99907 12.49 3.99999Z" fill="currentColor"/>
</svg>
