<svg width="20" height="20" viewBox="0 0 20 20" fill="none" xmlns="http://www.w3.org/2000/svg">
<path d="M8.5 4.30001C6.4 4.90001 5 6.90001 5 9.00001V11C5 12.8 6 14.4 7.5 15.3C9 16.2 11 16.2 12.5 15.3C14 14.4 15 12.8 15 11V10.5C15 10.2 14.8 10 14.5 10H10.5C10.2 10 10 10.2 10 10.5C10 10.8 10.2 11 10.5 11H14C14 12.4 13.2 13.7 12 14.5C10.8 15.2 9.2 15.2 8 14.5C6.8 13.8 6 12.5 6 11V9.00001C6 7.20001 7.1 5.70001 8.8 5.20001C10.5 4.70001 12.2 5.20001 13.1 6.70001C13.2 6.90001 13.5 7.00001 13.8 6.90001C14.1 6.80001 14.1 6.50001 14 6.20001C12.8 4.30001 10.6 3.60001 8.5 4.30001Z" fill="currentColor"/>
</svg>
