<svg width="20" height="20" viewBox="0 0 20 20" fill="none" xmlns="http://www.w3.org/2000/svg">
<path d="M12 3C10.9 3 10 3.9 10 5V5.42999C10.3681 5.71958 10.669 6.08553 10.882 6.50262C11.0951 6.91971 11.2152 7.37804 11.234 7.84601C11.471 7.94501 11.729 8 12 8H13C14.1 8 15 7.1 15 6V5C15 3.9 14.1 3 13 3H12ZM14.588 9.00601C14.5159 8.99348 14.442 8.99683 14.3713 9.01587C14.3007 9.03491 14.2351 9.06915 14.1791 9.11621C14.1231 9.16327 14.0781 9.22201 14.0471 9.2883C14.0162 9.35459 14.0001 9.42685 14 9.5C14 9.75 13.75 10 13.5 10H11.5C11.25 10 11 9.75 11 9.5V10C11 10.363 10.739 10.684 10.557 10.936L10.561 10.94C10.972 11.351 11.443 11.697 11.936 12.19C12.343 12.597 12.8 13.23 12.947 14H16.5C16.6326 14 16.7598 13.9473 16.8536 13.8535C16.9473 13.7598 17 13.6326 17 13.5V12C17 11.333 16.643 10.81 16.229 10.396C15.814 9.982 15.324 9.617 14.854 9.146C14.7821 9.07278 14.6891 9.02385 14.588 9.00601Z" fill="currentColor"/>
<path d="M7 6C5.9 6 5 6.9 5 8V9C5 10.1 5.9 11 7 11H8C9.1 11 10 10.1 10 9V8C10 6.9 9.1 6 8 6H7ZM5.48401 12C5.35687 12.0039 5.23599 12.0561 5.146 12.146C4.676 12.617 4.186 12.982 3.771 13.396C3.357 13.811 3 14.333 3 15V16.5C3 16.6326 3.05266 16.7598 3.14642 16.8535C3.24019 16.9473 3.36739 17 3.5 17H11.5C11.6326 17 11.7598 16.9473 11.8536 16.8535C11.9473 16.7598 12 16.6326 12 16.5V15C12 14.333 11.643 13.81 11.229 13.396C10.814 12.982 10.324 12.617 9.854 12.146C9.78313 12.0748 9.69246 12.0267 9.59381 12.0078C9.49516 11.9888 9.39307 12.0001 9.3009 12.04C9.20874 12.0799 9.13076 12.1467 9.07709 12.2316C9.02341 12.3165 8.99655 12.4156 9 12.516C8.97468 12.63 8.91785 12.7347 8.836 12.818C8.72 12.938 8.566 13 8.5 13H6.5C6.37303 12.9848 6.25551 12.9253 6.16803 12.832C6.07589 12.7437 6.0166 12.6266 6 12.5C6.00003 12.433 5.98657 12.3666 5.96045 12.3049C5.93433 12.2432 5.8961 12.1873 5.84796 12.1407C5.79982 12.094 5.74276 12.0575 5.68024 12.0334C5.61772 12.0092 5.551 11.9979 5.48401 12Z" fill="currentColor"/>
</svg>
