<svg width="20" height="20" viewBox="0 0 20 20" fill="none" xmlns="http://www.w3.org/2000/svg">
<path d="M5.49201 6.99201C5.42634 6.99305 5.36154 7.00702 5.30127 7.03312C5.24101 7.05921 5.18647 7.0969 5.14078 7.14408C5.09509 7.19125 5.05913 7.24698 5.03498 7.30805C5.01082 7.36912 4.99895 7.43434 5 7.5V10.5C5 10.6326 5.05269 10.7598 5.14646 10.8536C5.24023 10.9473 5.3674 11 5.5 11C5.63261 11 5.75978 10.9473 5.85355 10.8536C5.94732 10.7598 6 10.6326 6 10.5V7.5C6.00109 7.43299 5.98868 7.36645 5.96354 7.30433C5.93839 7.2422 5.901 7.18576 5.85361 7.13837C5.80622 7.09098 5.74981 7.05362 5.68769 7.02848C5.62557 7.00333 5.55902 6.99093 5.49201 6.99201ZM5.49201 11.992C5.42634 11.9931 5.36154 12.007 5.30127 12.0331C5.24101 12.0592 5.18647 12.0969 5.14078 12.1441C5.09509 12.1913 5.05913 12.247 5.03498 12.308C5.01082 12.3691 4.99895 12.4343 5 12.5V14.5C5 14.6326 5.05269 14.7598 5.14646 14.8535C5.24023 14.9473 5.3674 15 5.5 15H7.5C7.63261 15 7.75978 14.9473 7.85355 14.8535C7.94732 14.7598 8 14.6326 8 14.5C8 14.3674 7.94732 14.2402 7.85355 14.1465C7.75978 14.0527 7.63261 14 7.5 14H6V12.5C6.00109 12.433 5.98868 12.3664 5.96354 12.3043C5.93839 12.2422 5.901 12.1858 5.85361 12.1384C5.80622 12.091 5.74981 12.0536 5.68769 12.0285C5.62557 12.0033 5.55902 11.9909 5.49201 11.992ZM9.5 14C9.3674 14 9.24023 14.0527 9.14646 14.1465C9.05269 14.2402 9 14.3674 9 14.5C9 14.6326 9.05269 14.7598 9.14646 14.8535C9.24023 14.9473 9.3674 15 9.5 15H12.5C12.6326 15 12.7598 14.9473 12.8535 14.8535C12.9473 14.7598 13 14.6326 13 14.5C13 14.3674 12.9473 14.2402 12.8535 14.1465C12.7598 14.0527 12.6326 14 12.5 14H9.5Z" fill="currentColor"/>
<path d="M12.5 12C12.3674 12 12.2402 12.0527 12.1465 12.1465C12.0527 12.2402 12 12.3674 12 12.5V16.5C12 16.6326 12.0527 16.7598 12.1465 16.8535C12.2402 16.9473 12.3674 17 12.5 17H16.5C16.6326 17 16.7598 16.9473 16.8535 16.8535C16.9473 16.7598 17 16.6326 17 16.5V12.5C17 12.3674 16.9473 12.2402 16.8535 12.1465C16.7598 12.0527 16.6326 12 16.5 12H12.5ZM13 13H16V16H13V13Z" fill="currentColor"/>
<path d="M3.5 3C3.36739 3 3.24022 3.05269 3.14645 3.14645C3.05269 3.24022 3 3.36739 3 3.5V7.5C3 7.63261 3.05269 7.75978 3.14645 7.85355C3.24022 7.94731 3.36739 8 3.5 8H7.5C7.63261 8 7.75978 7.94731 7.85355 7.85355C7.94731 7.75978 8 7.63261 8 7.5V3.5C8 3.36739 7.94731 3.24022 7.85355 3.14645C7.75978 3.05269 7.63261 3 7.5 3H3.5Z" fill="currentColor"/>
</svg>
