<svg width="20" height="20" viewBox="0 0 20 20" fill="none" xmlns="http://www.w3.org/2000/svg">
<path d="M9.492 2.99198C9.41683 2.99322 9.3429 3.01138 9.27573 3.04514C9.20855 3.07891 9.14985 3.12741 9.104 3.18699C9.10265 3.18898 9.10132 3.19096 9.1 3.19297L7.146 5.14698C7.09958 5.19347 7.06276 5.24865 7.03767 5.30937C7.01257 5.37008 6.99968 5.43513 6.99972 5.50083C6.99977 5.56653 7.01275 5.63156 7.03794 5.69224C7.06312 5.75292 7.10001 5.80805 7.1465 5.85447C7.19299 5.90089 7.24817 5.93771 7.30888 5.96281C7.36959 5.98791 7.43466 6.00079 7.50035 6.00074C7.56605 6.00069 7.6311 5.98772 7.69178 5.96253C7.75246 5.93735 7.80758 5.90047 7.854 5.85398L9 4.70698V10.5C9 10.6326 9.05268 10.7598 9.14645 10.8535C9.24021 10.9473 9.36739 11 9.5 11H15.293L14.146 12.146C14.0995 12.1925 14.0626 12.2476 14.0375 12.3084C14.0123 12.3691 13.9994 12.4342 13.9994 12.5C13.9994 12.5657 14.0123 12.6308 14.0375 12.6916C14.0626 12.7523 14.0995 12.8075 14.146 12.854C14.1925 12.9005 14.2477 12.9373 14.3084 12.9625C14.3692 12.9877 14.4343 13.0006 14.5 13.0006C14.5657 13.0006 14.6308 12.9877 14.6916 12.9625C14.7523 12.9373 14.8075 12.9005 14.854 12.854L16.811 10.896C16.8717 10.8494 16.9209 10.7896 16.9549 10.721C16.9888 10.6524 17.0065 10.577 17.0067 10.5005C17.0069 10.424 16.9896 10.3484 16.956 10.2797C16.9224 10.211 16.8735 10.1508 16.813 10.104C16.811 10.1026 16.809 10.1013 16.807 10.1L14.854 8.14597C14.7602 8.05209 14.633 7.99931 14.5004 7.99922C14.3677 7.99912 14.2404 8.05173 14.1465 8.14549C14.0526 8.23924 13.9998 8.36644 13.9997 8.49912C13.9996 8.63181 14.0522 8.75909 14.146 8.85297L15.293 9.99998H10V4.70698L11.146 5.85398C11.2399 5.94787 11.3672 6.00062 11.5 6.00062C11.6328 6.00062 11.7601 5.94787 11.854 5.85398C11.9479 5.7601 12.0006 5.63275 12.0006 5.49998C12.0006 5.3672 11.9479 5.23986 11.854 5.14597L9.896 3.18897C9.84871 3.12688 9.78754 3.07673 9.71738 3.04252C9.64723 3.00831 9.57004 2.99101 9.492 2.99198Z" fill="currentColor"/>
<path d="M5.492 6.99198C5.41683 6.99322 5.3429 7.01138 5.27573 7.04514C5.20855 7.07891 5.14985 7.12741 5.104 7.18699C5.10265 7.18898 5.10132 7.19096 5.1 7.19297L3.146 9.14698C3.09958 9.19347 3.06276 9.24865 3.03767 9.30937C3.01257 9.37008 2.99968 9.43513 2.99972 9.50083C2.99977 9.56653 3.01275 9.63156 3.03794 9.69224C3.06312 9.75292 3.10001 9.80805 3.1465 9.85447C3.19299 9.90089 3.24817 9.93771 3.30888 9.96281C3.36959 9.98791 3.43466 10.0008 3.50035 10.0007C3.56605 10.0007 3.6311 9.98772 3.69178 9.96253C3.75246 9.93735 3.80758 9.90047 3.854 9.85398L5 8.70698V14.5C5 14.6326 5.05268 14.7598 5.14645 14.8535C5.24021 14.9473 5.36739 15 5.5 15H11.293L10.146 16.146C10.0995 16.1925 10.0626 16.2476 10.0375 16.3084C10.0123 16.3691 9.99937 16.4342 9.99937 16.5C9.99937 16.5657 10.0123 16.6308 10.0375 16.6916C10.0626 16.7523 10.0995 16.8075 10.146 16.854C10.1925 16.9005 10.2477 16.9373 10.3084 16.9625C10.3692 16.9877 10.4343 17.0006 10.5 17.0006C10.5657 17.0006 10.6308 16.9877 10.6916 16.9625C10.7523 16.9373 10.8075 16.9005 10.854 16.854L12.811 14.896C12.8717 14.8494 12.9209 14.7896 12.9549 14.721C12.9888 14.6524 13.0065 14.577 13.0067 14.5005C13.0069 14.424 12.9896 14.3484 12.956 14.2797C12.9224 14.211 12.8735 14.1508 12.813 14.104C12.811 14.1026 12.809 14.1013 12.807 14.1L10.854 12.146C10.7602 12.0521 10.633 11.9993 10.5004 11.9992C10.3677 11.9991 10.2404 12.0517 10.1465 12.1455C10.0526 12.2392 9.99982 12.3664 9.99972 12.4991C9.99963 12.6318 10.0522 12.7591 10.146 12.853L11.293 14H6V8.70698L7.146 9.85398C7.23989 9.94787 7.36722 10.0006 7.5 10.0006C7.63278 10.0006 7.76011 9.94787 7.854 9.85398C7.94789 9.7601 8.00063 9.63275 8.00063 9.49998C8.00063 9.3672 7.94789 9.23986 7.854 9.14597L5.896 7.18897C5.84871 7.12688 5.78754 7.07673 5.71738 7.04252C5.64723 7.00831 5.57004 6.99101 5.492 6.99198Z" fill="currentColor"/>
</svg>
