<svg width="20" height="20" viewBox="0 0 20 20" fill="none" xmlns="http://www.w3.org/2000/svg">
<path d="M17 8V6H16V8H17ZM17 5V3H16V5H17ZM17 17V15H16V17H17ZM17 14V12H16V14H17ZM17 11V9H16V11H17Z" fill="currentColor"/>
<path d="M10.5 4.98999C10.4007 4.9904 10.3039 5.02033 10.2217 5.07599C10.1395 5.13165 10.0757 5.21051 10.0385 5.30252C10.0013 5.39454 9.99232 5.49555 10.0127 5.59269C10.0331 5.68983 10.0819 5.7787 10.153 5.84799L11.299 6.99399L5.006 13.287L3.86 12.141C3.81388 12.0932 3.75871 12.0551 3.6977 12.0289C3.6367 12.0027 3.57109 11.9889 3.5047 11.9884C3.43831 11.9878 3.37247 12.0004 3.31103 12.0256C3.24958 12.0507 3.19375 12.0878 3.14681 12.1348C3.09986 12.1817 3.06273 12.2376 3.03759 12.299C3.01245 12.3605 2.9998 12.4263 3.00038 12.4927C3.00095 12.5591 3.01475 12.6247 3.04095 12.6857C3.06716 12.7467 3.10525 12.8019 3.153 12.848L6.153 15.848C6.19913 15.8957 6.2543 15.9338 6.3153 15.96C6.3763 15.9862 6.44191 16 6.5083 16.0006C6.57469 16.0012 6.64053 15.9885 6.70198 15.9634C6.76343 15.9383 6.81925 15.9011 6.8662 15.8542C6.91315 15.8072 6.95027 15.7514 6.97541 15.69C7.00055 15.6285 7.01321 15.5627 7.01263 15.4963C7.01205 15.4299 6.99826 15.3643 6.97205 15.3033C6.94585 15.2423 6.90776 15.1871 6.86 15.141L5.713 13.994L12.006 7.70099L13.153 8.84799C13.1991 8.89575 13.2543 8.93384 13.3153 8.96004C13.3763 8.98625 13.4419 9.00004 13.5083 9.00062C13.5747 9.00119 13.6405 8.98854 13.702 8.9634C13.7634 8.93826 13.8193 8.90113 13.8662 8.85419C13.9131 8.80724 13.9503 8.75142 13.9754 8.68997C14.0006 8.62852 14.0132 8.56268 14.0126 8.49629C14.0121 8.4299 13.9983 8.36429 13.9721 8.30329C13.9458 8.24229 13.9078 8.18711 13.86 8.14099L10.86 5.14099C10.8131 5.09314 10.7571 5.05521 10.6952 5.02944C10.6334 5.00368 10.567 4.9906 10.5 4.99099V4.98999Z" fill="currentColor"/>
</svg>
