<svg width="20" height="20" viewBox="0 0 20 20" fill="none" xmlns="http://www.w3.org/2000/svg">
<g clip-path="url(#clip0_181_11060)">
<path d="M7.59601 6.02103C7.48518 6.02232 7.37685 6.05429 7.28308 6.11338C7.18931 6.17247 7.11375 6.25639 7.06476 6.35581C7.01577 6.45524 6.99527 6.56628 7.00555 6.67664C7.01584 6.787 7.05647 6.89236 7.12299 6.98102L9.272 10.01L7.12299 13.039C7.07735 13.1033 7.04484 13.176 7.02728 13.2528C7.00972 13.3297 7.00747 13.4092 7.02066 13.4869C7.03385 13.5647 7.0622 13.639 7.10413 13.7058C7.14605 13.7725 7.2007 13.8304 7.26498 13.876C7.32927 13.9216 7.40191 13.9542 7.47876 13.9717C7.55561 13.9893 7.63517 13.9916 7.71289 13.9784C7.79061 13.9652 7.865 13.9368 7.93176 13.8949C7.99852 13.853 8.05636 13.7983 8.10199 13.734L10.008 11.047L11.914 13.734C11.9596 13.7983 12.0175 13.853 12.0842 13.8949C12.151 13.9368 12.2254 13.9652 12.3031 13.9784C12.3808 13.9916 12.4604 13.9893 12.5372 13.9717C12.6141 13.9542 12.6867 13.9216 12.751 13.876C12.8153 13.8304 12.8699 13.7725 12.9119 13.7058C12.9538 13.639 12.9821 13.5647 12.9953 13.4869C13.0085 13.4092 13.0063 13.3297 12.9887 13.2528C12.9711 13.176 12.9386 13.1033 12.893 13.039L10.744 10.009L12.893 6.98002C12.9743 6.8684 13.0147 6.73212 13.0072 6.59421C12.9997 6.4563 12.9449 6.32521 12.852 6.22303C12.7913 6.15608 12.7162 6.10373 12.6324 6.06986C12.5486 6.036 12.4582 6.02148 12.368 6.02744C12.2778 6.0334 12.1902 6.05968 12.1115 6.10429C12.0329 6.14889 11.9654 6.21065 11.914 6.28501L10.008 8.97303L8.10199 6.28501C8.08257 6.25722 8.06082 6.23115 8.03699 6.20704C7.98018 6.14743 7.91172 6.10015 7.83585 6.06815C7.75998 6.03615 7.67834 6.02012 7.59601 6.02103Z" fill="currentColor"/>
<path d="M14.4812 2.99406C14.5624 2.99227 14.6429 3.01032 14.7156 3.04664C14.7883 3.08296 14.8511 3.13646 14.8985 3.2025C17.7114 6.99648 17.7114 12.9903 14.8985 16.7842C14.8601 16.8388 14.8112 16.8851 14.7547 16.9204C14.6981 16.9557 14.6351 16.9794 14.5692 16.99C14.5034 17.0007 14.4361 16.998 14.3713 16.9823C14.3065 16.9665 14.2455 16.938 14.1919 16.8983C14.1383 16.8586 14.0932 16.8086 14.0592 16.7513C14.0252 16.6939 14.003 16.6303 13.9939 16.5643C13.9849 16.4982 13.9891 16.431 14.0064 16.3666C14.0236 16.3022 14.0536 16.2419 14.0945 16.1892C16.5993 12.8115 16.5993 7.17731 14.0945 3.79858C14.0383 3.72519 14.0035 3.63765 13.994 3.54567C13.9844 3.45369 14.0006 3.36087 14.0407 3.27753C14.0807 3.19418 14.1431 3.12357 14.2208 3.07353C14.2986 3.02349 14.3887 2.99598 14.4812 2.99406ZM5.51912 2.9946C5.43785 2.99282 5.35736 3.01085 5.28464 3.04717C5.21192 3.08348 5.14913 3.13698 5.10173 3.20301C2.28939 6.99647 2.28888 12.9908 5.10175 16.7848C5.13943 16.841 5.18813 16.889 5.2449 16.9259C5.30167 16.9628 5.36532 16.9877 5.43202 16.9993C5.49873 17.0108 5.56708 17.0087 5.63294 16.9931C5.6988 16.9774 5.7608 16.9486 5.81519 16.9083C5.86958 16.868 5.91523 16.817 5.94936 16.7586C5.98349 16.7001 6.00539 16.6353 6.01376 16.5681C6.02212 16.501 6.01678 16.4328 5.99803 16.3678C5.97927 16.3027 5.9475 16.2422 5.90466 16.1897C3.39991 12.811 3.3999 7.17677 5.90412 3.79857C5.96016 3.72529 5.99485 3.63794 6.00435 3.54618C6.01384 3.45442 5.99779 3.36184 5.95795 3.27864C5.9181 3.19543 5.85602 3.12485 5.77857 3.07473C5.70113 3.0246 5.61134 2.99688 5.51912 2.9946Z" fill="currentColor"/>
</g>
<defs>
<clipPath id="clip0_181_11060">
<rect width="20" height="20" fill="currentColor"/>
</clipPath>
</defs>
</svg>
