<svg width="20" height="20" viewBox="0 0 20 20" fill="none" xmlns="http://www.w3.org/2000/svg">
<path d="M12.495 8.00299C12.3624 8.00299 12.2352 8.05568 12.1415 8.14944C12.0477 8.24321 11.995 8.37038 11.995 8.50299V10.233L9.22498 13.003H7.495C7.36239 13.003 7.23522 13.0557 7.14146 13.1494C7.04769 13.2432 6.995 13.3704 6.995 13.503V14.533C6.995 14.808 7.219 15.003 7.495 15.003H8.495C8.768 15.003 8.995 15.173 8.995 15.503V16.503C8.995 16.6356 9.04769 16.7628 9.14146 16.8565C9.23522 16.9503 9.36239 17.003 9.495 17.003H10.495C10.6276 17.003 10.7548 16.9503 10.8485 16.8565C10.9423 16.7628 10.995 16.6356 10.995 16.503V14.77L13.763 12.003H15.495C15.6276 12.003 15.7548 11.9503 15.8485 11.8565C15.9423 11.7628 15.995 11.6356 15.995 11.503V10.476C15.995 10.199 15.771 10.003 15.495 10.003H14.495C14.223 10.003 13.995 9.83299 13.995 9.50299V8.50299C13.995 8.37038 13.9423 8.24321 13.8485 8.14944C13.7548 8.05568 13.6276 8.00299 13.495 8.00299H12.495Z" fill="currentColor"/>
<path d="M5.51699 14.008C5.61653 14.0048 5.71285 13.972 5.79361 13.9137C5.87436 13.8554 5.93586 13.7743 5.97024 13.6809C6.00462 13.5874 6.01031 13.4858 5.98657 13.3891C5.96283 13.2924 5.91075 13.205 5.837 13.138C4.729 12.098 3.983 10.52 3.996 9.00802C4.013 7.05002 5.00299 5.50803 6.73599 4.56103C8.41399 3.64303 10.551 3.91403 12.225 4.96703L12.201 4.95101C13.1605 5.63525 14.3095 6.00334 15.488 6.00402H16.496C16.6286 6.00402 16.7558 5.95134 16.8495 5.85757C16.9433 5.7638 16.996 5.63663 16.996 5.50402C16.996 5.37141 16.9433 5.24424 16.8495 5.15048C16.7558 5.05671 16.6286 5.00402 16.496 5.00402H15.488C14.519 5.00402 13.574 4.70003 12.779 4.13403L12.767 4.12701L12.756 4.11901C10.824 2.90401 8.31501 2.55602 6.25601 3.68102C4.25201 4.77702 3.016 6.69902 2.996 9.00002C2.98 10.838 3.84599 12.64 5.15399 13.869C5.20215 13.9152 5.25909 13.9514 5.32144 13.9752C5.38378 13.9991 5.45027 14.0103 5.51699 14.008Z" fill="currentColor"/>
</svg>
