<svg width="20" height="20" viewBox="0 0 20 20" fill="none" xmlns="http://www.w3.org/2000/svg">
<path d="M9.61401 5.01002C9.49761 5.00607 9.38258 5.0361 9.28295 5.09641C9.18332 5.15673 9.10339 5.24472 9.05293 5.34968C9.00246 5.45464 8.98363 5.57203 8.99874 5.68751C9.01385 5.80299 9.06224 5.91156 9.13801 6.00001L10.748 8.02003C11.1115 8.08164 11.4396 8.27494 11.6696 8.56306C11.8996 8.85117 12.0154 9.21391 11.995 9.58201L12.923 10.744C12.9783 10.8155 13.049 10.8736 13.1298 10.9139C13.2107 10.9543 13.2996 10.9759 13.39 10.977C13.5041 10.9781 13.6161 10.9466 13.7129 10.8863C13.8097 10.826 13.8874 10.7394 13.9367 10.6365C13.986 10.5337 14.005 10.4189 13.9914 10.3056C13.9778 10.1923 13.9323 10.0853 13.86 9.99702L12.272 8.00602L13.862 5.99803C13.9133 5.9365 13.9518 5.86534 13.9752 5.78871C13.9985 5.71207 14.0063 5.63154 13.998 5.55186C13.9898 5.47217 13.9656 5.39492 13.927 5.32472C13.8885 5.25451 13.8362 5.19276 13.7734 5.14308C13.7105 5.09339 13.6383 5.05679 13.5611 5.03544C13.4839 5.01409 13.4032 5.00841 13.3238 5.01875C13.2443 5.02909 13.1678 5.05524 13.0986 5.09565C13.0294 5.13606 12.969 5.18992 12.921 5.25404L11.505 7.04301L10.075 5.25202C10.0214 5.17978 9.95219 5.12051 9.87257 5.07862C9.79294 5.03673 9.70491 5.01329 9.615 5.01002H9.61401Z" fill="currentColor"/>
<path d="M10.392 14.983C10.5067 14.9848 10.6195 14.9536 10.717 14.8932C10.8146 14.8328 10.8927 14.7457 10.9423 14.6423C10.9919 14.5388 11.0107 14.4234 10.9967 14.3095C10.9826 14.1957 10.9362 14.0882 10.863 14L9.266 11.998L10.863 9.99599C10.9624 9.87174 11.0085 9.71308 10.9909 9.55489C10.9734 9.3967 10.8938 9.25194 10.7695 9.15249C10.6452 9.05303 10.4866 9.00702 10.3284 9.02456C10.1702 9.04209 10.0254 9.12174 9.92599 9.24599L8.498 11.036L7.06999 9.24599C7.02074 9.18447 6.95986 9.13323 6.89082 9.09524C6.82178 9.05724 6.74594 9.03324 6.66761 9.02456C6.58929 9.01587 6.51001 9.02269 6.43432 9.04464C6.35863 9.06659 6.28802 9.10324 6.2265 9.15249C6.16497 9.20173 6.11375 9.26264 6.07576 9.33169C6.03776 9.40073 6.01373 9.47657 6.00505 9.55489C5.99636 9.63322 6.0032 9.71248 6.02516 9.78817C6.04711 9.86385 6.08375 9.93447 6.13299 9.99599L7.731 11.998L6.13299 14C6.08375 14.0615 6.04711 14.1322 6.02516 14.2078C6.0032 14.2835 5.99636 14.3628 6.00505 14.4411C6.01373 14.5194 6.03776 14.5953 6.07576 14.6643C6.11375 14.7334 6.16497 14.7942 6.2265 14.8435C6.28802 14.8927 6.35863 14.9294 6.43432 14.9513C6.51001 14.9733 6.58929 14.9801 6.66761 14.9715C6.74594 14.9628 6.82178 14.9387 6.89082 14.9007C6.95986 14.8627 7.02074 14.8115 7.06999 14.75L8.498 12.961L9.92599 14.751C9.98136 14.8223 10.0521 14.8802 10.133 14.9204C10.2138 14.9605 10.3027 14.982 10.393 14.983H10.392Z" fill="currentColor"/>
<path d="M15.498 13.004C15.5769 13.0039 15.6547 12.985 15.725 12.949C15.725 12.949 16.081 12.765 16.393 12.377C16.703 11.989 17.002 11.365 17.002 10.504V5.50402C17.002 4.64302 16.704 4.01802 16.392 3.62902C16.2085 3.39726 15.982 3.20303 15.725 3.057C15.666 3.02431 15.6009 3.00395 15.5338 2.99706C15.4667 2.99017 15.3989 2.99688 15.3345 3.0169C15.27 3.03691 15.2103 3.06981 15.1589 3.11352C15.1075 3.15722 15.0655 3.21086 15.0354 3.27123C15.0052 3.3316 14.9876 3.39742 14.9836 3.46477C14.9796 3.53213 14.9893 3.59962 15.0121 3.66314C15.0348 3.72665 15.0702 3.78486 15.1161 3.83434C15.162 3.88382 15.2174 3.92354 15.279 3.95104C15.279 3.95104 15.422 4.01802 15.611 4.25402C15.801 4.49002 16.002 4.86502 16.002 5.50402V10.504C16.002 11.143 15.8 11.517 15.612 11.752C15.422 11.987 15.279 12.052 15.279 12.052C15.1758 12.1008 15.0924 12.1834 15.0427 12.2861C14.9929 12.3888 14.9798 12.5054 15.0055 12.6166C15.0312 12.7278 15.0942 12.8269 15.1839 12.8973C15.2737 12.9678 15.3849 13.0055 15.499 13.004H15.498Z" fill="currentColor"/>
<path d="M4.51399 17.004C4.62644 17.0016 4.73483 16.9614 4.82159 16.8898C4.90835 16.8182 4.96843 16.7194 4.99213 16.6095C5.01584 16.4995 5.00177 16.3847 4.9522 16.2838C4.90264 16.1828 4.82047 16.1015 4.71899 16.053C4.71899 16.053 4.57399 15.987 4.38499 15.752C4.19599 15.517 3.996 15.142 3.996 14.504L3.996 9.50398C3.996 8.86498 4.19799 8.48998 4.38599 8.25398C4.57599 8.01798 4.71899 7.951 4.71899 7.951C4.77978 7.92292 4.83431 7.88288 4.87934 7.83333C4.92438 7.78377 4.95899 7.72568 4.98115 7.66249C5.0033 7.5993 5.01254 7.5323 5.00831 7.46547C5.00408 7.39864 4.98647 7.33334 4.95652 7.27345C4.92657 7.21356 4.8849 7.16032 4.83398 7.11684C4.78305 7.07335 4.72392 7.04053 4.66007 7.02034C4.59623 7.00015 4.52898 6.99299 4.46232 6.99928C4.39565 7.00558 4.33093 7.02518 4.272 7.05696C4.272 7.05696 3.916 7.23998 3.606 7.62898C3.295 8.01798 2.996 8.64298 2.996 9.50398L2.996 14.504C2.996 15.365 3.294 15.989 3.606 16.377C3.916 16.765 4.27299 16.949 4.27299 16.949C4.34715 16.987 4.42966 17.0059 4.51299 17.004H4.51399Z" fill="currentColor"/>
</svg>
