<svg width="20" height="20" viewBox="0 0 20 20" fill="none" xmlns="http://www.w3.org/2000/svg">
<path d="M16.5 6.5V4C16.5 3.86739 16.4473 3.74021 16.3536 3.64645C16.2598 3.55268 16.1326 3.5 16 3.5H13.5V4.5H15.5V6.5H16.5ZM3.5 6.5V4C3.5 3.86739 3.55268 3.74021 3.64645 3.64645C3.74021 3.55268 3.86739 3.5 4 3.5H6.5V4.5H4.5V6.5H3.5ZM16.5 13.5V16C16.5 16.1326 16.4473 16.2598 16.3536 16.3536C16.2598 16.4473 16.1326 16.5 16 16.5H13.5V15.5H15.5V13.5H16.5ZM3.5 13.5V16C3.5 16.1326 3.55268 16.2598 3.64645 16.3536C3.74021 16.4473 3.86739 16.5 4 16.5H6.5V15.5H4.5V13.5H3.5Z" fill="currentColor"/>
<path d="M9.5 3.5V5.5H10.5V3.5H9.5ZM7 6.5C6.86739 6.5 6.74021 6.55269 6.64645 6.64645C6.55268 6.74022 6.5 6.86739 6.5 7V13C6.5 13.1326 6.55268 13.2598 6.64645 13.3535C6.74021 13.4473 6.86739 13.5 7 13.5H13C13.1326 13.5 13.2598 13.4473 13.3536 13.3535C13.4473 13.2598 13.5 13.1326 13.5 13V7C13.5 6.86739 13.4473 6.74022 13.3536 6.64645C13.2598 6.55269 13.1326 6.5 13 6.5H7ZM7.5 7.5H12.527V12.5H7.5V7.5ZM3.5 9.5V10.5H5.5V9.5H3.5ZM14.5 9.5V10.5H16.5V9.5H14.5ZM9.5 14.5V16.5H10.5V14.5H9.5Z" fill="currentColor"/>
</svg>
