<svg width="20" height="20" viewBox="0 0 20 20" fill="none" xmlns="http://www.w3.org/2000/svg">
<path d="M11.99 5.504C11.9919 4.84046 12.2563 4.20463 12.7254 3.73544C13.1946 3.26625 13.8305 3.00185 14.494 3C15.1575 3.00185 15.7934 3.26625 16.2626 3.73544C16.7317 4.20463 16.9962 4.84046 16.998 5.504C16.9962 6.16753 16.7317 6.80336 16.2626 7.27255C15.7934 7.74174 15.1575 8.00615 14.494 8.008C13.8305 8.00615 13.1946 7.74174 12.7254 7.27255C12.2563 6.80336 11.9919 6.16753 11.99 5.504Z" fill="currentColor"/>
<path d="M9.46799 8.06204C9.12758 8.15347 8.81721 8.33279 8.56799 8.58203L3.59 13.564C3.34097 13.8141 3.16193 14.1252 3.07083 14.4662C2.97973 14.8071 2.97975 15.166 3.07086 15.507C3.16198 15.848 3.34099 16.159 3.59003 16.4091C3.83907 16.6592 4.14941 16.8395 4.48999 16.932C4.83101 17.0234 5.19009 17.0233 5.53104 16.9316C5.87199 16.84 6.18274 16.6601 6.43198 16.41L11.41 11.43C11.6593 11.1795 11.8386 10.8679 11.9298 10.5265C12.0211 10.185 12.0212 9.82555 11.93 9.48404C11.7922 8.96915 11.4555 8.53007 10.994 8.2634C10.5324 7.99673 9.98391 7.92432 9.469 8.06204H9.46799ZM10.25 9.02704C10.4216 9.07344 10.5779 9.16415 10.7033 9.29007C10.8287 9.41599 10.9188 9.57267 10.9644 9.74442C11.0101 9.91616 11.0099 10.0969 10.9636 10.2685C10.9174 10.4401 10.8268 10.5965 10.701 10.722L5.72498 15.703C5.59973 15.8288 5.44356 15.9192 5.27219 15.9653C5.10082 16.0114 4.92031 16.0115 4.7489 15.9655C4.57749 15.9196 4.42125 15.8292 4.2959 15.7036C4.17055 15.578 4.08054 15.4215 4.03497 15.25C3.94097 14.9 4.041 14.528 4.297 14.271L9.275 9.28903C9.531 9.03303 9.901 8.93404 10.25 9.02704Z" fill="currentColor"/>
</svg>
