<svg width="20" height="20" viewBox="0 0 20 20" fill="none" xmlns="http://www.w3.org/2000/svg">
<path d="M3.5 11C3.36739 11 3.24022 11.0527 3.14645 11.1465C3.05269 11.2402 3 11.3674 3 11.5V15.5C3 15.6326 3.05269 15.7598 3.14645 15.8535C3.24022 15.9473 3.36739 16 3.5 16H7.5C7.63261 16 7.75978 15.9473 7.85355 15.8535C7.94731 15.7598 8 15.6326 8 15.5V11.5C8 11.3674 7.94731 11.2402 7.85355 11.1465C7.75978 11.0527 7.63261 11 7.5 11H3.5Z" fill="currentColor"/>
<path d="M3.521 5C3.38873 5 3.26186 5.05242 3.16815 5.14575C3.07444 5.23909 3.02153 5.36572 3.021 5.49799L3 9.99799L4 10.002L4.02 6H13V15H9V16H13.5C13.6326 16 13.7598 15.9473 13.8535 15.8535C13.9473 15.7598 14 15.6326 14 15.5V5.5C14 5.36739 13.9473 5.24022 13.8535 5.14645C13.7598 5.05269 13.6326 5 13.5 5H3.521Z" fill="currentColor"/>
<path d="M17 8V6H16V8H17ZM17 5V3H16V5H17ZM17 17V15H16V17H17ZM17 14V12H16V14H17ZM17 11V9H16V11H17Z" fill="currentColor"/>
</svg>
