<svg width="20" height="20" viewBox="0 0 20 20" fill="none" xmlns="http://www.w3.org/2000/svg">
<path d="M9.48801 6.988C9.41275 6.98936 9.33876 7.00768 9.27158 7.04162C9.20439 7.07556 9.14576 7.12422 9.10001 7.18399L7.142 9.14099C7.09558 9.18747 7.05876 9.24266 7.03366 9.30337C7.00856 9.36408 6.99568 9.42914 6.99573 9.49484C6.99577 9.56053 7.00875 9.6256 7.03394 9.68627C7.05912 9.74695 7.09603 9.80208 7.14252 9.84851C7.18901 9.89493 7.24416 9.93171 7.30487 9.95681C7.36559 9.98191 7.43067 9.99482 7.49637 9.99478C7.56207 9.99473 7.6271 9.98175 7.68777 9.95657C7.74845 9.93138 7.80358 9.89447 7.85001 9.84799L8.996 8.70001V14.493C8.996 14.6256 9.04869 14.7528 9.14246 14.8466C9.23622 14.9403 9.36339 14.993 9.496 14.993H15.289L14.142 16.14C14.0956 16.1865 14.0588 16.2416 14.0337 16.3024C14.0086 16.3631 13.9957 16.4282 13.9957 16.4939C13.9958 16.5596 14.0088 16.6246 14.0339 16.6853C14.0591 16.7459 14.096 16.8011 14.1425 16.8475C14.189 16.8939 14.2442 16.9307 14.3049 16.9558C14.3656 16.9809 14.4307 16.9938 14.4964 16.9938C14.5621 16.9937 14.6271 16.9807 14.6878 16.9556C14.7485 16.9304 14.8036 16.8935 14.85 16.847L16.8 14.897C16.8622 14.8511 16.913 14.7913 16.9483 14.7225C16.9835 14.6537 17.0023 14.5776 17.0032 14.5002C17.0041 14.4229 16.987 14.3464 16.9533 14.2768C16.9196 14.2072 16.8702 14.1463 16.809 14.099L14.849 12.139C14.8028 12.0913 14.7476 12.0533 14.6866 12.0272C14.6255 12.0011 14.5599 11.9874 14.4935 11.9869C14.4271 11.9864 14.3613 11.9992 14.2999 12.0244C14.2385 12.0496 14.1827 12.0868 14.1358 12.1338C14.0889 12.1808 14.0519 12.2367 14.0268 12.2982C14.0018 12.3597 13.9892 12.4255 13.9899 12.4919C13.9906 12.5583 14.0044 12.6239 14.0307 12.6849C14.057 12.7458 14.0952 12.8009 14.143 12.847L15.289 13.993H9.996V8.70001L11.142 9.84698C11.2358 9.94087 11.363 9.99368 11.4956 9.99377C11.6283 9.99386 11.7556 9.94125 11.8495 9.8475C11.9434 9.75374 11.9962 9.62654 11.9963 9.49386C11.9964 9.36118 11.9438 9.2339 11.85 9.14001L9.88901 7.17898L9.883 7.17098C9.83531 7.11249 9.77501 7.06555 9.7066 7.03369C9.6382 7.00182 9.56346 6.98587 9.48801 6.98699V6.988Z" fill="currentColor"/>
<path d="M9.44101 3.00202C8.25019 2.95653 7.071 3.25063 6.04102 3.85001C3.94102 5.07401 2.761 7.40199 3.035 9.79099C3.31 12.185 5.017 14.241 7.345 14.977C7.40764 14.9968 7.47357 15.004 7.539 14.9983C7.60444 14.9926 7.66811 14.974 7.72638 14.9437C7.78465 14.9134 7.83637 14.8719 7.8786 14.8216C7.92083 14.7713 7.95274 14.7132 7.9725 14.6505C7.99227 14.5879 7.99949 14.522 7.99377 14.4565C7.98806 14.3911 7.96953 14.3274 7.93921 14.2691C7.90889 14.2109 7.86739 14.1591 7.81708 14.1169C7.76677 14.0747 7.70864 14.0428 7.646 14.023C5.696 13.407 4.25799 11.665 4.02899 9.676C3.79999 7.682 4.78001 5.744 6.54501 4.715C8.30901 3.686 10.519 3.77699 12.217 4.91599C13.155 5.54599 14.141 6 15.496 6H16.496C16.6286 6 16.7558 5.94732 16.8495 5.85355C16.9433 5.75978 16.996 5.63261 16.996 5.5C16.996 5.36739 16.9433 5.24022 16.8495 5.14646C16.7558 5.05269 16.6286 5 16.496 5H15.496C14.351 5 13.64 4.66402 12.776 4.08402C11.7865 3.42033 10.6316 3.04563 9.44101 3.00202Z" fill="currentColor"/>
</svg>
