<svg width="20" height="20" viewBox="0 0 20 20" fill="none" xmlns="http://www.w3.org/2000/svg">
<path d="M7.5 3C7.4343 2.99988 7.36921 3.01271 7.30847 3.03777C7.24773 3.06282 7.19252 3.0996 7.146 3.146L4.146 6.146C4.0996 6.19252 4.06283 6.24773 4.03778 6.30847C4.01273 6.36921 3.99988 6.4343 4 6.5V16.5C4 16.6326 4.05269 16.7598 4.14645 16.8535C4.24022 16.9473 4.36739 17 4.5 17H12.5C12.5657 17.0001 12.6308 16.9873 12.6915 16.9622C12.7523 16.9372 12.8075 16.9004 12.854 16.854L15.854 13.854C15.9004 13.8075 15.9372 13.7523 15.9622 13.6915C15.9873 13.6308 16.0001 13.5657 16 13.5V3.5C16 3.36739 15.9473 3.24022 15.8535 3.14645C15.7598 3.05269 15.6326 3 15.5 3H7.5ZM7.707 4H15V13.293L12.293 16H5V6.707L7.707 4Z" fill="currentColor"/>
<path d="M10 7.99799C8.9 7.99799 8 8.90098 8 9.99998C8 11.1 8.9 12 10 12C11.1 12 12.002 11.1 12.002 9.99998C11.9999 9.46967 11.7883 8.96168 11.4133 8.58669C11.0383 8.21169 10.5303 8.00009 10 7.99799Z" fill="currentColor"/>
</svg>
