<svg width="20" height="20" viewBox="0 0 20 20" fill="none" xmlns="http://www.w3.org/2000/svg">
<path d="M5 9.5V10.5H3V9.5H5ZM9 13.5H10V16.5H9V13.5ZM9 3.5H10V6.5H9V3.5ZM6.5 7.5C6.36739 7.5 6.24021 7.55268 6.14645 7.64645C6.05268 7.74021 6 7.86739 6 8V12C6 12.1326 6.05268 12.2598 6.14645 12.3536C6.24021 12.4473 6.36739 12.5 6.5 12.5H12.5C12.6326 12.5 12.7598 12.4473 12.8536 12.3536C12.9473 12.2598 13 12.1326 13 12V10.5H13.336L15.956 12.404C16.0414 12.4663 16.1443 12.4999 16.25 12.5H16.5C16.6326 12.5 16.7598 12.4473 16.8536 12.3536C16.9473 12.2598 17 12.1326 17 12V8C17 7.86739 16.9473 7.74021 16.8536 7.64645C16.7598 7.55268 16.6326 7.5 16.5 7.5H16.25C16.144 7.49991 16.0407 7.53353 15.955 7.596L13.335 9.5H13V8C13 7.86739 12.9473 7.74021 12.8536 7.64645C12.7598 7.55268 12.6326 7.5 12.5 7.5H6.5ZM7 8.5H12.027V11.5H7V8.5ZM16 8.8V11.2L14.35 10L16 8.8Z" fill="currentColor"/>
</svg>
