<svg width="20" height="20" viewBox="0 0 20 20" fill="none" xmlns="http://www.w3.org/2000/svg">
<path d="M4.00299 6.49695C3.87039 6.49695 3.74319 6.54963 3.64942 6.6434C3.55565 6.73717 3.50299 6.86434 3.50299 6.99695L3.495 16.0049C3.495 16.1376 3.54765 16.2647 3.64142 16.3585C3.73519 16.4523 3.86239 16.5049 3.995 16.5049L13.003 16.4969C13.1356 16.4969 13.2628 16.4443 13.3566 16.3505C13.4503 16.2567 13.503 16.1296 13.503 15.9969C13.503 10.7569 9.24299 6.49695 4.00299 6.49695ZM4.50299 7.59894C6.55972 7.71551 8.5016 8.58506 9.95826 10.0417C11.4149 11.4984 12.2844 13.4402 12.401 15.4969L4.495 15.5049L4.50299 7.59894Z" fill="currentColor"/>
<path d="M15.475 3.49497C15.2153 3.5029 14.969 3.61158 14.788 3.79798L11.788 6.79798C11.6925 6.89022 11.6163 7.00056 11.5639 7.12256C11.5115 7.24457 11.4839 7.3758 11.4827 7.50858C11.4816 7.64136 11.5069 7.77304 11.5572 7.89594C11.6075 8.01884 11.6817 8.13048 11.7756 8.22437C11.8694 8.31826 11.9811 8.39253 12.104 8.44281C12.2269 8.4931 12.3586 8.51837 12.4914 8.51722C12.6242 8.51606 12.7554 8.48848 12.8774 8.43607C12.9994 8.38366 13.1097 8.30749 13.2019 8.21198L16.2019 5.21198C16.3466 5.07153 16.4454 4.89062 16.4855 4.693C16.5255 4.49538 16.5049 4.29029 16.4262 4.10462C16.3476 3.91895 16.2147 3.76139 16.045 3.65259C15.8752 3.5438 15.6765 3.48884 15.475 3.49497Z" fill="currentColor"/>
</svg>
