<svg width="20" height="20" viewBox="0 0 20 20" fill="none" xmlns="http://www.w3.org/2000/svg">
<path d="M5.498 2.98401C4.83561 2.98612 4.20094 3.25018 3.73256 3.71857C3.26417 4.18695 3.00011 4.82162 2.998 5.48401V7.492C2.998 8.867 4.123 9.992 5.498 9.992C6.873 9.992 7.998 8.867 7.998 7.492V6.992H10.008L9.99397 10.279C8.33397 11.689 6.753 12.901 6.006 16.386C5.828 17.061 6.86601 17.285 6.98201 16.597C7.65801 13.446 8.90602 12.509 10.5 11.17C12.084 12.51 13.331 13.447 14.02 16.6C14.153 17.266 15.155 17.045 14.996 16.384C14.233 12.89 12.645 11.681 10.994 10.267L11.008 6.992H16.51C17.167 6.982 17.167 6.002 16.51 5.992H13.467C13.2368 6.2972 12.9395 6.5454 12.5981 6.71741C12.2567 6.88941 11.8803 6.98063 11.498 6.98401C10.7 6.98401 9.98801 6.588 9.52901 5.992H7.998V5.48401C7.998 4.10901 6.873 2.98401 5.498 2.98401ZM11.498 2.992C10.678 2.992 10.002 3.66801 10.002 4.48801C10.002 5.30801 10.677 5.98401 11.498 5.98401C12.318 5.98401 12.994 5.30901 12.994 4.48801C12.994 3.66801 12.319 2.992 11.498 2.992ZM5.498 3.98401C6.332 3.98401 6.998 4.65001 6.998 5.48401V7.492C6.998 8.326 6.332 8.992 5.498 8.992C4.664 8.992 3.998 8.326 3.998 7.492V5.48401C3.998 4.65001 4.664 3.98401 5.498 3.98401Z" fill="currentColor"/>
</svg>
