<svg width="20" height="20" viewBox="0 0 20 20" fill="none" xmlns="http://www.w3.org/2000/svg">
<path d="M10.465 9.99302C10.035 9.99702 9.83503 10.58 10.147 10.864L11.374 12.499C10.934 13.095 10.473 13.678 10.047 14.284C9.83702 14.67 10.289 15.15 10.687 14.963C10.974 14.805 11.107 14.479 11.319 14.239L11.999 13.333C12.391 13.844 12.762 14.373 13.166 14.873C13.478 15.183 14.066 14.883 13.997 14.448C13.926 14.128 13.65 13.908 13.479 13.638L12.624 12.498C13.064 11.902 13.525 11.32 13.951 10.714C14.161 10.328 13.709 9.84701 13.311 10.034C13.024 10.192 12.89 10.519 12.679 10.758L11.999 11.665C11.609 11.153 11.234 10.626 10.833 10.124C10.7837 10.0788 10.7258 10.0439 10.6628 10.0214C10.5997 9.99887 10.5328 9.98923 10.466 9.99302H10.465Z" fill="currentColor"/>
<path d="M6.475 2.993C6.40035 2.99507 6.3271 3.01384 6.26065 3.04793C6.1942 3.08202 6.13626 3.13056 6.09103 3.18999L3.16702 6.11599L3.14102 6.139V6.14101C3.07105 6.21158 3.02372 6.3014 3.00503 6.39901L3.001 6.411C2.9963 6.44076 2.99431 6.47088 2.99502 6.501V15.493C2.99502 15.6256 3.04768 15.7528 3.14145 15.8465C3.23521 15.9403 3.36241 15.993 3.49502 15.993H5.49502C5.62763 15.993 5.75483 15.9403 5.8486 15.8465C5.94237 15.7528 5.99502 15.6256 5.99502 15.493C5.99502 15.3604 5.94237 15.2332 5.8486 15.1395C5.75483 15.0457 5.62763 14.993 5.49502 14.993H3.99502V6.993H6.49502C6.62763 6.993 6.75483 6.94031 6.8486 6.84655C6.94237 6.75278 6.99502 6.62561 6.99502 6.493V3.993H12.995V6.493C12.995 6.62561 13.0477 6.75278 13.1414 6.84655C13.2352 6.94031 13.3624 6.993 13.495 6.993C13.6276 6.993 13.7548 6.94031 13.8486 6.84655C13.9424 6.75278 13.995 6.62561 13.995 6.493V3.493C13.995 3.36039 13.9424 3.23322 13.8486 3.13945C13.7548 3.04569 13.6276 2.993 13.495 2.993H6.49502C6.49036 2.99293 6.48571 2.99293 6.48105 2.993H6.475Z" fill="currentColor"/>
<path d="M8.49899 7.99301C8.02899 8.06801 7.69098 8.49501 7.43298 8.86301C6.99998 9.52101 6.976 10.325 6.995 11.085C7.003 12.325 6.979 13.565 7.008 14.805C7.08 15.695 7.55799 16.638 8.41299 16.992C8.83699 17.104 9.19501 16.55 8.91901 16.209C8.62101 15.965 8.27899 15.732 8.14899 15.343C7.90599 14.71 8.023 14.023 7.995 13.362C8.001 12.33 7.984 11.297 8.004 10.266C8.034 9.69702 8.336 9.13702 8.841 8.86002C9.179 8.57202 8.94199 7.97301 8.49899 7.99301ZM15.483 7.99301C15.044 7.97801 14.818 8.59702 15.163 8.86902C15.803 9.20502 16.046 9.97 16.001 10.655C15.995 12.01 16.012 13.365 15.991 14.72C15.963 15.291 15.658 15.848 15.156 16.132C14.823 16.418 15.075 17.027 15.513 16.992C15.977 16.914 16.307 16.488 16.563 16.124C16.989 15.474 17.021 14.68 17.001 13.928C16.993 12.678 17.017 11.429 16.987 10.181C16.918 9.304 16.455 8.393 15.631 8.013C15.5829 7.99896 15.5331 7.99223 15.483 7.99301Z" fill="currentColor"/>
</svg>
