<svg width="20" height="20" viewBox="0 0 20 20" fill="none" xmlns="http://www.w3.org/2000/svg">
<path d="M13.492 10.49C13.3922 10.4898 13.2947 10.5194 13.2119 10.5751C13.1291 10.6308 13.0649 10.71 13.0275 10.8024C12.9901 10.8949 12.9811 10.9965 13.0019 11.0941C13.0227 11.1916 13.0722 11.2807 13.144 11.35L15.791 13.996L13.144 16.643C13.0962 16.6891 13.0581 16.7443 13.0319 16.8053C13.0057 16.8663 12.9919 16.9319 12.9913 16.9983C12.9908 17.0647 13.0034 17.1305 13.0286 17.192C13.0537 17.2534 13.0909 17.3092 13.1378 17.3562C13.1847 17.4031 13.2406 17.4403 13.302 17.4654C13.3635 17.4905 13.4293 17.5032 13.4957 17.5026C13.5621 17.502 13.6277 17.4882 13.6887 17.462C13.7497 17.4358 13.8049 17.3977 13.851 17.35L16.851 14.35C16.9447 14.2562 16.9974 14.1291 16.9974 13.9965C16.9974 13.8639 16.9447 13.7367 16.851 13.643L13.851 10.643C13.8045 10.5947 13.7487 10.5563 13.687 10.53C13.6254 10.5037 13.559 10.4901 13.492 10.49Z" fill="currentColor"/>
<path d="M8.43398 2.523C7.58683 2.60317 6.76639 2.86256 6.02709 3.28392C5.2878 3.70528 4.64655 4.27899 4.14584 4.96703C3.64513 5.65507 3.29641 6.44172 3.12283 7.27477C2.94924 8.10782 2.95476 8.96824 3.139 9.799C3.4357 11.1314 4.17756 12.3229 5.24227 13.1771C6.30699 14.0313 7.63098 14.4972 8.996 14.498H11.289L9.14401 16.643C9.09625 16.6891 9.05815 16.7443 9.03195 16.8053C9.00574 16.8663 8.99193 16.9319 8.99136 16.9983C8.99078 17.0647 9.00345 17.1305 9.02859 17.192C9.05373 17.2534 9.09087 17.3092 9.13781 17.3562C9.18476 17.4031 9.24058 17.4403 9.30203 17.4654C9.36347 17.4906 9.4293 17.5032 9.49569 17.5026C9.56208 17.5021 9.62768 17.4883 9.68868 17.4621C9.74969 17.4358 9.80488 17.3977 9.85101 17.35L12.851 14.35C12.9447 14.2562 12.9974 14.1291 12.9974 13.9965C12.9974 13.8639 12.9447 13.7368 12.851 13.643L9.85101 10.643C9.80488 10.5952 9.74969 10.5572 9.68868 10.531C9.62768 10.5048 9.56208 10.491 9.49569 10.4904C9.4293 10.4898 9.36347 10.5025 9.30203 10.5276C9.24058 10.5527 9.18476 10.5899 9.13781 10.6368C9.09087 10.6837 9.05373 10.7396 9.02859 10.801C9.00345 10.8625 8.99078 10.9283 8.99136 10.9947C8.99193 11.0611 9.00574 11.1267 9.03195 11.1877C9.05815 11.2487 9.09625 11.3039 9.14401 11.35L11.293 13.498H8.996C7.85815 13.4989 6.75413 13.1111 5.86669 12.399C4.97925 11.6868 4.3616 10.693 4.11599 9.58202C3.86854 8.47113 4.00773 7.30902 4.51052 6.28798C5.01331 5.26694 5.84959 4.44813 6.88101 3.967C9.00801 2.974 11.545 3.58199 12.959 5.44899L13.699 6.42601C14.251 7.15501 15.133 7.498 15.996 7.498H16.496C16.6286 7.498 16.7558 7.44532 16.8495 7.35155C16.9433 7.25778 16.996 7.13061 16.996 6.998C16.996 6.8654 16.9433 6.73823 16.8495 6.64446C16.7558 6.55069 16.6286 6.498 16.496 6.498H15.996C15.399 6.498 14.826 6.25801 14.496 5.82201L13.756 4.846C13.1405 4.03721 12.3285 3.39921 11.397 2.99263C10.4655 2.58605 9.44553 2.42439 8.43398 2.523Z" fill="currentColor"/>
</svg>
