<svg width="20" height="20" viewBox="0 0 20 20" fill="none" xmlns="http://www.w3.org/2000/svg">
<path d="M3.5 10C3.36739 10 3.24022 10.0527 3.14645 10.1465C3.05269 10.2402 3 10.3674 3 10.5V16.5C3 16.6326 3.05269 16.7598 3.14645 16.8535C3.24022 16.9473 3.36739 17 3.5 17H10.5C10.6326 17 10.7598 16.9473 10.8535 16.8535C10.9473 16.7598 11 16.6326 11 16.5V10.5C11 10.3674 10.9473 10.2402 10.8535 10.1465C10.7598 10.0527 10.6326 10 10.5 10H3.5ZM4 11H10V16H4V11Z" fill="currentColor"/>
<path d="M13.5 3C13.3674 3 13.2402 3.05269 13.1465 3.14645C13.0527 3.24022 13 3.36739 13 3.5V16.5C13 16.6326 13.0527 16.7598 13.1465 16.8535C13.2402 16.9473 13.3674 17 13.5 17H16.5C16.6326 17 16.7598 16.9473 16.8535 16.8535C16.9473 16.7598 17 16.6326 17 16.5V3.5C17 3.36739 16.9473 3.24022 16.8535 3.14645C16.7598 3.05269 16.6326 3 16.5 3H13.5ZM14 4H16V16H14V4Z" fill="currentColor"/>
</svg>
