<svg width="20" height="20" viewBox="0 0 20 20" fill="none" xmlns="http://www.w3.org/2000/svg">
<path d="M11.992 5.50101C11.9939 4.83747 12.2582 4.20164 12.7274 3.73245C13.1966 3.26326 13.8324 2.99886 14.496 2.99701C15.1595 2.99886 15.7953 3.26326 16.2645 3.73245C16.7337 4.20164 16.9982 4.83747 17 5.50101C16.9982 6.16454 16.7337 6.80037 16.2645 7.26956C15.7953 7.73875 15.1595 8.00316 14.496 8.005C13.8324 8.00316 13.1966 7.73875 12.7274 7.26956C12.2582 6.80037 11.9939 6.16454 11.992 5.50101ZM3 15.005C3 13.909 3.897 13.009 4.992 13.009C6.088 13.009 6.98602 13.909 6.98602 15.005C6.98419 15.5337 6.77364 16.0402 6.40021 16.4144C6.02677 16.7886 5.52064 17.0001 4.992 17.003C4.46355 17.0001 3.95765 16.7885 3.58453 16.4142C3.21142 16.04 3.00131 15.5335 3 15.005ZM4 15.005C4 15.562 4.438 16.003 4.992 16.003C5.12303 16.0036 5.25286 15.9781 5.37396 15.928C5.49506 15.878 5.60499 15.8045 5.69745 15.7116C5.78991 15.6188 5.86307 15.5085 5.9126 15.3872C5.96213 15.2659 5.98708 15.136 5.98602 15.005C5.98709 14.8741 5.96209 14.7443 5.91254 14.6231C5.86298 14.5019 5.78981 14.3917 5.69733 14.2991C5.60484 14.2064 5.49487 14.133 5.37378 14.0832C5.25269 14.0334 5.12293 14.0082 4.992 14.009C4.86117 14.0082 4.73145 14.0335 4.61047 14.0833C4.48949 14.1331 4.37968 14.2065 4.28735 14.2992C4.19503 14.3919 4.12209 14.5021 4.07275 14.6232C4.02342 14.7444 3.99867 14.8742 4 15.005Z" fill="currentColor"/>
<path d="M14.502 11.983C14.4364 11.9838 14.3715 11.9975 14.3111 12.0234C14.2507 12.0492 14.1961 12.0867 14.1502 12.1337C14.1043 12.1807 14.0682 12.2363 14.0438 12.2972C14.0194 12.3582 14.0072 12.4234 14.008 12.489V16.489C14.008 16.6216 14.0607 16.7488 14.1544 16.8426C14.2482 16.9363 14.3754 16.989 14.508 16.989C14.6406 16.989 14.7678 16.9363 14.8616 16.8426C14.9553 16.7488 15.008 16.6216 15.008 16.489V12.489C15.0088 12.4223 14.9963 12.3562 14.9711 12.2944C14.946 12.2327 14.9087 12.1766 14.8616 12.1294C14.8144 12.0823 14.7583 12.045 14.6966 12.0199C14.6348 11.9948 14.5687 11.9822 14.502 11.983ZM8.508 13.989C8.37539 13.989 8.24819 14.0417 8.15442 14.1355C8.06065 14.2292 8.008 14.3564 8.008 14.489C8.008 14.6216 8.06065 14.7488 8.15442 14.8426C8.24819 14.9363 8.37539 14.989 8.508 14.989H9.508C9.6406 14.989 9.7678 14.9363 9.86157 14.8426C9.95534 14.7488 10.008 14.6216 10.008 14.489C10.008 14.3564 9.95534 14.2292 9.86157 14.1355C9.7678 14.0417 9.6406 13.989 9.508 13.989H8.508ZM11.508 13.989C11.3754 13.989 11.2482 14.0417 11.1544 14.1355C11.0607 14.2292 11.008 14.3564 11.008 14.489C11.008 14.6216 11.0607 14.7488 11.1544 14.8426C11.2482 14.9363 11.3754 14.989 11.508 14.989H12.508C12.6406 14.989 12.7678 14.9363 12.8616 14.8426C12.9553 14.7488 13.008 14.6216 13.008 14.489C13.008 14.3564 12.9553 14.2292 12.8616 14.1355C12.7678 14.0417 12.6406 13.989 12.508 13.989H11.508Z" fill="currentColor"/>
</svg>
