<svg width="20" height="20" viewBox="0 0 20 20" fill="none" xmlns="http://www.w3.org/2000/svg">
<path d="M12.004 2.995V4.995H10.504C10.3714 4.995 10.2442 5.04768 10.1504 5.14145C10.0567 5.23522 10.004 5.36239 10.004 5.495V6.99298L6.016 6.99899C5.203 6.99999 4.499 7.45701 4.184 8.12601C3.868 8.79501 3.994 9.684 4.662 10.353L8.662 14.353C9.075 14.766 9.078 15.128 8.934 15.44C8.85041 15.6112 8.71955 15.755 8.55687 15.8542C8.3942 15.9535 8.20651 16.004 8.016 16L3.502 16.005C2.826 15.997 2.828 17.015 3.504 17.005L8.016 16.999C8.39672 17.0027 8.77061 16.8978 9.09372 16.6964C9.41682 16.4949 9.67573 16.2055 9.84 15.862C10.15 15.192 10.03 14.306 9.37 13.646L5.37 9.646C4.943 9.219 4.943 8.86099 5.088 8.55399C5.233 8.24599 5.578 7.99999 6.016 7.99899L9.996 7.99298H10.004V9.495C10.004 9.6276 10.0567 9.75477 10.1504 9.84854C10.2442 9.94231 10.3714 9.995 10.504 9.995H12.004V11.995H13.004V9.995H14.504C14.6366 9.995 14.7638 9.94231 14.8576 9.84854C14.9513 9.75477 15.004 9.6276 15.004 9.495V7.995H17.004V6.995H15.004V5.495C15.004 5.36239 14.9513 5.23522 14.8576 5.14145C14.7638 5.04768 14.6366 4.995 14.504 4.995H13.004V2.995H12.004ZM10.976 5.995H14.004V8.995H10.976V5.995Z" fill="currentColor"/>
</svg>
