<svg width="20" height="20" viewBox="0 0 20 20" fill="none" xmlns="http://www.w3.org/2000/svg">
<path d="M4.354 8.97303C4.27971 8.97822 4.20746 8.99963 4.14233 9.03574C4.0772 9.07185 4.02077 9.12179 3.977 9.18204C3.44229 9.89462 3.11127 10.7391 3.01932 11.6252C2.92738 12.5114 3.07797 13.4058 3.45499 14.213C3.8296 15.0182 4.41805 15.7051 5.15618 16.1988C5.89431 16.6925 6.75381 16.9742 7.641 17.013C8.51577 17.048 9.38365 16.8451 10.1523 16.426C10.9209 16.0069 11.5615 15.3873 12.006 14.633V16.508C12.006 16.6406 12.0587 16.7678 12.1524 16.8616C12.2462 16.9553 12.3734 17.008 12.506 17.008C12.6386 17.008 12.7658 16.9553 12.8595 16.8616C12.9533 16.7678 13.006 16.6406 13.006 16.508V13.508C13.006 13.3754 12.9533 13.2483 12.8595 13.1545C12.7658 13.0607 12.6386 13.008 12.506 13.008H9.506C9.37339 13.008 9.24621 13.0607 9.15244 13.1545C9.05867 13.2483 9.006 13.3754 9.006 13.508C9.006 13.6406 9.05867 13.7678 9.15244 13.8616C9.24621 13.9553 9.37339 14.008 9.506 14.008H11.199C11.1846 14.0268 11.1716 14.0465 11.16 14.067C10.8132 14.6762 10.3054 15.1783 9.69234 15.5182C9.07923 15.8581 8.38443 16.0227 7.684 15.994C6.98314 15.9637 6.30413 15.7412 5.72123 15.3509C5.13833 14.9606 4.67398 14.4175 4.379 13.781C4.08036 13.1415 3.96112 12.4328 4.03404 11.7307C4.10696 11.0286 4.3693 10.3596 4.793 9.79502C4.85064 9.72056 4.88654 9.63161 4.89673 9.538C4.90691 9.44439 4.89099 9.34979 4.85071 9.26468C4.81043 9.17957 4.74737 9.10727 4.66852 9.05579C4.58968 9.00431 4.49812 8.97566 4.404 8.97303C4.38734 8.97221 4.37065 8.97221 4.354 8.97303Z" fill="currentColor"/>
<path d="M8.404 2.983C8.38731 2.98283 8.37062 2.98348 8.354 2.98498C8.2816 2.99008 8.21118 3.0109 8.14763 3.04595C8.08408 3.08101 8.02893 3.12947 7.986 3.18798C7.4521 3.89899 7.12142 4.7417 7.02931 5.62606C6.93719 6.51043 7.08709 7.4032 7.463 8.20898C7.83687 9.01264 8.42417 9.69828 9.16089 10.1911C9.89761 10.684 10.7555 10.9651 11.641 11.004C12.5168 11.0387 13.3855 10.8348 14.1543 10.414C14.9232 9.99318 15.5632 9.37136 16.006 8.61499V10.508C16.006 10.6406 16.0587 10.7678 16.1524 10.8615C16.2462 10.9553 16.3734 11.008 16.506 11.008C16.6386 11.008 16.7658 10.9553 16.8596 10.8615C16.9533 10.7678 17.006 10.6406 17.006 10.508V7.50799C17.006 7.37538 16.9533 7.24821 16.8596 7.15444C16.7658 7.06068 16.6386 7.00799 16.506 7.00799H13.506C13.3734 7.00799 13.2462 7.06068 13.1524 7.15444C13.0587 7.24821 13.006 7.37538 13.006 7.50799C13.006 7.6406 13.0587 7.76777 13.1524 7.86154C13.2462 7.95531 13.3734 8.00799 13.506 8.00799H15.209C15.1944 8.02864 15.1813 8.05037 15.17 8.07299C14.8221 8.68375 14.3128 9.18699 13.6979 9.52758C13.0831 9.86818 12.3863 10.033 11.684 10.004C10.9811 9.97359 10.3001 9.75051 9.71546 9.35916C9.13081 8.9678 8.66501 8.42324 8.369 7.785C8.06966 7.14377 7.95024 6.43322 8.02352 5.72937C8.09679 5.02551 8.36 4.35482 8.785 3.789C8.84148 3.71609 8.87671 3.62899 8.88677 3.53732C8.89683 3.44564 8.88133 3.35295 8.84201 3.26953C8.80268 3.18611 8.74104 3.1152 8.66392 3.06463C8.58679 3.01406 8.49718 2.98581 8.405 2.983H8.404Z" fill="currentColor"/>
</svg>
