<svg width="20" height="20" viewBox="0 0 20 20" fill="none" xmlns="http://www.w3.org/2000/svg">
<path d="M9.5 3C9.41827 3.00004 9.3378 3.02012 9.26562 3.05847C9.19345 3.09683 9.13177 3.15229 9.086 3.22L3.336 11.72C3.32699 11.7336 3.31862 11.7476 3.31097 11.762C3.09797 12.152 3 12.58 3 13C3 14.217 3.89602 15.232 5.16602 15.916C6.43602 16.6 8.132 17 10 17C11.868 17 13.564 16.6 14.834 15.916C16.104 15.232 17 14.217 17 13C17 12.58 16.903 12.153 16.687 11.76C16.68 11.7463 16.6723 11.733 16.664 11.72L10.914 3.22C10.8682 3.15229 10.8065 3.09683 10.7344 3.05847C10.6622 3.02012 10.5817 3.00004 10.5 3H9.5ZM9.76599 4H10.234L15.814 12.248C15.942 12.483 16 12.732 16 13C16 13.716 15.442 14.452 14.36 15.035C13.277 15.618 11.722 16 10 16C8.278 16 6.72301 15.618 5.64001 15.035C4.55801 14.452 4 13.715 4 13C4 12.737 4.06199 12.478 4.18799 12.244L9.76599 4Z" fill="currentColor"/>
<path d="M10 10C8.142 10 6.46 10.349 5.203 10.898C4.575 11.173 4.04997 11.498 3.65997 11.881C3.26997 12.263 3 12.729 3 13.25C3 13.3826 3.05266 13.5098 3.14642 13.6036C3.24019 13.6973 3.36739 13.75 3.5 13.75C3.63261 13.75 3.75981 13.6973 3.85358 13.6036C3.94734 13.5098 4 13.3826 4 13.25C4 13.08 4.09402 12.856 4.36102 12.594C4.62902 12.331 5.056 12.054 5.604 11.814C6.699 11.334 8.269 11 10 11C11.731 11 13.3 11.335 14.396 11.814C14.944 12.054 15.371 12.331 15.639 12.594C15.906 12.856 16 13.08 16 13.25C16 13.3826 16.0527 13.5098 16.1464 13.6036C16.2402 13.6973 16.3674 13.75 16.5 13.75C16.6326 13.75 16.7598 13.6973 16.8536 13.6036C16.9473 13.5098 17 13.3826 17 13.25C17 12.73 16.73 12.263 16.34 11.88C15.95 11.498 15.425 11.173 14.797 10.898C13.54 10.348 11.858 10 10 10Z" fill="currentColor"/>
</svg>
