<svg width="20" height="20" viewBox="0 0 20 20" fill="none" xmlns="http://www.w3.org/2000/svg">
<path d="M5.5 3C5.36739 3 5.24022 3.05269 5.14645 3.14645C5.05269 3.24022 5 3.36739 5 3.5V4.5C5 4.458 5.006 4.48799 4.953 4.55499C4.9 4.62099 4.80301 4.70899 4.69901 4.78699C4.53301 4.91199 4.42299 4.967 4.36099 5H3.5C3.36739 5 3.24022 5.05269 3.14645 5.14645C3.05269 5.24022 3 5.36739 3 5.5V6.5C3 6.63261 3.05269 6.75978 3.14645 6.85355C3.24022 6.94731 3.36739 7 3.5 7H5.27499C5.68499 6.505 6.173 6.06999 6.75 5.73599L7.17599 5.46899L7 5.293V3.5C7 3.36739 6.94731 3.24022 6.85355 3.14645C6.75978 3.05269 6.63261 3 6.5 3H5.5ZM13.781 3.00201C13.2644 3.01676 12.7596 3.1597 12.312 3.418C12.307 3.42124 12.3019 3.42459 12.297 3.42801L7.25 6.604L7.23401 6.61401C7.14843 6.66615 7.08049 6.7428 7.039 6.83401C5.581 7.82301 4.759 9.52801 5.069 11.282C5.17708 11.8912 5.40952 12.4716 5.75183 12.987C6.09414 13.5024 6.53898 13.9418 7.05859 14.2777C7.5782 14.6136 8.16144 14.8388 8.77194 14.9394C9.38245 15.0399 10.0071 15.0136 10.607 14.862C10.6719 14.8471 10.7332 14.8194 10.7873 14.7804C10.8414 14.7415 10.8871 14.6921 10.9218 14.6353C10.9565 14.5784 10.9795 14.5152 10.9895 14.4493C10.9994 14.3834 10.9961 14.3162 10.9797 14.2516C10.9633 14.1871 10.9342 14.1264 10.894 14.0733C10.8539 14.0201 10.8035 13.9755 10.7458 13.9421C10.6882 13.9087 10.6245 13.8872 10.5584 13.8787C10.4923 13.8703 10.4252 13.8751 10.361 13.893C9.54055 14.1053 8.67094 14.0125 7.91376 13.6319C7.15658 13.2513 6.56333 12.6087 6.24423 11.8236C5.92514 11.0385 5.90191 10.1643 6.17886 9.36337C6.45581 8.56244 7.0141 7.88928 7.75 7.46899C7.7554 7.46576 7.76072 7.46245 7.76599 7.45901L7.793 7.444C7.79637 7.44138 7.79971 7.43871 7.80301 7.436L12.813 4.28601C13.2177 4.05146 13.6886 3.95733 14.1523 4.01828C14.6161 4.07923 15.0467 4.29183 15.377 4.62299C16.059 5.30499 16.197 6.35299 15.715 7.18799C15.7129 7.19229 15.711 7.19663 15.709 7.20099C15.7018 7.21304 15.6951 7.2254 15.689 7.23801L14.061 10.264C14.0251 10.322 14.0015 10.3867 13.9915 10.4542C13.9816 10.5217 13.9856 10.5905 14.0032 10.6563C14.0209 10.7222 14.0518 10.7838 14.0941 10.8373C14.1364 10.8908 14.1892 10.935 14.2493 10.9673C14.3094 10.9996 14.3754 11.0193 14.4433 11.0252C14.5113 11.031 14.5797 11.0229 14.6444 11.0013C14.7091 10.9798 14.7687 10.9452 14.8195 10.8997C14.8704 10.8543 14.9114 10.7989 14.94 10.737L16.574 7.69901L16.582 7.68799V7.68399L16.588 7.67401C16.6413 7.5789 16.662 7.46897 16.647 7.36099C17.157 6.19499 17 4.83099 16.085 3.91599C15.7839 3.61444 15.4242 3.37778 15.0281 3.22058C14.632 3.06338 14.208 2.98901 13.782 3.00201H13.781ZM14 5C13.7348 5 13.4804 5.10537 13.2929 5.29291C13.1054 5.48044 13 5.73478 13 6C13 6.26522 13.1054 6.51956 13.2929 6.70709C13.4804 6.89463 13.7348 7 14 7C14.2652 7 14.5196 6.89463 14.7071 6.70709C14.8946 6.51956 15 6.26522 15 6C15 5.73478 14.8946 5.48044 14.7071 5.29291C14.5196 5.10537 14.2652 5 14 5ZM9.35001 7.64301L8.29901 8.30499C8.28286 8.31497 8.26652 8.32466 8.25 8.33401C7.905 8.53401 7.623 8.805 7.414 9.121L11.639 13.348L13 14.707V16.5C13 16.6326 13.0527 16.7598 13.1465 16.8535C13.2402 16.9473 13.3674 17 13.5 17H14.5C14.6326 17 14.7598 16.9473 14.8535 16.8535C14.9473 16.7598 15 16.6326 15 16.5V15.5C15 15.417 15.057 15.275 15.166 15.166C15.2543 15.073 15.3726 15.0142 15.5 15H16.5C16.6326 15 16.7598 14.9473 16.8535 14.8535C16.9473 14.7598 17 14.6326 17 14.5V13.5C17 13.3674 16.9473 13.2402 16.8535 13.1465C16.7598 13.0527 16.6326 13 16.5 13H14.707L9.35001 7.64301Z" fill="currentColor"/>
</svg>
