<svg width="20" height="20" viewBox="0 0 20 20" fill="none" xmlns="http://www.w3.org/2000/svg">
<path d="M3.5 3C3.36739 3 3.24022 3.05266 3.14645 3.14642C3.05269 3.24019 3 3.36739 3 3.5V16.5C3 16.6326 3.05269 16.7598 3.14645 16.8536C3.24022 16.9473 3.36739 17 3.5 17H16.5C16.6326 17 16.7598 16.9473 16.8535 16.8536C16.9473 16.7598 17 16.6326 17 16.5V3.5C17 3.36739 16.9473 3.24019 16.8535 3.14642C16.7598 3.05266 16.6326 3 16.5 3H3.5ZM4 4H16V16H4V4ZM6 6V7H7V6H6ZM7 7V8H8V7H7ZM8 8V9H9V8H8ZM8 9H7V10H8V9ZM7 10H6V11H7V10ZM9 10V11H12V10H9Z" fill="currentColor"/>
</svg>
