<svg width="20" height="20" viewBox="0 0 20 20" fill="none" xmlns="http://www.w3.org/2000/svg">
<path d="M13.992 3.00201C13.524 3.00201 13.053 3.11002 12.621 3.32602L5.783 6.72101C5.77387 6.72507 5.76486 6.72941 5.75599 6.73401C4.77866 7.29897 3.99869 8.15079 3.5218 9.17398C3.04491 10.1972 2.89416 11.3423 3.09001 12.454C3.33721 13.8523 4.11547 15.1009 5.26203 15.9387C6.4086 16.7764 7.83466 17.1384 9.24198 16.949C10.0751 16.8359 10.8712 16.5335 11.5692 16.0649C12.2673 15.5964 12.8487 14.9741 13.269 14.246C13.2747 14.2362 13.28 14.2262 13.285 14.216L16.67 7.37601C17.246 6.22201 17.046 4.79602 16.123 3.87302C15.8426 3.59506 15.5102 3.37515 15.1447 3.22586C14.7792 3.07657 14.3878 3.00085 13.993 3.00302L13.992 3.00201ZM14.305 4.02701C14.719 4.09001 15.113 4.27702 15.415 4.58002C16.022 5.18602 16.163 6.15601 15.777 6.92801C15.7763 6.92867 15.7757 6.92935 15.775 6.93002L12.4 13.75C11.9386 14.5494 11.2424 15.1874 10.4058 15.5775C9.56925 15.9675 8.63294 16.0906 7.72401 15.93C6.81445 15.77 5.97619 15.3339 5.32316 14.6808C4.67013 14.0278 4.23397 13.1896 4.07399 12.28C3.91318 11.3706 4.03637 10.4337 4.42677 9.59668C4.81717 8.7597 5.45585 8.06325 6.25599 7.60202L13.066 4.22101C13.0667 4.22101 13.0673 4.22101 13.068 4.22101C13.4507 4.03095 13.8825 3.96322 14.305 4.02701ZM14.005 4.99802C13.459 4.99802 13.005 5.45202 13.005 5.99802C13.005 6.54402 13.459 6.99802 14.005 6.99802C14.552 6.99802 15.005 6.54402 15.005 5.99802C15.005 5.45202 14.552 4.99802 14.005 4.99802ZM8.50498 7.99802C7.57738 8.00013 6.68837 8.36956 6.03245 9.02548C5.37653 9.6814 5.0071 10.5704 5.00498 11.498C5.00498 13.425 6.57898 14.998 8.50498 14.998C10.433 14.998 12.005 13.425 12.005 11.498C12.005 9.57102 10.433 7.99802 8.50498 7.99802ZM8.50498 9.97302C8.70043 9.97276 8.89401 10.0113 9.07466 10.0866C9.2553 10.1619 9.41946 10.2723 9.55775 10.4117C9.69604 10.551 9.80577 10.7164 9.88063 10.8985C9.95548 11.0806 9.994 11.2759 9.994 11.473C9.994 11.6701 9.95551 11.8652 9.88072 12.0473C9.80593 12.2293 9.6963 12.3947 9.55812 12.534C9.41993 12.6733 9.25589 12.7838 9.07536 12.8591C8.89483 12.9345 8.70135 12.9732 8.50599 12.973C8.31055 12.9733 8.11696 12.9347 7.93632 12.8594C7.75568 12.7841 7.59152 12.6737 7.45323 12.5344C7.31493 12.3951 7.20524 12.2296 7.13038 12.0475C7.05553 11.8654 7.01701 11.6702 7.01701 11.473C7.01701 11.2759 7.05553 11.0806 7.13038 10.8985C7.20524 10.7164 7.31493 10.551 7.45323 10.4117C7.59152 10.2723 7.75568 10.1619 7.93632 10.0866C8.11696 10.0113 8.31055 9.97276 8.50599 9.97302H8.50498Z" fill="currentColor"/>
</svg>
