<svg width="20" height="20" viewBox="0 0 20 20" fill="none" xmlns="http://www.w3.org/2000/svg">
<path d="M4.5 3.5C3.678 3.5 3 4.178 3 5V11C3 11.647 3.421 12.198 4 12.406V5C4 4.714 4.214 4.5 4.5 4.5H13.5C13.786 4.5 14 4.714 14 5V6.5H15V5C15 4.178 14.322 3.5 13.5 3.5H4.5Z" fill="currentColor"/>
<path d="M6.5 7.5C5.678 7.5 5 8.178 5 9V15C5 15.822 5.678 16.5 6.5 16.5H15.5C16.322 16.5 17 15.822 17 15V9C17 8.178 16.322 7.5 15.5 7.5H6.5ZM8.504 9.5C8.5962 9.50083 8.68638 9.52716 8.76456 9.57605C8.84274 9.62493 8.90589 9.69445 8.94701 9.77698L10.947 13.777C10.985 13.8532 11.0029 13.9378 10.999 14.0228C10.9951 14.1079 10.9695 14.1905 10.9248 14.2629C10.88 14.3353 10.8175 14.3951 10.7431 14.4366C10.6688 14.4781 10.5851 14.4999 10.5 14.5H6.5C6.41487 14.4999 6.33119 14.4781 6.25685 14.4366C6.18252 14.3951 6.11999 14.3353 6.07523 14.2629C6.03046 14.1905 6.00493 14.1079 6.00104 14.0228C5.99715 13.9378 6.01503 13.8532 6.05299 13.777L8.05299 9.77698C8.09465 9.69339 8.15889 9.62318 8.23842 9.57422C8.31795 9.52526 8.40961 9.49954 8.50301 9.5H8.504ZM12.5 9.5H15.5C15.6326 9.5 15.7598 9.55266 15.8535 9.64642C15.9473 9.74019 16 9.86739 16 10C16 10.1326 15.9473 10.2598 15.8535 10.3536C15.7598 10.4473 15.6326 10.5 15.5 10.5H12.5C12.3674 10.5 12.2402 10.4473 12.1465 10.3536C12.0527 10.2598 12 10.1326 12 10C12 9.86739 12.0527 9.74019 12.1465 9.64642C12.2402 9.55266 12.3674 9.5 12.5 9.5ZM12.5 11.5H15.5C15.6326 11.5 15.7598 11.5527 15.8535 11.6464C15.9473 11.7402 16 11.8674 16 12C16 12.1326 15.9473 12.2598 15.8535 12.3536C15.7598 12.4473 15.6326 12.5 15.5 12.5H12.5C12.3674 12.5 12.2402 12.4473 12.1465 12.3536C12.0527 12.2598 12 12.1326 12 12C12 11.8674 12.0527 11.7402 12.1465 11.6464C12.2402 11.5527 12.3674 11.5 12.5 11.5ZM12.5 13.5H14.5C14.6326 13.5 14.7598 13.5527 14.8535 13.6464C14.9473 13.7402 15 13.8674 15 14C15 14.1326 14.9473 14.2598 14.8535 14.3536C14.7598 14.4473 14.6326 14.5 14.5 14.5H12.5C12.3674 14.5 12.2402 14.4473 12.1465 14.3536C12.0527 14.2598 12 14.1326 12 14C12 13.8674 12.0527 13.7402 12.1465 13.6464C12.2402 13.5527 12.3674 13.5 12.5 13.5Z" fill="currentColor"/>
</svg>
