<svg width="20" height="20" viewBox="0 0 20 20" fill="none" xmlns="http://www.w3.org/2000/svg">
<path d="M6.506 2.99799C6.44029 2.99787 6.37521 3.01072 6.31447 3.03577C6.25373 3.06082 6.19851 3.09758 6.15199 3.14398L3.15199 6.14398C3.10559 6.1905 3.06883 6.24572 3.04378 6.30646C3.01873 6.3672 3.00588 6.43228 3.006 6.49799V16.498C3.006 16.6306 3.05868 16.7578 3.15245 16.8515C3.24622 16.9453 3.37339 16.998 3.506 16.998H13.506C13.5717 16.9981 13.6368 16.9853 13.6975 16.9602C13.7583 16.9352 13.8135 16.8984 13.86 16.852L16.86 13.852C16.9064 13.8055 16.9432 13.7503 16.9682 13.6895C16.9933 13.6288 17.0061 13.5637 17.006 13.498V3.49799C17.006 3.36538 16.9533 3.23821 16.8595 3.14444C16.7658 3.05067 16.6386 2.99799 16.506 2.99799H6.506ZM6.713 3.99799H15.293L13.299 5.99799H4.713L6.713 3.99799ZM16.006 4.69898V13.291L14.006 15.291V6.70297L16.006 4.69898ZM4.006 6.99799H13.006V15.998H4.006V6.99799Z" fill="currentColor"/>
<path d="M6.49803 2.982C6.43236 2.98304 6.36756 2.99701 6.30729 3.02311C6.24703 3.0492 6.19246 3.08691 6.14677 3.13408C6.10108 3.18126 6.06515 3.23697 6.04099 3.29804C6.01684 3.35911 6.00496 3.42433 6.00602 3.48999V13.283L3.15202 16.144C3.10252 16.1898 3.06278 16.245 3.0352 16.3065C3.00761 16.368 2.99275 16.4345 2.9915 16.5019C2.99024 16.5693 3.00265 16.6362 3.02793 16.6987C3.05321 16.7612 3.09089 16.8179 3.13865 16.8655C3.18641 16.913 3.2433 16.9504 3.30589 16.9754C3.36848 17.0005 3.43546 17.0126 3.50285 17.011C3.57023 17.0095 3.6366 16.9943 3.69798 16.9665C3.75936 16.9387 3.81448 16.8987 3.86003 16.849L6.71299 13.99H16.506C16.6386 13.99 16.7658 13.9373 16.8596 13.8435C16.9534 13.7498 17.006 13.6226 17.006 13.49C17.006 13.3574 16.9534 13.2302 16.8596 13.1364C16.7658 13.0427 16.6386 12.99 16.506 12.99H7.00602V3.48999C7.0071 3.42298 6.99473 3.35644 6.96958 3.29432C6.94444 3.23219 6.90705 3.17577 6.85966 3.12838C6.81227 3.08099 6.75583 3.04361 6.6937 3.01847C6.63158 2.99332 6.56504 2.98092 6.49803 2.982Z" fill="currentColor"/>
</svg>
