<svg width="20" height="20" viewBox="0 0 20 20" fill="none" xmlns="http://www.w3.org/2000/svg">
<path d="M16.059 4.01802C15.0004 4.01607 13.9598 4.29124 13.0405 4.81614C12.1212 5.34104 11.3554 6.09738 10.819 7.01002C10.2876 7.9194 10.0075 8.95375 10.0075 10.007C10.0075 11.0603 10.2876 12.0946 10.819 13.004C11.3554 13.9166 12.1212 14.673 13.0405 15.1979C13.9598 15.7228 15.0004 15.998 16.059 15.996L16.49 16.006C16.6226 16.0087 16.7508 15.9585 16.8465 15.8666C16.9421 15.7748 16.9973 15.6486 17 15.516C17.0027 15.3834 16.9525 15.2552 16.8606 15.1595C16.7687 15.0639 16.6426 15.0087 16.51 15.006L16.068 14.996C16.0647 14.996 16.0613 14.996 16.058 14.996C15.174 14.9983 14.3049 14.7691 13.537 14.3312C12.7691 13.8933 12.1292 13.262 11.681 12.5C11.2382 11.7442 11.0048 10.884 11.0048 10.008C11.0048 9.13205 11.2382 8.27187 11.681 7.51603C12.1287 6.75444 12.7679 6.12321 13.535 5.68501C14.3022 5.2468 15.1705 5.01685 16.054 5.01802L16.492 5.02201C16.5577 5.02254 16.6228 5.01013 16.6836 4.98548C16.7445 4.96084 16.7999 4.92446 16.8467 4.8784C16.8935 4.83234 16.9308 4.77751 16.9564 4.71705C16.982 4.65659 16.9955 4.59167 16.996 4.52601C16.9965 4.46035 16.9841 4.39522 16.9595 4.33436C16.9348 4.2735 16.8984 4.21811 16.8524 4.17131C16.8063 4.1245 16.7515 4.08724 16.691 4.06163C16.6306 4.03601 16.5657 4.02254 16.5 4.02201L16.062 4.01802C16.0607 4.01801 16.0593 4.01801 16.058 4.01802H16.059Z" fill="currentColor"/>
<path d="M3.498 3C3.36539 3 3.23821 3.05269 3.14444 3.14645C3.05067 3.24022 2.998 3.36739 2.998 3.5V5.5C2.998 5.63261 3.05067 5.75981 3.14444 5.85358C3.23821 5.94734 3.36539 6 3.498 6H4V14H3.498C3.36539 14 3.23821 14.0527 3.14444 14.1465C3.05067 14.2402 2.998 14.3674 2.998 14.5V16.5C2.998 16.6326 3.05067 16.7598 3.14444 16.8536C3.23821 16.9473 3.36539 17 3.498 17H5.498C5.63061 17 5.75778 16.9473 5.85155 16.8536C5.94532 16.7598 5.998 16.6326 5.998 16.5V16.006H11C11.676 16.016 11.676 14.996 11 15.006H5.998V14.5C5.998 14.3674 5.94532 14.2402 5.85155 14.1465C5.75778 14.0527 5.63061 14 5.498 14H5V6H5.498C5.63061 6 5.75778 5.94734 5.85155 5.85358C5.94532 5.75981 5.998 5.63261 5.998 5.5V5.00601H11C11.676 5.01601 11.676 3.99601 11 4.00601H5.998V3.5C5.998 3.36739 5.94532 3.24022 5.85155 3.14645C5.75778 3.05269 5.63061 3 5.498 3H3.498ZM3.998 4H4.998V5H3.998V4ZM3.998 15H4.998V16H3.998V15Z" fill="currentColor"/>
</svg>
