<svg width="20" height="20" viewBox="0 0 20 20" fill="none" xmlns="http://www.w3.org/2000/svg">
<path d="M3.49499 3C3.36238 3 3.23521 3.05269 3.14144 3.14645C3.04767 3.24022 2.99499 3.36739 2.99499 3.5V5.5C2.99499 5.63261 3.04767 5.75981 3.14144 5.85358C3.23521 5.94734 3.36238 6 3.49499 6H5.49499C5.62759 6 5.75479 5.94734 5.84856 5.85358C5.94233 5.75981 5.99499 5.63261 5.99499 5.5V3.5C5.99499 3.36739 5.94233 3.24022 5.84856 3.14645C5.75479 3.05269 5.62759 3 5.49499 3H3.49499ZM14.505 3C14.3724 3 14.2452 3.05269 14.1514 3.14645C14.0577 3.24022 14.005 3.36739 14.005 3.5V5.5C14.005 5.63261 14.0577 5.75981 14.1514 5.85358C14.2452 5.94734 14.3724 6 14.505 6H16.505C16.6376 6 16.7648 5.94734 16.8585 5.85358C16.9523 5.75981 17.005 5.63261 17.005 5.5V3.5C17.005 3.36739 16.9523 3.24022 16.8585 3.14645C16.7648 3.05269 16.6376 3 16.505 3H14.505ZM3.99499 4H4.99499V5H3.99499V4ZM15.005 4H16.005V5H15.005V4ZM3.49499 14C3.36238 14 3.23521 14.0527 3.14144 14.1465C3.04767 14.2402 2.99499 14.3674 2.99499 14.5V16.5C2.99499 16.6326 3.04767 16.7598 3.14144 16.8536C3.23521 16.9473 3.36238 17 3.49499 17H5.49499C5.62759 17 5.75479 16.9473 5.84856 16.8536C5.94233 16.7598 5.99499 16.6326 5.99499 16.5V14.5C5.99499 14.3674 5.94233 14.2402 5.84856 14.1465C5.75479 14.0527 5.62759 14 5.49499 14H3.49499ZM14.505 14C14.3724 14 14.2452 14.0527 14.1514 14.1465C14.0577 14.2402 14.005 14.3674 14.005 14.5V16.5C14.005 16.6326 14.0577 16.7598 14.1514 16.8536C14.2452 16.9473 14.3724 17 14.505 17H16.505C16.6376 17 16.7648 16.9473 16.8585 16.8536C16.9523 16.7598 17.005 16.6326 17.005 16.5V14.5C17.005 14.3674 16.9523 14.2402 16.8585 14.1465C16.7648 14.0527 16.6376 14 16.505 14H14.505ZM3.99499 15H4.99499V16H3.99499V15ZM15.005 15H16.005V16H15.005V15Z" fill="currentColor"/>
<path d="M9.997 5.00601C7.242 5.00601 4.997 7.25001 4.997 10.006C4.997 12.762 7.242 15.006 9.997 15.006C12.752 15.006 14.997 12.762 14.997 10.006C14.997 7.25001 12.752 5.00601 9.997 5.00601ZM9.997 6.00601C12.212 6.00601 13.997 7.79101 13.997 10.006C13.997 12.221 12.212 14.006 9.997 14.006C7.782 14.006 5.997 12.221 5.997 10.006C5.997 7.79101 7.782 6.00601 9.997 6.00601Z" fill="currentColor"/>
</svg>
