<svg width="20" height="20" viewBox="0 0 20 20" fill="none" xmlns="http://www.w3.org/2000/svg">
<path d="M16.492 2.99501C16.3622 2.99845 16.2388 3.05225 16.148 3.14501L6.148 13.145C6.10024 13.1911 6.06215 13.2463 6.03595 13.3073C6.00974 13.3683 5.99595 13.4339 5.99537 13.5003C5.9948 13.5667 6.00745 13.6325 6.03259 13.694C6.05773 13.7554 6.09486 13.8113 6.1418 13.8582C6.18875 13.9052 6.24457 13.9423 6.30602 13.9674C6.36747 13.9926 6.43331 14.0052 6.4997 14.0046C6.56609 14.0041 6.6317 13.9903 6.6927 13.9641C6.7537 13.9379 6.80888 13.8998 6.855 13.852L16.855 3.85201C16.9268 3.78172 16.9757 3.69145 16.9954 3.59296C17.0151 3.49447 17.0047 3.39232 16.9655 3.29983C16.9263 3.20734 16.8602 3.12879 16.7757 3.07442C16.6913 3.02005 16.5924 2.99238 16.492 2.99501Z" fill="currentColor"/>
<path d="M13.502 2.99799C13.3694 2.99799 13.2422 3.05066 13.1484 3.14443C13.0547 3.2382 13.002 3.36538 13.002 3.49799C13.002 3.63059 13.0547 3.75777 13.1484 3.85154C13.2422 3.94531 13.3694 3.99799 13.502 3.99799H16.002V6.49799C16.002 6.63059 16.0547 6.75777 16.1484 6.85154C16.2422 6.94531 16.3694 6.99799 16.502 6.99799C16.6346 6.99799 16.7618 6.94531 16.8556 6.85154C16.9493 6.75777 17.002 6.63059 17.002 6.49799V3.49799C17.002 3.36538 16.9493 3.2382 16.8556 3.14443C16.7618 3.05066 16.6346 2.99799 16.502 2.99799H13.502ZM8.502 7.99799C8.36939 7.99799 8.24222 8.05066 8.14845 8.14443C8.05468 8.2382 8.002 8.36538 8.002 8.49799C8.002 8.63059 8.05468 8.75777 8.14845 8.85154C8.24222 8.94531 8.36939 8.99799 8.502 8.99799H11.002V11.498C11.002 11.6306 11.0547 11.7578 11.1484 11.8515C11.2422 11.9453 11.3694 11.998 11.502 11.998C11.6346 11.998 11.7618 11.9453 11.8556 11.8515C11.9493 11.7578 12.002 11.6306 12.002 11.498V8.49799C12.002 8.36538 11.9493 8.2382 11.8556 8.14443C11.7618 8.05066 11.6346 7.99799 11.502 7.99799H8.502ZM3.502 12.998C3.36939 12.998 3.24222 13.0507 3.14845 13.1444C3.05468 13.2382 3.002 13.3654 3.002 13.498C3.002 13.6306 3.05468 13.7578 3.14845 13.8515C3.24222 13.9453 3.36939 13.998 3.502 13.998H6.002V16.498C6.002 16.6306 6.05468 16.7578 6.14845 16.8515C6.24222 16.9453 6.36939 16.998 6.502 16.998C6.63461 16.998 6.76179 16.9453 6.85555 16.8515C6.94932 16.7578 7.002 16.6306 7.002 16.498V13.498C7.002 13.3654 6.94932 13.2382 6.85555 13.1444C6.76179 13.0507 6.63461 12.998 6.502 12.998H3.502Z" fill="currentColor"/>
</svg>
