<svg width="20" height="20" viewBox="0 0 20 20" fill="none" xmlns="http://www.w3.org/2000/svg">
<path d="M9.5 4.51398C9.3674 4.51398 9.24021 4.56666 9.14644 4.66043C9.05268 4.7542 9 4.88137 9 5.01398V6.01398C9 6.14659 9.05268 6.27379 9.14644 6.36755C9.24021 6.46132 9.3674 6.51398 9.5 6.51398H10.22C11.684 8.91198 13.002 10.56 13.002 12.52C13.002 13.978 12.339 14.867 11.236 15.27C10.133 15.673 8.52 15.53 6.736 14.579C6.67779 14.5438 6.61304 14.5209 6.54569 14.5117C6.47834 14.5024 6.4098 14.507 6.34427 14.5251C6.27875 14.5433 6.2176 14.5746 6.16459 14.6171C6.11157 14.6597 6.06779 14.7126 6.03592 14.7727C6.00406 14.8327 5.98478 14.8987 5.97925 14.9664C5.97373 15.0342 5.98208 15.1024 6.0038 15.1668C6.02553 15.2312 6.06017 15.2905 6.1056 15.3411C6.15102 15.3917 6.20628 15.4325 6.26801 15.461C8.23401 16.51 10.121 16.741 11.58 16.207C13.04 15.673 14.002 14.312 14.002 12.52C14.002 10.086 12.458 8.275 11 5.87V5.01398C11 4.88137 10.9473 4.7542 10.8536 4.66043C10.7598 4.56666 10.6326 4.51398 10.5 4.51398H9.5Z" fill="currentColor"/>
<path d="M3.5 3.51398C3.36739 3.51398 3.24021 3.56666 3.14644 3.66043C3.05267 3.7542 3 3.88137 3 4.01398V6.01398C3 6.14659 3.05267 6.27379 3.14644 6.36755C3.24021 6.46132 3.36739 6.51398 3.5 6.51398H5.5C5.63261 6.51398 5.75978 6.46132 5.85355 6.36755C5.94731 6.27379 6 6.14659 6 6.01398V5.51999H7.502C8.178 5.52999 8.178 4.50999 7.502 4.51999H6V4.01398C6 3.88137 5.94731 3.7542 5.85355 3.66043C5.75978 3.56666 5.63261 3.51398 5.5 3.51398H3.5ZM14.5 3.51398C14.3674 3.51398 14.2402 3.56666 14.1464 3.66043C14.0527 3.7542 14 3.88137 14 4.01398V4.51999H12.502C11.826 4.50999 11.826 5.52999 12.502 5.51999H14V6.01398C14 6.14659 14.0527 6.27379 14.1464 6.36755C14.2402 6.46132 14.3674 6.51398 14.5 6.51398H16.5C16.6326 6.51398 16.7598 6.46132 16.8535 6.36755C16.9473 6.27379 17 6.14659 17 6.01398V4.01398C17 3.88137 16.9473 3.7542 16.8535 3.66043C16.7598 3.56666 16.6326 3.51398 16.5 3.51398H14.5ZM4 4.51398H5V5.51398H4V4.51398ZM15 4.51398H16V5.51398H15V4.51398Z" fill="currentColor"/>
</svg>
