<svg width="20" height="20" viewBox="0 0 20 20" fill="none" xmlns="http://www.w3.org/2000/svg">
<path d="M9.495 5.49698C9.36239 5.49698 9.23521 5.54966 9.14144 5.64343C9.04767 5.7372 8.995 5.86437 8.995 5.99698L8.997 6.60498C7.86884 6.83718 6.85514 7.45102 6.12658 8.34314C5.39802 9.23526 4.9991 10.3512 4.997 11.503C4.997 14.259 7.242 16.503 9.997 16.503C12.752 16.503 14.997 14.259 14.997 11.503C14.9949 10.3512 14.596 9.23526 13.8674 8.34314C13.1389 7.45102 12.1252 6.83718 10.997 6.60498L10.995 5.99698C10.995 5.86437 10.9423 5.7372 10.8485 5.64343C10.7548 5.54966 10.6276 5.49698 10.495 5.49698H9.495ZM9.997 7.50299C12.212 7.50299 13.997 9.28799 13.997 11.503C13.997 13.718 12.212 15.503 9.997 15.503C7.782 15.503 5.997 13.718 5.997 11.503C5.997 9.28799 7.782 7.50299 9.997 7.50299Z" fill="currentColor"/>
<path d="M3.495 3.49698C3.36239 3.49698 3.23521 3.54966 3.14144 3.64343C3.04767 3.7372 2.995 3.86437 2.995 3.99698V5.99698C2.995 6.12959 3.04767 6.25679 3.14144 6.35056C3.23521 6.44432 3.36239 6.49698 3.495 6.49698H5.495C5.62761 6.49698 5.75478 6.44432 5.84855 6.35056C5.94232 6.25679 5.995 6.12959 5.995 5.99698V5.50299H7.497C8.173 5.51299 8.173 4.49299 7.497 4.50299H5.995V3.99698C5.995 3.86437 5.94232 3.7372 5.84855 3.64343C5.75478 3.54966 5.62761 3.49698 5.495 3.49698H3.495ZM14.505 3.49698C14.3724 3.49698 14.2452 3.54966 14.1515 3.64343C14.0577 3.7372 14.005 3.86437 14.005 3.99698V4.50299H12.501C11.825 4.49299 11.825 5.51299 12.501 5.50299H14.005V5.99698C14.005 6.12959 14.0577 6.25679 14.1515 6.35056C14.2452 6.44432 14.3724 6.49698 14.505 6.49698H16.505C16.6376 6.49698 16.7648 6.44432 16.8586 6.35056C16.9523 6.25679 17.005 6.12959 17.005 5.99698V3.99698C17.005 3.86437 16.9523 3.7372 16.8586 3.64343C16.7648 3.54966 16.6376 3.49698 16.505 3.49698H14.505ZM3.995 4.49698H4.995V5.49698H3.995V4.49698ZM15.005 4.49698H16.005V5.49698H15.005V4.49698Z" fill="currentColor"/>
</svg>
