<svg width="20" height="20" viewBox="0 0 20 20" fill="none" xmlns="http://www.w3.org/2000/svg">
<path d="M10 4.5C9.07239 4.50211 8.18339 4.87155 7.52747 5.52747C6.87155 6.18339 6.50211 7.07239 6.5 8V9.5H6C5.86739 9.5 5.74022 9.55269 5.64645 9.64645C5.55269 9.74022 5.5 9.86739 5.5 10V15C5.5 15.1326 5.55269 15.2598 5.64645 15.3535C5.74022 15.4473 5.86739 15.5 6 15.5H14C14.1326 15.5 14.2598 15.4473 14.3535 15.3535C14.4473 15.2598 14.5 15.1326 14.5 15V10C14.5 9.86739 14.4473 9.74022 14.3535 9.64645C14.2598 9.55269 14.1326 9.5 14 9.5H13.5V8C13.5 6.073 11.927 4.5 10 4.5ZM10 5.5C11.387 5.5 12.5 6.613 12.5 8V9.5H7.5V8C7.5 6.613 8.613 5.5 10 5.5ZM9.5 11.5H10.5V13.5H9.5V12.5V11.5Z" fill="currentColor"/>
</svg>
