<svg width="20" height="20" viewBox="0 0 20 20" fill="none" xmlns="http://www.w3.org/2000/svg">
<path d="M13.7805 3.51182C13.1141 3.49913 12.4579 3.81203 11.8896 4.3803L10.6398 5.63017C10.5913 5.67607 10.5525 5.73121 10.5257 5.79235C10.4989 5.85348 10.4846 5.91938 10.4836 5.98613C10.4827 6.05288 10.4951 6.11914 10.5202 6.181C10.5453 6.24286 10.5826 6.29906 10.6297 6.3463C10.6769 6.39353 10.7331 6.43086 10.7949 6.45603C10.8568 6.4812 10.923 6.49371 10.9897 6.49286C11.0565 6.492 11.1224 6.47779 11.1836 6.45105C11.2448 6.4243 11.2999 6.38556 11.3459 6.33713L12.5966 5.08727C13.0287 4.65514 13.4084 4.50547 13.7611 4.51223C14.1129 4.519 14.4909 4.68897 14.8892 5.08727C15.2866 5.48472 15.4574 5.86274 15.4642 6.21538C15.471 6.56717 15.3204 6.9477 14.8892 7.37982L13.6384 8.62969C13.5447 8.72344 13.492 8.85059 13.492 8.98317C13.492 9.11575 13.5447 9.2429 13.6384 9.33665C13.7322 9.4304 13.8593 9.48308 13.9919 9.48308C14.1245 9.48308 14.2517 9.4304 14.3454 9.33665L15.5961 8.08678C16.1636 7.51851 16.4756 6.86228 16.4629 6.19507C16.4511 5.52869 16.1213 4.9063 15.5961 4.3803C15.0701 3.85431 14.4477 3.52365 13.7805 3.51182ZM12.9831 6.48006C12.8535 6.48356 12.7304 6.53723 12.6397 6.62974L11.389 7.88046C11.3406 7.92641 11.3019 7.98159 11.2751 8.04276C11.2484 8.10393 11.2341 8.16984 11.2333 8.2366C11.2324 8.30335 11.245 8.36958 11.2701 8.43141C11.2953 8.49325 11.3326 8.54943 11.3798 8.59661C11.4271 8.64378 11.4833 8.68101 11.5451 8.70611C11.607 8.7312 11.6733 8.74366 11.74 8.74273C11.8068 8.74179 11.8727 8.72748 11.9338 8.70066C11.9949 8.67384 12.0501 8.63505 12.096 8.58657L13.3467 7.3367C13.4188 7.26645 13.468 7.17607 13.4879 7.07739C13.5077 6.97871 13.4973 6.87632 13.458 6.78365C13.4187 6.69098 13.3523 6.61234 13.2676 6.55802C13.1828 6.5037 13.0837 6.47622 12.9831 6.4792V6.48006ZM5.987 10.4783C5.85647 10.4814 5.73233 10.5354 5.64113 10.6288L4.36166 11.8905C4.35939 11.8922 4.35714 11.8939 4.3549 11.8956C3.80269 12.4579 3.49488 13.11 3.50249 13.7746C3.5101 14.4402 3.82975 15.0702 4.35828 15.5987C4.88597 16.1272 5.52106 16.4528 6.19335 16.4613C6.8648 16.4697 7.52694 16.156 8.09606 15.5869L9.34593 14.3378C9.3942 14.2918 9.4328 14.2366 9.45943 14.1754C9.48607 14.1143 9.5002 14.0485 9.50103 13.9818C9.50187 13.9151 9.48938 13.8489 9.46428 13.7871C9.43918 13.7253 9.40197 13.6692 9.35486 13.6219C9.30776 13.5747 9.25171 13.5374 9.18998 13.5122C9.12825 13.4869 9.06208 13.4742 8.99539 13.4749C8.9287 13.4756 8.86282 13.4896 8.80161 13.5161C8.7404 13.5426 8.68511 13.581 8.63897 13.6292L7.3891 14.8799C6.95782 15.3112 6.56626 15.4659 6.20517 15.4617C5.84239 15.4566 5.46186 15.2866 5.06609 14.8917C4.67118 14.496 4.50543 14.1197 4.50205 13.7636C4.49782 13.4068 4.65172 13.0212 5.06947 12.5958L6.34303 11.34C6.41649 11.2705 6.46711 11.1803 6.48822 11.0814C6.50934 10.9825 6.49995 10.8794 6.46128 10.786C6.42261 10.6925 6.35648 10.613 6.27165 10.5579C6.18682 10.5028 6.08728 10.4747 5.98617 10.4774L5.987 10.4783ZM8.23305 11.2292C8.10341 11.2329 7.98029 11.2869 7.88971 11.3798L6.63899 12.6305C6.54524 12.7242 6.49259 12.8514 6.49259 12.984C6.49259 13.1165 6.54524 13.2437 6.63899 13.3374C6.73274 13.4312 6.85989 13.4838 6.99247 13.4838C7.12505 13.4838 7.25223 13.4312 7.34598 13.3374L8.59667 12.0867C8.66876 12.0165 8.71798 11.9261 8.73784 11.8274C8.7577 11.7287 8.7473 11.6263 8.708 11.5337C8.66871 11.441 8.60232 11.3624 8.51757 11.308C8.43283 11.2537 8.33366 11.2262 8.23305 11.2292Z" fill="currentColor"/>
<path d="M4.98704 4.478C4.88728 4.4778 4.78973 4.50746 4.70695 4.56314C4.62417 4.61882 4.55992 4.69799 4.5225 4.79047C4.48508 4.88294 4.47617 4.98449 4.49693 5.08206C4.51769 5.17964 4.56719 5.26878 4.63902 5.33801L14.7861 15.484H11.743C11.6104 15.484 11.4832 15.5367 11.3894 15.6305C11.2957 15.7242 11.243 15.8514 11.243 15.984C11.243 16.1166 11.2957 16.2438 11.3894 16.3376C11.4832 16.4313 11.6104 16.484 11.743 16.484H15.933C16.0089 16.4938 16.086 16.4861 16.1584 16.4614C16.2308 16.4368 16.2966 16.3958 16.3507 16.3417C16.4048 16.2876 16.4458 16.2218 16.4704 16.1494C16.4951 16.077 16.5028 15.9999 16.493 15.924V11.734C16.493 11.6014 16.4404 11.4742 16.3466 11.3805C16.2528 11.2867 16.1256 11.234 15.993 11.234C15.8604 11.234 15.7332 11.2867 15.6394 11.3805C15.5457 11.4742 15.493 11.6014 15.493 11.734V14.777L5.34703 4.63001C5.3003 4.5818 5.24433 4.54351 5.18248 4.5174C5.12063 4.49128 5.05418 4.47787 4.98704 4.478Z" fill="currentColor"/>
</svg>
