<svg width="20" height="20" viewBox="0 0 20 20" fill="none" xmlns="http://www.w3.org/2000/svg">
<path d="M13.764 3.52999C13.091 3.51699 12.425 3.82999 11.884 4.40799L11.646 4.64599C11.613 4.67859 11.5848 4.71561 11.562 4.75599C11.5304 4.77663 11.5012 4.80078 11.475 4.82799L10.209 6.07999C9.971 6.31599 9.769 6.56399 9.619 6.83799C9.58372 6.8958 9.56056 6.96017 9.55091 7.02719C9.54126 7.09422 9.54533 7.16251 9.56286 7.22792C9.5804 7.29332 9.61104 7.35449 9.65292 7.4077C9.69481 7.46091 9.74706 7.50506 9.80652 7.53747C9.86598 7.56987 9.9314 7.58987 9.99882 7.59623C10.0662 7.60259 10.1342 7.59519 10.1987 7.57448C10.2632 7.55377 10.3228 7.52018 10.3739 7.47575C10.425 7.43132 10.4665 7.37696 10.496 7.31599C10.585 7.15399 10.724 6.97799 10.912 6.79099L12.178 5.53699C12.2135 5.50327 12.2438 5.46452 12.268 5.42199C12.2687 5.42133 12.2693 5.42066 12.27 5.41999C12.3003 5.40074 12.3285 5.37828 12.354 5.35299L12.604 5.10299C12.6077 5.09938 12.6114 5.09572 12.615 5.09199C13.009 4.67099 13.381 4.52099 13.745 4.52699C14.107 4.53399 14.503 4.70899 14.897 5.10399C15.292 5.49899 15.464 5.88999 15.471 6.24999C15.478 6.60999 15.331 6.98399 14.906 7.38699L14.639 7.64099C14.6008 7.67671 14.5684 7.71822 14.543 7.76399C14.5119 7.78344 14.4831 7.80624 14.457 7.83199L13.207 9.08199C13.2023 9.0859 13.1976 9.08991 13.193 9.09399C13.0537 9.24763 12.8919 9.37914 12.713 9.48399C12.6558 9.5163 12.6055 9.55955 12.5651 9.61128C12.5246 9.66301 12.4947 9.72221 12.4771 9.78549C12.4595 9.84878 12.4545 9.91491 12.4625 9.98011C12.4705 10.0453 12.4912 10.1083 12.5235 10.1655C12.5558 10.2227 12.5991 10.2729 12.6508 10.3134C12.7025 10.3539 12.7617 10.3838 12.825 10.4014C12.8883 10.419 12.9544 10.4239 13.0196 10.416C13.0848 10.408 13.1478 10.3873 13.205 10.355C13.462 10.211 13.703 10.016 13.925 9.77699L15.165 8.53899C15.1984 8.50615 15.227 8.46879 15.25 8.42799C15.278 8.40966 15.3042 8.38855 15.328 8.36499L15.594 8.11299C16.17 7.56599 16.484 6.90199 16.471 6.22999C16.458 5.55999 16.132 4.92599 15.604 4.39599C15.074 3.86599 14.436 3.54199 13.764 3.52899V3.52999ZM11.99 7.49499C11.8602 7.49843 11.7368 7.55222 11.646 7.64499L7.633 11.661C7.58524 11.7071 7.54715 11.7623 7.52095 11.8233C7.49474 11.8843 7.48095 11.9499 7.48037 12.0163C7.4798 12.0827 7.49245 12.1485 7.51759 12.21C7.54273 12.2714 7.57985 12.3272 7.6268 12.3742C7.67375 12.4211 7.72957 12.4583 7.79102 12.4834C7.85247 12.5085 7.91831 12.5212 7.9847 12.5206C8.05109 12.52 8.1167 12.5062 8.1777 12.48C8.2387 12.4538 8.29387 12.4157 8.34 12.368L12.354 8.35199C12.4258 8.28164 12.4748 8.19128 12.4945 8.09268C12.5141 7.99409 12.5036 7.89186 12.4643 7.79932C12.425 7.70679 12.3587 7.62825 12.2741 7.57396C12.1895 7.51967 12.0905 7.49215 11.99 7.49499ZM7.041 9.67999C6.96236 9.6775 6.88424 9.6936 6.813 9.72699C6.46127 9.8897 6.14572 10.1213 5.885 10.408L4.646 11.646C4.6262 11.6661 4.60813 11.6878 4.592 11.711L4.406 11.887C3.83 12.434 3.516 13.098 3.529 13.77C3.542 14.44 3.868 15.075 4.396 15.604C4.926 16.134 5.564 16.458 6.236 16.471C6.909 16.483 7.575 16.171 8.116 15.591L8.354 15.354C8.37626 15.3316 8.39635 15.3072 8.414 15.281C8.41534 15.2797 8.41667 15.2783 8.418 15.277L9.602 14.105C9.882 13.829 10.112 13.535 10.264 13.201C10.2953 13.1409 10.314 13.075 10.319 13.0075C10.324 12.9399 10.3153 12.872 10.2932 12.8079C10.2712 12.7438 10.2364 12.6849 10.1909 12.6347C10.1454 12.5845 10.0902 12.544 10.0286 12.5158C9.96703 12.4876 9.90033 12.4722 9.8326 12.4705C9.76486 12.4688 9.69749 12.481 9.63459 12.5062C9.57168 12.5313 9.51455 12.569 9.46666 12.617C9.41877 12.6649 9.38112 12.7221 9.356 12.785C9.27 12.971 9.12 13.175 8.898 13.395L7.633 14.648C7.6081 14.6713 7.58565 14.6971 7.566 14.725C7.56465 14.727 7.56332 14.729 7.562 14.731L7.396 14.897C7.39227 14.9006 7.38861 14.9043 7.385 14.908C6.991 15.329 6.619 15.479 6.255 15.473C5.893 15.466 5.497 15.291 5.103 14.897C4.708 14.501 4.536 14.11 4.529 13.75C4.522 13.39 4.669 13.016 5.094 12.613L5.361 12.359C5.38891 12.3329 5.41374 12.3037 5.435 12.272L6.603 11.104C6.60707 11.1001 6.61107 11.0961 6.615 11.092C6.821 10.872 7.025 10.726 7.221 10.639C7.32591 10.5944 7.41246 10.5154 7.4663 10.4149C7.52014 10.3145 7.53804 10.1986 7.51703 10.0866C7.49603 9.97458 7.43738 9.8731 7.3508 9.79896C7.26423 9.72483 7.15492 9.6825 7.041 9.67899V9.67999Z" fill="currentColor"/>
</svg>
