<svg width="20" height="20" viewBox="0 0 20 20" fill="none" xmlns="http://www.w3.org/2000/svg">
<path d="M9.997 4.50201C9.86708 4.50387 9.74298 4.55624 9.651 4.64801L4.651 9.64601C4.55727 9.73978 4.50461 9.86693 4.50461 9.99952C4.50461 10.1321 4.55727 10.2593 4.651 10.353L9.651 15.353C9.74468 15.4461 9.87141 15.4984 10.0035 15.4984C10.1356 15.4984 10.2623 15.4461 10.356 15.353L15.348 10.375C15.442 10.2815 15.495 10.1545 15.4954 10.0219C15.4958 9.88935 15.4435 9.76204 15.35 9.66802L10.358 4.64801C10.3107 4.60077 10.2543 4.5635 10.1923 4.53843C10.1303 4.51335 10.0639 4.50097 9.997 4.50201ZM10.003 5.70901L14.29 10.019L10.004 14.293L5.711 10L10.003 5.70901Z" fill="currentColor"/>
</svg>
