<svg width="20" height="20" viewBox="0 0 20 20" fill="none" xmlns="http://www.w3.org/2000/svg">
<path d="M11.983 13.781L9.84502 11.642C9.75113 11.5481 9.62379 11.4954 9.49101 11.4954C9.35824 11.4954 9.2309 11.5481 9.13701 11.642C9.04312 11.7359 8.99037 11.8632 8.99037 11.996C8.99037 12.1288 9.04312 12.2561 9.13701 12.35L12.073 15.283L12.081 15.293C12.1387 15.3733 12.2189 15.4346 12.3114 15.4693C12.404 15.504 12.5048 15.5105 12.601 15.488C12.721 15.4625 12.8274 15.3938 12.9 15.295L15.845 12.349C16.335 11.879 15.609 11.152 15.138 11.642L12.984 13.797L12.991 8.996C12.991 6.516 10.971 4.496 8.49101 4.496C6.01101 4.496 3.99101 6.516 3.99101 8.996V14.996C3.98101 15.672 5.00101 15.672 4.99101 14.996V8.996C4.99101 7.057 6.55201 5.496 8.49101 5.496C8.95081 5.49508 9.40626 5.58493 9.83125 5.76044C10.2562 5.93594 10.6424 6.19362 10.9676 6.51871C11.2928 6.84379 11.5506 7.22988 11.7262 7.65482C11.9018 8.07976 11.9918 8.53519 11.991 8.995L11.983 13.781Z" fill="currentColor"/>
</svg>
