<svg width="20" height="20" viewBox="0 0 20 20" fill="none" xmlns="http://www.w3.org/2000/svg">
<path d="M9.997 4.5C9.86694 4.50213 9.74282 4.55486 9.651 4.647L4.651 9.647C4.55727 9.74076 4.50461 9.86792 4.50461 10.0005C4.50461 10.1331 4.55727 10.2602 4.651 10.354L9.651 15.354C9.74468 15.4471 9.87141 15.4994 10.0035 15.4994C10.1356 15.4994 10.2623 15.4471 10.356 15.354L15.348 10.376C15.442 10.2825 15.495 10.1555 15.4954 10.0229C15.4958 9.89033 15.4435 9.76303 15.35 9.669L10.358 4.647C10.3107 4.59975 10.2543 4.56249 10.1923 4.53741C10.1303 4.51233 10.0639 4.49995 9.997 4.501V4.5Z" fill="currentColor"/>
</svg>
