<svg width="20" height="20" viewBox="0 0 20 20" fill="none" xmlns="http://www.w3.org/2000/svg">
<path d="M6.5 4.5C5.57239 4.50211 4.68338 4.87154 4.02746 5.52746C3.37154 6.18338 3.00211 7.07239 3 8V8.5H4V8C4 6.613 5.113 5.5 6.5 5.5C7.887 5.5 9 6.613 9 8V9.5H8.5C8.36739 9.5 8.24021 9.55268 8.14645 9.64645C8.05268 9.74021 8 9.86739 8 10V15C8 15.1326 8.05268 15.2598 8.14645 15.3536C8.24021 15.4473 8.36739 15.5 8.5 15.5H16.5C16.6326 15.5 16.7598 15.4473 16.8536 15.3536C16.9473 15.2598 17 15.1326 17 15V10C17 9.86739 16.9473 9.74021 16.8536 9.64645C16.7598 9.55268 16.6326 9.5 16.5 9.5H10V8C10 6.073 8.427 4.5 6.5 4.5ZM9 10.5H16V14.5H9V10.5ZM12 11.5H13V13.5H12V11.5Z" fill="currentColor"/>
</svg>
