<svg width="20" height="20" viewBox="0 0 20 20" fill="none" xmlns="http://www.w3.org/2000/svg">
<path d="M10 3C6.14 3 3 6.14 3 10C3 13.86 6.14 17 10 17C13.86 17 17 13.86 17 10C17 6.14 13.86 3 10 3ZM13.48 5.234C13.5977 5.2368 13.7107 5.28107 13.799 5.359C14.4131 5.86132 14.9215 6.4805 15.2947 7.18067C15.6679 7.88085 15.8984 8.6481 15.973 9.438C15.9805 9.50747 15.9735 9.57774 15.9522 9.6443C15.9309 9.71085 15.8959 9.77221 15.8494 9.82441C15.803 9.87661 15.7461 9.91849 15.6825 9.94736C15.6188 9.97622 15.5499 9.99143 15.48 9.992C15.3539 9.99266 15.2321 9.94562 15.1392 9.86031C15.0463 9.775 14.9891 9.65773 14.979 9.532C14.9168 8.8735 14.7245 8.2339 14.4133 7.65026C14.1021 7.06663 13.6781 6.55057 13.166 6.132C13.0819 6.06808 13.0201 5.97915 12.9897 5.87797C12.9592 5.7768 12.9616 5.66857 12.9965 5.56883C13.0314 5.46909 13.0969 5.38297 13.1838 5.32281C13.2707 5.26265 13.3744 5.23156 13.48 5.234ZM12.47 7.018C12.5369 7.0184 12.6031 7.03223 12.6646 7.05868C12.7261 7.08514 12.7817 7.12367 12.828 7.172C13.4348 7.7783 13.8306 8.56359 13.957 9.412C13.9683 9.48102 13.965 9.55165 13.9474 9.61932C13.9297 9.68699 13.898 9.7502 13.8544 9.80486C13.8107 9.85952 13.7561 9.90442 13.694 9.93666C13.632 9.96889 13.5638 9.98775 13.494 9.992C13.3677 9.99994 13.243 9.95967 13.1452 9.87931C13.0474 9.79895 12.9837 9.68448 12.967 9.559C12.8727 8.9227 12.576 8.33366 12.121 7.879C12.0487 7.80971 11.9989 7.72031 11.9779 7.62237C11.957 7.52443 11.966 7.42247 12.0037 7.32969C12.0415 7.23692 12.1062 7.15761 12.1895 7.10203C12.2728 7.04646 12.3709 7.01718 12.471 7.018H12.47ZM10 8C11.099 8 12 8.901 12 10C12 11.099 11.099 12 10 12C8.901 12 8 11.099 8 10C8 8.901 8.901 8 10 8ZM4.486 9.99C4.50299 9.98913 4.52001 9.98913 4.537 9.99C4.66343 9.99395 4.78366 10.0457 4.87347 10.1347C4.96329 10.2238 5.016 10.3436 5.021 10.47C5.08319 11.1285 5.27546 11.7681 5.58668 12.3517C5.89789 12.9354 6.32186 13.4514 6.834 13.87C6.91537 13.9344 6.97468 14.0226 7.00369 14.1222C7.0327 14.2219 7.02998 14.3281 6.99591 14.4261C6.96184 14.5242 6.8981 14.6092 6.81354 14.6694C6.72898 14.7295 6.62779 14.7619 6.524 14.762C6.40552 14.7615 6.29105 14.719 6.201 14.642C5.58708 14.1399 5.07884 13.521 4.70567 12.8212C4.33251 12.1214 4.10183 11.3546 4.027 10.565C4.01646 10.4966 4.02023 10.4267 4.03809 10.3599C4.05594 10.293 4.08749 10.2305 4.13073 10.1765C4.17397 10.1224 4.22796 10.0779 4.28929 10.0458C4.35062 10.0137 4.41794 9.99473 4.487 9.99H4.486ZM6.551 10.014C6.66892 10.017 6.78197 10.0616 6.87018 10.14C6.95838 10.2183 7.01605 10.3253 7.033 10.442C7.128 11.078 7.423 11.667 7.879 12.122C7.95048 12.1913 7.99964 12.2803 8.0202 12.3777C8.04076 12.4752 8.03177 12.5765 7.99439 12.6687C7.95701 12.761 7.89294 12.84 7.81039 12.8956C7.72783 12.9513 7.63055 12.981 7.531 12.981C7.46386 12.9811 7.39739 12.9677 7.33554 12.9416C7.27369 12.9155 7.21773 12.8772 7.171 12.829C6.56459 12.2226 6.16915 11.4373 6.043 10.589C6.032 10.5167 6.03701 10.4428 6.05767 10.3726C6.07834 10.3024 6.11416 10.2376 6.1626 10.1828C6.21105 10.1279 6.27094 10.0844 6.33805 10.0552C6.40516 10.0261 6.47786 10.012 6.551 10.014Z" fill="currentColor"/>
</svg>
