<svg width="20" height="20" viewBox="0 0 20 20" fill="none" xmlns="http://www.w3.org/2000/svg">
<path d="M10 13H11V15H10V13ZM8 13H9V15H8V13ZM6 13H7V15H6V13ZM5.53699 3C4.69399 3 4 3.694 4 4.537V15.463C4 16.306 4.69399 17 5.53699 17H14.463C14.8698 16.9974 15.2593 16.8346 15.5469 16.5469C15.8346 16.2593 15.9974 15.8698 16 15.463V4.537C16 3.694 15.306 3 14.463 3H5.53699ZM5.53699 12H14.463C14.769 12 15 12.231 15 12.537V15.463C15.0015 15.5339 14.9886 15.6044 14.9622 15.6703C14.9357 15.7361 14.8962 15.7959 14.8461 15.8461C14.7959 15.8962 14.7361 15.9357 14.6703 15.9622C14.6045 15.9886 14.5339 16.0015 14.463 16H5.53699C5.46606 16.0015 5.39554 15.9886 5.32971 15.9622C5.26388 15.9357 5.2041 15.8962 5.15393 15.8461C5.10376 15.7959 5.0643 15.7361 5.03784 15.6703C5.01139 15.6044 4.9985 15.5339 5 15.463V12.537C5 12.231 5.23099 12 5.53699 12Z" fill="currentColor"/>
</svg>
