<svg width="20" height="20" viewBox="0 0 20 20" fill="none" xmlns="http://www.w3.org/2000/svg">
<path d="M5.995 7.49799C5.89507 7.49739 5.79725 7.52675 5.71416 7.58227C5.63108 7.6378 5.56653 7.71695 5.52886 7.80951C5.49119 7.90207 5.48212 8.0038 5.50282 8.10156C5.52352 8.19933 5.57305 8.28865 5.645 8.35799L9.645 12.358C9.69145 12.4046 9.74662 12.4415 9.80737 12.4667C9.86811 12.4919 9.93323 12.5049 9.999 12.5049C10.0648 12.5049 10.1299 12.4919 10.1906 12.4667C10.2514 12.4415 10.3066 12.4046 10.353 12.358L14.353 8.35799C14.4469 8.26424 14.4997 8.13703 14.4998 8.00435C14.4999 7.87167 14.4473 7.74438 14.3535 7.65049C14.2597 7.55661 14.1325 7.50381 13.9999 7.50372C13.8672 7.50362 13.7399 7.55624 13.646 7.64999L9.999 11.297L6.353 7.64999C6.30651 7.60203 6.25087 7.56387 6.18939 7.53776C6.1279 7.51165 6.0618 7.49813 5.995 7.49799Z" fill="currentColor"/>
</svg>
