<svg width="20" height="20" viewBox="0 0 20 20" fill="none" xmlns="http://www.w3.org/2000/svg">
<path d="M3.99199 3.49201C3.92633 3.49305 3.86152 3.50699 3.80126 3.53309C3.74099 3.55918 3.68646 3.59693 3.64077 3.64411C3.59508 3.69128 3.55912 3.74698 3.53496 3.80805C3.51081 3.86912 3.49893 3.93434 3.49999 4V15.92C3.48844 15.9915 3.49256 16.0646 3.51207 16.1344C3.53159 16.2042 3.56602 16.2688 3.613 16.324C3.61816 16.3308 3.62348 16.3375 3.62899 16.344C3.63452 16.3498 3.64018 16.3555 3.64599 16.361C3.64732 16.3617 3.64865 16.3623 3.64998 16.363C3.66081 16.3742 3.67215 16.3849 3.68398 16.395C3.68531 16.3957 3.68664 16.3963 3.68798 16.397C3.74275 16.4408 3.80613 16.4727 3.87401 16.4904C3.94189 16.5082 4.01277 16.5114 4.08199 16.5H16C16.1326 16.5 16.2598 16.4473 16.3535 16.3536C16.4473 16.2598 16.5 16.1326 16.5 16C16.5 15.8674 16.4473 15.7402 16.3535 15.6464C16.2598 15.5527 16.1326 15.5 16 15.5H4.49999V4C4.50107 3.93299 4.48867 3.86645 4.46352 3.80433C4.43837 3.7422 4.40099 3.68576 4.3536 3.63837C4.30621 3.59098 4.24979 3.55359 4.18767 3.52845C4.12555 3.5033 4.059 3.49093 3.99199 3.49201ZM5.94198 6.57801C5.80937 6.57801 5.6822 6.63066 5.58843 6.72443C5.49466 6.8182 5.44198 6.9454 5.44198 7.07801C5.44198 7.21062 5.49466 7.33782 5.58843 7.43158C5.6822 7.52535 5.80937 7.57801 5.94198 7.57801H6.94198C7.07458 7.57801 7.20178 7.52535 7.29555 7.43158C7.38932 7.33782 7.44198 7.21062 7.44198 7.07801C7.44198 6.9454 7.38932 6.8182 7.29555 6.72443C7.20178 6.63066 7.07458 6.57801 6.94198 6.57801H5.94198ZM9.22698 7.28803C9.11051 7.28716 8.9974 7.32695 8.90716 7.40058C8.81691 7.47421 8.75521 7.57702 8.73269 7.69129C8.71016 7.80556 8.72825 7.92413 8.7838 8.02649C8.83936 8.12886 8.92889 8.20863 9.03698 8.25202L10.037 8.66803C10.098 8.69654 10.1643 8.71239 10.2316 8.71466C10.299 8.71694 10.3661 8.70554 10.4289 8.68122C10.4918 8.65689 10.5491 8.62015 10.5973 8.57312C10.6456 8.5261 10.6839 8.46979 10.7099 8.4076C10.7358 8.34541 10.749 8.27858 10.7485 8.21119C10.748 8.1438 10.7338 8.07724 10.7069 8.01545C10.68 7.95365 10.6409 7.89793 10.592 7.85163C10.543 7.80533 10.4852 7.76936 10.422 7.74598L9.42199 7.32801C9.36032 7.30174 9.294 7.28816 9.22698 7.28803ZM11.805 9.28302C11.7222 9.28356 11.6409 9.3046 11.5683 9.3443C11.4957 9.38401 11.4341 9.44112 11.389 9.5105C11.3439 9.57988 11.3167 9.65936 11.3099 9.74183C11.3031 9.82429 11.3169 9.90714 11.35 9.98298L11.768 10.983C11.819 11.1054 11.9166 11.2025 12.0393 11.2529C12.1619 11.3034 12.2996 11.3031 12.422 11.252C12.5444 11.201 12.6415 11.1034 12.6919 10.9807C12.7424 10.8581 12.7421 10.7204 12.691 10.598L12.273 9.59803C12.2358 9.50452 12.1712 9.42437 12.0877 9.36817C12.0042 9.31197 11.9056 9.28232 11.805 9.28302ZM12.971 12.533C12.8387 12.5351 12.7127 12.5896 12.6205 12.6844C12.5283 12.7792 12.4774 12.9067 12.479 13.039V14.039C12.479 14.1716 12.5317 14.2988 12.6254 14.3926C12.7192 14.4864 12.8464 14.539 12.979 14.539C13.1116 14.539 13.2388 14.4864 13.3325 14.3926C13.4263 14.2988 13.479 14.1716 13.479 14.039V13.039C13.4798 12.9722 13.4672 12.9058 13.4419 12.8439C13.4167 12.782 13.3792 12.7259 13.3319 12.6787C13.2845 12.6315 13.2282 12.5943 13.1662 12.5693C13.1042 12.5443 13.0378 12.5319 12.971 12.533Z" fill="currentColor"/>
</svg>
