<svg width="20" height="20" viewBox="0 0 20 20" fill="none" xmlns="http://www.w3.org/2000/svg">
<path d="M13.603 3.00299C13.4835 3.00288 13.3666 3.03849 13.2675 3.10522C13.1683 3.17196 13.0913 3.26679 13.0464 3.37756C13.0015 3.48834 12.9907 3.60997 13.0154 3.72693C13.0401 3.84389 13.0991 3.95084 13.185 4.034L15.972 6.82098C16.0847 6.9337 16.2376 6.99701 16.397 6.99701C16.5564 6.99701 16.7093 6.9337 16.822 6.82098C16.9347 6.70827 16.998 6.5554 16.998 6.396C16.998 6.23659 16.9347 6.08373 16.822 5.97101L14.034 3.185C13.978 3.12734 13.911 3.0815 13.837 3.05023C13.7629 3.01897 13.6834 3.00292 13.603 3.00299ZM13.491 5.89801C13.3354 5.90261 13.1877 5.96748 13.079 6.07898L12.079 7.07898C12.0201 7.13391 11.9728 7.20014 11.94 7.27374C11.9072 7.34734 11.8896 7.42682 11.8881 7.50739C11.8867 7.58795 11.9015 7.66797 11.9317 7.74268C11.9619 7.81739 12.0068 7.88523 12.0638 7.9422C12.1208 7.99918 12.1886 8.0441 12.2633 8.07428C12.338 8.10446 12.4181 8.11928 12.4986 8.11786C12.5792 8.11644 12.6586 8.09883 12.7322 8.06604C12.8058 8.03325 12.8721 7.98595 12.927 7.927L13.927 6.927C14.0137 6.84273 14.0729 6.73424 14.0969 6.61572C14.1209 6.49721 14.1085 6.37417 14.0614 6.26282C14.0142 6.15147 13.9346 6.05698 13.8328 5.9917C13.731 5.92642 13.6119 5.89338 13.491 5.89697V5.89801ZM10.491 8.89801C10.3354 8.90261 10.1877 8.96748 10.079 9.07898L9.07901 10.079C9.02006 10.1339 8.97278 10.2001 8.93999 10.2737C8.90719 10.3473 8.88956 10.4268 8.88814 10.5074C8.88672 10.5879 8.90152 10.668 8.9317 10.7427C8.96188 10.8174 9.00681 10.8852 9.06378 10.9422C9.12076 10.9992 9.18861 11.0441 9.26332 11.0743C9.33803 11.1045 9.41806 11.1193 9.49863 11.1179C9.57919 11.1164 9.65864 11.0988 9.73224 11.066C9.80584 11.0332 9.87207 10.986 9.927 10.927L10.927 9.927C11.0137 9.84273 11.0729 9.73424 11.0969 9.61572C11.1209 9.49721 11.1085 9.37417 11.0614 9.26282C11.0142 9.15147 10.9346 9.05698 10.8328 8.9917C10.731 8.92642 10.6119 8.89338 10.491 8.89697V8.89801ZM7.49101 11.898C7.3354 11.9026 7.18766 11.9675 7.07901 12.079L6.07901 13.079C6.02006 13.1339 5.97278 13.2001 5.93999 13.2737C5.90719 13.3473 5.88956 13.4268 5.88814 13.5074C5.88672 13.5879 5.90152 13.668 5.9317 13.7427C5.96188 13.8174 6.00681 13.8852 6.06378 13.9422C6.12076 13.9992 6.18861 14.0441 6.26332 14.0743C6.33803 14.1045 6.41806 14.1193 6.49863 14.1179C6.57919 14.1164 6.65864 14.0988 6.73224 14.066C6.80584 14.0332 6.87207 13.986 6.927 13.927L7.927 12.927C8.01371 12.8427 8.07293 12.7342 8.09691 12.6157C8.12088 12.4972 8.10851 12.3742 8.06137 12.2628C8.01424 12.1515 7.93456 12.057 7.83278 11.9917C7.731 11.9264 7.61187 11.8934 7.49101 11.897V11.898ZM3.60301 13.003C3.48348 13.0029 3.36663 13.0385 3.26746 13.1052C3.16828 13.172 3.0913 13.2668 3.04639 13.3776C3.00147 13.4883 2.99067 13.61 3.01537 13.7269C3.04006 13.8439 3.09915 13.9508 3.18501 14.034L5.972 16.821C6.08472 16.9337 6.2376 16.997 6.397 16.997C6.55641 16.997 6.70929 16.9337 6.82201 16.821C6.93472 16.7083 6.99805 16.5554 6.99805 16.396C6.99805 16.2366 6.93472 16.0837 6.82201 15.971L4.03401 13.185C3.97802 13.1273 3.91101 13.0815 3.83697 13.0502C3.76294 13.019 3.68338 13.0029 3.60301 13.003Z" fill="currentColor"/>
</svg>
