<svg width="20" height="20" viewBox="0 0 20 20" fill="none" xmlns="http://www.w3.org/2000/svg">
<path d="M13 11.9999V16.9999H17V11.9999H13Z" fill="currentColor"/>
<path d="M8.74997 5.00299V6.00299H11C11.423 6.00299 11.7401 6.25004 11.8821 6.57904C12.0241 6.90904 12.007 7.29004 11.64 7.65704L7.63999 11.657C7.00699 12.29 6.89704 13.163 7.19004 13.835C7.34398 14.1849 7.59643 14.4824 7.9166 14.6912C8.23676 14.9 8.61077 15.0112 8.99301 15.011L11.999 14.999V13.999L8.99399 14.011C8.8057 14.0138 8.62091 13.9604 8.46298 13.8578C8.30505 13.7553 8.18114 13.6081 8.10703 13.435C7.96303 13.107 7.98002 12.7319 8.34702 12.3649L12.347 8.36493C12.98 7.73193 13.092 6.85704 12.8 6.18304C12.6475 5.83243 12.3959 5.5339 12.0761 5.32428C11.7564 5.11466 11.3823 5.00301 11 5.00299H8.74997Z" fill="currentColor"/>
<path d="M5.50295 2.99994C5.40943 2.99952 5.31762 3.02534 5.23793 3.07428C5.15825 3.12322 5.09381 3.19344 5.0519 3.27704L3.0519 7.27704C3.01416 7.35319 2.9965 7.43763 3.00051 7.52252C3.00451 7.60742 3.03011 7.68988 3.07485 7.76215C3.11959 7.83441 3.18204 7.89417 3.25624 7.93561C3.33045 7.97704 3.41393 7.99879 3.49892 7.99896H7.49892C7.58391 7.99879 7.66751 7.97704 7.74172 7.93561C7.81592 7.89417 7.87825 7.83441 7.92299 7.76215C7.96773 7.68988 7.99333 7.60742 7.99733 7.52252C8.00134 7.43763 7.98368 7.35319 7.94594 7.27704L5.94594 3.27704C5.90496 3.19432 5.84188 3.12457 5.76369 3.0755C5.6855 3.02643 5.59526 2.99989 5.50295 2.99896V2.99994Z" fill="currentColor"/>
</svg>
