<svg width="20" height="20" viewBox="0 0 20 20" fill="none" xmlns="http://www.w3.org/2000/svg">
<path d="M3.5 17C3.36739 17 3.24022 16.9473 3.14645 16.8535C3.05269 16.7598 3 16.6326 3 16.5V6.5C3 6.36739 3.05269 6.24022 3.14645 6.14645C3.24022 6.05269 3.36739 6 3.5 6H6V7H4V16H13V14H14V16.5C14 16.6326 13.9473 16.7598 13.8535 16.8535C13.7598 16.9473 13.6326 17 13.5 17H3.5Z" fill="currentColor"/>
<path d="M7.5 3C7.36739 3 7.24022 3.05269 7.14645 3.14645C7.05269 3.24022 7 3.36739 7 3.5V12.5C7 12.6326 7.05269 12.7598 7.14645 12.8535C7.24022 12.9473 7.36739 13 7.5 13H16.5C16.6326 13 16.7598 12.9473 16.8535 12.8535C16.9473 12.7598 17 12.6326 17 12.5V8H16V12H8V4H13V6.5C13 6.63261 13.0527 6.75978 13.1465 6.85355C13.2402 6.94731 13.3674 7 13.5 7H17V6.5C17 6.43423 16.987 6.3691 16.9618 6.30835C16.9365 6.2476 16.8996 6.19243 16.853 6.146L13.853 3.146C13.7593 3.05253 13.6324 3.00003 13.5 3H7.5Z" fill="currentColor"/>
</svg>
