<svg width="20" height="20" viewBox="0 0 20 20" fill="none" xmlns="http://www.w3.org/2000/svg">
<path d="M12.507 16.496C12.507 16.6286 12.4543 16.7558 12.3605 16.8496C12.2668 16.9433 12.1396 16.996 12.007 16.996H10.007C9.87438 16.996 9.74721 16.9433 9.65344 16.8496C9.55967 16.7558 9.50699 16.6286 9.50699 16.496V7.496C9.50699 7.36339 9.55967 7.23622 9.65344 7.14245C9.74721 7.04868 9.87438 6.996 10.007 6.996H12.007C12.1396 6.996 12.2668 7.04868 12.3605 7.14245C12.4543 7.23622 12.507 7.36339 12.507 7.496V16.496Z" fill="currentColor"/>
<path d="M16.5 12.503C16.5 12.5688 16.487 12.6339 16.4618 12.6947C16.4365 12.7554 16.3996 12.8106 16.353 12.857L14.361 14.849C13.89 15.34 13.163 14.613 13.654 14.142L15.5 12.296V4.00301H7.207L4.5 6.71101V15.002L8.50699 14.995L8.509 15.995L4.002 16.002C3.93617 16.0023 3.87094 15.9895 3.81004 15.9645C3.74915 15.9395 3.6938 15.9027 3.64716 15.8563C3.60051 15.8098 3.56351 15.7546 3.53825 15.6938C3.513 15.633 3.5 15.5678 3.5 15.502V6.50201C3.50003 6.36966 3.55253 6.24271 3.646 6.14901L6.646 3.14901C6.69243 3.10243 6.7476 3.06547 6.80835 3.04024C6.86909 3.01502 6.93423 3.00202 7 3.00201H16C16.1326 3.00201 16.2598 3.05469 16.3535 3.14846C16.4473 3.24222 16.5 3.3694 16.5 3.50201V12.503Z" fill="currentColor"/>
</svg>
