<svg width="20" height="20" viewBox="0 0 20 20" fill="none" xmlns="http://www.w3.org/2000/svg">
<path d="M16.5 3C16.6326 3 16.7598 3.05269 16.8535 3.14645C16.9473 3.24022 17 3.36739 17 3.5V7.5C17 7.63261 16.9473 7.75978 16.8535 7.85355C16.7598 7.94731 16.6326 8 16.5 8H12.5C12.3674 8 12.2402 7.94731 12.1465 7.85355C12.0527 7.75978 12 7.63261 12 7.5V3.5C12 3.36739 12.0527 3.24022 12.1465 3.14645C12.2402 3.05269 12.3674 3 12.5 3H16.5Z" fill="currentColor"/>
<path d="M16 16.5C16 16.6326 15.9473 16.7598 15.8535 16.8536C15.7598 16.9473 15.6326 17 15.5 17H12.5C12.3674 17 12.2402 16.9473 12.1465 16.8536C12.0527 16.7598 12 16.6326 12 16.5V15.992H7V16.5C7 16.6326 6.94731 16.7598 6.85355 16.8536C6.75978 16.9473 6.63261 17 6.5 17H3.5C3.36739 17 3.24022 16.9473 3.14645 16.8536C3.05269 16.7598 3 16.6326 3 16.5V13.5C3 13.3674 3.05269 13.2402 3.14645 13.1464C3.24022 13.0527 3.36739 13 3.5 13H4V8H3.5C3.36739 8 3.24022 7.94734 3.14645 7.85358C3.05269 7.75981 3 7.63261 3 7.5V4.5C3 4.36739 3.05269 4.24019 3.14645 4.14642C3.24022 4.05266 3.36739 4 3.5 4H6.5C6.63261 4 6.75978 4.05266 6.85355 4.14642C6.94731 4.24019 7 4.36739 7 4.5V4.992H10.5C10.6326 4.992 10.7598 5.04466 10.8535 5.13843C10.9473 5.2322 11 5.3594 11 5.492C11 5.62461 10.9473 5.75181 10.8535 5.84558C10.7598 5.93935 10.6326 5.992 10.5 5.992H7V7.5C7 7.63261 6.94731 7.75981 6.85355 7.85358C6.75978 7.94734 6.63261 8 6.5 8H5V13H6.5C6.63261 13 6.75978 13.0527 6.85355 13.1464C6.94731 13.2402 7 13.3674 7 13.5V14.992H12V13.5C12 13.3674 12.0527 13.2402 12.1465 13.1464C12.2402 13.0527 12.3674 13 12.5 13H14V9.5C14 9.36739 14.0527 9.24019 14.1465 9.14642C14.2402 9.05266 14.3674 9 14.5 9C14.6326 9 14.7598 9.05266 14.8535 9.14642C14.9473 9.24019 15 9.36739 15 9.5V13H15.5C15.6326 13 15.7598 13.0527 15.8535 13.1464C15.9473 13.2402 16 13.3674 16 13.5V16.5ZM15 16V14H13V15.414C13.0086 15.467 13.0086 15.521 13 15.574V16H15ZM6 16V14H4V16H6ZM6 7V5H4V7H6Z" fill="currentColor"/>
</svg>
