<svg width="20" height="20" viewBox="0 0 20 20" fill="none" xmlns="http://www.w3.org/2000/svg">
<path d="M7.492 2.99298C7.35956 2.99509 7.23337 3.04966 7.14113 3.14472C7.04888 3.23977 6.99813 3.36754 7 3.49998V12.293L3.146 16.147C3.09824 16.1931 3.06015 16.2483 3.03395 16.3093C3.00774 16.3703 2.99395 16.4359 2.99337 16.5023C2.9928 16.5687 3.00545 16.6345 3.03059 16.696C3.05573 16.7574 3.09285 16.8132 3.1398 16.8602C3.18675 16.9071 3.24257 16.9443 3.30402 16.9694C3.36547 16.9945 3.43131 17.0072 3.4977 17.0066C3.56409 17.006 3.6297 16.9922 3.6907 16.966C3.7517 16.9398 3.80688 16.9017 3.853 16.854L7.707 13H16.5C16.6326 13 16.7598 12.9473 16.8536 12.8535C16.9473 12.7598 17 12.6326 17 12.5C17 12.3674 16.9473 12.2402 16.8536 12.1464C16.7598 12.0527 16.6326 12 16.5 12H8V3.49998C8.00094 3.43306 7.98844 3.36662 7.96324 3.30462C7.93803 3.24261 7.90063 3.1863 7.85325 3.13902C7.80588 3.09174 7.74949 3.05445 7.68744 3.02936C7.62538 3.00428 7.55892 2.99191 7.492 2.99298Z" fill="currentColor"/>
</svg>
