<svg width="20" height="20" viewBox="0 0 20 20" fill="none" xmlns="http://www.w3.org/2000/svg">
<path d="M7.49201 2.99999C7.36209 3.00185 7.23798 3.05421 7.146 3.14598L5.146 5.14598C5.05211 5.23987 4.99938 5.36721 4.99938 5.49999C4.99938 5.63276 5.05211 5.7601 5.146 5.85399C5.23989 5.94788 5.36723 6.00063 5.5 6.00063C5.63278 6.00063 5.76012 5.94788 5.85401 5.85399L7 4.70699V12.293L4 15.293V13.5C4.00108 13.433 3.98868 13.3664 3.96354 13.3043C3.93839 13.2422 3.90102 13.1857 3.85363 13.1384C3.80624 13.091 3.74979 13.0536 3.68767 13.0285C3.62555 13.0033 3.55902 12.9909 3.49201 12.992C3.42634 12.993 3.36152 13.007 3.30126 13.0331C3.24099 13.0592 3.18647 13.0969 3.14078 13.1441C3.09509 13.1912 3.05915 13.247 3.03499 13.308C3.01084 13.3691 2.99894 13.4343 3 13.5V16.5C3 16.6326 3.05269 16.7598 3.14646 16.8535C3.24023 16.9473 3.3674 17 3.5 17H6.5C6.63261 17 6.75978 16.9473 6.85355 16.8535C6.94732 16.7598 7 16.6326 7 16.5C7 16.3674 6.94732 16.2402 6.85355 16.1464C6.75978 16.0527 6.63261 16 6.5 16H4.707L7.707 13H15.293L14.146 14.146C14.0995 14.1925 14.0626 14.2477 14.0375 14.3084C14.0123 14.3691 13.9994 14.4342 13.9994 14.5C13.9994 14.5657 14.0123 14.6308 14.0375 14.6916C14.0626 14.7523 14.0995 14.8075 14.146 14.854C14.1925 14.9005 14.2477 14.9374 14.3084 14.9625C14.3692 14.9877 14.4343 15.0006 14.5 15.0006C14.5657 15.0006 14.6309 14.9877 14.6916 14.9625C14.7523 14.9374 14.8075 14.9005 14.854 14.854L16.854 12.854C16.9006 12.8075 16.9375 12.7524 16.9627 12.6916C16.9879 12.6309 17.0009 12.5658 17.0009 12.5C17.0009 12.4342 16.9879 12.3691 16.9627 12.3084C16.9375 12.2476 16.9006 12.1924 16.854 12.146L14.854 10.146C14.8073 10.0978 14.7513 10.0595 14.6895 10.0334C14.6276 10.0073 14.5611 9.99384 14.494 9.99397C14.3942 9.99377 14.2967 10.0234 14.2139 10.0791C14.1312 10.1348 14.0669 10.214 14.0295 10.3064C13.9921 10.3989 13.9832 10.5005 14.0039 10.598C14.0247 10.6956 14.0742 10.7848 14.146 10.854L15.293 12H8V4.70699L9.146 5.85399C9.23989 5.94788 9.36723 6.00063 9.5 6.00063C9.63278 6.00063 9.76012 5.94788 9.85401 5.85399C9.94789 5.7601 10.0006 5.63276 10.0006 5.49999C10.0006 5.36721 9.94789 5.23987 9.85401 5.14598L7.85401 3.14598C7.80654 3.09862 7.75003 3.06129 7.68784 3.03621C7.62565 3.01113 7.55905 2.9988 7.49201 2.99999Z" fill="currentColor"/>
</svg>
