<svg width="20" height="20" viewBox="0 0 20 20" fill="none" xmlns="http://www.w3.org/2000/svg">
<path d="M9.492 2.99201C9.42634 2.99305 9.36153 3.00702 9.30127 3.03312C9.241 3.05921 9.18647 3.09692 9.14078 3.14409C9.09509 3.19127 9.05913 3.24698 9.03497 3.30805C9.01082 3.36912 8.99894 3.43434 9 3.5V10.293L5.146 14.146C5.05211 14.2399 4.99936 14.3672 4.99936 14.5C4.99936 14.6328 5.05211 14.7601 5.146 14.854C5.23988 14.9479 5.36722 15.0006 5.5 15.0006C5.63278 15.0006 5.76012 14.9479 5.854 14.854L9.707 11H16.5C16.6326 11 16.7598 10.9473 16.8535 10.8535C16.9473 10.7598 17 10.6326 17 10.5C17 10.3674 16.9473 10.2402 16.8535 10.1465C16.7598 10.0527 16.6326 10 16.5 10H10V3.5C10.0011 3.43299 9.98868 3.36645 9.96353 3.30433C9.93839 3.2422 9.901 3.18578 9.85361 3.13839C9.80622 3.091 9.7498 3.05362 9.68768 3.02848C9.62556 3.00333 9.55901 2.99093 9.492 2.99201Z" fill="currentColor"/>
<path d="M13.49 5.99602C13.3602 5.99946 13.2368 6.05325 13.146 6.14601L11.146 8.14601C11.0995 8.1925 11.0626 8.24769 11.0375 8.30843C11.0123 8.36917 10.9994 8.43427 10.9994 8.50002C10.9994 8.56576 11.0123 8.63087 11.0375 8.69161C11.0626 8.75235 11.0995 8.80753 11.146 8.85402C11.1925 8.90051 11.2477 8.93738 11.3084 8.96254C11.3692 8.9877 11.4343 9.00064 11.5 9.00064C11.5657 9.00064 11.6308 8.9877 11.6916 8.96254C11.7523 8.93738 11.8075 8.90051 11.854 8.85402L13.854 6.85402C13.9262 6.78373 13.9754 6.69327 13.9953 6.5945C14.0152 6.49573 14.0048 6.39326 13.9655 6.30051C13.9261 6.20776 13.8597 6.12906 13.7748 6.07472C13.69 6.02039 13.5907 5.99296 13.49 5.99602ZM3.5 10C3.36739 10 3.24022 10.0527 3.14645 10.1465C3.05269 10.2402 3 10.3674 3 10.5C3 10.6326 3.05269 10.7598 3.14645 10.8536C3.24022 10.9473 3.36739 11 3.5 11H6.75C6.88261 11 7.00978 10.9473 7.10355 10.8536C7.19731 10.7598 7.25 10.6326 7.25 10.5C7.25 10.3674 7.19731 10.2402 7.10355 10.1465C7.00978 10.0527 6.88261 10 6.75 10H3.5ZM9.492 12.742C9.42634 12.7431 9.36153 12.757 9.30127 12.7831C9.241 12.8092 9.18647 12.8469 9.14078 12.8941C9.09509 12.9413 9.05913 12.997 9.03497 13.0581C9.01082 13.1191 8.99894 13.1844 9 13.25V16.5C9 16.6326 9.05269 16.7598 9.14645 16.8536C9.24022 16.9473 9.36739 17 9.5 17C9.63261 17 9.75978 16.9473 9.85355 16.8536C9.94731 16.7598 10 16.6326 10 16.5V13.25C10.0011 13.183 9.98868 13.1165 9.96353 13.0543C9.93839 12.9922 9.901 12.9358 9.85361 12.8884C9.80622 12.841 9.7498 12.8036 9.68768 12.7785C9.62556 12.7533 9.55901 12.7409 9.492 12.742Z" fill="currentColor"/>
</svg>
