<svg width="20" height="20" viewBox="0 0 20 20" fill="none" xmlns="http://www.w3.org/2000/svg">
<path d="M7.491 3C7.35839 3 7.23121 3.05268 7.13745 3.14645C7.04368 3.24021 6.991 3.36739 6.991 3.5V4.5C6.99129 4.6325 7.04416 4.75946 7.138 4.853L7.991 5.707V8.322L3.605 13.684L3.601 13.688C3.011 14.424 2.893 15.258 3.151 15.904C3.27665 16.2245 3.49528 16.5002 3.77879 16.6955C4.0623 16.8908 4.39774 16.9968 4.742 17H15.242C15.951 17 16.579 16.557 16.846 15.908C17.112 15.261 16.99 14.418 16.379 13.684L11.992 8.322V5.707L12.846 4.853C12.9395 4.75929 12.992 4.63235 12.992 4.5V3.5C12.992 3.36739 12.9393 3.24021 12.8456 3.14645C12.7518 3.05268 12.6246 3 12.492 3H7.491ZM7.991 4H11.991V4.293L11.138 5.146C11.0914 5.19244 11.0545 5.24761 11.0292 5.30835C11.004 5.3691 10.991 5.43423 10.991 5.5V8.5C10.9914 8.61533 11.0317 8.72697 11.105 8.816L15.605 14.316C15.605 14.317 15.605 14.319 15.607 14.32C16.035 14.835 16.038 15.24 15.919 15.53C15.8655 15.6669 15.7725 15.7847 15.6517 15.8684C15.5309 15.9521 15.3879 15.9979 15.241 16H4.741C4.59644 15.999 4.45567 15.9537 4.33766 15.8702C4.21965 15.7867 4.13007 15.669 4.081 15.533C3.965 15.243 3.971 14.826 4.382 14.313L8.878 8.816C8.95095 8.72683 8.99086 8.61521 8.991 8.5V5.5C8.99112 5.4343 8.97828 5.36921 8.95323 5.30847C8.92818 5.24773 8.8914 5.19252 8.845 5.146L7.991 4.293V4ZM7.991 12C7.91984 11.9999 7.84949 12.0151 7.78464 12.0444C7.7198 12.0737 7.66196 12.1165 7.615 12.17L5.865 14.17C5.80152 14.2423 5.76023 14.3313 5.74608 14.4264C5.73192 14.5215 5.7455 14.6187 5.78519 14.7063C5.82487 14.7939 5.88898 14.8682 5.96983 14.9203C6.05067 14.9724 6.14483 15.0001 6.241 15H13.741C13.8373 15.0003 13.9315 14.9727 14.0125 14.9207C14.0935 14.8687 14.1578 14.7944 14.1976 14.7068C14.2374 14.6191 14.2511 14.5219 14.237 14.4267C14.2228 14.3314 14.1815 14.2423 14.118 14.17L12.368 12.17C12.3209 12.1164 12.2629 12.0735 12.1979 12.0442C12.1329 12.0149 12.0623 11.9998 11.991 12H7.991Z" fill="currentColor"/>
</svg>
