<svg width="20" height="20" viewBox="0 0 20 20" fill="none" xmlns="http://www.w3.org/2000/svg">
<path d="M9.03697 3C7.91697 3 6.99999 3.917 6.99999 5.037V6C6.95999 6.706 8.03999 6.706 7.99999 6V5.037C7.99999 4.454 8.45397 4 9.03697 4H13.963C14.546 4 15 4.454 15 5.037V10.096C14.7065 10.2059 14.4535 10.4027 14.2748 10.6602C14.0961 10.9177 14.0002 11.2236 14 11.537V13.463C14 13.5956 14.0526 13.7228 14.1464 13.8166C14.2402 13.9103 14.3674 13.963 14.5 13.963H15V16H16V13.963H16.5C16.6326 13.963 16.7598 13.9103 16.8536 13.8166C16.9473 13.7228 17 13.5956 17 13.463V11.537C16.9997 11.2236 16.9039 10.9177 16.7252 10.6602C16.5465 10.4027 16.2935 10.2059 16 10.096V5.037C16 3.917 15.083 3 13.963 3H9.03697Z" fill="currentColor"/>
<path d="M7 14H8V15H7V14ZM5 14H6V15H5V14ZM4.53699 6C3.69399 6 3 6.694 3 7.537V15.463C3 16.306 3.69399 17 4.53699 17H10.463C10.8698 16.9974 11.2593 16.8346 11.5469 16.5469C11.8346 16.2593 11.9974 15.8698 12 15.463V7.537C12 6.694 11.306 6 10.463 6H4.53699ZM4.53699 13H10.463C10.769 13 11 13.231 11 13.537V15.463C11.0015 15.5339 10.9886 15.6044 10.9622 15.6703C10.9357 15.7361 10.8962 15.7959 10.8461 15.8461C10.7959 15.8962 10.7361 15.9357 10.6703 15.9622C10.6045 15.9886 10.5339 16.0015 10.463 16H4.53699C4.46606 16.0015 4.39554 15.9886 4.32971 15.9622C4.26388 15.9357 4.2041 15.8962 4.15393 15.8461C4.10376 15.7959 4.0643 15.7361 4.03784 15.6703C4.01139 15.6044 3.9985 15.5339 4 15.463V13.537C4 13.231 4.23099 13 4.53699 13Z" fill="currentColor"/>
</svg>
