<svg width="20" height="20" viewBox="0 0 20 20" fill="none" xmlns="http://www.w3.org/2000/svg">
<path d="M14.71 2.97601C14.5171 2.97169 14.3243 2.98844 14.135 3.02599C13.385 3.17599 12.688 3.60499 12.129 4.16399L9.985 6.27099L8.83701 5.12298C8.79036 5.07459 8.73443 5.03611 8.67258 5.00982C8.61072 4.98353 8.54421 4.97002 8.47701 4.97002C8.37724 4.96982 8.27971 4.99943 8.19693 5.05511C8.11415 5.11079 8.04992 5.18999 8.0125 5.28246C7.97508 5.37494 7.96618 5.47651 7.98694 5.57409C8.0077 5.67167 8.05717 5.76078 8.129 5.83001L9.776 7.47601L5.12801 12.166C5.03539 12.2594 4.98329 12.3855 4.983 12.517V13.31L3.129 15.164C3.08258 15.2105 3.04577 15.2657 3.02068 15.3264C2.99558 15.3871 2.98268 15.4522 2.98273 15.5179C2.98282 15.6506 3.03561 15.7778 3.1295 15.8715C3.22339 15.9653 3.35067 16.0178 3.48335 16.0178C3.61603 16.0177 3.74325 15.9649 3.83701 15.871L5.83701 13.871C5.88341 13.8245 5.92018 13.7693 5.94524 13.7085C5.97029 13.6478 5.98312 13.5827 5.983 13.517V12.722L10.485 8.18499L11.778 9.47802L7.274 14.017H6.483C6.4173 14.0169 6.35222 14.0297 6.29147 14.0548C6.23073 14.0799 6.17552 14.1166 6.129 14.163L4.129 16.163C4.03511 16.2569 3.98238 16.3842 3.98238 16.517C3.98238 16.6498 4.03511 16.7771 4.129 16.871C4.22288 16.9649 4.35023 17.0176 4.483 17.0176C4.61578 17.0176 4.74312 16.9649 4.83701 16.871L6.69 15.017H7.483C7.54901 15.017 7.61438 15.0039 7.67531 14.9785C7.73624 14.9531 7.79152 14.9159 7.838 14.869L12.485 10.185L14.129 11.83C14.2229 11.9239 14.3502 11.9766 14.483 11.9766C14.6158 11.9766 14.7431 11.9239 14.837 11.83C14.9309 11.7361 14.9836 11.6088 14.9836 11.476C14.9836 11.3432 14.9309 11.2159 14.837 11.122L13.694 9.98003L15.833 7.87402L15.837 7.86999C16.396 7.31199 16.823 6.61498 16.973 5.86498C17.123 5.11398 16.954 4.28102 16.337 3.66302C15.9049 3.23074 15.3211 2.98423 14.71 2.97601Z" fill="currentColor"/>
</svg>
