<svg width="20" height="20" viewBox="0 0 20 20" fill="none" xmlns="http://www.w3.org/2000/svg">
<path d="M6.547 2.996L3.547 5.996H12.961L15.961 2.996H6.547ZM6.961 3.996H13.547L12.547 4.996H5.961L6.961 3.996ZM12.504 6.996L3.496 7.004C3.36339 7.004 3.23622 7.05668 3.14246 7.15045C3.04869 7.24422 2.996 7.37139 2.996 7.504V16.504C2.996 16.6366 3.04869 16.7638 3.14246 16.8575C3.23622 16.9513 3.36339 17.004 3.496 17.004H12.496C12.6286 17.004 12.7558 16.9513 12.8495 16.8575C12.9433 16.7638 12.996 16.6366 12.996 16.504L13.004 7.496C13.004 7.36339 12.9513 7.23622 12.8575 7.14246C12.7638 7.04869 12.6366 6.996 12.504 6.996ZM12.004 7.996L11.996 16.004H3.996V8.00201L12.004 7.996Z" fill="currentColor"/>
<path d="M17.004 4.039L16.15 4.892L14.004 7.039V16.453L17.004 13.453V4.039Z" fill="currentColor"/>
</svg>
