<svg width="20" height="20" viewBox="0 0 20 20" fill="none" xmlns="http://www.w3.org/2000/svg">
<path d="M3.504 6.996C3.37139 6.996 3.24421 7.04868 3.15044 7.14245C3.05668 7.23622 3.004 7.36339 3.004 7.496V16.496C3.004 16.6286 3.05668 16.7558 3.15044 16.8496C3.24421 16.9433 3.37139 16.996 3.504 16.996H12.504C12.6366 16.996 12.7638 16.9433 12.8576 16.8496C12.9513 16.7558 13.004 16.6286 13.004 16.496V7.496C13.004 7.36339 12.9513 7.23622 12.8576 7.14245C12.7638 7.04868 12.6366 6.996 12.504 6.996H3.504Z" fill="currentColor"/>
<path d="M7.496 3.004C7.36365 3.00403 7.23671 3.05653 7.143 3.15L5.15 5.143C5.10093 5.18726 5.06235 5.24192 5.0371 5.30299C5.01184 5.36406 5.00053 5.43 5.004 5.496V5.996H6.004L6.007 5.7L7.703 4.004H15.996V12.297L14.3 13.994L14.005 13.996V14.996H14.505C14.5693 14.9991 14.6335 14.9883 14.6932 14.9643C14.7529 14.9403 14.8067 14.9037 14.851 14.857L16.851 12.857C16.9445 12.7633 16.997 12.6364 16.997 12.504V3.504C16.997 3.37139 16.9443 3.24421 16.8506 3.15044C16.7568 3.05668 16.6296 3.004 16.497 3.004H7.496Z" fill="currentColor"/>
</svg>
