<svg width="20" height="20" viewBox="0 0 20 20" fill="none" xmlns="http://www.w3.org/2000/svg">
<path d="M9.992 3C9.86194 3.00213 9.73782 3.05486 9.646 3.147C8.245 4.548 6.69 5 4 5C3.86739 5 3.74021 5.05268 3.64645 5.14645C3.55268 5.24022 3.5 5.36739 3.5 5.5V8.5C3.5 10.963 4.18 12.568 5.287 13.775C6.394 14.983 7.861 15.8 9.465 16.91C9.5486 16.9684 9.64805 16.9998 9.75 17H10.25C10.352 16.9998 10.4514 16.9684 10.535 16.91C12.139 15.8 13.606 14.983 14.713 13.775C15.82 12.568 16.5 10.963 16.5 8.5V5.5C16.5 5.36739 16.4473 5.24022 16.3536 5.14645C16.2598 5.05268 16.1326 5 16 5C13.31 5 11.755 4.548 10.354 3.147C10.3066 3.09945 10.2501 3.06193 10.188 3.03668C10.1258 3.01142 10.0591 2.99895 9.992 3ZM10 4.07C11.426 5.339 13.167 5.868 15.5 5.936V8.5C15.5 10.787 14.93 12.057 13.975 13.1C13.048 14.111 11.668 14.914 10.086 16H9.914C8.332 14.914 6.953 14.111 6.026 13.1C5.069 12.057 4.5 10.787 4.5 8.5V5.936C6.834 5.868 8.575 5.339 10 4.07Z" fill="currentColor"/>
</svg>
