<svg width="20" height="20" viewBox="0 0 20 20" fill="none" xmlns="http://www.w3.org/2000/svg">
<path d="M3.496 2.996C3.36339 2.996 3.23622 3.04866 3.14245 3.14243C3.04868 3.23619 2.996 3.36339 2.996 3.496V13.496C2.996 13.6286 3.04868 13.7558 3.14245 13.8496C3.23622 13.9433 3.36339 13.996 3.496 13.996H16.496C16.6286 13.996 16.7558 13.9433 16.8495 13.8496C16.9433 13.7558 16.996 13.6286 16.996 13.496C16.996 13.3634 16.9433 13.2362 16.8495 13.1424C16.7558 13.0487 16.6286 12.996 16.496 12.996H3.996V3.996H12.996V11.496C12.996 11.6286 13.0487 11.7558 13.1425 11.8496C13.2362 11.9433 13.3634 11.996 13.496 11.996C13.6286 11.996 13.7558 11.9433 13.8495 11.8496C13.9433 11.7558 13.996 11.6286 13.996 11.496V3.496C13.996 3.36339 13.9433 3.23619 13.8495 3.14243C13.7558 3.04866 13.6286 2.996 13.496 2.996H3.496ZM13.488 14.738C13.4223 14.739 13.3575 14.753 13.2973 14.7791C13.237 14.8052 13.1825 14.8429 13.1368 14.8901C13.0911 14.9373 13.0551 14.993 13.031 15.054C13.0068 15.1151 12.9949 15.1803 12.996 15.246V16.496C12.996 16.6286 13.0487 16.7558 13.1425 16.8496C13.2362 16.9433 13.3634 16.996 13.496 16.996C13.6286 16.996 13.7558 16.9433 13.8495 16.8496C13.9433 16.7558 13.996 16.6286 13.996 16.496V15.246C13.9971 15.179 13.9847 15.1124 13.9595 15.0503C13.9344 14.9882 13.897 14.9318 13.8496 14.8844C13.8022 14.837 13.7458 14.7996 13.6837 14.7744C13.6216 14.7493 13.555 14.7369 13.488 14.738Z" fill="currentColor"/>
<path d="M11.496 5.996C10.913 5.996 10.408 6.16199 9.96899 6.45499C9.52899 6.74799 9.14199 7.142 8.64199 7.642L7.64199 8.642C7.14199 9.142 6.77999 9.49799 6.46899 9.70499C6.15799 9.91199 5.913 9.996 5.496 9.996H4.496V10.996H5.496C6.079 10.996 6.58401 10.83 7.02301 10.537C7.46301 10.244 7.85 9.85001 8.35 9.35001L9.35 8.35001C9.85 7.85001 10.212 7.49402 10.523 7.28702C10.834 7.08002 11.079 6.996 11.496 6.996H12.496V5.996H11.496Z" fill="currentColor"/>
</svg>
