<svg width="20" height="20" viewBox="0 0 20 20" fill="none" xmlns="http://www.w3.org/2000/svg">
<path d="M8 7C7.29 7 6.727 7.36399 6.379 7.82199C6.031 8.27999 5.832 8.81701 5.631 9.31201C5.429 9.80801 5.226 10.262 4.981 10.552C4.735 10.844 4.491 11 4 11H3V12H4C4.758 12 5.36 11.656 5.746 11.197C6.133 10.739 6.352 10.192 6.556 9.68701C6.761 9.18301 6.954 8.72 7.176 8.427C7.398 8.136 7.586 8 8 8C8.377 8 8.584 8.16501 8.838 8.55701C9.092 8.94801 9.308 9.546 9.528 10.172C9.746 10.798 9.966 11.453 10.322 12C10.678 12.547 11.256 13.006 12.004 13C12.677 12.995 13.213 12.736 13.574 12.379C13.935 12.022 14.145 11.601 14.346 11.232C14.546 10.863 14.735 10.547 14.969 10.34C15.202 10.133 15.474 10 16 10H17V9H16C15.276 9 14.704 9.23901 14.305 9.59201C13.905 9.94501 13.673 10.375 13.467 10.754C13.261 11.133 13.08 11.461 12.871 11.668C12.662 11.875 12.448 11.996 11.996 12C11.619 12.003 11.416 11.842 11.162 11.453C10.909 11.064 10.692 10.468 10.472 9.84201C10.254 9.21601 10.033 8.55999 9.678 8.01199C9.322 7.46299 8.748 7 8 7Z" fill="currentColor"/>
<path d="M16.5 3L3.5 3.004C3.36739 3.004 3.24021 3.05668 3.14645 3.15045C3.05268 3.24422 3 3.37139 3 3.504V10H4V4.004L16 4V8H17V3.5C17 3.36739 16.9473 3.24022 16.8536 3.14645C16.7598 3.05269 16.6326 3 16.5 3ZM16 11V16H4V13H3V16.5C3 16.6326 3.05268 16.7598 3.14645 16.8535C3.24021 16.9473 3.36739 17 3.5 17H16.5C16.6326 17 16.7598 16.9473 16.8536 16.8535C16.9473 16.7598 17 16.6326 17 16.5V11H16Z" fill="currentColor"/>
</svg>
