<svg width="20" height="20" viewBox="0 0 20 20" fill="none" xmlns="http://www.w3.org/2000/svg">
<path d="M6.006 6C5.93991 5.99947 5.87436 6.012 5.81313 6.03687C5.75189 6.06174 5.69616 6.09845 5.64915 6.14491C5.60214 6.19136 5.56476 6.24664 5.53917 6.30758C5.51357 6.36852 5.50026 6.43391 5.5 6.5V13.5C5.4999 13.5915 5.52492 13.6814 5.57235 13.7596C5.61979 13.8379 5.6878 13.9017 5.76899 13.944C5.85017 13.9863 5.94141 14.0055 6.03275 13.9995C6.1241 13.9935 6.21204 13.9625 6.287 13.91L11.287 10.41C11.353 10.3639 11.4069 10.3026 11.4442 10.2312C11.4814 10.1598 11.5008 10.0805 11.5008 10C11.5008 9.91949 11.4814 9.84018 11.4442 9.7688C11.4069 9.69742 11.353 9.63608 11.287 9.59L6.287 6.09C6.2046 6.03225 6.10662 6.00086 6.006 6ZM12.5 5V15H14.5V5H12.5Z" fill="currentColor"/>
</svg>
