<svg width="20" height="20" viewBox="0 0 20 20" fill="none" xmlns="http://www.w3.org/2000/svg">
<path d="M7.47101 3C7.39635 3.00207 7.3231 3.02084 7.25665 3.05494C7.1902 3.08903 7.13224 3.13757 7.08701 3.197L3.13699 7.147C3.06723 7.21698 3.01978 7.30607 3.00061 7.403C2.98144 7.49994 2.99142 7.60039 3.0293 7.69165C3.06717 7.78292 3.13123 7.86092 3.21341 7.9158C3.29558 7.97068 3.39218 7.99998 3.491 8H7.491C7.62361 8 7.75078 7.94732 7.84454 7.85355C7.93831 7.75979 7.991 7.63261 7.991 7.5V4H13.991V7.5C13.981 8.176 15.001 8.176 14.991 7.5V3.5C14.991 3.36739 14.9383 3.24021 14.8445 3.14645C14.7508 3.05268 14.6236 3 14.491 3H7.47101ZM2.991 9V16.5C2.991 16.6326 3.04368 16.7598 3.13745 16.8536C3.23122 16.9473 3.35839 17 3.491 17H7.741C8.417 17.01 8.417 15.99 7.741 16H3.991V9H2.991Z" fill="currentColor"/>
<path d="M12.493 8.00001C12.4262 7.9992 12.3598 8.01179 12.2979 8.03706C12.2361 8.06233 12.1799 8.09975 12.1327 8.14711C12.0855 8.19447 12.0483 8.25082 12.0233 8.3128C11.9983 8.37479 11.9859 8.44117 11.987 8.50801L11.991 9.84801C11.619 9.92001 11.272 10.068 10.97 10.275L9.84299 9.15201C9.75215 9.05924 9.62879 9.00544 9.49899 9.00201C9.39804 8.99892 9.29852 9.02649 9.21353 9.08108C9.12855 9.13566 9.06211 9.2147 9.02292 9.30779C8.98373 9.40088 8.97365 9.50366 8.99402 9.60259C9.01439 9.70152 9.06422 9.79196 9.13699 9.86201L10.264 10.984C10.0525 11.2896 9.90614 11.6354 9.83399 12L8.48898 12.002C8.35611 12.0023 8.22881 12.0553 8.13504 12.1495C8.04127 12.2436 7.98872 12.3711 7.98898 12.504C7.98925 12.6369 8.0423 12.7642 8.13645 12.858C8.23059 12.9517 8.35812 13.0043 8.491 13.004L9.82901 13C9.89345 13.3719 10.0352 13.7262 10.245 14.04L9.13699 15.148C9.08629 15.1933 9.04537 15.2485 9.01672 15.3102C8.98808 15.3719 8.97233 15.4388 8.97043 15.5068C8.96853 15.5748 8.9805 15.6424 9.00565 15.7056C9.03079 15.7688 9.06858 15.8262 9.11667 15.8743C9.16476 15.9224 9.22217 15.9602 9.28537 15.9854C9.34857 16.0105 9.41623 16.0225 9.48422 16.0206C9.55221 16.0187 9.6191 16.0029 9.68079 15.9743C9.74248 15.9456 9.79766 15.9047 9.84299 15.854L10.946 14.752C11.254 14.968 11.607 15.122 11.989 15.197L11.987 16.498C11.9867 16.5638 11.9994 16.629 12.0244 16.6899C12.0493 16.7508 12.086 16.8061 12.1323 16.8529C12.1787 16.8996 12.2338 16.9367 12.2944 16.9621C12.3551 16.9875 12.4202 17.0007 12.486 17.001C12.6189 17.0015 12.7465 16.9493 12.8409 16.8557C12.9352 16.7621 12.9885 16.6349 12.989 16.502L12.991 15.199C13.377 15.129 13.736 14.983 14.048 14.768L15.13 15.854C15.1764 15.9006 15.2314 15.9375 15.2921 15.9628C15.3527 15.9881 15.4177 16.0011 15.4834 16.0013C15.5491 16.0014 15.6142 15.9886 15.675 15.9636C15.7357 15.9386 15.7909 15.9019 15.8375 15.8555C15.884 15.8091 15.921 15.7541 15.9463 15.6934C15.9716 15.6328 15.9846 15.5678 15.9848 15.5021C15.9849 15.4364 15.9721 15.3713 15.9471 15.3105C15.9221 15.2498 15.8853 15.1946 15.839 15.148L14.755 14.061C14.9726 13.7421 15.1196 13.3803 15.186 13H16.491C16.6236 13 16.7508 12.9473 16.8445 12.8536C16.9383 12.7598 16.991 12.6326 16.991 12.5C16.991 12.3674 16.9383 12.2402 16.8445 12.1465C16.7508 12.0527 16.6236 12 16.491 12H15.181C15.106 11.62 14.951 11.27 14.735 10.963L15.837 9.85901C15.9085 9.78972 15.9577 9.70066 15.9782 9.60326C15.9988 9.50585 15.9898 9.40453 15.9524 9.31227C15.915 9.22 15.8509 9.14099 15.7684 9.08536C15.6858 9.02973 15.5885 9.00001 15.489 9.00001C15.4222 9.00054 15.3562 9.01443 15.2949 9.04088C15.2336 9.06733 15.1782 9.1058 15.132 9.15401L14.024 10.26C13.712 10.052 13.3603 9.91106 12.991 9.84601L12.987 8.50601C12.9878 8.44034 12.9756 8.37517 12.9512 8.3142C12.9268 8.25324 12.8907 8.19767 12.8448 8.15069C12.7989 8.1037 12.7443 8.06621 12.6839 8.04035C12.6235 8.0145 12.5587 8.00079 12.493 8.00001ZM12.491 11.3C12.809 11.2999 13.114 11.4261 13.339 11.6508C13.5639 11.8756 13.6904 12.1805 13.6905 12.4985C13.6906 12.8165 13.5644 13.1215 13.3397 13.3465C13.1149 13.5714 12.81 13.6979 12.492 13.698C12.1801 13.6891 11.884 13.559 11.6665 13.3353C11.449 13.1117 11.3272 12.812 11.3271 12.5C11.327 12.188 11.4485 11.8882 11.6658 11.6644C11.8831 11.4405 12.1791 11.3101 12.491 11.301V11.3Z" fill="currentColor"/>
</svg>
