<svg width="20" height="20" viewBox="0 0 20 20" fill="none" xmlns="http://www.w3.org/2000/svg">
<path d="M10.507 3.00201C10.0426 2.95308 9.5768 3.0805 9.202 3.35901C8.914 3.57901 8.648 3.92701 8.582 4.39201C8.514 4.85801 8.696 5.40401 9.153 5.86201L9.3 6.00801H5.007C4.74393 6.00863 4.48564 6.07832 4.25797 6.21012C4.0303 6.34192 3.84124 6.5312 3.70971 6.75903C3.57818 6.98685 3.5088 7.24522 3.50849 7.50829C3.50819 7.77136 3.57699 8.02989 3.708 8.25801C3.976 8.72101 4.472 9.00801 5.007 9.00801H5.8L3.153 11.654C2.363 12.444 2.306 13.586 2.86 14.31C3.08 14.598 3.428 14.864 3.894 14.931C4.359 14.999 4.903 14.818 5.36 14.361L6.765 12.959C7.32 14.925 8.871 16.489 10.929 16.9C12.0865 17.1304 13.2873 16.9827 14.3545 16.4788C15.4216 15.9748 16.2986 15.1413 16.856 14.101C17.4121 13.0604 17.6191 11.8687 17.4462 10.7015C17.2733 9.53438 16.7299 8.45372 15.896 7.61901C15.8953 7.61768 15.8947 7.61634 15.894 7.61501L11.86 3.65401C11.4992 3.28505 11.0204 3.05432 10.507 3.00201ZM10.411 4.00401C10.654 4.02401 10.921 4.12801 11.153 4.36101C11.1543 4.36169 11.1557 4.36235 11.157 4.36301L15.189 8.32601C15.8725 9.00856 16.3179 9.89311 16.4593 10.8486C16.6007 11.8041 16.4305 12.7798 15.974 13.631C15.5192 14.4829 14.802 15.1655 13.9288 15.5778C13.0556 15.9901 12.0728 16.1101 11.126 15.92C10.1788 15.7302 9.31731 15.2421 8.66768 14.5271C8.01805 13.8122 7.61445 12.908 7.516 11.947C7.50628 11.8531 7.47019 11.7639 7.41189 11.6896C7.35358 11.6154 7.27546 11.5592 7.18654 11.5275C7.09762 11.4958 7.00155 11.4899 6.90943 11.5105C6.81732 11.5312 6.73292 11.5774 6.666 11.644L4.653 13.654C4.36 13.947 4.182 13.962 4.036 13.941C3.88402 13.9099 3.74818 13.8255 3.653 13.703C3.443 13.427 3.395 12.826 3.86 12.361L7.36 8.86101C7.4297 8.79109 7.47714 8.7021 7.49635 8.60525C7.51555 8.50841 7.50565 8.40805 7.4679 8.31682C7.43014 8.22559 7.36623 8.14758 7.2842 8.09263C7.20218 8.03767 7.10573 8.00823 7.007 8.00801H5.007C4.87439 8.00801 4.74721 7.95533 4.65345 7.86157C4.55968 7.7678 4.507 7.64062 4.507 7.50801C4.507 7.3754 4.55968 7.24823 4.65345 7.15446C4.74721 7.06069 4.87439 7.00801 5.007 7.00801H10.507C10.6059 7.00799 10.7026 6.97862 10.7849 6.92362C10.8671 6.86861 10.9312 6.79045 10.969 6.69901C11.0068 6.60758 11.0166 6.50699 10.9972 6.40998C10.9778 6.31296 10.93 6.22388 10.86 6.15401L9.86 5.15401C9.568 4.86201 9.55 4.68301 9.571 4.53701C9.60286 4.38485 9.68796 4.24904 9.811 4.15401C9.98653 4.03365 10.1995 3.98041 10.411 4.00401ZM12.007 9.00801C11.3446 9.01012 10.7099 9.27419 10.2416 9.74258C9.77318 10.211 9.50911 10.8456 9.507 11.508C9.507 12.882 10.632 14.008 12.007 14.008C13.382 14.008 14.507 12.882 14.507 11.508C14.507 10.133 13.382 9.00801 12.007 9.00801ZM12.007 10.008C12.841 10.008 13.507 10.673 13.507 11.508C13.507 12.342 12.841 13.008 12.007 13.008C11.172 13.008 10.507 12.342 10.507 11.508C10.507 10.673 11.172 10.008 12.007 10.008Z" fill="currentColor"/>
</svg>
