<svg width="20" height="20" viewBox="0 0 20 20" fill="none" xmlns="http://www.w3.org/2000/svg">
<path d="M3.99199 5.99201C3.92633 5.99305 3.86152 6.00702 3.80126 6.03311C3.74099 6.05921 3.68645 6.09692 3.64076 6.14409C3.59508 6.19127 3.55914 6.24698 3.53499 6.30805C3.51084 6.36912 3.49896 6.43434 3.50002 6.50001V13.5C3.50002 13.6326 3.55267 13.7598 3.64644 13.8536C3.74021 13.9473 3.86741 14 4.00002 14C4.13263 14 4.2598 13.9473 4.35356 13.8536C4.44733 13.7598 4.50002 13.6326 4.50002 13.5V6.50001C4.5011 6.433 4.4887 6.36645 4.46355 6.30433C4.4384 6.24221 4.40101 6.18578 4.35362 6.13839C4.30624 6.091 4.24979 6.05362 4.18767 6.02847C4.12555 6.00333 4.059 5.99093 3.99199 5.99201ZM5.99199 6.99201C5.92633 6.99305 5.86152 7.00702 5.80126 7.03311C5.74099 7.05921 5.68645 7.09692 5.64076 7.14409C5.59508 7.19127 5.55914 7.24698 5.53499 7.30805C5.51084 7.36912 5.49896 7.43434 5.50002 7.50001V14.5C5.50002 14.6326 5.55267 14.7598 5.64644 14.8536C5.74021 14.9473 5.86741 15 6.00002 15C6.13263 15 6.2598 14.9473 6.35356 14.8536C6.44733 14.7598 6.50002 14.6326 6.50002 14.5V7.50001C6.5011 7.433 6.4887 7.36645 6.46355 7.30433C6.4384 7.24221 6.40101 7.18578 6.35362 7.13839C6.30624 7.091 6.24979 7.05362 6.18767 7.02847C6.12555 7.00333 6.059 6.99093 5.99199 6.99201ZM7.99199 7.99201C7.92633 7.99305 7.86152 8.00702 7.80126 8.03311C7.74099 8.05921 7.68645 8.09692 7.64076 8.14409C7.59508 8.19127 7.55914 8.24698 7.53499 8.30805C7.51084 8.36912 7.49896 8.43434 7.50002 8.50001V15.5C7.50002 15.6326 7.55267 15.7598 7.64644 15.8536C7.74021 15.9473 7.86741 16 8.00002 16C8.13263 16 8.2598 15.9473 8.35356 15.8536C8.44733 15.7598 8.50002 15.6326 8.50002 15.5V8.50001C8.5011 8.433 8.4887 8.36645 8.46355 8.30433C8.4384 8.24221 8.40101 8.18578 8.35362 8.13839C8.30624 8.091 8.24979 8.05362 8.18767 8.02847C8.12555 8.00333 8.059 7.99093 7.99199 7.99201ZM9.99199 8.99201C9.92633 8.99305 9.86152 9.00702 9.80126 9.03311C9.74099 9.05921 9.68645 9.09692 9.64076 9.14409C9.59508 9.19127 9.55914 9.24698 9.53499 9.30805C9.51084 9.36912 9.49896 9.43434 9.50002 9.50001V16.5C9.50002 16.6326 9.55267 16.7598 9.64644 16.8536C9.74021 16.9473 9.86741 17 10 17C10.1326 17 10.2598 16.9473 10.3536 16.8536C10.4473 16.7598 10.5 16.6326 10.5 16.5V9.50001C10.5011 9.433 10.4887 9.36645 10.4635 9.30433C10.4384 9.24221 10.401 9.18578 10.3536 9.13839C10.3062 9.091 10.2498 9.05362 10.1877 9.02847C10.1255 9.00333 10.059 8.99093 9.99199 8.99201Z" fill="currentColor"/>
<path d="M5.99401 4.99201C5.92835 4.99279 5.86348 5.00651 5.80312 5.03236C5.74276 5.05821 5.68807 5.0957 5.6422 5.14269C5.59633 5.18968 5.56015 5.24524 5.53576 5.3062C5.51136 5.36717 5.49923 5.43235 5.50002 5.49801V5.74801C5.49976 5.81367 5.51243 5.87874 5.53731 5.93951C5.5622 6.00027 5.5988 6.05553 5.64504 6.10215C5.69128 6.14876 5.74625 6.18581 5.80681 6.21118C5.86737 6.23655 5.93234 6.24975 5.99801 6.25001C6.06367 6.25027 6.12874 6.2376 6.1895 6.21271C6.25027 6.18783 6.30552 6.15122 6.35213 6.10498C6.39875 6.05874 6.4358 6.00376 6.46117 5.9432C6.48654 5.88264 6.49976 5.81767 6.50002 5.75201V5.50201C6.50136 5.435 6.48922 5.36841 6.46431 5.30619C6.43941 5.24397 6.40226 5.18739 6.35506 5.13982C6.30786 5.09224 6.25156 5.05464 6.18953 5.02925C6.12751 5.00386 6.06102 4.99119 5.99401 4.99201ZM7.99401 5.99201C7.92834 5.99279 7.86348 6.00651 7.80312 6.03236C7.74276 6.05821 7.68807 6.0957 7.6422 6.14269C7.59633 6.18968 7.56015 6.24524 7.53576 6.3062C7.51136 6.36717 7.49923 6.43235 7.50002 6.49801L7.49801 6.74801C7.49774 6.81367 7.51041 6.87874 7.5353 6.93951C7.56018 7.00027 7.59678 7.05553 7.64302 7.10215C7.68927 7.14876 7.74427 7.18581 7.80483 7.21118C7.86539 7.23655 7.93033 7.24975 7.99599 7.25001C8.06165 7.25027 8.12673 7.2376 8.18749 7.21271C8.24825 7.18783 8.30353 7.15122 8.35015 7.10498C8.39676 7.05874 8.43382 7.00376 8.45919 6.9432C8.48456 6.88264 8.49774 6.81767 8.49801 6.75201L8.50002 6.50201C8.50136 6.435 8.48922 6.36841 8.46431 6.30619C8.43941 6.24397 8.40226 6.18739 8.35506 6.13982C8.30786 6.09224 8.25156 6.05464 8.18953 6.02925C8.12751 6.00386 8.06102 5.99119 7.99401 5.99201ZM9.99401 6.99201C9.92835 6.99279 9.86348 7.00651 9.80312 7.03236C9.74276 7.05821 9.68807 7.0957 9.6422 7.14269C9.59633 7.18968 9.56015 7.24524 9.53576 7.3062C9.51136 7.36717 9.49923 7.43235 9.50002 7.49801L9.49801 7.74801C9.49774 7.81367 9.51041 7.87874 9.5353 7.93951C9.56018 8.00027 9.59678 8.05553 9.64302 8.10215C9.68927 8.14876 9.74427 8.18581 9.80483 8.21118C9.86539 8.23655 9.93033 8.24975 9.99599 8.25001C10.0617 8.25027 10.1267 8.2376 10.1875 8.21271C10.2483 8.18783 10.3035 8.15122 10.3501 8.10498C10.3968 8.05874 10.4338 8.00376 10.4592 7.9432C10.4846 7.88264 10.4977 7.81767 10.498 7.75201L10.5 7.50201C10.5014 7.435 10.4892 7.36841 10.4643 7.30619C10.4394 7.24397 10.4023 7.18739 10.3551 7.13982C10.3079 7.09224 10.2516 7.05464 10.1895 7.02925C10.1275 7.00386 10.061 6.99119 9.99401 6.99201ZM11.992 7.99201C11.9263 7.99305 11.8615 8.00702 11.8013 8.03311C11.741 8.05921 11.6865 8.09692 11.6408 8.1441C11.5951 8.19127 11.5591 8.24698 11.535 8.30805C11.5108 8.36912 11.499 8.43435 11.5 8.50001V15.5C11.5 15.6326 11.5527 15.7598 11.6464 15.8536C11.7402 15.9473 11.8674 16 12 16C12.1326 16 12.2598 15.9473 12.3536 15.8536C12.4473 15.7598 12.5 15.6326 12.5 15.5V8.50001C12.5011 8.433 12.4887 8.36646 12.4636 8.30434C12.4384 8.24221 12.401 8.18578 12.3536 8.13839C12.3062 8.091 12.2498 8.05362 12.1877 8.02848C12.1256 8.00333 12.059 7.99093 11.992 7.99201Z" fill="currentColor"/>
<path d="M7.99401 3.99201C7.92835 3.99279 7.86348 4.00651 7.80312 4.03236C7.74276 4.05821 7.68807 4.0957 7.6422 4.14269C7.59633 4.18968 7.56015 4.24524 7.53576 4.3062C7.51136 4.36717 7.49923 4.43235 7.50002 4.49801V4.74801C7.49976 4.81367 7.51243 4.87874 7.53731 4.93951C7.5622 5.00027 7.5988 5.05553 7.64504 5.10215C7.69128 5.14876 7.74625 5.18581 7.80681 5.21118C7.86737 5.23655 7.93234 5.24975 7.99801 5.25001C8.06367 5.25027 8.12874 5.2376 8.1895 5.21271C8.25027 5.18783 8.30552 5.15122 8.35213 5.10498C8.39875 5.05874 8.4358 5.00376 8.46117 4.9432C8.48654 4.88264 8.49976 4.81767 8.50002 4.75201V4.50201C8.50136 4.435 8.48922 4.36841 8.46431 4.30619C8.43941 4.24397 8.40226 4.18739 8.35506 4.13982C8.30786 4.09224 8.25156 4.05464 8.18953 4.02925C8.12751 4.00386 8.06102 3.99119 7.99401 3.99201ZM9.99401 4.99201C9.92834 4.99279 9.86348 5.00651 9.80312 5.03236C9.74276 5.05821 9.68807 5.0957 9.6422 5.14269C9.59633 5.18968 9.56015 5.24524 9.53576 5.3062C9.51136 5.36717 9.49923 5.43235 9.50002 5.49801L9.49801 5.74801C9.49774 5.81367 9.51041 5.87874 9.5353 5.93951C9.56018 6.00027 9.59678 6.05553 9.64302 6.10215C9.68927 6.14876 9.74427 6.18581 9.80483 6.21118C9.86539 6.23655 9.93033 6.24975 9.99599 6.25001C10.0617 6.25027 10.1267 6.2376 10.1875 6.21271C10.2483 6.18783 10.3035 6.15122 10.3501 6.10498C10.3968 6.05874 10.4338 6.00376 10.4592 5.9432C10.4846 5.88264 10.4977 5.81767 10.498 5.75201L10.5 5.50201C10.5014 5.435 10.4892 5.36841 10.4643 5.30619C10.4394 5.24397 10.4023 5.18739 10.3551 5.13982C10.3079 5.09224 10.2516 5.05464 10.1895 5.02925C10.1275 5.00386 10.061 4.99119 9.99401 4.99201ZM11.994 5.99201C11.9283 5.99279 11.8635 6.00651 11.8031 6.03236C11.7428 6.05821 11.6881 6.0957 11.6422 6.14269C11.5963 6.18968 11.5602 6.24524 11.5358 6.3062C11.5114 6.36717 11.4992 6.43235 11.5 6.49801L11.498 6.74801C11.4975 6.88062 11.5496 7.00801 11.643 7.10215C11.7364 7.19629 11.8634 7.24948 11.996 7.25001C12.1286 7.25054 12.256 7.19837 12.3501 7.10498C12.4443 7.01159 12.4975 6.88462 12.498 6.75201L12.5 6.50201C12.5014 6.435 12.4892 6.36841 12.4643 6.30619C12.4394 6.24397 12.4023 6.18739 12.3551 6.13982C12.3079 6.09224 12.2516 6.05464 12.1895 6.02925C12.1275 6.00386 12.061 5.99119 11.994 5.99201ZM13.992 6.99201C13.9263 6.99305 13.8615 7.00702 13.8013 7.03311C13.741 7.05921 13.6865 7.09692 13.6408 7.1441C13.5951 7.19127 13.5591 7.24698 13.535 7.30805C13.5108 7.36912 13.499 7.43435 13.5 7.50001V14.5C13.5 14.6326 13.5527 14.7598 13.6464 14.8536C13.7402 14.9473 13.8674 15 14 15C14.1326 15 14.2598 14.9473 14.3536 14.8536C14.4473 14.7598 14.5 14.6326 14.5 14.5V7.50001C14.5011 7.433 14.4887 7.36646 14.4636 7.30434C14.4384 7.24221 14.401 7.18578 14.3536 7.13839C14.3062 7.091 14.2498 7.05362 14.1877 7.02848C14.1256 7.00333 14.059 6.99093 13.992 6.99201Z" fill="currentColor"/>
<path d="M9.99401 2.99201C9.92835 2.99279 9.86348 3.00651 9.80312 3.03236C9.74276 3.05821 9.68807 3.0957 9.6422 3.14269C9.59633 3.18968 9.56015 3.24524 9.53576 3.3062C9.51136 3.36717 9.49923 3.43235 9.50002 3.49801V3.74801C9.49976 3.81367 9.51243 3.87874 9.53731 3.93951C9.5622 4.00027 9.5988 4.05553 9.64504 4.10215C9.69128 4.14876 9.74625 4.18581 9.80681 4.21118C9.86737 4.23655 9.93234 4.24975 9.99801 4.25001C10.0637 4.25027 10.1287 4.2376 10.1895 4.21271C10.2503 4.18783 10.3055 4.15122 10.3521 4.10498C10.3987 4.05874 10.4358 4.00376 10.4612 3.9432C10.4865 3.88264 10.4998 3.81767 10.5 3.75201V3.50201C10.5014 3.435 10.4892 3.36841 10.4643 3.30619C10.4394 3.24397 10.4023 3.18739 10.3551 3.13982C10.3079 3.09224 10.2516 3.05464 10.1895 3.02925C10.1275 3.00386 10.061 2.99119 9.99401 2.99201ZM11.994 3.99201C11.9283 3.99279 11.8635 4.00651 11.8031 4.03236C11.7428 4.05821 11.6881 4.0957 11.6422 4.14269C11.5963 4.18968 11.5602 4.24524 11.5358 4.3062C11.5114 4.36717 11.4992 4.43235 11.5 4.49801L11.498 4.74801C11.4975 4.88062 11.5496 5.00801 11.643 5.10215C11.7364 5.19629 11.8634 5.24948 11.996 5.25001C12.1286 5.25054 12.256 5.19837 12.3501 5.10498C12.4443 5.01159 12.4975 4.88462 12.498 4.75201L12.5 4.50201C12.5014 4.435 12.4892 4.36841 12.4643 4.30619C12.4394 4.24397 12.4023 4.18739 12.3551 4.13982C12.3079 4.09224 12.2516 4.05464 12.1895 4.02925C12.1275 4.00386 12.061 3.99119 11.994 3.99201ZM13.994 4.99201C13.9283 4.99279 13.8635 5.00651 13.8031 5.03236C13.7428 5.05821 13.6881 5.0957 13.6422 5.14269C13.5963 5.18968 13.5602 5.24524 13.5358 5.3062C13.5114 5.36717 13.4992 5.43235 13.5 5.49801L13.498 5.74801C13.4975 5.88062 13.5496 6.00801 13.643 6.10215C13.7364 6.19629 13.8634 6.24948 13.996 6.25001C14.1286 6.25054 14.256 6.19837 14.3501 6.10498C14.4443 6.01159 14.4975 5.88462 14.498 5.75201L14.5 5.50201C14.5014 5.435 14.4892 5.36841 14.4643 5.30619C14.4394 5.24397 14.4023 5.18739 14.3551 5.13982C14.3079 5.09224 14.2516 5.05464 14.1895 5.02925C14.1275 5.00386 14.061 4.99119 13.994 4.99201ZM15.992 5.99201C15.9263 5.99305 15.8615 6.00702 15.8013 6.03311C15.741 6.05921 15.6865 6.09692 15.6408 6.1441C15.5951 6.19127 15.5591 6.24698 15.535 6.30805C15.5108 6.36912 15.499 6.43435 15.5 6.50001V13.5C15.5 13.6326 15.5527 13.7598 15.6464 13.8536C15.7402 13.9473 15.8674 14 16 14C16.1326 14 16.2598 13.9473 16.3536 13.8536C16.4473 13.7598 16.5 13.6326 16.5 13.5V6.50001C16.5011 6.433 16.4887 6.36646 16.4636 6.30434C16.4384 6.24221 16.401 6.18578 16.3536 6.13839C16.3062 6.091 16.2498 6.05362 16.1877 6.02848C16.1256 6.00333 16.059 5.99093 15.992 5.99201Z" fill="currentColor"/>
</svg>
