<svg width="20" height="20" viewBox="0 0 20 20" fill="none" xmlns="http://www.w3.org/2000/svg">
<path d="M3.994 7.48999C3.99744 7.3602 4.05123 7.23684 4.144 7.146L8.144 3.146C8.19045 3.09943 8.24562 3.0625 8.30637 3.03729C8.36711 3.01209 8.43224 2.99911 8.498 2.99911C8.56377 2.99911 8.62889 3.01209 8.68964 3.03729C8.75038 3.0625 8.80556 3.09943 8.852 3.146L12.852 7.146C12.8985 7.19248 12.9354 7.24767 12.9605 7.30841C12.9857 7.36915 12.9986 7.43426 12.9986 7.5C12.9986 7.56574 12.9857 7.63085 12.9605 7.69159C12.9354 7.75233 12.8985 7.80752 12.852 7.854C12.8055 7.90049 12.7503 7.93737 12.6896 7.96252C12.6288 7.98768 12.5637 8.00064 12.498 8.00064C12.4323 8.00064 12.3672 7.98768 12.3064 7.96252C12.2457 7.93737 12.1905 7.90049 12.144 7.854L8.998 4.707V14.5C8.998 15.334 9.664 16 10.498 16H15.498C15.6306 16 15.7578 16.0527 15.8516 16.1465C15.9453 16.2402 15.998 16.3674 15.998 16.5C15.998 16.6326 15.9453 16.7598 15.8516 16.8535C15.7578 16.9473 15.6306 17 15.498 17H10.498C9.123 17 7.998 15.875 7.998 14.5V4.707L4.852 7.854C4.78172 7.92619 4.69126 7.97544 4.59249 7.99533C4.49372 8.01522 4.39125 8.00483 4.2985 7.96548C4.20575 7.92614 4.12705 7.85969 4.07271 7.77484C4.01838 7.69 3.99094 7.5907 3.994 7.48999Z" fill="currentColor"/>
</svg>
