<svg width="20" height="20" viewBox="0 0 20 20" fill="none" xmlns="http://www.w3.org/2000/svg">
<path d="M9.747 2.99799C9.67341 2.99779 9.60067 3.01384 9.53399 3.04499L3.77999 5.75399C3.69445 5.79473 3.62226 5.85894 3.5718 5.93915C3.52134 6.01935 3.49469 6.11223 3.49499 6.20699V13.5C3.4949 13.5927 3.52059 13.6835 3.56915 13.7625C3.61771 13.8414 3.68725 13.9053 3.77001 13.947L9.772 16.949C9.84153 16.9838 9.91822 17.002 9.996 17.002C10.0738 17.002 10.1505 16.9838 10.22 16.949L16.222 13.947C16.3048 13.9053 16.3743 13.8414 16.4229 13.7625C16.4714 13.6835 16.4971 13.5927 16.497 13.5V6.58399C16.5081 6.52383 16.5081 6.46214 16.497 6.40199V6.20699C16.4971 6.11202 16.4702 6.01898 16.4194 5.93876C16.3685 5.85853 16.2959 5.79444 16.21 5.75399L10.46 3.04699C10.3935 3.01515 10.3207 2.99841 10.247 2.99799H9.747ZM9.85799 3.99799H10.136L15.146 6.35799L9.997 8.86799L4.84899 6.35799L9.85799 3.99799ZM4.49499 7.29699L9.497 9.73699V15.693L4.49499 13.191V7.29699ZM15.497 7.29799V13.19L10.497 15.69V9.73499L15.497 7.29799Z" fill="currentColor"/>
</svg>
