<svg width="20" height="20" viewBox="0 0 20 20" fill="none" xmlns="http://www.w3.org/2000/svg">
<path d="M7.52295 8.99999C7.60697 9.00411 7.68858 9.02937 7.76025 9.07342C7.83192 9.11746 7.89136 9.1789 7.93298 9.252L11.933 16.252C11.9764 16.328 11.999 16.4139 11.9988 16.5014C11.9985 16.5889 11.9753 16.6748 11.9315 16.7505C11.8877 16.8262 11.8249 16.8891 11.7491 16.9329C11.6734 16.9766 11.5875 16.9998 11.5 17H3.5C3.41244 17 3.32648 16.9769 3.25061 16.9332C3.17474 16.8895 3.11157 16.8266 3.06763 16.7509C3.02368 16.6752 3.00042 16.5892 3.00012 16.5017C2.99982 16.4141 3.02261 16.328 3.06604 16.252L7.06604 9.252C7.11162 9.17199 7.17839 9.1061 7.25903 9.06164C7.33967 9.01717 7.43095 8.99584 7.52295 8.99999Z" fill="currentColor"/>
<path d="M12.5 6C13.323 6 14 6.677 14 7.5C14 8.323 13.323 9 12.5 9C11.677 9 11 8.323 11 7.5C11 6.677 11.677 6 12.5 6Z" fill="currentColor"/>
<path d="M3.5 3C3.36739 3 3.24021 3.05268 3.14645 3.14645C3.05268 3.24021 3 3.36739 3 3.5V14.352L4 12.602V4H16V16H12.9C13.023 16.34 13.017 16.687 12.904 17H16.5C16.6326 17 16.7598 16.9473 16.8536 16.8536C16.9473 16.7598 17 16.6326 17 16.5V3.5C17 3.36739 16.9473 3.24021 16.8536 3.14645C16.7598 3.05268 16.6326 3 16.5 3H3.5Z" fill="currentColor"/>
</svg>
