<svg width="20" height="20" viewBox="0 0 20 20" fill="none" xmlns="http://www.w3.org/2000/svg">
<path d="M4.49601 3C3.83901 3.01 3.83901 3.99 4.49601 4H4.74601C5.49601 4 5.99601 4.5 5.99601 5.25V14.75C5.99601 15.5 5.49601 16 4.74601 16H4.49601C3.83901 16.01 3.83901 16.99 4.49601 17H10.496C11.153 16.99 11.153 16.01 10.496 16H10.246C9.49601 16 8.99601 15.5 8.99601 14.75V10H11.496C11.579 10 11.721 10.057 11.83 10.166C11.939 10.275 11.996 10.416 11.996 10.5C12.005 11.157 12.986 11.157 12.996 10.5V8.5C12.996 8.36739 12.9434 8.24021 12.8496 8.14645C12.7558 8.05268 12.6286 8 12.496 8C12.3634 8 12.2362 8.05268 12.1424 8.14645C12.0487 8.24021 11.996 8.36739 11.996 8.5C11.9818 8.62742 11.923 8.74571 11.83 8.834C11.7417 8.92696 11.6234 8.98575 11.496 9H8.99601V4H13.746C13.756 3.705 14.362 4.168 14.609 4.434C14.856 4.699 14.996 5.054 14.996 5.25V5.5C15.005 6.157 15.986 6.157 15.996 5.5V3.5C15.996 3.36739 15.9434 3.24021 15.8496 3.14645C15.7558 3.05268 15.6286 3 15.496 3H4.74601H4.49601Z" fill="currentColor"/>
</svg>
