<svg width="20" height="20" viewBox="0 0 20 20" fill="none" xmlns="http://www.w3.org/2000/svg">
<path d="M13.5 3C12.5717 3 11.6815 3.36877 11.0251 4.02515C10.3687 4.68152 10 5.57174 10 6.5C10 7.42826 10.3687 8.31848 11.0251 8.97485C11.6815 9.63123 12.5717 10 13.5 10C14.4283 10 15.3185 9.63123 15.9749 8.97485C16.6313 8.31848 17 7.42826 17 6.5C17 5.57174 16.6313 4.68152 15.9749 4.02515C15.3185 3.36877 14.4283 3 13.5 3ZM13 4H14V6H16V7H14V9H13V7H11V6H13V4Z" fill="currentColor"/>
<path d="M6.48399 4.00001C6.35686 4.00391 6.23598 4.05612 6.14598 4.14601L3.14598 7.14601C3.07587 7.21594 3.02811 7.30513 3.00874 7.40223C2.98938 7.49934 2.99927 7.60001 3.03719 7.69148C3.0751 7.78295 3.13934 7.8611 3.22173 7.91603C3.30412 7.97096 3.40096 8.00019 3.49999 8.00001H6.49999C6.63259 8.00001 6.75976 7.94736 6.85353 7.85359C6.9473 7.75982 6.99999 7.63262 6.99999 7.50001V5.00001H8.49999C9.17599 5.01001 9.17599 3.99001 8.49999 4.00001H6.49999V4.00203L6.48399 4.00001ZM2.99999 9.00001V16.5C2.99999 16.6326 3.05267 16.7598 3.14644 16.8536C3.24021 16.9474 3.36738 17 3.49999 17H13.5C13.6326 17 13.7598 16.9474 13.8535 16.8536C13.9473 16.7598 14 16.6326 14 16.5V11.5C14.01 10.824 12.99 10.824 13 11.5V16H3.99999V9.00001H2.99999Z" fill="currentColor"/>
</svg>
