<svg width="20" height="20" viewBox="0 0 20 20" fill="none" xmlns="http://www.w3.org/2000/svg">
<path d="M15.492 2.99201C15.4264 2.99305 15.3615 3.00702 15.3013 3.03311C15.241 3.05921 15.1865 3.09692 15.1408 3.14409C15.0951 3.19127 15.0591 3.24698 15.035 3.30805C15.0108 3.36912 14.999 3.43434 15 3.50001V4.50001C14.99 5.17601 16.01 5.17601 16 4.50001V3.50001C16.0011 3.433 15.9887 3.36645 15.9635 3.30433C15.9384 3.24221 15.901 3.18578 15.8536 3.13839C15.8062 3.091 15.7498 3.05362 15.6877 3.02847C15.6256 3.00333 15.559 2.99093 15.492 2.99201ZM9.48402 3.00001C9.35688 3.00391 9.236 3.05612 9.14601 3.14601L4.14601 8.14601C4.10194 8.1918 4.06768 8.2461 4.04533 8.3056C4.02298 8.36509 4.01299 8.42852 4.016 8.49201L4.00001 8.50801V10.5C3.99001 11.176 5.01001 11.176 5.00001 10.5V9.00001H9.50001C9.63262 9.00001 9.75979 8.94733 9.85356 8.85356C9.94733 8.75979 10 8.63262 10 8.50001V4.00001H10.5C11.176 4.01001 11.176 2.99001 10.5 3.00001H9.50001V3.00201L9.48402 3.00001ZM12.5 3.00001C11.824 2.99001 11.824 4.01001 12.5 4.00001H13.5C14.176 4.01001 14.176 2.99001 13.5 3.00001H12.5ZM15.492 5.99201C15.4264 5.99305 15.3615 6.00702 15.3013 6.03311C15.241 6.05921 15.1865 6.09692 15.1408 6.14409C15.0951 6.19127 15.0591 6.24698 15.035 6.30805C15.0108 6.36912 14.999 6.43434 15 6.50001V7.50001C14.99 8.17601 16.01 8.17601 16 7.50001V6.50001C16.0011 6.433 15.9887 6.36645 15.9635 6.30433C15.9384 6.24221 15.901 6.18578 15.8536 6.13839C15.8062 6.091 15.7498 6.05362 15.6877 6.02847C15.6256 6.00333 15.559 5.99093 15.492 5.99201ZM15.492 8.99201C15.4264 8.99305 15.3615 9.00702 15.3013 9.03311C15.241 9.05921 15.1865 9.09692 15.1408 9.14409C15.0951 9.19127 15.0591 9.24698 15.035 9.30805C15.0108 9.36912 14.999 9.43434 15 9.50001V10.5C14.99 11.176 16.01 11.176 16 10.5V9.50001C16.0011 9.433 15.9887 9.36645 15.9635 9.30433C15.9384 9.24221 15.901 9.18578 15.8536 9.13839C15.8062 9.091 15.7498 9.05362 15.6877 9.02847C15.6256 9.00333 15.559 8.99093 15.492 8.99201ZM4.49202 11.992C4.42635 11.9931 4.36155 12.007 4.30128 12.0331C4.24102 12.0592 4.18648 12.0969 4.14079 12.1441C4.0951 12.1913 4.05914 12.247 4.03499 12.308C4.01083 12.3691 3.99895 12.4343 4.00001 12.5V13.5C3.99001 14.176 5.01001 14.176 5.00001 13.5V12.5C5.00109 12.433 4.98869 12.3665 4.96354 12.3043C4.9384 12.2422 4.90101 12.1858 4.85362 12.1384C4.80623 12.091 4.74982 12.0536 4.6877 12.0285C4.62557 12.0033 4.55903 11.9909 4.49202 11.992ZM15.492 11.992C15.4264 11.9931 15.3615 12.007 15.3013 12.0331C15.241 12.0592 15.1865 12.0969 15.1408 12.1441C15.0951 12.1913 15.0591 12.247 15.035 12.308C15.0108 12.3691 14.999 12.4343 15 12.5V13.5C14.99 14.176 16.01 14.176 16 13.5V12.5C16.0011 12.433 15.9887 12.3665 15.9635 12.3043C15.9384 12.2422 15.901 12.1858 15.8536 12.1384C15.8062 12.091 15.7498 12.0536 15.6877 12.0285C15.6256 12.0033 15.559 11.9909 15.492 11.992ZM4.49202 14.992C4.42635 14.993 4.36155 15.007 4.30128 15.0331C4.24102 15.0592 4.18648 15.0969 4.14079 15.1441C4.0951 15.1913 4.05914 15.247 4.03499 15.308C4.01083 15.3691 3.99895 15.4343 4.00001 15.5V16.5C3.99001 17.176 5.01001 17.176 5.00001 16.5V15.5C5.00109 15.433 4.98869 15.3665 4.96354 15.3043C4.9384 15.2422 4.90101 15.1858 4.85362 15.1384C4.80623 15.091 4.74982 15.0536 4.6877 15.0285C4.62557 15.0033 4.55903 14.9909 4.49202 14.992ZM15.492 14.992C15.4264 14.993 15.3615 15.007 15.3013 15.0331C15.241 15.0592 15.1865 15.0969 15.1408 15.1441C15.0951 15.1913 15.0591 15.247 15.035 15.308C15.0108 15.3691 14.999 15.4343 15 15.5V16.5C14.99 17.176 16.01 17.176 16 16.5V15.5C16.0011 15.433 15.9887 15.3665 15.9635 15.3043C15.9384 15.2422 15.901 15.1858 15.8536 15.1384C15.8062 15.091 15.7498 15.0536 15.6877 15.0285C15.6256 15.0033 15.559 14.9909 15.492 14.992ZM6.50001 16C5.82401 15.99 5.82401 17.01 6.50001 17H7.50001C8.17601 17.01 8.17601 15.99 7.50001 16H6.50001ZM9.50001 16C8.82401 15.99 8.82401 17.01 9.50001 17H10.5C11.176 17.01 11.176 15.99 10.5 16H9.50001ZM12.5 16C11.824 15.99 11.824 17.01 12.5 17H13.5C14.176 17.01 14.176 15.99 13.5 16H12.5Z" fill="currentColor"/>
</svg>
