<svg width="20" height="20" viewBox="0 0 20 20" fill="none" xmlns="http://www.w3.org/2000/svg">
<path d="M16.996 6H15.996V4L16.85 3.146C16.941 3.236 16.996 3.362 16.996 3.5V6ZM15.996 4L16.85 3.147C16.8037 3.1002 16.7486 3.06309 16.6878 3.03785C16.627 3.01261 16.5618 2.99974 16.496 3H7.496C7.36367 3.00014 7.23677 3.05263 7.143 3.146L3.143 7.154C3.09642 7.20044 3.05945 7.25561 3.03423 7.31636C3.009 7.3771 2.99601 7.44223 2.996 7.508V16.5C2.996 16.6326 3.04868 16.7598 3.14244 16.8536C3.23621 16.9473 3.36339 17 3.496 17H16.496C16.6286 17 16.7558 16.9473 16.8496 16.8536C16.9433 16.7598 16.996 16.6326 16.996 16.5V14C16.9988 12.9409 16.5917 11.9217 15.86 11.156L15.85 11.146L13.703 9H16.496C17.173 9.01 17.173 7.99 16.496 8H12.557C12.4811 7.99019 12.404 7.99792 12.3316 8.02259C12.2592 8.04727 12.1934 8.08823 12.1393 8.14232C12.0852 8.19641 12.0443 8.2622 12.0196 8.33461C11.9949 8.40703 11.9872 8.48414 11.997 8.56V12.5C11.987 13.176 13.007 13.176 12.997 12.5V9.707L15.139 11.85C15.687 12.42 15.996 13.192 15.996 14V16H3.996V7.715L7.703 4H15.996Z" fill="currentColor"/>
</svg>
