<svg width="20" height="20" viewBox="0 0 20 20" fill="none" xmlns="http://www.w3.org/2000/svg">
<path d="M9.48 3C9.40534 3.00207 9.33211 3.02084 9.26566 3.05493C9.1992 3.08902 9.14122 3.13756 9.09599 3.19699L4.146 8.147C4.07623 8.21699 4.02877 8.30608 4.0096 8.40302C3.99043 8.49995 4.00042 8.60038 4.0383 8.69165C4.07618 8.78292 4.14024 8.86092 4.22241 8.9158C4.30459 8.97068 4.40118 8.99998 4.5 9H9.5C9.63261 9 9.75978 8.94731 9.85355 8.85355C9.94731 8.75978 10 8.63261 10 8.5V4H15V16H5V10H4V16.5C4 16.6326 4.05269 16.7598 4.14645 16.8535C4.24022 16.9473 4.36739 17 4.5 17H15.5C15.6326 17 15.7598 16.9473 15.8535 16.8535C15.9473 16.7598 16 16.6326 16 16.5V3.5C16 3.36739 15.9473 3.24022 15.8535 3.14645C15.7598 3.05269 15.6326 3 15.5 3H9.48Z" fill="currentColor"/>
</svg>
