<svg width="20" height="20" viewBox="0 0 20 20" fill="none" xmlns="http://www.w3.org/2000/svg">
<path d="M7.5 3C7.3674 3 7.24023 3.05268 7.14646 3.14645C7.05269 3.24021 7 3.36739 7 3.5V13.14C6.434 12.933 5.71401 12.96 5.01801 13.213C3.66301 13.709 2.78 14.912 3.047 15.898C3.313 16.886 4.627 17.283 5.982 16.788C7.09 16.381 7.91401 15.484 7.99201 14.6L7.99799 6H16V12.14C15.434 11.933 14.714 11.96 14.018 12.213C12.663 12.709 11.78 13.912 12.047 14.898C12.313 15.886 13.627 16.283 14.982 15.788C16.09 15.381 16.914 14.484 16.992 13.6L17 3.5C17 3.36739 16.9473 3.24021 16.8536 3.14645C16.7598 3.05268 16.6326 3 16.5 3H7.5Z" fill="currentColor"/>
</svg>
