<svg width="20" height="20" viewBox="0 0 20 20" fill="none" xmlns="http://www.w3.org/2000/svg">
<path d="M16.494 2.99601C16.4283 2.99705 16.3635 3.01102 16.3033 3.03711C16.243 3.06321 16.1885 3.10092 16.1428 3.14809C16.0971 3.19527 16.0611 3.25098 16.037 3.31205C16.0128 3.37311 16.0009 3.43834 16.002 3.50401V7.29701L13.882 5.18001C13.8746 5.17141 13.8669 5.16308 13.859 5.15501C13.8579 5.15343 13.8566 5.15207 13.855 5.15101C13.8026 5.09713 13.7386 5.05577 13.668 5.03001C11.878 3.30201 9.898 2.69801 7.808 3.15501C5.621 3.63301 3.824 5.20801 3.033 7.33001C2.98685 7.45439 2.99201 7.59202 3.04733 7.7126C3.10265 7.83319 3.20361 7.92686 3.328 7.97301C3.45239 8.01915 3.59001 8.014 3.7106 7.95868C3.83118 7.90335 3.92485 7.80239 3.971 7.67801C4.29492 6.79485 4.83553 6.00724 5.54318 5.38747C6.25083 4.76771 7.10285 4.33566 8.021 4.13101C9.899 3.72101 11.481 4.16101 13.144 5.85401C13.1447 5.85467 13.1453 5.85534 13.146 5.85601C13.1467 5.85667 13.1473 5.85734 13.148 5.85801C13.1589 5.86886 13.1702 5.8792 13.182 5.88901L15.295 8.00401H11.502C11.3694 8.00401 11.2422 8.05668 11.1484 8.15045C11.0547 8.24422 11.002 8.3714 11.002 8.50401C11.002 8.63661 11.0547 8.76379 11.1484 8.85756C11.2422 8.95133 11.3694 9.00401 11.502 9.00401H16.502C16.6346 9.00401 16.7618 8.95133 16.8556 8.85756C16.9493 8.76379 17.002 8.63661 17.002 8.50401V3.50401C17.0031 3.437 16.9907 3.37045 16.9655 3.30833C16.9404 3.24621 16.903 3.18978 16.8556 3.14239C16.8082 3.095 16.7518 3.05762 16.6897 3.03247C16.6276 3.00733 16.561 2.99493 16.494 2.99601ZM3.5 10.996C3.36739 10.996 3.24021 11.0487 3.14645 11.1425C3.05268 11.2362 3 11.3634 3 11.496V16.496C3 16.6286 3.05268 16.7558 3.14645 16.8496C3.24021 16.9433 3.36739 16.996 3.5 16.996C3.63261 16.996 3.75979 16.9433 3.85355 16.8496C3.94732 16.7558 4 16.6286 4 16.496V12.704L6.119 14.823C6.12638 14.8316 6.13405 14.8399 6.142 14.848L6.146 14.85L6.148 14.852C6.20015 14.9058 6.26372 14.9471 6.334 14.973C8.124 16.701 10.104 17.305 12.194 16.848C14.381 16.37 16.178 14.795 16.969 12.672C16.992 12.6104 17.0026 12.5449 17.0003 12.4792C16.9979 12.4135 16.9827 12.3489 16.9554 12.2891C16.9281 12.2293 16.8893 12.1755 16.8412 12.1307C16.7931 12.0859 16.7366 12.051 16.675 12.028C16.6134 12.005 16.5479 11.9944 16.4822 11.9967C16.4165 11.9991 16.3519 12.0143 16.2921 12.0416C16.2323 12.0689 16.1785 12.1077 16.1337 12.1558C16.0889 12.204 16.054 12.2604 16.031 12.322C15.357 14.132 13.832 15.467 11.981 15.872C10.102 16.282 8.521 15.84 6.857 14.147C6.85567 14.1457 6.85434 14.1443 6.853 14.143L6.82 14.112L4.707 11.997H8.5C8.63261 11.997 8.75979 11.9443 8.85355 11.8506C8.94732 11.7568 9 11.6296 9 11.497C9 11.3644 8.94732 11.2372 8.85355 11.1435C8.75979 11.0497 8.63261 10.997 8.5 10.997L3.5 10.996Z" fill="currentColor"/>
</svg>
