<svg width="20" height="20" viewBox="0 0 20 20" fill="none" xmlns="http://www.w3.org/2000/svg">
<path d="M10.492 4C10.3594 4 10.2323 4.05269 10.1385 4.14645C10.0447 4.24022 9.992 4.36739 9.992 4.5C9.992 4.63261 10.0447 4.75978 10.1385 4.85355C10.2323 4.94731 10.3594 5 10.492 5H16.492C16.6246 5 16.7517 4.94731 16.8455 4.85355C16.9393 4.75978 16.992 4.63261 16.992 4.5C16.992 4.36739 16.9393 4.24022 16.8455 4.14645C16.7517 4.05269 16.6246 4 16.492 4H10.492ZM10.492 7C10.3594 7 10.2323 7.05269 10.1385 7.14645C10.0447 7.24022 9.992 7.36739 9.992 7.5C9.992 7.63261 10.0447 7.75978 10.1385 7.85355C10.2323 7.94731 10.3594 8 10.492 8H16.492C16.6246 8 16.7517 7.94731 16.8455 7.85355C16.9393 7.75978 16.992 7.63261 16.992 7.5C16.992 7.36739 16.9393 7.24022 16.8455 7.14645C16.7517 7.05269 16.6246 7 16.492 7H10.492ZM10.492 10C10.3594 10 10.2323 10.0527 10.1385 10.1465C10.0447 10.2402 9.992 10.3674 9.992 10.5C9.992 10.6326 10.0447 10.7598 10.1385 10.8535C10.2323 10.9473 10.3594 11 10.492 11H16.492C16.6246 11 16.7517 10.9473 16.8455 10.8535C16.9393 10.7598 16.992 10.6326 16.992 10.5C16.992 10.3674 16.9393 10.2402 16.8455 10.1465C16.7517 10.0527 16.6246 10 16.492 10H10.492ZM3.492 13C3.35939 13 3.23225 13.0527 3.13848 13.1465C3.04472 13.2402 2.992 13.3674 2.992 13.5C2.992 13.6326 3.04472 13.7598 3.13848 13.8535C3.23225 13.9473 3.35939 14 3.492 14H16.492C16.6246 14 16.7517 13.9473 16.8455 13.8535C16.9393 13.7598 16.992 13.6326 16.992 13.5C16.992 13.3674 16.9393 13.2402 16.8455 13.1465C16.7517 13.0527 16.6246 13 16.492 13H3.492ZM3.47796 16C3.34535 16 3.21822 16.0527 3.12445 16.1465C3.03068 16.2402 2.97796 16.3674 2.97796 16.5C2.97796 16.6326 3.03068 16.7598 3.12445 16.8535C3.21822 16.9473 3.34535 17 3.47796 17H16.523C16.6556 17 16.7828 16.9473 16.8765 16.8535C16.9703 16.7598 17.023 16.6326 17.023 16.5C17.023 16.3674 16.9703 16.2402 16.8765 16.1465C16.7828 16.0527 16.6556 16 16.523 16H3.47796Z" fill="currentColor"/>
<path d="M3.48389 11C3.41822 10.999 3.35348 10.985 3.29321 10.9589C3.23295 10.9328 3.17838 10.8951 3.13269 10.8479C3.087 10.8007 3.05113 10.745 3.02698 10.684C3.00282 10.6229 2.99088 10.5577 2.99194 10.492V5.40399C2.99194 4.53799 3.48 3.74001 4.25 3.31601C4.62968 3.10751 5.05573 2.99817 5.48889 2.99817C5.92205 2.99817 6.34823 3.10751 6.72791 3.31601C7.10487 3.51991 7.42032 3.82117 7.64124 4.18842C7.86215 4.55566 7.98041 4.97544 7.98389 5.40399V10.492C7.99389 11.168 6.97389 11.168 6.98389 10.492V8H3.99194V10.492C3.99261 10.5589 3.97988 10.6253 3.95459 10.6872C3.9293 10.7491 3.89191 10.8054 3.8446 10.8527C3.7973 10.9 3.74101 10.9374 3.67908 10.9627C3.61714 10.988 3.55078 11.0007 3.48389 11ZM3.99194 7H6.98389V5.40399C6.98389 4.91099 6.71097 4.45 6.24597 4.194C6.01362 4.06779 5.75331 4.00168 5.48889 4.00168C5.22447 4.00168 4.96429 4.06779 4.73193 4.194C4.26693 4.45 3.99194 4.91099 3.99194 5.40399V7Z" fill="currentColor"/>
</svg>
