<svg width="20" height="20" viewBox="0 0 20 20" fill="none" xmlns="http://www.w3.org/2000/svg">
<path d="M3.5 3.5C3.36739 3.5 3.24022 3.55268 3.14645 3.64645C3.05269 3.74021 3 3.86739 3 4V7.5H17V6C17 5.86739 16.9473 5.74021 16.8535 5.64645C16.7598 5.55268 16.6326 5.5 16.5 5.5H8V4C8 3.86739 7.94731 3.74021 7.85355 3.64645C7.75978 3.55268 7.63261 3.5 7.5 3.5H3.5Z" fill="currentColor"/>
<path d="M3.5 8.5C3.36739 8.5 3.24022 8.55268 3.14645 8.64645C3.05269 8.74021 3 8.86739 3 9V16C3 16.1326 3.05269 16.2598 3.14645 16.3536C3.24022 16.4473 3.36739 16.5 3.5 16.5H16.5C16.6326 16.5 16.7598 16.4473 16.8535 16.3536C16.9473 16.2598 17 16.1326 17 16V9C17 8.86739 16.9473 8.74021 16.8535 8.64645C16.7598 8.55268 16.6326 8.5 16.5 8.5H3.5Z" fill="currentColor"/>
</svg>
