<svg width="20" height="20" viewBox="0 0 20 20" fill="none" xmlns="http://www.w3.org/2000/svg">
<path d="M8.5 2.99799C7.83726 3.0001 7.2023 3.26445 6.73386 3.73326C6.26541 4.20208 6.00158 4.83725 6 5.49998C6.00053 5.63225 6.05344 5.75891 6.14716 5.85225C6.24087 5.94559 6.36774 5.99799 6.5 5.99799H9.5C9.782 5.99799 10 6.21599 10 6.49799C10 6.77999 9.782 6.99799 9.5 6.99799L6 6.99399C5.875 6.99399 5.14601 6.98398 4.42401 7.36398C3.70201 7.74398 3 8.59399 3 9.99399V10.99C3 12.39 3.7 13.24 4.422 13.621C5.143 14.002 5.872 13.994 6 13.994V14.512C6.00448 15.1727 6.26964 15.805 6.73779 16.2713C7.20595 16.7375 7.83925 17.0002 8.5 17.002H11.5C12.875 17.002 14 15.877 14 14.502V13.994C14.128 13.994 14.855 14.002 15.576 13.621C16.298 13.241 17 12.391 17 10.991V9.99599C17 8.42799 16.33 7.64998 15.863 7.15398C15.8178 7.10631 15.7637 7.06801 15.7037 7.04126C15.6438 7.01451 15.5791 6.99983 15.5134 6.99806C15.4478 6.9963 15.3824 7.00748 15.3211 7.03098C15.2598 7.05447 15.2037 7.08981 15.156 7.13499C15.1083 7.18016 15.07 7.23428 15.0433 7.29426C15.0165 7.35424 15.0018 7.4189 15.0001 7.48455C14.9983 7.5502 15.0095 7.61556 15.033 7.67689C15.0565 7.73822 15.0918 7.79432 15.137 7.84199C15.607 8.34099 16 8.67299 16 9.99599V10.99C16 12.09 15.575 12.492 15.11 12.738C14.643 12.984 14.122 12.994 14 12.994L10.5 12.998C9.824 12.988 9.824 14.008 10.5 13.998L13 13.996V14.502C13 15.336 12.334 16.002 11.5 16.002H8.5C8.30323 16.003 8.10819 15.9652 7.92612 15.8905C7.74404 15.8159 7.57854 15.706 7.43912 15.5671C7.2997 15.4283 7.18913 15.2632 7.11377 15.0814C7.03841 14.8996 6.99973 14.7048 7 14.508V11.998C7 11.359 7.20499 10.875 7.54099 10.539C7.87799 10.203 8.361 9.99799 9 9.99799H11.5C12.225 9.99799 12.871 9.77098 13.322 9.31998C13.773 8.86998 14 8.22299 14 7.49799V5.49799C14 4.12299 12.875 2.99799 11.5 2.99799H8.5Z" fill="currentColor"/>
</svg>
