<svg width="20" height="20" viewBox="0 0 20 20" fill="none" xmlns="http://www.w3.org/2000/svg">
<path d="M3.492 2.99599C3.42634 2.99703 3.36152 3.011 3.30126 3.03709C3.24099 3.06319 3.18646 3.1009 3.14077 3.14807C3.09508 3.19525 3.05914 3.25096 3.03498 3.31203C3.01083 3.3731 2.99894 3.43833 3 3.50399V16.496C2.995 16.834 3.248 17.006 3.5 17.004L4 17V15.004H6V17H14V15.004H16V17H16.5C16.752 17 17.005 16.83 17 16.492V3.50399C17.005 3.16599 16.752 2.99399 16.5 2.99599L16 2.99999V5.00399H14V2.99999H6V5.00399H4V2.99999L3.492 2.99599ZM4 6.00399H6V8.00399H4V6.00399ZM14 6.00399H16V8.00399H14V6.00399ZM8.477 7.00799C8.577 7.00399 8.677 7.03099 8.762 7.08399L12.762 9.58399C12.8339 9.62893 12.8932 9.69143 12.9343 9.7656C12.9754 9.83978 12.997 9.92319 12.997 10.008C12.997 10.0928 12.9754 10.1762 12.9343 10.2504C12.8932 10.3245 12.8339 10.387 12.762 10.432L8.762 12.932C8.6863 12.9796 8.59922 13.0059 8.50985 13.0084C8.42048 13.0109 8.33208 12.9894 8.25386 12.9461C8.17564 12.9028 8.11045 12.8393 8.0651 12.7622C8.01975 12.6852 7.99589 12.5974 7.996 12.508V7.50799C7.9959 7.37877 8.04582 7.25454 8.13531 7.16132C8.22479 7.06811 8.34689 7.01316 8.476 7.00799H8.477ZM4 9.00399H6V11.004H4V9.00399ZM14 9.00399H16V11.004H14V9.00399ZM4 12.004H6V13.996H4V12.004ZM14 12.004H16V13.996H14V12.004Z" fill="currentColor"/>
</svg>
