<svg width="20" height="20" viewBox="0 0 20 20" fill="none" xmlns="http://www.w3.org/2000/svg">
<path d="M11.186 3.26899C11.089 3.17688 10.9745 3.10517 10.8493 3.05811C10.7241 3.01104 10.5907 2.98958 10.457 2.99499C9.56201 3.03499 9.16697 4.14099 9.83397 4.73899L11.207 6.00499H4.50999C3.14899 5.97699 3.14899 8.03299 4.50999 8.00499H7.60197L7.59398 8.01099L2.84398 12.259C1.84898 13.149 3.18302 14.641 4.17802 13.751L6.51799 11.657C6.59999 14.613 9.03599 17.005 12.01 17.005C15.036 17.005 17.508 14.531 17.508 11.505C17.5074 10.7587 17.3543 10.0203 17.0582 9.33525C16.7621 8.65017 16.3292 8.0328 15.786 7.52099L11.186 3.26899ZM12.01 8.00499C13.955 8.00499 15.51 9.55999 15.51 11.505C15.51 13.45 13.955 15.005 12.01 15.005C11.5498 15.007 11.0938 14.9178 10.6683 14.7426C10.2427 14.5674 9.85608 14.3097 9.53068 13.9843C9.20528 13.6589 8.94757 13.2723 8.77238 12.8467C8.59719 12.4212 8.50801 11.9652 8.50999 11.505C8.50999 9.55999 10.065 8.00499 12.01 8.00499Z" fill="currentColor"/>
<path d="M13.7232 11.5035C13.7232 11.9581 13.5408 12.3941 13.216 12.7156C12.8913 13.037 12.4508 13.2177 11.9915 13.2177C11.5322 13.2177 11.0917 13.037 10.7669 12.7156C10.4421 12.3941 10.2597 11.9581 10.2597 11.5035C10.2597 11.0489 10.4421 10.6129 10.7669 10.2915C11.0917 9.96999 11.5322 9.78937 11.9915 9.78937C12.4508 9.78937 12.8913 9.96999 13.216 10.2915C13.5408 10.6129 13.7232 11.0489 13.7232 11.5035Z" fill="currentColor"/>
</svg>
