<svg width="20" height="20" viewBox="0 0 20 20" fill="none" xmlns="http://www.w3.org/2000/svg">
<path d="M16.5 3.073C16.6326 3.073 16.7598 3.12568 16.8535 3.21945C16.9473 3.31322 17 3.44039 17 3.573V4.573C17.0001 4.6387 16.9873 4.70378 16.9622 4.76453C16.9372 4.82527 16.9004 4.88048 16.854 4.927L12 9.78V13.573C12.0001 13.6387 11.9873 13.7038 11.9622 13.7645C11.9372 13.8253 11.9004 13.8805 11.854 13.927L8.854 16.927C8.78407 16.9971 8.69489 17.0449 8.59778 17.0642C8.50067 17.0836 8.40001 17.0737 8.30853 17.0358C8.21706 16.9979 8.13891 16.9336 8.08398 16.8513C8.02905 16.7689 7.99982 16.672 8 16.573V9.78L3.146 4.927C3.09959 4.88048 3.06283 4.82527 3.03778 4.76453C3.01273 4.70378 2.99988 4.6387 3 4.573V3.573C3 3.44039 3.05268 3.31322 3.14645 3.21945C3.24022 3.12568 3.36739 3.073 3.5 3.073H16.5ZM16 4.073H4V4.366L8.854 9.21899C8.9004 9.26551 8.93717 9.32073 8.96222 9.38147C8.98727 9.44221 9.00012 9.50729 9 9.573V15.366L11 13.366V9.573C10.9999 9.50729 11.0127 9.44221 11.0378 9.38147C11.0628 9.32073 11.0996 9.26551 11.146 9.21899L16 4.366V4.073Z" fill="currentColor"/>
</svg>
