<svg width="20" height="20" viewBox="0 0 20 20" fill="none" xmlns="http://www.w3.org/2000/svg">
<path d="M3.5 4C3.36739 4 3.24021 4.05272 3.14645 4.14648C3.05268 4.24025 3 4.36739 3 4.5V15.5C3 15.6326 3.05268 15.7597 3.14645 15.8535C3.24021 15.9473 3.36739 16 3.5 16H6V13C6 11.355 7.355 10 9 10H11.586L10.293 8.70703C10.1483 8.56658 10.0495 8.38561 10.0095 8.18799C9.96947 7.99037 9.99013 7.78528 10.0687 7.59961C10.1474 7.41394 10.2803 7.25638 10.45 7.14758C10.6198 7.03879 10.8185 6.98386 11.02 6.98999C11.2797 6.99792 11.5261 7.10657 11.707 7.29297L14.707 10.293C14.8945 10.4805 14.9998 10.7348 14.9998 11C14.9998 11.2652 14.8945 11.5195 14.707 11.707L11.707 14.707C11.6148 14.8025 11.5044 14.8787 11.3824 14.9312C11.2604 14.9836 11.1292 15.0111 10.9964 15.0122C10.8636 15.0134 10.7319 14.9881 10.609 14.9379C10.4862 14.8876 10.3745 14.8133 10.2806 14.7194C10.1867 14.6255 10.1125 14.5139 10.0622 14.391C10.0119 14.2681 9.9866 14.1363 9.98775 14.0035C9.9889 13.8708 10.0165 13.7396 10.0689 13.6176C10.1213 13.4956 10.1975 13.3852 10.293 13.293L11.586 12H9C8.436 12 8 12.436 8 13V16H16.5C16.6326 16 16.7598 15.9473 16.8536 15.8535C16.9473 15.7597 17 15.6326 17 15.5V6.5C17 6.36739 16.9473 6.24025 16.8536 6.14648C16.7598 6.05272 16.6326 6 16.5 6H8V4.5C8 4.36739 7.94732 4.24025 7.85355 4.14648C7.75979 4.05272 7.63261 4 7.5 4H3.5Z" fill="currentColor"/>
</svg>
