<svg width="20" height="20" viewBox="0 0 20 20" fill="none" xmlns="http://www.w3.org/2000/svg">
<path d="M12.498 2.99999C12.366 3.00029 12.2395 3.05277 12.146 3.146C11.436 3.857 10.098 4.99999 7.5 4.99999C7.36739 4.99999 7.24023 5.05267 7.14646 5.14644C7.05269 5.24021 7 5.36739 7 5.49999V7.99999H6.5C5.742 7.99999 5.113 8.31899 4.594 8.73399C4.074 9.14999 3.632 9.661 3.146 10.146C2.75 10.543 3.45701 11.25 3.85401 10.854C4.30901 10.398 4.65201 10.21 5.03501 10.107C5.41801 10.005 5.875 9.99999 6.5 9.99999H7V14.5C7 15.257 6.43 15.866 5.816 15.977C5.509 16.032 5.196 15.981 4.875 15.748C4.554 15.515 4.22101 15.081 3.97501 14.342C3.93783 14.2289 3.86151 14.1327 3.75977 14.0709C3.65803 14.009 3.53755 13.9855 3.42002 14.0045C3.30248 14.0236 3.19561 14.084 3.11861 14.1748C3.04161 14.2656 2.99955 14.3809 3 14.5V15.5C2.99989 15.5657 3.01272 15.6308 3.03777 15.6915C3.06282 15.7523 3.0996 15.8075 3.146 15.854C4.226 16.932 5.194 17.01 6 17H6.01C6.375 17 6.99101 16.945 7.68801 16.797C7.88001 16.751 8.04801 16.665 8.23101 16.6C8.64501 16.475 9.05301 16.398 9.47301 16.15C10.823 15.354 12 13.76 12 11V9.99999H14.5C14.5657 10.0001 14.6308 9.98728 14.6915 9.96223C14.7523 9.93718 14.8075 9.90039 14.854 9.85399L15.854 8.85399C15.9241 8.78406 15.9719 8.6949 15.9912 8.59779C16.0106 8.50068 16.0007 8.40001 15.9628 8.30853C15.9249 8.21706 15.8607 8.1389 15.7783 8.08397C15.6959 8.02904 15.599 7.99982 15.5 7.99999H12V5.46999C12.266 5.71299 12.533 5.94799 12.832 5.99799C13.465 6.10299 14.069 5.92999 14.598 5.66599C15.654 5.13799 16.498 4.20899 16.854 3.85399C17.307 3.38199 16.618 2.694 16.146 3.146C15.828 3.465 15.305 3.82 14.746 3.91C14.188 4 13.577 3.88699 12.857 3.14999C12.8102 3.10227 12.7544 3.06441 12.6927 3.03864C12.631 3.01288 12.5648 2.99974 12.498 2.99999ZM9.98801 6.01399H10V12C10 13.655 9.55001 14.603 8.86501 15.182C8.66101 15.354 8.40501 15.469 8.13901 15.572C8.64901 14.749 9 13.574 9 12V6.01799C9.35 6.02299 9.70001 6.02499 9.98801 6.01399Z" fill="currentColor"/>
</svg>
