<svg width="20" height="20" viewBox="0 0 20 20" fill="none" xmlns="http://www.w3.org/2000/svg">
<path d="M8.858 3.006C8.50228 3.03194 8.15994 3.15238 7.86636 3.35491C7.57277 3.55743 7.33859 3.83466 7.188 4.15798C7.16029 4.21753 7.14458 4.28196 7.14177 4.34758C7.13896 4.41321 7.14911 4.47875 7.17163 4.54045C7.2171 4.66507 7.31022 4.76654 7.4305 4.8225C7.55077 4.87846 7.68835 4.88433 7.81297 4.83885C7.93759 4.79338 8.03904 4.70025 8.095 4.57997C8.19518 4.36116 8.3712 4.18605 8.59051 4.08696C8.80982 3.98788 9.05758 3.97153 9.288 4.04097C9.768 4.18397 10.065 4.64898 9.993 5.14498C9.95917 5.38306 9.84025 5.60086 9.65825 5.75804C9.47624 5.91523 9.24348 6.00117 9.003 5.99999H3.503C2.827 5.98999 2.827 7.00999 3.503 6.99999H9.003C9.993 6.99999 10.839 6.268 10.982 5.29C11.0243 4.99397 10.9999 4.69221 10.9105 4.40685C10.8212 4.12148 10.6691 3.85974 10.4654 3.64076C10.2618 3.42178 10.0118 3.25112 9.73362 3.14128C9.45549 3.03145 9.15631 2.98524 8.858 3.006ZM14.491 4.99999C13.623 5.00499 12.791 5.46399 12.337 6.24999C12.3042 6.30691 12.2829 6.36976 12.2743 6.43492C12.2658 6.50008 12.2702 6.56628 12.2872 6.62975C12.3042 6.69322 12.3336 6.75271 12.3736 6.80483C12.4137 6.85694 12.4636 6.90066 12.5205 6.93349C12.5774 6.96632 12.6403 6.98763 12.7054 6.99617C12.7706 7.00472 12.8368 7.00033 12.9003 6.98329C12.9637 6.96625 13.0232 6.93687 13.0753 6.89684C13.1274 6.85681 13.1712 6.80691 13.204 6.74999C13.3797 6.44371 13.6581 6.20946 13.9899 6.08867C14.3217 5.96788 14.6855 5.96834 15.017 6.08998C15.704 6.33998 16.107 7.04 15.98 7.76C15.9198 8.10778 15.7385 8.42304 15.4682 8.64998C15.1979 8.87692 14.856 9.00091 14.503 8.99999H3.503C2.827 8.98999 2.827 10.01 3.503 9.99999H14.503C15.713 9.99999 16.756 9.12498 16.966 7.93398C17.0287 7.57351 17.0116 7.2037 16.916 6.85054C16.8204 6.49738 16.6486 6.16944 16.4127 5.88979C16.1768 5.61013 15.8825 5.38555 15.5505 5.23183C15.2185 5.0781 14.8569 4.99896 14.491 4.99999ZM3.503 12C2.827 11.99 2.827 13.01 3.503 13H11.503C12.245 13 12.87 13.535 12.985 14.268C13.0417 14.6211 12.9698 14.9828 12.7824 15.2874C12.5951 15.592 12.3047 15.8193 11.964 15.928C11.6236 16.0385 11.2549 16.0234 10.9247 15.8854C10.5945 15.7475 10.3246 15.4958 10.164 15.176C10.1347 15.1169 10.0941 15.0641 10.0443 15.0208C9.9946 14.9775 9.93678 14.9444 9.87421 14.9235C9.81165 14.9027 9.74556 14.8943 9.67978 14.8991C9.61399 14.9039 9.54979 14.9216 9.49089 14.9513C9.43198 14.981 9.37953 15.022 9.33656 15.0721C9.29359 15.1221 9.26094 15.1802 9.2405 15.2429C9.22006 15.3056 9.21223 15.3717 9.21747 15.4375C9.2227 15.5032 9.2409 15.5673 9.271 15.626C9.54062 16.1572 9.99062 16.5751 10.5404 16.8047C11.0901 17.0343 11.7036 17.0606 12.271 16.879C12.8371 16.695 13.3192 16.3153 13.6307 15.8081C13.9423 15.3008 14.0629 14.6991 13.971 14.111C13.8776 13.5232 13.5779 12.988 13.1256 12.6011C12.6734 12.2143 12.0981 12.0012 11.503 12H3.503Z" fill="currentColor"/>
</svg>
