<svg width="20" height="20" viewBox="0 0 20 20" fill="none" xmlns="http://www.w3.org/2000/svg">
<path d="M6.77499 3C6.21699 3 5.698 3.25001 5.283 3.64301C4.869 4.03601 4.53299 4.56901 4.24299 5.21701C3.65999 6.51301 3.256 8.28901 3.003 10.432C2.99453 10.5038 3.00027 10.5765 3.01991 10.6461C3.03955 10.7156 3.0727 10.7806 3.11746 10.8373C3.16222 10.894 3.21771 10.9414 3.28077 10.9767C3.34384 11.012 3.41323 11.0345 3.485 11.043C3.55676 11.0515 3.6295 11.0457 3.69905 11.0261C3.76859 11.0065 3.83358 10.9733 3.89032 10.9285C3.94705 10.8838 3.99443 10.8283 4.02972 10.7652C4.06501 10.7022 4.08752 10.6328 4.09599 10.561C4.33999 8.486 4.742 6.78899 5.246 5.66599C5.498 5.10499 5.776 4.69201 6.039 4.44101C6.303 4.19101 6.52799 4.10001 6.77499 4.10001C7.02299 4.10001 7.24 4.18999 7.496 4.43399C7.753 4.67699 8.022 5.07701 8.268 5.60901C8.76 6.67501 9.162 8.25501 9.457 10.088C9.761 11.976 10.165 13.623 10.732 14.852C11.016 15.466 11.34 15.981 11.746 16.365C12.152 16.75 12.666 17 13.225 17C14.313 17 15.155 16.17 15.745 15.027C16.333 13.884 16.74 12.35 16.995 10.574C17.0157 10.4296 16.9782 10.2829 16.8907 10.1661C16.8032 10.0494 16.6729 9.97219 16.5285 9.95151C16.3841 9.93082 16.2374 9.96833 16.1206 10.0558C16.0039 10.1433 15.9267 10.2736 15.906 10.418C15.664 12.115 15.265 13.558 14.768 14.523C14.27 15.489 13.748 15.9 13.225 15.9C12.977 15.9 12.76 15.81 12.504 15.566C12.247 15.323 11.978 14.923 11.732 14.391C11.24 13.325 10.838 11.745 10.543 9.91199C10.239 8.02399 9.835 6.37701 9.268 5.14801C8.984 4.53401 8.65999 4.01901 8.25399 3.63501C7.84799 3.25001 7.33399 3 6.77499 3Z" fill="currentColor"/>
<path d="M5.75 10C5.61739 10 5.49022 10.0527 5.39645 10.1465C5.30269 10.2402 5.25 10.3674 5.25 10.5C5.25 10.6326 5.30269 10.7598 5.39645 10.8535C5.49022 10.9473 5.61739 11 5.75 11H7.75C7.88261 11 8.00978 10.9473 8.10355 10.8535C8.19731 10.7598 8.25 10.6326 8.25 10.5C8.25 10.3674 8.19731 10.2402 8.10355 10.1465C8.00978 10.0527 7.88261 10 7.75 10H5.75ZM12.25 10C12.1174 10 11.9902 10.0527 11.8965 10.1465C11.8027 10.2402 11.75 10.3674 11.75 10.5C11.75 10.6326 11.8027 10.7598 11.8965 10.8535C11.9902 10.9473 12.1174 11 12.25 11H14.25C14.3826 11 14.5098 10.9473 14.6035 10.8535C14.6973 10.7598 14.75 10.6326 14.75 10.5C14.75 10.3674 14.6973 10.2402 14.6035 10.1465C14.5098 10.0527 14.3826 10 14.25 10H12.25Z" fill="currentColor"/>
</svg>
