<svg width="20" height="20" viewBox="0 0 20 20" fill="none" xmlns="http://www.w3.org/2000/svg">
<path d="M16.998 3V5H14.998V3H16.998ZM14.998 5V7H12.998V5H14.998ZM12.998 5H10.998V3H12.998V5ZM10.998 5V7H8.998V5H10.998ZM8.998 5H6.998V3H8.998V5ZM14.998 13V11H16.998V13H14.998ZM14.998 11H12.998V9H14.998V11ZM14.998 9V7H16.998V9H14.998ZM12.998 9H10.998V7H12.998V9ZM10.998 9V11H8.998V9H10.998ZM8.998 9H6.998V7H8.998V9ZM10.998 11H12.998V13H10.998V11Z" fill="currentColor"/>
<path d="M6 11.004C6.79455 11.0058 7.55603 11.3223 8.11786 11.8841C8.67969 12.446 8.99615 13.2075 8.998 14.002C8.99615 14.7966 8.67969 15.558 8.11786 16.1199C7.55603 16.6817 6.79455 16.9982 6 17C5.20545 16.9982 4.44397 16.6817 3.88214 16.1199C3.32031 15.558 3.00385 14.7966 3.002 14.002C3.00385 13.2075 3.32031 12.446 3.88214 11.8841C4.44397 11.3223 5.20545 11.0058 6 11.004Z" fill="currentColor"/>
</svg>
