<svg width="20" height="20" viewBox="0 0 20 20" fill="none" xmlns="http://www.w3.org/2000/svg">
<path d="M12.498 2.99298C12.3982 2.99278 12.3007 3.02245 12.2179 3.07813C12.1351 3.13381 12.0709 3.21297 12.0335 3.30545C11.9961 3.39793 11.9872 3.49947 12.0079 3.59705C12.0287 3.69462 12.0782 3.78377 12.15 3.853L14.81 6.513L12.137 9.409C12.0514 9.50152 12.0039 9.62295 12.004 9.74899V10.249C12.0039 10.375 12.0514 10.4965 12.137 10.589L14.81 13.486L12.15 16.146C12.1022 16.1921 12.0642 16.2473 12.038 16.3083C12.0117 16.3693 11.9979 16.4349 11.9974 16.5013C11.9968 16.5677 12.0094 16.6335 12.0346 16.695C12.0597 16.7564 12.0968 16.8122 12.1438 16.8592C12.1907 16.9061 12.2466 16.9433 12.308 16.9684C12.3694 16.9936 12.4353 17.0062 12.5017 17.0056C12.5681 17.005 12.6337 16.9912 12.6947 16.965C12.7557 16.9388 12.8109 16.9008 12.857 16.853L15.857 13.853C15.9487 13.7616 16.0014 13.6383 16.004 13.5088C16.0067 13.3794 15.959 13.254 15.871 13.159L13.004 10.054V9.944L15.871 6.83899C15.9587 6.74406 16.0062 6.61885 16.0036 6.48966C16.0009 6.36046 15.9484 6.23731 15.857 6.146L12.857 3.146C12.8105 3.09773 12.7547 3.05931 12.693 3.03302C12.6314 3.00674 12.565 2.99311 12.498 2.99298Z" fill="currentColor"/>
<path d="M8.498 2.99298C8.39824 2.99278 8.30069 3.02245 8.21791 3.07813C8.13514 3.13381 8.07092 3.21297 8.03349 3.30545C7.99607 3.39793 7.98716 3.49947 8.00792 3.59705C8.02868 3.69462 8.07815 3.78377 8.14998 3.853L10.81 6.513L8.13698 9.409C8.05138 9.50152 8.00388 9.62295 8.00398 9.74899V10.249C8.00388 10.375 8.05138 10.4965 8.13698 10.589L10.81 13.486L8.14998 16.146C8.10223 16.1921 8.06416 16.2473 8.03795 16.3083C8.01175 16.3693 7.99794 16.4349 7.99736 16.5013C7.99679 16.5677 8.00942 16.6335 8.03456 16.695C8.0597 16.7564 8.09684 16.8122 8.14379 16.8592C8.19073 16.9061 8.24655 16.9433 8.308 16.9684C8.36945 16.9936 8.43531 17.0062 8.5017 17.0056C8.56809 17.005 8.63369 16.9912 8.69469 16.965C8.75569 16.9388 8.81086 16.9008 8.85698 16.853L11.857 13.853C11.9487 13.7616 12.0014 13.6383 12.004 13.5088C12.0067 13.3794 11.959 13.254 11.871 13.159L9.00398 10.054V9.944L11.871 6.83899C11.9587 6.74406 12.0062 6.61885 12.0036 6.48966C12.0009 6.36046 11.9484 6.23731 11.857 6.146L8.85698 3.146C8.81046 3.09773 8.75471 3.05931 8.69304 3.03302C8.63137 3.00674 8.56504 2.99311 8.498 2.99298Z" fill="currentColor"/>
<path d="M4.498 2.99298C4.39824 2.99278 4.30069 3.02245 4.21791 3.07813C4.13514 3.13381 4.07092 3.21297 4.03349 3.30545C3.99607 3.39793 3.98716 3.49947 4.00792 3.59705C4.02868 3.69462 4.07815 3.78377 4.14998 3.853L6.80998 6.513L4.13698 9.409C4.05138 9.50152 4.00388 9.62295 4.00398 9.74899V10.249C4.00388 10.375 4.05138 10.4965 4.13698 10.589L6.80998 13.486L4.14998 16.146C4.10223 16.1921 4.06416 16.2473 4.03795 16.3083C4.01175 16.3693 3.99794 16.4349 3.99736 16.5013C3.99679 16.5677 4.00942 16.6335 4.03456 16.695C4.0597 16.7564 4.09684 16.8122 4.14379 16.8592C4.19073 16.9061 4.24655 16.9433 4.308 16.9684C4.36945 16.9936 4.43531 17.0062 4.5017 17.0056C4.56809 17.005 4.63369 16.9912 4.69469 16.965C4.75569 16.9388 4.81086 16.9008 4.85698 16.853L7.85698 13.853C7.94871 13.7616 8.00143 13.6383 8.00405 13.5088C8.00666 13.3794 7.95896 13.254 7.87099 13.159L5.00398 10.054V9.944L7.87099 6.83899C7.95866 6.74406 8.00617 6.61885 8.00356 6.48966C8.00095 6.36046 7.94841 6.23731 7.85698 6.146L4.85698 3.146C4.81046 3.09773 4.75471 3.05931 4.69304 3.03302C4.63137 3.00674 4.56504 2.99311 4.498 2.99298Z" fill="currentColor"/>
</svg>
