<svg width="20" height="20" viewBox="0 0 20 20" fill="none" xmlns="http://www.w3.org/2000/svg">
<path d="M13.498 2.99802C12.9379 3.00063 12.3949 3.191 11.9558 3.53873C11.5167 3.88645 11.2069 4.37142 11.076 4.91602C12.2343 5.62857 13.1175 6.71191 13.582 7.98999C14.2287 7.96726 14.8414 7.6951 15.2918 7.23053C15.7422 6.76596 15.9953 6.14507 15.998 5.49802C15.998 4.12302 14.873 2.99802 13.498 2.99802ZM14 10.998C13.2045 11.0001 12.4421 11.3171 11.8796 11.8796C11.3171 12.4421 11.0001 13.2045 10.998 14C11.0001 14.7955 11.3171 15.5579 11.8796 16.1204C12.4421 16.6829 13.2045 16.9999 14 17.002C14.7955 16.9999 15.5579 16.6829 16.1204 16.1204C16.6829 15.5579 16.9999 14.7955 17.002 14C16.9999 13.2045 16.6829 12.4421 16.1204 11.8796C15.5579 11.3171 14.7955 11.0001 14 10.998Z" fill="currentColor"/>
<path d="M7.96899 5.02701C6.65168 5.02965 5.38908 5.55411 4.4576 6.4856C3.52611 7.41708 3.00164 8.6797 2.99899 9.99701C3.00111 11.3145 3.52542 12.5774 4.45702 13.509C5.38861 14.4406 6.65152 14.9649 7.96899 14.967C8.71399 14.967 9.41699 14.79 10.053 14.494C10.032 14.33 10.002 14.169 10.002 14C10.002 13.74 10.032 13.487 10.08 13.24C9.45217 13.6496 8.71862 13.8675 7.96899 13.867C7.46048 13.8682 6.95675 13.7689 6.48669 13.575C6.01664 13.381 5.58952 13.0961 5.22986 12.7366C4.87019 12.3771 4.58506 11.9501 4.39082 11.4802C4.19659 11.0102 4.09707 10.5065 4.09799 9.99802C4.09694 9.48946 4.19631 8.98569 4.39041 8.51562C4.58451 8.04556 4.86952 7.61844 5.22908 7.25879C5.58864 6.89914 6.01568 6.61402 6.48569 6.4198C6.9557 6.22558 7.45944 6.12609 7.968 6.12701C8.4766 6.12596 8.98038 6.22535 9.45045 6.41953C9.92053 6.6137 10.3476 6.89884 10.7072 7.25851C11.0668 7.61819 11.3518 8.04535 11.5459 8.51547C11.7399 8.98559 11.8392 9.48942 11.838 9.99802C11.838 10.236 11.808 10.468 11.768 10.693C12.118 10.454 12.515 10.286 12.932 10.168C12.934 10.111 12.94 10.055 12.94 9.99802C12.9374 8.68053 12.4127 7.41775 11.481 6.48624C10.5493 5.55472 9.28648 5.03039 7.96899 5.02802V5.02701Z" fill="currentColor"/>
</svg>
