<svg width="20" height="20" viewBox="0 0 20 20" fill="none" xmlns="http://www.w3.org/2000/svg">
<path d="M6.04599 3.002C5.88641 2.99489 5.72656 3.00731 5.56999 3.03899C4.34199 3.29099 3.61099 4.40598 3.11499 5.13698C3.07074 5.20218 3.03976 5.27548 3.02382 5.35265C3.00789 5.42983 3.00732 5.50938 3.02213 5.58678C3.03694 5.66418 3.06685 5.73789 3.11016 5.80373C3.15346 5.86957 3.20929 5.92622 3.27449 5.97048C3.33969 6.01474 3.41299 6.04573 3.49016 6.06167C3.56733 6.0776 3.64688 6.07819 3.72428 6.06338C3.80167 6.04856 3.8754 6.01863 3.94124 5.97533C4.00708 5.93203 4.06375 5.8762 4.108 5.81099C4.575 5.12099 5.27101 4.32599 5.81301 4.21499C6.08301 4.15899 6.345 4.19 6.76 4.527C7.175 4.865 7.699 5.53898 8.258 6.68398C8.3074 6.78481 8.3841 6.86976 8.47939 6.92916C8.57467 6.98856 8.68472 7.02002 8.797 7.01998H9.211C9.32384 7.02021 9.43444 6.98864 9.53014 6.92885C9.62583 6.86907 9.70273 6.78351 9.752 6.682C10.3 5.547 10.815 4.87999 11.229 4.54699C11.642 4.21299 11.909 4.182 12.188 4.238C12.744 4.351 13.45 5.14099 13.904 5.81099C13.9482 5.8762 14.0049 5.93203 14.0708 5.97533C14.1366 6.01863 14.2103 6.04856 14.2877 6.06338C14.3651 6.07819 14.4447 6.0776 14.5218 6.06167C14.599 6.04573 14.6723 6.01474 14.7375 5.97048C14.8027 5.92622 14.8585 5.86957 14.9018 5.80373C14.9451 5.73789 14.9751 5.66418 14.9899 5.58678C15.0047 5.50938 15.0041 5.42983 14.9882 5.35265C14.9722 5.27548 14.9413 5.20218 14.897 5.13698C14.405 4.41198 13.657 3.311 12.426 3.062C11.811 2.938 11.101 3.108 10.475 3.613C9.96499 4.025 9.48699 4.80899 9.00499 5.68899C8.51299 4.79999 8.02899 4.011 7.51799 3.596C7.04899 3.214 6.533 3.022 6.045 3.002H6.04599ZM10.236 8.99999C9.46299 8.99999 8.756 9.46499 8.166 10.121C8.11328 10.1796 8.07262 10.2481 8.04634 10.3224C8.02007 10.3968 8.00869 10.4756 8.01287 10.5543C8.01704 10.6331 8.0367 10.7102 8.0707 10.7814C8.10469 10.8525 8.15237 10.9163 8.211 10.969C8.26964 11.0217 8.33808 11.0624 8.41243 11.0886C8.48678 11.1149 8.56558 11.1263 8.64432 11.1221C8.72306 11.1179 8.80022 11.0983 8.87137 11.0643C8.94252 11.0303 9.00627 10.9826 9.05899 10.924C9.60099 10.322 9.99099 10.145 10.363 10.211C10.736 10.277 11.313 10.687 12.003 11.75C12.0574 11.834 12.132 11.903 12.22 11.9508C12.3079 11.9986 12.4064 12.0237 12.5065 12.0237C12.6066 12.0237 12.7051 11.9986 12.793 11.9508C12.881 11.903 12.9556 11.834 13.01 11.75C13.699 10.687 14.276 10.277 14.649 10.21C15.021 10.145 15.411 10.322 15.953 10.924C16.0057 10.9826 16.0695 11.0303 16.1406 11.0643C16.2118 11.0983 16.2889 11.1179 16.3677 11.1221C16.4464 11.1263 16.5252 11.1149 16.5996 11.0886C16.6739 11.0624 16.7424 11.0217 16.801 10.969C16.8596 10.9163 16.9073 10.8525 16.9413 10.7814C16.9753 10.7102 16.995 10.6331 16.9991 10.5543C17.0033 10.4756 16.9919 10.3968 16.9657 10.3224C16.9394 10.2481 16.8987 10.1796 16.846 10.121C16.171 9.37099 15.345 8.86998 14.44 9.02898C13.73 9.15498 13.113 9.714 12.506 10.484C11.899 9.714 11.282 9.15398 10.572 9.02898C10.461 9.00957 10.3486 8.99988 10.236 8.99999Z" fill="currentColor"/>
<path d="M5.504 12C4.129 12 3.004 13.125 3.004 14.5C3.004 15.875 4.129 17 5.504 17C6.16639 16.9979 6.80106 16.7338 7.26944 16.2654C7.73782 15.7971 8.00189 15.1624 8.004 14.5C8.004 13.125 6.879 12 5.504 12Z" fill="currentColor"/>
</svg>
