<svg width="20" height="20" viewBox="0 0 20 20" fill="none" xmlns="http://www.w3.org/2000/svg">
<path d="M9.956 3.00401C8.07213 3.11065 6.30698 3.95836 5.046 5.36201C2.103 8.66601 2.513 13.672 5.096 16.807C5.14196 16.8628 5.19847 16.909 5.26229 16.943C5.32611 16.977 5.396 16.9981 5.46797 17.005C5.53993 17.012 5.61256 17.0047 5.68172 16.9836C5.75087 16.9625 5.81519 16.928 5.871 16.882C5.92681 16.8361 5.97302 16.7795 6.007 16.7157C6.04097 16.6519 6.06204 16.582 6.06901 16.51C6.07597 16.4381 6.06869 16.3654 6.04759 16.2963C6.02648 16.2271 5.99196 16.1628 5.946 16.107C3.694 13.375 3.331 8.94301 5.868 6.09401C8.024 3.67401 11.934 3.35801 14.303 5.66301C16.241 7.54801 16.509 10.847 14.571 12.807C13.053 14.343 10.447 14.537 8.948 12.918C7.849 11.732 7.73 9.70801 8.983 8.63301C9.40357 8.28189 9.93727 8.09534 10.485 8.10801C11.009 8.12701 11.466 8.33201 11.776 8.78801C11.921 9.00101 12.013 9.37001 11.977 9.65501C11.941 9.94001 11.85 10.1 11.607 10.188C11.539 10.2126 11.4766 10.2503 11.4232 10.299C11.3698 10.3477 11.3265 10.4064 11.2958 10.4718C11.2652 10.5372 11.2476 10.6081 11.2443 10.6802C11.241 10.7524 11.2519 10.8246 11.2765 10.8925C11.3011 10.9605 11.3388 11.0229 11.3875 11.0763C11.4361 11.1297 11.4949 11.173 11.5603 11.2037C11.6257 11.2344 11.6965 11.2519 11.7687 11.2552C11.8409 11.2585 11.913 11.2476 11.981 11.223C12.638 10.985 12.996 10.371 13.069 9.79301C13.1419 9.22259 13.0051 8.6451 12.684 8.16801C12.167 7.40801 11.337 7.04001 10.524 7.01001C9.69914 6.98245 8.89376 7.26422 8.266 7.80001C6.485 9.32601 6.648 12.054 8.141 13.667C10.097 15.778 13.425 15.532 15.354 13.581C17.755 11.152 17.43 7.16901 15.071 4.87401C13.653 3.49401 11.787 2.89701 9.956 3.00401Z" fill="currentColor"/>
</svg>
