<svg width="20" height="20" viewBox="0 0 20 20" fill="none" xmlns="http://www.w3.org/2000/svg">
<path d="M15.463 3.09C15.3631 3.09165 15.2656 3.12049 15.1808 3.1734C15.0961 3.22631 15.0273 3.30131 14.982 3.39034C14.9367 3.47937 14.9164 3.57906 14.9235 3.67872C14.9305 3.77838 14.9646 3.87424 15.022 3.956C15.52 4.685 15.92 5.228 15.92 6.56C15.92 8.924 14.008 11.853 9 11.853C6.821 11.853 5.548 11.474 4.87 11.054C4.19 10.634 4.07 10.25 4.07 9.953C4.07 9.495 4.521 8.109 7.567 7.773C8.297 7.716 8.214 6.619 7.483 6.675C7.47061 6.67579 7.45827 6.67713 7.446 6.679C4.068 7.051 2.97 8.793 2.97 9.953C2.97 10.626 3.349 11.408 4.288 11.99C5.228 12.571 6.696 12.953 8.999 12.953C14.451 12.953 17.021 9.539 17.021 6.56C17.021 4.978 16.425 4.064 15.927 3.335C15.8762 3.25841 15.807 3.19577 15.7258 3.1528C15.6446 3.10983 15.5539 3.08789 15.462 3.089L15.463 3.09ZM11.471 6.92C10.826 6.928 10.72 7.85 11.346 8.004C12.1376 8.21501 12.8865 8.56219 13.559 9.03C14.16 9.45 14.791 8.548 14.189 8.127C13.4127 7.58714 12.5485 7.18619 11.635 6.942C11.5818 6.92647 11.5265 6.91905 11.471 6.92ZM16.285 11.112C16.1989 11.1153 16.1148 11.1387 16.0395 11.1804C15.9641 11.2222 15.8996 11.281 15.8511 11.3522C15.8027 11.4235 15.7716 11.5051 15.7605 11.5905C15.7494 11.6759 15.7584 11.7627 15.787 11.844C15.882 12.125 15.92 12.367 15.92 12.524C15.92 12.683 15.936 12.854 15.926 13.108C15.916 13.362 15.881 13.672 15.787 13.998C15.6 14.652 15.203 15.366 14.211 15.916C13.569 16.273 14.104 17.236 14.746 16.879C15.996 16.186 16.596 15.171 16.844 14.303C16.968 13.869 17.011 13.469 17.024 13.153C17.037 12.836 17.022 12.573 17.022 12.523C17.022 12.203 16.954 11.863 16.83 11.494C16.7934 11.3795 16.7203 11.2802 16.6218 11.2112C16.5234 11.1422 16.4051 11.1074 16.285 11.112Z" fill="currentColor"/>
<path d="M9.463 2.99399C9.33091 2.9961 9.20503 3.05039 9.11284 3.14501C9.02066 3.23964 8.96966 3.36689 8.971 3.49899V10.453C8.971 10.5856 9.02368 10.7128 9.11745 10.8065C9.21121 10.9003 9.33839 10.953 9.471 10.953C9.60361 10.953 9.73078 10.9003 9.82455 10.8065C9.91832 10.7128 9.971 10.5856 9.971 10.453V3.49899C9.97168 3.43223 9.95898 3.36601 9.93365 3.30424C9.90832 3.24247 9.87088 3.1864 9.82353 3.13933C9.77618 3.09226 9.71989 3.05515 9.65797 3.03019C9.59605 3.00523 9.52975 2.99292 9.463 2.99399ZM9.463 13.944C9.39725 13.945 9.33235 13.959 9.27202 13.9852C9.21169 14.0113 9.15711 14.0491 9.11141 14.0964C9.06571 14.1437 9.02978 14.1995 9.00569 14.2607C8.9816 14.3219 8.96981 14.3872 8.971 14.453V16.499C8.971 16.6316 9.02368 16.7588 9.11745 16.8525C9.21121 16.9463 9.33839 16.999 9.471 16.999C9.60361 16.999 9.73078 16.9463 9.82455 16.8525C9.91832 16.7588 9.971 16.6316 9.971 16.499V14.453C9.97208 14.386 9.95968 14.3194 9.93453 14.2573C9.90939 14.1952 9.87201 14.1388 9.82462 14.0914C9.77723 14.044 9.7208 14.0066 9.65867 13.9815C9.59655 13.9563 9.53001 13.9439 9.463 13.945V13.944Z" fill="currentColor"/>
</svg>
