<svg width="20" height="20" viewBox="0 0 20 20" fill="none" xmlns="http://www.w3.org/2000/svg">
<path d="M16.486 7.99199C16.3562 7.99543 16.2328 8.04922 16.142 8.14198L15.396 8.88899L13.719 8.049C13.6145 7.99667 13.4949 7.98262 13.3811 8.00929C13.2673 8.03597 13.1664 8.10167 13.096 8.19499L12.496 8.99599H11.496C11.4303 8.99587 11.3652 9.00872 11.3045 9.03377C11.2437 9.05882 11.1885 9.09558 11.142 9.14198L10.142 10.142C10.0956 10.1885 10.0588 10.2437 10.0338 10.3045C10.0087 10.3652 9.99588 10.4303 9.996 10.496V13.289L8.142 15.142C8.09544 15.1884 8.0585 15.2436 8.03329 15.3044C8.00809 15.3651 7.9951 15.4302 7.9951 15.496C7.9951 15.5618 8.00809 15.6269 8.03329 15.6876C8.0585 15.7484 8.09544 15.8035 8.142 15.85L9.142 16.85C9.18849 16.8965 9.24367 16.9334 9.30441 16.9585C9.36515 16.9837 9.43026 16.9966 9.496 16.9966C9.56175 16.9966 9.62685 16.9837 9.68759 16.9585C9.74833 16.9334 9.80352 16.8965 9.85001 16.85C9.89649 16.8035 9.93337 16.7483 9.95853 16.6876C9.98369 16.6268 9.99663 16.5617 9.99663 16.496C9.99663 16.4302 9.98369 16.3651 9.95853 16.3044C9.93337 16.2437 9.89649 16.1885 9.85001 16.142L9.203 15.496L10.85 13.85C10.8964 13.8035 10.9332 13.7483 10.9582 13.6875C10.9833 13.6268 10.9961 13.5617 10.996 13.496V10.703L11.703 9.99599H12.746C12.8236 9.99599 12.9002 9.97791 12.9696 9.94319C13.039 9.90848 13.0994 9.85807 13.146 9.79598L13.646 9.131L15.273 9.94298C15.3668 9.98996 15.473 10.0063 15.5765 9.98958C15.6801 9.97289 15.7757 9.92405 15.85 9.84999L16.85 8.84999C16.9222 8.77971 16.9715 8.68924 16.9913 8.59047C17.0112 8.4917 17.0008 8.38925 16.9615 8.2965C16.9221 8.20374 16.8557 8.12503 16.7708 8.0707C16.686 8.01636 16.5867 7.98893 16.486 7.99199Z" fill="currentColor"/>
<path d="M10.488 2.99599C10.3581 2.99785 10.234 3.05021 10.142 3.14198L8.142 5.14198C8.0956 5.1885 8.05882 5.24372 8.03377 5.30446C8.00872 5.3652 7.99589 5.43028 7.996 5.49599V6.28899L7.289 6.99599H5.496C5.4303 6.99587 5.36522 7.00872 5.30447 7.03377C5.24373 7.05882 5.18852 7.09558 5.142 7.14198L4.142 8.14198C4.09544 8.18843 4.0585 8.24362 4.0333 8.30437C4.00809 8.36511 3.9951 8.43022 3.9951 8.49599C3.9951 8.56176 4.00809 8.62686 4.0333 8.68761C4.0585 8.74835 4.09544 8.80355 4.142 8.84999L4.996 9.70299V12.289L3.142 14.142C3.0956 14.1885 3.05882 14.2437 3.03377 14.3045C3.00872 14.3652 2.99589 14.4303 2.996 14.496V16.496C2.996 16.6286 3.04869 16.7558 3.14246 16.8495C3.23623 16.9433 3.36339 16.996 3.496 16.996C3.62861 16.996 3.75578 16.9433 3.84955 16.8495C3.94332 16.7558 3.996 16.6286 3.996 16.496V14.703L5.85001 12.85C5.89641 12.8035 5.93319 12.7483 5.95824 12.6875C5.98329 12.6268 5.99612 12.5617 5.996 12.496V9.49599C5.99612 9.43028 5.98329 9.3652 5.95824 9.30446C5.93319 9.24372 5.89641 9.1885 5.85001 9.14198L5.203 8.49599L5.703 7.99599H7.496C7.56171 7.99611 7.62679 7.98326 7.68753 7.95821C7.74827 7.93316 7.80349 7.89639 7.85001 7.84999L8.85001 6.84999C8.89641 6.80347 8.93319 6.74826 8.95824 6.68752C8.98329 6.62677 8.99612 6.56169 8.996 6.49599V5.70299L10.496 4.20299L11.142 4.84999C11.1885 4.89639 11.2437 4.93316 11.3045 4.95821C11.3652 4.98326 11.4303 4.99611 11.496 4.99599H14.496C14.6286 4.99599 14.7558 4.9433 14.8495 4.84953C14.9433 4.75577 14.996 4.6286 14.996 4.49599V3.99599H16.496C16.6286 3.99599 16.7558 3.9433 16.8495 3.84953C16.9433 3.75577 16.996 3.6286 16.996 3.49599C16.996 3.36338 16.9433 3.23621 16.8495 3.14244C16.7558 3.04867 16.6286 2.99599 16.496 2.99599H14.496C14.3634 2.99599 14.2362 3.04867 14.1425 3.14244C14.0487 3.23621 13.996 3.36338 13.996 3.49599V3.99599H11.703L10.85 3.14198C10.8025 3.09462 10.746 3.05729 10.6838 3.03221C10.6216 3.00713 10.5551 2.99481 10.488 2.99599Z" fill="currentColor"/>
<path d="M15.496 12.996C15.4303 12.9959 15.3652 13.0087 15.3045 13.0338C15.2437 13.0588 15.1885 13.0956 15.142 13.142L14.142 14.142C14.0954 14.1884 14.0585 14.2436 14.0333 14.3044C14.0081 14.3651 13.9951 14.4302 13.9951 14.496C13.9951 14.5618 14.0081 14.6269 14.0333 14.6876C14.0585 14.7484 14.0954 14.8036 14.142 14.85L14.789 15.496L14.142 16.142C14.0481 16.2359 13.9954 16.3632 13.9954 16.496C13.9954 16.6288 14.0481 16.7561 14.142 16.85C14.2359 16.9439 14.3632 16.9966 14.496 16.9966C14.6288 16.9966 14.7561 16.9439 14.85 16.85L15.85 15.85C15.8966 15.8036 15.9335 15.7484 15.9587 15.6876C15.9839 15.6269 15.9969 15.5618 15.9969 15.496C15.9969 15.4302 15.9839 15.3651 15.9587 15.3044C15.9335 15.2436 15.8966 15.1884 15.85 15.142L15.203 14.496L15.703 13.996H16.496C16.6286 13.996 16.7558 13.9433 16.8495 13.8495C16.9433 13.7558 16.996 13.6286 16.996 13.496C16.996 13.3634 16.9433 13.2362 16.8495 13.1425C16.7558 13.0487 16.6286 12.996 16.496 12.996H15.496Z" fill="currentColor"/>
</svg>
