<svg width="20" height="20" viewBox="0 0 20 20" fill="none" xmlns="http://www.w3.org/2000/svg">
<path d="M5.498 12C4.83561 12.0021 4.20094 12.2662 3.73256 12.7346C3.26417 13.2029 3.00011 13.8376 2.998 14.5C2.998 15.875 4.123 17 5.498 17C6.873 17 7.998 15.875 7.998 14.5C7.998 13.125 6.873 12 5.498 12Z" fill="currentColor"/>
<path d="M10.545 3C10.3859 3 10.2333 3.06323 10.1207 3.17575C10.0082 3.28827 9.94499 3.44088 9.94499 3.60001C9.94499 3.75914 10.0082 3.91174 10.1207 4.02426C10.2333 4.13678 10.3859 4.20001 10.545 4.20001H11.522C12.762 4.20001 13.841 4.53999 14.59 5.16599C15.34 5.79099 15.803 6.69301 15.803 8.01801C15.803 10.646 13.452 13.202 9.479 13.807C9.39835 13.8156 9.32027 13.8404 9.24948 13.88C9.1787 13.9196 9.11667 13.9731 9.06715 14.0373C9.01764 14.1016 8.98166 14.1752 8.9614 14.2537C8.94113 14.3323 8.937 14.4141 8.94925 14.4942C8.9615 14.5744 8.98987 14.6513 9.03265 14.7202C9.07544 14.7891 9.13175 14.8486 9.19818 14.8951C9.26461 14.9416 9.33978 14.9742 9.41916 14.9909C9.49854 15.0075 9.58047 15.0079 9.66 14.992C14.069 14.322 17.002 11.355 17.002 8.01801C17.002 6.39701 16.375 5.09199 15.359 4.24399C14.344 3.39699 12.981 3 11.522 3H10.545Z" fill="currentColor"/>
</svg>
