<svg width="20" height="20" viewBox="0 0 20 20" fill="none" xmlns="http://www.w3.org/2000/svg">
<path d="M10.264 3.008C9.34711 2.94799 8.43747 3.20541 7.68799 3.737C7.16059 4.11146 6.73187 4.60823 6.43857 5.18472C6.14527 5.76122 5.99616 6.40023 6.004 7.047C5.26341 7.14945 4.57528 7.48704 4.04099 8.01001C3.40259 8.64433 3.03334 9.50034 3.01001 10.4C3.00333 10.4329 2.99997 10.4664 3 10.5V11.5C3 11.6326 3.05269 11.7598 3.14645 11.8535C3.24022 11.9473 3.36739 12 3.5 12C3.63261 12 3.75978 11.9473 3.85355 11.8535C3.94731 11.7598 4 11.6326 4 11.5V10.535C4.00041 10.5233 4.00041 10.5117 4 10.5C3.99997 10.1691 4.06567 9.84142 4.19324 9.53607C4.32081 9.23072 4.50772 8.95375 4.74316 8.72119C4.9786 8.48864 5.25786 8.30513 5.56476 8.18134C5.87166 8.05754 6.2001 7.9959 6.53101 8C6.60777 8.00163 6.68386 7.98556 6.75342 7.95303C6.82297 7.92051 6.8841 7.87243 6.93207 7.81247C6.98003 7.75251 7.01357 7.6823 7.03003 7.6073C7.04649 7.5323 7.04545 7.45454 7.02701 7.38001C6.95733 6.8407 7.03584 6.29258 7.25412 5.79453C7.47241 5.29647 7.82221 4.86728 8.26599 4.55301C8.7149 4.23505 9.24261 4.04662 9.79138 4.00836C10.3402 3.97011 10.8889 4.08349 11.3776 4.33609C11.8662 4.58869 12.276 4.97079 12.5622 5.44061C12.8483 5.91044 12.9998 6.4499 13 7C13 7.01436 13.0007 7.0287 13.002 7.043C12.843 7.042 12.684 7.04001 12.527 7.05701C11.6547 7.1504 10.8364 7.52447 10.195 8.12299C10.0982 8.21369 10.0414 8.33915 10.0371 8.47174C10.0328 8.60433 10.0813 8.73318 10.172 8.82999C10.2627 8.92679 10.3881 8.9836 10.5207 8.98792C10.6533 8.99223 10.7822 8.9437 10.879 8.853C11.3641 8.40294 11.9815 8.12133 12.6394 8.04999C13.2973 7.97865 13.9607 8.12139 14.531 8.457C15.702 9.147 16.253 10.507 15.891 11.791C15.528 13.076 14.337 13.968 12.969 13.967C11.6 13.966 10.409 13.072 10.049 11.787C10.0383 11.7462 10.0226 11.7069 10.002 11.67C10.002 11.6693 10.002 11.6687 10.002 11.668C9.99995 11.6349 9.99457 11.6021 9.98599 11.57C9.88978 11.1419 9.65626 10.757 9.32101 10.4739C8.98577 10.1908 8.56716 10.0251 8.129 10.002C7.69047 9.9764 7.25555 10.0944 6.89014 10.3382C6.52472 10.582 6.24874 10.9383 6.104 11.353C6.06091 11.4786 6.06945 11.6161 6.12778 11.7354C6.1861 11.8547 6.28943 11.9459 6.41501 11.989C6.54059 12.0321 6.67815 12.0235 6.79742 11.9652C6.9167 11.9069 7.0079 11.8036 7.051 11.678C7.12389 11.4691 7.26313 11.2897 7.44748 11.1673C7.63182 11.0449 7.85114 10.9861 8.07199 11C8.53599 11.026 8.91501 11.348 9.01001 11.783C9.02008 11.8371 9.039 11.8891 9.06601 11.937C9.06777 11.9777 9.07447 12.018 9.086 12.057C9.569 13.777 11.161 14.966 12.966 14.967C14.772 14.967 16.368 13.782 16.853 12.062C17.339 10.342 16.59 8.50901 15.039 7.59601C14.7066 7.40225 14.3484 7.25679 13.975 7.164C13.9924 7.11111 14.0009 7.05568 14 7C13.9999 5.98478 13.614 5.00754 12.9203 4.2663C12.2265 3.52505 11.277 3.07524 10.264 3.008Z" fill="currentColor"/>
<path d="M5.004 13C6.103 13 7.004 13.901 7.004 15C7.004 16.099 6.103 17 5.004 17C3.905 17 3.004 16.099 3.004 15C3.004 13.901 3.905 13 5.004 13Z" fill="currentColor"/>
</svg>
