<svg width="20" height="20" viewBox="0 0 20 20" fill="none" xmlns="http://www.w3.org/2000/svg">
<path d="M5.017 12.985C6.116 12.985 7.017 13.886 7.017 14.985C7.017 16.084 6.116 16.985 5.017 16.985C3.918 16.985 3.017 16.084 3.017 14.985C3.017 13.886 3.918 12.985 5.017 12.985Z" fill="currentColor"/>
<path d="M10.054 3.016C8.38 2.983 6.772 3.70701 6.056 5.28401C6.04903 5.29997 6.04301 5.31631 6.03799 5.33299L4.03799 11.327C3.82799 11.96 4.777 12.276 4.988 11.643L6.972 5.692C6.976 5.683 6.983 5.676 6.988 5.667L14.333 13.012L14.312 13.024L8.35499 15.01C7.72199 15.221 8.038 16.17 8.671 15.96L14.671 13.96C14.6876 13.954 14.704 13.9473 14.72 13.94C16.294 13.224 17.016 11.617 16.982 9.94401C16.947 8.27101 16.211 6.47599 14.866 5.13099C13.522 3.78699 11.727 3.05 10.054 3.016ZM10.034 4.016C11.042 4.036 12.148 4.38299 13.122 5.00999C11.44 5.12599 10.389 5.951 9.522 6.788L7.57899 4.844C8.18799 4.266 9.046 3.996 10.035 4.016H10.034ZM13.513 5.985H14.013V5.98701L14.015 6.48701C14.015 8.09501 13.346 8.921 12.509 9.774L10.226 7.49101C11.079 6.65401 11.904 5.985 13.513 5.985ZM14.99 6.878C15.616 7.851 15.961 8.956 15.982 9.964C16.002 10.953 15.732 11.811 15.154 12.419L13.212 10.477C14.049 9.611 14.873 8.55999 14.99 6.87699V6.878Z" fill="currentColor"/>
</svg>
