<svg width="20" height="20" viewBox="0 0 20 20" fill="none" xmlns="http://www.w3.org/2000/svg">
<path d="M10.494 6C10.772 6 11 6.22 11 6.5V13.5C11.0001 13.5915 10.9751 13.6814 10.9276 13.7596C10.8802 13.8379 10.8122 13.9017 10.731 13.944C10.6498 13.9863 10.5586 14.0055 10.4672 13.9995C10.3759 13.9935 10.288 13.9625 10.213 13.91L5.213 10.41C5.14699 10.3639 5.09307 10.3026 5.05585 10.2312C5.01862 10.1598 4.99918 10.0805 4.99918 10C4.99918 9.91949 5.01862 9.84018 5.05585 9.7688C5.09307 9.69742 5.14699 9.63608 5.213 9.59L10.213 6.09C10.2951 6.03244 10.3927 6.00106 10.493 6H10.494ZM15 6V14H13V6H15Z" fill="currentColor"/>
</svg>
