<svg width="20" height="20" viewBox="0 0 20 20" fill="none" xmlns="http://www.w3.org/2000/svg">
<path d="M9.505 6.00001C9.43899 5.99961 9.37355 6.01224 9.31243 6.03717C9.25131 6.06209 9.19571 6.09883 9.1488 6.14527C9.10189 6.19171 9.0646 6.24695 9.03907 6.30782C9.01354 6.36869 9.00026 6.434 9 6.50001V13.5C8.99977 13.5917 9.02476 13.6817 9.07224 13.7602C9.11972 13.8386 9.18786 13.9025 9.26922 13.9448C9.35057 13.9872 9.44199 14.0063 9.53349 14.0002C9.62499 13.994 9.71304 13.9628 9.788 13.91L14.788 10.41C14.854 10.3639 14.9079 10.3026 14.9452 10.2312C14.9824 10.1598 15.0018 10.0805 15.0018 10C15.0018 9.9195 14.9824 9.84019 14.9452 9.76881C14.9079 9.69743 14.854 9.63609 14.788 9.59001L9.788 6.09001C9.70504 6.03187 9.6063 6.00047 9.505 6.00001ZM5 6.00001V14H7V6.00001H5Z" fill="currentColor"/>
</svg>
