<svg width="20" height="20" viewBox="0 0 20 20" fill="none" xmlns="http://www.w3.org/2000/svg">
<path d="M3.49898 2.99899C3.36637 2.99899 3.23923 3.05167 3.14547 3.14544C3.0517 3.23921 2.99898 3.36638 2.99898 3.49899V10.001H3.99898V3.99899H9.99898V2.99899H3.49898ZM16.001 10.001V16.001H9.99898V17.001H16.501C16.6336 17.001 16.7608 16.9483 16.8546 16.8546C16.9483 16.7608 17.001 16.6336 17.001 16.501V10.001H16.001Z" fill="currentColor"/>
<path d="M12.501 2.99899C12.3684 2.99899 12.2412 3.05167 12.1474 3.14544C12.0537 3.23921 12.001 3.36638 12.001 3.49899C12.001 3.6316 12.0537 3.75878 12.1474 3.85255C12.2412 3.94631 12.3684 3.99899 12.501 3.99899H15.284L11.145 8.14799C11.0987 8.19461 11.0621 8.2499 11.0371 8.31068C11.0122 8.37147 10.9995 8.43657 10.9997 8.50227C10.9999 8.56796 11.0131 8.63297 11.0385 8.69358C11.0638 8.75419 11.1009 8.80921 11.1475 8.8555C11.1941 8.90179 11.2494 8.93844 11.3102 8.96337C11.371 8.9883 11.4361 9.001 11.5018 9.00077C11.5675 9.00054 11.6325 8.98737 11.6931 8.96201C11.7537 8.93666 11.8087 8.89962 11.855 8.853L16.001 4.696V7.49899C16.001 7.6316 16.0537 7.75878 16.1474 7.85255C16.2412 7.94631 16.3684 7.99899 16.501 7.99899C16.6336 7.99899 16.7608 7.94631 16.8546 7.85255C16.9483 7.75878 17.001 7.6316 17.001 7.49899V3.49899C17.001 3.36638 16.9483 3.23921 16.8546 3.14544C16.7608 3.05167 16.6336 2.99899 16.501 2.99899H12.501ZM8.48897 10.997C8.35918 11.0004 8.23582 11.0542 8.14498 11.147L3.99898 15.284V12.501C3.99898 12.3684 3.94633 12.2412 3.85256 12.1474C3.75879 12.0537 3.63159 12.001 3.49898 12.001C3.36637 12.001 3.23923 12.0537 3.14547 12.1474C3.0517 12.2412 2.99898 12.3684 2.99898 12.501V16.501C2.99898 16.6336 3.0517 16.7608 3.14547 16.8546C3.23923 16.9483 3.36637 17.001 3.49898 17.001H7.49898C7.63159 17.001 7.75879 16.9483 7.85256 16.8546C7.94633 16.7608 7.99898 16.6336 7.99898 16.501C7.99898 16.3684 7.94633 16.2412 7.85256 16.1474C7.75879 16.0537 7.63159 16.001 7.49898 16.001H4.696L8.84999 11.857C8.92262 11.7871 8.9724 11.6968 8.99282 11.5981C9.01324 11.4994 9.00337 11.3968 8.96444 11.3038C8.92551 11.2108 8.85934 11.1317 8.77468 11.077C8.69001 11.0222 8.59079 10.9943 8.49001 10.997H8.48897Z" fill="currentColor"/>
</svg>
