<svg width="20" height="20" viewBox="0 0 20 20" fill="none" xmlns="http://www.w3.org/2000/svg">
<path d="M16.491 2.99499C16.3612 2.99843 16.2378 3.05222 16.147 3.14499L12.001 7.28199V4.49899C12.001 4.36638 11.9483 4.23921 11.8546 4.14544C11.7608 4.05167 11.6336 3.99899 11.501 3.99899C11.3684 3.99899 11.2412 4.05167 11.1475 4.14544C11.0537 4.23921 11.001 4.36638 11.001 4.49899V8.49899C11.001 8.6316 11.0537 8.75878 11.1475 8.85255C11.2412 8.94631 11.3684 8.99899 11.501 8.99899H15.501C15.6336 8.99899 15.7608 8.94631 15.8546 8.85255C15.9483 8.75878 16.001 8.6316 16.001 8.49899C16.001 8.36638 15.9483 8.23921 15.8546 8.14544C15.7608 8.05167 15.6336 7.99899 15.501 7.99899H12.698L16.852 3.85499C16.9246 3.78506 16.9744 3.69481 16.9948 3.59608C17.0152 3.49734 17.0054 3.39475 16.9664 3.30175C16.9275 3.20875 16.8613 3.12969 16.7767 3.07494C16.692 3.0202 16.5928 2.99233 16.492 2.99499H16.491ZM4.503 10.997C4.37039 10.997 4.24319 11.0497 4.14942 11.1434C4.05566 11.2372 4.003 11.3644 4.003 11.497C4.003 11.6296 4.05566 11.7568 4.14942 11.8505C4.24319 11.9443 4.37039 11.997 4.503 11.997H7.28602L3.14698 16.146C3.10069 16.1926 3.06406 16.2479 3.03913 16.3087C3.01421 16.3695 3.00149 16.4346 3.00172 16.5003C3.00195 16.566 3.01512 16.631 3.04048 16.6916C3.06583 16.7522 3.10287 16.8072 3.14949 16.8535C3.19611 16.8998 3.25142 16.9364 3.31221 16.9614C3.37299 16.9863 3.4381 16.999 3.50379 16.9988C3.56949 16.9985 3.63447 16.9854 3.69508 16.96C3.75569 16.9347 3.81071 16.8976 3.85701 16.851L8.003 12.694V15.497C8.003 15.6296 8.05566 15.7568 8.14943 15.8505C8.24319 15.9443 8.37039 15.997 8.503 15.997C8.63561 15.997 8.76281 15.9443 8.85658 15.8505C8.95035 15.7568 9.003 15.6296 9.003 15.497V11.497C9.003 11.3644 8.95035 11.2372 8.85658 11.1434C8.76281 11.0497 8.63561 10.997 8.503 10.997H4.503Z" fill="currentColor"/>
<path d="M5.50098 4.99698C5.36838 4.99698 5.24124 5.04966 5.14747 5.14342C5.0537 5.23719 5.00098 5.36437 5.00098 5.49698V9.99899H6.00098V5.99698H10.001V4.99698H5.50098ZM14.003 9.99899V13.999H10.001V14.999H14.503C14.6356 14.999 14.7628 14.9463 14.8566 14.8525C14.9503 14.7588 15.003 14.6316 15.003 14.499V9.99899H14.003Z" fill="currentColor"/>
</svg>
