<svg width="20" height="20" viewBox="0 0 20 20" fill="none" xmlns="http://www.w3.org/2000/svg">
<path d="M6.322 3.033C4.612 3.106 3 4.517 3 6.97C3 9.023 4.07 10.982 5.387 12.683C6.703 14.384 8.287 15.838 9.418 16.843C9.50938 16.9246 9.62751 16.9698 9.75 16.97H10.25C10.3725 16.9698 10.4906 16.9246 10.582 16.843C11.713 15.838 13.297 14.384 14.613 12.683C15.93 10.982 17 9.023 17 6.97C17 4.517 15.388 3.106 13.678 3.033C12.156 2.968 10.625 3.96 10 5.73C9.375 3.96 7.844 2.968 6.322 3.033Z" fill="currentColor"/>
</svg>
