<svg width="20" height="20" viewBox="0 0 20 20" fill="none" xmlns="http://www.w3.org/2000/svg">
<path d="M10.5 3C9.015 3 7.647 3.467 6.639 4.336C5.631 5.205 5 6.485 5 8V11.5C5 13.167 5.001 14.323 4.11 15.438C4.03899 15.5265 4.0002 15.6365 4 15.75V16.5C4 16.6326 4.05268 16.7598 4.14645 16.8536C4.24021 16.9473 4.36739 17 4.5 17H5C6.049 17 7.137 16.366 8.459 14.957L10.127 16.832C10.1739 16.8845 10.2314 16.9266 10.2957 16.9554C10.3599 16.9841 10.4296 16.999 10.5 16.999C10.5704 16.999 10.6401 16.9841 10.7043 16.9554C10.7686 16.9266 10.8261 16.8845 10.873 16.832L12.5 15.002L14.127 16.832C14.1738 16.8847 14.2312 16.9269 14.2955 16.9559C14.3598 16.9848 14.4295 16.9999 14.5 17H15.5C15.6326 17 15.7598 16.9473 15.8536 16.8536C15.9473 16.7598 16 16.6326 16 16.5V8C16 6.485 15.37 5.205 14.361 4.336C13.353 3.467 11.985 3 10.5 3ZM7.492 7C7.55905 6.99882 7.62565 7.01113 7.68784 7.03622C7.75003 7.0613 7.80653 7.09863 7.854 7.146L9.854 9.146C9.92411 9.21593 9.97187 9.3051 9.99124 9.40221C10.0106 9.49932 10.0007 9.59999 9.96278 9.69146C9.92487 9.78294 9.86064 9.86109 9.77825 9.91602C9.69586 9.97095 9.59902 10.0002 9.5 10H7.5C7.36739 10 7.24021 9.94732 7.14645 9.85355C7.05268 9.75979 7 9.63261 7 9.5V7.5C6.99998 7.36877 7.05156 7.24279 7.14361 7.14925C7.23565 7.0557 7.36078 7.0021 7.492 7ZM13.484 7C13.551 6.99785 13.6177 7.0092 13.6803 7.03337C13.7428 7.05753 13.7998 7.09402 13.8479 7.14067C13.8961 7.18731 13.9343 7.24316 13.9605 7.30489C13.9866 7.36662 14 7.43297 14 7.5V9.5C14 9.63261 13.9473 9.75979 13.8536 9.85355C13.7598 9.94732 13.6326 10 13.5 10H11.5C11.401 10.0002 11.3041 9.97095 11.2217 9.91602C11.1394 9.86109 11.0751 9.78294 11.0372 9.69146C10.9993 9.59999 10.9894 9.49932 11.0088 9.40221C11.0281 9.3051 11.0759 9.21593 11.146 9.146L13.146 7.146C13.236 7.05611 13.3569 7.0039 13.484 7Z" fill="currentColor"/>
</svg>
