<svg width="20" height="20" viewBox="0 0 20 20" fill="none" xmlns="http://www.w3.org/2000/svg">
<path d="M12.5 3C12.3674 3 12.2402 3.05272 12.1465 3.14648C12.0527 3.24025 12 3.36739 12 3.5C12 3.63261 12.0527 3.75975 12.1465 3.85352C12.2402 3.94728 12.3674 4 12.5 4H15.295L12.326 6.96899C12.571 7.19599 12.806 7.43103 13.033 7.67603L16 4.70898V7.5C16 7.63261 16.0527 7.75975 16.1465 7.85352C16.2402 7.94728 16.3674 8 16.5 8C16.6326 8 16.7598 7.94728 16.8535 7.85352C16.9473 7.75975 17 7.63261 17 7.5V3.5C17 3.36739 16.9473 3.24025 16.8535 3.14648C16.7598 3.05272 16.6326 3 16.5 3H12.5ZM9.51599 9.78003L6.01001 13.285C5.70535 13.1004 5.35626 13.0018 5 13C3.901 13 3 13.901 3 15C3 16.099 3.901 17 5 17C6.099 17 7 16.099 7 15C7 14.632 6.89201 14.2899 6.71701 13.9919L10.223 10.486C10.0007 10.2373 9.76469 10.0013 9.51599 9.77905V9.78003ZM5 14C5.558 14 6 14.442 6 15C6 15.558 5.558 16 5 16C4.442 16 4 15.558 4 15C4 14.442 4.442 14 5 14Z" fill="currentColor"/>
<path d="M3.504 5C3.37139 5 3.24422 5.05272 3.15045 5.14648C3.05668 5.24025 3.004 5.36739 3.004 5.5C3.004 5.63261 3.05668 5.75975 3.15045 5.85352C3.24422 5.94728 3.37139 6 3.504 6C4.88235 5.99882 6.24741 6.26934 7.52112 6.79614C8.79482 7.32295 9.95218 8.09574 10.927 9.07019C11.9018 10.0446 12.675 11.2017 13.2023 12.4752C13.7296 13.7487 14.0007 15.1136 14 16.4919C14 16.6246 14.0527 16.7518 14.1465 16.8456C14.2402 16.9393 14.3674 16.9919 14.5 16.9919C14.6326 16.9919 14.7598 16.9393 14.8535 16.8456C14.9473 16.7518 15 16.6246 15 16.4919C15 10.1499 9.848 4.99902 3.504 4.99902V5Z" fill="currentColor"/>
</svg>
