<svg width="20" height="20" viewBox="0 0 20 20" fill="none" xmlns="http://www.w3.org/2000/svg">
<path d="M9.49601 2.98199C9.20893 2.98293 8.92813 3.06622 8.68699 3.22198C4.01999 6.13898 2.982 11.708 2.982 15.494C2.982 15.8918 3.14003 16.2734 3.42133 16.5547C3.70264 16.836 4.08418 16.994 4.482 16.994C4.87983 16.994 5.26136 16.836 5.54267 16.5547C5.82397 16.2734 5.982 15.8918 5.982 15.494C5.982 14.596 6.06801 13.6 6.25001 12.59C5.99101 9.189 7.1 5.54699 10.12 3.11899C9.92425 3.02904 9.71143 2.98232 9.49601 2.98199Z" fill="currentColor"/>
<path d="M12.496 2.98199C12.2089 2.98293 11.9281 3.06622 11.687 3.22198C6.97198 6.16898 6.35199 11.999 8.10299 16.086C8.18074 16.2671 8.29338 16.4311 8.43451 16.5686C8.57563 16.7062 8.74248 16.8146 8.9255 16.8877C9.10853 16.9608 9.30416 16.9971 9.50122 16.9946C9.69828 16.992 9.89291 16.9507 10.074 16.873C10.2551 16.7952 10.4191 16.6826 10.5566 16.5415C10.6942 16.4003 10.8026 16.2335 10.8757 16.0505C10.9488 15.8675 10.9851 15.6718 10.9826 15.4748C10.98 15.2777 10.9387 15.0831 10.861 14.902C10.477 14.005 10.271 12.987 10.232 11.951C9.55999 8.80399 10.523 5.33898 13.136 3.12698C12.936 3.03201 12.7174 2.9825 12.496 2.98199Z" fill="currentColor"/>
<path d="M15.496 2.982C15.2089 2.98294 14.9281 3.06622 14.687 3.22199C9.77199 6.29399 9.77199 13.694 14.687 16.765C14.8539 16.8774 15.0418 16.955 15.2393 16.9933C15.4368 17.0316 15.64 17.0297 15.8369 16.9878C16.0337 16.9459 16.2201 16.8649 16.3849 16.7495C16.5497 16.6341 16.6897 16.4867 16.7964 16.3161C16.9031 16.1455 16.9744 15.9552 17.006 15.7565C17.0377 15.5578 17.029 15.3547 16.9805 15.1594C16.9321 14.9641 16.8448 14.7806 16.7239 14.6197C16.6031 14.4588 16.4511 14.3239 16.277 14.223C13.192 12.294 13.192 7.69299 16.277 5.76499C16.5574 5.59514 16.7745 5.33811 16.8949 5.03321C17.0154 4.72831 17.0327 4.39234 16.9441 4.0767C16.8555 3.76105 16.666 3.4831 16.4045 3.28541C16.1429 3.08771 15.8238 2.98115 15.496 2.982Z" fill="currentColor"/>
</svg>
