<svg width="20" height="20" viewBox="0 0 20 20" fill="none" xmlns="http://www.w3.org/2000/svg">
<path d="M13.055 16.055C13.8319 15.9949 14.5613 15.6573 15.11 15.104C16.279 13.934 16.271 12.193 15.399 10.797C14.526 9.401 12.825 8.27 10.565 8.004C7.72499 7.67 4.92499 9.06101 4.03099 11.316C4.00683 11.3771 3.99494 11.4423 3.99599 11.508C3.99703 11.5736 4.011 11.6384 4.0371 11.6987C4.06319 11.759 4.10089 11.8135 4.14806 11.8592C4.19523 11.9049 4.25093 11.9408 4.312 11.965C4.37306 11.9892 4.43829 12.0011 4.50395 12C4.56962 11.999 4.63442 11.985 4.69469 11.9589C4.75495 11.9328 4.80949 11.8951 4.85518 11.8479C4.90087 11.8008 4.93682 11.7451 4.96098 11.684C5.63298 9.98699 8.01401 8.71001 10.447 8.99601C12.437 9.23001 13.861 10.224 14.551 11.328C15.241 12.432 15.233 13.566 14.402 14.396C13.565 15.234 12.414 15.29 11.318 14.66C10.223 14.03 9.236 12.68 9.002 10.691C8.99704 10.6236 8.97847 10.558 8.94743 10.498C8.9164 10.438 8.87352 10.3849 8.8214 10.3419C8.76928 10.299 8.709 10.267 8.64418 10.248C8.57937 10.229 8.51137 10.2233 8.44429 10.2312C8.37722 10.2392 8.31244 10.2607 8.25389 10.2944C8.19535 10.3281 8.14424 10.3733 8.10365 10.4273C8.06307 10.4813 8.03385 10.543 8.01775 10.6086C8.00165 10.6742 7.99902 10.7423 8.01 10.809C8.276 13.069 9.41401 14.719 10.818 15.527C11.521 15.931 12.303 16.117 13.055 16.055ZM9.51399 7.00501C9.58665 7.00311 9.65802 6.98539 9.72313 6.9531C9.78824 6.9208 9.84554 6.87469 9.89101 6.818C10.203 6.441 10.817 6.12199 11.551 6.02899C11.617 6.02186 11.6809 6.00166 11.7391 5.96955C11.7972 5.93743 11.8483 5.89405 11.8895 5.84195C11.9307 5.78986 11.9611 5.73008 11.9789 5.66611C11.9967 5.60214 12.0016 5.53528 11.9933 5.46939C11.985 5.40351 11.9637 5.33993 11.9306 5.28238C11.8974 5.22484 11.8532 5.17447 11.8003 5.13422C11.7475 5.09397 11.6872 5.06464 11.6229 5.04795C11.5587 5.03125 11.4917 5.02753 11.426 5.03699C10.486 5.15499 9.64799 5.54701 9.12099 6.18201C9.05841 6.25551 9.01844 6.34554 9.00591 6.44126C8.99338 6.53697 9.00885 6.63428 9.0504 6.72141C9.09196 6.80854 9.15783 6.88175 9.2401 6.93225C9.32237 6.98276 9.41749 7.00839 9.51399 7.00601V7.00501Z" fill="currentColor"/>
<path d="M6.49999 17C6.6326 17 6.7598 16.9473 6.85357 16.8535C6.94733 16.7598 6.99999 16.6326 6.99999 16.5V13.5C6.99999 13.3674 6.94733 13.2402 6.85357 13.1465C6.7598 13.0527 6.6326 13 6.49999 13H3.49999C3.36738 13 3.24021 13.0527 3.14644 13.1465C3.05267 13.2402 2.99999 13.3674 2.99999 13.5V16.5C2.99999 16.6326 3.05267 16.7598 3.14644 16.8535C3.24021 16.9473 3.36738 17 3.49999 17H6.49999ZM16.5 7C16.6326 7 16.7598 6.94731 16.8536 6.85355C16.9473 6.75978 17 6.63261 17 6.5V3.5C17 3.36739 16.9473 3.24022 16.8536 3.14645C16.7598 3.05269 16.6326 3 16.5 3H13.5C13.3674 3 13.2402 3.05269 13.1464 3.14645C13.0527 3.24022 13 3.36739 13 3.5L13 6.5C13 6.63261 13.0527 6.75978 13.1464 6.85355C13.2402 6.94731 13.3674 7 13.5 7H16.5Z" fill="currentColor"/>
</svg>
