<svg width="20" height="20" viewBox="0 0 20 20" fill="none" xmlns="http://www.w3.org/2000/svg">
<path d="M12.992 3.00701C10.768 3.00701 8.915 4.30701 7.869 6.19701C9.21691 5.87869 10.6221 5.89345 11.963 6.24001C12.2865 6.09284 12.6367 6.01354 12.992 6.00701H13.492C15.52 6.03601 15.52 2.97801 13.492 3.00701H12.992ZM9.933 6.96701C6.235 6.89101 3.002 9.49501 3.002 13.007V14.507C2.973 16.536 6.03 16.536 6.002 14.507V13.007C6.002 11.253 7.805 9.70101 10.328 9.99701C10.701 10.041 11.047 10.115 11.365 10.212C12.673 10.612 13.509 11.422 13.842 12.124C14.071 12.608 14.182 13.318 13.742 13.757C13.247 14.25 12.492 14.106 11.849 13.704C11.145 13.264 10.412 12.344 10.097 10.986C9.89546 10.964 9.69265 10.956 9.49 10.962C8.421 11.015 7.674 11.496 7.293 12.093C7.821 13.944 8.9 15.398 10.26 16.247C11.875 17.257 14.084 17.307 15.596 15.994C15.7371 15.8963 15.8606 15.7752 15.961 15.636C17.152 14.294 17.272 12.357 16.553 10.839C15.801 9.25301 14.271 7.96601 12.244 7.34501C11.7329 7.18885 11.2088 7.07907 10.678 7.01701C10.4306 6.98835 10.182 6.97166 9.933 6.96701Z" fill="currentColor"/>
</svg>
