<svg width="20" height="20" viewBox="0 0 20 20" fill="none" xmlns="http://www.w3.org/2000/svg">
<path d="M9.498 8.996C8.517 8.996 7.705 9.19399 7.045 9.51199C7.037 9.68699 7.01201 9.85299 7.01201 10.033C7.01201 14.101 9.59699 16.645 12.312 16.984C14.335 17.281 14.717 14.217 12.684 14.008C11.399 13.848 10.012 12.965 10.012 10.033C10.012 9.65799 10.035 9.313 10.078 8.996H9.498Z" fill="currentColor"/>
<path d="M13.998 2.99601C12.128 2.99601 10.594 3.683 9.56001 4.856C9.25185 5.21047 8.98882 5.60179 8.77699 6.02101C9.01499 6.00501 9.255 5.99601 9.498 5.99601H9.94801C10.06 5.82801 10.18 5.66601 10.311 5.51701C11.152 4.56301 12.367 3.99601 13.998 3.99601H14.498C15.174 4.00601 15.174 2.98601 14.498 2.99601H13.998ZM9.498 6.99601C7.653 6.99601 6.02699 7.525 4.85499 8.559C3.68399 9.592 2.998 11.126 2.998 12.996V13.496C2.998 13.6286 3.05068 13.7558 3.14445 13.8496C3.23822 13.9433 3.36539 13.996 3.498 13.996C3.63061 13.996 3.75778 13.9433 3.85155 13.8496C3.94531 13.7558 3.998 13.6286 3.998 13.496V12.996C3.998 11.365 4.562 10.15 5.516 9.30803C6.469 8.46803 7.843 7.99601 9.498 7.99601H10.506C13.784 7.99601 15.805 10.173 16.004 11.566C16.0092 11.6342 16.0283 11.7006 16.0601 11.7612C16.092 11.8217 16.1359 11.8751 16.1893 11.918C16.2426 11.9608 16.3041 11.9923 16.37 12.0104C16.436 12.0286 16.505 12.033 16.5727 12.0234C16.6405 12.0138 16.7055 11.9904 16.7638 11.9546C16.8222 11.9189 16.8725 11.8716 16.9118 11.8156C16.9511 11.7596 16.9785 11.6961 16.9923 11.6291C17.0061 11.5621 17.006 11.493 16.992 11.426C16.692 9.31901 14.214 6.99601 10.506 6.99601H9.498Z" fill="currentColor"/>
</svg>
