<svg width="20" height="20" viewBox="0 0 20 20" fill="none" xmlns="http://www.w3.org/2000/svg">
<path d="M15.75 3.10001C14.317 3.10001 13.176 3.70001 12.422 4.51401C11.668 5.32801 11.229 6.29301 10.807 7.16401C10.385 8.03501 9.981 8.81101 9.498 9.31101C9.015 9.81001 8.508 10.1 7.5 10.1H3V12.1H7.5C8.977 12.1 10.148 11.514 10.936 10.701C11.723 9.88801 12.182 8.91401 12.607 8.03501C13.033 7.15601 13.427 6.37101 13.889 5.87301C14.35 5.37501 14.809 5.10001 15.75 5.10001H17V3.10001H15.75Z" fill="currentColor"/>
<path d="M3 4.00003V5.19998H3.75C4.396 5.19998 5.052 5.58001 5.63 6.24301C6.21 6.90601 6.678 7.829 6.92 8.733C7.127 9.506 8.287 9.196 8.08 8.423C7.792 7.348 7.261 6.28503 6.535 5.45303C5.809 4.62203 4.854 4.00003 3.75 4.00003H3ZM16.25 13C14.334 13 13.318 13.905 12.691 14.67C12.378 15.053 12.136 15.385 11.893 15.588C11.65 15.792 11.433 15.901 11 15.901C10.599 15.901 10.285 15.697 9.945 15.254C9.606 14.811 9.305 14.151 9.066 13.459C8.828 12.657 7.624 13.074 7.934 13.852C8.194 14.606 8.519 15.367 8.992 15.985C9.465 16.603 10.151 17.1 11 17.1C11.691 17.1 12.257 16.846 12.662 16.506C13.068 16.166 13.341 15.773 13.622 15.43C14.182 14.745 14.666 14.2 16.25 14.2H17V13H16.25Z" fill="currentColor"/>
</svg>
