<svg width="20" height="20" viewBox="0 0 20 20" fill="none" xmlns="http://www.w3.org/2000/svg">
<path d="M14.152 3.01999C13.656 2.97499 13.113 3.18 12.659 3.633L11.909 4.383C11.8624 4.42944 11.8255 4.48464 11.8003 4.54538C11.7751 4.60613 11.7621 4.67124 11.7621 4.737C11.7621 4.80277 11.7751 4.86788 11.8003 4.92862C11.8255 4.98937 11.8624 5.04456 11.909 5.09101L14.909 8.09101C14.9554 8.13757 15.0106 8.1745 15.0714 8.19971C15.1321 8.22492 15.1972 8.23789 15.263 8.23789C15.3288 8.23789 15.3939 8.22492 15.4546 8.19971C15.5154 8.1745 15.5705 8.13757 15.617 8.09101L16.367 7.34101C16.82 6.88701 17.025 6.344 16.98 5.848C16.935 5.352 16.675 4.942 16.367 4.633L15.367 3.633C15.057 3.325 14.647 3.06499 14.152 3.01999ZM10.755 5.737C10.6254 5.73912 10.5017 5.79146 10.41 5.883L4.15999 12.133C4.09599 12.1973 4.05069 12.2779 4.02898 12.366L3.02898 16.366C3.00842 16.4495 3.00977 16.537 3.03289 16.6198C3.056 16.7027 3.1001 16.7782 3.16094 16.8391C3.22177 16.8999 3.29728 16.944 3.38015 16.9671C3.46301 16.9902 3.55045 16.9916 3.63399 16.971L7.63399 15.971C7.722 15.9496 7.80254 15.9046 7.86699 15.841L14.117 9.59101C14.1636 9.54456 14.2005 9.48937 14.2257 9.42862C14.2509 9.36788 14.2639 9.30277 14.2639 9.237C14.2639 9.17124 14.2509 9.10613 14.2257 9.04538C14.2005 8.98464 14.1636 8.92944 14.117 8.883L11.117 5.883C11.0695 5.83563 11.013 5.79831 10.9508 5.77323C10.8886 5.74815 10.822 5.73582 10.755 5.737Z" fill="currentColor"/>
</svg>
