<svg width="20" height="20" viewBox="0 0 20 20" fill="none" xmlns="http://www.w3.org/2000/svg">
<path d="M6.504 2.996C6.6366 2.996 6.76377 3.04869 6.85754 3.14246C6.95131 3.23622 7.004 3.36339 7.004 3.496V6.504C7.004 6.63661 6.95131 6.76381 6.85754 6.85757C6.76377 6.95134 6.6366 7.004 6.504 7.004H3.496C3.36339 7.004 3.23622 6.95134 3.14245 6.85757C3.04869 6.76381 2.996 6.63661 2.996 6.504V3.496C2.996 3.36339 3.04869 3.23622 3.14245 3.14246C3.23622 3.04869 3.36339 2.996 3.496 2.996H6.504ZM6.004 3.996H3.996V6.004H6.004V3.996ZM6.496 7.98801L3.5 7.99402C3.36774 7.99402 3.24086 8.0464 3.14715 8.13974C3.05344 8.23308 3.00053 8.35974 3 8.492L2.996 14.951C2.996 15.974 3.802 16.988 4.996 16.988C6.191 16.988 6.992 15.966 6.992 14.945L6.996 8.48801C6.996 8.3554 6.94331 8.22823 6.84955 8.13446C6.75578 8.04069 6.62861 7.98801 6.496 7.98801ZM4.996 13.988C5.26122 13.988 5.51556 14.0934 5.70309 14.2809C5.89063 14.4685 5.996 14.7228 5.996 14.988C5.996 15.2532 5.89063 15.5076 5.70309 15.6951C5.51556 15.8826 5.26122 15.988 4.996 15.988C4.73078 15.988 4.47644 15.8826 4.28891 15.6951C4.10137 15.5076 3.996 15.2532 3.996 14.988C3.996 14.7228 4.10137 14.4685 4.28891 14.2809C4.47644 14.0934 4.73078 13.988 4.996 13.988Z" fill="currentColor"/>
<path d="M15.504 3.996C15.6366 3.996 15.7638 4.04869 15.8575 4.14246C15.9513 4.23622 16.004 4.36339 16.004 4.496V7.504C16.004 7.63661 15.9513 7.76381 15.8575 7.85757C15.7638 7.95134 15.6366 8.004 15.504 8.004H12.496C12.3634 8.004 12.2362 7.95134 12.1425 7.85757C12.0487 7.76381 11.996 7.63661 11.996 7.504V4.496C11.996 4.36339 12.0487 4.23622 12.1425 4.14246C12.2362 4.04869 12.3634 3.996 12.496 3.996H15.504ZM15.004 4.996H12.996V7.004H15.004V4.996ZM9.48901 7.98801C9.35895 7.99013 9.23482 8.04287 9.143 8.13501L8.143 9.13501C8.04917 9.22855 7.99629 9.35551 7.996 9.48801V13.488C7.99582 13.587 8.02506 13.6839 8.07998 13.7663C8.13491 13.8487 8.21306 13.9129 8.30453 13.9508C8.39601 13.9887 8.49667 13.9986 8.59378 13.9792C8.69089 13.9599 8.78007 13.9121 8.85 13.842L11.85 10.842C11.9437 10.7482 11.9964 10.6211 11.9964 10.4885C11.9964 10.3559 11.9437 10.2288 11.85 10.135L9.85 8.13501C9.80274 8.08758 9.74643 8.05012 9.68442 8.02487C9.6224 7.99962 9.55596 7.98709 9.48901 7.98801Z" fill="currentColor"/>
<path d="M16.504 12.996C16.6366 12.996 16.7638 13.0487 16.8575 13.1425C16.9513 13.2362 17.004 13.3634 17.004 13.496V16.504C17.004 16.6366 16.9513 16.7638 16.8575 16.8576C16.7638 16.9514 16.6366 17.004 16.504 17.004H13.496C13.3634 17.004 13.2362 16.9514 13.1425 16.8576C13.0487 16.7638 12.996 16.6366 12.996 16.504V13.496C12.996 13.3634 13.0487 13.2362 13.1425 13.1425C13.2362 13.0487 13.3634 12.996 13.496 12.996H16.504ZM16.004 13.996H13.996V16.004H16.004V13.996ZM11.482 12.989C11.3543 12.9924 11.2328 13.0442 11.142 13.134L8.142 16.134C8.07189 16.2039 8.02413 16.2931 8.00476 16.3902C7.98539 16.4873 7.99528 16.588 8.0332 16.6795C8.07112 16.771 8.13535 16.8491 8.21774 16.904C8.30013 16.959 8.39698 16.9882 8.496 16.988H11.496C11.6286 16.988 11.7558 16.9353 11.8495 16.8416C11.9433 16.7478 11.996 16.6206 11.996 16.488V13.488C11.996 13.4212 11.9826 13.355 11.9566 13.2934C11.9306 13.2318 11.8926 13.1761 11.8446 13.1294C11.7967 13.0828 11.7399 13.0463 11.6776 13.022C11.6154 12.9977 11.5488 12.9861 11.482 12.988V12.989Z" fill="currentColor"/>
</svg>
