<svg width="20" height="20" viewBox="0 0 20 20" fill="none" xmlns="http://www.w3.org/2000/svg">
<path d="M3.492 6.004C3.35939 6.004 3.23222 6.05668 3.13845 6.15045C3.04469 6.24422 2.992 6.37139 2.992 6.504V9.504C2.992 9.63661 3.04469 9.76378 3.13845 9.85754C3.23222 9.95131 3.35939 10.004 3.492 10.004H6.492C6.62461 10.004 6.75178 9.95131 6.84555 9.85754C6.93931 9.76378 6.992 9.63661 6.992 9.504V6.504C6.992 6.37139 6.93931 6.24422 6.84555 6.15045C6.75178 6.05668 6.62461 6.004 6.492 6.004H3.492ZM8.492 7.996C8.35939 7.996 8.23222 8.04869 8.13845 8.14246C8.04469 8.23622 7.992 8.36339 7.992 8.496V11.496C7.992 11.6286 8.04469 11.7558 8.13845 11.8495C8.23222 11.9433 8.35939 11.996 8.492 11.996H11.492C11.6246 11.996 11.7518 11.9433 11.8455 11.8495C11.9393 11.7558 11.992 11.6286 11.992 11.496V8.496C11.992 8.36339 11.9393 8.23622 11.8455 8.14246C11.7518 8.04869 11.6246 7.996 11.492 7.996H8.492ZM3.492 11.004C3.35939 11.004 3.23222 11.0567 3.13845 11.1505C3.04469 11.2442 2.992 11.3714 2.992 11.504V14.504C2.992 14.6366 3.04469 14.7638 3.13845 14.8575C3.23222 14.9513 3.35939 15.004 3.492 15.004H6.492C6.62461 15.004 6.75178 14.9513 6.84555 14.8575C6.93931 14.7638 6.992 14.6366 6.992 14.504V11.504C6.992 11.3714 6.93931 11.2442 6.84555 11.1505C6.75178 11.0567 6.62461 11.004 6.492 11.004H3.492ZM8.492 12.996C8.35939 12.996 8.23222 13.0487 8.13845 13.1425C8.04469 13.2362 7.992 13.3634 7.992 13.496V16.496C7.992 16.6286 8.04469 16.7558 8.13845 16.8495C8.23222 16.9433 8.35939 16.996 8.492 16.996H11.492C11.6246 16.996 11.7518 16.9433 11.8455 16.8495C11.9393 16.7558 11.992 16.6286 11.992 16.496V13.496C11.992 13.3634 11.9393 13.2362 11.8455 13.1425C11.7518 13.0487 11.6246 12.996 11.492 12.996H8.492Z" fill="currentColor"/>
<path d="M8.484 3.004C8.3514 3.004 8.22423 3.05668 8.13046 3.15045C8.03669 3.24422 7.984 3.37139 7.984 3.504V6.51199C7.984 6.6446 8.03669 6.77177 8.13046 6.86554C8.22423 6.95931 8.3514 7.01199 8.484 7.01199H11.492C11.6246 7.01199 11.7518 6.95931 11.8455 6.86554C11.9393 6.77177 11.992 6.6446 11.992 6.51199V3.504C11.992 3.37139 11.9393 3.24422 11.8455 3.15045C11.7518 3.05668 11.6246 3.004 11.492 3.004H8.484ZM8.984 4.004H10.992V6.01199H8.984V4.004ZM13.492 5.98801C13.3594 5.98801 13.2322 6.04066 13.1385 6.13443C13.0447 6.2282 12.992 6.3554 12.992 6.48801V9.496C12.992 9.62861 13.0447 9.75578 13.1385 9.84955C13.2322 9.94332 13.3594 9.996 13.492 9.996H16.5C16.6326 9.996 16.7598 9.94332 16.8535 9.84955C16.9473 9.75578 17 9.62861 17 9.496V6.48801C17 6.3554 16.9473 6.2282 16.8535 6.13443C16.7598 6.04066 16.6326 5.98801 16.5 5.98801H13.492ZM13.992 6.98801H16V8.996H13.992V6.98801ZM13.5 10.988C13.3674 10.988 13.2402 11.0407 13.1465 11.1344C13.0527 11.2282 13 11.3554 13 11.488V14.496C13 14.6286 13.0527 14.7558 13.1465 14.8495C13.2402 14.9433 13.3674 14.996 13.5 14.996H16.508C16.6406 14.996 16.7678 14.9433 16.8616 14.8495C16.9553 14.7558 17.008 14.6286 17.008 14.496V11.488C17.008 11.3554 16.9553 11.2282 16.8616 11.1344C16.7678 11.0407 16.6406 10.988 16.508 10.988H13.5ZM14 11.988H16.008V13.996H14V11.988Z" fill="currentColor"/>
</svg>
