<svg width="20" height="20" viewBox="0 0 20 20" fill="none" xmlns="http://www.w3.org/2000/svg">
<path d="M13.469 2.98401C14.309 2.98401 15 3.67501 15 4.51501V4.98401H15.5C16.34 4.98401 17 5.69401 17 6.51501V7.453C17 8.274 16.34 8.98401 15.5 8.98401H14.531C14.34 8.98401 14.131 8.839 13.92 8.771L13.604 9.08801C13.5575 9.1345 13.5023 9.17137 13.4416 9.19653C13.3808 9.22169 13.3157 9.23465 13.25 9.23465C13.1843 9.23465 13.1192 9.22169 13.0584 9.19653C12.9977 9.17137 12.9425 9.1345 12.896 9.08801C12.8495 9.04152 12.8126 8.98634 12.7875 8.9256C12.7623 8.86486 12.7494 8.79975 12.7494 8.73401C12.7494 8.66826 12.7623 8.60316 12.7875 8.54242C12.8126 8.48168 12.8495 8.42649 12.896 8.38L13.396 7.88C13.4424 7.83344 13.4976 7.79651 13.5584 7.7713C13.6191 7.74609 13.6842 7.73312 13.75 7.73312C13.8158 7.73312 13.8809 7.74609 13.9416 7.7713C14.0024 7.79651 14.0576 7.83344 14.104 7.88C14.134 7.91001 14.324 7.98401 14.531 7.98401H15.5C15.786 7.98401 16 7.757 16 7.453V6.51501C16 6.21101 15.786 5.98401 15.5 5.98401H14.516C14.4476 5.98623 14.3796 5.97442 14.3159 5.94928C14.2523 5.92414 14.1945 5.8862 14.1462 5.83783C14.0978 5.78946 14.0599 5.73167 14.0347 5.66806C14.0096 5.60445 13.9978 5.53638 14 5.46802V4.51501C13.9977 4.37491 13.941 4.24117 13.8419 4.14209C13.7428 4.04301 13.6091 3.98633 13.469 3.98401H12.531C12.3909 3.98633 12.2572 4.04301 12.1581 4.14209C12.059 4.24117 12.0023 4.37491 12 4.51501V5.453C12 5.66 12.073 5.85 12.104 5.88C12.1506 5.92645 12.1875 5.98164 12.2127 6.04239C12.2379 6.10313 12.2509 6.16824 12.2509 6.23401C12.2509 6.29978 12.2379 6.36488 12.2127 6.42563C12.1875 6.48637 12.1506 6.54157 12.104 6.58801L11.604 7.08801C11.5101 7.1819 11.3828 7.23465 11.25 7.23465C11.1172 7.23465 10.9899 7.1819 10.896 7.08801C10.8021 6.99413 10.7494 6.86678 10.7494 6.73401C10.7494 6.60123 10.8021 6.47389 10.896 6.38L11.213 6.064C11.145 5.854 11 5.644 11 5.453V4.51501C11 3.67501 11.691 2.98401 12.531 2.98401H13.469ZM6.75601 10.728C6.85577 10.7278 6.95329 10.7575 7.03607 10.8131C7.11885 10.8688 7.1831 10.948 7.22052 11.0405C7.25794 11.1329 7.26682 11.2345 7.24606 11.3321C7.2253 11.4296 7.17583 11.5188 7.104 11.588L6.604 12.088C6.55756 12.1346 6.50237 12.1715 6.44162 12.1967C6.38087 12.2219 6.31577 12.2349 6.25 12.2349C6.18423 12.2349 6.11913 12.2219 6.05838 12.1967C5.99763 12.1715 5.94244 12.1346 5.896 12.088C5.95 12.141 5.835 12.059 5.686 12.028C5.53601 11.998 5.354 11.984 5.25 11.984H4.5C4.195 11.984 4 12.179 4 12.484V13.422C4 13.726 4.232 13.984 4.5 13.984H5.453C5.54957 13.9812 5.64487 14.0064 5.72739 14.0567C5.80991 14.1069 5.87611 14.1799 5.918 14.267C5.92218 14.2742 5.92618 14.2816 5.92999 14.289L5.936 14.299C5.942 14.311 5.95101 14.326 5.96301 14.355C5.97097 14.3746 5.97764 14.3946 5.983 14.415C5.98988 14.4588 5.99554 14.5028 6 14.547V15.484C6.00257 15.624 6.05932 15.7576 6.15836 15.8567C6.25739 15.9557 6.39098 16.0124 6.53101 16.015H7.5C7.786 16.015 8 15.789 8 15.484V14.546C8 14.348 7.90201 14.094 7.88901 14.08C7.79845 13.9855 7.74857 13.8592 7.75006 13.7284C7.75156 13.5975 7.80431 13.4724 7.897 13.38L8.397 12.88C8.44349 12.8336 8.49867 12.7968 8.55939 12.7717C8.6201 12.7466 8.68516 12.7337 8.75085 12.7337C8.81655 12.7338 8.88158 12.7468 8.94226 12.7719C9.00294 12.7971 9.05807 12.834 9.10449 12.8805C9.15091 12.927 9.18773 12.9822 9.21283 13.0429C9.23793 13.1036 9.25081 13.1687 9.25076 13.2344C9.25072 13.3001 9.23774 13.3651 9.21255 13.4258C9.18737 13.4865 9.15049 13.5416 9.104 13.588L8.785 13.906C8.855 14.126 9 14.345 9 14.546V15.484C9 16.306 8.34 17.015 7.5 17.015H6.53101C5.69101 17.015 5 16.325 5 15.484V14.984H4.5C3.641 14.984 3 14.244 3 13.421V12.484C3 11.662 3.678 10.984 4.5 10.984H5.25C5.46329 10.9847 5.67601 11.0064 5.88501 11.049C5.96101 11.064 6.04099 11.136 6.11899 11.158L6.396 10.881C6.44264 10.8326 6.49857 10.7941 6.56042 10.7679C6.62228 10.7416 6.6888 10.728 6.75601 10.728Z" fill="currentColor"/>
<path d="M7.5 2.98401C8.324 2.98401 9 3.66401 9 4.48401V5.48401C9 5.91201 8.78499 6.253 8.49399 6.521L13.457 11.486C13.726 11.198 14.066 10.984 14.492 10.984H15.492C16.312 10.984 16.992 11.66 16.992 12.484C16.992 13.308 16.312 13.984 15.492 13.984H13.992V15.484C13.992 16.304 13.316 16.984 12.492 16.984C11.668 16.984 10.992 16.304 10.992 15.484V14.484C10.992 14.056 11.207 13.715 11.498 13.447L6.535 8.48199C6.266 8.76999 5.926 8.98401 5.5 8.98401H4.5C3.68 8.98401 3 8.30801 3 7.48401C3 6.66001 3.68 5.98401 4.5 5.98401H6V4.48401C6 3.66401 6.676 2.98401 7.5 2.98401Z" fill="currentColor"/>
</svg>
