<svg width="20" height="20" viewBox="0 0 20 20" fill="none" xmlns="http://www.w3.org/2000/svg">
<path d="M13.5 3C13.3674 3 13.2402 3.05269 13.1465 3.14645C13.0527 3.24022 13 3.36739 13 3.5V4H5C4.47853 4.00403 3.97903 4.21055 3.60699 4.57599C3.23899 4.93599 3 5.43601 3 6.00201V15C3.00026 15.5304 3.21107 16.0389 3.58609 16.4139C3.96111 16.7889 4.46965 16.9997 5 17H7.5C7.63261 17 7.75978 16.9473 7.85355 16.8535C7.94731 16.7598 8 16.6326 8 16.5V7.5C8 7.36739 7.94731 7.24022 7.85355 7.14645C7.75978 7.05269 7.63261 7 7.5 7H5C4.548 7 4 6.52901 4 6.00201C4 5.73801 4.138 5.487 4.332 5.302C4.525 5.119 4.775 5 5 5H13V6.5C13 6.63261 13.0527 6.75978 13.1465 6.85355C13.2402 6.94731 13.3674 7 13.5 7H15V12H13.5C13.3674 12 13.2402 12.0527 13.1465 12.1465C13.0527 12.2402 13 12.3674 13 12.5V14H9V15H13V15.5C13 15.6326 13.0527 15.7598 13.1465 15.8535C13.2402 15.9473 13.3674 16 13.5 16H16.5C16.6326 16 16.7598 15.9473 16.8535 15.8535C16.9473 15.7598 17 15.6326 17 15.5V12.5C17 12.3674 16.9473 12.2402 16.8535 12.1465C16.7598 12.0527 16.6326 12 16.5 12H16V7H16.5C16.6326 7 16.7598 6.94731 16.8535 6.85355C16.9473 6.75978 17 6.63261 17 6.5V3.5C17 3.36739 16.9473 3.24022 16.8535 3.14645C16.7598 3.05269 16.6326 3 16.5 3H13.5ZM14 4H16V6H14V4ZM14 13H16V15H14V13Z" fill="currentColor"/>
</svg>
