<svg width="20" height="20" viewBox="0 0 20 20" fill="none" xmlns="http://www.w3.org/2000/svg">
<path d="M7.526 2.99399C7.4451 2.99146 7.36479 3.00862 7.29198 3.04398C7.21917 3.07934 7.15604 3.13184 7.108 3.19699C4.692 6.37699 3.663 9.19999 3.251 11.484C2.838 13.768 3.034 15.534 3.032 16.49C3.03147 16.6226 3.08364 16.75 3.17703 16.8441C3.27042 16.9383 3.39739 16.9915 3.53 16.992C3.66261 16.9925 3.79 16.9403 3.88414 16.847C3.97828 16.7536 4.03147 16.6266 4.032 16.494C4.034 15.409 3.848 13.803 4.235 11.662C4.622 9.51999 5.576 6.86599 7.903 3.80199C7.95992 3.7293 7.99561 3.64227 8.0061 3.55054C8.0166 3.45881 8.00149 3.36597 7.96245 3.2823C7.92341 3.19863 7.86197 3.1274 7.78493 3.07652C7.7079 3.02563 7.61827 2.99706 7.526 2.99399ZM12.481 5.99599C12.3682 6.00276 12.2611 6.04753 12.177 6.12299C8.053 9.70799 7.005 13.659 7.005 16.499C7.005 16.5646 7.01793 16.6297 7.04306 16.6903C7.06819 16.751 7.10502 16.8061 7.15145 16.8525C7.19788 16.899 7.25299 16.9358 7.31366 16.9609C7.37432 16.9861 7.43934 16.999 7.505 16.999C7.57066 16.999 7.63568 16.9861 7.69634 16.9609C7.757 16.9358 7.81212 16.899 7.85855 16.8525C7.90498 16.8061 7.94181 16.751 7.96694 16.6903C7.99207 16.6297 8.005 16.5646 8.005 16.499C8.005 13.899 8.918 10.279 12.833 6.87599C12.9127 6.80813 12.9692 6.71696 12.9943 6.61532C13.0195 6.51369 13.0121 6.40672 12.9732 6.30951C12.9343 6.2123 12.8659 6.12974 12.7776 6.07349C12.6893 6.01724 12.5855 5.99013 12.481 5.99599ZM16.507 10.999C13.49 10.993 11.012 13.47 11.005 16.498C11.0048 16.5636 11.0175 16.6287 11.0425 16.6894C11.0674 16.7502 11.1041 16.8054 11.1504 16.852C11.1967 16.8985 11.2517 16.9355 11.3123 16.9609C11.3729 16.9862 11.4378 16.9993 11.5035 16.9995C11.5692 16.9997 11.6342 16.9869 11.695 16.962C11.7557 16.9371 11.8109 16.9004 11.8575 16.8541C11.9041 16.8078 11.9411 16.7528 11.9664 16.6922C11.9917 16.6316 12.0048 16.5666 12.005 16.501C12.011 14.017 14.035 11.994 16.505 11.999C16.6376 11.9993 16.7649 11.9468 16.8588 11.8532C16.9528 11.7597 17.0057 11.6326 17.006 11.5C17.0063 11.3674 16.9538 11.2401 16.8603 11.1461C16.7667 11.0522 16.6396 10.9993 16.507 10.999Z" fill="currentColor"/>
</svg>
