<svg width="20" height="20" viewBox="0 0 20 20" fill="none" xmlns="http://www.w3.org/2000/svg">
<path d="M14.418 3.00201C13.009 3.00201 11.998 4.16501 11.998 5.50201C11.998 5.63462 12.0507 5.76182 12.1444 5.85559C12.2382 5.94936 12.3654 6.00201 12.498 6.00201C12.6306 6.00201 12.7578 5.94936 12.8516 5.85559C12.9453 5.76182 12.998 5.63462 12.998 5.50201C12.998 4.63001 13.528 4.00201 14.418 4.00201C15.308 4.00201 15.998 4.67901 15.998 5.50201C15.998 6.32501 15.308 7.00201 14.418 7.00201H9.504C9.37139 7.00201 9.24421 7.05467 9.15044 7.14844C9.05668 7.24221 9.004 7.36941 9.004 7.50201C9.004 7.63462 9.05668 7.76182 9.15044 7.85559C9.24421 7.94936 9.37139 8.00201 9.504 8.00201H14.418C15.827 8.00201 16.998 6.88801 16.998 5.50201C16.998 4.11601 15.827 3.00201 14.418 3.00201ZM5.502 3.00604C4.116 3.00604 3.002 4.177 3.002 5.586C3.002 6.995 4.165 8.00403 5.502 8.00403C5.63461 8.00403 5.76178 7.95131 5.85555 7.85754C5.94932 7.76378 6.002 7.63664 6.002 7.50403C6.002 7.37142 5.94932 7.24422 5.85555 7.15045C5.76178 7.05668 5.63461 7.00403 5.502 7.00403C4.63 7.00403 4.002 6.475 4.002 5.586C4.002 4.696 4.679 4.00604 5.502 4.00604C6.325 4.00604 7 4.696 7 5.586V10.498C7 10.6306 7.05268 10.7578 7.14645 10.8516C7.24021 10.9453 7.36739 10.998 7.5 10.998C7.63261 10.998 7.75979 10.9453 7.85355 10.8516C7.94732 10.7578 8 10.6306 8 10.498V5.586C8 4.177 6.887 3.00604 5.502 3.00604ZM12.49 8.99402C12.4243 8.99506 12.3595 9.009 12.2993 9.0351C12.239 9.06119 12.1845 9.09894 12.1388 9.14612C12.0931 9.19329 12.0571 9.24899 12.033 9.31006C12.0088 9.37113 11.9969 9.43635 11.998 9.50201V14.414C11.998 15.823 13.112 16.994 14.498 16.994C15.884 16.994 16.998 15.823 16.998 14.414C16.998 13.005 15.835 11.994 14.498 11.994C14.3654 11.994 14.2382 12.0467 14.1444 12.1404C14.0507 12.2342 13.998 12.3614 13.998 12.494C13.998 12.6266 14.0507 12.7538 14.1444 12.8476C14.2382 12.9414 14.3654 12.994 14.498 12.994C15.37 12.994 15.998 13.524 15.998 14.414C15.998 15.304 15.321 15.994 14.498 15.994C13.675 15.994 12.998 15.304 12.998 14.414V9.50201C12.9991 9.435 12.9867 9.36846 12.9615 9.30634C12.9364 9.24421 12.899 9.18777 12.8516 9.14038C12.8042 9.09299 12.7478 9.0556 12.6857 9.03046C12.6236 9.00531 12.557 8.99294 12.49 8.99402ZM5.582 11.998C4.173 11.998 3.002 13.113 3.002 14.498C3.002 15.884 4.173 16.998 5.582 16.998C6.991 16.998 8.002 15.835 8.002 14.498C8.002 14.3654 7.94932 14.2382 7.85555 14.1445C7.76178 14.0507 7.63461 13.998 7.502 13.998C7.36939 13.998 7.24221 14.0507 7.14845 14.1445C7.05468 14.2382 7.002 14.3654 7.002 14.498C7.002 15.37 6.472 15.998 5.582 15.998C4.692 15.998 4.002 15.321 4.002 14.498C4.002 13.675 4.692 12.998 5.582 12.998H10.494C10.6266 12.998 10.7538 12.9453 10.8476 12.8516C10.9413 12.7578 10.994 12.6306 10.994 12.498C10.994 12.3654 10.9413 12.2382 10.8476 12.1445C10.7538 12.0507 10.6266 11.998 10.494 11.998H5.582Z" fill="currentColor"/>
</svg>
