<svg width="20" height="20" viewBox="0 0 20 20" fill="none" xmlns="http://www.w3.org/2000/svg">
<path d="M6.322 3.033C4.612 3.106 3 4.517 3 6.97C3 9.023 4.07 10.982 5.387 12.683C6.703 14.384 8.287 15.838 9.418 16.843C9.50938 16.9246 9.62751 16.9698 9.75 16.97H10.25C10.3725 16.9698 10.4906 16.9246 10.582 16.843C11.713 15.838 13.297 14.384 14.613 12.683C15.93 10.982 17 9.023 17 6.97C17 4.517 15.388 3.106 13.678 3.033C12.156 2.968 10.625 3.96 10 5.73C9.375 3.96 7.844 2.968 6.322 3.033ZM6.365 4.033C7.593 3.981 8.924 4.78 9.258 6.562C9.27948 6.67675 9.34043 6.78036 9.43029 6.85488C9.52016 6.9294 9.63326 6.97013 9.75 6.97H10.25C10.3667 6.97013 10.4798 6.9294 10.5697 6.85488C10.6596 6.78036 10.7205 6.67675 10.742 6.562C11.076 4.78 12.407 3.981 13.635 4.032C14.862 4.086 16 4.925 16 6.97C16 8.667 15.07 10.458 13.824 12.07C12.617 13.63 11.15 14.981 10.041 15.97H9.959C8.85 14.981 7.383 13.63 6.176 12.07C4.929 10.458 4 8.667 4 6.97C4 4.924 5.138 4.085 6.365 4.033Z" fill="currentColor"/>
</svg>
