<svg width="20" height="20" viewBox="0 0 20 20" fill="none" xmlns="http://www.w3.org/2000/svg">
<path d="M6.5 3C5 3 4 4.3 4 5.5V14.5C4 15.7 5 17 6.5 17H15.5C16.2 17 16.2 16 15.5 16H6.5C5.5 16 5 15.2 5 14.5C5 13.8 5.5 13 6.5 13H15.5C15.8 13 16 12.8 16 12.5V3.5C16 3.2 15.8 3 15.5 3H6.5ZM10.5 4C11.9 4 13 5.1 13 6.5C13 7.7 12.1 8.7 11 8.9V10H10V8.5C10 8.2 10.2 8 10.5 8C11.3 8 12 7.3 12 6.5C12 5.7 11.3 5 10.5 5C9.7 5 9 5.7 9 6.5V7H8V6.5C8 5.1 9.1 4 10.5 4ZM10 11H11V12H10V11ZM6.5 14C6.2 14 6 14.2 6 14.5C6 14.8 6.2 15 6.5 15H15.5C15.8 15 16 14.8 16 14.5C16 14.2 15.8 14 15.5 14H6.5Z" fill="currentColor"/>
</svg>
