<svg width="20" height="20" viewBox="0 0 20 20" fill="none" xmlns="http://www.w3.org/2000/svg">
<path d="M10.5 14C7.8 14 5.9 11.8 4.7 10.5C4.5 10.2 4.3 10 4.1 9.90001C4 9.70001 4 9.30001 4.1 9.10001C4.2 8.90001 4.6 8.90001 4.8 9.10001C5 9.30001 5.2 9.60001 5.5 9.80001C6.6 11.1 8.3 13 10.5 13C12.8 13 14.4 11.1 15.5 9.80001C15.7 9.50001 15.9 9.30001 16.1 9.10001C16.3 8.90001 16.6 8.90001 16.8 9.10001C17 9.30001 17 9.60001 16.8 9.80001L16.2 10.4C15.1 11.8 13.2 14 10.5 14Z" fill="currentColor"/>
</svg>
