<svg width="20" height="20" viewBox="0 0 20 20" fill="none" xmlns="http://www.w3.org/2000/svg">
<path d="M16.9 9.2C15.5 7.7 13.8 5 10.5 5C7.2 5 5.5 7.7 4.1 9.2C4 9.4 4 9.6 4.1 9.8C5.4 11.2 7.2 14 10.5 14C13.8 14 15.5 11.3 16.9 9.8C17 9.6 17 9.4 16.9 9.2ZM10.5 13C8.6 13 7 11.4 7 9.5C7 7.6 8.6 6 10.5 6C12.4 6 14 7.6 14 9.5C14 11.4 12.4 13 10.5 13Z" fill="currentColor"/>
<path d="M10.5 11C11.3284 11 12 10.3284 12 9.5C12 8.67157 11.3284 8 10.5 8C9.67157 8 9 8.67157 9 9.5C9 10.3284 9.67157 11 10.5 11Z" fill="currentColor"/>
</svg>
