<svg width="20" height="20" viewBox="0 0 20 20" fill="none" xmlns="http://www.w3.org/2000/svg">
<path d="M9.984 3C9.72436 3.00425 9.47655 3.10932 9.293 3.293L3.293 9.293C3.19909 9.38506 3.12474 9.49513 3.07439 9.61662C3.02405 9.7381 2.99874 9.8685 3 10V10.5C3 10.6326 3.05268 10.7598 3.14645 10.8536C3.24021 10.9473 3.36739 11 3.5 11H4V16.5C4 16.6326 4.05268 16.7598 4.14645 16.8536C4.24021 16.9473 4.36739 17 4.5 17H8V11.5C8 11.3674 8.05268 11.2402 8.14645 11.1464C8.24021 11.0527 8.36739 11 8.5 11H11.5C11.6326 11 11.7598 11.0527 11.8536 11.1464C11.9473 11.2402 12 11.3674 12 11.5V17H15.5C15.6326 17 15.7598 16.9473 15.8536 16.8536C15.9473 16.7598 16 16.6326 16 16.5V11H16.5C16.6326 11 16.7598 10.9473 16.8536 10.8536C16.9473 10.7598 17 10.6326 17 10.5V10C17.0023 9.86836 16.9774 9.73767 16.927 9.61604C16.8766 9.49441 16.8017 9.38446 16.707 9.293L10.707 3.293C10.6123 3.19821 10.4995 3.12342 10.3752 3.07309C10.251 3.02276 10.118 2.9979 9.984 3Z" fill="currentColor"/>
</svg>
