<svg width="20" height="20" viewBox="0 0 20 20" fill="none" xmlns="http://www.w3.org/2000/svg">
<path d="M10.004 3.002C9.184 3.002 8.508 3.67902 8.508 4.50002C8.50984 4.80904 8.60709 5.10995 8.78644 5.36162C8.96579 5.61328 9.21849 5.8034 9.51 5.90599C9.506 6.08399 9.5 6.26899 9.5 6.49199C9.5 7.34999 9.805 8.04202 10.232 8.58202C10.659 9.12202 11.19 9.52601 11.685 9.92601C12.675 10.726 13.5 11.406 13.5 12.955C13.5 13.995 13.085 14.712 12.441 15.219C11.797 15.726 10.901 15.998 10 15.998C9.098 15.998 8.20301 15.726 7.55901 15.218C6.91501 14.712 6.5 13.995 6.5 12.955V11.705L7.646 12.852C8.118 13.342 8.844 12.616 8.354 12.144L6.354 10.144C6.28408 10.0739 6.1949 10.0261 6.09779 10.0068C6.00069 9.98739 5.90001 9.99728 5.80853 10.0352C5.71706 10.0731 5.63891 10.1374 5.58399 10.2197C5.52906 10.3021 5.49982 10.399 5.5 10.498V12.955C5.5 14.277 6.085 15.332 6.941 16.005C7.797 16.68 8.901 16.998 10 16.998C11.098 16.998 12.203 16.68 13.059 16.006C13.915 15.332 14.5 14.277 14.5 12.955C14.5 11.023 13.324 9.96499 12.314 9.14799C11.81 8.74 11.341 8.36901 11.018 7.96101C10.694 7.55201 10.5 7.12599 10.5 6.49199C10.5 6.28499 10.505 6.08499 10.51 5.90199C11.084 5.69199 11.5 5.14202 11.5 4.50002C11.5 3.68002 10.825 3.002 10.004 3.002ZM10.004 4.002C10.0695 4.00119 10.1346 4.01352 10.1952 4.03828C10.2559 4.06305 10.311 4.09973 10.3572 4.14616C10.4035 4.1926 10.44 4.24787 10.4645 4.30864C10.489 4.36941 10.5011 4.43449 10.5 4.50002C10.5011 4.56554 10.489 4.63062 10.4645 4.69139C10.44 4.75217 10.4035 4.8074 10.3572 4.85384C10.311 4.90027 10.2559 4.93695 10.1952 4.96172C10.1346 4.98648 10.0695 4.99881 10.004 4.998C9.93847 4.99881 9.87345 4.98648 9.81278 4.96172C9.7521 4.93695 9.697 4.90027 9.65076 4.85384C9.60451 4.8074 9.56804 4.75217 9.54352 4.69139C9.519 4.63062 9.50692 4.56554 9.508 4.50002C9.50692 4.43449 9.519 4.36941 9.54352 4.30864C9.56804 4.24787 9.60451 4.1926 9.65076 4.14616C9.697 4.09973 9.7521 4.06305 9.81278 4.03828C9.87345 4.01352 9.93847 4.00119 10.004 4.002Z" fill="currentColor"/>
</svg>
