<svg width="20" height="20" viewBox="0 0 20 20" fill="none" xmlns="http://www.w3.org/2000/svg">
<path d="M16.5 3C16.6326 3 16.7598 3.05268 16.8535 3.14645C16.9473 3.24021 17 3.36739 17 3.5V16.5C17 16.6326 16.9473 16.7598 16.8535 16.8536C16.7598 16.9473 16.6326 17 16.5 17H3.5C3.36739 17 3.24022 16.9473 3.14645 16.8536C3.05269 16.7598 3 16.6326 3 16.5V3.5C3 3.36739 3.05269 3.24021 3.14645 3.14645C3.24022 3.05268 3.36739 3 3.5 3H16.5ZM15 5H9V9H5V15H11V11H15V5Z" fill="currentColor"/>
<path d="M15 5H9V9H11V11H15V5Z" fill="currentColor"/>
</svg>
