<svg width="20" height="20" viewBox="0 0 20 20" fill="none" xmlns="http://www.w3.org/2000/svg">
<path d="M3.5 3C3.36739 3 3.24022 3.05266 3.14645 3.14642C3.05269 3.24019 3 3.36739 3 3.5V16.5C3 16.6326 3.05269 16.7598 3.14645 16.8536C3.24022 16.9473 3.36739 17 3.5 17H16.5C16.6326 17 16.7598 16.9473 16.8535 16.8536C16.9473 16.7598 17 16.6326 17 16.5V8.5C17 8.36739 16.9473 8.24019 16.8535 8.14642C16.7598 8.05266 16.6326 8 16.5 8C16.3674 8 16.2402 8.05266 16.1465 8.14642C16.0527 8.24019 16 8.36739 16 8.5V16H4V4H5.5C5.63261 4 5.75978 3.94734 5.85355 3.85358C5.94731 3.75981 6 3.63261 6 3.5C6 3.36739 5.94731 3.24019 5.85355 3.14642C5.75978 3.05266 5.63261 3 5.5 3H3.5Z" fill="currentColor"/>
<path d="M7.5 3C7.25 3 7 3.25 7 3.5V9C7 9.5 7.25 10 8 10C8.75 10 9 9.5 9 9V8C9 7.5 9.534 7 10 7C10.2652 7 10.5196 7.10537 10.7071 7.29291C10.8946 7.48044 11 7.73478 11 8V11.5C11 11.8978 11.158 12.2794 11.4393 12.5607C11.7207 12.842 12.1022 13 12.5 13C12.8978 13 13.2793 12.842 13.5607 12.5607C13.842 12.2794 14 11.8978 14 11.5V8C14 7.73478 14.1054 7.48044 14.2929 7.29291C14.4804 7.10537 14.7348 7 15 7H15.5C16.355 7 17 6.336 17 5.5V3.5C17 3.25 16.75 3 16.5 3H7.5Z" fill="currentColor"/>
</svg>
