<svg width="20" height="20" viewBox="0 0 20 20" fill="none" xmlns="http://www.w3.org/2000/svg">
<path d="M6.492 2.99201C6.42634 2.99305 6.36152 3.00702 6.30125 3.03312C6.24099 3.05921 6.18646 3.0969 6.14077 3.14408C6.09508 3.19125 6.05913 3.24698 6.03498 3.30805C6.01083 3.36912 5.99894 3.43434 6 3.5V13.293L3.146 16.146C3.09951 16.1925 3.06263 16.2477 3.03748 16.3084C3.01232 16.3692 2.99937 16.4343 2.99937 16.5C2.99937 16.5657 3.01232 16.6309 3.03748 16.6916C3.06263 16.7523 3.09951 16.8075 3.146 16.854C3.19249 16.9005 3.24768 16.9374 3.30841 16.9625C3.36915 16.9877 3.43425 17.0006 3.5 17.0006C3.56574 17.0006 3.63084 16.9877 3.69158 16.9625C3.75232 16.9374 3.80751 16.9005 3.854 16.854L6.707 14H16.5C16.6326 14 16.7598 13.9473 16.8536 13.8535C16.9473 13.7598 17 13.6326 17 13.5C17 13.3674 16.9473 13.2402 16.8536 13.1465C16.7598 13.0527 16.6326 13 16.5 13H7V3.5C7.00108 3.43299 6.98868 3.36645 6.96353 3.30433C6.93838 3.2422 6.90101 3.18576 6.85362 3.13837C6.80623 3.09098 6.7498 3.05362 6.68767 3.02848C6.62555 3.00333 6.55901 2.99093 6.492 2.99201Z" fill="currentColor"/>
<path d="M16.5 3C16.6326 3 16.7598 3.05269 16.8536 3.14645C16.9473 3.24022 17 3.36739 17 3.5V12H16V4H8V3H8.5H16.5Z" fill="currentColor"/>
<path d="M14 5C13.454 5 13 5.454 13 6C13 6.546 13.454 7 14 7C14.546 7 15 6.546 15 6C15 5.454 14.546 5 14 5ZM10.52 7.04999C10.4366 7.04624 10.3538 7.0658 10.2809 7.10641C10.208 7.14703 10.1477 7.20712 10.107 7.28L7.85701 11.28C7.81837 11.3485 7.79838 11.426 7.79903 11.5047C7.79967 11.5834 7.82097 11.6605 7.86073 11.7284C7.9005 11.7963 7.95734 11.8526 8.02565 11.8917C8.09396 11.9307 8.17133 11.9512 8.25002 11.951H12.75C12.8288 11.9513 12.9064 11.9308 12.9748 11.8917C13.0433 11.8526 13.1002 11.7962 13.14 11.7282C13.1798 11.6601 13.201 11.5828 13.2016 11.504C13.2021 11.4252 13.1819 11.3476 13.143 11.279L10.893 7.27899C10.8553 7.21248 10.8012 7.15667 10.736 7.11679C10.6707 7.07691 10.5964 7.05426 10.52 7.05099V7.04999Z" fill="currentColor"/>
</svg>
