<svg width="20" height="20" viewBox="0 0 20 20" fill="none" xmlns="http://www.w3.org/2000/svg">
<path d="M3.5 3C3.36739 3 3.24021 3.05269 3.14645 3.14645C3.05268 3.24022 3 3.36739 3 3.5V7H4V4H7V3H3.5ZM13 3V4H16V7H17V3.5C17 3.36739 16.9473 3.24022 16.8536 3.14645C16.7598 3.05269 16.6326 3 16.5 3H13ZM3 13V16.5C3 16.6326 3.05268 16.7598 3.14645 16.8535C3.24021 16.9473 3.36739 17 3.5 17H7V16H4V13H3ZM16 13V16H13V17H16.5C16.6326 17 16.7598 16.9473 16.8536 16.8535C16.9473 16.7598 17 16.6326 17 16.5V13H16Z" fill="currentColor"/>
<path d="M14.5 5C14.6326 5 14.7598 5.05269 14.8536 5.14645C14.9473 5.24022 15 5.36739 15 5.5V14.5C15 14.6326 14.9473 14.7598 14.8536 14.8535C14.7598 14.9473 14.6326 15 14.5 15H5.5C5.36739 15 5.24019 14.9473 5.14642 14.8535C5.05266 14.7598 5 14.6326 5 14.5V5.5C5 5.36739 5.05266 5.24022 5.14642 5.14645C5.24019 5.05269 5.36739 5 5.5 5H14.5ZM14 6H6V14H14V6Z" fill="currentColor"/>
<path d="M12 7C12.546 7 13 7.454 13 8C13 8.546 12.546 9 12 9C11.454 9 11 8.546 11 8C11 7.454 11.454 7 12 7ZM8.49597 8C8.58663 7.99941 8.67575 8.02346 8.75378 8.06961C8.83182 8.11576 8.89587 8.18226 8.93903 8.26199L11.939 13.762C11.9802 13.8381 12.0009 13.9236 11.9991 14.0101C11.9974 14.0967 11.9733 14.1812 11.929 14.2556C11.8848 14.33 11.822 14.3916 11.7468 14.4344C11.6716 14.4773 11.5865 14.4999 11.5 14.5H5.75C5.66487 14.4999 5.58117 14.4781 5.50684 14.4366C5.4325 14.3951 5.37002 14.3353 5.32526 14.2629C5.28049 14.1905 5.25493 14.1079 5.25104 14.0229C5.24715 13.9378 5.26501 13.8532 5.30298 13.777L8.05298 8.27701C8.0941 8.19448 8.15723 8.1249 8.23541 8.07602C8.31359 8.02713 8.40377 8.00083 8.49597 8Z" fill="currentColor"/>
</svg>
