<svg width="20" height="20" viewBox="0 0 20 20" fill="none" xmlns="http://www.w3.org/2000/svg">
<path d="M9 13.997V15.997H6.5C6.36739 15.997 6.24022 16.0497 6.14645 16.1434C6.05269 16.2372 6 16.3644 6 16.497C6 16.6296 6.05269 16.7568 6.14645 16.8505C6.24022 16.9443 6.36739 16.997 6.5 16.997H9.42001C9.47365 17.0058 9.52836 17.0058 9.582 16.997H10.42C10.4737 17.0058 10.5284 17.0058 10.582 16.997H13.5C13.6326 16.997 13.7598 16.9443 13.8535 16.8505C13.9473 16.7568 14 16.6296 14 16.497C14 16.3644 13.9473 16.2372 13.8535 16.1434C13.7598 16.0497 13.6326 15.997 13.5 15.997H11V13.997H9ZM3.5 2.99699C3.36739 2.99699 3.24022 3.04968 3.14645 3.14345C3.05269 3.23722 3 3.36439 3 3.49699V12.497C3 12.6296 3.05269 12.7568 3.14645 12.8505C3.24022 12.9443 3.36739 12.997 3.5 12.997H16.5C16.6326 12.997 16.7598 12.9443 16.8535 12.8505C16.9473 12.7568 17 12.6296 17 12.497V3.49699C17 3.36439 16.9473 3.23722 16.8535 3.14345C16.7598 3.04968 16.6326 2.99699 16.5 2.99699H3.5ZM4 3.99699H16V11.997H4V3.99699Z" fill="currentColor"/>
<path d="M13 5C12.454 5 12 5.454 12 6C12 6.546 12.454 7 13 7C13.546 7 14 6.546 14 6C14 5.454 13.546 5 13 5ZM8.49597 6.04999C8.41314 6.05084 8.33219 6.07457 8.26196 6.1185C8.19174 6.16243 8.13502 6.2249 8.09802 6.29901L5.34802 11.799C5.31356 11.8676 5.2972 11.9439 5.30053 12.0206C5.30387 12.0973 5.32677 12.1718 5.36706 12.2372C5.40735 12.3025 5.46367 12.3565 5.5307 12.3939C5.59772 12.4313 5.67323 12.451 5.75 12.451H11.5C11.5781 12.451 11.6549 12.4307 11.7228 12.3921C11.7907 12.3534 11.8474 12.2978 11.8873 12.2306C11.9271 12.1634 11.9488 12.0869 11.9501 12.0088C11.9515 11.9307 11.9325 11.8535 11.895 11.785L8.89502 6.285C8.85592 6.21354 8.79811 6.15403 8.72784 6.11282C8.65757 6.07161 8.57743 6.05023 8.49597 6.05099V6.04999Z" fill="currentColor"/>
</svg>
