<svg width="20" height="20" viewBox="0 0 20 20" fill="none" xmlns="http://www.w3.org/2000/svg">
<path d="M3.5 17C3.36739 17 3.24022 16.9473 3.14645 16.8536C3.05269 16.7598 3 16.6326 3 16.5V3.5C3 3.36739 3.05269 3.24021 3.14645 3.14645C3.24022 3.05268 3.36739 3 3.5 3H16.5C16.6326 3 16.7598 3.05268 16.8535 3.14645C16.9473 3.24021 17 3.36739 17 3.5V16.5C17 16.6326 16.9473 16.7598 16.8535 16.8536C16.7598 16.9473 16.6326 17 16.5 17H3.5ZM4 16H16V4H4V16Z" fill="currentColor"/>
<path d="M3.5 17C3.36739 17 3.24022 16.9473 3.14645 16.8536C3.05269 16.7598 3 16.6326 3 16.5V3.5C2.99982 3.40098 3.02906 3.30414 3.08399 3.22175C3.13891 3.13936 3.21706 3.07513 3.30853 3.03722C3.40001 2.9993 3.50069 2.98939 3.59779 3.00876C3.6949 3.02813 3.78408 3.07589 3.854 3.146L16.854 16.146C16.9241 16.2159 16.9719 16.3051 16.9912 16.4022C17.0106 16.4993 17.0007 16.6 16.9628 16.6915C16.9249 16.7829 16.8606 16.8611 16.7783 16.916C16.6959 16.9709 16.599 17.0002 16.5 17H3.5Z" fill="currentColor"/>
</svg>
