<svg width="20" height="20" viewBox="0 0 20 20" fill="none" xmlns="http://www.w3.org/2000/svg">
<path d="M10.008 3.00299C10.1403 3.0051 10.2663 3.05954 10.3585 3.15438C10.4507 3.24921 10.5016 3.37673 10.5 3.509V12.302L13.646 9.15499C13.7398 9.06111 13.867 9.00831 13.9996 9.00822C14.1323 9.00813 14.2596 9.06074 14.3535 9.1545C14.4474 9.24825 14.5002 9.37546 14.5003 9.50814C14.5004 9.64083 14.4478 9.76811 14.354 9.862L10.396 13.819C10.3494 13.8797 10.2896 13.9289 10.221 13.9629C10.1524 13.9968 10.077 14.0145 10.0005 14.0147C9.92398 14.0149 9.84845 13.9976 9.77971 13.964C9.71097 13.9304 9.65087 13.8815 9.604 13.821C9.60266 13.819 9.60133 13.817 9.60001 13.815L5.646 9.862C5.59824 9.81587 5.56015 9.7607 5.53395 9.6997C5.50775 9.6387 5.49395 9.57308 5.49338 9.50669C5.4928 9.4403 5.50545 9.37447 5.53059 9.31302C5.55573 9.25157 5.59285 9.19575 5.6398 9.1488C5.68675 9.10185 5.74257 9.06472 5.80402 9.03958C5.86546 9.01444 5.93131 9.00179 5.9977 9.00237C6.06409 9.00295 6.1297 9.01674 6.1907 9.04295C6.25171 9.06915 6.30687 9.10724 6.353 9.15499L9.5 12.302V3.509C9.49919 3.44216 9.5118 3.37583 9.53706 3.31394C9.56233 3.25205 9.59975 3.19586 9.64711 3.14869C9.69447 3.10151 9.7508 3.06431 9.81279 3.03929C9.87478 3.01426 9.94116 3.00192 10.008 3.00299Z" fill="currentColor"/>
<path d="M16.008 12.989C16.0737 12.99 16.1385 13.004 16.1987 13.0301C16.259 13.0562 16.3135 13.0939 16.3592 13.1411C16.4049 13.1883 16.4409 13.244 16.465 13.305C16.4892 13.3661 16.5011 13.4313 16.5 13.497V16.497C16.5 16.6296 16.4473 16.7568 16.3535 16.8505C16.2598 16.9443 16.1326 16.997 16 16.997H4C3.86739 16.997 3.74022 16.9443 3.64645 16.8505C3.55268 16.7568 3.5 16.6296 3.5 16.497V13.497C3.5 13.3644 3.55268 13.2372 3.64645 13.1434C3.74022 13.0497 3.86739 12.997 4 12.997C4.1326 12.997 4.25977 13.0497 4.35354 13.1434C4.44731 13.2372 4.5 13.3644 4.5 13.497V15.997H15.5V13.497C15.4989 13.43 15.5113 13.3634 15.5365 13.3013C15.5616 13.2392 15.599 13.1828 15.6464 13.1354C15.6938 13.088 15.7502 13.0506 15.8123 13.0255C15.8745 13.0003 15.941 12.9879 16.008 12.989Z" fill="currentColor"/>
</svg>
