<svg width="20" height="20" viewBox="0 0 20 20" fill="none" xmlns="http://www.w3.org/2000/svg">
<path d="M14.285 3.75C14.1437 3.74659 14.0033 3.77318 13.873 3.828L9.133 5.828C8.88847 5.93104 8.69489 6.12699 8.59484 6.37276C8.49479 6.61853 8.49646 6.89397 8.5995 7.1385C8.70254 7.38303 8.89849 7.57661 9.14426 7.67666C9.39002 7.77671 9.66547 7.77504 9.91 7.672L11.459 7.02L8.763 12.395L5.974 10.094C5.82343 9.95934 5.64722 9.85649 5.45593 9.79159C5.26464 9.7267 5.06221 9.70112 4.86079 9.71637C4.65937 9.73162 4.46311 9.7874 4.28377 9.88036C4.10443 9.97332 3.94572 10.1015 3.81715 10.2573C3.68857 10.4131 3.59279 10.5933 3.53555 10.787C3.47831 10.9807 3.46078 11.184 3.48402 11.3847C3.50726 11.5853 3.57079 11.7792 3.67079 11.9547C3.7708 12.1302 3.90522 12.2837 4.066 12.406L8.306 15.906C8.47986 16.0498 8.68391 16.1525 8.90297 16.2065C9.12202 16.2605 9.35043 16.2643 9.5712 16.2178C9.79196 16.1713 9.99938 16.0756 10.178 15.9378C10.3567 15.8 10.5019 15.6237 10.603 15.422L14.14 8.363L14.55 9.994C14.582 10.1214 14.6389 10.2412 14.7172 10.3466C14.7956 10.4521 14.8939 10.541 15.0066 10.6084C15.1194 10.6758 15.2443 10.7204 15.3742 10.7395C15.5042 10.7587 15.6366 10.752 15.764 10.72C15.8914 10.688 16.0112 10.6311 16.1166 10.5528C16.2221 10.4744 16.311 10.3761 16.3784 10.2634C16.4458 10.1506 16.4904 10.0257 16.5095 9.89578C16.5287 9.76583 16.522 9.63338 16.49 9.506L15.23 4.506C15.1767 4.29403 15.0555 4.10535 14.8848 3.96882C14.7142 3.83229 14.5035 3.75543 14.285 3.75Z" fill="currentColor"/>
</svg>
