<svg width="20" height="20" viewBox="0 0 20 20" fill="none" xmlns="http://www.w3.org/2000/svg">
<path d="M5.5 2.49899C4.83745 2.50058 4.20248 2.76448 3.73398 3.23298C3.26549 3.70147 3.00158 4.33644 3 4.99899V11.999C3 13.375 4.124 14.499 5.5 14.499H6V16.999C5.9998 17.1019 6.03138 17.2025 6.09045 17.2868C6.14951 17.3711 6.23316 17.4352 6.32998 17.4702C6.4268 17.5052 6.53207 17.5095 6.63141 17.4824C6.73075 17.4553 6.81931 17.3983 6.885 17.319L9.235 14.499H14.5C15.876 14.499 17 13.375 17 11.999V4.99899C17 3.62299 15.876 2.49899 14.5 2.49899H5.5ZM9 4.49899H11V6.49899H9V4.49899ZM8 7.49899H11V11.499H12V12.499H8V11.499H9V8.49899H8V7.49899Z" fill="currentColor"/>
</svg>
