<svg width="20" height="20" viewBox="0 0 20 20" fill="none" xmlns="http://www.w3.org/2000/svg">
<path d="M15.5 4C15.4343 3.99988 15.3692 4.01272 15.3085 4.03777C15.2477 4.06282 15.1925 4.0996 15.146 4.146L4.293 15H3.5C3.36739 15 3.24021 15.0527 3.14645 15.1464C3.05268 15.2402 3 15.3674 3 15.5C3 15.6326 3.05268 15.7598 3.14645 15.8536C3.24021 15.9473 3.36739 16 3.5 16H4.5C4.5657 16.0001 4.63079 15.9873 4.69153 15.9622C4.75227 15.9372 4.80748 15.9004 4.854 15.854L15.707 5H16.5C16.6326 5 16.7598 4.94732 16.8536 4.85355C16.9473 4.75979 17 4.63261 17 4.5C17 4.36739 16.9473 4.24022 16.8536 4.14645C16.7598 4.05268 16.6326 4 16.5 4H15.5Z" fill="currentColor"/>
</svg>
