<svg width="20" height="20" viewBox="0 0 20 20" fill="none" xmlns="http://www.w3.org/2000/svg">
<path d="M15.5 4.502C15.3949 4.50187 15.2925 4.53485 15.2072 4.59624C15.122 4.65763 15.0582 4.74431 15.025 4.84399C14.274 7.09899 13.407 9.786 11.735 11.877C10.061 13.968 7.623 15.502 3.5 15.502C3.36739 15.502 3.24022 15.5547 3.14645 15.6485C3.05269 15.7422 3 15.8694 3 16.002C3 16.1346 3.05269 16.2618 3.14645 16.3555C3.24022 16.4493 3.36739 16.502 3.5 16.502C7.877 16.502 10.689 14.786 12.516 12.502C14.257 10.325 15.125 7.69 15.852 5.502H16.5C16.6326 5.502 16.7598 5.44931 16.8535 5.35555C16.9473 5.26178 17 5.13461 17 5.002C17 4.86939 16.9473 4.74222 16.8535 4.64845C16.7598 4.55468 16.6326 4.502 16.5 4.502H15.5Z" fill="currentColor"/>
<path d="M5.998 3.498C5.206 3.498 4.293 3.925 4.018 4.858C3.99827 4.92129 3.99132 4.98789 3.99757 5.05389C4.00382 5.1199 4.02314 5.18399 4.05439 5.24246C4.08565 5.30093 4.12821 5.3526 4.17962 5.39447C4.23103 5.43633 4.29024 5.46756 4.35383 5.48633C4.41742 5.50509 4.48411 5.51101 4.55001 5.50377C4.61592 5.49652 4.67971 5.47624 4.7377 5.4441C4.79569 5.41197 4.84672 5.36862 4.8878 5.31659C4.92888 5.26455 4.9592 5.20487 4.977 5.141C5.101 4.72 5.557 4.498 5.998 4.498C6.262 4.498 6.51499 4.588 6.69299 4.746C6.87199 4.905 6.997 5.126 7 5.502C7.001 5.9 6.74599 6.259 6.23599 6.576C6.16407 6.62095 6.10478 6.68344 6.06367 6.75761C6.02256 6.83178 6.00099 6.91519 6.00099 7C6.00099 7.0848 6.02256 7.16821 6.06367 7.24238C6.10478 7.31656 6.16407 7.37905 6.23599 7.42399C6.74599 7.74099 7.002 8.102 7 8.5C6.996 8.875 6.87099 9.09599 6.69299 9.25399C6.49887 9.41787 6.25201 9.50596 5.998 9.502C5.556 9.502 5.101 9.282 4.977 8.862C4.95862 8.79896 4.92799 8.74016 4.88688 8.68896C4.84577 8.63776 4.79498 8.59517 4.73741 8.5636C4.67983 8.53202 4.61661 8.51209 4.55134 8.50496C4.48607 8.49782 4.42002 8.50362 4.35699 8.522C4.29396 8.54039 4.23517 8.571 4.18397 8.6121C4.13277 8.65321 4.09016 8.70401 4.05859 8.76158C4.02702 8.81915 4.0071 8.88237 3.99997 8.94764C3.99283 9.01292 3.99861 9.07896 4.01699 9.142C4.29299 10.075 5.207 10.502 5.998 10.502C6.484 10.502 6.97599 10.342 7.35899 10C7.74299 9.659 7.994 9.12899 8 8.50599C8 8.50533 8 8.50466 8 8.50399C8.003 7.88599 7.657 7.404 7.223 7C7.657 6.596 8.003 6.114 8 5.496C8 5.49533 8 5.49467 8 5.494C7.994 4.871 7.743 4.341 7.36 4C6.98295 3.67126 6.4982 3.49259 5.998 3.498Z" fill="currentColor"/>
</svg>
