<svg width="20" height="20" viewBox="0 0 20 20" fill="none" xmlns="http://www.w3.org/2000/svg">
<path d="M15.5 4C15.3674 4 15.2402 4.05268 15.1464 4.14645C15.0527 4.24021 15 4.36739 15 4.5C15 6.979 14.84 8.881 14.473 10.313C14.105 11.744 13.547 12.693 12.733 13.365C11.102 14.711 8.215 15 3.5 15C3.36739 15 3.24021 15.0527 3.14645 15.1464C3.05268 15.2402 3 15.3674 3 15.5C3 15.6326 3.05268 15.7598 3.14645 15.8536C3.24021 15.9473 3.36739 16 3.5 16C8.25 16 11.365 15.79 13.37 14.135C14.371 13.307 15.038 12.131 15.441 10.562C15.811 9.123 15.929 7.231 15.953 5H16.5C16.6326 5 16.7598 4.94732 16.8536 4.85355C16.9473 4.75979 17 4.63261 17 4.5C17 4.36739 16.9473 4.24021 16.8536 4.14645C16.7598 4.05268 16.6326 4 16.5 4H15.5Z" fill="currentColor"/>
</svg>
