<svg width="20" height="20" viewBox="0 0 20 20" fill="none" xmlns="http://www.w3.org/2000/svg">
<path d="M15.5 4.502C15.4224 4.502 15.3458 4.52007 15.2764 4.55478C15.207 4.58949 15.1466 4.6399 15.1 4.702C13.552 6.765 12.246 9.503 10.514 11.692C8.78101 13.88 6.702 15.502 3.5 15.502C3.36739 15.502 3.24022 15.5547 3.14645 15.6485C3.05269 15.7422 3 15.8694 3 16.002C3 16.1346 3.05269 16.2618 3.14645 16.3555C3.24022 16.4493 3.36739 16.502 3.5 16.502C7.048 16.502 9.469 14.624 11.299 12.312C13.077 10.067 14.366 7.428 15.769 5.502H16.5C16.6326 5.502 16.7598 5.44931 16.8535 5.35555C16.9473 5.26178 17 5.13461 17 5.002C17 4.86939 16.9473 4.74222 16.8535 4.64845C16.7598 4.55468 16.6326 4.502 16.5 4.502H15.5Z" fill="currentColor"/>
<path d="M5 3.49801C4.208 3.49801 3.29501 3.92501 3.02001 4.85801C3.00143 4.92104 2.99544 4.98712 3.0024 5.05247C3.00935 5.11781 3.0291 5.18115 3.06053 5.23887C3.09197 5.29658 3.13446 5.34752 3.18558 5.38881C3.23671 5.4301 3.29547 5.46092 3.35851 5.4795C3.42154 5.49808 3.48762 5.50408 3.55297 5.49712C3.61831 5.49017 3.68164 5.4704 3.73935 5.43897C3.79706 5.40754 3.84803 5.36505 3.88932 5.31392C3.93061 5.2628 3.96142 5.20405 3.98 5.14101C4.105 4.72001 4.558 4.49801 5 4.49801C5.24874 4.49281 5.49047 4.58053 5.678 4.74401C5.849 4.90101 5.97301 5.124 5.97701 5.504C5.97701 5.714 5.87601 5.922 5.63901 6.191C5.40101 6.461 5.04301 6.758 4.66201 7.094C3.90101 7.764 3.004 8.65101 3 9.99601C2.99974 10.0618 3.01248 10.1271 3.03749 10.188C3.0625 10.2489 3.09928 10.3042 3.14574 10.3509C3.1922 10.3975 3.24741 10.4345 3.3082 10.4598C3.36899 10.485 3.43417 10.498 3.5 10.498H6.5C6.63261 10.498 6.75978 10.4453 6.85355 10.3516C6.94732 10.2578 7 10.1306 7 9.99801C7 9.8654 6.94732 9.73821 6.85355 9.64444C6.75978 9.55068 6.63261 9.49801 6.5 9.49801H4.166C4.35 8.87301 4.75201 8.348 5.32401 7.844C5.68701 7.524 6.07201 7.21401 6.39101 6.85201C6.71001 6.48901 6.97901 6.04101 6.97701 5.50001C6.97701 5.49934 6.97701 5.49867 6.97701 5.49801C6.97101 4.87901 6.73001 4.35 6.35401 4.006C5.98209 3.67329 5.49899 3.49204 5 3.49801Z" fill="currentColor"/>
</svg>
