<svg width="20" height="20" viewBox="0 0 20 20" fill="none" xmlns="http://www.w3.org/2000/svg">
<path d="M15.505 3.99899C15.3724 3.99899 15.2452 4.05167 15.1514 4.14544C15.0577 4.23921 15.005 4.36638 15.005 4.49899C15.005 7.92899 13.813 10.289 11.788 11.958C9.763 13.627 6.856 14.588 3.444 15.003C3.37707 15.0087 3.31198 15.0279 3.25262 15.0593C3.19325 15.0908 3.14084 15.1338 3.09849 15.186C3.05615 15.2381 3.02474 15.2983 3.00616 15.3628C2.98757 15.4274 2.98219 15.495 2.99032 15.5617C2.99845 15.6284 3.01994 15.6928 3.0535 15.7509C3.08705 15.8091 3.13199 15.86 3.18563 15.9004C3.23927 15.9409 3.30051 15.9701 3.36569 15.9863C3.43087 16.0026 3.49866 16.0055 3.565 15.995C7.091 15.566 10.185 14.575 12.425 12.729C14.556 10.973 15.835 8.40099 15.958 4.99899H16.505C16.6376 4.99899 16.7648 4.94631 16.8586 4.85255C16.9523 4.75878 17.005 4.6316 17.005 4.49899C17.005 4.36638 16.9523 4.23921 16.8586 4.14544C16.7648 4.05167 16.6376 3.99899 16.505 3.99899H15.505Z" fill="currentColor"/>
</svg>
