<svg width="20" height="20" viewBox="0 0 20 20" fill="none" xmlns="http://www.w3.org/2000/svg">
<path d="M15.5 4.502C15.4224 4.502 15.3458 4.52007 15.2764 4.55478C15.207 4.58949 15.1466 4.6399 15.1 4.702C13.552 6.765 12.246 9.503 10.514 11.692C8.78101 13.88 6.702 15.502 3.5 15.502C3.36739 15.502 3.24022 15.5547 3.14645 15.6485C3.05269 15.7422 3 15.8694 3 16.002C3 16.1346 3.05269 16.2618 3.14645 16.3555C3.24022 16.4493 3.36739 16.502 3.5 16.502C7.048 16.502 9.469 14.624 11.299 12.312C13.077 10.067 14.366 7.428 15.769 5.502H16.5C16.6326 5.502 16.7598 5.44931 16.8535 5.35555C16.9473 5.26178 17 5.13461 17 5.002C17 4.86939 16.9473 4.74222 16.8535 4.64845C16.7598 4.55468 16.6326 4.502 16.5 4.502H15.5Z" fill="currentColor"/>
<path d="M5.48399 3.498C5.35672 3.50217 5.23583 3.55475 5.146 3.645L3.146 5.645C3.09957 5.69149 3.06277 5.74666 3.03767 5.80737C3.01258 5.86808 2.99968 5.93315 2.99973 5.99885C2.99977 6.06455 3.01275 6.1296 3.03793 6.19027C3.06312 6.25095 3.10001 6.30607 3.1465 6.35249C3.19299 6.39891 3.24817 6.43573 3.30888 6.46083C3.3696 6.48593 3.43465 6.49882 3.50035 6.49878C3.56605 6.49873 3.63109 6.48574 3.69177 6.46055C3.75245 6.43537 3.80758 6.39849 3.854 6.352L5 5.205V10.002C5 10.1346 5.05269 10.2618 5.14645 10.3555C5.24022 10.4493 5.36739 10.502 5.5 10.502C5.63261 10.502 5.75978 10.4493 5.85355 10.3555C5.94731 10.2618 6 10.1346 6 10.002V3.998C6.00003 3.93097 5.98659 3.86461 5.96046 3.80288C5.93434 3.74115 5.89608 3.68531 5.84795 3.63867C5.79981 3.59202 5.74277 3.55553 5.68025 3.53137C5.61773 3.5072 5.55099 3.49585 5.48399 3.498Z" fill="currentColor"/>
</svg>
