<svg width="20" height="20" viewBox="0 0 20 20" fill="none" xmlns="http://www.w3.org/2000/svg">
<path d="M16 4C14.403 4 13.14 4.788 12.139 5.88C11.136 6.974 10.346 8.379 9.564 9.754C8.784 11.129 8.01099 12.474 7.12399 13.444C6.23399 14.413 5.278 15 4 15H3.5C3.36739 15 3.24022 15.0527 3.14645 15.1465C3.05269 15.2402 3 15.3674 3 15.5C3 15.6326 3.05269 15.7598 3.14645 15.8535C3.24022 15.9473 3.36739 16 3.5 16H4C5.597 16 6.85999 15.212 7.86099 14.12C8.86399 13.026 9.654 11.621 10.436 10.246C11.216 8.871 11.989 7.526 12.876 6.556C13.766 5.587 14.722 5 16 5H16.5C16.6326 5 16.7598 4.94731 16.8535 4.85355C16.9473 4.75978 17 4.63261 17 4.5C17 4.36739 16.9473 4.24022 16.8535 4.14645C16.7598 4.05269 16.6326 4 16.5 4H16Z" fill="currentColor"/>
<path d="M4.5 3C4.36739 3 4.24022 3.05269 4.14645 3.14645C4.05269 3.24022 4 3.36739 4 3.5V5.5C4 5.63261 4.05269 5.75978 4.14645 5.85355C4.24022 5.94731 4.36739 6 4.5 6H6.5C6.63261 6 6.75978 5.94731 6.85355 5.85355C6.94731 5.75978 7 5.63261 7 5.5V5H10.5C10.6326 5 10.7598 4.94731 10.8535 4.85355C10.9473 4.75978 11 4.63261 11 4.5C11 4.36739 10.9473 4.24022 10.8535 4.14645C10.7598 4.05269 10.6326 4 10.5 4H7V3.5C7 3.36739 6.94731 3.24022 6.85355 3.14645C6.75978 3.05269 6.63261 3 6.5 3H4.5ZM5 4H6V4.42C5.99119 4.47364 5.99119 4.52836 6 4.582V5H5V4ZM13.508 14C13.3754 14 13.2482 14.0527 13.1544 14.1465C13.0607 14.2402 13.008 14.3674 13.008 14.5V15H9.508C9.37539 15 9.24822 15.0527 9.15445 15.1465C9.06068 15.2402 9.008 15.3674 9.008 15.5C9.008 15.6326 9.06068 15.7598 9.15445 15.8535C9.24822 15.9473 9.37539 16 9.508 16H13.008V16.5C13.008 16.6326 13.0607 16.7598 13.1544 16.8535C13.2482 16.9473 13.3754 17 13.508 17H15.508C15.6406 17 15.7678 16.9473 15.8616 16.8535C15.9553 16.7598 16.008 16.6326 16.008 16.5V14.5C16.008 14.3674 15.9553 14.2402 15.8616 14.1465C15.7678 14.0527 15.6406 14 15.508 14H13.508ZM14.008 15H15.008V16H14.008V15.576C14.0157 15.5256 14.0157 15.4744 14.008 15.424V15Z" fill="currentColor"/>
</svg>
