<svg width="20" height="20" viewBox="0 0 20 20" fill="none" xmlns="http://www.w3.org/2000/svg">
<path d="M15.5 4.504C15.3752 4.50399 15.2549 4.55068 15.1627 4.63487C15.0706 4.71907 15.0132 4.83468 15.002 4.959C14.762 7.604 13.676 10.249 11.766 12.219C9.85501 14.189 7.128 15.504 3.5 15.504C3.36739 15.504 3.24022 15.5567 3.14645 15.6505C3.05269 15.7442 3 15.8714 3 16.004C3 16.1366 3.05269 16.2638 3.14645 16.3575C3.24022 16.4513 3.36739 16.504 3.5 16.504C7.372 16.504 10.395 15.069 12.484 12.914C14.46 10.876 15.544 8.202 15.883 5.504H16.5C16.6326 5.504 16.7598 5.45131 16.8535 5.35754C16.9473 5.26378 17 5.13661 17 5.004C17 4.87139 16.9473 4.74422 16.8535 4.65045C16.7598 4.55668 16.6326 4.504 16.5 4.504H15.5Z" fill="currentColor"/>
<path d="M4.467 3.49799C4.36059 3.50565 4.25942 3.54715 4.17827 3.61642C4.09713 3.68569 4.04028 3.77909 4.01601 3.88299L3.01601 7.88299C2.99765 7.9566 2.99627 8.03343 3.012 8.10764C3.02773 8.18186 3.06014 8.25153 3.10677 8.31136C3.15341 8.3712 3.21305 8.41964 3.28118 8.45301C3.34931 8.48639 3.42414 8.50382 3.50001 8.50399H6.00001V10.004C5.99001 10.68 7.01001 10.68 7.00001 10.004V6.00399C6.99101 5.34699 6.01001 5.34699 6.00001 6.00399V7.50399H4.14001L4.984 4.12499C5.00436 4.04821 5.00613 3.96768 4.98917 3.89008C4.97221 3.81248 4.93701 3.74005 4.88648 3.67876C4.83595 3.61748 4.77153 3.56912 4.69858 3.53768C4.62564 3.50625 4.54625 3.49264 4.467 3.49799Z" fill="currentColor"/>
</svg>
