<svg width="20" height="20" viewBox="0 0 20 20" fill="none" xmlns="http://www.w3.org/2000/svg">
<path d="M10 4C8.752 4 7.755 4.834 7 5.935C6.245 7.035 5.676 8.449 5.236 9.851C4.357 12.655 4.006 15.437 4.006 15.437C3.99766 15.5021 4.00223 15.5683 4.01946 15.6316C4.03668 15.695 4.06621 15.7544 4.10638 15.8063C4.14654 15.8583 4.19654 15.9018 4.25352 15.9344C4.31051 15.9671 4.37337 15.9882 4.4385 15.9965C4.50364 16.0048 4.56978 16.0003 4.63315 15.983C4.69651 15.9658 4.75587 15.9363 4.80783 15.8961C4.85978 15.856 4.90331 15.806 4.93595 15.749C4.96858 15.692 4.98966 15.6291 4.998 15.564C4.998 15.564 5.346 12.846 6.191 10.15C6.614 8.802 7.164 7.463 7.824 6.501C8.484 5.54 9.2 5 10 5C10.801 5 11.516 5.54 12.176 6.502C12.836 7.464 13.386 8.802 13.809 10.151C14.654 12.847 15.002 15.565 15.002 15.565C15.0103 15.6301 15.0314 15.693 15.0641 15.75C15.0967 15.807 15.1402 15.857 15.1922 15.8971C15.2441 15.9373 15.3035 15.9668 15.3669 15.984C15.4302 16.0013 15.4964 16.0058 15.5615 15.9975C15.6266 15.9892 15.6895 15.9681 15.7465 15.9354C15.8035 15.9028 15.8535 15.8593 15.8936 15.8073C15.9338 15.7554 15.9633 15.696 15.9805 15.6326C15.9978 15.5693 16.0023 15.5031 15.994 15.438C15.994 15.438 15.643 12.656 14.764 9.852C14.324 8.45 13.755 7.037 13 5.936C12.245 4.835 11.248 4 10 4Z" fill="currentColor"/>
</svg>
