<svg width="20" height="20" viewBox="0 0 20 20" fill="none" xmlns="http://www.w3.org/2000/svg">
<path d="M15.5 4C15.4224 4 15.3458 4.01807 15.2764 4.05279C15.207 4.0875 15.1466 4.1379 15.1 4.2C13.552 6.262 12.246 9 10.514 11.19C8.78 13.377 6.702 15 3.5 15C3.36739 15 3.24021 15.0527 3.14645 15.1464C3.05268 15.2402 3 15.3674 3 15.5C3 15.6326 3.05268 15.7598 3.14645 15.8536C3.24021 15.9473 3.36739 16 3.5 16C7.048 16 9.469 14.122 11.299 11.81C13.077 9.565 14.366 6.926 15.769 5H16.5C16.6326 5 16.7598 4.94732 16.8536 4.85355C16.9473 4.75979 17 4.63261 17 4.5C17 4.36739 16.9473 4.24021 16.8536 4.14645C16.7598 4.05268 16.6326 4 16.5 4H15.5Z" fill="currentColor"/>
</svg>
