<svg width="20" height="20" viewBox="0 0 20 20" fill="none" xmlns="http://www.w3.org/2000/svg">
<path d="M16.5 4C12.952 4 10.531 5.878 8.701 8.19C6.923 10.435 5.634 13.074 4.231 15H3.5C3.36739 15 3.24021 15.0527 3.14645 15.1464C3.05268 15.2402 3 15.3674 3 15.5C3 15.6326 3.05268 15.7598 3.14645 15.8536C3.24021 15.9473 3.36739 16 3.5 16H4.5C4.57762 16 4.65418 15.9819 4.72361 15.9472C4.79303 15.9125 4.85343 15.8621 4.9 15.8C6.448 13.738 7.754 11 9.486 8.81C11.22 6.623 13.298 5 16.5 5C16.6326 5 16.7598 4.94732 16.8536 4.85355C16.9473 4.75979 17 4.63261 17 4.5C17 4.36739 16.9473 4.24021 16.8536 4.14645C16.7598 4.05268 16.6326 4 16.5 4Z" fill="currentColor"/>
</svg>
