<svg width="20" height="20" viewBox="0 0 20 20" fill="none" xmlns="http://www.w3.org/2000/svg">
<path d="M3.5 4C3.36739 4 3.24021 4.05268 3.14645 4.14645C3.05268 4.24021 3 4.36739 3 4.5C3 4.63261 3.05268 4.75979 3.14645 4.85355C3.24021 4.94732 3.36739 5 3.5 5H4C4.117 5 4.218 5.035 4.361 5.158C4.504 5.281 4.671 5.495 4.831 5.791C5.149 6.383 5.445 7.286 5.701 8.346C6.215 10.464 6.593 13.21 7.008 15.586C7.029 15.7003 7.08918 15.8038 7.17819 15.8785C7.26719 15.9533 7.37946 15.9947 7.4957 15.9956C7.61193 15.9966 7.72486 15.957 7.81507 15.8837C7.90528 15.8104 7.96714 15.708 7.99 15.594C8.232 14.327 8.596 13.398 8.979 12.824C9.361 12.25 9.719 12.063 10 12.063C10.281 12.063 10.639 12.25 11.021 12.824C11.404 13.398 11.768 14.327 12.01 15.594C12.031 15.7011 12.0865 15.7983 12.168 15.8709C12.2494 15.9435 12.3524 15.9875 12.4612 15.9961C12.57 16.0047 12.6786 15.9775 12.7704 15.9186C12.8623 15.8598 12.9324 15.7724 12.97 15.67C13.212 15.008 13.45 14.528 13.654 14.248C13.858 13.968 13.979 13.938 14 13.938C14.02 13.938 14.142 13.968 14.346 14.248C14.549 14.528 14.788 15.008 15.029 15.67C15.064 15.7668 15.128 15.8504 15.2123 15.9095C15.2966 15.9686 15.3971 16.0002 15.5 16H16.5C16.6326 16 16.7598 15.9473 16.8536 15.8536C16.9473 15.7598 17 15.6326 17 15.5C17 15.3674 16.9473 15.2402 16.8536 15.1464C16.7598 15.0527 16.6326 15 16.5 15H15.809C15.599 14.48 15.392 13.985 15.154 13.658C14.858 13.25 14.479 12.938 14 12.938C13.52 12.938 13.142 13.25 12.846 13.658C12.744 13.798 12.659 14.058 12.564 14.232C12.344 13.53 12.162 12.732 11.854 12.27C11.361 11.531 10.719 11.063 10 11.063C9.281 11.063 8.639 11.531 8.146 12.27C7.938 12.583 7.833 13.177 7.664 13.6C7.359 11.728 7.073 9.765 6.672 8.111C6.405 7.011 6.106 6.049 5.711 5.316C5.514 4.95 5.292 4.639 5.014 4.4C4.73443 4.15015 4.37485 4.0083 4 4H3.5Z" fill="currentColor"/>
</svg>
