<svg width="20" height="20" viewBox="0 0 20 20" fill="none" xmlns="http://www.w3.org/2000/svg">
<path d="M15.5 4C15.3926 3.9999 15.2881 4.03436 15.2018 4.0983C15.1155 4.16223 15.0521 4.25224 15.021 4.355C14.042 7.619 13.364 10.372 12.607 12.25C12.229 13.189 11.83 13.903 11.407 14.352C10.982 14.8 10.569 15 10 15C9.18 15 8.228 14.146 7.258 13.15C6.773 12.652 6.285 12.139 5.762 11.73C5.239 11.322 4.662 11 4 11H3.5C3.36739 11 3.24021 11.0527 3.14645 11.1464C3.05268 11.2402 3 11.3674 3 11.5C3 11.6326 3.05268 11.7598 3.14645 11.8536C3.24021 11.9473 3.36739 12 3.5 12H4C4.323 12 4.71 12.178 5.146 12.52C5.584 12.861 6.054 13.348 6.543 13.85C7.521 14.854 8.583 16 10 16C10.836 16 11.567 15.638 12.133 15.04C12.699 14.44 13.133 13.622 13.535 12.623C14.303 10.715 14.966 8.05 15.869 5H16.5C16.6326 5 16.7598 4.94732 16.8536 4.85355C16.9473 4.75979 17 4.63261 17 4.5C17 4.36739 16.9473 4.24022 16.8536 4.14645C16.7598 4.05268 16.6326 4 16.5 4H15.5Z" fill="currentColor"/>
</svg>
