<svg width="20" height="20" viewBox="0 0 20 20" fill="none" xmlns="http://www.w3.org/2000/svg">
<path d="M3.437 4C3.37134 4.00328 3.30697 4.01947 3.24756 4.04763C3.18815 4.07579 3.13488 4.11537 3.09077 4.16412C3.00169 4.26258 2.95537 4.39239 2.962 4.525C2.96863 4.65761 3.02767 4.78215 3.12612 4.87123C3.22458 4.96031 3.35439 5.00663 3.487 5H3.82C3.83 5.426 3.87 7.523 4.156 10.057C4.313 11.447 4.531 12.839 4.853 13.924C5.015 14.467 5.198 14.934 5.445 15.305C5.692 15.677 6.059 16 6.539 16C6.931 16 7.288 15.792 7.516 15.52C7.743 15.248 7.886 14.92 8.002 14.557C8.232 13.831 8.348 12.943 8.471 12.069C8.593 11.195 8.723 10.336 8.92 9.752C9.018 9.461 9.134 9.244 9.234 9.132C9.334 9.019 9.379 9 9.486 9C9.654 9 9.779 9.085 9.973 9.39C10.166 9.697 10.35 10.175 10.535 10.674C10.72 11.174 10.907 11.694 11.18 12.137C11.452 12.58 11.89 13 12.486 13C12.906 13 13.262 12.765 13.478 12.508C13.694 12.252 13.826 11.97 13.949 11.719C14.072 11.468 14.188 11.249 14.285 11.129C14.383 11.01 14.403 11 14.486 11C14.572 11 14.673 11.081 14.885 11.326C14.991 11.449 15.109 11.596 15.279 11.733C15.449 11.87 15.697 12 15.986 12H16.443C16.495 12 16.474 12.005 16.564 12C16.6297 11.9963 16.694 11.9797 16.7532 11.9512C16.8125 11.9227 16.8655 11.8828 16.9094 11.8338C16.9532 11.7847 16.9869 11.7275 17.0087 11.6655C17.0304 11.6034 17.0397 11.5377 17.036 11.472C17.0323 11.4063 17.0157 11.342 16.9872 11.2828C16.9587 11.2235 16.9188 11.1705 16.8698 11.1266C16.8207 11.0828 16.7635 11.0491 16.7015 11.0273C16.6394 11.0056 16.5737 10.9963 16.508 11C16.583 10.996 16.491 11 16.441 11H15.986C15.976 11 15.969 11.004 15.906 10.953C15.811 10.8662 15.7224 10.7726 15.641 10.673C15.42 10.417 15.071 10 14.486 10C14.07 10 13.719 10.239 13.51 10.494C13.3 10.75 13.173 11.031 13.05 11.28C12.929 11.529 12.813 11.747 12.713 11.866C12.613 11.984 12.585 12 12.486 12C12.336 12 12.218 11.919 12.029 11.612C11.84 11.305 11.659 10.827 11.473 10.326C11.287 9.826 11.097 9.302 10.816 8.858C10.536 8.414 10.088 8 9.486 8C9.09 8 8.726 8.199 8.486 8.469C8.246 8.739 8.093 9.069 7.971 9.434C7.725 10.164 7.603 11.054 7.481 11.93C7.358 12.806 7.235 13.668 7.049 14.254C6.955 14.547 6.843 14.766 6.749 14.877C6.657 14.988 6.626 15 6.539 15C6.512 15 6.43 14.98 6.277 14.75C6.124 14.52 5.957 14.128 5.812 13.639C5.522 12.662 5.304 11.304 5.15 9.944C4.844 7.224 4.787 4.491 4.787 4.491C4.78438 4.36013 4.73055 4.23551 4.63706 4.14389C4.54358 4.05228 4.41789 4.00097 4.287 4.001H3.487C3.47034 4.00017 3.45366 4.00017 3.437 4.001V4Z" fill="currentColor"/>
</svg>
