<svg width="20" height="20" viewBox="0 0 20 20" fill="none" xmlns="http://www.w3.org/2000/svg">
<path d="M16 4C14.403 4 13.14 4.788 12.139 5.88C11.136 6.974 10.346 8.379 9.564 9.754C8.784 11.129 8.011 12.474 7.123 13.444C6.235 14.412 5.278 15 4 15H3.5C3.36739 15 3.24021 15.0527 3.14645 15.1464C3.05268 15.2402 3 15.3674 3 15.5C3 15.6326 3.05268 15.7598 3.14645 15.8536C3.24021 15.9473 3.36739 16 3.5 16H4C5.597 16 6.86 15.212 7.861 14.12C8.864 13.026 9.654 11.621 10.436 10.246C11.216 8.871 11.989 7.526 12.877 6.556C13.765 5.588 14.722 5 16 5H16.5C16.6326 5 16.7598 4.94732 16.8536 4.85355C16.9473 4.75979 17 4.63261 17 4.5C17 4.36739 16.9473 4.24021 16.8536 4.14645C16.7598 4.05268 16.6326 4 16.5 4H16Z" fill="currentColor"/>
</svg>
