<svg width="20" height="20" viewBox="0 0 20 20" fill="none" xmlns="http://www.w3.org/2000/svg">
<path d="M9.5 3C9.36739 3 9.24021 3.05268 9.14645 3.14645C9.05268 3.24021 9 3.36739 9 3.5C9 3.63261 9.05268 3.75979 9.14645 3.85355C9.24021 3.94732 9.36739 4 9.5 4H12.004L12.002 4.143L7.042 15.551C7.01325 15.6182 6.9996 15.6909 7.002 15.764L7.008 16H4.5C4.36739 16 4.24021 16.0527 4.14645 16.1464C4.05268 16.2402 4 16.3674 4 16.5C4 16.6326 4.05268 16.7598 4.14645 16.8536C4.24021 16.9473 4.36739 17 4.5 17H10.5C10.6326 17 10.7598 16.9473 10.8536 16.8536C10.9473 16.7598 11 16.6326 11 16.5C11 16.3674 10.9473 16.2402 10.8536 16.1464C10.7598 16.0527 10.6326 16 10.5 16H8.008C8.00807 15.9953 8.00807 15.9907 8.008 15.986L8.004 15.848L12.959 4.449C12.9847 4.38858 12.9983 4.32368 12.999 4.258L13.005 4H15.5C15.6326 4 15.7598 3.94732 15.8536 3.85355C15.9473 3.75979 16 3.63261 16 3.5C16 3.36739 15.9473 3.24021 15.8536 3.14645C15.7598 3.05268 15.6326 3 15.5 3H9.5Z" fill="currentColor"/>
</svg>
