<svg width="20" height="20" viewBox="0 0 20 20" fill="none" xmlns="http://www.w3.org/2000/svg">
<path d="M13.502 3.00101C12.5737 3.00101 11.6835 3.36975 11.0271 4.02612C10.3707 4.6825 10.002 5.57275 10.002 6.50101C10.002 7.42927 10.3707 8.31951 11.0271 8.97589C11.6835 9.63227 12.5737 10.001 13.502 10.001C14.4303 10.001 15.3205 9.63227 15.9769 8.97589C16.6333 8.31951 17.002 7.42927 17.002 6.50101C17.002 5.57275 16.6333 4.6825 15.9769 4.02612C15.3205 3.36975 14.4303 3.00101 13.502 3.00101ZM13.002 4.00101H14.002V6.00101H16.002V7.00101H14.002V9.00101H13.002V7.00101H11.002V6.00101H13.002V4.00101Z" fill="currentColor"/>
<path d="M17.002 13.002L9.89101 12.998C9.63601 11.319 8.24399 10.004 6.49599 10.004C5.56909 10.0056 4.68058 10.3744 4.02498 11.0296C3.36938 11.6848 3.00012 12.5731 2.998 13.5C3.00011 14.4271 3.36931 15.3156 4.02486 15.9711C4.6804 16.6267 5.56891 16.9959 6.49599 16.998C8.24599 16.998 9.63801 15.679 9.89101 13.998L17.001 14.002L17.002 13.002ZM8.99202 13.5C8.99308 13.8282 8.92925 14.1533 8.80421 14.4567C8.67918 14.7601 8.4954 15.0359 8.26344 15.268C8.03148 15.5001 7.75591 15.6841 7.45259 15.8094C7.14927 15.9347 6.82416 15.9988 6.49599 15.998C6.16765 15.9991 5.84238 15.9352 5.53883 15.81C5.23528 15.6848 4.95948 15.5009 4.72731 15.2687C4.49514 15.0365 4.31115 14.7607 4.18599 14.4572C4.06083 14.1536 3.99694 13.8283 3.998 13.5C3.99721 13.1718 4.06132 12.8467 4.1866 12.5434C4.31188 12.2401 4.49584 11.9645 4.72798 11.7326C4.96013 11.5006 5.23584 11.3168 5.53926 11.1918C5.84268 11.0668 6.16782 11.0029 6.49599 11.004C6.82406 11.0029 7.1491 11.0668 7.45241 11.1918C7.75571 11.3169 8.03133 11.5007 8.26332 11.7327C8.49531 11.9647 8.67909 12.2403 8.80415 12.5436C8.92921 12.8469 8.99308 13.1719 8.99202 13.5Z" fill="currentColor"/>
<path d="M16.998 14.498H13.998V15.498C13.998 15.6306 14.0507 15.7578 14.1444 15.8516C14.2382 15.9453 14.3654 15.998 14.498 15.998H16.498C16.6306 15.998 16.7578 15.9453 16.8516 15.8516C16.9453 15.7578 16.998 15.6306 16.998 15.498V14.498Z" fill="currentColor"/>
</svg>
