<svg width="20" height="20" viewBox="0 0 20 20" fill="none" xmlns="http://www.w3.org/2000/svg">
<path d="M16.998 13.006L9.887 13.002C9.632 11.323 8.23999 10.008 6.49199 10.008C5.56509 10.0096 4.67658 10.3784 4.02098 11.0336C3.36538 11.6888 2.99611 12.5771 2.994 13.504C2.99611 14.4311 3.36531 15.3196 4.02085 15.9751C4.6764 16.6307 5.56491 16.9999 6.49199 17.002C8.24199 17.002 9.63401 15.683 9.887 14.002L16.997 14.006L16.998 13.006ZM8.98802 13.504C8.98907 13.8322 8.92525 14.1573 8.80021 14.4607C8.67518 14.7641 8.4914 15.0399 8.25944 15.272C8.02748 15.5041 7.75191 15.6881 7.44859 15.8134C7.14527 15.9387 6.82016 16.0028 6.49199 16.002C6.16365 16.0031 5.83838 15.9392 5.53483 15.814C5.23128 15.6888 4.95548 15.5049 4.72331 15.2727C4.49114 15.0405 4.30715 14.7647 4.18199 14.4612C4.05683 14.1576 3.99294 13.8323 3.994 13.504C3.99321 13.1758 4.05732 12.8507 4.1826 12.5474C4.30788 12.2441 4.49183 11.9685 4.72398 11.7366C4.95613 11.5046 5.23184 11.3208 5.53526 11.1958C5.83868 11.0708 6.16382 11.0069 6.49199 11.008C6.82006 11.0069 7.1451 11.0708 7.44841 11.1958C7.75171 11.3209 8.02733 11.5047 8.25932 11.7367C8.49131 11.9687 8.67509 12.2443 8.80015 12.5476C8.92521 12.8509 8.98907 13.1759 8.98802 13.504Z" fill="currentColor"/>
<path d="M16.994 14.502H13.994V15.502C13.994 15.6346 14.0467 15.7618 14.1404 15.8556C14.2342 15.9493 14.3614 16.002 14.494 16.002H16.494C16.6266 16.002 16.7538 15.9493 16.8476 15.8556C16.9413 15.7618 16.994 15.6346 16.994 15.502V14.502Z" fill="currentColor"/>
<path d="M10.493 2.99899C10.3932 2.99879 10.2957 3.02846 10.2129 3.08414C10.1301 3.13982 10.0659 3.21899 10.0285 3.31146C9.99106 3.40394 9.98217 3.50548 10.0029 3.60306C10.0237 3.70064 10.0732 3.78978 10.145 3.85901L12.792 6.50501L10.145 9.151C10.0511 9.24489 9.99836 9.37223 9.99836 9.50501C9.99836 9.63778 10.0511 9.76512 10.145 9.85901C10.2389 9.9529 10.3662 10.0056 10.499 10.0056C10.6318 10.0056 10.7591 9.9529 10.853 9.85901L13.499 7.21201L16.145 9.85901C16.2389 9.9529 16.3662 10.0056 16.499 10.0056C16.6318 10.0056 16.7591 9.9529 16.853 9.85901C16.9469 9.76512 16.9996 9.63778 16.9996 9.50501C16.9996 9.37223 16.9469 9.24489 16.853 9.151L14.206 6.50501L16.853 3.85901C16.9469 3.76512 16.9996 3.63778 16.9996 3.50501C16.9996 3.37223 16.9469 3.24489 16.853 3.151C16.7591 3.05712 16.6318 3.00437 16.499 3.00437C16.3662 3.00437 16.2389 3.05712 16.145 3.151L13.499 5.79801L10.853 3.151C10.8063 3.10279 10.7503 3.06451 10.6885 3.03839C10.6266 3.01228 10.5601 2.99886 10.493 2.99899Z" fill="currentColor"/>
</svg>
