<svg width="20" height="20" viewBox="0 0 20 20" fill="none" xmlns="http://www.w3.org/2000/svg">
<path d="M9.999 5.502C9.86838 5.50334 9.74348 5.55574 9.651 5.648L5.651 9.646C5.55727 9.73976 5.50461 9.86692 5.50461 9.9995C5.50461 10.1321 5.55727 10.2592 5.651 10.353L9.651 14.353C9.74468 14.4461 9.87141 14.4984 10.0035 14.4984C10.1356 14.4984 10.2623 14.4461 10.356 14.353L14.348 10.375C14.442 10.2815 14.495 10.1545 14.4954 10.0219C14.4958 9.88933 14.4435 9.76203 14.35 9.668L10.358 5.648C10.3108 5.60088 10.2546 5.56368 10.1928 5.53861C10.1309 5.51353 10.0647 5.50109 9.998 5.502H9.999ZM10.003 6.711L13.29 10.019L10.004 13.293L6.711 10L10.003 6.711Z" fill="currentColor"/>
</svg>
