<svg width="20" height="20" viewBox="0 0 20 20" fill="none" xmlns="http://www.w3.org/2000/svg">
<path d="M5.48899 2.993C5.42333 2.99404 5.35852 3.00801 5.29826 3.03411C5.23799 3.0602 5.18345 3.09791 5.13776 3.14508C5.09208 3.19226 5.05614 3.24797 5.03199 3.30904C5.00784 3.37011 4.99593 3.43533 4.99699 3.501V11.057C4.43485 11.1741 3.93002 11.4808 3.56702 11.9258C3.20403 12.3707 3.00491 12.9268 3.003 13.501C3.00485 14.1619 3.2682 14.7952 3.73551 15.2625C4.20283 15.7298 4.8361 15.9932 5.49699 15.995C6.15787 15.9932 6.79118 15.7298 7.25849 15.2625C7.72581 14.7952 7.98916 14.1619 7.991 13.501C7.991 12.3 7.13199 11.291 5.99699 11.057V3.501C5.99807 3.43399 5.98566 3.36745 5.96052 3.30533C5.93537 3.24321 5.89801 3.18677 5.85062 3.13938C5.80323 3.09199 5.74679 3.05462 5.68467 3.02947C5.62255 3.00432 5.556 2.99192 5.48899 2.993ZM6.49699 4.001V7.001H7.49699C7.62959 7.001 7.75679 6.94833 7.85056 6.85456C7.94433 6.76079 7.99699 6.6336 7.99699 6.501V4.501C7.99699 4.36839 7.94433 4.24122 7.85056 4.14745C7.75679 4.05368 7.62959 4.001 7.49699 4.001H6.49699ZM5.49699 12.007C6.32899 12.007 6.991 12.669 6.991 13.501C6.991 14.332 6.32899 14.995 5.49699 14.995C5.30049 14.9961 5.10576 14.9581 4.92402 14.8834C4.74228 14.8087 4.57715 14.6987 4.43821 14.5598C4.29927 14.4208 4.18928 14.2557 4.11457 14.074C4.03987 13.8922 4.00194 13.6975 4.003 13.501C4.003 12.669 4.66599 12.007 5.49699 12.007Z" fill="currentColor"/>
<path d="M16.101 8.396L14.393 10.104L15.143 10.854C15.1895 10.9006 15.2446 10.9375 15.3054 10.9627C15.3661 10.9879 15.4312 11.0009 15.497 11.0009C15.5628 11.0009 15.6279 10.9879 15.6886 10.9627C15.7494 10.9375 15.8046 10.9006 15.851 10.854L16.376 10.328L16.851 9.854C16.8976 9.80756 16.9345 9.7524 16.9597 9.69165C16.9849 9.63091 16.9979 9.56577 16.9979 9.5C16.9979 9.43423 16.9849 9.36909 16.9597 9.30835C16.9345 9.2476 16.8976 9.19244 16.851 9.146L16.101 8.396ZM15.486 6.99597C15.3564 6.99993 15.2334 7.05407 15.143 7.14697L10.731 11.557C10.3411 11.2787 9.89016 11.098 9.416 11.03C9.38296 11.0247 9.34946 11.0226 9.316 11.024C9.19041 11.029 9.07131 11.0811 8.98242 11.17C8.89353 11.2588 8.84137 11.3779 8.83632 11.5035C8.83128 11.6291 8.87372 11.752 8.9552 11.8477C9.03668 11.9434 9.15122 12.005 9.276 12.02C9.993 12.121 10.597 12.6 10.859 13.276C10.9883 13.607 11.0269 13.9665 10.9709 14.3174C10.915 14.6683 10.7665 14.9979 10.5407 15.2723C10.3149 15.5467 10.02 15.7559 9.68646 15.8784C9.35289 16.0008 8.9927 16.0321 8.64301 15.969C8.57833 15.9573 8.51198 15.9585 8.44776 15.9724C8.38353 15.9864 8.32268 16.0128 8.26869 16.0503C8.21469 16.0878 8.1686 16.1355 8.13305 16.1908C8.0975 16.2461 8.07319 16.3078 8.0615 16.3725C8.04982 16.4372 8.05098 16.5035 8.06494 16.5677C8.07889 16.632 8.10536 16.6928 8.14283 16.7468C8.18029 16.8008 8.22803 16.8469 8.28331 16.8824C8.33859 16.918 8.40033 16.9423 8.46501 16.954C8.98968 17.048 9.52991 17.0006 10.0302 16.8167C10.5305 16.6327 10.9728 16.3189 11.3116 15.9075C11.6505 15.496 11.8737 15.0017 11.9583 14.4755C12.0429 13.9492 11.9858 13.4099 11.793 12.913C11.7028 12.6826 11.5842 12.4642 11.44 12.263L15.85 7.854C15.9218 7.78365 15.9708 7.69326 15.9905 7.59467C16.0101 7.49607 15.9996 7.39387 15.9603 7.30133C15.921 7.2088 15.8548 7.13028 15.7701 7.07599C15.6855 7.0217 15.5865 6.99417 15.486 6.99701V6.99597Z" fill="currentColor"/>
</svg>
