<svg width="20" height="20" viewBox="0 0 20 20" fill="none" xmlns="http://www.w3.org/2000/svg">
<path d="M4.493 2.996C4.36039 2.996 4.23322 3.04868 4.13945 3.14245C4.04568 3.23622 3.993 3.36339 3.993 3.496V6.496C3.993 6.62861 4.04568 6.75579 4.13945 6.84956C4.23322 6.94332 4.36039 6.996 4.493 6.996H5.355L4.527 10.303C4.52632 10.305 4.52566 10.307 4.525 10.309C4.50634 10.3547 4.49455 10.4029 4.49 10.452C4.49 10.4533 4.49 10.4547 4.49 10.456L3.009 16.376C2.99046 16.4497 2.98896 16.5266 3.0046 16.601C3.02025 16.6753 3.05262 16.7451 3.09928 16.8051C3.14594 16.865 3.20564 16.9136 3.27386 16.947C3.34209 16.9804 3.41703 16.9979 3.493 16.998H8.417C8.46508 17.005 8.51393 17.005 8.562 16.998H13.47C13.5812 16.9978 13.6892 16.9605 13.7769 16.8921C13.8645 16.8236 13.9269 16.7279 13.954 16.62L16.991 4.63C17.0095 4.55633 17.011 4.47939 16.9954 4.40505C16.9798 4.3307 16.9474 4.2609 16.9007 4.20094C16.8541 4.14098 16.7944 4.09245 16.7261 4.05901C16.6579 4.02558 16.583 4.00814 16.507 4.008L11.597 4.002C11.5307 3.9884 11.4623 3.9884 11.396 4.002L7.993 3.996V3.496C7.993 3.36339 7.94032 3.23622 7.84655 3.14245C7.75279 3.04868 7.62561 2.996 7.493 2.996H4.493ZM4.993 3.996H6.993V5.996H6.072C6.02392 5.98896 5.97508 5.98896 5.927 5.996H4.993V3.996ZM7.993 4.996L10.853 5L9.605 9.996H5.636L6.386 6.996H7.493C7.62561 6.996 7.75279 6.94332 7.84655 6.84956C7.94032 6.75579 7.993 6.62861 7.993 6.496V4.996ZM11.884 5.002L15.864 5.008L14.601 9.997H10.636L11.884 5.002ZM5.386 10.996H9.355L8.103 15.998H4.136L5.386 10.996ZM10.386 10.996H14.347L13.079 15.998H9.136L10.386 10.996Z" fill="currentColor"/>
</svg>
