<svg width="20" height="20" viewBox="0 0 20 20" fill="none" xmlns="http://www.w3.org/2000/svg">
<path d="M13.555 3.017C12.757 2.979 11.983 3.294 11.395 3.882L9.91 5.371C9.294 5.946 8.975 6.725 9.017 7.525C9.01777 7.59228 9.0321 7.65872 9.05916 7.72033C9.08621 7.78194 9.12542 7.83746 9.17444 7.88356C9.22346 7.92965 9.28128 7.96538 9.34443 7.9886C9.40759 8.01182 9.47478 8.02205 9.54199 8.01868C9.60919 8.01532 9.67502 7.99842 9.73554 7.96901C9.79606 7.93959 9.85002 7.89826 9.89419 7.8475C9.93835 7.79673 9.97182 7.73757 9.99258 7.67357C10.0133 7.60956 10.021 7.54202 10.015 7.475C9.988 6.959 10.171 6.494 10.591 6.101C10.5951 6.09706 10.5991 6.09306 10.603 6.089L12.103 4.589C12.515 4.178 12.993 3.991 13.507 4.015C14.022 4.04 14.592 4.285 15.146 4.839C15.701 5.394 15.956 5.975 15.984 6.492C16.012 7.009 15.832 7.477 15.41 7.871C15.4053 7.87458 15.4006 7.87825 15.396 7.882L13.896 9.382C13.484 9.794 13.019 9.986 12.5 9.986C12.3674 9.986 12.2402 10.0387 12.1464 10.1324C12.0527 10.2262 12 10.3534 12 10.486C12 10.6186 12.0527 10.7458 12.1464 10.8396C12.2402 10.9333 12.3674 10.986 12.5 10.986C13.28 10.986 14.024 10.668 14.603 10.089L16.091 8.601C16.39 8.3283 16.6251 7.99293 16.7795 7.61884C16.9338 7.24476 17.0037 6.8412 16.984 6.437C16.94 5.634 16.548 4.827 15.853 4.132C15.157 3.437 14.354 3.055 13.556 3.017H13.555ZM12.475 6.996C12.3452 6.99944 12.2218 7.05323 12.131 7.146L7.131 12.146C7.08324 12.1921 7.04515 12.2473 7.01895 12.3083C6.99274 12.3693 6.97895 12.4349 6.97837 12.5013C6.9778 12.5677 6.99045 12.6335 7.01559 12.695C7.04073 12.7564 7.07786 12.8122 7.1248 12.8592C7.17175 12.9061 7.22757 12.9433 7.28902 12.9684C7.35047 12.9935 7.41631 13.0062 7.4827 13.0056C7.54909 13.005 7.6147 12.9913 7.6757 12.965C7.7367 12.9388 7.79188 12.9008 7.838 12.853L12.838 7.853C12.9098 7.78271 12.9587 7.69243 12.9784 7.59394C12.9981 7.49545 12.9877 7.3933 12.9485 7.30081C12.9093 7.20832 12.8432 7.12978 12.7587 7.07541C12.6743 7.02104 12.5754 6.99336 12.475 6.996ZM7.545 9.017C7.13917 8.99495 6.73351 9.06335 6.35736 9.21727C5.98121 9.37119 5.64396 9.60678 5.37 9.907L3.88 11.397C3.292 11.985 2.977 12.757 3.015 13.555C3.053 14.353 3.435 15.158 4.13 15.854C4.826 16.549 5.634 16.939 6.437 16.983C6.84069 17.0032 7.24385 16.9338 7.61761 16.78C7.99138 16.6261 8.3265 16.3915 8.599 16.093L10.087 14.604C10.666 14.025 10.984 13.281 10.984 12.501C10.984 12.3684 10.9313 12.2412 10.8376 12.1474C10.7438 12.0537 10.6166 12.001 10.484 12.001C10.3514 12.001 10.2242 12.0537 10.1304 12.1474C10.0367 12.2412 9.984 12.3684 9.984 12.501C9.984 13.021 9.793 13.485 9.38 13.897L7.88 15.397C7.87627 15.4009 7.8726 15.4049 7.869 15.409C7.475 15.831 7.009 16.013 6.492 15.985C5.975 15.957 5.392 15.702 4.837 15.147C4.283 14.593 4.04 14.023 4.015 13.508C3.991 12.994 4.175 12.516 4.587 12.104L6.087 10.604C6.09107 10.6001 6.09507 10.5961 6.099 10.592C6.495 10.168 6.965 9.985 7.486 10.016C7.55249 10.0215 7.61941 10.0137 7.68283 9.993C7.74625 9.97228 7.80488 9.93908 7.85527 9.89535C7.90566 9.85162 7.94679 9.79824 7.97623 9.73837C8.00567 9.6785 8.02284 9.61334 8.02671 9.54674C8.03058 9.48013 8.02108 9.41342 7.99877 9.35054C7.97646 9.28766 7.94179 9.22989 7.89681 9.18061C7.85183 9.13134 7.79744 9.09157 7.73684 9.06364C7.67625 9.03571 7.61068 9.02019 7.544 9.018L7.545 9.017Z" fill="currentColor"/>
</svg>
