<svg width="20" height="20" viewBox="0 0 20 20" fill="none" xmlns="http://www.w3.org/2000/svg">
<path d="M4.504 2.99501C4.43789 2.99476 4.37236 3.00762 4.31125 3.03286C4.25015 3.05809 4.19466 3.0952 4.14799 3.14202L3.14399 4.14901C3.06993 4.22327 3.02109 4.31895 3.0044 4.4225C2.98771 4.52605 3.00402 4.63222 3.051 4.726L6.051 10.726C6.0785 10.7876 6.11816 10.843 6.16764 10.8889C6.21712 10.9348 6.27539 10.9702 6.3389 10.9929C6.40242 11.0157 6.46985 11.0253 6.53721 11.0214C6.60456 11.0174 6.6704 10.9998 6.73078 10.9697C6.79115 10.9395 6.84482 10.8975 6.88852 10.8461C6.93223 10.7947 6.96507 10.735 6.98508 10.6706C7.0051 10.6061 7.01187 10.5383 7.00498 10.4712C6.99809 10.4041 6.97767 10.339 6.94498 10.28L4.10499 4.59999L4.711 3.99501H11.181L15.904 14.385L15.294 14.995L9.309 15.003L8.95099 14.277C8.92424 14.2146 8.88507 14.1584 8.83588 14.1117C8.78669 14.065 8.7285 14.0287 8.66486 14.0052C8.60122 13.9817 8.53343 13.9713 8.46567 13.9748C8.39791 13.9783 8.3316 13.9956 8.27073 14.0256C8.20985 14.0556 8.15569 14.0976 8.11158 14.1491C8.06747 14.2007 8.03432 14.2607 8.01413 14.3255C7.99395 14.3902 7.98718 14.4584 7.99421 14.5259C8.00123 14.5934 8.02191 14.6588 8.055 14.718L8.54899 15.724C8.59028 15.8078 8.65426 15.8784 8.73362 15.9277C8.81298 15.977 8.90456 16.0031 8.99799 16.003L15.504 15.995C15.6364 15.995 15.7633 15.9425 15.857 15.849L16.857 14.849C16.9291 14.777 16.9776 14.6847 16.9958 14.5845C17.014 14.4842 17.0012 14.3808 16.959 14.288L11.959 3.28801C11.9193 3.20066 11.8553 3.12659 11.7746 3.07463C11.6939 3.02268 11.6 2.99504 11.504 2.99501H4.504ZM10.004 8.997C9.73879 8.997 9.48442 9.10237 9.29688 9.28991C9.10934 9.47744 9.004 9.73178 9.004 9.997C9.00355 10.0847 9.01463 10.1722 9.03699 10.257L8.89399 10.399C8.8001 10.4929 8.74735 10.6202 8.74735 10.753C8.74735 10.8858 8.8001 11.0131 8.89399 11.107C8.98787 11.2009 9.11522 11.2537 9.24799 11.2537C9.38077 11.2537 9.50811 11.2009 9.60199 11.107L9.74598 10.962C9.83008 10.9849 9.91685 10.9966 10.004 10.997C10.2692 10.997 10.5236 10.8917 10.7111 10.7041C10.8986 10.5166 11.004 10.2622 11.004 9.997C11.004 9.73178 10.8986 9.47744 10.7111 9.28991C10.5236 9.10237 10.2692 8.997 10.004 8.997ZM7.49399 11.989C7.36377 11.9932 7.24035 12.0481 7.15 12.142L6.15 13.142C6.10224 13.1881 6.06414 13.2433 6.03794 13.3043C6.01173 13.3653 5.99796 13.4309 5.99738 13.4973C5.9968 13.5637 6.00944 13.6295 6.03458 13.691C6.05972 13.7524 6.09686 13.8083 6.1438 13.8552C6.19075 13.9022 6.24657 13.9393 6.30802 13.9644C6.36947 13.9896 6.43529 14.0022 6.50168 14.0016C6.56807 14.0011 6.63371 13.9873 6.69471 13.961C6.75571 13.9348 6.81088 13.8968 6.857 13.849L7.857 12.849C7.92984 12.7789 7.97973 12.6884 8.00007 12.5893C8.02041 12.4903 8.01024 12.3874 7.97092 12.2943C7.93161 12.2012 7.865 12.1221 7.77985 12.0676C7.69471 12.0131 7.59504 11.9857 7.49399 11.989ZM4.49198 14.989C4.36176 14.9932 4.23834 15.0481 4.14799 15.142L3.14799 16.146C3.0545 16.2402 3.00225 16.3676 3.00272 16.5003C3.00319 16.6329 3.05634 16.76 3.15049 16.8535C3.24464 16.947 3.37208 16.9993 3.50477 16.9988C3.63745 16.9983 3.76449 16.9452 3.85798 16.851L4.85798 15.847C4.93031 15.7766 4.97965 15.686 4.99949 15.587C5.01933 15.488 5.00876 15.3854 4.96915 15.2925C4.92955 15.1997 4.86276 15.121 4.77759 15.0668C4.69243 15.0126 4.59286 14.9855 4.49198 14.989Z" fill="currentColor"/>
</svg>
