<svg width="20" height="20" viewBox="0 0 20 20" fill="none" xmlns="http://www.w3.org/2000/svg">
<path d="M10 2.5C6.717 2.5 4 4.941 4 8C4 9.706 4.90498 11.146 6.15198 12.36L7.146 13.354C7.22681 13.4369 7.33388 13.4892 7.44897 13.502C7.32011 13.5134 7.20073 13.5744 7.11584 13.672C7.03096 13.7696 6.98717 13.8963 6.99377 14.0255C7.00038 14.1547 7.05685 14.2764 7.15125 14.3649C7.24564 14.4533 7.37064 14.5018 7.5 14.5H12.5C12.6288 14.5001 12.7526 14.4505 12.8457 14.3616C12.9388 14.2726 12.9941 14.1512 12.9999 14.0226C13.0057 13.8939 12.9616 13.768 12.8768 13.671C12.7921 13.5741 12.6733 13.5135 12.545 13.502C12.6623 13.4906 12.7716 13.4382 12.854 13.354L13.8521 12.355C15.0641 11.157 15.998 9.70395 15.998 8.00195C15.998 4.94295 13.282 2.50195 9.99805 2.50195L10 2.5ZM10 3.5C12.792 3.5 15 5.536 15 8C15 9.334 14.2569 10.549 13.1479 11.644L12.1479 12.644C12.0807 12.7093 12.0333 12.7921 12.0109 12.8831C11.9884 12.974 11.9921 13.0694 12.0212 13.1584C12.0504 13.2475 12.104 13.3266 12.1759 13.3866C12.2478 13.4466 12.3352 13.4852 12.428 13.498H7.56799C7.66137 13.4863 7.74954 13.4485 7.82239 13.3889C7.89523 13.3293 7.94976 13.2503 7.97974 13.1611C8.00972 13.0719 8.0139 12.9761 7.99182 12.8846C7.96975 12.7932 7.92234 12.7098 7.85498 12.644L6.85498 11.644C6.85169 11.6407 6.84835 11.6373 6.84497 11.634C5.70497 10.526 4.99799 9.34802 4.99799 7.99402C4.99799 5.53002 7.20605 3.49402 9.99805 3.49402L10 3.5ZM7.5 15.5C7.36739 15.5 7.24025 15.5527 7.14648 15.6465C7.05272 15.7403 7 15.8674 7 16C7 16.1326 7.05272 16.2597 7.14648 16.3535C7.24025 16.4473 7.36739 16.5 7.5 16.5H9V17C9 17.1326 9.05272 17.2597 9.14648 17.3535C9.24025 17.4473 9.36739 17.5 9.5 17.5H10.5C10.6326 17.5 10.7597 17.4473 10.8535 17.3535C10.9473 17.2597 11 17.1326 11 17V16.5H12.5C12.6326 16.5 12.7597 16.4473 12.8535 16.3535C12.9473 16.2597 13 16.1326 13 16C13 15.8674 12.9473 15.7403 12.8535 15.6465C12.7597 15.5527 12.6326 15.5 12.5 15.5H7.5Z" fill="currentColor"/>
<path d="M7.48994 7.50599C7.39299 7.50886 7.29895 7.53985 7.21931 7.59522C7.13968 7.65059 7.07792 7.728 7.04146 7.81788C7.005 7.90775 6.99543 8.00624 7.01399 8.10145C7.03255 8.19665 7.0784 8.28441 7.14595 8.35401L7.99995 9.20704V10.75C7.99995 10.8826 8.05267 11.0098 8.14644 11.1035C8.2402 11.1973 8.36734 11.25 8.49995 11.25C8.63256 11.25 8.7597 11.1973 8.85347 11.1035C8.94724 11.0098 8.99995 10.8826 8.99995 10.75V9.5H11V10.75C11 10.8826 11.0527 11.0098 11.1464 11.1035C11.2402 11.1973 11.3673 11.25 11.5 11.25C11.6326 11.25 11.7597 11.1973 11.8535 11.1035C11.9472 11.0098 12 10.8826 12 10.75V9.20704L12.854 8.35303C12.9449 8.2586 12.9952 8.13221 12.9938 8.0011C12.9925 7.87 12.9397 7.74468 12.8469 7.6521C12.754 7.55953 12.6286 7.50706 12.4975 7.50611C12.3664 7.50516 12.2401 7.55576 12.1459 7.64698L11.2929 8.5H8.70698L7.85298 7.646C7.8049 7.59959 7.74797 7.56324 7.68562 7.53919C7.62327 7.51514 7.55673 7.50388 7.48994 7.50599Z" fill="currentColor"/>
</svg>
