<svg width="20" height="20" viewBox="0 0 20 20" fill="none" xmlns="http://www.w3.org/2000/svg">
<path d="M7.063 3.00399C6.395 2.98599 5.845 3.004 5.485 3.006H5.48301C5.13801 3.006 4.828 3.07 4.567 3.234C4.31016 3.40017 4.12636 3.65799 4.05302 3.95498C3.91402 4.51898 4.09 5.09198 4.365 5.72298C4.916 6.98498 5.99902 8.49398 7.10002 9.82598C7.14173 9.8771 7.19314 9.91946 7.25129 9.95061C7.30945 9.98177 7.37319 10.0011 7.43885 10.0075C7.50452 10.0139 7.57081 10.0073 7.63389 9.98794C7.69697 9.96861 7.7556 9.93698 7.80641 9.89489C7.85721 9.85279 7.89916 9.80105 7.92988 9.74267C7.9606 9.68428 7.97948 9.62039 7.98539 9.55468C7.99131 9.48897 7.98414 9.42273 7.96434 9.35979C7.94453 9.29686 7.91248 9.23846 7.87001 9.18798C6.80201 7.89598 5.75402 6.40498 5.28102 5.32198C5.04502 4.78198 4.986 4.347 5.024 4.195C5.042 4.12 5.05 4.10998 5.098 4.07998C5.146 4.04998 5.26402 4.006 5.48402 4.006C5.48469 4.006 5.48534 4.006 5.486 4.006C7.03 4 11.074 3.80398 13.631 6.36098C16.188 8.91898 15.991 12.961 15.985 14.504C15.985 14.5047 15.985 14.5053 15.985 14.506C15.985 14.726 15.94 14.845 15.91 14.893C15.88 14.94 15.873 14.95 15.797 14.969C15.646 15.006 15.209 14.947 14.668 14.711C13.586 14.239 12.094 13.189 10.803 12.121C10.7523 12.0792 10.6939 12.0477 10.6311 12.0285C10.5682 12.0092 10.5022 12.0026 10.4368 12.0088C10.3714 12.0151 10.3078 12.0342 10.2498 12.065C10.1917 12.0958 10.1403 12.1378 10.0985 12.1885C10.0567 12.2392 10.0252 12.2976 10.006 12.3605C9.98675 12.4233 9.98007 12.4893 9.98634 12.5547C9.99261 12.6201 10.0117 12.6837 10.0425 12.7417C10.0733 12.7998 10.1153 12.8512 10.166 12.893C11.498 13.993 13.006 15.076 14.268 15.627C14.898 15.903 15.472 16.078 16.035 15.94C16.317 15.87 16.593 15.688 16.758 15.426C16.922 15.165 16.984 14.853 16.985 14.51V14.506C16.991 13.061 17.279 8.594 14.338 5.652C12.131 3.446 9.066 3.05799 7.063 3.00399ZM11.013 7.99398C10.7478 7.99398 10.4934 8.09935 10.3059 8.28689C10.1184 8.47442 10.013 8.72876 10.013 8.99398C10.0131 9.08109 10.0245 9.16785 10.047 9.252L9.16001 10.139C9.11226 10.1851 9.07416 10.2403 9.04795 10.3013C9.02175 10.3623 9.00797 10.4279 9.0074 10.4943C9.00682 10.5607 9.01946 10.6265 9.0446 10.688C9.06974 10.7494 9.10687 10.8052 9.15382 10.8522C9.20077 10.8991 9.25659 10.9363 9.31803 10.9614C9.37948 10.9866 9.44531 10.9992 9.5117 10.9986C9.57809 10.998 9.64372 10.9842 9.70472 10.958C9.76572 10.9318 9.82089 10.8938 9.86702 10.846L10.754 9.959C10.8388 9.98204 10.9262 9.99378 11.014 9.99398C11.2792 9.99398 11.5336 9.88864 11.7211 9.7011C11.9086 9.51356 12.014 9.25919 12.014 8.99398C12.014 8.72876 11.9086 8.47442 11.7211 8.28689C11.5336 8.09935 11.2792 7.99398 11.014 7.99398H11.013ZM7.50401 11.986C7.37379 11.9902 7.25037 12.0451 7.16001 12.139L6.16001 13.139C6.11226 13.1851 6.07416 13.2403 6.04795 13.3013C6.02175 13.3623 6.00797 13.4279 6.0074 13.4943C6.00682 13.5607 6.01946 13.6265 6.0446 13.688C6.06974 13.7494 6.10687 13.8052 6.15382 13.8522C6.20077 13.8991 6.25659 13.9363 6.31803 13.9614C6.37948 13.9866 6.44531 13.9992 6.5117 13.9986C6.57809 13.998 6.64372 13.9842 6.70472 13.958C6.76572 13.9318 6.82089 13.8938 6.86702 13.846L7.86702 12.846C7.93986 12.7759 7.98974 12.6854 8.01008 12.5863C8.03042 12.4873 8.02025 12.3844 7.98094 12.2913C7.94162 12.1981 7.87501 12.1191 7.78987 12.0646C7.70472 12.0101 7.60505 11.9827 7.50401 11.986ZM4.50199 14.986C4.37177 14.9902 4.24835 15.0451 4.158 15.139L3.158 16.143C3.06451 16.2371 3.01227 16.3646 3.01274 16.4972C3.01321 16.6299 3.06635 16.757 3.1605 16.8505C3.25465 16.944 3.3821 16.9962 3.51478 16.9958C3.64746 16.9953 3.7745 16.9421 3.86799 16.848L4.86799 15.844C4.94032 15.7736 4.98966 15.6829 5.0095 15.584C5.02934 15.485 5.01877 15.3824 4.97917 15.2895C4.93956 15.1967 4.87278 15.118 4.78761 15.0638C4.70244 15.0096 4.60287 14.9825 4.50199 14.986Z" fill="currentColor"/>
</svg>
