<svg width="20" height="20" viewBox="0 0 20 20" fill="none" xmlns="http://www.w3.org/2000/svg">
<path d="M16.508 2.99803C16.4635 2.99713 16.4191 3.00216 16.376 3.01301L5.73101 5.71501C5.72497 5.71689 5.71897 5.7189 5.713 5.72102C5.33246 5.83422 4.98627 6.04084 4.70598 6.32203C4.12598 6.90203 3.912 7.75202 3.967 8.65602C4.023 9.56002 4.34399 10.543 4.90899 11.494C4.90899 11.4947 4.90899 11.4953 4.90899 11.496C4.96299 11.588 5.019 11.68 5.079 11.771C5.11479 11.8262 5.16106 11.8737 5.21523 11.911C5.2694 11.9483 5.3304 11.9745 5.39471 11.9882C5.45901 12.0019 5.52537 12.0028 5.59002 11.9908C5.65467 11.9789 5.71635 11.9543 5.77151 11.9185C5.82666 11.8827 5.87423 11.8364 5.91149 11.7823C5.94875 11.7281 5.97497 11.6671 5.98867 11.6028C6.00237 11.5385 6.00325 11.4721 5.99129 11.4075C5.97934 11.3428 5.95478 11.2812 5.919 11.226C5.86739 11.1464 5.81739 11.0657 5.769 10.984C5.274 10.152 5.00899 9.30402 4.96499 8.59602C4.92199 7.88702 5.09499 7.346 5.41299 7.029C5.57499 6.866 5.775 6.74503 5.997 6.67903L15.807 4.18901L13.317 14.004C13.2524 14.2243 13.1318 14.4241 12.967 14.584C12.644 14.907 12.058 15.08 11.295 15.01C10.533 14.94 9.627 14.627 8.768 14.078C8.71272 14.0408 8.65057 14.0151 8.5852 14.0023C8.51983 13.9894 8.45255 13.9898 8.38732 14.0033C8.32209 14.0169 8.26024 14.0433 8.20537 14.0811C8.15051 14.1189 8.10375 14.1672 8.06783 14.2233C8.03192 14.2794 8.00758 14.3421 7.99624 14.4078C7.9849 14.4734 7.98678 14.5407 8.00179 14.6056C8.01681 14.6705 8.04466 14.7318 8.08367 14.7857C8.12268 14.8397 8.17209 14.8854 8.22899 14.92C9.20899 15.546 10.249 15.918 11.206 16.006C12.162 16.094 13.066 15.899 13.674 15.291C13.946 15.019 14.163 14.679 14.278 14.283C14.2794 14.2771 14.2808 14.271 14.282 14.265L16.983 3.62101C17.0015 3.548 17.0033 3.47174 16.9883 3.39793C16.9732 3.32412 16.9417 3.25468 16.896 3.19477C16.8503 3.13487 16.7917 3.08605 16.7245 3.05198C16.6573 3.01791 16.5833 2.99947 16.508 2.99803ZM11.022 7.982C10.7568 7.982 10.5024 8.08738 10.3149 8.27491C10.1274 8.46245 10.022 8.71679 10.022 8.982C10.0225 9.06849 10.0343 9.15456 10.057 9.23802L9.169 10.127C9.12124 10.1731 9.08314 10.2283 9.05694 10.2893C9.03073 10.3503 9.01696 10.4159 9.01638 10.4823C9.0158 10.5487 9.02844 10.6146 9.05358 10.676C9.07872 10.7375 9.11586 10.7933 9.1628 10.8402C9.20975 10.8872 9.26557 10.9243 9.32702 10.9494C9.38847 10.9746 9.45429 10.9872 9.52068 10.9866C9.58707 10.9861 9.6527 10.9723 9.71371 10.9461C9.77471 10.9198 9.82987 10.8818 9.876 10.834L10.762 9.94703C10.8467 9.97006 10.9342 9.98181 11.022 9.982C11.2872 9.982 11.5415 9.87666 11.7291 9.68913C11.9166 9.50159 12.022 9.24722 12.022 8.982C12.022 8.71679 11.9166 8.46245 11.7291 8.27491C11.5415 8.08738 11.2872 7.982 11.022 7.982ZM7.51198 11.974C7.38176 11.9782 7.25834 12.0332 7.16799 12.127L6.16799 13.127C6.07424 13.2209 6.02163 13.3482 6.02172 13.4809C6.02181 13.6136 6.07462 13.7408 6.16851 13.8345C6.2624 13.9283 6.38968 13.9809 6.52236 13.9808C6.65504 13.9807 6.78224 13.9279 6.876 13.834L7.876 12.834C7.94891 12.7639 7.99881 12.6732 8.01913 12.5741C8.03944 12.475 8.02921 12.372 7.98977 12.2788C7.95033 12.1856 7.88355 12.1066 7.79824 12.0522C7.71293 11.9978 7.61311 11.9705 7.51198 11.974ZM4.51 14.974C4.38048 14.9788 4.25785 15.0336 4.16799 15.127L3.16799 16.131C3.1185 16.1768 3.07878 16.2321 3.0512 16.2936C3.02362 16.3551 3.00875 16.4215 3.0075 16.4889C3.00625 16.5563 3.01862 16.6232 3.04391 16.6857C3.06919 16.7482 3.10683 16.8049 3.15459 16.8525C3.20235 16.9 3.25924 16.9375 3.32183 16.9625C3.38442 16.9875 3.45144 16.9996 3.51882 16.9981C3.5862 16.9965 3.65257 16.9813 3.71395 16.9535C3.77533 16.9257 3.83046 16.8857 3.876 16.836L4.876 15.832C4.94833 15.7616 4.99767 15.671 5.01751 15.572C5.03735 15.473 5.02675 15.3704 4.98714 15.2775C4.94754 15.1847 4.88078 15.106 4.79561 15.0518C4.71045 14.9977 4.61088 14.9705 4.51 14.974Z" fill="currentColor"/>
</svg>
