<svg width="20" height="20" viewBox="0 0 20 20" fill="none" xmlns="http://www.w3.org/2000/svg">
<path d="M9.49201 2.99601C9.42635 2.99705 9.36154 3.01102 9.30128 3.03711C9.24101 3.06321 9.18647 3.1009 9.14078 3.14808C9.0951 3.19525 9.05913 3.25098 9.03498 3.31205C9.01083 3.37311 8.99895 3.43834 9.00001 3.504V6.15799C8.2466 6.35303 7.56691 6.7647 7.04502 7.34201L4.85401 5.15C4.80789 5.10224 4.75272 5.06414 4.69172 5.03794C4.63072 5.01173 4.56508 4.99796 4.49869 4.99738C4.4323 4.9968 4.36648 5.00944 4.30503 5.03458C4.24358 5.05972 4.18776 5.09686 4.14081 5.1438C4.09387 5.19075 4.05673 5.24657 4.03159 5.30802C4.00645 5.36947 3.99381 5.43532 3.99439 5.50171C3.99497 5.5681 4.00874 5.6337 4.03495 5.69471C4.06115 5.75571 4.09925 5.81088 4.14701 5.857L6.46702 8.17701C6.1658 8.73924 6.00553 9.36618 6.00001 10.004H3.50001C2.83301 10.004 2.83301 11.004 3.50001 11.004H6.14002C6.33638 11.7602 6.75092 12.4418 7.33201 12.964L5.146 15.15C4.675 15.622 5.38201 16.33 5.85401 15.858L8.17002 13.541C8.72002 13.827 9.33201 14.004 9.99201 14.004H10V16.504C10 17.171 11 17.171 11 16.504V13.858C11.7538 13.6597 12.4329 13.2446 12.953 12.664L15.147 14.858C15.618 15.363 16.361 14.621 15.854 14.15L13.529 11.826C13.8253 11.267 13.9824 10.6447 13.987 10.012V10.004H16.5C17.167 10.004 17.167 9.004 16.5 9.004H13.84C13.6428 8.25331 13.2306 7.57659 12.654 7.05701L14.854 4.857C14.9004 4.81051 14.9372 4.75533 14.9623 4.69461C14.9874 4.6339 15.0003 4.56884 15.0003 4.50315C15.0002 4.43745 14.9873 4.37242 14.9621 4.31174C14.9369 4.25106 14.9 4.19593 14.8535 4.14951C14.807 4.10309 14.7519 4.06627 14.6911 4.04117C14.6304 4.01607 14.5653 4.00319 14.4996 4.00324C14.4339 4.00329 14.3689 4.01626 14.3082 4.04145C14.2476 4.06663 14.1924 4.10351 14.146 4.15L11.816 6.48002C11.2566 6.18229 10.6337 6.02381 10 6.01801V3.504C10.0011 3.43699 9.98868 3.37044 9.96354 3.30832C9.93839 3.2462 9.901 3.18976 9.85361 3.14237C9.80622 3.09498 9.74981 3.05762 9.68769 3.03247C9.62557 3.00733 9.55902 2.99493 9.49201 2.99601ZM9.99201 7.01801C10.3854 7.01709 10.7752 7.09389 11.1389 7.24402C11.5025 7.39416 11.8329 7.61465 12.1112 7.89286C12.3894 8.17106 12.6098 8.50148 12.76 8.86515C12.9101 9.22881 12.9869 9.61856 12.986 10.012C12.9868 10.4053 12.9099 10.7949 12.7597 11.1584C12.6095 11.5219 12.3889 11.8521 12.1107 12.1301C11.8325 12.4081 11.5021 12.6285 11.1386 12.7784C10.775 12.9284 10.3853 13.0051 9.99201 13.004C9.5988 13.0051 9.20925 12.9284 8.84577 12.7784C8.48229 12.6284 8.15204 12.4081 7.874 12.13C7.59596 11.852 7.37561 11.5217 7.22562 11.1582C7.07563 10.7948 6.99895 10.4052 7.00001 10.012C6.99895 9.61869 7.0756 9.22905 7.22556 8.86545C7.37552 8.50186 7.59586 8.17149 7.87388 7.89328C8.15189 7.61508 8.48212 7.39453 8.84562 7.24433C9.20911 7.09412 9.5987 7.01722 9.99201 7.01801Z" fill="currentColor"/>
</svg>
