<svg width="20" height="20" viewBox="0 0 20 20" fill="none" xmlns="http://www.w3.org/2000/svg">
<path d="M5 3.5C4.177 3.5 3.5 4.177 3.5 5C3.5 5.823 4.177 6.5 5 6.5C5.823 6.5 6.5 5.823 6.5 5C6.5 4.177 5.823 3.5 5 3.5ZM10 3.5C9.177 3.5 8.5 4.177 8.5 5C8.5 5.823 9.177 6.5 10 6.5C10.823 6.5 11.5 5.823 11.5 5C11.5 4.177 10.823 3.5 10 3.5ZM15 3.5C14.177 3.5 13.5 4.177 13.5 5C13.5 5.823 14.177 6.5 15 6.5C15.823 6.5 16.5 5.823 16.5 5C16.5 4.177 15.823 3.5 15 3.5ZM5 4.5C5.282 4.5 5.5 4.718 5.5 5C5.5 5.282 5.282 5.5 5 5.5C4.93408 5.50094 4.86864 5.48866 4.80756 5.46387C4.74647 5.43907 4.69097 5.40227 4.64435 5.35565C4.59773 5.30903 4.56093 5.25353 4.53613 5.19244C4.51134 5.13136 4.49906 5.06592 4.5 5C4.5 4.718 4.718 4.5 5 4.5ZM10 4.5C10.282 4.5 10.5 4.718 10.5 5C10.5 5.282 10.282 5.5 10 5.5C9.93408 5.50094 9.86864 5.48866 9.80756 5.46387C9.74647 5.43907 9.69097 5.40227 9.64435 5.35565C9.59773 5.30903 9.56093 5.25353 9.53613 5.19244C9.51134 5.13136 9.49906 5.06592 9.5 5C9.5 4.718 9.718 4.5 10 4.5ZM15 4.5C15.282 4.5 15.5 4.718 15.5 5C15.5 5.282 15.282 5.5 15 5.5C14.9341 5.50094 14.8686 5.48866 14.8076 5.46387C14.7465 5.43907 14.691 5.40227 14.6443 5.35565C14.5977 5.30903 14.5609 5.25353 14.5361 5.19244C14.5113 5.13136 14.4991 5.06592 14.5 5C14.5 4.718 14.718 4.5 15 4.5ZM5 8.5C4.177 8.5 3.5 9.177 3.5 10C3.5 10.823 4.177 11.5 5 11.5C5.823 11.5 6.5 10.823 6.5 10C6.5 9.177 5.823 8.5 5 8.5ZM10 8.5C9.177 8.5 8.5 9.177 8.5 10C8.5 10.823 9.177 11.5 10 11.5C10.823 11.5 11.5 10.823 11.5 10C11.5 9.177 10.823 8.5 10 8.5ZM15 8.5C14.177 8.5 13.5 9.177 13.5 10C13.5 10.823 14.177 11.5 15 11.5C15.823 11.5 16.5 10.823 16.5 10C16.5 9.177 15.823 8.5 15 8.5ZM5 9.5C5.282 9.5 5.5 9.718 5.5 10C5.5 10.282 5.282 10.5 5 10.5C4.93408 10.5009 4.86864 10.4887 4.80756 10.4639C4.74647 10.4391 4.69097 10.4023 4.64435 10.3557C4.59773 10.309 4.56093 10.2535 4.53613 10.1924C4.51134 10.1314 4.49906 10.0659 4.5 10C4.5 9.718 4.718 9.5 5 9.5ZM10 9.5C10.282 9.5 10.5 9.718 10.5 10C10.5 10.282 10.282 10.5 10 10.5C9.93408 10.5009 9.86864 10.4887 9.80756 10.4639C9.74647 10.4391 9.69097 10.4023 9.64435 10.3557C9.59773 10.309 9.56093 10.2535 9.53613 10.1924C9.51134 10.1314 9.49906 10.0659 9.5 10C9.5 9.718 9.718 9.5 10 9.5ZM15 9.5C15.282 9.5 15.5 9.718 15.5 10C15.5 10.282 15.282 10.5 15 10.5C14.9341 10.5009 14.8686 10.4887 14.8076 10.4639C14.7465 10.4391 14.691 10.4023 14.6443 10.3557C14.5977 10.309 14.5609 10.2535 14.5361 10.1924C14.5113 10.1314 14.4991 10.0659 14.5 10C14.5 9.718 14.718 9.5 15 9.5ZM5 13.5C4.177 13.5 3.5 14.177 3.5 15C3.5 15.823 4.177 16.5 5 16.5C5.823 16.5 6.5 15.823 6.5 15C6.5 14.177 5.823 13.5 5 13.5ZM10 13.5C9.177 13.5 8.5 14.177 8.5 15C8.5 15.823 9.177 16.5 10 16.5C10.823 16.5 11.5 15.823 11.5 15C11.5 14.177 10.823 13.5 10 13.5ZM15 13.5C14.177 13.5 13.5 14.177 13.5 15C13.5 15.823 14.177 16.5 15 16.5C15.823 16.5 16.5 15.823 16.5 15C16.5 14.177 15.823 13.5 15 13.5ZM5 14.5C5.282 14.5 5.5 14.718 5.5 15C5.5 15.282 5.282 15.5 5 15.5C4.93408 15.5009 4.86864 15.4887 4.80756 15.4639C4.74647 15.4391 4.69097 15.4023 4.64435 15.3557C4.59773 15.309 4.56093 15.2535 4.53613 15.1924C4.51134 15.1314 4.49906 15.0659 4.5 15C4.5 14.718 4.718 14.5 5 14.5ZM10 14.5C10.282 14.5 10.5 14.718 10.5 15C10.5 15.282 10.282 15.5 10 15.5C9.93408 15.5009 9.86864 15.4887 9.80756 15.4639C9.74647 15.4391 9.69097 15.4023 9.64435 15.3557C9.59773 15.309 9.56093 15.2535 9.53613 15.1924C9.51134 15.1314 9.49906 15.0659 9.5 15C9.5 14.718 9.718 14.5 10 14.5ZM15 14.5C15.282 14.5 15.5 14.718 15.5 15C15.5 15.282 15.282 15.5 15 15.5C14.9341 15.5009 14.8686 15.4887 14.8076 15.4639C14.7465 15.4391 14.691 15.4023 14.6443 15.3557C14.5977 15.309 14.5609 15.2535 14.5361 15.1924C14.5113 15.1314 14.4991 15.0659 14.5 15C14.5 14.718 14.718 14.5 15 14.5Z" fill="currentColor"/>
</svg>
