<svg width="20" height="20" viewBox="0 0 20 20" fill="none" xmlns="http://www.w3.org/2000/svg">
<path d="M9.97699 2.49999C9.84692 2.50211 9.72283 2.55485 9.63101 2.64699L2.63101 9.64699C2.53727 9.74076 2.48462 9.86793 2.48462 10.0005C2.48462 10.1331 2.53727 10.2602 2.63101 10.354L9.63101 17.354C9.72477 17.4477 9.85191 17.5004 9.98449 17.5004C10.1171 17.5004 10.2442 17.4477 10.338 17.354L17.37 10.354C17.4637 10.2602 17.5164 10.1331 17.5164 10.0005C17.5164 9.86793 17.4637 9.74076 17.37 9.64699L10.338 2.64699C10.2909 2.59969 10.2347 2.56232 10.1729 2.53707C10.111 2.51182 10.0448 2.49921 9.97799 2.49999H9.97699ZM9.98501 3.70699L16.307 9.99999L9.98501 16.293L3.69201 9.99999L9.98501 3.70699ZM9.98501 8.49999C9.16301 8.49999 8.48501 9.17799 8.48501 9.99999C8.48501 10.823 9.16301 11.5 9.98501 11.5C10.808 11.5 11.485 10.823 11.485 9.99999C11.485 9.17799 10.808 8.49999 9.98501 8.49999ZM9.98501 9.49999C10.267 9.49999 10.485 9.71799 10.485 9.99999C10.485 10.282 10.267 10.5 9.98501 10.5C9.91909 10.5009 9.85363 10.4886 9.79254 10.4639C9.73145 10.4391 9.67598 10.4023 9.62936 10.3556C9.58274 10.309 9.54594 10.2536 9.52114 10.1925C9.49635 10.1314 9.48407 10.0659 9.48501 9.99999C9.48501 9.71799 9.70301 9.49999 9.98501 9.49999Z" fill="currentColor"/>
</svg>
