<svg width="20" height="20" viewBox="0 0 20 20" fill="none" xmlns="http://www.w3.org/2000/svg">
<path d="M13.712 2.98599C13.2813 2.97484 12.8528 3.05104 12.4523 3.21002C12.0519 3.369 11.6878 3.60745 11.382 3.91099L9.246 6.04599C8.103 5.96399 7.086 6.00999 6.266 6.34899C5.366 6.71999 4.669 7.38299 4.186 8.27699C3.216 10.064 2.984 12.742 2.984 16.515C2.984 16.6476 3.03668 16.7748 3.13045 16.8685C3.22422 16.9623 3.35139 17.015 3.484 17.015C7.257 17.015 9.935 16.785 11.722 15.818C12.616 15.334 13.279 14.64 13.65 13.74C13.989 12.919 14.035 11.899 13.953 10.753L16.088 8.61799C17.365 7.34099 17.298 5.23099 16.033 3.96599C15.4146 3.35165 14.5825 3.00046 13.711 2.98599H13.712ZM13.702 3.98999C14.3113 4.00027 14.8933 4.24487 15.327 4.67299C16.209 5.55599 16.252 7.04099 15.381 7.91099L13.131 10.161C13.0784 10.2135 13.0382 10.2772 13.0133 10.3472C12.9883 10.4173 12.9794 10.492 12.987 10.566C13.107 11.756 13.01 12.668 12.725 13.359C12.44 14.049 11.978 14.543 11.246 14.939C9.971 15.629 7.743 15.902 4.741 15.966L7.844 12.863C8.04 12.957 8.255 13.015 8.484 13.015C9.307 13.015 9.984 12.337 9.984 11.515C9.984 10.692 9.307 10.015 8.484 10.015C7.662 10.015 6.984 10.692 6.984 11.515C6.984 11.745 7.044 11.96 7.137 12.155L4.034 15.26C4.098 12.258 4.376 10.03 5.067 8.75399C5.463 8.02299 5.957 7.55999 6.647 7.27599C7.337 6.99099 8.247 6.89399 9.434 7.01399C9.50788 7.02134 9.58247 7.01213 9.65235 6.98705C9.72223 6.96197 9.78565 6.92164 9.838 6.86899L12.088 4.61899C12.3005 4.41057 12.5532 4.24744 12.8306 4.13949C13.108 4.03155 13.4045 3.98103 13.702 3.99099V3.98999Z" fill="currentColor"/>
</svg>
