<svg width="20" height="20" viewBox="0 0 20 20" fill="none" xmlns="http://www.w3.org/2000/svg">
<path d="M4.5 3C4.36739 3 4.24019 3.05266 4.14642 3.14642C4.05266 3.24019 4 3.36739 4 3.5C4 3.63261 4.05266 3.75981 4.14642 3.85358C4.24019 3.94734 4.36739 4 4.5 4H15.492C15.6246 4 15.7518 3.94734 15.8456 3.85358C15.9393 3.75981 15.992 3.63261 15.992 3.5C15.992 3.36739 15.9393 3.24019 15.8456 3.14642C15.7518 3.05266 15.6246 3 15.492 3H4.5ZM4.5 5C4.36739 5 4.24019 5.05266 4.14642 5.14642C4.05266 5.24019 4 5.36739 4 5.5C4 5.63261 4.05266 5.75981 4.14642 5.85358C4.24019 5.94734 4.36739 6 4.5 6H15.492C15.6246 6 15.7518 5.94734 15.8456 5.85358C15.9393 5.75981 15.992 5.63261 15.992 5.5C15.992 5.36739 15.9393 5.24019 15.8456 5.14642C15.7518 5.05266 15.6246 5 15.492 5H4.5ZM4.5 7C4.36739 7 4.24019 7.05266 4.14642 7.14642C4.05266 7.24019 4 7.36739 4 7.5C4 7.63261 4.05266 7.75981 4.14642 7.85358C4.24019 7.94734 4.36739 8 4.5 8H15.492C15.6246 8 15.7518 7.94734 15.8456 7.85358C15.9393 7.75981 15.992 7.63261 15.992 7.5C15.992 7.36739 15.9393 7.24019 15.8456 7.14642C15.7518 7.05266 15.6246 7 15.492 7H4.5ZM4.5 12C4.36739 12 4.24019 12.0527 4.14642 12.1464C4.05266 12.2402 4 12.3674 4 12.5C4 12.6326 4.05266 12.7598 4.14642 12.8536C4.24019 12.9473 4.36739 13 4.5 13H15.492C15.6246 13 15.7518 12.9473 15.8456 12.8536C15.9393 12.7598 15.992 12.6326 15.992 12.5C15.992 12.3674 15.9393 12.2402 15.8456 12.1464C15.7518 12.0527 15.6246 12 15.492 12H4.5ZM4.5 14C4.36739 14 4.24019 14.0527 4.14642 14.1464C4.05266 14.2402 4 14.3674 4 14.5C4 14.6326 4.05266 14.7598 4.14642 14.8536C4.24019 14.9473 4.36739 15 4.5 15H15.492C15.6246 15 15.7518 14.9473 15.8456 14.8536C15.9393 14.7598 15.992 14.6326 15.992 14.5C15.992 14.3674 15.9393 14.2402 15.8456 14.1464C15.7518 14.0527 15.6246 14 15.492 14H4.5ZM4.5 16C4.36739 16 4.24019 16.0527 4.14642 16.1464C4.05266 16.2402 4 16.3674 4 16.5C4 16.6326 4.05266 16.7598 4.14642 16.8536C4.24019 16.9473 4.36739 17 4.5 17H15.5C15.6326 17 15.7598 16.9473 15.8536 16.8536C15.9473 16.7598 16 16.6326 16 16.5C16 16.3674 15.9473 16.2402 15.8536 16.1464C15.7598 16.0527 15.6326 16 15.5 16H4.5Z" fill="currentColor"/>
</svg>
