<svg width="20" height="20" viewBox="0 0 20 20" fill="none" xmlns="http://www.w3.org/2000/svg">
<path d="M10.026 5.12C9.94468 5.11727 9.86392 5.13442 9.79072 5.16997C9.71753 5.20552 9.65412 5.25839 9.606 5.324L3.123 14.07C3.08124 14.1225 3.05047 14.1829 3.03253 14.2476C3.0146 14.3122 3.00986 14.3798 3.0186 14.4463C3.02733 14.5129 3.04938 14.577 3.0834 14.6348C3.11743 14.6926 3.16275 14.743 3.21666 14.783C3.27057 14.8229 3.33197 14.8516 3.3972 14.8673C3.46244 14.883 3.53016 14.8855 3.59635 14.8744C3.66254 14.8634 3.72584 14.8392 3.78247 14.8032C3.83911 14.7673 3.88792 14.7202 3.926 14.665L10.008 6.46L16.078 14.663C16.1164 14.7172 16.1653 14.7632 16.2216 14.7983C16.278 14.8334 16.3409 14.8569 16.4064 14.8674C16.472 14.878 16.539 14.8754 16.6036 14.8597C16.6681 14.8441 16.7289 14.8157 16.7824 14.7763C16.8359 14.7369 16.881 14.6873 16.915 14.6303C16.9491 14.5733 16.9715 14.51 16.9809 14.4443C16.9902 14.3785 16.9864 14.3116 16.9696 14.2473C16.9528 14.183 16.9234 14.1228 16.883 14.07L10.411 5.324C10.3664 5.26315 10.3086 5.21319 10.2419 5.17786C10.1752 5.14253 10.1014 5.12275 10.026 5.12Z" fill="currentColor"/>
</svg>
