<svg width="20" height="20" viewBox="0 0 20 20" fill="none" xmlns="http://www.w3.org/2000/svg">
<path d="M13.555 3.01798C12.757 2.97998 11.984 3.29397 11.395 3.88297L9.909 5.37095C9.293 5.94595 8.974 6.725 9.016 7.525C9.01676 7.59229 9.0311 7.6587 9.05816 7.72031C9.08521 7.78192 9.12442 7.83742 9.17344 7.88352C9.22246 7.92962 9.28028 7.96534 9.34344 7.98856C9.40659 8.01178 9.47378 8.02202 9.54098 8.01865C9.60819 8.01529 9.67402 7.99839 9.73454 7.96897C9.79506 7.93955 9.84902 7.89821 9.89319 7.84745C9.93735 7.79668 9.97082 7.73757 9.99158 7.67356C10.0123 7.60955 10.02 7.54198 10.014 7.47495C9.987 6.95995 10.17 6.49497 10.59 6.10197C10.5941 6.09803 10.5981 6.09407 10.602 6.09L12.102 4.59C12.514 4.178 12.992 3.99097 13.506 4.01597C14.021 4.03997 14.591 4.286 15.146 4.84C15.7 5.395 15.955 5.97498 15.983 6.49198C16.011 7.00898 15.831 7.47699 15.409 7.87199C15.4043 7.87524 15.3996 7.87858 15.395 7.882L13.895 9.382C13.483 9.795 13.018 9.986 12.499 9.986C12.3664 9.986 12.2392 10.0387 12.1454 10.1324C12.0517 10.2262 11.999 10.3534 11.999 10.486C11.999 10.6186 12.0517 10.7457 12.1454 10.8395C12.2392 10.9333 12.3664 10.986 12.499 10.986C13.279 10.986 14.024 10.668 14.602 10.09L16.09 8.60197C16.3891 8.32916 16.6243 7.99363 16.7787 7.61936C16.9331 7.24509 17.0028 6.84136 16.983 6.43699C16.939 5.63499 16.547 4.82797 15.853 4.13297C15.156 3.43697 14.353 3.05598 13.555 3.01798ZM12.475 6.99595C12.3452 6.99939 12.2218 7.0532 12.131 7.14597L7.131 12.146C7.08451 12.1925 7.04763 12.2476 7.02247 12.3084C6.99732 12.3691 6.98437 12.4342 6.98437 12.5C6.98437 12.5657 6.99732 12.6308 7.02247 12.6916C7.04763 12.7523 7.08451 12.8075 7.131 12.854C7.17749 12.9005 7.23268 12.9373 7.29342 12.9625C7.35416 12.9877 7.41925 13.0006 7.485 13.0006C7.55074 13.0006 7.61584 12.9877 7.67658 12.9625C7.73732 12.9373 7.79251 12.9005 7.83899 12.854L12.839 7.85398C12.9112 7.78369 12.9605 7.69323 12.9803 7.59446C13.0002 7.49569 12.9898 7.3932 12.9505 7.30045C12.9111 7.2077 12.8447 7.12902 12.7598 7.07468C12.675 7.02035 12.5757 6.99289 12.475 6.99595ZM7.545 9.01798C7.13917 8.99593 6.73351 9.06432 6.35736 9.21824C5.98121 9.37216 5.64396 9.60778 5.37 9.908L3.881 11.396C3.293 11.985 2.978 12.756 3.016 13.555C3.054 14.353 3.436 15.158 4.131 15.854C4.827 16.549 5.635 16.938 6.438 16.982C6.84169 17.0021 7.24485 16.9328 7.61861 16.779C7.99238 16.6251 8.3275 16.3905 8.6 16.092L10.089 14.604C10.667 14.024 10.985 13.281 10.985 12.5C10.985 12.3674 10.9323 12.2402 10.8386 12.1464C10.7448 12.0526 10.6176 12 10.485 12C10.3524 12 10.2252 12.0526 10.1314 12.1464C10.0377 12.2402 9.985 12.3674 9.985 12.5C9.985 13.02 9.794 13.484 9.381 13.896L7.881 15.396C7.87727 15.3999 7.8736 15.4039 7.87 15.408C7.476 15.83 7.01 16.013 6.493 15.984C5.976 15.956 5.393 15.701 4.839 15.146C4.284 14.592 4.041 14.022 4.016 13.508C3.992 12.993 4.176 12.515 4.589 12.103L6.089 10.603C6.09272 10.5994 6.09639 10.5957 6.1 10.592C6.497 10.168 6.967 9.98497 7.487 10.016C7.55339 10.0214 7.6202 10.0135 7.68351 9.99277C7.74681 9.97203 7.80533 9.93885 7.85563 9.89518C7.90594 9.8515 7.947 9.79821 7.97642 9.73844C8.00584 9.67867 8.02302 9.61366 8.02695 9.54716C8.03088 9.48066 8.02149 9.41405 7.99932 9.35123C7.97715 9.28842 7.94264 9.23067 7.89783 9.18137C7.85303 9.13208 7.79883 9.09218 7.73841 9.06412C7.67799 9.03607 7.61257 9.0204 7.546 9.01798H7.545Z" fill="currentColor"/>
</svg>
