<svg width="20" height="20" viewBox="0 0 20 20" fill="none" xmlns="http://www.w3.org/2000/svg">
<path d="M8.00299 14L7.996 15.993H6.496C5.82 15.983 5.82 17.003 6.496 16.993H8.41601C8.46964 17.002 8.52437 17.002 8.578 16.993H10.496C11.172 17.003 11.172 15.983 10.496 15.993H8.996L9.00299 14H8.00299ZM3.496 3.993C3.36339 3.993 3.23622 4.04568 3.14245 4.13945C3.04869 4.23322 2.996 4.36039 2.996 4.493V12.493C2.996 12.6256 3.04869 12.7528 3.14245 12.8465C3.23622 12.9403 3.36339 12.993 3.496 12.993H10.496C10.6286 12.993 10.7558 12.9403 10.8495 12.8465C10.9433 12.7528 10.996 12.6256 10.996 12.493C10.996 12.3604 10.9433 12.2332 10.8495 12.1395C10.7558 12.0457 10.6286 11.993 10.496 11.993H3.996V4.993H10.496C10.6286 4.993 10.7558 4.94031 10.8495 4.84654C10.9433 4.75277 10.996 4.6256 10.996 4.493C10.996 4.36039 10.9433 4.23322 10.8495 4.13945C10.7558 4.04568 10.6286 3.993 10.496 3.993H4.496H3.496Z" fill="currentColor"/>
<path d="M14.504 7C13.096 7 12.004 8.267 12.004 9.752V11.252C12.004 12.734 13.096 14 14.504 14C15.912 14 17.004 12.734 17.004 11.252V10.932C17.004 10.7994 16.9513 10.6722 16.8575 10.5784C16.7638 10.4847 16.6366 10.432 16.504 10.432C16.3714 10.432 16.2442 10.4847 16.1505 10.5784C16.0567 10.6722 16.004 10.7994 16.004 10.932V11.252C16.004 12.252 15.304 13 14.504 13C13.704 13 13.004 12.253 13.004 11.252V9.752C13.004 8.746 13.704 8 14.504 8C14.6366 8 14.7638 7.94732 14.8575 7.85355C14.9513 7.75979 15.004 7.63261 15.004 7.5C15.004 7.36739 14.9513 7.24021 14.8575 7.14645C14.7638 7.05268 14.6366 7 14.504 7ZM14.504 3C13.096 3 12.004 4.266 12.004 5.748V6.068C12.004 6.20061 12.0567 6.32779 12.1505 6.42155C12.2442 6.51532 12.3714 6.568 12.504 6.568C12.6366 6.568 12.7638 6.51532 12.8575 6.42155C12.9513 6.32779 13.004 6.20061 13.004 6.068V5.748C13.004 4.748 13.704 4 14.504 4C15.304 4 16.004 4.747 16.004 5.748V7.248C16.004 8.254 15.304 9 14.504 9C14.3714 9 14.2442 9.05268 14.1505 9.14645C14.0567 9.24021 14.004 9.36739 14.004 9.5C14.004 9.63261 14.0567 9.75979 14.1505 9.85355C14.2442 9.94732 14.3714 10 14.504 10C15.912 10 17.004 8.733 17.004 7.248V5.748C17.004 4.266 15.912 3 14.504 3Z" fill="currentColor"/>
</svg>
