<svg width="20" height="20" viewBox="0 0 20 20" fill="none" xmlns="http://www.w3.org/2000/svg">
<path d="M3.496 3.99701C3.36339 3.99701 3.23622 4.04969 3.14245 4.14346C3.04869 4.23723 2.996 4.3644 2.996 4.49701V12.497C2.996 12.6296 3.04869 12.7568 3.14245 12.8506C3.23622 12.9443 3.36339 12.997 3.496 12.997H10.496C11.172 13.007 11.172 11.987 10.496 11.997H3.996V4.99701H10.496C11.172 5.00701 11.172 3.98701 10.496 3.99701H4.496H3.496ZM8.00299 14.004L7.996 15.997H6.496C5.82 15.987 5.82 17.007 6.496 16.997H8.41601C8.46964 17.006 8.52437 17.006 8.578 16.997H10.496C11.172 17.007 11.172 15.987 10.496 15.997H8.996L9.00299 14.004H8.00299Z" fill="currentColor"/>
<path d="M14.504 2.996C13.114 2.996 12.004 4.18801 12.004 5.61101V7.50401C12.004 7.63661 12.0567 7.76379 12.1505 7.85756C12.2442 7.95133 12.3714 8.00401 12.504 8.00401C12.6366 8.00401 12.7638 7.95133 12.8575 7.85756C12.9513 7.76379 13.004 7.63661 13.004 7.50401V5.61101C13.004 4.69901 13.685 3.996 14.504 3.996C15.323 3.996 16.004 4.69901 16.004 5.61101V7.50401C16.004 7.63661 16.0567 7.76379 16.1505 7.85756C16.2442 7.95133 16.3714 8.00401 16.504 8.00401C16.6366 8.00401 16.7638 7.95133 16.8575 7.85756C16.9513 7.76379 17.004 7.63661 17.004 7.50401V5.61101C17.004 4.18801 15.894 2.996 14.504 2.996ZM12.496 11.996C12.4303 11.997 12.3655 12.011 12.3053 12.0371C12.245 12.0632 12.1905 12.1009 12.1448 12.1481C12.0991 12.1953 12.0631 12.251 12.039 12.312C12.0148 12.3731 12.0029 12.4383 12.004 12.504V14.389C12.004 15.812 13.114 17.004 14.504 17.004C15.894 17.004 17.004 15.812 17.004 14.389V12.504C17.004 12.3714 16.9513 12.2442 16.8575 12.1505C16.7638 12.0567 16.6366 12.004 16.504 12.004C16.3714 12.004 16.2442 12.0567 16.1505 12.1505C16.0567 12.2442 16.004 12.3714 16.004 12.504V14.389C16.004 15.301 15.323 16.004 14.504 16.004C13.685 16.004 13.004 15.301 13.004 14.389V12.504C13.0051 12.437 12.9927 12.3705 12.9675 12.3083C12.9424 12.2462 12.905 12.1898 12.8576 12.1424C12.8102 12.095 12.7538 12.0576 12.6917 12.0325C12.6295 12.0073 12.563 11.9949 12.496 11.996Z" fill="currentColor"/>
</svg>
