<svg width="20" height="20" viewBox="0 0 20 20" fill="none" xmlns="http://www.w3.org/2000/svg">
<path d="M3.508 3.5C3.37539 3.5 3.24821 3.55268 3.15445 3.64645C3.06068 3.74021 3.008 3.86739 3.008 4V16C3.008 16.1326 3.06068 16.2598 3.15445 16.3536C3.24821 16.4473 3.37539 16.5 3.508 16.5H6.492C6.62461 16.5 6.75178 16.4473 6.84555 16.3536C6.93932 16.2598 6.992 16.1326 6.992 16V4C6.992 3.86739 6.93932 3.74021 6.84555 3.64645C6.75178 3.55268 6.62461 3.5 6.492 3.5H3.508ZM4.008 4.5H5.992V6.5H4.008V4.5ZM4.008 7.5H5.992V9.5H4.008V7.5ZM4.008 10.5H5.992V12.5H4.008V10.5ZM4.008 13.5H5.992V15.5H4.008V13.5ZM15.992 10.5H16.992V11.5H15.992V10.5ZM13.992 10.5H14.992V11.5H13.992V10.5ZM11.992 10.5H12.992V11.5H11.992V10.5ZM9.992 10.5H10.992V11.5H9.992V10.5ZM7.992 10.5H8.992V11.5H7.992V10.5ZM15.992 7.5H16.992V8.5H15.992V7.5ZM13.992 7.5H14.992V8.5H13.992V7.5ZM11.992 7.5H12.992V8.5H11.992V7.5ZM9.992 7.5H10.992V8.5H9.992V7.5ZM7.992 7.5H8.992V8.5H7.992V7.5ZM15.992 4.5H16.992V5.5H15.992V4.5ZM13.992 4.5H14.992V5.5H13.992V4.5ZM11.992 4.5H12.992V5.5H11.992V4.5ZM9.992 4.5H10.992V5.5H9.992V4.5ZM7.992 4.5H8.992V5.5H7.992V4.5Z" fill="currentColor"/>
</svg>
