<svg width="20" height="20" viewBox="0 0 20 20" fill="none" xmlns="http://www.w3.org/2000/svg">
<path d="M12.494 2.99699C12.3943 2.99699 12.2969 3.02678 12.2143 3.08254C12.1317 3.13829 12.0676 3.21747 12.0303 3.30991C11.993 3.40234 11.9842 3.50381 12.005 3.6013C12.0258 3.69878 12.0752 3.78782 12.147 3.857L15.293 7.003H8C5.245 7.003 3 9.247 3 12.003C3 14.758 5.245 17.003 8 17.003H9.5C9.63261 17.003 9.75979 16.9503 9.85355 16.8565C9.94732 16.7628 10 16.6356 10 16.503C10 16.3704 9.94732 16.2432 9.85355 16.1494C9.75979 16.0557 9.63261 16.003 9.5 16.003H8C5.785 16.003 4 14.218 4 12.003C4 9.788 5.785 8.003 8 8.003H15.293L12.147 11.149C12.0992 11.1951 12.0612 11.2503 12.0349 11.3113C12.0087 11.3723 11.995 11.4379 11.9944 11.5043C11.9938 11.5707 12.0064 11.6365 12.0316 11.698C12.0567 11.7594 12.0939 11.8152 12.1408 11.8622C12.1877 11.9091 12.2436 11.9463 12.305 11.9714C12.3665 11.9965 12.4323 12.0092 12.4987 12.0086C12.5651 12.008 12.6307 11.9943 12.6917 11.968C12.7527 11.9418 12.8079 11.9038 12.854 11.856L16.854 7.856C16.9477 7.76223 17.0004 7.63508 17.0004 7.5025C17.0004 7.36991 16.9477 7.24276 16.854 7.149L12.854 3.14899C12.8073 3.10079 12.7513 3.06248 12.6895 3.03637C12.6276 3.01025 12.5611 2.99686 12.494 2.99699Z" fill="currentColor"/>
</svg>
