<svg width="20" height="20" viewBox="0 0 20 20" fill="none" xmlns="http://www.w3.org/2000/svg">
<path d="M7.49 2.998C7.36021 3.00144 7.23684 3.05524 7.146 3.148L3.146 7.148C3.09944 7.19445 3.0625 7.24962 3.03729 7.31037C3.01208 7.37111 2.99911 7.43624 2.99911 7.502C2.99911 7.56777 3.01208 7.63289 3.03729 7.69364C3.0625 7.75438 3.09944 7.80956 3.146 7.856L7.146 11.856C7.19212 11.9038 7.2473 11.9418 7.3083 11.9681C7.3693 11.9943 7.43491 12.0081 7.5013 12.0086C7.56769 12.0092 7.63353 11.9966 7.69498 11.9714C7.75643 11.9463 7.81225 11.9091 7.8592 11.8622C7.90615 11.8153 7.94327 11.7594 7.96841 11.698C7.99355 11.6365 8.0062 11.5707 8.00563 11.5043C8.00505 11.4379 7.99126 11.3723 7.96505 11.3113C7.93885 11.2503 7.90076 11.1951 7.853 11.149L4.707 8.002H12C14.215 8.002 16 9.787 16 12.002C16 14.217 14.215 16.002 12 16.002H10.5C10.3674 16.002 10.2402 16.0547 10.1464 16.1484C10.0527 16.2422 10 16.3694 10 16.502C10 16.6346 10.0527 16.7618 10.1464 16.8556C10.2402 16.9493 10.3674 17.002 10.5 17.002H12C14.755 17.002 17 14.758 17 12.002C17 9.247 14.755 7.002 12 7.002H4.707L7.853 3.856C7.92512 3.78577 7.97435 3.69541 7.99427 3.59674C8.01419 3.49807 8.00386 3.39569 7.96464 3.30298C7.92542 3.21028 7.85913 3.13157 7.77444 3.07716C7.68976 3.02274 7.59062 2.99515 7.49 2.998Z" fill="currentColor"/>
</svg>
