<svg width="20" height="20" viewBox="0 0 20 20" fill="none" xmlns="http://www.w3.org/2000/svg">
<path d="M9.982 6.375C9.90446 6.37796 9.82867 6.39893 9.76063 6.43624C9.69259 6.47356 9.63418 6.5262 9.59 6.59L5.59 12.34C5.53164 12.4236 5.50024 12.523 5.5 12.625V13.125C5.5 13.2576 5.55268 13.3848 5.64645 13.4786C5.74021 13.5723 5.86739 13.625 6 13.625H14C14.0665 13.625 14.1324 13.6118 14.1937 13.586C14.255 13.5603 14.3106 13.5225 14.3571 13.475C14.4037 13.4275 14.4403 13.3712 14.4648 13.3094C14.4894 13.2476 14.5013 13.1815 14.5 13.115L14.49 12.641C14.4884 12.5424 14.4578 12.4464 14.402 12.365L10.412 6.59C10.3642 6.52092 10.2997 6.46501 10.2245 6.42743C10.1494 6.38985 10.066 6.37182 9.982 6.375Z" fill="currentColor"/>
</svg>
