<svg width="20" height="20" viewBox="0 0 20 20" fill="none" xmlns="http://www.w3.org/2000/svg">
<path d="M9.98 6.375C9.9028 6.37827 9.82741 6.39938 9.75974 6.43668C9.69208 6.47399 9.63398 6.52647 9.59 6.59L5.6 12.315C5.54318 12.3964 5.51185 12.4928 5.51 12.592L5.5 13.117C5.49894 13.1833 5.51109 13.2492 5.53574 13.3108C5.56039 13.3724 5.59706 13.4285 5.64359 13.4757C5.69013 13.523 5.74561 13.5606 5.8068 13.5862C5.86799 13.6118 5.93366 13.625 6 13.625H14C14.1326 13.625 14.2598 13.5723 14.3536 13.4786C14.4473 13.3848 14.5 13.2576 14.5 13.125V12.625C14.4998 12.523 14.4684 12.4236 14.41 12.34L10.41 6.59C10.3622 6.52092 10.2977 6.46501 10.2225 6.42743C10.1474 6.38985 10.064 6.37182 9.98 6.375ZM10 7.75L13.39 12.625H6.603L10 7.75Z" fill="currentColor"/>
</svg>
