<svg width="20" height="20" viewBox="0 0 20 20" fill="none" xmlns="http://www.w3.org/2000/svg">
<path d="M9.82001 3.002C8.58316 3.0399 7.38821 3.45891 6.39855 4.20173C5.40888 4.94456 4.67282 5.97495 4.291 7.152C3.96948 8.15092 3.91572 9.21672 4.13507 10.2429C4.35442 11.2691 4.8392 12.2198 5.541 13H5.25C5.1843 12.9999 5.11921 13.0127 5.05847 13.0378C4.99773 13.0628 4.94252 13.0996 4.896 13.146L3.146 14.896C3.0996 14.9425 3.06282 14.9977 3.03777 15.0585C3.01271 15.1192 2.99988 15.1843 3 15.25V16.5C3 16.6326 3.05269 16.7598 3.14645 16.8536C3.24022 16.9473 3.36739 17 3.5 17H16.5C16.6326 17 16.7598 16.9473 16.8535 16.8536C16.9473 16.7598 17 16.6326 17 16.5V15.25C17.0001 15.1843 16.9873 15.1192 16.9622 15.0585C16.9372 14.9977 16.9004 14.9425 16.854 14.896L15.104 13.146C15.0575 13.0996 15.0023 13.0628 14.9415 13.0378C14.8808 13.0127 14.8157 12.9999 14.75 13H14.455C15.1988 12.1749 15.6986 11.1593 15.8987 10.0666C16.0988 8.97391 15.9912 7.84711 15.588 6.812C15.1364 5.65996 14.3398 4.67561 13.3073 3.99361C12.2748 3.3116 11.0569 2.96527 9.82001 3.002ZM9.854 4.102C10.8638 4.07107 11.8584 4.35339 12.7013 4.91021C13.5442 5.46704 14.1942 6.27108 14.562 7.212C14.9312 8.15297 15.0002 9.18516 14.7594 10.1669C14.5186 11.1486 13.9798 12.0317 13.217 12.695C13.1257 12.7743 13.0632 12.8815 13.039 13H12.5C12.3674 13 12.2402 13.0527 12.1465 13.1464C12.0527 13.2402 12 13.3674 12 13.5C12 13.6326 12.0527 13.7598 12.1465 13.8536C12.2402 13.9473 12.3674 14 12.5 14H14.543L16 15.457V16H4V15.457L5.457 14H9.5C9.63261 14 9.75978 13.9473 9.85355 13.8536C9.94732 13.7598 10 13.6326 10 13.5C10 13.3674 9.94732 13.2402 9.85355 13.1464C9.75978 13.0527 9.63261 13 9.5 13H7.123C7.09195 12.9558 7.05454 12.9163 7.01199 12.883C6.21044 12.2669 5.61915 11.4178 5.3192 10.4523C5.01925 9.48687 5.02534 8.45223 5.33666 7.49036C5.64797 6.52848 6.24926 5.68648 7.05803 5.07984C7.8668 4.4732 8.84344 4.13164 9.854 4.102Z" fill="currentColor"/>
<path d="M9.555 5.69101C9.52616 5.69119 9.49738 5.69386 9.469 5.69901C8.77271 5.81139 8.12976 6.14091 7.63193 6.64053C7.13411 7.14015 6.80687 7.7843 6.697 8.48099C6.68689 8.54593 6.68967 8.61222 6.70518 8.67609C6.72069 8.73995 6.74862 8.80014 6.78739 8.85321C6.82616 8.90628 6.875 8.95119 6.93113 8.98538C6.98725 9.01958 7.04957 9.04238 7.11451 9.05249C7.17945 9.0626 7.24574 9.05982 7.30961 9.04431C7.37347 9.0288 7.43366 9.00087 7.48673 8.9621C7.5398 8.92333 7.58471 8.87452 7.6189 8.81839C7.6531 8.76226 7.6759 8.69995 7.68601 8.63501C7.76225 8.14635 7.99135 7.6944 8.34043 7.34406C8.68951 6.99371 9.14063 6.76299 9.629 6.685C9.75192 6.66433 9.86268 6.59851 9.93958 6.50043C10.0165 6.40234 10.054 6.27905 10.0447 6.15475C10.0355 6.03046 9.98009 5.91413 9.8895 5.82852C9.79891 5.74292 9.67962 5.69421 9.555 5.69199V5.69101Z" fill="currentColor"/>
</svg>
