<svg width="20" height="20" viewBox="0 0 20 20" fill="none" xmlns="http://www.w3.org/2000/svg">
<path d="M12.479 3C11.723 3 11.076 3.283 10.645 3.75C10.336 4.084 10.271 4.551 10.184 5H9.25C7.501 5 6 6.268 6 8C6 8.034 6.00999 8.066 6.01199 8.1C6.33199 8.034 6.662 8 7 8C9.033 8 10.794 9.242 11.572 11H14.25C14.98 11 15.661 10.769 16.17 10.332C16.4326 10.1049 16.6429 9.82343 16.7862 9.50714C16.9295 9.19085 17.0024 8.84723 17 8.5C17 7.308 16.054 6.437 14.957 6.193C14.955 5.705 14.969 5.093 14.711 4.449C14.407 3.693 13.656 3 12.479 3Z" fill="currentColor"/>
<path d="M7 9C4.797 9 3 10.797 3 13C3 15.203 4.797 17 7 17C9.203 17 11 15.203 11 13C11 10.797 9.203 9 7 9ZM7 10C8.663 10 10 11.337 10 13C10 14.663 8.663 16 7 16C5.337 16 4 14.663 4 13C4 11.337 5.337 10 7 10Z" fill="currentColor"/>
<path d="M4.5 3C5.323 3 6 3.677 6 4.5C6 5.323 5.323 6 4.5 6C3.677 6 3 5.323 3 4.5C3 3.677 3.677 3 4.5 3Z" fill="currentColor"/>
</svg>
