<svg width="20" height="20" viewBox="0 0 20 20" fill="none" xmlns="http://www.w3.org/2000/svg">
<path d="M6.5 3C6.4343 2.99988 6.36921 3.01272 6.30847 3.03777C6.24773 3.06282 6.19252 3.0996 6.146 3.146L3.146 6.146C3.0996 6.19252 3.06282 6.24773 3.03777 6.30847C3.01272 6.36921 2.99988 6.4343 3 6.5V16.5C3 16.6326 3.05268 16.7598 3.14645 16.8536C3.24022 16.9473 3.36739 17 3.5 17H13.5C13.5657 17.0001 13.6308 16.9873 13.6915 16.9622C13.7523 16.9372 13.8075 16.9004 13.854 16.854L16.854 13.854C16.9004 13.8075 16.9372 13.7523 16.9622 13.6915C16.9873 13.6308 17.0001 13.5657 17 13.5V3.5C17 3.36739 16.9473 3.24022 16.8536 3.14645C16.7598 3.05268 16.6326 3 16.5 3H6.5ZM6.707 4H16V13.293L13.293 16H4V6.707L6.707 4Z" fill="currentColor"/>
<path d="M15.49 3.988C15.3598 3.99223 15.2364 4.04713 15.146 4.141L13.293 6H5.5C5.36739 6 5.24021 6.05268 5.14645 6.14645C5.05268 6.24022 5 6.36739 5 6.5C5 6.63261 5.05268 6.75979 5.14645 6.85356C5.24021 6.94732 5.36739 7 5.5 7H13V14.5C13 14.6326 13.0527 14.7598 13.1464 14.8536C13.2402 14.9473 13.3674 15 13.5 15C13.6326 15 13.7598 14.9473 13.8536 14.8536C13.9473 14.7598 14 14.6326 14 14.5V6.707L15.854 4.846C15.9262 4.77572 15.9755 4.68526 15.9953 4.58649C16.0152 4.48772 16.0048 4.38525 15.9655 4.2925C15.9261 4.19975 15.8597 4.12105 15.7748 4.06671C15.69 4.01238 15.5907 3.98494 15.49 3.988Z" fill="currentColor"/>
</svg>
