<svg width="20" height="20" viewBox="0 0 20 20" fill="none" xmlns="http://www.w3.org/2000/svg">
<path d="M3.5 3C3.36739 3 3.24021 3.05269 3.14645 3.14645C3.05268 3.24022 3 3.36739 3 3.5V8.5C3 8.63261 3.05268 8.75978 3.14645 8.85355C3.24021 8.94731 3.36739 9 3.5 9H5V16.5C5 16.6326 5.05268 16.7598 5.14645 16.8535C5.24021 16.9473 5.36739 17 5.5 17H14.5C14.6326 17 14.7598 16.9473 14.8536 16.8535C14.9473 16.7598 15 16.6326 15 16.5V9H16.5C16.6326 9 16.7598 8.94731 16.8536 8.85355C16.9473 8.75978 17 8.63261 17 8.5V3.5C17 3.36739 16.9473 3.24022 16.8536 3.14645C16.7598 3.05269 16.6326 3 16.5 3H12.5C12.3674 3 12.2402 3.05269 12.1464 3.14645C12.0527 3.24022 12 3.36739 12 3.5V4C12 4.53043 11.7893 5.03914 11.4142 5.41422C11.0391 5.78929 10.5304 6 10 6C9.46957 6 8.96086 5.78929 8.58579 5.41422C8.21071 5.03914 8 4.53043 8 4V3.5C8 3.36739 7.94732 3.24022 7.85355 3.14645C7.75979 3.05269 7.63261 3 7.5 3H3.5ZM4 4H7C7.00032 4.52649 7.13914 5.04363 7.40252 5.4995C7.6659 5.95537 8.04458 6.33392 8.50053 6.59715C8.95649 6.86039 9.47367 6.99904 10.0002 6.99919C10.5266 6.99934 11.0439 6.86099 11.5 6.59801C11.956 6.33463 12.3346 5.9559 12.5979 5.49988C12.8612 5.04385 12.9999 4.52658 13 4H16V8H14.5C14.3674 8 14.2402 8.05269 14.1464 8.14645C14.0527 8.24022 14 8.36739 14 8.5V16H6V8.5C6 8.36739 5.94732 8.24022 5.85355 8.14645C5.75979 8.05269 5.63261 8 5.5 8H4V4Z" fill="currentColor"/>
</svg>
