<svg width="20" height="20" viewBox="0 0 20 20" fill="none" xmlns="http://www.w3.org/2000/svg">
<path d="M10 3C6.14 3 3 6.14 3 10C3 13.86 6.14 17 10 17C13.86 17 17 13.86 17 10C17 6.14 13.86 3 10 3ZM10 4C13.32 4 16 6.68 16 10C16 13.32 13.32 16 10 16C6.68 16 4 13.32 4 10C4 6.68 6.68 4 10 4Z" fill="currentColor"/>
<path d="M4.508 9.244C4.40832 9.24341 4.31074 9.27263 4.22779 9.3279C4.14483 9.38318 4.08029 9.46199 4.04246 9.55421C4.00462 9.64644 3.99522 9.74786 4.01545 9.84547C4.03568 9.94308 4.08463 10.0324 4.156 10.102C5.522 11.478 6.902 12 8.5 12H10C12.575 12 13.848 11.385 14.723 10.947C14.7846 10.9195 14.84 10.8798 14.8859 10.8303C14.9318 10.7809 14.9672 10.7226 14.9899 10.6591C15.0127 10.5956 15.0224 10.5281 15.0184 10.4608C15.0144 10.3934 14.9968 10.3276 14.9667 10.2672C14.9365 10.2068 14.8945 10.1532 14.8431 10.1095C14.7917 10.0658 14.732 10.0329 14.6675 10.0129C14.6031 9.99289 14.5353 9.98613 14.4682 9.99302C14.4011 9.99991 14.336 10.0203 14.277 10.053C13.402 10.49 12.425 11 10 11H8.5C7.098 11 6.097 10.637 4.867 9.398C4.82044 9.34943 4.76456 9.31075 4.7027 9.28429C4.64085 9.25783 4.57428 9.24412 4.507 9.244H4.508Z" fill="currentColor"/>
</svg>
