<svg width="20" height="20" viewBox="0 0 20 20" fill="none" xmlns="http://www.w3.org/2000/svg">
<path d="M8.50201 2.996C8.24901 2.996 7.99701 3.166 8.00201 3.504L7.99801 5H5.49801C5.3654 5 5.23823 5.05268 5.14447 5.14645C5.0507 5.24021 4.99801 5.36739 4.99801 5.5V8L3.50402 7.998C2.82802 7.988 2.82802 9.008 3.50402 8.998L4.99801 9V11L3.50402 10.998C2.82802 10.988 2.82802 12.008 3.50402 11.998L4.99801 12V14.5C4.99801 14.6326 5.0507 14.7598 5.14447 14.8536C5.23823 14.9473 5.3654 15 5.49801 15H7.99801L8.00201 16.496C7.99201 17.172 9.01201 17.172 9.00201 16.496L8.99801 15H10.998L11.002 16.496C10.992 17.172 12.012 17.172 12.002 16.496L11.998 15H14.498C14.6306 15 14.7578 14.9473 14.8516 14.8536C14.9453 14.7598 14.998 14.6326 14.998 14.5V12L16.496 11.998C17.172 12.008 17.172 10.988 16.496 10.998L14.998 11V9L16.496 8.998C17.172 9.008 17.172 7.988 16.496 7.998L14.998 8V5.5C14.998 5.36739 14.9453 5.24021 14.8516 5.14645C14.7578 5.05268 14.6306 5 14.498 5H11.998L12.002 3.504C12.012 2.828 10.992 2.828 11.002 3.504L10.998 5H8.99801L9.00201 3.504C9.00701 3.166 8.75401 2.996 8.50201 2.996ZM5.99801 6H13.998V14H5.99801V6Z" fill="currentColor"/>
<path d="M8.498 8C8.36539 8 8.23822 8.05268 8.14445 8.14645C8.05069 8.24021 7.998 8.36739 7.998 8.5V11.5C7.998 11.6326 8.05069 11.7598 8.14445 11.8536C8.23822 11.9473 8.36539 12 8.498 12H11.498C11.6306 12 11.7578 11.9473 11.8515 11.8536C11.9453 11.7598 11.998 11.6326 11.998 11.5V8.5C11.998 8.36739 11.9453 8.24021 11.8515 8.14645C11.7578 8.05268 11.6306 8 11.498 8H8.498ZM8.998 9H10.998V11H8.998V9Z" fill="currentColor"/>
</svg>
