<svg width="20" height="20" viewBox="0 0 20 20" fill="none" xmlns="http://www.w3.org/2000/svg">
<path d="M6.496 7.24601C6.38793 7.24564 6.28263 7.2803 6.19591 7.3448C6.10919 7.4093 6.0457 7.50016 6.01496 7.60377C5.98421 7.70738 5.98785 7.81818 6.02536 7.91954C6.06287 8.0209 6.13222 8.10736 6.22301 8.166C7.15001 8.784 8.6 9.00001 10 9.00001C11.397 9.00001 12.85 8.784 13.777 8.166C13.8337 8.13057 13.8828 8.08413 13.9213 8.0294C13.9597 7.97467 13.9868 7.91278 14.0009 7.84739C14.0151 7.782 14.0159 7.71445 14.0035 7.64872C13.991 7.583 13.9655 7.52044 13.9284 7.46476C13.8913 7.40908 13.8434 7.36141 13.7876 7.32457C13.7318 7.28772 13.6691 7.26245 13.6033 7.25026C13.5376 7.23806 13.47 7.2392 13.4047 7.25358C13.3394 7.26797 13.2776 7.29533 13.223 7.33403C12.65 7.71603 11.273 8.00001 10 8.00001C8.724 8.00001 7.35 7.71603 6.777 7.33403C6.69457 7.27734 6.59703 7.24668 6.497 7.24601H6.496Z" fill="currentColor"/>
<path d="M10 3C8.42 3 6.98701 3.28501 5.90401 3.77701C5.36301 4.02301 4.90699 4.32 4.56599 4.686C4.22599 5.051 4 5.506 4 6V14C4 14.494 4.22599 14.949 4.56599 15.314C4.90599 15.68 5.36301 15.977 5.90401 16.223C6.98701 16.715 8.42 17 10 17C11.58 17 13.013 16.715 14.096 16.223C14.637 15.977 15.093 15.68 15.434 15.314C15.774 14.949 16 14.494 16 14V6C16 5.506 15.774 5.051 15.434 4.686C15.094 4.32 14.637 4.02301 14.096 3.77701C13.013 3.28501 11.58 3 10 3ZM10 4C11.457 4 12.774 4.27499 13.682 4.68799C14.136 4.89399 14.485 5.13501 14.702 5.36801C14.918 5.60001 15 5.803 15 6V14C15 14.197 14.918 14.4 14.701 14.633C14.485 14.865 14.136 15.106 13.681 15.313C12.774 15.725 11.457 16 10 16C8.543 16 7.22599 15.725 6.31799 15.312C5.86399 15.106 5.515 14.865 5.298 14.632C5.082 14.4 5 14.197 5 14V6C5 5.803 5.082 5.6 5.299 5.367C5.515 5.135 5.864 4.89401 6.319 4.68701C7.226 4.27501 8.543 4 10 4Z" fill="currentColor"/>
</svg>
