<svg width="20" height="20" viewBox="0 0 20 20" fill="none" xmlns="http://www.w3.org/2000/svg">
<path d="M9.5 3.00001C9.41624 2.99959 9.33372 3.02022 9.26 3.06L3.76 6.06C3.6811 6.10318 3.61529 6.16683 3.56954 6.24427C3.52378 6.32171 3.49976 6.41006 3.5 6.50001V13.5C3.49976 13.59 3.52378 13.6783 3.56954 13.7557C3.61529 13.8332 3.6811 13.8968 3.76 13.94L9.26 16.94C9.33372 16.9798 9.41624 17.0004 9.5 17H10.5C10.5838 17.0004 10.6663 16.9798 10.74 16.94L16.24 13.94C16.3189 13.8968 16.3847 13.8332 16.4305 13.7557C16.4762 13.6783 16.5002 13.59 16.5 13.5V6.50001C16.5002 6.41006 16.4762 6.32171 16.4305 6.24427C16.3847 6.16683 16.3189 6.10318 16.24 6.06L10.74 3.06C10.6663 3.02022 10.5838 2.99959 10.5 3.00001H9.5ZM9.627 4.00001H10.373L15.5 6.797V13.203L10.373 16H9.627L4.5 13.203V6.797L9.627 4.00001Z" fill="currentColor"/>
<path d="M6 6C5.86739 6 5.74021 6.05269 5.64644 6.14645C5.55268 6.24022 5.5 6.36739 5.5 6.5C5.5 6.63261 5.55268 6.75978 5.64644 6.85355C5.74021 6.94731 5.86739 7 6 7H14C14.1326 7 14.2598 6.94731 14.3536 6.85355C14.4473 6.75978 14.5 6.63261 14.5 6.5C14.5 6.36739 14.4473 6.24022 14.3536 6.14645C14.2598 6.05269 14.1326 6 14 6H6ZM12.014 7C11.9365 6.99781 11.8596 7.01367 11.7894 7.0463C11.7191 7.07892 11.6573 7.12741 11.609 7.18799L8.014 11.684L5.4 8.19901C5.36047 8.14648 5.31098 8.10225 5.25436 8.06885C5.19774 8.03544 5.1351 8.0135 5.07001 8.0043C5.00491 7.99511 4.93864 7.99884 4.87498 8.01526C4.81133 8.03168 4.75152 8.06048 4.699 8.10001C4.64647 8.13953 4.60224 8.18902 4.56884 8.24564C4.53543 8.30226 4.51351 8.3649 4.50432 8.42999C4.49512 8.49509 4.49884 8.56134 4.51526 8.625C4.53167 8.68866 4.56047 8.74847 4.6 8.80099L7.6 12.801C7.64523 12.8611 7.70343 12.9102 7.77026 12.9446C7.83709 12.9791 7.91084 12.998 7.986 13C8.06346 13.0022 8.14036 12.9863 8.21065 12.9537C8.28093 12.9211 8.34267 12.8726 8.391 12.812L11.986 8.31601L14.6 11.801C14.6395 11.8535 14.689 11.8977 14.7456 11.9312C14.8023 11.9646 14.8649 11.9865 14.93 11.9957C14.9951 12.0049 15.0614 12.0012 15.125 11.9847C15.1887 11.9683 15.2485 11.9395 15.301 11.9C15.3535 11.8605 15.3978 11.811 15.4312 11.7544C15.4646 11.6977 15.4865 11.6351 15.4957 11.57C15.5049 11.5049 15.5012 11.4387 15.4847 11.375C15.4683 11.3113 15.4395 11.2515 15.4 11.199L12.4 7.19901C12.3548 7.13895 12.2966 7.08984 12.2297 7.05539C12.1629 7.02094 12.0892 7.00201 12.014 7ZM7.986 13H6C5.86739 13 5.74021 13.0527 5.64644 13.1465C5.55268 13.2402 5.5 13.3674 5.5 13.5C5.5 13.6326 5.55268 13.7598 5.64644 13.8535C5.74021 13.9473 5.86739 14 6 14H14C14.1326 14 14.2598 13.9473 14.3536 13.8535C14.4473 13.7598 14.5 13.6326 14.5 13.5C14.5 13.3674 14.4473 13.2402 14.3536 13.1465C14.2598 13.0527 14.1326 13 14 13H7.986Z" fill="currentColor"/>
</svg>
