<svg width="20" height="20" viewBox="0 0 20 20" fill="none" xmlns="http://www.w3.org/2000/svg">
<path d="M10 2.93799C8.12752 2.93984 6.33224 3.68444 5.0081 5.00839C3.68396 6.33234 2.93911 8.12752 2.937 10C2.93885 11.8727 3.68358 13.6681 5.00775 14.9922C6.33192 16.3164 8.12734 17.0611 10 17.063C11.8727 17.0611 13.6681 16.3164 14.9922 14.9922C16.3164 13.6681 17.0612 11.8727 17.063 10C17.0612 8.12734 16.3164 6.33192 14.9922 5.00775C13.6681 3.68358 11.8727 2.93886 10 2.93701V2.93799ZM10 3.93799C10.7964 3.93694 11.5852 4.09302 12.3212 4.39728C13.0572 4.70154 13.726 5.14802 14.2892 5.71112C14.8524 6.27423 15.299 6.94291 15.6033 7.67886C15.9077 8.41482 16.0639 9.20358 16.063 10C16.0641 10.7965 15.908 11.5854 15.6036 12.3214C15.2993 13.0575 14.8527 13.7263 14.2895 14.2896C13.7263 14.8528 13.0575 15.2993 12.3215 15.6036C11.5854 15.908 10.7965 16.064 10 16.063C9.2035 16.064 8.41462 15.908 7.67854 15.6036C6.94247 15.2993 6.27368 14.8528 5.71046 14.2896C5.14725 13.7263 4.70069 13.0575 4.39637 12.3214C4.09205 11.5854 3.93594 10.7965 3.937 10C3.93594 9.2035 4.09205 8.41463 4.39637 7.67856C4.70069 6.94249 5.14725 6.27366 5.71046 5.71045C6.27368 5.14724 6.94247 4.70068 7.67854 4.39636C8.41462 4.09204 9.2035 3.93596 10 3.93701V3.93799Z" fill="currentColor"/>
<path d="M9.477 4.74398C9.39584 4.74846 9.317 4.77265 9.2473 4.81447C9.1776 4.85629 9.11915 4.91449 9.077 4.984C8.183 6.41 8 7.97999 8 9.99999C8 10.335 8.056 10.607 8.068 10.922C6.901 10.842 5.956 10.495 4.868 9.398C4.77464 9.30358 4.64761 9.2501 4.51483 9.24935C4.38206 9.2486 4.25442 9.30065 4.16 9.394C4.06559 9.48736 4.01212 9.61438 4.01137 9.74715C4.01062 9.87993 4.06264 10.0076 4.156 10.102C5.414 11.369 6.701 11.854 8.143 11.932C8.268 13.051 8.495 14.097 9.076 15.018C9.14707 15.1304 9.25992 15.2101 9.38969 15.2393C9.51947 15.2686 9.65555 15.2451 9.768 15.174C9.88045 15.1029 9.96006 14.9901 9.98932 14.8603C10.0186 14.7305 9.99508 14.5944 9.924 14.482C9.471 13.764 9.264 12.928 9.143 12H10C12.575 12 13.848 11.385 14.723 10.947C14.7846 10.9195 14.84 10.8798 14.8859 10.8303C14.9318 10.7809 14.9671 10.7226 14.9899 10.6591C15.0127 10.5956 15.0224 10.5281 15.0184 10.4608C15.0144 10.3934 14.9968 10.3276 14.9666 10.2672C14.9365 10.2068 14.8945 10.1532 14.8431 10.1095C14.7917 10.0658 14.732 10.0329 14.6675 10.0129C14.6031 9.99289 14.5353 9.98611 14.4682 9.993C14.4011 9.99989 14.336 10.0203 14.277 10.053C13.402 10.49 12.425 11 10 11H9.072C9.055 10.659 9 10.38 9 9.99999C9 8.03999 9.173 6.71598 9.924 5.51598C9.97442 5.43853 10.0024 5.34862 10.0048 5.25625C10.0072 5.16387 9.98397 5.07264 9.93767 4.99267C9.89136 4.91269 9.8238 4.84711 9.74248 4.80321C9.66116 4.75931 9.56926 4.73881 9.477 4.74398Z" fill="currentColor"/>
</svg>
