<svg width="20" height="20" viewBox="0 0 20 20" fill="none" xmlns="http://www.w3.org/2000/svg">
<path d="M9.5 3C9.41827 3.00004 9.33779 3.02012 9.26562 3.05847C9.19344 3.09682 9.13177 3.15229 9.086 3.22L3.336 11.72C3.32699 11.7336 3.31864 11.7476 3.311 11.762C3.098 12.152 3 12.58 3 13C3 14.217 3.896 15.232 5.166 15.916C6.436 16.6 8.132 17 10 17C11.868 17 13.564 16.6 14.834 15.916C16.104 15.232 17 14.217 17 13C17 12.58 16.904 12.153 16.687 11.76C16.68 11.7463 16.6723 11.733 16.664 11.72L10.914 3.22C10.8682 3.15229 10.8066 3.09682 10.7344 3.05847C10.6622 3.02012 10.5817 3.00004 10.5 3H9.5ZM9.766 4H10.234L15.814 12.248C15.942 12.483 16 12.731 16 13C16 13.716 15.442 14.452 14.36 15.035C13.277 15.618 11.722 16 10 16C8.278 16 6.723 15.618 5.64 15.035C4.559 14.452 4 13.715 4 13C4 12.737 4.062 12.478 4.188 12.244L9.766 4Z" fill="currentColor"/>
</svg>
