<svg width="20" height="20" viewBox="0 0 20 20" fill="none" xmlns="http://www.w3.org/2000/svg">
<path d="M12.025 3.057C10.795 3.121 9.602 3.691 8.646 4.647L4.646 8.647C3.691 9.602 3.116 10.797 3.049 12.031C2.981 13.265 3.437 14.527 4.463 15.541C5.487 16.553 6.744 17.008 7.975 16.943C9.205 16.879 10.398 16.309 11.354 15.353L15.354 11.353C16.309 10.398 16.884 9.203 16.951 7.969C17.019 6.735 16.563 5.473 15.537 4.459C14.513 3.447 13.256 2.992 12.025 3.057ZM12.078 4.055C13.034 4.005 13.99 4.336 14.834 5.17C15.676 6.002 16.006 6.956 15.954 7.914C15.9 8.873 15.448 9.844 14.646 10.646L10.646 14.646C9.844 15.448 8.878 15.896 7.922 15.946C6.966 15.996 6.01 15.664 5.166 14.83C4.324 13.998 3.994 13.044 4.046 12.086C4.099 11.127 4.551 10.156 5.353 9.354L9.353 5.354C10.156 4.551 11.122 4.104 12.078 4.054V4.055Z" fill="currentColor"/>
</svg>
