<svg width="20" height="20" viewBox="0 0 20 20" fill="none" xmlns="http://www.w3.org/2000/svg">
<path d="M3.5 3C3.36739 3 3.24021 3.05268 3.14645 3.14645C3.05268 3.24021 3 3.36739 3 3.5V6.5C3 6.63261 3.05268 6.75979 3.14645 6.85355C3.24021 6.94732 3.36739 7 3.5 7H4.45L8 13.627V16.5C8 16.6326 8.05268 16.7598 8.14645 16.8536C8.24021 16.9473 8.36739 17 8.5 17H11.5C11.6326 17 11.7598 16.9473 11.8536 16.8536C11.9473 16.7598 12 16.6326 12 16.5V13.627L15.55 7H16.5C16.6326 7 16.7598 6.94732 16.8536 6.85355C16.9473 6.75979 17 6.63261 17 6.5V3.5C17 3.36739 16.9473 3.24021 16.8536 3.14645C16.7598 3.05268 16.6326 3 16.5 3H13.5C13.3674 3 13.2402 3.05268 13.1464 3.14645C13.0527 3.24021 13 3.36739 13 3.5V4H7V3.5C7 3.36739 6.94732 3.24021 6.85355 3.14645C6.75979 3.05268 6.63261 3 6.5 3H3.5ZM4 4H6V6H4V4ZM14 4H16V6H14V4ZM7 5H13V6.5C13 6.63261 13.0527 6.75979 13.1464 6.85355C13.2402 6.94732 13.3674 7 13.5 7H14.414L11.2 13H8.801L5.586 7H6.5C6.63261 7 6.75979 6.94732 6.85355 6.85355C6.94732 6.75979 7 6.63261 7 6.5V5ZM9 14H11V16H9V14Z" fill="currentColor"/>
</svg>
