<svg width="20" height="20" viewBox="0 0 20 20" fill="none" xmlns="http://www.w3.org/2000/svg">
<path d="M3.484 2.952C3.35139 2.952 3.22422 3.00469 3.13045 3.09846C3.03668 3.19223 2.984 3.3194 2.984 3.452V16.548C2.984 16.6806 3.03668 16.8078 3.13045 16.9016C3.22422 16.9953 3.35139 17.048 3.484 17.048H16.517C16.6496 17.048 16.7768 16.9953 16.8706 16.9016C16.9643 16.8078 17.017 16.6806 17.017 16.548V3.452C17.017 3.3194 16.9643 3.19223 16.8706 3.09846C16.7768 3.00469 16.6496 2.952 16.517 2.952H3.484ZM3.984 3.952H16.017V16.048H3.984V3.952Z" fill="currentColor"/>
<path d="M7.509 4.94401C7.44333 4.94505 7.37852 4.95902 7.31825 4.98512C7.25799 5.01121 7.20346 5.04891 7.15777 5.09608C7.11208 5.14325 7.07613 5.19898 7.05198 5.26005C7.02783 5.32112 7.01594 5.38634 7.017 5.45201V6.95201H5.517C5.38439 6.95201 5.25721 7.00469 5.16344 7.09846C5.06968 7.19223 5.017 7.3194 5.017 7.45201C5.017 7.58462 5.06968 7.71179 5.16344 7.80555C5.25721 7.89932 5.38439 7.95201 5.517 7.95201H7.017V11.952H5.517C5.38439 11.952 5.25721 12.0047 5.16344 12.0985C5.06968 12.1922 5.017 12.3194 5.017 12.452C5.017 12.5846 5.06968 12.7118 5.16344 12.8056C5.25721 12.8993 5.38439 12.952 5.517 12.952H7.017V14.452C7.017 14.5846 7.06968 14.7118 7.16344 14.8056C7.25721 14.8993 7.38439 14.952 7.517 14.952C7.64961 14.952 7.77678 14.8993 7.87055 14.8056C7.96432 14.7118 8.017 14.5846 8.017 14.452V12.952H12.017V14.452C12.017 14.5846 12.0697 14.7118 12.1634 14.8056C12.2572 14.8993 12.3844 14.952 12.517 14.952C12.6496 14.952 12.7768 14.8993 12.8706 14.8056C12.9643 14.7118 13.017 14.5846 13.017 14.452V12.952H14.517C14.6496 12.952 14.7768 12.8993 14.8706 12.8056C14.9643 12.7118 15.017 12.5846 15.017 12.452C15.017 12.3194 14.9643 12.1922 14.8706 12.0985C14.7768 12.0047 14.6496 11.952 14.517 11.952H13.017V7.95201H14.517C14.6496 7.95201 14.7768 7.89932 14.8706 7.80555C14.9643 7.71179 15.017 7.58462 15.017 7.45201C15.017 7.3194 14.9643 7.19223 14.8706 7.09846C14.7768 7.00469 14.6496 6.95201 14.517 6.95201H13.017V5.45201C13.017 5.3194 12.9643 5.19223 12.8706 5.09846C12.7768 5.00469 12.6496 4.95201 12.517 4.95201C12.3844 4.95201 12.2572 5.00469 12.1634 5.09846C12.0697 5.19223 12.017 5.3194 12.017 5.45201V6.95201H8.017V5.45201C8.01808 5.385 8.00568 5.31845 7.98053 5.25633C7.95538 5.19421 7.918 5.13776 7.87061 5.09037C7.82322 5.04298 7.7668 5.00563 7.70467 4.98048C7.64255 4.95533 7.576 4.94293 7.509 4.94401ZM8.017 7.95201H12.017V11.952H8.017V7.95201Z" fill="currentColor"/>
</svg>
