<svg width="20" height="20" viewBox="0 0 20 20" fill="none" xmlns="http://www.w3.org/2000/svg">
<path d="M10 4C7.805 4 5.83 4.64001 4.38 5.70901C2.932 6.77701 2 8.301 2 10C2 11.7 2.932 13.223 4.38 14.291C5.83 15.359 7.805 16 10 16C12.195 16 14.17 15.36 15.62 14.291C17.068 13.223 18 11.699 18 10C18 8.3 17.068 6.77701 15.62 5.70901C14.17 4.64101 12.195 4 10 4ZM10 5C12 5 13.773 5.59001 15.025 6.51401C16.277 7.43701 17 8.664 17 10C17 11.337 16.277 12.563 15.025 13.486C13.773 14.41 12 15 10 15C8 15 6.22701 14.41 4.97501 13.486C3.72301 12.563 3 11.336 3 10C3 8.663 3.72301 7.43701 4.97501 6.51401C6.22701 5.59001 8 5 10 5Z" fill="currentColor"/>
<path d="M7.492 8.49201C7.42616 8.49305 7.36117 8.50708 7.30078 8.5333C7.24038 8.55952 7.18575 8.59742 7.14004 8.64481C7.09433 8.6922 7.05842 8.74812 7.03439 8.80942C7.01035 8.87072 6.99867 8.93619 6.99999 9.00202V9.25202C6.99999 9.52002 7.10099 9.68499 7.23399 9.86899C7.36799 10.054 7.55499 10.238 7.80099 10.404C8.29099 10.738 9.019 10.997 9.998 11C10.978 11.003 11.71 10.743 12.201 10.408C12.4194 10.2628 12.6107 10.0804 12.766 9.86899C12.899 9.68399 12.999 9.51902 13 9.25202V9.00202C13.0005 8.86941 12.9484 8.742 12.855 8.64786C12.7616 8.55372 12.6346 8.50053 12.502 8.5C12.3694 8.49947 12.242 8.55163 12.1479 8.64502C12.0537 8.73842 12.0005 8.86538 12 8.99799V9.25C12 9.138 12.009 9.20899 11.953 9.28699C11.897 9.36599 11.793 9.476 11.637 9.582C11.325 9.795 10.807 10.002 10.002 10C9.19699 9.998 8.67399 9.78799 8.36199 9.57599C8.24059 9.49687 8.13341 9.39781 8.04499 9.28299C7.98899 9.20499 7.99999 9.137 7.99999 9.25V8.99799C8.00081 8.93115 7.9882 8.86484 7.96293 8.80295C7.93766 8.74106 7.90025 8.68487 7.85288 8.6377C7.80552 8.59052 7.74919 8.55332 7.6872 8.52829C7.62522 8.50327 7.55884 8.49093 7.492 8.49201Z" fill="currentColor"/>
</svg>
