<svg width="20" height="20" viewBox="0 0 20 20" fill="none" xmlns="http://www.w3.org/2000/svg">
<path d="M6.5 3C6.4343 2.99988 6.36921 3.01273 6.30847 3.03778C6.24773 3.06283 6.19252 3.0996 6.146 3.146L3.146 6.146C3.0996 6.19252 3.06282 6.24773 3.03777 6.30847C3.01272 6.36921 2.99988 6.4343 3 6.5V16.5C3 16.6326 3.05268 16.7598 3.14645 16.8535C3.24022 16.9473 3.36739 17 3.5 17H13.5C13.5657 17.0001 13.6308 16.9873 13.6915 16.9622C13.7523 16.9372 13.8075 16.9004 13.854 16.854L16.854 13.854C16.9004 13.8075 16.9372 13.7523 16.9622 13.6915C16.9873 13.6308 17.0001 13.5657 17 13.5V3.5C17 3.36739 16.9473 3.24022 16.8536 3.14645C16.7598 3.05269 16.6326 3 16.5 3H6.5ZM6.707 4H16V13.293L13.293 16H4V6.707L6.707 4Z" fill="currentColor"/>
<path d="M15.49 3.98799C15.3598 3.99223 15.2364 4.04711 15.146 4.14098L13.293 5.99999H5.5C5.36739 5.99999 5.24021 6.05267 5.14645 6.14644C5.05268 6.24021 5 6.36738 5 6.49999C5 6.63259 5.05268 6.75976 5.14645 6.85353C5.24021 6.9473 5.36739 6.99999 5.5 6.99999H13V14.5C13 14.6326 13.0527 14.7598 13.1464 14.8535C13.2402 14.9473 13.3674 15 13.5 15C13.6326 15 13.7598 14.9473 13.8536 14.8535C13.9473 14.7598 14 14.6326 14 14.5V6.70699L15.854 4.84599C15.9262 4.77571 15.9755 4.68524 15.9953 4.58647C16.0152 4.4877 16.0048 4.38522 15.9655 4.29247C15.9261 4.19972 15.8597 4.12103 15.7748 4.0667C15.69 4.01236 15.5907 3.98493 15.49 3.98799Z" fill="currentColor"/>
</svg>
