<svg width="20" height="20" viewBox="0 0 20 20" fill="none" xmlns="http://www.w3.org/2000/svg">
<path d="M6.508 3C5.57778 3.00053 4.68582 3.37029 4.02805 4.02805C3.37029 4.68582 3.00053 5.57778 3 6.508V13.492C3.00053 14.4222 3.37029 15.3142 4.02805 15.9719C4.68582 16.6297 5.57778 16.9995 6.508 17H13.492C14.4222 16.9995 15.3142 16.6297 15.9719 15.9719C16.6297 15.3142 16.9995 14.4222 17 13.492V6.508C16.9995 5.57778 16.6297 4.68582 15.9719 4.02805C15.3142 3.37029 14.4222 3.00053 13.492 3H6.508ZM6.508 4H13.492C13.822 3.99774 14.1491 4.06107 14.4544 4.18631C14.7597 4.31155 15.0371 4.4962 15.2705 4.72954C15.5038 4.96288 15.6885 5.24026 15.8137 5.54556C15.9389 5.85087 16.0023 6.17801 16 6.508V13.492C16.0023 13.822 15.9389 14.1491 15.8137 14.4544C15.6885 14.7597 15.5038 15.0371 15.2705 15.2705C15.0371 15.5038 14.7597 15.6885 14.4544 15.8137C14.1491 15.9389 13.822 16.0023 13.492 16H6.508C6.17801 16.0023 5.85087 15.9389 5.54556 15.8137C5.24026 15.6885 4.96288 15.5038 4.72954 15.2705C4.4962 15.0371 4.31155 14.7597 4.18631 14.4544C4.06107 14.1491 3.99774 13.822 4 13.492V6.508C3.99774 6.17801 4.06107 5.85087 4.18631 5.54556C4.31155 5.24026 4.4962 4.96288 4.72954 4.72954C4.96288 4.4962 5.24026 4.31155 5.54556 4.18631C5.85087 4.06107 6.17801 3.99774 6.508 4Z" fill="currentColor"/>
</svg>
