<svg width="20" height="20" viewBox="0 0 20 20" fill="none" xmlns="http://www.w3.org/2000/svg">
<path d="M10 2.93799C8.12752 2.93984 6.33226 3.68444 5.00812 5.00839C3.68398 6.33234 2.93913 8.12752 2.93701 10C2.93886 11.8727 3.68358 13.6681 5.00775 14.9922C6.33192 16.3164 8.12734 17.0611 10 17.063C11.8727 17.0611 13.6681 16.3164 14.9922 14.9922C16.3164 13.6681 17.0611 11.8727 17.063 10C17.0611 8.12734 16.3164 6.33192 14.9922 5.00775C13.6681 3.68358 11.8727 2.93886 10 2.93701V2.93799ZM10 3.93799C10.7964 3.93694 11.5852 4.09302 12.3212 4.39728C13.0572 4.70154 13.726 5.14802 14.2892 5.71112C14.8524 6.27423 15.299 6.94291 15.6033 7.67886C15.9077 8.41482 16.0639 9.20358 16.063 10C16.064 10.7965 15.908 11.5854 15.6036 12.3214C15.2993 13.0575 14.8528 13.7263 14.2896 14.2896C13.7263 14.8528 13.0575 15.2993 12.3214 15.6036C11.5854 15.908 10.7965 16.064 10 16.063C9.2035 16.064 8.41463 15.908 7.67856 15.6036C6.94249 15.2993 6.27366 14.8528 5.71045 14.2896C5.14724 13.7263 4.70068 13.0575 4.39636 12.3214C4.09204 11.5854 3.93596 10.7965 3.93701 10C3.93596 9.2035 4.09204 8.41463 4.39636 7.67856C4.70068 6.94249 5.14724 6.27366 5.71045 5.71045C6.27366 5.14724 6.94249 4.70068 7.67856 4.39636C8.41463 4.09204 9.2035 3.93596 10 3.93701V3.93799Z" fill="currentColor"/>
<path d="M9.47699 4.74398C9.39583 4.74846 9.31698 4.77265 9.24728 4.81447C9.17758 4.85629 9.11914 4.91449 9.077 4.984C8.183 6.41 8 7.97999 8 9.99999C8 11.967 8.17399 13.586 9.07599 15.018C9.14707 15.1304 9.2599 15.2101 9.38968 15.2393C9.51945 15.2686 9.65555 15.2451 9.76801 15.174C9.88046 15.1029 9.96006 14.9901 9.98932 14.8603C10.0186 14.7305 9.99509 14.5944 9.92401 14.482C9.17101 13.289 9 11.908 9 9.99999C9 8.03999 9.17301 6.71598 9.92401 5.51598C9.97443 5.43853 10.0024 5.34862 10.0048 5.25625C10.0072 5.16387 9.98396 5.07264 9.93765 4.99267C9.89135 4.91269 9.82381 4.84711 9.74249 4.80321C9.66117 4.75931 9.56926 4.73881 9.47699 4.74398Z" fill="currentColor"/>
</svg>
