<svg width="20" height="20" viewBox="0 0 20 20" fill="none" xmlns="http://www.w3.org/2000/svg">
<path d="M12.025 3.05702C10.795 3.12102 9.60201 3.69101 8.64601 4.64701L4.64601 8.64701C3.69101 9.60201 3.11603 10.797 3.04903 12.031C2.98103 13.265 3.43703 14.527 4.46303 15.541C5.48703 16.553 6.74399 17.008 7.97499 16.943C9.20499 16.879 10.398 16.309 11.354 15.353L15.354 11.353C16.309 10.398 16.884 9.20301 16.951 7.96901C17.019 6.73501 16.563 5.47303 15.537 4.45903C14.513 3.44703 13.256 2.99202 12.025 3.05702ZM12.078 4.055C13.034 4.005 13.99 4.33603 14.834 5.17003C15.676 6.00203 16.006 6.95601 15.954 7.91401C15.9 8.87301 15.448 9.84401 14.646 10.646L10.646 14.646C9.84401 15.448 8.87801 15.896 7.92201 15.946C6.96601 15.996 6.01003 15.664 5.16603 14.83C4.32403 13.998 3.994 13.044 4.046 12.086C4.099 11.127 4.55104 10.156 5.35304 9.35402L9.35304 5.35402C10.156 4.55202 11.122 4.104 12.078 4.054V4.055Z" fill="currentColor"/>
<path d="M10.473 5.99399C10.399 5.99762 10.3267 6.01767 10.2614 6.05267C10.196 6.08768 10.1393 6.13679 10.0953 6.19641C10.0513 6.25604 10.021 6.32469 10.0068 6.39743C9.99257 6.47017 9.99469 6.54519 10.013 6.61701C10.2 7.39401 10.299 8.04199 11.154 8.86099C11.969 9.64099 12.547 9.80401 13.394 9.98801C13.4595 10.0059 13.528 10.0103 13.5953 10.0009C13.6626 9.99142 13.7272 9.96835 13.7853 9.93311C13.8434 9.89786 13.8936 9.85116 13.9331 9.79584C13.9725 9.74052 14.0002 9.67776 14.0145 9.61136C14.0289 9.54496 14.0296 9.47633 14.0166 9.40967C14.0035 9.343 13.977 9.27969 13.9387 9.2236C13.9004 9.16752 13.851 9.11982 13.7937 9.08344C13.7363 9.04706 13.6721 9.02275 13.605 9.01199C12.756 8.82699 12.567 8.82901 11.845 8.13901C11.124 7.44701 11.189 7.226 10.986 6.383C10.96 6.26812 10.8943 6.16611 10.8004 6.09494C10.7066 6.02378 10.5907 5.98802 10.473 5.99399Z" fill="currentColor"/>
</svg>
