<svg width="20" height="20" viewBox="0 0 20 20" fill="none" xmlns="http://www.w3.org/2000/svg">
<path d="M8.5 3C7.705 3 6.941 3.316 6.379 3.879L3.879 6.379C3.31644 6.94154 3.00028 7.70444 3 8.5V14C3 15.65 4.35 17 6 17H11.5C12.295 17 13.059 16.684 13.621 16.121L16.121 13.621C16.6836 13.0585 16.9997 12.2956 17 11.5V5.75C17 4.955 16.74 4.248 16.246 3.754C15.752 3.26 15.046 3 14.25 3H8.5ZM8.5 4H14.25C14.835 4 15.253 4.17499 15.54 4.45999C15.825 4.74699 16 5.165 16 5.75V11.5C15.9999 12.0304 15.7891 12.539 15.414 12.914L12.914 15.414C12.539 15.7891 12.0304 15.9999 11.5 16H6C4.89 16 4 15.11 4 14V8.5C4.00011 7.96961 4.2109 7.46098 4.586 7.086L7.086 4.586C7.46098 4.2109 7.96961 4.00011 8.5 4Z" fill="currentColor"/>
<path d="M14.49 4.99599C14.3602 4.99943 14.2368 5.05321 14.146 5.14598L13.146 6.14598C13.0995 6.19247 13.0626 6.24766 13.0375 6.3084C13.0123 6.36914 12.9994 6.43424 12.9994 6.49999C12.9994 6.56573 13.0123 6.63084 13.0375 6.69158C13.0626 6.75232 13.0995 6.8075 13.146 6.85399C13.1925 6.90048 13.2477 6.93735 13.3084 6.96251C13.3692 6.98767 13.4343 7.00063 13.5 7.00063C13.5657 7.00063 13.6308 6.98767 13.6916 6.96251C13.7523 6.93735 13.8075 6.90048 13.854 6.85399L14.854 5.85399C14.9262 5.7837 14.9754 5.69324 14.9953 5.59447C15.0152 5.4957 15.0048 5.39324 14.9655 5.30049C14.9261 5.20774 14.8597 5.12903 14.7748 5.07469C14.69 5.02036 14.5907 4.99293 14.49 4.99599ZM6.5 6.99999C6.36739 6.99999 6.24022 7.05267 6.14645 7.14644C6.05269 7.24021 6 7.36738 6 7.49999C6 7.63259 6.05269 7.75976 6.14645 7.85353C6.24022 7.9473 6.36739 7.99999 6.5 7.99999H10.5C10.6326 7.99999 10.7598 7.9473 10.8535 7.85353C10.9473 7.75976 11 7.63259 11 7.49999C11 7.36738 10.9473 7.24021 10.8535 7.14644C10.7598 7.05267 10.6326 6.99999 10.5 6.99999H6.5ZM12.492 8.99199C12.4263 8.99303 12.3615 9.007 12.3013 9.0331C12.241 9.05919 12.1865 9.09689 12.1408 9.14406C12.0951 9.19123 12.0591 9.24696 12.035 9.30803C12.0108 9.3691 11.9989 9.43432 12 9.49999V13.5C12 13.6326 12.0527 13.7598 12.1465 13.8535C12.2402 13.9473 12.3674 14 12.5 14C12.6326 14 12.7598 13.9473 12.8535 13.8535C12.9473 13.7598 13 13.6326 13 13.5V9.49999C13.0011 9.43298 12.9887 9.36643 12.9635 9.30431C12.9384 9.24219 12.901 9.18574 12.8536 9.13835C12.8062 9.09096 12.7498 9.05361 12.6877 9.02846C12.6256 9.00331 12.559 8.99091 12.492 8.99199Z" fill="currentColor"/>
</svg>
