<svg width="20" height="20" viewBox="0 0 20 20" fill="none" xmlns="http://www.w3.org/2000/svg">
<path d="M13.162 3.00302C12.7627 2.98686 12.3633 3.03065 11.977 3.13299C11.4641 3.27048 10.9837 3.5089 10.5641 3.83429C10.1444 4.15967 9.7939 4.5655 9.533 5.02801C8.30317 4.91799 7.06932 5.19005 5.99983 5.80713C4.93033 6.4242 4.07727 7.35623 3.557 8.47601C3.03504 9.60509 2.8767 10.8684 3.10389 12.0914C3.33108 13.3144 3.93258 14.4366 4.82522 15.3029C5.71787 16.1691 6.85756 16.7368 8.08679 16.9272C9.31602 17.1177 10.5741 16.9215 11.687 16.366C12.7609 15.8256 13.6475 14.9748 14.2317 13.9241C14.8159 12.8734 15.0707 11.6713 14.963 10.474C15.5675 10.137 16.0738 9.64824 16.432 9.056C16.7888 8.46069 16.9845 7.78281 17 7.08896C17.0155 6.3951 16.8501 5.70916 16.5203 5.09854C16.1904 4.48792 15.7073 3.97364 15.1185 3.60623C14.5297 3.23882 13.8555 3.03096 13.162 3.00302ZM13.122 4.00302C13.5252 4.02591 13.9196 4.13001 14.2816 4.30911C14.6436 4.48821 14.9657 4.73861 15.2285 5.04526C15.4913 5.35191 15.6894 5.7085 15.811 6.09363C15.9326 6.47875 15.9751 6.88447 15.936 7.28644C15.8969 7.6884 15.777 8.07832 15.5835 8.4328C15.39 8.78727 15.1268 9.09898 14.8098 9.34924C14.4929 9.5995 14.1286 9.78311 13.7389 9.8891C13.3492 9.99508 12.9421 10.0212 12.542 9.966C12.4765 9.95443 12.4093 9.95606 12.3444 9.97079C12.2795 9.98552 12.2182 10.0131 12.164 10.0518C12.1099 10.0905 12.0641 10.1397 12.0292 10.1963C11.9943 10.253 11.9711 10.3161 11.9609 10.3819C11.9508 10.4476 11.9538 10.5148 11.9699 10.5793C11.986 10.6439 12.0148 10.7046 12.0547 10.7579C12.0946 10.8112 12.1447 10.856 12.2021 10.8897C12.2595 10.9233 12.323 10.9452 12.389 10.954C12.921 11.0334 13.4636 11.0042 13.984 10.868C14.0124 11.8173 13.769 12.7549 13.2825 13.5705C12.7961 14.3862 12.0867 15.0459 11.238 15.472C10.3109 15.9367 9.26206 16.1014 8.2371 15.9432C7.21215 15.785 6.26185 15.3117 5.518 14.589C4.7734 13.8671 4.27195 12.9313 4.08326 11.9116C3.89457 10.8918 4.02799 9.83854 4.46499 8.89801C4.87605 8.01431 5.53708 7.27045 6.36636 6.75842C7.19564 6.24639 8.15679 5.98862 9.13099 6.017C9.09099 6.173 9.054 6.33001 9.033 6.49301C9.01616 6.62456 9.05226 6.75741 9.13337 6.86233C9.21448 6.96726 9.33395 7.03568 9.4655 7.05252C9.59704 7.06936 9.72989 7.03326 9.83482 6.95215C9.93975 6.87104 10.0081 6.75154 10.025 6.61999C10.1195 5.87531 10.4901 5.19324 11.0634 4.70865C11.6367 4.22405 12.371 3.97224 13.121 4.00302H13.122Z" fill="currentColor"/>
</svg>
