<svg width="20" height="20" viewBox="0 0 20 20" fill="none" xmlns="http://www.w3.org/2000/svg">
<path d="M6 6.5V8H7V6.5H6ZM6 9V11H7V9H6ZM6 12V13.28L3.414 15.63L4.086 16.37L6.689 14.002L8 14V13H7V12H6ZM9.008 13V14H11.008V13H9.008ZM12 13V14H13.5V13H12Z" fill="currentColor"/>
<path d="M6.5 3C6.4343 2.99988 6.36921 3.01271 6.30847 3.03777C6.24773 3.06282 6.19252 3.0996 6.146 3.146L3.146 6.146C3.0996 6.19252 3.06283 6.24773 3.03778 6.30847C3.01273 6.36921 2.99988 6.4343 3 6.5V16.5C3 16.6326 3.05269 16.7598 3.14645 16.8535C3.24022 16.9473 3.36739 17 3.5 17H13.5C13.5657 17.0001 13.6308 16.9873 13.6915 16.9622C13.7523 16.9372 13.8075 16.9004 13.854 16.854L16.854 13.854C16.9004 13.8075 16.9372 13.7523 16.9622 13.6915C16.9873 13.6308 17.0001 13.5657 17 13.5V3.5C17 3.36739 16.9473 3.24022 16.8535 3.14645C16.7598 3.05269 16.6326 3 16.5 3H6.5ZM6.707 4H15.293L13.293 6H4.707L6.707 4ZM16 4.707V13.293L14 15.293V6.707L16 4.707ZM4 7H13V16H4V7Z" fill="currentColor"/>
</svg>
