<svg width="20" height="20" viewBox="0 0 20 20" fill="none" xmlns="http://www.w3.org/2000/svg">
<path d="M9.414 3C9.28139 3 9.15421 3.05268 9.06045 3.14645C8.96668 3.24021 8.914 3.36739 8.914 3.5C8.914 3.63261 8.96668 3.75979 9.06045 3.85355C9.15421 3.94732 9.28139 4 9.414 4H10.594C12.137 4 13.496 4.42 14.453 5.215C15.409 6.009 16 7.17 16 8.818C16 10.72 15.06 12.488 13.318 13.813C11.576 15.136 9.026 16 5.868 16H3.508C3.37539 16 3.24821 16.0527 3.15445 16.1464C3.06068 16.2402 3.008 16.3674 3.008 16.5C3.008 16.6326 3.06068 16.7598 3.15445 16.8536C3.24821 16.9473 3.37539 17 3.508 17H5.868C9.208 17 11.975 16.09 13.923 14.607C15.873 13.125 17 11.053 17 8.818C17 6.922 16.27 5.424 15.091 4.445C13.912 3.467 12.318 3 10.593 3H9.414Z" fill="currentColor"/>
</svg>
