<svg width="20" height="20" viewBox="0 0 20 20" fill="none" xmlns="http://www.w3.org/2000/svg">
<path d="M6.504 3.00502C6.39094 3.00536 6.28134 3.04399 6.19308 3.11464C6.10481 3.18529 6.0431 3.28376 6.018 3.394L3.006 16.382C2.98899 16.4553 2.98876 16.5315 3.0053 16.6049C3.02185 16.6784 3.05476 16.7471 3.10157 16.806C3.14839 16.8649 3.20791 16.9125 3.27568 16.9453C3.34346 16.978 3.41774 16.995 3.493 16.995H13.467C13.5799 16.9953 13.6895 16.9575 13.7781 16.8876C13.8667 16.8177 13.929 16.7198 13.955 16.61L16.993 3.62001C17.0104 3.54639 17.0109 3.4698 16.9944 3.39598C16.9779 3.32216 16.9448 3.25304 16.8978 3.19383C16.8507 3.13462 16.7908 3.08686 16.7226 3.05415C16.6544 3.02145 16.5796 3.00465 16.504 3.00502H6.504ZM6.903 4.00502H10.877L9.723 9.00502H5.744L6.903 4.00502ZM11.903 4.00502H15.875L14.705 9.00502H10.75L11.903 4.00502ZM5.512 10.005H9.492L8.11 15.995H4.123L5.512 10.005ZM10.518 10.005H14.471L13.071 15.995H9.137L10.518 10.005Z" fill="currentColor"/>
</svg>
