<svg width="20" height="20" viewBox="0 0 20 20" fill="none" xmlns="http://www.w3.org/2000/svg">
<path d="M9.494 2.994C9.3614 2.994 9.23423 3.04669 9.14046 3.14045C9.04669 3.23422 8.994 3.36139 8.994 3.494V7.494C8.994 7.62661 9.04669 7.75378 9.14046 7.84755C9.23423 7.94131 9.3614 7.994 9.494 7.994H10.994V8.494C10.994 8.62661 11.0467 8.75378 11.1405 8.84755C11.2342 8.94131 11.3614 8.994 11.494 8.994H12.994V10.494C12.994 10.6266 13.0467 10.7538 13.1405 10.8475C13.2342 10.9413 13.3614 10.994 13.494 10.994H16.494C16.6266 10.994 16.7538 10.9413 16.8475 10.8475C16.9413 10.7538 16.994 10.6266 16.994 10.494V3.494C16.994 3.36139 16.9413 3.23422 16.8475 3.14045C16.7538 3.04669 16.6266 2.994 16.494 2.994H9.494ZM9.994 3.994H15.994V9.994H13.994V8.494C13.994 8.36139 13.9413 8.23422 13.8475 8.14045C13.7538 8.04669 13.6266 7.994 13.494 7.994H11.994V7.494C11.994 7.36139 11.9413 7.23422 11.8475 7.14045C11.7538 7.04669 11.6266 6.994 11.494 6.994H9.994V3.994Z" fill="currentColor"/>
<path d="M5.50199 2.98798C5.41537 2.98614 5.32975 3.00687 5.25354 3.0481C5.17732 3.08932 5.11313 3.14964 5.06726 3.22315C5.02138 3.29665 4.99538 3.3808 4.99183 3.46738C4.98828 3.55395 5.00729 3.63997 5.04699 3.71698L6.04699 5.71698C6.07449 5.77859 6.11418 5.83401 6.16366 5.87988C6.21314 5.92576 6.27138 5.96115 6.3349 5.98392C6.39841 6.00668 6.46588 6.01633 6.53323 6.01233C6.60058 6.00833 6.66643 5.99075 6.7268 5.96063C6.78718 5.93051 6.84083 5.8885 6.88453 5.8371C6.92824 5.78569 6.96108 5.72597 6.98109 5.66153C7.0011 5.5971 7.00788 5.52928 7.00099 5.46216C6.9941 5.39504 6.97369 5.33002 6.94101 5.271L5.94101 3.271C5.90095 3.1878 5.83863 3.11731 5.76097 3.06735C5.6833 3.0174 5.59332 2.98992 5.501 2.98798H5.50199ZM3.47599 5.98999C3.36353 5.99238 3.25517 6.03263 3.16841 6.10422C3.08165 6.17581 3.02156 6.27456 2.99786 6.38452C2.97416 6.49448 2.98823 6.6092 3.03779 6.71018C3.08736 6.81115 3.16951 6.89247 3.27099 6.94098L5.27099 7.94098C5.33002 7.97367 5.39505 7.99409 5.46217 8.00098C5.52929 8.00787 5.59711 8.00109 5.66154 7.98108C5.72598 7.96107 5.78569 7.92823 5.83709 7.88452C5.8885 7.84082 5.93052 7.78715 5.96064 7.72678C5.99076 7.6664 6.00836 7.60056 6.01236 7.5332C6.01635 7.46585 6.00668 7.39842 5.98391 7.3349C5.96115 7.27139 5.92577 7.21311 5.87989 7.16364C5.83402 7.11416 5.77862 7.07449 5.71701 7.047L3.71701 6.047C3.64302 6.00825 3.56051 5.98865 3.477 5.98999H3.47599ZM14.476 11.99C14.3635 11.9924 14.2552 12.0326 14.1684 12.1042C14.0816 12.1758 14.0216 12.2746 13.9979 12.3845C13.9742 12.4945 13.9882 12.6092 14.0378 12.7102C14.0874 12.8112 14.1695 12.8925 14.271 12.941L16.271 13.941C16.33 13.9737 16.3951 13.9941 16.4622 14.001C16.5293 14.0079 16.5971 14.0011 16.6615 13.9811C16.726 13.9611 16.7857 13.9282 16.8371 13.8845C16.8885 13.8408 16.9305 13.7872 16.9606 13.7268C16.9908 13.6664 17.0084 13.6006 17.0124 13.5332C17.0164 13.4659 17.0067 13.3984 16.9839 13.3349C16.9611 13.2714 16.9258 13.2131 16.8799 13.1636C16.834 13.1142 16.7786 13.0745 16.717 13.047L14.717 12.047C14.643 12.0083 14.5605 11.9886 14.477 11.99H14.476ZM13.502 13.988C13.4154 13.9861 13.3298 14.0069 13.2535 14.0481C13.1773 14.0893 13.1131 14.1496 13.0673 14.2231C13.0214 14.2967 12.9954 14.3808 12.9918 14.4674C12.9883 14.554 13.0073 14.64 13.047 14.717L14.047 16.717C14.0745 16.7786 14.1142 16.834 14.1637 16.8799C14.2131 16.9258 14.2714 16.9612 14.3349 16.9839C14.3984 17.0067 14.4659 17.0163 14.5332 17.0123C14.6006 17.0083 14.6664 16.9908 14.7268 16.9606C14.7872 16.9305 14.8408 16.8885 14.8845 16.8371C14.9282 16.7857 14.9611 16.726 14.9811 16.6615C15.0011 16.5971 15.0079 16.5293 15.001 16.4622C14.9941 16.395 14.9737 16.33 14.941 16.271L13.941 14.271C13.9009 14.1878 13.8386 14.1173 13.761 14.0674C13.6833 14.0174 13.5933 13.9899 13.501 13.988H13.502Z" fill="currentColor"/>
<path d="M3.494 8.994C3.3614 8.994 3.23423 9.04669 3.14046 9.14045C3.04669 9.23422 2.994 9.36139 2.994 9.494V16.494C2.994 16.6266 3.04669 16.7538 3.14046 16.8475C3.23423 16.9413 3.3614 16.994 3.494 16.994H10.494C10.6266 16.994 10.7538 16.9413 10.8475 16.8475C10.9413 16.7538 10.994 16.6266 10.994 16.494L10.986 12.494C10.986 12.3614 10.9333 12.2342 10.8396 12.1405C10.7458 12.0467 10.6186 11.994 10.486 11.994H8.98601V10.494C8.98601 10.3614 8.93332 10.2342 8.83955 10.1405C8.74579 10.0467 8.61862 9.994 8.48601 9.994H6.99001L6.994 9.498C6.99453 9.432 6.98198 9.36656 6.95709 9.30543C6.9322 9.24431 6.89547 9.18871 6.84898 9.14186C6.8025 9.095 6.7472 9.05783 6.68628 9.03245C6.62535 9.00707 6.56 8.994 6.494 8.994H3.494ZM3.994 9.994H5.99001L5.98601 10.49C5.98548 10.556 5.99801 10.6214 6.0229 10.6826C6.04779 10.7437 6.08455 10.7993 6.13103 10.8461C6.17751 10.893 6.23281 10.9302 6.29373 10.9555C6.35466 10.9809 6.42001 10.994 6.48601 10.994H7.98601V12.494C7.98601 12.6266 8.03868 12.7538 8.13245 12.8475C8.22621 12.9413 8.3534 12.994 8.48601 12.994H9.98601L9.994 15.994H3.994V9.994Z" fill="currentColor"/>
</svg>
