<svg width="20" height="20" viewBox="0 0 20 20" fill="none" xmlns="http://www.w3.org/2000/svg">
<path d="M10.496 2.996C10.3634 2.996 10.2362 3.04869 10.1425 3.14245C10.0487 3.23622 9.996 3.36339 9.996 3.496L10.004 16.504C10.004 16.5697 10.0169 16.6347 10.0421 16.6953C10.0672 16.756 10.104 16.8111 10.1505 16.8576C10.1969 16.904 10.252 16.9408 10.3127 16.9659C10.3733 16.9911 10.4383 17.004 10.504 17.004H16.504C16.6366 17.004 16.7638 16.9513 16.8575 16.8576C16.9513 16.7638 17.004 16.6366 17.004 16.504V3.496C17.004 3.36339 16.9513 3.23622 16.8575 3.14245C16.7638 3.04869 16.6366 2.996 16.504 2.996H10.496ZM10.996 3.996H15.723L11.003 14.225L10.996 3.996ZM16.004 5.769V16.004H11.281L16.004 5.769Z" fill="currentColor"/>
<path d="M9.004 2.996V3.996H3.996L4.004 16.004L9.002 15.996L9.004 16.996L3.504 17.004C3.37139 17.004 3.24422 16.9513 3.15045 16.8575C3.05668 16.7638 3.004 16.6366 3.004 16.504L2.996 3.496C2.996 3.36339 3.04869 3.23622 3.14245 3.14245C3.23622 3.04869 3.36339 2.996 3.496 2.996H9.004Z" fill="currentColor"/>
</svg>
