<svg width="20" height="20" viewBox="0 0 20 20" fill="none" xmlns="http://www.w3.org/2000/svg">
<path d="M11.504 2.996C11.4383 2.99588 11.3732 3.00873 11.3125 3.03378C11.2517 3.05883 11.1965 3.09559 11.15 3.142L3.15 11.142C3.1036 11.1885 3.06682 11.2437 3.04177 11.3045C3.01672 11.3652 3.00389 11.4303 3.00401 11.496L2.99601 16.502C2.99575 16.5678 3.00848 16.6331 3.03349 16.694C3.0585 16.7549 3.09529 16.8102 3.14175 16.8568C3.1882 16.9035 3.24341 16.9405 3.30421 16.9658C3.365 16.991 3.43018 17.004 3.49601 17.004L16.504 16.996C16.6366 16.996 16.7638 16.9433 16.8576 16.8495C16.9513 16.7558 17.004 16.6286 17.004 16.496V3.496C17.004 3.36339 16.9513 3.23622 16.8576 3.14245C16.7638 3.04868 16.6366 2.996 16.504 2.996H11.504ZM11.711 3.996H16.004V15.996L3.99601 16.004L4.00401 11.704L11.711 3.996Z" fill="currentColor"/>
<path d="M8.504 2.996L3.49601 3.00399C3.3634 3.00399 3.23621 3.05668 3.14244 3.15045C3.04868 3.24422 2.99601 3.37139 2.99601 3.50399V8.50399C2.99601 8.6366 3.04868 8.76377 3.14244 8.85754C3.23621 8.95131 3.3634 9.00399 3.49601 9.00399C3.62861 9.00399 3.75578 8.95131 3.84955 8.85754C3.94332 8.76377 3.99601 8.6366 3.99601 8.50399V4.00201L8.504 3.996C8.63661 3.996 8.76378 3.94331 8.85755 3.84954C8.95132 3.75578 9.004 3.62861 9.004 3.496C9.004 3.36339 8.95132 3.23622 8.85755 3.14245C8.76378 3.04868 8.63661 2.996 8.504 2.996Z" fill="currentColor"/>
</svg>
