<svg width="20" height="20" viewBox="0 0 20 20" fill="none" xmlns="http://www.w3.org/2000/svg">
<path d="M3.504 3C3.37139 3 3.24421 3.05266 3.15045 3.14642C3.05668 3.24019 3.004 3.36739 3.004 3.5L2.996 14C2.996 15.517 4.216 17 5.981 17C7.746 17 8.996 15.525 8.996 14L9.004 3.5C9.004 3.36739 8.95132 3.24019 8.85755 3.14642C8.76379 3.05266 8.63661 3 8.504 3H3.504ZM4.004 4H8.004L7.996 14C7.996 14.975 7.184 16 5.981 16C4.777 16 3.996 14.983 3.996 14L4.004 4Z" fill="currentColor"/>
<path d="M14.496 11C14.3634 11 14.2362 11.0527 14.1424 11.1464C14.0487 11.2402 13.996 11.3674 13.996 11.5C13.996 11.6326 14.0487 11.7598 14.1424 11.8536C14.2362 11.9473 14.3634 12 14.496 12H16.004V16H9.746C9.61339 16 9.48621 16.0527 9.39245 16.1464C9.29868 16.2402 9.246 16.3674 9.246 16.5C9.246 16.6326 9.29868 16.7598 9.39245 16.8536C9.48621 16.9473 9.61339 17 9.746 17H16.504C16.6366 17 16.7638 16.9473 16.8576 16.8536C16.9513 16.7598 17.004 16.6326 17.004 16.5V11.5C17.004 11.3674 16.9513 11.2402 16.8576 11.1464C16.7638 11.0527 16.6366 11 16.504 11H14.496Z" fill="currentColor"/>
<path d="M12.496 4.00002C12.3661 4.00188 12.242 4.05424 12.15 4.14601L10.15 6.14601C10.1035 6.1925 10.0666 6.24769 10.0415 6.30843C10.0163 6.36917 10.0034 6.43427 10.0034 6.50002C10.0034 6.56576 10.0163 6.63087 10.0415 6.69161C10.0666 6.75235 10.1035 6.80753 10.15 6.85402C10.1965 6.90051 10.2517 6.93738 10.3124 6.96254C10.3732 6.9877 10.4383 7.00063 10.504 7.00063C10.5697 7.00063 10.6348 6.9877 10.6956 6.96254C10.7563 6.93738 10.8115 6.90051 10.858 6.85402L12.504 5.20699L14.797 7.50002L10.15 12.146C10.0561 12.2399 10.0034 12.3672 10.0034 12.5C10.0034 12.6328 10.0561 12.7601 10.15 12.854C10.2439 12.9479 10.3712 13.0006 10.504 13.0006C10.6368 13.0006 10.7641 12.9479 10.858 12.854L15.858 7.85402C15.9046 7.80758 15.9415 7.75241 15.9667 7.69167C15.9919 7.63092 16.0049 7.56578 16.0049 7.50002C16.0049 7.43425 15.9919 7.36911 15.9667 7.30837C15.9415 7.24762 15.9046 7.19246 15.858 7.14601L12.858 4.14601C12.8105 4.09865 12.754 4.06129 12.6918 4.03621C12.6296 4.01113 12.563 3.99883 12.496 4.00002Z" fill="currentColor"/>
<path d="M6.004 13C5.458 13 5.004 13.454 5.004 14C5.004 14.546 5.458 15 6.004 15C6.55 15 7.004 14.546 7.004 14C7.004 13.454 6.55 13 6.004 13Z" fill="currentColor"/>
</svg>
