<svg width="20" height="20" viewBox="0 0 20 20" fill="none" xmlns="http://www.w3.org/2000/svg">
<path d="M9.496 2.996C9.36339 2.996 9.23622 3.04869 9.14245 3.14245C9.04868 3.23622 8.996 3.36339 8.996 3.496V4.996H5.496C5.36339 4.996 5.23622 5.04869 5.14245 5.14245C5.04868 5.23622 4.996 5.36339 4.996 5.496V8.996H3.496C3.36339 8.996 3.23622 9.04869 3.14245 9.14245C3.04868 9.23622 2.996 9.36339 2.996 9.496V16.496C2.996 16.6286 3.04868 16.7558 3.14245 16.8495C3.23622 16.9433 3.36339 16.996 3.496 16.996C3.62861 16.996 3.75578 16.9433 3.84954 16.8495C3.94331 16.7558 3.996 16.6286 3.996 16.496V9.996H5.496C5.62861 9.996 5.75578 9.94331 5.84954 9.84955C5.94331 9.75578 5.996 9.62861 5.996 9.496V5.996H9.496C9.62861 5.996 9.75578 5.94331 9.84954 5.84955C9.94331 5.75578 9.996 5.62861 9.996 5.496V3.996H16.496C16.6286 3.996 16.7558 3.94331 16.8495 3.84955C16.9433 3.75578 16.996 3.62861 16.996 3.496C16.996 3.36339 16.9433 3.23622 16.8495 3.14245C16.7558 3.04869 16.6286 2.996 16.496 2.996H9.496Z" fill="currentColor"/>
<path d="M16.496 5.996C10.703 5.996 5.99599 10.703 5.99599 16.496C5.99599 16.6286 6.04868 16.7558 6.14245 16.8495C6.23622 16.9433 6.36339 16.996 6.49599 16.996C6.6286 16.996 6.75577 16.9433 6.84954 16.8495C6.94331 16.7558 6.99599 16.6286 6.99599 16.496C6.99599 11.243 11.243 6.996 16.496 6.996C16.6286 6.996 16.7558 6.94331 16.8495 6.84955C16.9433 6.75578 16.996 6.62861 16.996 6.496C16.996 6.36339 16.9433 6.23622 16.8495 6.14245C16.7558 6.04869 16.6286 5.996 16.496 5.996Z" fill="currentColor"/>
</svg>
