<svg width="20" height="20" viewBox="0 0 20 20" fill="none" xmlns="http://www.w3.org/2000/svg">
<path d="M12.5 4.996C12.3674 4.996 12.2402 5.04868 12.1465 5.14245C12.0527 5.23622 12 5.36339 12 5.496V11.996H5.5C5.3674 11.996 5.24023 12.0487 5.14646 12.1425C5.05269 12.2362 5 12.3634 5 12.496L4.99201 16.502C4.99174 16.568 5.00455 16.6334 5.02968 16.6944C5.05482 16.7554 5.09178 16.8109 5.13845 16.8576C5.18511 16.9042 5.24055 16.9412 5.30158 16.9663C5.3626 16.9915 5.42801 17.0043 5.49401 17.004L16.5 16.996C16.6326 16.996 16.7598 16.9433 16.8535 16.8495C16.9473 16.7558 17 16.6286 17 16.496V5.496C17 5.36339 16.9473 5.23622 16.8535 5.14245C16.7598 5.04868 16.6326 4.996 16.5 4.996H12.5ZM13 5.996H16V15.996L5.99201 16.004L5.99801 12.996H12.5C12.6326 12.996 12.7598 12.9433 12.8535 12.8495C12.9473 12.7558 13 12.6286 13 12.496V5.996Z" fill="currentColor"/>
<path d="M9.5 2.996C9.63261 2.996 9.75978 3.04868 9.85355 3.14245C9.94731 3.23622 10 3.36339 10 3.496V9.496C10 9.62861 9.94731 9.75578 9.85355 9.84954C9.75978 9.94331 9.63261 9.996 9.5 9.996H3.5C3.36739 9.996 3.24022 9.94331 3.14645 9.84954C3.05269 9.75578 3 9.62861 3 9.496V3.496C3 3.36339 3.05269 3.23622 3.14645 3.14245C3.24022 3.04868 3.36739 2.996 3.5 2.996H9.5ZM9 3.996H4V8.996H9V3.996Z" fill="currentColor"/>
</svg>
