<svg width="20" height="20" viewBox="0 0 20 20" fill="none" xmlns="http://www.w3.org/2000/svg">
<path d="M10.454 2.94599C6.31398 2.94599 2.94604 6.31398 2.94604 10.454C2.94604 10.5866 2.99864 10.7138 3.09241 10.8076C3.18618 10.9013 3.31344 10.954 3.44604 10.954C3.57865 10.954 3.70579 10.9013 3.79956 10.8076C3.89333 10.7138 3.94604 10.5866 3.94604 10.454C3.94499 9.59904 4.11252 8.75228 4.43921 7.96222C4.76589 7.17216 5.24532 6.45433 5.84985 5.84979C6.45439 5.24526 7.17222 4.76596 7.96228 4.43927C8.75234 4.11259 9.59904 3.94493 10.454 3.94599C10.5866 3.94599 10.7137 3.89333 10.8075 3.79956C10.9013 3.70579 10.954 3.57859 10.954 3.44599C10.954 3.31338 10.9013 3.18624 10.8075 3.09247C10.7137 2.9987 10.5866 2.94599 10.454 2.94599Z" fill="currentColor"/>
<path d="M13.454 5.84601C9.25998 5.84601 5.84595 9.25998 5.84595 13.454C5.84595 13.6134 5.90926 13.7663 6.02197 13.879C6.13468 13.9917 6.28763 14.055 6.44702 14.055C6.60642 14.055 6.75924 13.9917 6.87195 13.879C6.98466 13.7663 7.04797 13.6134 7.04797 13.454C7.04679 12.6124 7.21169 11.7788 7.5332 11.0011C7.85472 10.2234 8.32654 9.51672 8.92163 8.92163C9.51672 8.32654 10.2234 7.85472 11.0011 7.53321C11.7788 7.21169 12.6124 7.04679 13.454 7.04798C13.6134 7.04798 13.7663 6.98466 13.879 6.87195C13.9917 6.75924 14.0551 6.60642 14.0551 6.44702C14.0551 6.28763 13.9917 6.13474 13.879 6.02204C13.7663 5.90933 13.6134 5.84601 13.454 5.84601ZM16.454 8.84601C12.26 8.84601 8.84595 12.26 8.84595 16.454C8.84595 16.6134 8.90926 16.7663 9.02197 16.879C9.13468 16.9917 9.28763 17.055 9.44702 17.055C9.60642 17.055 9.75924 16.9917 9.87195 16.879C9.98466 16.7663 10.048 16.6134 10.048 16.454C10.0468 15.6124 10.2117 14.7788 10.5332 14.0011C10.8547 13.2234 11.3265 12.5167 11.9216 11.9216C12.5167 11.3265 13.2234 10.8547 14.0011 10.5332C14.7788 10.2117 15.6124 10.0468 16.454 10.048C16.6134 10.048 16.7663 9.98466 16.879 9.87195C16.9917 9.75924 17.0551 9.60642 17.0551 9.44702C17.0551 9.28763 16.9917 9.13475 16.879 9.02204C16.7663 8.90933 16.6134 8.84601 16.454 8.84601Z" fill="currentColor"/>
</svg>
