<svg width="20" height="20" viewBox="0 0 20 20" fill="none" xmlns="http://www.w3.org/2000/svg">
<path d="M11.004 9.00201C11.0019 8.47135 10.79 7.96303 10.4146 7.58798C10.0392 7.21293 9.53066 7.00158 9 7C7.9 7 6.996 7.90201 6.996 9.00201C6.99811 9.53267 7.21 10.041 7.58542 10.416C7.96084 10.7911 8.46934 11.0024 9 11.004C9.53066 11.0024 10.0392 10.7911 10.4146 10.416C10.79 10.041 11.0019 9.53267 11.004 9.00201ZM17.004 8.5C17.004 7.677 16.327 7 15.504 7C14.681 7 14.004 7.677 14.004 8.5C14.004 9.323 14.681 10 15.504 10C16.327 10 17.004 9.323 17.004 8.5ZM10.004 15.5C10.004 14.677 9.327 14 8.504 14C7.681 14 7.004 14.677 7.004 15.5C7.004 16.323 7.681 17 8.504 17C9.327 17 10.004 16.323 10.004 15.5ZM15.996 14.502C15.996 13.68 15.322 13 14.5 13C13.678 13 13.004 13.68 13.004 14.502C13.004 15.324 13.678 16.004 14.5 16.004C15.322 16.004 15.996 15.324 15.996 14.502Z" fill="currentColor"/>
<path d="M14.504 8H10.504V9H14.504V8ZM13.858 13.146L10.348 9.64999L9.64301 10.36L13.15 13.854L13.858 13.146ZM9.004 10.5H8.004V14.5H9.004V10.5Z" fill="currentColor"/>
<path d="M13.004 4.5C13.004 3.677 12.327 3 11.504 3C10.681 3 10.004 3.677 10.004 4.5C10.004 5.323 10.681 6 11.504 6C12.327 6 13.004 5.323 13.004 4.5ZM12.004 4.5C12.004 4.782 11.786 5 11.504 5C11.222 5 11.004 4.782 11.004 4.5C11.0031 4.43408 11.0153 4.36864 11.0401 4.30756C11.0649 4.24647 11.1017 4.19097 11.1483 4.14435C11.195 4.09773 11.2505 4.06093 11.3116 4.03613C11.3726 4.01134 11.4381 3.99906 11.504 4C11.786 4 12.004 4.218 12.004 4.5ZM7.004 5.00201C7.00189 4.47135 6.79 3.96303 6.41458 3.58798C6.03916 3.21293 5.53066 3.00158 5 3C3.9 3 2.996 3.90201 2.996 5.00201C2.99811 5.53267 3.21 6.04097 3.58542 6.41602C3.96084 6.79106 4.46934 7.00242 5 7.004C5.53066 7.00242 6.03916 6.79106 6.41458 6.41602C6.79 6.04097 7.00189 5.53267 7.004 5.00201ZM6.004 5.00201C6.00493 5.13403 5.97959 5.2649 5.92944 5.38702C5.87929 5.50915 5.80533 5.62006 5.71188 5.71332C5.61844 5.80658 5.50738 5.8803 5.38516 5.93021C5.26294 5.98011 5.13201 6.0052 5 6.004C4.86799 6.0052 4.73706 5.98011 4.61484 5.93021C4.49262 5.8803 4.38156 5.80658 4.28812 5.71332C4.19467 5.62006 4.12071 5.50915 4.07056 5.38702C4.02041 5.2649 3.99507 5.13403 3.996 5.00201C3.99507 4.87 4.02041 4.73909 4.07056 4.61697C4.12071 4.49485 4.19467 4.38394 4.28812 4.29068C4.38156 4.19742 4.49262 4.1237 4.61484 4.07379C4.73706 4.02389 4.86799 3.9988 5 4C5.13201 3.9988 5.26294 4.02389 5.38516 4.07379C5.50738 4.1237 5.61844 4.19742 5.71188 4.29068C5.80533 4.38394 5.87929 4.49485 5.92944 4.61697C5.97959 4.73909 6.00493 4.87 6.004 5.00201ZM6.004 11.5C6.004 10.677 5.327 10 4.504 10C3.681 10 3.004 10.677 3.004 11.5C3.004 12.323 3.681 13 4.504 13C5.327 13 6.004 12.323 6.004 11.5ZM5.004 11.5C5.004 11.782 4.786 12 4.504 12C4.222 12 4.004 11.782 4.004 11.5C4.00305 11.4341 4.01534 11.3686 4.04013 11.3076C4.06492 11.2465 4.10173 11.191 4.14835 11.1443C4.19496 11.0977 4.25047 11.0609 4.31155 11.0361C4.37264 11.0113 4.43808 10.9991 4.504 11C4.786 11 5.004 11.218 5.004 11.5Z" fill="currentColor"/>
<path d="M10.504 4H6.504V5H10.504V4ZM5.004 6.5H4.004V10.5H5.004V6.5Z" fill="currentColor"/>
</svg>
