<svg width="20" height="20" viewBox="0 0 20 20" fill="none" xmlns="http://www.w3.org/2000/svg">
<path d="M16.5 3L7.49201 3.008C7.42567 3.00799 7.35999 3.02119 7.2988 3.04681C7.23761 3.07244 7.18213 3.10998 7.13559 3.15726C7.08906 3.20454 7.0524 3.26062 7.02774 3.3222C7.00309 3.38379 6.99095 3.44966 6.99201 3.51599L7.03202 6.008L8.03202 5.992L8 4.008L16 4L15.994 12.012L13.994 12.032L14.004 13.032L16.498 13.008C16.6296 13.0064 16.7552 12.953 16.8477 12.8594C16.9402 12.7658 16.992 12.6396 16.992 12.508L17 3.5C17 3.36739 16.9473 3.24022 16.8535 3.14645C16.7598 3.05269 16.6326 3 16.5 3Z" fill="currentColor"/>
<path d="M3 7V9H5V7H3ZM5 9V11H7V9H5ZM7 9H9V7H7V9ZM9 9V11H11V9H9ZM11 9H13V7H11V9ZM11 11V13H13V11H11ZM11 13H9V15H11V13ZM11 15V17H13V15H11ZM9 15H7V17H9V15ZM7 15V13H5V15H7ZM5 15H3V17H5V15ZM5 13V11H3V13H5ZM7 13H9V11H7V13Z" fill="currentColor"/>
</svg>
