<svg width="20" height="20" viewBox="0 0 20 20" fill="none" xmlns="http://www.w3.org/2000/svg">
<path d="M6.504 3.5C6.41044 3.49935 6.31857 3.52496 6.23884 3.57393C6.15912 3.6229 6.09473 3.69326 6.053 3.777C5.383 5.118 4.333 5.5 3.5 5.5C3.36739 5.5 3.24021 5.55268 3.14645 5.64645C3.05268 5.74021 3 5.86739 3 6C3 6.13261 3.05268 6.25978 3.14645 6.35355C3.24021 6.44732 3.36739 6.5 3.5 6.5C4.503 6.5 5.652 5.9 6.5 4.717C7.324 5.867 8.431 6.461 9.414 6.494C9.41467 6.494 9.41533 6.494 9.416 6.494C9.44378 6.49836 9.47188 6.50037 9.5 6.5C9.53352 6.50069 9.56702 6.49801 9.6 6.492C10.579 6.454 11.68 5.861 12.5 4.717C13.348 5.899 14.497 6.5 15.5 6.5C15.6326 6.5 15.7598 6.44732 15.8536 6.35355C15.9473 6.25978 16 6.13261 16 6C16 5.86739 15.9473 5.74021 15.8536 5.64645C15.7598 5.55268 15.6326 5.5 15.5 5.5C14.667 5.5 13.618 5.118 12.947 3.777C12.9059 3.69447 12.8427 3.62492 12.7646 3.57603C12.6864 3.52715 12.5962 3.50083 12.504 3.5C12.4104 3.49935 12.3186 3.52496 12.2388 3.57393C12.1591 3.6229 12.0947 3.69326 12.053 3.777C11.383 5.118 10.333 5.5 9.5 5.5C8.667 5.5 7.618 5.118 6.947 3.777C6.90588 3.69447 6.84274 3.62492 6.76456 3.57603C6.68638 3.52715 6.5962 3.50083 6.504 3.5ZM7.504 8.5C7.41044 8.49935 7.31857 8.52496 7.23884 8.57393C7.15912 8.6229 7.09473 8.69326 7.053 8.777C6.383 10.118 5.333 10.5 4.5 10.5C4.36739 10.5 4.24021 10.5527 4.14645 10.6464C4.05268 10.7402 4 10.8674 4 11C4 11.1326 4.05268 11.2598 4.14645 11.3536C4.24021 11.4473 4.36739 11.5 4.5 11.5C5.503 11.5 6.652 10.9 7.5 9.717C8.324 10.867 9.431 11.461 10.414 11.494C10.4147 11.494 10.4153 11.494 10.416 11.494C10.4438 11.4984 10.4719 11.5004 10.5 11.5C10.5288 11.5005 10.5576 11.4985 10.586 11.494C10.5907 11.4934 10.5953 11.4927 10.6 11.492C11.579 11.454 12.68 10.861 13.5 9.717C14.348 10.899 15.497 11.5 16.5 11.5C16.6326 11.5 16.7598 11.4473 16.8536 11.3536C16.9473 11.2598 17 11.1326 17 11C17 10.8674 16.9473 10.7402 16.8536 10.6464C16.7598 10.5527 16.6326 10.5 16.5 10.5C15.667 10.5 14.618 10.118 13.947 8.777C13.9059 8.69447 13.8427 8.62492 13.7646 8.57603C13.6864 8.52715 13.5962 8.50083 13.504 8.5C13.4104 8.49935 13.3186 8.52496 13.2388 8.57393C13.1591 8.6229 13.0947 8.69326 13.053 8.777C12.383 10.118 11.333 10.5 10.5 10.5C9.667 10.5 8.618 10.118 7.947 8.777C7.90588 8.69447 7.84274 8.62492 7.76456 8.57603C7.68638 8.52715 7.5962 8.50083 7.504 8.5ZM6.504 13.5C6.41044 13.4993 6.31857 13.525 6.23884 13.5739C6.15912 13.6229 6.09473 13.6933 6.053 13.777C5.383 15.118 4.333 15.5 3.5 15.5C3.36739 15.5 3.24021 15.5527 3.14645 15.6464C3.05268 15.7402 3 15.8674 3 16C3 16.1326 3.05268 16.2598 3.14645 16.3536C3.24021 16.4473 3.36739 16.5 3.5 16.5C4.503 16.5 5.652 15.9 6.5 14.717C7.324 15.867 8.431 16.461 9.414 16.494C9.41467 16.494 9.41533 16.494 9.416 16.494C9.44378 16.4984 9.47188 16.5004 9.5 16.5C9.53352 16.5007 9.56702 16.498 9.6 16.492C10.579 16.454 11.68 15.861 12.5 14.717C13.348 15.899 14.497 16.5 15.5 16.5C15.6326 16.5 15.7598 16.4473 15.8536 16.3536C15.9473 16.2598 16 16.1326 16 16C16 15.8674 15.9473 15.7402 15.8536 15.6464C15.7598 15.5527 15.6326 15.5 15.5 15.5C14.667 15.5 13.618 15.118 12.947 13.777C12.9059 13.6945 12.8427 13.6249 12.7646 13.576C12.6864 13.5271 12.5962 13.5008 12.504 13.5C12.4104 13.4993 12.3186 13.525 12.2388 13.5739C12.1591 13.6229 12.0947 13.6933 12.053 13.777C11.383 15.118 10.333 15.5 9.5 15.5C8.667 15.5 7.618 15.118 6.947 13.777C6.90588 13.6945 6.84274 13.6249 6.76456 13.576C6.68638 13.5271 6.5962 13.5008 6.504 13.5Z" fill="currentColor"/>
</svg>
