<svg width="20" height="20" viewBox="0 0 20 20" fill="none" xmlns="http://www.w3.org/2000/svg">
<path d="M3.488 5.004C3.35539 5.004 3.22821 5.05669 3.13444 5.15046C3.04067 5.24422 2.988 5.37139 2.988 5.504L2.996 16.512C2.996 16.6446 3.04868 16.7718 3.14245 16.8655C3.23622 16.9593 3.36339 17.012 3.496 17.012H14.496C14.6286 17.012 14.7558 16.9593 14.8495 16.8655C14.9433 16.7718 14.996 16.6446 14.996 16.512V14.004H13.996V16.012H3.996L3.988 6.004H5.996V5.004H3.488Z" fill="currentColor"/>
<path d="M14.536 3.004C13.92 3.077 13.353 3.35199 12.789 3.65799C11.66 4.27099 10.529 5.004 9.496 5.004H8.496C8.36339 5.004 8.23622 5.05669 8.14246 5.15046C8.04869 5.24422 7.996 5.37139 7.996 5.504C7.996 5.63661 8.04869 5.76378 8.14246 5.85755C8.23622 5.95132 8.36339 6.004 8.496 6.004H9.496C10.963 6.004 12.206 5.11199 13.266 4.53699C13.795 4.24999 14.275 4.04101 14.652 3.99701C15.03 3.95201 15.298 4.013 15.642 4.357C15.987 4.702 16.048 4.96999 16.004 5.34699C15.959 5.72499 15.75 6.20501 15.463 6.73401C14.888 7.79401 13.996 9.037 13.996 10.504V11.504C13.996 11.6366 14.0487 11.7638 14.1425 11.8575C14.2362 11.9513 14.3634 12.004 14.496 12.004C14.6286 12.004 14.7558 11.9513 14.8495 11.8575C14.9433 11.7638 14.996 11.6366 14.996 11.504V10.504C14.996 9.471 15.729 8.34 16.342 7.211C16.648 6.647 16.923 6.08 16.996 5.465C17.0344 5.13321 16.9962 4.79701 16.8842 4.48233C16.7722 4.16766 16.5894 3.88291 16.35 3.65C15.82 3.12 15.15 2.931 14.535 3.004H14.536Z" fill="currentColor"/>
</svg>
