<svg width="20" height="20" viewBox="0 0 20 20" fill="none" xmlns="http://www.w3.org/2000/svg">
<path d="M3.996 2.996V4.996H2.996V8.996H3.996V10.996H5.996V2.996H3.996ZM13.996 2.996V10.996H15.996V8.996H16.996V4.996H15.996V2.996H13.996ZM6.996 5.996V7.996H12.996V5.996H6.996Z" fill="currentColor"/>
<path d="M8.488 11.004C8.35539 11.004 8.22822 11.0567 8.13446 11.1505C8.04069 11.2442 7.988 11.3714 7.988 11.504V14.512C7.988 14.6446 8.04069 14.7718 8.13446 14.8655C8.22822 14.9593 8.35539 15.012 8.488 15.012H11.496C11.6286 15.012 11.7558 14.9593 11.8495 14.8655C11.9433 14.7718 11.996 14.6446 11.996 14.512V11.504C11.996 11.3714 11.9433 11.2442 11.8495 11.1505C11.7558 11.0567 11.6286 11.004 11.496 11.004H8.488ZM8.988 12.004H10.996V14.012H8.988V12.004ZM13.496 12.988C13.3634 12.988 13.2362 13.0407 13.1425 13.1344C13.0487 13.2282 12.996 13.3554 12.996 13.488V16.496C12.996 16.6286 13.0487 16.7558 13.1425 16.8495C13.2362 16.9433 13.3634 16.996 13.496 16.996H16.504C16.6366 16.996 16.7638 16.9433 16.8575 16.8495C16.9513 16.7558 17.004 16.6286 17.004 16.496V13.488C17.004 13.3554 16.9513 13.2282 16.8575 13.1344C16.7638 13.0407 16.6366 12.988 16.504 12.988H13.496ZM3.496 13.004C3.36339 13.004 3.23622 13.0567 3.14245 13.1505C3.04868 13.2442 2.996 13.3714 2.996 13.504V16.504C2.996 16.6366 3.04868 16.7638 3.14245 16.8575C3.23622 16.9513 3.36339 17.004 3.496 17.004H6.496C6.62861 17.004 6.75578 16.9513 6.84954 16.8575C6.94331 16.7638 6.996 16.6366 6.996 16.504V13.504C6.996 13.3714 6.94331 13.2442 6.84954 13.1505C6.75578 13.0567 6.62861 13.004 6.496 13.004H3.496ZM13.996 13.988H16.004V15.996H13.996V13.988ZM3.996 14.004H5.996V16.004H3.996V14.004Z" fill="currentColor"/>
</svg>
