<svg width="20" height="20" viewBox="0 0 20 20" fill="none" xmlns="http://www.w3.org/2000/svg">
<path d="M5 4C4.33761 4.00211 3.70294 4.26617 3.23456 4.73456C2.76617 5.20294 2.50211 5.83761 2.5 6.5C2.5 7.68 3.19 8.36 3.633 8.84C4.225 9.481 4.837 10.057 5.293 10.5L4.396 11.396C3.484 12.309 3.24001 13.721 3.83401 14.75C4.1098 15.2259 4.53462 15.5978 5.04288 15.8082C5.55113 16.0186 6.11451 16.0558 6.646 15.914C7.1773 15.7712 7.64679 15.4574 7.9819 15.021C8.31701 14.5847 8.49908 14.0502 8.5 13.5C8.5 13.3674 8.44731 13.2402 8.35355 13.1465C8.25978 13.0527 8.13261 13 8 13C7.86739 13 7.74022 13.0527 7.64645 13.1465C7.55269 13.2402 7.5 13.3674 7.5 13.5C7.5 14.181 7.04701 14.773 6.38901 14.95C6.06984 15.0363 5.73108 15.0143 5.42569 14.8877C5.1203 14.7611 4.86546 14.5368 4.70099 14.25C4.38999 13.711 4.516 12.691 5.104 12.104L6.354 10.854C6.40057 10.8076 6.4375 10.7524 6.46271 10.6916C6.48791 10.6309 6.50089 10.5658 6.50089 10.5C6.50089 10.4342 6.48791 10.3691 6.46271 10.3084C6.4375 10.2476 6.40057 10.1924 6.354 10.146C5.922 9.715 5.046 8.896 4.367 8.16C3.887 7.64 3.5 7.32 3.5 6.5C3.5 5.666 4.166 5 5 5C6.167 5 7.029 6.236 7.646 6.854C7.73988 6.94789 7.86722 7.00064 8 7.00064C8.13278 7.00064 8.26012 6.94789 8.354 6.854C8.44789 6.76012 8.50064 6.63278 8.50064 6.5C8.50064 6.36722 8.44789 6.23988 8.354 6.146C7.971 5.764 6.834 4 5 4Z" fill="currentColor"/>
<path d="M15 4C13.167 4 12.029 5.764 11.646 6.146C11.5521 6.23988 11.4994 6.36722 11.4994 6.5C11.4994 6.63278 11.5521 6.76012 11.646 6.854C11.7399 6.94789 11.8672 7.00064 12 7.00064C12.1328 7.00064 12.2601 6.94789 12.354 6.854C12.971 6.236 13.834 5 15 5C15.834 5 16.5 5.666 16.5 6.5C16.5 7.32 16.113 7.64 15.633 8.16C14.954 8.895 14.078 9.715 13.646 10.146C13.5994 10.1924 13.5625 10.2476 13.5373 10.3084C13.5121 10.3691 13.4991 10.4342 13.4991 10.5C13.4991 10.5658 13.5121 10.6309 13.5373 10.6916C13.5625 10.7524 13.5994 10.8076 13.646 10.854L14.896 12.104C15.484 12.691 15.61 13.711 15.299 14.25C14.959 14.84 14.269 15.126 13.611 14.95C13.2917 14.865 13.0095 14.6766 12.8085 14.4142C12.6075 14.1519 12.499 13.8305 12.5 13.5C12.5 13.3674 12.4473 13.2402 12.3535 13.1465C12.2598 13.0527 12.1326 13 12 13C11.8674 13 11.7402 13.0527 11.6465 13.1465C11.5527 13.2402 11.5 13.3674 11.5 13.5C11.5 14.63 12.263 15.622 13.354 15.914C13.8855 16.0558 14.4489 16.0186 14.9571 15.8082C15.4654 15.5978 15.8902 15.2259 16.166 14.75C16.76 13.721 16.516 12.309 15.604 11.396L14.707 10.5C15.163 10.057 15.775 9.481 16.367 8.84C16.81 8.36 17.5 7.68 17.5 6.5C17.5 5.125 16.375 4 15 4ZM10.5 8V6H9.5V8H10.5ZM10.5 5V3H9.5V5H10.5ZM10.5 17V15H9.5V17H10.5ZM10.5 14V12H9.5V14H10.5ZM10.5 11V9H9.5V11H10.5Z" fill="currentColor"/>
</svg>
