<svg width="20" height="20" viewBox="0 0 20 20" fill="none" xmlns="http://www.w3.org/2000/svg">
<path d="M11.263 16.504C11.2609 16.6363 11.2065 16.7623 11.1116 16.8545C11.0168 16.9467 10.8893 16.9976 10.757 16.996L3.49498 17.004C3.42899 17.0043 3.3636 16.9915 3.30257 16.9663C3.24155 16.9412 3.18609 16.9042 3.13942 16.8576C3.09276 16.8109 3.05579 16.7554 3.03066 16.6944C3.00552 16.6334 2.99274 16.568 2.993 16.502L3.00701 9.246C3.00701 9.11339 3.05966 8.98622 3.15343 8.89245C3.2472 8.79868 3.3744 8.746 3.50701 8.746C3.63962 8.746 3.76679 8.79868 3.86055 8.89245C3.95432 8.98622 4.00701 9.11339 4.00701 9.246L3.993 16.004L10.755 15.996C10.822 15.9949 10.8886 16.0073 10.9507 16.0325C11.0128 16.0576 11.0692 16.095 11.1166 16.1424C11.164 16.1898 11.2014 16.2462 11.2265 16.3083C11.2517 16.3705 11.2641 16.437 11.263 16.504Z" fill="currentColor"/>
<path d="M7.049 2.996L3.049 6.996H13L13.006 16.953L16.86 13.1L17.006 12.953L17 2.996H7.049ZM7.463 3.996H15.433L13.433 5.996H5.463L7.463 3.996ZM16 4.56199L16.006 12.539L14.006 14.539L14 6.56199L16 4.56199Z" fill="currentColor"/>
</svg>
