<svg width="20" height="20" viewBox="0 0 20 20" fill="none" xmlns="http://www.w3.org/2000/svg">
<path d="M6.496 5.996L16.504 6.004C16.6366 6.004 16.7638 6.05668 16.8575 6.15045C16.9513 6.24422 17.004 6.37139 17.004 6.504V16.504C17.004 16.6366 16.9513 16.7638 16.8575 16.8575C16.7638 16.9513 16.6366 17.004 16.504 17.004H6.50399C6.37139 17.004 6.24422 16.9513 6.15045 16.8575C6.05668 16.7638 6.00399 16.6366 6.00399 16.504L5.996 6.496C5.996 6.36339 6.04868 6.23622 6.14245 6.14245C6.23622 6.04869 6.36339 5.996 6.496 5.996ZM6.996 6.996L7.00399 16.004H16.004V7.00201L6.996 6.996Z" fill="currentColor"/>
<path d="M16.496 2.996C16.6286 2.996 16.7558 3.04869 16.8495 3.14245C16.9433 3.23622 16.996 3.36339 16.996 3.496C16.996 3.62861 16.9433 3.75578 16.8495 3.84955C16.7558 3.94331 16.6286 3.996 16.496 3.996H6.496C6.36339 3.996 6.23622 3.94331 6.14245 3.84955C6.04868 3.75578 5.996 3.62861 5.996 3.496C5.996 3.36339 6.04868 3.23622 6.14245 3.14245C6.23622 3.04869 6.36339 2.996 6.496 2.996H16.496ZM3.50399 5.988C3.56966 5.98905 3.63446 6.00302 3.69473 6.02911C3.75499 6.05521 3.80953 6.0929 3.85522 6.14007C3.90091 6.18725 3.93687 6.24298 3.96103 6.30404C3.98518 6.36511 3.99706 6.43034 3.996 6.496L4.00399 16.502C4.00413 16.5677 3.99134 16.6327 3.96634 16.6934C3.94133 16.7541 3.90461 16.8093 3.85827 16.8558C3.81194 16.9024 3.75687 16.9393 3.69625 16.9646C3.63564 16.9898 3.57066 17.0029 3.505 17.003C3.43934 17.0031 3.37431 16.9903 3.31359 16.9653C3.25288 16.9403 3.19767 16.9036 3.15115 16.8573C3.10463 16.8109 3.06769 16.7559 3.04245 16.6953C3.0172 16.6347 3.00413 16.5697 3.00399 16.504L2.996 6.496C2.99492 6.42899 3.00732 6.36244 3.03247 6.30032C3.05761 6.2382 3.095 6.18176 3.14239 6.13437C3.18978 6.08698 3.24619 6.04962 3.30832 6.02447C3.37044 5.99933 3.43698 5.98692 3.50399 5.988Z" fill="currentColor"/>
</svg>
