<svg width="20" height="20" viewBox="0 0 20 20" fill="none" xmlns="http://www.w3.org/2000/svg">
<path d="M16.492 2.97601C16.4263 2.97705 16.3615 2.99102 16.3013 3.01712C16.241 3.04321 16.1865 3.08092 16.1408 3.12809C16.0951 3.17527 16.0591 3.23098 16.035 3.29205C16.0108 3.35312 15.9989 3.41834 16 3.484C16 4.762 15.173 5.864 13.334 6.925C11.671 7.885 9.051 8.11901 7.034 7.98501C6.054 7.92101 5.245 7.68001 4.721 7.37501C4.201 7.07201 4.00501 6.752 4.00101 6.49C4.00501 6.228 4.201 5.90601 4.721 5.60301C5.245 5.29801 6.05501 5.05901 7.03301 4.99301C8.77401 4.87901 10.936 5.01101 12.277 5.68101C12.336 5.7137 12.4011 5.7341 12.4682 5.74099C12.5353 5.74788 12.6031 5.74111 12.6675 5.7211C12.732 5.70108 12.7917 5.66824 12.8431 5.62454C12.8945 5.58084 12.9365 5.52718 12.9666 5.46681C12.9968 5.40643 13.0144 5.34059 13.0184 5.27323C13.0224 5.20588 13.0127 5.13842 12.9899 5.0749C12.9672 5.01139 12.9318 4.95314 12.8859 4.90367C12.84 4.85419 12.7846 4.81449 12.723 4.787C11.063 3.957 8.801 3.874 6.967 3.996C5.866 4.069 4.924 4.329 4.219 4.74C3.581 5.11 3.12201 5.65001 3.03501 6.29301C3.01097 6.35378 2.99908 6.41866 3 6.484L3.002 6.49L3 6.496C2.99921 6.561 3.0111 6.62554 3.03501 6.686C3.03567 6.68767 3.03633 6.68934 3.03701 6.691C3.12501 7.333 3.582 7.87101 4.219 8.24101C4.925 8.65101 5.866 8.91001 6.967 8.98201C9.108 9.12401 11.853 8.935 13.834 7.792C15.829 6.639 17 5.206 17 3.484C17.0011 3.41699 16.9887 3.35045 16.9635 3.28833C16.9384 3.2262 16.901 3.16978 16.8536 3.12239C16.8062 3.075 16.7498 3.03762 16.6877 3.01248C16.6256 2.98733 16.559 2.97493 16.492 2.97601ZM16.217 8.22801C16.1387 8.23266 16.0627 8.25564 15.9949 8.29512C15.9272 8.33459 15.8697 8.38944 15.8271 8.45524C15.7844 8.52104 15.7579 8.59594 15.7495 8.6739C15.7412 8.75185 15.7513 8.83067 15.779 8.904C15.901 9.239 16 9.565 16 9.984C16 11.817 15.173 12.864 13.334 13.925C11.671 14.885 9.051 15.119 7.034 14.985C6.054 14.921 5.245 14.68 4.721 14.375C4.201 14.072 4.00501 13.752 4.00101 13.49C4.00501 13.228 4.201 12.906 4.721 12.603C5.245 12.298 6.05501 12.059 7.03301 11.993C8.77401 11.879 10.936 12.011 12.277 12.681C12.336 12.7137 12.4011 12.7341 12.4682 12.741C12.5353 12.7479 12.6031 12.7411 12.6675 12.7211C12.732 12.7011 12.7917 12.6682 12.8431 12.6245C12.8945 12.5808 12.9365 12.5272 12.9666 12.4668C12.9968 12.4064 13.0144 12.3406 13.0184 12.2732C13.0224 12.2059 13.0127 12.1384 12.9899 12.0749C12.9672 12.0114 12.9318 11.9531 12.8859 11.9037C12.84 11.8542 12.7846 11.8145 12.723 11.787C11.063 10.957 8.801 10.874 6.967 10.996C5.866 11.069 4.924 11.329 4.219 11.74C3.581 12.11 3.12201 12.65 3.03501 13.293C3.01097 13.3538 2.99908 13.4187 3 13.484L3.002 13.49L3 13.496C2.99918 13.5628 3.01177 13.6291 3.03701 13.691C3.12501 14.332 3.582 14.87 4.219 15.241C4.924 15.651 5.866 15.91 6.967 15.982C9.108 16.124 11.853 15.935 13.834 14.791C15.802 13.655 16.964 12.188 16.994 10.068C16.9984 10.0402 17.0004 10.0121 17 9.984C17.0008 9.94125 16.9961 9.89857 16.986 9.85701C16.9656 9.41482 16.8762 8.97855 16.721 8.56401C16.6853 8.46057 16.6167 8.37169 16.5257 8.311C16.4346 8.25031 16.3262 8.22115 16.217 8.22801ZM16.26 15.228C16.1691 15.2256 16.0793 15.248 16.0002 15.2928C15.9212 15.3376 15.8558 15.4031 15.8111 15.4823C15.7665 15.5615 15.7443 15.6514 15.7469 15.7422C15.7496 15.8331 15.7769 15.9215 15.826 15.998C15.826 15.998 16 16.354 16 16.518C16 16.6506 16.0527 16.7778 16.1465 16.8716C16.2402 16.9653 16.3674 17.018 16.5 17.018C16.6326 17.018 16.7598 16.9653 16.8536 16.8716C16.9473 16.7778 17 16.6506 17 16.518C17 15.918 16.674 15.47 16.674 15.47C16.6308 15.3982 16.5703 15.3384 16.4979 15.2961C16.4256 15.2539 16.3438 15.2304 16.26 15.228Z" fill="currentColor"/>
</svg>
