<svg width="20" height="20" viewBox="0 0 20 20" fill="none" xmlns="http://www.w3.org/2000/svg">
<path d="M4.5 3C4.36739 3 4.24022 3.05269 4.14645 3.14645C4.05269 3.24022 4 3.36739 4 3.5V11.5C4 11.6326 4.05269 11.7598 4.14645 11.8535C4.24022 11.9473 4.36739 12 4.5 12H5C5.10106 11.9999 5.19972 11.9692 5.28299 11.912L15.783 4.66199C15.8499 4.61607 15.9046 4.55457 15.9424 4.48279C15.9802 4.41101 16 4.33113 16 4.25V3.5C16 3.36739 15.9473 3.24022 15.8535 3.14645C15.7598 3.05269 15.6326 3 15.5 3H4.5ZM5 4H14.982L5 10.893V4.25V4Z" fill="currentColor"/>
<path d="M9.25 11C9.11739 11 8.99022 11.0527 8.89645 11.1465C8.80269 11.2402 8.75 11.3674 8.75 11.5C8.75 11.6326 8.80269 11.7598 8.89645 11.8535C8.99022 11.9473 9.11739 12 9.25 12H15V12.156L5 15.965V14.25C5 14.1174 4.94731 13.9902 4.85355 13.8965C4.75978 13.8027 4.63261 13.75 4.5 13.75C4.36739 13.75 4.24022 13.8027 4.14645 13.8965C4.05269 13.9902 4 14.1174 4 14.25V16.5C4 16.6326 4.05269 16.7598 4.14645 16.8535C4.24022 16.9473 4.36739 17 4.5 17H5C5.06085 16.9999 5.12118 16.9887 5.17801 16.967L15.678 12.967C15.7727 12.9309 15.8541 12.867 15.9116 12.7836C15.9691 12.7002 16 12.6013 16 12.5V11.5C16 11.3674 15.9473 11.2402 15.8535 11.1465C15.7598 11.0527 15.6326 11 15.5 11H9.25Z" fill="currentColor"/>
</svg>
