<svg width="20" height="20" viewBox="0 0 20 20" fill="none" xmlns="http://www.w3.org/2000/svg">
<path d="M3.5 3C3.36739 3 3.24022 3.05269 3.14645 3.14645C3.05269 3.24022 3 3.36739 3 3.5V16.5C3 16.6326 3.05269 16.7598 3.14645 16.8535C3.24022 16.9473 3.36739 17 3.5 17H16.5C16.6326 17 16.7598 16.9473 16.8535 16.8535C16.9473 16.7598 17 16.6326 17 16.5V3.5C17 3.36739 16.9473 3.24022 16.8535 3.14645C16.7598 3.05269 16.6326 3 16.5 3H3.5ZM4 4H16V16H4V4Z" fill="currentColor"/>
<path d="M10.492 3.99201C10.4263 3.99305 10.3615 4.00702 10.3013 4.03312C10.241 4.05921 10.1865 4.0969 10.1408 4.14408C10.0951 4.19125 10.0591 4.24698 10.035 4.30805C10.0108 4.36912 9.99894 4.43434 10 4.5V10H4.5C4.36739 10 4.24022 10.0527 4.14645 10.1465C4.05269 10.2402 4 10.3674 4 10.5C4 10.6326 4.05269 10.7598 4.14645 10.8535C4.24022 10.9473 4.36739 11 4.5 11H10V13H4.5C4.36739 13 4.24022 13.0527 4.14645 13.1465C4.05269 13.2402 4 13.3674 4 13.5C4 13.6326 4.05269 13.7598 4.14645 13.8535C4.24022 13.9473 4.36739 14 4.5 14H10V15.5C10 15.6326 10.0527 15.7598 10.1465 15.8535C10.2402 15.9473 10.3674 16 10.5 16C10.6326 16 10.7598 15.9473 10.8535 15.8535C10.9473 15.7598 11 15.6326 11 15.5V14H13V15.5C13 15.6326 13.0527 15.7598 13.1465 15.8535C13.2402 15.9473 13.3674 16 13.5 16C13.6326 16 13.7598 15.9473 13.8535 15.8535C13.9473 15.7598 14 15.6326 14 15.5V14H15.5C15.6326 14 15.7598 13.9473 15.8535 13.8535C15.9473 13.7598 16 13.6326 16 13.5C16 13.3674 15.9473 13.2402 15.8535 13.1465C15.7598 13.0527 15.6326 13 15.5 13H14V11H15.5C15.6326 11 15.7598 10.9473 15.8535 10.8535C15.9473 10.7598 16 10.6326 16 10.5C16 10.3674 15.9473 10.2402 15.8535 10.1465C15.7598 10.0527 15.6326 10 15.5 10H14V4.5C14 4.3674 13.9473 4.24023 13.8535 4.14646C13.7598 4.05269 13.6326 4 13.5 4C13.3674 4 13.2402 4.05269 13.1465 4.14646C13.0527 4.24023 13 4.3674 13 4.5V10H11V4.5C11.0011 4.43299 10.9887 4.36645 10.9635 4.30433C10.9384 4.2422 10.901 4.18576 10.8536 4.13837C10.8062 4.09098 10.7498 4.05362 10.6877 4.02848C10.6256 4.00333 10.559 3.99093 10.492 3.99201ZM11 11H13V13H11V11Z" fill="currentColor"/>
</svg>
