<svg width="20" height="20" viewBox="0 0 20 20" fill="none" xmlns="http://www.w3.org/2000/svg">
<path d="M12.867 3.01001C10.155 2.86001 7.734 3.85101 5.797 5.79101C3.177 8.41201 2.292 12.697 3.55 15.695C3.804 16.3 4.215 16.76 4.767 16.9C5.319 17.04 5.904 16.808 6.361 16.352L16.361 6.35202C16.3644 6.34873 16.3677 6.34539 16.371 6.34201C16.826 5.85901 17.111 5.30402 16.981 4.72802C16.853 4.15302 16.34 3.76402 15.667 3.54702C14.7607 3.24787 13.8196 3.06702 12.867 3.009V3.01001ZM12.807 3.99402C13.6754 4.05561 14.5328 4.22561 15.359 4.50003C15.854 4.66003 15.983 4.84002 16.007 4.94702C16.031 5.05502 15.979 5.29902 15.644 5.65402L5.65401 15.644C5.36001 15.938 5.164 15.97 5.013 15.932C4.862 15.893 4.648 15.729 4.472 15.309C3.418 12.798 4.20001 8.80301 6.50301 6.49801C8.27301 4.72601 10.371 3.84102 12.808 3.99402H12.807ZM7.492 6.99801C7.36228 7.00224 7.23927 7.05675 7.149 7.15002C5.763 8.53602 5.005 10.821 5.008 12.498C5.008 12.6306 5.06068 12.7578 5.15445 12.8516C5.24822 12.9453 5.37539 12.998 5.508 12.998C5.64061 12.998 5.76779 12.9453 5.86156 12.8516C5.95532 12.7578 6.008 12.6306 6.008 12.498C6.006 11.155 6.752 8.962 7.856 7.858C7.92892 7.78784 7.97883 7.69721 7.99914 7.59808C8.01946 7.49895 8.00922 7.39601 7.96978 7.30282C7.93034 7.20964 7.86356 7.13062 7.77825 7.0762C7.69294 7.02178 7.59313 6.99451 7.492 6.99801ZM14.516 9.99801C14.3834 9.99801 14.2562 10.0507 14.1625 10.1445C14.0687 10.2382 14.016 10.3654 14.016 10.498C14.016 10.6306 14.0687 10.7578 14.1625 10.8516C14.2562 10.9453 14.3834 10.998 14.516 10.998C15.195 10.998 15.53 11.137 15.715 11.332C15.9 11.527 16.015 11.879 16.015 12.498C16.015 12.6306 16.0677 12.7578 16.1615 12.8516C16.2552 12.9453 16.3824 12.998 16.515 12.998C16.6476 12.998 16.7748 12.9453 16.8686 12.8516C16.9623 12.7578 17.015 12.6306 17.015 12.498C17.015 11.756 16.88 11.109 16.44 10.644C16 10.18 15.337 9.99801 14.516 9.99801ZM12.5 11.99C12.4343 11.9911 12.3695 12.005 12.3093 12.0311C12.249 12.0572 12.1945 12.0949 12.1488 12.1421C12.1031 12.1893 12.0671 12.245 12.043 12.3061C12.0188 12.3671 12.0069 12.4324 12.008 12.498C12.008 13.359 12.32 14.035 12.813 14.445C13.305 14.855 13.925 14.998 14.508 14.998C14.925 14.998 15.305 15.106 15.563 15.32C15.82 15.535 16.008 15.86 16.008 16.498C16.008 16.6306 16.0607 16.7578 16.1544 16.8516C16.2482 16.9453 16.3754 16.998 16.508 16.998C16.6406 16.998 16.7678 16.9453 16.8616 16.8516C16.9553 16.7578 17.008 16.6306 17.008 16.498C17.008 15.637 16.696 14.961 16.203 14.551C15.711 14.141 15.091 13.998 14.508 13.998C14.091 13.998 13.711 13.89 13.453 13.676C13.196 13.461 13.008 13.136 13.008 12.498C13.0091 12.431 12.9967 12.3645 12.9715 12.3023C12.9464 12.2402 12.909 12.1838 12.8616 12.1364C12.8142 12.089 12.7578 12.0516 12.6957 12.0265C12.6336 12.0013 12.567 11.9889 12.5 11.99ZM10.5 13.99C10.4343 13.9911 10.3695 14.005 10.3093 14.0311C10.249 14.0572 10.1945 14.0949 10.1488 14.1421C10.1031 14.1893 10.0671 14.245 10.043 14.3061C10.0188 14.3671 10.0069 14.4324 10.008 14.498C10.008 15.319 10.19 15.984 10.654 16.424C11.119 16.864 11.766 16.998 12.508 16.998H13.508C13.6406 16.998 13.7678 16.9453 13.8616 16.8516C13.9553 16.7578 14.008 16.6306 14.008 16.498C14.008 16.3654 13.9553 16.2382 13.8616 16.1445C13.7678 16.0507 13.6406 15.998 13.508 15.998H12.508C11.888 15.998 11.538 15.882 11.342 15.698C11.147 15.512 11.008 15.177 11.008 14.498C11.0091 14.431 10.9967 14.3645 10.9715 14.3023C10.9464 14.2402 10.909 14.1838 10.8616 14.1364C10.8142 14.089 10.7578 14.0516 10.6957 14.0265C10.6336 14.0013 10.567 13.9889 10.5 13.99Z" fill="currentColor"/>
</svg>
