<svg width="20" height="20" viewBox="0 0 20 20" fill="none" xmlns="http://www.w3.org/2000/svg">
<path d="M13.992 3.448C13.9198 3.448 13.8483 3.46223 13.7815 3.48987C13.7148 3.51751 13.6542 3.55802 13.6031 3.60909C13.552 3.66016 13.5115 3.7208 13.4839 3.78752C13.4562 3.85425 13.442 3.92577 13.442 3.998V4.774L12.992 5.224L12.381 4.614C12.3301 4.56257 12.2695 4.5217 12.2027 4.49373C12.136 4.46576 12.0644 4.45124 11.992 4.451H10.221L9.381 3.614C9.32992 3.5629 9.26928 3.52236 9.20254 3.49471C9.13579 3.46705 9.06425 3.45282 8.992 3.45282C8.91975 3.45282 8.84821 3.46705 8.78146 3.49471C8.71472 3.52236 8.65408 3.5629 8.603 3.614L7.603 4.614C7.49974 4.71677 7.44148 4.85632 7.441 5.002V6.774L6.764 7.451H5.992C5.91946 7.45111 5.84765 7.46556 5.78072 7.49354C5.71378 7.52151 5.65304 7.56245 5.602 7.614L4.764 8.455H3.992C3.91969 8.455 3.84809 8.46926 3.78129 8.49696C3.7145 8.52466 3.65382 8.56527 3.60274 8.61644C3.55165 8.66762 3.51116 8.72837 3.48358 8.79522C3.456 8.86206 3.44187 8.93369 3.442 9.006V11.01C3.442 11.1559 3.49995 11.2958 3.60309 11.3989C3.70624 11.5021 3.84613 11.56 3.992 11.56H4.766L5.441 12.235V12.78L4.766 13.461L3.998 13.453C3.92527 13.4521 3.85308 13.4656 3.78561 13.4927C3.71813 13.5199 3.65672 13.5602 3.60491 13.6112C3.55311 13.6623 3.51195 13.7231 3.48381 13.7902C3.45568 13.8573 3.44113 13.9293 3.441 14.002V16.002C3.441 16.0744 3.45525 16.146 3.48294 16.2129C3.51063 16.2797 3.55122 16.3405 3.60238 16.3916C3.65355 16.4428 3.71429 16.4834 3.78114 16.5111C3.84799 16.5387 3.91964 16.553 3.992 16.553C4.06436 16.553 4.13601 16.5387 4.20286 16.5111C4.26971 16.4834 4.33045 16.4428 4.38162 16.3916C4.43278 16.3405 4.47337 16.2797 4.50106 16.2129C4.52875 16.146 4.543 16.0744 4.543 16.002V14.559L4.986 14.563C5.05965 14.564 5.13274 14.5501 5.20094 14.5223C5.26913 14.4945 5.33105 14.4532 5.383 14.401L6.383 13.393C6.48528 13.2901 6.54279 13.1511 6.543 13.006V12.006C6.54302 11.9335 6.52872 11.8618 6.50092 11.7948C6.47312 11.7279 6.43237 11.6671 6.381 11.616L5.381 10.621C5.32999 10.5698 5.26938 10.5291 5.20263 10.5013C5.13588 10.4735 5.06431 10.4591 4.992 10.459H4.542V9.557H4.992C5.06431 9.55689 5.13588 9.54253 5.20263 9.51473C5.26938 9.48693 5.32999 9.44625 5.381 9.395L6.221 8.551H6.992C7.13774 8.55131 7.27765 8.49377 7.381 8.391L8.381 7.391C8.43225 7.33999 8.47293 7.27938 8.50073 7.21263C8.52853 7.14588 8.54289 7.07431 8.543 7.002V5.23L8.993 4.78L9.603 5.392C9.65429 5.44301 9.71514 5.48339 9.78206 5.51085C9.84898 5.5383 9.92067 5.55229 9.993 5.552H11.763L12.603 6.392C12.6541 6.4431 12.7147 6.48364 12.7815 6.51129C12.8482 6.53895 12.9198 6.55318 12.992 6.55318C13.0642 6.55318 13.1358 6.53895 13.2025 6.51129C13.2693 6.48364 13.3299 6.4431 13.381 6.392L14.381 5.392C14.4322 5.34099 14.4729 5.28038 14.5007 5.21363C14.5285 5.14688 14.5429 5.07531 14.543 5.003V4.548H15.993C16.1389 4.548 16.2788 4.49005 16.3819 4.38691C16.4851 4.28376 16.543 4.14387 16.543 3.998C16.543 3.85213 16.4851 3.71224 16.3819 3.60909C16.2788 3.50595 16.1389 3.448 15.993 3.448H13.992Z" fill="currentColor"/>
</svg>
