<svg width="20" height="20" viewBox="0 0 20 20" fill="none" xmlns="http://www.w3.org/2000/svg">
<path d="M13.5 3C12.5937 3.0026 11.7238 3.35662 11.0733 3.98758C10.4227 4.61854 10.0423 5.47724 10.012 6.383C9.99985 6.43269 9.99581 6.48402 10 6.535V10H6.5C6.46201 9.99994 6.42412 10.004 6.38699 10.012C5.48062 10.0415 4.62108 10.4216 3.98932 11.0722C3.35756 11.7228 3.00289 12.5931 3 13.5C3.0026 14.4063 3.35662 15.2762 3.98758 15.9267C4.61854 16.5773 5.47724 16.9577 6.383 16.988C6.42135 16.9968 6.46065 17.0009 6.5 17H13.5C14.4283 17 15.3185 16.6312 15.9749 15.9749C16.6313 15.3185 17 14.4283 17 13.5V6.5C17.0007 6.46066 16.9967 6.42137 16.988 6.383C16.9575 5.47732 16.5769 4.61878 15.9265 3.98787C15.276 3.35696 14.4062 3.00285 13.5 3ZM13.5 4C13.8316 3.99889 14.16 4.06395 14.4662 4.19139C14.7723 4.31883 15.0499 4.50609 15.2827 4.74217C15.5155 4.97826 15.6989 5.25843 15.8221 5.56628C15.9452 5.87414 16.0057 6.20347 16 6.535V13.5C16 14.163 15.7366 14.7989 15.2678 15.2678C14.7989 15.7366 14.163 16 13.5 16H6.5C6.1714 16.0011 5.84584 15.9371 5.54205 15.8118C5.23826 15.6866 4.96225 15.5025 4.72989 15.2701C4.49753 15.0378 4.3134 14.7618 4.18814 14.458C4.06288 14.1542 3.99894 13.8286 4 13.5C4 12.113 5.113 11 6.5 11H10.25C10.3157 11.0001 10.3808 10.9873 10.4415 10.9622C10.5023 10.9372 10.5575 10.9004 10.604 10.854L10.854 10.604C10.9004 10.5575 10.9372 10.5023 10.9622 10.4415C10.9873 10.3808 11.0001 10.3157 11 10.25V6.5C11 5.113 12.113 4 13.5 4Z" fill="currentColor"/>
<path d="M13.508 5.99201C13.5737 5.99305 13.6385 6.00702 13.6987 6.03312C13.759 6.05921 13.8135 6.0969 13.8592 6.14408C13.9049 6.19125 13.9409 6.24698 13.965 6.30805C13.9892 6.36912 14.0011 6.43434 14 6.5V13.42C14.0116 13.4915 14.0074 13.5647 13.9879 13.6344C13.9684 13.7042 13.934 13.7689 13.887 13.824C13.8818 13.8308 13.8765 13.8375 13.871 13.844C13.8655 13.8498 13.8598 13.8555 13.854 13.861C13.8527 13.8617 13.8514 13.8623 13.85 13.863C13.8392 13.8742 13.8278 13.8849 13.816 13.895C13.8147 13.8957 13.8134 13.8963 13.812 13.897C13.7573 13.9409 13.6939 13.9727 13.626 13.9904C13.5581 14.0082 13.4872 14.0114 13.418 14H6.50001C6.3674 14 6.24023 13.9473 6.14646 13.8535C6.0527 13.7598 6.00001 13.6326 6.00001 13.5C6.00001 13.3674 6.0527 13.2402 6.14646 13.1465C6.24023 13.0527 6.3674 13 6.50001 13H13V6.5C12.9989 6.43299 13.0113 6.36645 13.0365 6.30433C13.0616 6.2422 13.099 6.18576 13.1464 6.13837C13.1938 6.09098 13.2502 6.05362 13.3123 6.02848C13.3744 6.00333 13.441 5.99093 13.508 5.99201Z" fill="currentColor"/>
</svg>
