<svg width="20" height="20" viewBox="0 0 20 20" fill="none" xmlns="http://www.w3.org/2000/svg">
<path d="M15.442 5.958C15.4072 5.96012 15.3725 5.96347 15.338 5.96801C12.9395 6.22912 10.7018 7.3003 8.99424 9.00475C7.2867 10.7092 6.21148 12.945 5.94603 15.343C5.92382 15.5391 5.94053 15.7377 5.99522 15.9274C6.04991 16.117 6.14152 16.294 6.26475 16.4482C6.38798 16.6024 6.54043 16.7308 6.71336 16.8259C6.88629 16.9211 7.07624 16.9812 7.27244 17.0027C7.46865 17.0243 7.66719 17.007 7.85667 16.9517C8.04615 16.8964 8.22289 16.8043 8.37669 16.6805C8.53049 16.5568 8.6583 16.4039 8.75291 16.2307C8.84752 16.0575 8.90701 15.8673 8.92796 15.671C9.11373 13.9508 9.88279 12.3459 11.1072 11.1233C12.3315 9.90079 13.9376 9.13419 15.6581 8.95098C15.8546 8.9368 16.0464 8.88408 16.2225 8.79577C16.3987 8.70746 16.5556 8.58532 16.6846 8.43633C16.8135 8.28734 16.9119 8.11441 16.974 7.92742C17.0361 7.74043 17.0607 7.54301 17.0465 7.34649C17.0323 7.14996 16.9795 6.95817 16.8912 6.78203C16.8029 6.6059 16.6808 6.44887 16.5318 6.31994C16.3829 6.191 16.2099 6.09267 16.0229 6.03057C15.8359 5.96847 15.6385 5.94382 15.442 5.958Z" fill="currentColor"/>
<path d="M16.471 2.99298C9.02105 2.99298 2.97105 9.04298 2.97105 16.493C2.97105 16.6256 3.02364 16.7528 3.11741 16.8466C3.21118 16.9403 3.33844 16.993 3.47105 16.993C3.60365 16.993 3.73079 16.9403 3.82456 16.8466C3.91833 16.7528 3.97105 16.6256 3.97105 16.493C3.97105 9.58298 9.56105 3.99298 16.471 3.99298C16.6037 3.99298 16.7308 3.94033 16.8246 3.84656C16.9183 3.75279 16.971 3.62559 16.971 3.49298C16.971 3.36038 16.9183 3.23324 16.8246 3.13947C16.7308 3.0457 16.6037 2.99298 16.471 2.99298Z" fill="currentColor"/>
</svg>
