<svg width="20" height="20" viewBox="0 0 20 20" fill="none" xmlns="http://www.w3.org/2000/svg">
<path d="M16.498 3.00501C16.6306 3.00501 16.7578 3.05767 16.8516 3.15144C16.9454 3.24521 16.998 3.37241 16.998 3.50501V13.497C16.998 13.6296 16.9454 13.7568 16.8516 13.8506C16.7578 13.9443 16.6306 13.997 16.498 13.997H6.502C6.36939 13.997 6.24225 13.9443 6.14848 13.8506C6.05472 13.7568 6.002 13.6296 6.002 13.497V3.50501C6.002 3.37241 6.05472 3.24521 6.14848 3.15144C6.24225 3.05767 6.36939 3.00501 6.502 3.00501H16.498ZM15.998 4.00501H7.002V12.997H15.998V4.00501Z" fill="currentColor"/>
<path d="M8.002 7.003L12.498 7.00501C12.6306 7.00501 12.7578 7.05767 12.8516 7.15144C12.9454 7.24521 12.998 7.37241 12.998 7.50501V12.003H11.998V8.00501L8.002 8.003V7.003ZM5.002 7.003V8.003L4.002 8.00501V15.995H11.998V15.003H12.998V16.495C12.998 16.6276 12.9454 16.7548 12.8516 16.8486C12.7578 16.9423 12.6306 16.995 12.498 16.995H3.502C3.36939 16.995 3.24225 16.9423 3.14848 16.8486C3.05472 16.7548 3.002 16.6276 3.002 16.495V7.50501C3.002 7.37241 3.05472 7.24521 3.14848 7.15144C3.24225 7.05767 3.36939 7.00501 3.502 7.00501L5.002 7.003Z" fill="currentColor"/>
</svg>
