<svg width="20" height="20" viewBox="0 0 20 20" fill="none" xmlns="http://www.w3.org/2000/svg">
<path d="M10.004 2.996C6.156 2.996 3.02602 6.11601 3.00602 9.95901L3.004 9.996C3.00387 10.0124 3.00455 10.0287 3.00602 10.045C3.00602 10.0457 3.00602 10.0463 3.00602 10.047L2.99601 16.502C2.99574 16.568 3.00853 16.6334 3.03367 16.6944C3.0588 16.7554 3.09576 16.8109 3.14243 16.8576C3.1891 16.9042 3.24455 16.9412 3.30558 16.9663C3.3666 16.9915 3.43199 17.0043 3.49799 17.004L9.96799 16.996C9.97999 16.9964 9.99201 16.9964 10.004 16.996L10.054 16.994C10.057 16.994 10.06 16.994 10.063 16.994C13.896 16.962 17.004 13.836 17.004 9.996C17.004 6.136 13.864 2.996 10.004 2.996ZM10.004 3.996C13.324 3.996 16.004 6.676 16.004 9.996C16.004 13.316 13.324 15.996 10.004 15.996L3.99601 16.004L4.00602 9.996C4.00616 9.989 4.00616 9.982 4.00602 9.975C4.00893 8.38688 4.6424 6.8649 5.76716 5.74371C6.89191 4.62252 8.41588 3.99387 10.004 3.996Z" fill="currentColor"/>
<path d="M5.504 8.996C5.37139 8.996 5.24425 9.04868 5.15048 9.14245C5.05672 9.23622 5.004 9.36339 5.004 9.496C5.004 9.62861 5.05672 9.75578 5.15048 9.84954C5.24425 9.94331 5.37139 9.996 5.504 9.996H10.004V14.496C10.004 14.6286 10.0567 14.7558 10.1505 14.8495C10.2443 14.9433 10.3714 14.996 10.504 14.996C10.6366 14.996 10.7637 14.9433 10.8575 14.8495C10.9513 14.7558 11.004 14.6286 11.004 14.496V9.496C11.004 9.36339 10.9513 9.23622 10.8575 9.14245C10.7637 9.04868 10.6366 8.996 10.504 8.996H5.504Z" fill="currentColor"/>
</svg>
