<svg width="20" height="20" viewBox="0 0 20 20" fill="none" xmlns="http://www.w3.org/2000/svg">
<path d="M14 6C8.7 6 4.5 10.704 4.5 15.5V16.5C4.5 16.6326 4.55266 16.7598 4.64642 16.8535C4.74019 16.9473 4.86739 17 5 17H8C8.13261 17 8.25981 16.9473 8.35358 16.8535C8.44734 16.7598 8.5 16.6326 8.5 16.5V15.5C8.5 14.45 9.18198 13.022 10.238 11.906C11.295 10.791 12.694 10 14 10H15C15.1326 10 15.2598 9.94731 15.3536 9.85355C15.4473 9.75978 15.5 9.63261 15.5 9.5V6.5C15.5 6.36739 15.4473 6.24022 15.3536 6.14645C15.2598 6.05269 15.1326 6 15 6H14ZM14 7H14.5V9H14C12.306 9 10.705 9.95999 9.51202 11.219C8.31802 12.479 7.5 14.05 7.5 15.5V16H5.5V15.5C5.5 11.296 9.3 7 14 7Z" fill="currentColor"/>
<path d="M5 3C4.86739 3 4.74019 3.05269 4.64642 3.14645C4.55266 3.24022 4.5 3.36739 4.5 3.5V10.11C4.79524 9.59512 5.12955 9.10371 5.5 8.64001V4H7.5V6.71899C7.82082 6.47445 8.15464 6.24746 8.5 6.039V3.5C8.5 3.36739 8.44734 3.24022 8.35358 3.14645C8.25981 3.05269 8.13261 3 8 3H5Z" fill="currentColor"/>
</svg>
