<svg width="20" height="20" viewBox="0 0 20 20" fill="none" xmlns="http://www.w3.org/2000/svg">
<path d="M3.5 7C3.36739 7 3.24022 7.05269 3.14645 7.14645C3.05269 7.24022 3 7.36739 3 7.5V9.5C3 9.63261 3.05269 9.75978 3.14645 9.85355C3.24022 9.94731 3.36739 10 3.5 10H4.215L7 14.64V16.5C7 16.6326 7.05269 16.7598 7.14645 16.8535C7.24022 16.9473 7.36739 17 7.5 17H9.5C9.63261 17 9.75978 16.9473 9.85355 16.8535C9.94731 16.7598 10 16.6326 10 16.5V14.64L12.785 10H13.5C13.6326 10 13.7598 9.94731 13.8535 9.85355C13.9473 9.75978 14 9.63261 14 9.5V7.5C14 7.36739 13.9473 7.24022 13.8535 7.14645C13.7598 7.05269 13.6326 7 13.5 7H11.5C11.3674 7 11.2402 7.05269 11.1465 7.14645C11.0527 7.24022 11 7.36739 11 7.5V8H6V7.5C6 7.36739 5.94731 7.24022 5.85355 7.14645C5.75978 7.05269 5.63261 7 5.5 7H3.5ZM4 8H5V9H4V8ZM12 8H13V9H12V8ZM6 9H11V9.5C11 9.63261 11.0527 9.75978 11.1465 9.85355C11.2402 9.94731 11.3674 10 11.5 10H11.615L9.215 14H7.785L5.38501 10H5.5C5.63261 10 5.75978 9.94731 5.85355 9.85355C5.94731 9.75978 6 9.63261 6 9.5V9ZM8 15H9V16H8V15Z" fill="currentColor"/>
<path d="M7.5 3C7.36739 3 7.24022 3.05269 7.14645 3.14645C7.05269 3.24022 7 3.36739 7 3.5V7H8V4H16V14H12.5C11.824 13.99 11.824 15.01 12.5 15H16.5C16.6326 15 16.7598 14.9473 16.8535 14.8535C16.9473 14.7598 17 14.6326 17 14.5V3.5C17 3.36739 16.9473 3.24022 16.8535 3.14645C16.7598 3.05269 16.6326 3 16.5 3H7.5Z" fill="currentColor"/>
</svg>
