<svg width="20" height="20" viewBox="0 0 20 20" fill="none" xmlns="http://www.w3.org/2000/svg">
<path d="M6.502 6.996L3.49601 7.004C3.3634 7.004 3.23621 7.05668 3.14244 7.15045C3.04868 7.24422 2.99601 7.37139 2.99601 7.504V16.504C2.99601 16.6366 3.04868 16.7638 3.14244 16.8575C3.23621 16.9513 3.3634 17.004 3.49601 17.004H6.49601C6.62861 17.004 6.75578 16.9513 6.84955 16.8575C6.94332 16.7638 6.99601 16.6366 6.99601 16.504L7.004 7.496C7.004 7.43017 6.991 7.36499 6.96575 7.3042C6.9405 7.24341 6.90349 7.18821 6.85685 7.14175C6.8102 7.0953 6.75485 7.05849 6.69396 7.03348C6.63306 7.00847 6.56783 6.99574 6.502 6.996ZM6.004 7.99802L5.99601 16.004H3.99601V8.00201L6.004 7.99802Z" fill="currentColor"/>
<path d="M16.502 2.996L13.496 3.004C13.3634 3.004 13.2362 3.05668 13.1424 3.15045C13.0487 3.24422 12.996 3.37139 12.996 3.504V12.504C12.996 12.6366 13.0487 12.7638 13.1424 12.8575C13.2362 12.9513 13.3634 13.004 13.496 13.004H16.496C16.6286 13.004 16.7558 12.9513 16.8496 12.8575C16.9433 12.7638 16.996 12.6366 16.996 12.504L17.004 3.496C17.004 3.43017 16.991 3.36499 16.9657 3.3042C16.9405 3.24341 16.9035 3.18821 16.8568 3.14175C16.8102 3.0953 16.7549 3.05849 16.694 3.03348C16.6331 3.00847 16.5678 2.99574 16.502 2.996ZM16.004 3.99802L15.996 12.004H13.996V4.00201L16.004 3.99802ZM11.502 4.996L8.49601 5.004C8.3634 5.004 8.23621 5.05668 8.14244 5.15045C8.04868 5.24422 7.99601 5.37139 7.99601 5.504V14.504C7.99601 14.6366 8.04868 14.7638 8.14244 14.8575C8.23621 14.9513 8.3634 15.004 8.49601 15.004H11.496C11.6286 15.004 11.7558 14.9513 11.8496 14.8575C11.9433 14.7638 11.996 14.6366 11.996 14.504L12.004 5.496C12.004 5.43017 11.991 5.36499 11.9657 5.3042C11.9405 5.24341 11.9035 5.18821 11.8568 5.14175C11.8102 5.0953 11.7549 5.05849 11.694 5.03348C11.6331 5.00847 11.5678 4.99574 11.502 4.996ZM11.004 5.99802L10.996 14.004H8.99601V6.00201L11.004 5.99802Z" fill="currentColor"/>
</svg>
