<svg width="20" height="20" viewBox="0 0 20 20" fill="none" xmlns="http://www.w3.org/2000/svg">
<path d="M5 3C3.901 3 3 3.901 3 5C3 5.733 3.406 6.36999 4 6.71899V11H5V7C6.099 7 7 6.099 7 5H11V4H6.71899C6.37099 3.406 5.733 3 5 3ZM5 4C5.558 4 6 4.442 6 5C6 5.558 5.558 6 5 6C4.442 6 4 5.558 4 5C4 4.442 4.442 4 5 4Z" fill="currentColor"/>
<path d="M15 3C13.901 3 13 3.901 13 5C13 5.369 13.109 5.71 13.285 6.008L6.008 13.285C5.70387 13.1008 5.35556 13.0023 5 13C3.901 13 3 13.901 3 15C3 16.099 3.901 17 5 17C6.099 17 7 16.099 7 15C7 14.631 6.891 14.29 6.715 13.992L13.992 6.715C14.29 6.891 14.632 7 15 7C16.099 7 17 6.099 17 5C17 3.901 16.099 3 15 3ZM15 4C15.558 4 16 4.442 16 5C16 5.558 15.558 6 15 6C14.442 6 14 5.558 14 5C14 4.442 14.442 4 15 4ZM5 14C5.558 14 6 14.442 6 15C6 15.558 5.558 16 5 16C4.442 16 4 15.558 4 15C4 14.442 4.442 14 5 14Z" fill="currentColor"/>
</svg>
