<svg width="20" height="20" viewBox="0 0 20 20" fill="none" xmlns="http://www.w3.org/2000/svg">
<path d="M3.504 6.496L6.504 3.496H12.504L9.504 6.496H3.504Z" fill="currentColor"/>
<path d="M6.504 2.996C6.43829 2.99588 6.37321 3.00873 6.31247 3.03378C6.25173 3.05883 6.19651 3.0956 6.15 3.142L3.15 6.142C3.07989 6.21193 3.03213 6.30111 3.01276 6.39822C2.99339 6.49533 3.00328 6.59599 3.0412 6.68747C3.07912 6.77894 3.14335 6.85709 3.22574 6.91202C3.30813 6.96695 3.40498 6.99618 3.504 6.996H9.504C9.5697 6.99612 9.63479 6.98327 9.69553 6.95822C9.75627 6.93317 9.81148 6.89641 9.858 6.85L12.858 3.85C12.9281 3.78008 12.9759 3.69089 12.9952 3.59378C13.0146 3.49667 13.0047 3.39601 12.9668 3.30453C12.9289 3.21306 12.8646 3.13491 12.7823 3.07999C12.6999 3.02506 12.603 2.99582 12.504 2.996H6.504ZM6.711 3.996H11.297L9.297 5.996H4.711L6.711 3.996ZM16.488 6.996C16.3609 6.9999 16.24 7.05211 16.15 7.142L13.15 10.142C13.1036 10.1885 13.0668 10.2437 13.0418 10.3045C13.0167 10.3652 13.0039 10.4303 13.004 10.496V16.496C13.0038 16.595 13.0331 16.6919 13.088 16.7743C13.1429 16.8566 13.2211 16.9209 13.3125 16.9588C13.404 16.9967 13.5047 17.0066 13.6018 16.9872C13.6989 16.9679 13.7881 16.9201 13.858 16.85L16.858 13.85C16.9044 13.8035 16.9412 13.7483 16.9662 13.6875C16.9913 13.6268 17.0041 13.5617 17.004 13.496V7.496C17.004 7.42897 16.9906 7.36263 16.9645 7.3009C16.9384 7.23917 16.9001 7.1833 16.8519 7.13666C16.8038 7.09001 16.7468 7.05352 16.6843 7.02936C16.6217 7.00519 16.555 6.99386 16.488 6.996ZM16.004 8.703V13.289L14.004 15.289V10.703L16.004 8.703ZM9.504 9.996L3.496 10.004C3.3634 10.004 3.23623 10.0567 3.14246 10.1505C3.04869 10.2442 2.996 10.3714 2.996 10.504V16.504C2.996 16.6366 3.04869 16.7638 3.14246 16.8575C3.23623 16.9513 3.3634 17.004 3.496 17.004H9.496C9.62861 17.004 9.75578 16.9513 9.84955 16.8575C9.94332 16.7638 9.996 16.6366 9.996 16.504L10.004 10.496C10.004 10.3634 9.95131 10.2362 9.85755 10.1425C9.76378 10.0487 9.63661 9.996 9.504 9.996ZM9.004 10.996L8.996 16.004H3.996V11.002L9.004 10.996Z" fill="currentColor"/>
</svg>
