<svg width="20" height="20" viewBox="0 0 20 20" fill="none" xmlns="http://www.w3.org/2000/svg">
<path d="M7.492 2.99601C7.46717 2.99683 7.44243 2.9995 7.418 3.00401H3.5C3.36739 3.00401 3.24021 3.05669 3.14645 3.15046C3.05268 3.24423 3 3.3714 3 3.50401V8.504C3 8.63661 3.05268 8.76378 3.14645 8.85755C3.24021 8.95132 3.36739 9.004 3.5 9.004H5V16.504C5 16.6366 5.05268 16.7638 5.14645 16.8576C5.24021 16.9513 5.36739 17.004 5.5 17.004H14.5C14.6326 17.004 14.7598 16.9513 14.8536 16.8576C14.9473 16.7638 15 16.6366 15 16.504V9.004H16.5C16.6326 9.004 16.7598 8.95132 16.8536 8.85755C16.9473 8.76378 17 8.63661 17 8.504V3.50401C17 3.3714 16.9473 3.24423 16.8536 3.15046C16.7598 3.05669 16.6326 3.00401 16.5 3.00401H12.58C12.5085 2.99245 12.4353 2.99658 12.3656 3.01609C12.2958 3.0356 12.2311 3.07004 12.176 3.11701C12.1692 3.12217 12.1625 3.1275 12.156 3.133C12.1502 3.13853 12.1445 3.1442 12.139 3.15C12.1383 3.15133 12.1377 3.15266 12.137 3.154C12.1258 3.16483 12.1151 3.17619 12.105 3.18801C12.1043 3.18934 12.1037 3.19067 12.103 3.19201C12.0591 3.24678 12.0273 3.31016 12.0096 3.37804C11.9918 3.44593 11.9886 3.51678 12 3.58601V4.00401C12 4.53444 11.7893 5.04315 11.4142 5.41822C11.0391 5.79329 10.5304 6.004 10 6.004C9.46957 6.004 8.96086 5.79329 8.58579 5.41822C8.21071 5.04315 8 4.53444 8 4.00401V3.58401C8.01155 3.5125 8.00743 3.43933 7.98792 3.36958C7.96841 3.29982 7.93397 3.23514 7.887 3.18C7.88634 3.17866 7.88567 3.17733 7.885 3.176C7.87485 3.16452 7.86417 3.15352 7.853 3.14301C7.852 3.14234 7.851 3.14166 7.85 3.141C7.83917 3.12981 7.82783 3.11913 7.816 3.109C7.81467 3.10833 7.81334 3.10766 7.812 3.107C7.7215 3.0339 7.60833 2.99465 7.492 2.99601ZM4 4.00401H7C7.00032 4.53049 7.13914 5.04763 7.40252 5.5035C7.6659 5.95937 8.04458 6.33792 8.50053 6.60116C8.95649 6.86439 9.47367 7.00305 10.0002 7.0032C10.5266 7.00334 11.0439 6.86499 11.5 6.60201C11.956 6.33864 12.3346 5.95991 12.5979 5.50388C12.8612 5.04786 12.9999 4.53058 13 4.00401H16V8.004H14.5C14.3674 8.004 14.2402 8.05669 14.1464 8.15046C14.0527 8.24423 14 8.3714 14 8.504V16.004H6V8.504C6 8.3714 5.94732 8.24423 5.85355 8.15046C5.75979 8.05669 5.63261 8.004 5.5 8.004H4V4.00401Z" fill="currentColor"/>
</svg>
