<svg width="20" height="20" viewBox="0 0 20 20" fill="none" xmlns="http://www.w3.org/2000/svg">
<path d="M13.498 2.996L10.492 3.004C10.3594 3.004 10.2322 3.05669 10.1384 3.15045C10.0447 3.24422 9.992 3.37139 9.992 3.504V16.504C9.992 16.5697 10.0049 16.6347 10.0301 16.6953C10.0552 16.756 10.092 16.8111 10.1384 16.8576C10.1849 16.904 10.24 16.9408 10.3007 16.9659C10.3613 16.9911 10.4263 17.004 10.492 17.004H13.492C13.6246 17.004 13.7518 16.9513 13.8456 16.8576C13.9393 16.7638 13.992 16.6366 13.992 16.504L14 12.996H16.5C16.6326 12.996 16.7598 12.9433 16.8535 12.8496C16.9473 12.7558 17 12.6286 17 12.496V7.496C17 7.3634 16.9473 7.23623 16.8535 7.14246C16.7598 7.04869 16.6326 6.996 16.5 6.996H14V3.496C14 3.43017 13.987 3.36499 13.9617 3.3042C13.9365 3.24341 13.8995 3.1882 13.8528 3.14174C13.8062 3.09529 13.7509 3.0585 13.69 3.0335C13.6291 3.00849 13.5638 2.99574 13.498 2.996ZM13 3.998V6.996H10.992V4.002L13 3.998ZM10.992 7.996H13V11.996H10.992V7.996ZM14 7.996H16V11.996H14V7.996ZM10.992 12.996H12.998L12.992 16.004H10.992V12.996Z" fill="currentColor"/>
<path d="M8.537 3.16601C8.49149 3.16517 8.44606 3.17054 8.40199 3.182C6.87391 3.5408 5.51067 4.40256 4.53105 5.62899C3.55143 6.85542 3.01224 8.3754 3 9.945C2.98961 11.515 3.50693 13.0429 4.46895 14.2837C5.43097 15.5244 6.78191 16.406 8.30499 16.787C8.36983 16.8066 8.438 16.813 8.50534 16.8055C8.57268 16.798 8.63779 16.7769 8.69673 16.7435C8.75567 16.71 8.80721 16.665 8.84821 16.6111C8.8892 16.5571 8.91883 16.4954 8.93524 16.4297C8.95166 16.3639 8.95453 16.2955 8.94371 16.2287C8.93289 16.1618 8.90859 16.0978 8.87228 16.0406C8.83598 15.9834 8.78842 15.9342 8.7325 15.8959C8.67658 15.8576 8.61347 15.8311 8.547 15.818C7.24082 15.4926 6.08211 14.7371 5.25734 13.6733C4.43257 12.6095 3.9897 11.2991 4 9.95299C4.00884 8.60699 4.47031 7.3031 5.31015 6.25121C6.14999 5.19932 7.31936 4.46061 8.63001 4.15398C8.74906 4.12767 8.8544 4.05877 8.92621 3.96023C8.99802 3.86168 9.03134 3.74031 9.01991 3.61892C9.00849 3.49752 8.9531 3.38449 8.86417 3.30108C8.77523 3.21767 8.65888 3.16964 8.537 3.16601Z" fill="currentColor"/>
</svg>
