<svg width="20" height="20" viewBox="0 0 20 20" fill="none" xmlns="http://www.w3.org/2000/svg">
<path d="M10 6C11.656 6 13 7.375 13 9.047C13 10.719 11.656 12.094 10 12.094C8.344 12.094 7 10.719 7 9.047C7 7.375 8.344 6 10 6ZM10 7C8.895 7 8 7.905 8 9.047C8 10.188 8.895 11.094 10 11.094C11.105 11.094 12 10.188 12 9.047C12 7.905 11.105 7 10 7Z" fill="currentColor"/>
<path d="M10 3C6.49 3 4 5.77301 4 8.92001V16H3.04001C2.9074 16 2.7802 16.0527 2.68643 16.1465C2.59266 16.2402 2.54001 16.3674 2.54001 16.5C2.54001 16.6326 2.59266 16.7598 2.68643 16.8535C2.7802 16.9473 2.9074 17 3.04001 17H4.5C4.63261 17 4.75978 16.9473 4.85355 16.8535C4.94731 16.7598 5 16.6326 5 16.5V8.92001C5 6.29201 7.01 4 10 4C12.99 4 15 6.29201 15 8.92001V16.5C15 16.6326 15.0527 16.7598 15.1465 16.8535C15.2402 16.9473 15.3674 17 15.5 17H16.96C17.0926 17 17.2198 16.9473 17.3136 16.8535C17.4073 16.7598 17.46 16.6326 17.46 16.5C17.46 16.3674 17.4073 16.2402 17.3136 16.1465C17.2198 16.0527 17.0926 16 16.96 16H16V8.92001C16 5.77301 13.51 3 10 3Z" fill="currentColor"/>
</svg>
