<svg width="20" height="20" viewBox="0 0 20 20" fill="none" xmlns="http://www.w3.org/2000/svg">
<path d="M7.007 4.50001V5.50001H16.5C17.176 5.51001 17.176 4.49001 16.5 4.50001H7.007ZM3.5 9.50001C2.824 9.49001 2.824 10.51 3.5 10.5H9.007V9.50001H3.5ZM14.007 9.50001V10.5H16.5C17.176 10.51 17.176 9.49001 16.5 9.50001H14.007ZM3.5 14.5C2.824 14.49 2.824 15.51 3.5 15.5H13.007V14.5H3.5Z" fill="currentColor"/>
<path d="M4.5 3.5C3.677 3.5 3 4.177 3 5C3 5.823 3.677 6.5 4.5 6.5C5.323 6.5 6 5.823 6 5C6 4.177 5.323 3.5 4.5 3.5ZM4.5 4.5C4.782 4.5 5 4.718 5 5C5 5.282 4.782 5.5 4.5 5.5C4.43408 5.50094 4.36863 5.48866 4.30754 5.46387C4.24645 5.43907 4.19097 5.40227 4.14435 5.35565C4.09773 5.30903 4.06093 5.25353 4.03613 5.19244C4.01134 5.13136 3.99906 5.06592 4 5C4 4.718 4.218 4.5 4.5 4.5ZM11.5 8.5C10.677 8.5 10 9.177 10 10C10 10.823 10.677 11.5 11.5 11.5C12.323 11.5 13 10.823 13 10C13 9.177 12.323 8.5 11.5 8.5ZM11.5 9.5C11.782 9.5 12 9.718 12 10C12 10.282 11.782 10.5 11.5 10.5C11.4341 10.5009 11.3686 10.4887 11.3075 10.4639C11.2465 10.4391 11.191 10.4023 11.1443 10.3557C11.0977 10.309 11.0609 10.2535 11.0361 10.1924C11.0113 10.1314 10.9991 10.0659 11 10C11 9.718 11.218 9.5 11.5 9.5ZM15.5 13.5C14.677 13.5 14 14.177 14 15C14 15.823 14.677 16.5 15.5 16.5C16.323 16.5 17 15.823 17 15C17 14.177 16.323 13.5 15.5 13.5ZM15.5 14.5C15.782 14.5 16 14.718 16 15C16 15.282 15.782 15.5 15.5 15.5C15.4341 15.5009 15.3686 15.4887 15.3075 15.4639C15.2465 15.4391 15.191 15.4023 15.1443 15.3557C15.0977 15.309 15.0609 15.2535 15.0361 15.1924C15.0113 15.1314 14.9991 15.0659 15 15C15 14.718 15.218 14.5 15.5 14.5Z" fill="currentColor"/>
</svg>
