<svg width="20" height="20" viewBox="0 0 20 20" fill="none" xmlns="http://www.w3.org/2000/svg">
<path d="M17 15C17 13.901 16.099 13 15 13C13.901 13 13 13.901 13 15C13 16.099 13.901 17 15 17C16.099 17 17 16.099 17 15ZM16 15C16 15.558 15.558 16 15 16C14.442 16 14 15.558 14 15C14 14.442 14.442 14 15 14C15.558 14 16 14.442 16 15ZM7 15.5C7 14.677 6.323 14 5.5 14C4.677 14 4 14.677 4 15.5C4 16.323 4.677 17 5.5 17C6.323 17 7 16.323 7 15.5ZM6 15.5C6 15.782 5.782 16 5.5 16C5.218 16 5 15.782 5 15.5C4.99906 15.4341 5.01134 15.3686 5.03613 15.3076C5.06093 15.2465 5.09773 15.191 5.14435 15.1443C5.19097 15.0977 5.24647 15.0609 5.30756 15.0361C5.36864 15.0113 5.43408 14.9991 5.5 15C5.782 15 6 15.218 6 15.5ZM17 5.5C17 4.677 16.323 4 15.5 4C14.677 4 14 4.677 14 5.5C14 6.323 14.677 7 15.5 7C16.323 7 17 6.323 17 5.5ZM16 5.5C16 5.782 15.782 6 15.5 6C15.218 6 15 5.782 15 5.5C14.9991 5.43408 15.0113 5.36864 15.0361 5.30756C15.0609 5.24647 15.0977 5.19097 15.1443 5.14435C15.191 5.09773 15.2465 5.06093 15.3076 5.03613C15.3686 5.01134 15.4341 4.99906 15.5 5C15.782 5 16 5.218 16 5.5ZM8 5.5C7.99789 4.83761 7.73383 4.20294 7.26544 3.73456C6.79706 3.26617 6.16239 3.00211 5.5 3C4.125 3 3 4.125 3 5.5C3 6.875 4.125 8 5.5 8C6.875 8 8 6.875 8 5.5ZM7 5.5C7 6.334 6.334 7 5.5 7C4.666 7 4 6.334 4 5.5C4 4.666 4.666 4 5.5 4C6.334 4 7 4.666 7 5.5Z" fill="currentColor"/>
<path d="M15.008 5.49201C15.0069 5.42634 14.993 5.36154 14.9669 5.30127C14.9408 5.24101 14.9031 5.18647 14.8559 5.14078C14.8087 5.09509 14.753 5.05913 14.692 5.03498C14.6309 5.01082 14.5657 4.99895 14.5 5H9.5C9.36739 5 9.24022 5.05269 9.14645 5.14646C9.05268 5.24023 9 5.3674 9 5.5C9 5.63261 9.05268 5.75978 9.14645 5.85355C9.24022 5.94732 9.36739 6 9.5 6H14.5C14.567 6.00109 14.6336 5.98868 14.6957 5.96354C14.7578 5.93839 14.8142 5.901 14.8616 5.85361C14.909 5.80622 14.9464 5.74981 14.9715 5.68769C14.9967 5.62557 15.0091 5.55902 15.008 5.49201ZM14.004 13.49C14.0006 13.3602 13.9468 13.2368 13.854 13.146L8.854 8.146C8.80751 8.09951 8.75233 8.06264 8.69159 8.03748C8.63085 8.01232 8.56574 7.99936 8.5 7.99936C8.43425 7.99936 8.36915 8.01232 8.30841 8.03748C8.24767 8.06264 8.19248 8.09951 8.14599 8.146C8.0995 8.19249 8.06263 8.24768 8.03747 8.30841C8.01231 8.36915 7.99936 8.43426 7.99936 8.5C7.99936 8.56575 8.01231 8.63085 8.03747 8.69159C8.06263 8.75233 8.0995 8.80752 8.14599 8.85401L13.146 13.854C13.2163 13.9262 13.3067 13.9754 13.4055 13.9953C13.5043 14.0152 13.6067 14.0048 13.6995 13.9655C13.7922 13.9261 13.871 13.8597 13.9253 13.7748C13.9796 13.69 14.0071 13.5907 14.004 13.49ZM6 9.5C6 9.3674 5.94731 9.24023 5.85354 9.14646C5.75977 9.05269 5.6326 9 5.5 9C5.36739 9 5.24022 9.05269 5.14645 9.14646C5.05268 9.24023 5 9.3674 5 9.5V14.5C5 14.6326 5.05268 14.7598 5.14645 14.8535C5.24022 14.9473 5.36739 15 5.5 15C5.6326 15 5.75977 14.9473 5.85354 14.8535C5.94731 14.7598 6 14.6326 6 14.5V9.5Z" fill="currentColor"/>
</svg>
