<svg width="20" height="20" viewBox="0 0 20 20" fill="none" xmlns="http://www.w3.org/2000/svg">
<path d="M10 3C6.14 3 3 6.14 3 10C3 13.86 6.14 17 10 17C13.86 17 17 13.86 17 10C17 6.14 13.86 3 10 3ZM10 4C13.32 4 16 6.68 16 10C16 13.32 13.32 16 10 16C6.68 16 4 13.32 4 10C4 6.68 6.68 4 10 4Z" fill="currentColor"/>
<path d="M10.492 4.99201C10.4263 4.99305 10.3615 5.00702 10.3013 5.03312C10.241 5.05921 10.1865 5.0969 10.1408 5.14408C10.0951 5.19125 10.0591 5.24698 10.035 5.30805C10.0108 5.36912 9.99895 5.43434 10 5.5V10.5C10 10.5823 10.0204 10.6634 10.0593 10.736C10.0982 10.8085 10.1544 10.8704 10.223 10.916L13.223 12.916C13.2776 12.9547 13.3393 12.982 13.4047 12.9964C13.47 13.0108 13.5376 13.012 13.6033 12.9998C13.6691 12.9876 13.7318 12.9623 13.7876 12.9254C13.8434 12.8886 13.8913 12.8409 13.9284 12.7853C13.9655 12.7296 13.991 12.667 14.0035 12.6013C14.0159 12.5356 14.0151 12.468 14.0009 12.4026C13.9868 12.3372 13.9597 12.2753 13.9213 12.2206C13.8828 12.1659 13.8338 12.1194 13.777 12.084L11 10.232V5.5C11.0011 5.43299 10.9887 5.36645 10.9635 5.30433C10.9384 5.2422 10.901 5.18576 10.8536 5.13837C10.8062 5.09098 10.7498 5.05362 10.6877 5.02848C10.6256 5.00333 10.559 4.99093 10.492 4.99201Z" fill="currentColor"/>
<path d="M5.5 10C5.36739 10 5.24022 10.0527 5.14645 10.1465C5.05269 10.2402 5 10.3674 5 10.5C5 10.6326 5.05269 10.7598 5.14645 10.8535C5.24022 10.9473 5.36739 11 5.5 11H8.5C8.63261 11 8.75978 10.9473 8.85355 10.8535C8.94731 10.7598 9 10.6326 9 10.5C9 10.3674 8.94731 10.2402 8.85355 10.1465C8.75978 10.0527 8.63261 10 8.5 10H5.5Z" fill="currentColor"/>
<path d="M6.74399 6.24399C6.64422 6.24379 6.5467 6.27345 6.46393 6.32913C6.38115 6.38481 6.3169 6.46398 6.27948 6.55646C6.24206 6.64894 6.23317 6.75048 6.25393 6.84805C6.2747 6.94563 6.32417 7.03477 6.39599 7.104L8.14599 8.854C8.23988 8.94789 8.36722 9.00064 8.5 9.00064C8.63277 9.00064 8.76011 8.94789 8.854 8.854C8.94789 8.76012 9.00064 8.63278 9.00064 8.5C9.00064 8.36723 8.94789 8.23988 8.854 8.146L7.104 6.396C7.05727 6.34779 7.0013 6.3095 6.93945 6.28339C6.8776 6.25727 6.81112 6.24386 6.74399 6.24399Z" fill="currentColor"/>
</svg>
