<svg width="20" height="20" viewBox="0 0 20 20" fill="none" xmlns="http://www.w3.org/2000/svg">
<path d="M3.5 7C3.36739 7 3.24021 7.05269 3.14645 7.14645C3.05268 7.24022 3 7.36739 3 7.5V16.5C3 16.6326 3.05268 16.7598 3.14645 16.8535C3.24021 16.9473 3.36739 17 3.5 17H16.5C16.6326 17 16.7598 16.9473 16.8536 16.8535C16.9473 16.7598 17 16.6326 17 16.5V10.5C17 10.3674 16.9473 10.2402 16.8536 10.1465C16.7598 10.0527 16.6326 10 16.5 10H9V7.5C9 7.36739 8.94732 7.24022 8.85355 7.14645C8.75979 7.05269 8.63261 7 8.5 7H3.5ZM4 8H8V10H4V8ZM4 11H6V13H4V11ZM7 11H11V13H7V11ZM12 11H16V13H12V11ZM4 14H8V16H4V14ZM9 14H13V16H9V14ZM14 14H16V16H14V14Z" fill="currentColor"/>
<path d="M16.5 3C16.6326 3 16.7598 3.05269 16.8536 3.14645C16.9473 3.24022 17 3.36739 17 3.5V6.5C17 6.63261 16.9473 6.75978 16.8536 6.85355C16.7598 6.94731 16.6326 7 16.5 7H11.5C11.3674 7 11.2402 6.94731 11.1464 6.85355C11.0527 6.75978 11 6.63261 11 6.5V3.5C11 3.36739 11.0527 3.24022 11.1464 3.14645C11.2402 3.05269 11.3674 3 11.5 3H16.5ZM16 4H12V6H16V4Z" fill="currentColor"/>
</svg>
