<svg width="20" height="20" viewBox="0 0 20 20" fill="none" xmlns="http://www.w3.org/2000/svg">
<path d="M12.5 3C10.02 3 8 5.02 8 7.5C8 9.98 10.02 12 12.5 12C14.98 12 17 9.98 17 7.5C17 5.02 14.98 3 12.5 3ZM12.5 4C14.439 4 16 5.561 16 7.5C16.0003 8.16464 15.8104 8.8155 15.4529 9.37576C15.0953 9.93603 14.5849 10.3823 13.982 10.662C13.8985 9.45786 13.3824 8.32456 12.5289 7.47107C11.6754 6.61758 10.5421 6.1015 9.33801 6.01801C9.61768 5.41507 10.0639 4.90468 10.6242 4.54712C11.1845 4.18955 11.8354 3.99972 12.5 4Z" fill="currentColor"/>
<path d="M6.50202 6.066C6.42339 6.06491 6.34563 6.08239 6.27503 6.11701C5.16801 6.64072 4.25825 7.50589 3.67969 8.58525C3.10113 9.66461 2.88425 10.9012 3.06098 12.113C3.23932 13.3249 3.80195 14.4475 4.66602 15.3157C5.53009 16.1839 6.65003 16.7519 7.86102 16.936C9.07224 17.1189 10.3102 16.9083 11.3928 16.3351C12.4753 15.762 13.3454 14.8565 13.875 13.752C13.9323 13.6324 13.9397 13.4949 13.8956 13.3698C13.8516 13.2447 13.7596 13.1423 13.64 13.085C13.5204 13.0277 13.3829 13.0203 13.2578 13.0644C13.1327 13.1084 13.0303 13.2004 12.973 13.32C12.5368 14.2322 11.8189 14.9799 10.9252 15.4529C10.0316 15.9259 9.00959 16.0991 8.01001 15.947C7.00997 15.7971 6.08464 15.3296 5.37073 14.6134C4.65682 13.8973 4.19215 12.9705 4.04541 11.97C3.89867 10.9695 4.07765 9.9483 4.55585 9.0573C5.03405 8.1663 5.7861 7.45274 6.70099 7.02201C6.80486 6.97531 6.88967 6.89455 6.94141 6.79309C6.99314 6.69164 7.00868 6.57556 6.98548 6.46407C6.96227 6.35257 6.9017 6.25235 6.81378 6.17996C6.72586 6.10758 6.61589 6.06737 6.50202 6.066Z" fill="currentColor"/>
</svg>
