<svg width="20" height="20" viewBox="0 0 20 20" fill="none" xmlns="http://www.w3.org/2000/svg">
<path d="M16.54 3.01198C16.6076 3.01189 16.6745 3.02551 16.7366 3.05199C16.7988 3.07847 16.8549 3.11728 16.9017 3.16607C16.9484 3.21486 16.9848 3.27263 17.0086 3.33587C17.0324 3.39911 17.0432 3.46651 17.0402 3.53402C17.0372 3.60152 17.0206 3.66773 16.9913 3.72863C16.962 3.78953 16.9207 3.84384 16.8698 3.88833C16.819 3.93281 16.7596 3.96654 16.6954 3.98745C16.6311 4.00835 16.5633 4.01604 16.496 4.01C14.8399 3.94113 13.1874 4.21618 11.6429 4.81783C10.0984 5.41948 8.69535 6.33468 7.5222 7.50567C6.34905 8.67665 5.43128 10.078 4.82679 11.6214C4.22229 13.1648 3.94418 14.8167 4.01 16.473C4.01517 16.6056 3.96745 16.7348 3.87734 16.8323C3.78723 16.9297 3.6621 16.9873 3.5295 16.9925C3.39689 16.9977 3.26766 16.9499 3.17023 16.8598C3.07281 16.7697 3.01517 16.6446 3.01 16.512C2.93908 14.7176 3.24076 12.928 3.896 11.256C4.55125 9.58398 5.54586 8.06592 6.81709 6.79751C8.08832 5.52909 9.6086 4.53788 11.282 3.88634C12.9555 3.23481 14.7458 2.93708 16.54 3.01198ZM16.572 7.01799C16.6381 7.02128 16.7029 7.03766 16.7626 7.06618C16.8223 7.0947 16.8758 7.13477 16.9199 7.1841C16.964 7.23344 16.9979 7.29107 17.0196 7.3536C17.0412 7.41612 17.0503 7.48231 17.0462 7.54836C17.0421 7.61441 17.0249 7.679 16.9957 7.73836C16.9664 7.79773 16.9257 7.85069 16.8758 7.89418C16.8259 7.93768 16.7679 7.97087 16.7051 7.99178C16.6423 8.01269 16.576 8.0209 16.51 8.01598C15.382 7.94409 14.2515 8.11204 13.193 8.50875C12.1346 8.90545 11.1722 9.5219 10.3693 10.3175C9.56645 11.1131 8.94124 12.0699 8.53492 13.1247C8.12859 14.1794 7.95037 15.3083 8.012 16.437C8.01777 16.5037 8.01007 16.5709 7.98937 16.6346C7.96866 16.6983 7.93538 16.7572 7.89148 16.8078C7.84758 16.8583 7.79397 16.8996 7.73383 16.9291C7.67369 16.9585 7.60824 16.9756 7.54137 16.9793C7.4745 16.983 7.40757 16.9732 7.34455 16.9505C7.28154 16.9278 7.22372 16.8927 7.17453 16.8473C7.12534 16.8018 7.08578 16.747 7.05821 16.6859C7.03063 16.6249 7.0156 16.5589 7.014 16.492C6.94479 15.2225 7.14529 13.9527 7.60229 12.7662C8.0593 11.5798 8.76244 10.5036 9.66543 9.60857C10.5684 8.71352 11.6508 8.0199 12.8412 7.57338C14.0316 7.12687 15.3031 6.93758 16.572 7.01799ZM16.535 11.029C16.6014 11.0346 16.666 11.0534 16.725 11.0844C16.784 11.1153 16.8362 11.1577 16.8786 11.2091C16.9209 11.2605 16.9526 11.3199 16.9717 11.3837C16.9909 11.4475 16.997 11.5145 16.9899 11.5807C16.9828 11.6469 16.9625 11.7111 16.9302 11.7694C16.898 11.8276 16.8544 11.8789 16.802 11.9201C16.7497 11.9613 16.6896 11.9916 16.6254 12.0093C16.5612 12.027 16.4941 12.0316 16.428 12.023C15.8358 11.959 15.2368 12.0281 14.6748 12.2252C14.1128 12.4224 13.6019 12.7426 13.1794 13.1625C12.7569 13.5823 12.4336 14.0913 12.233 14.6521C12.0324 15.2129 11.9597 15.8114 12.02 16.404C12.0267 16.4693 12.0205 16.5353 12.0016 16.5983C11.9828 16.6612 11.9518 16.7198 11.9103 16.7707C11.8689 16.8216 11.8178 16.8639 11.76 16.8951C11.7022 16.9263 11.6388 16.9458 11.5735 16.9525C11.5082 16.9592 11.4422 16.9529 11.3792 16.9341C11.3163 16.9153 11.2577 16.8843 11.2068 16.8428C11.1558 16.8014 11.1136 16.7503 11.0824 16.6925C11.0512 16.6347 11.0317 16.5713 11.025 16.506C10.9497 15.7653 11.0407 15.0171 11.2915 14.3161C11.5423 13.6151 11.9464 12.979 12.4745 12.4541C13.0025 11.9292 13.6411 11.5289 14.3436 11.2823C15.0461 11.0358 15.7948 10.9492 16.535 11.029ZM16 15C16.546 15 17 15.454 17 16C17 16.546 16.546 17 16 17C15.454 17 15 16.546 15 16C15 15.454 15.454 15 16 15Z" fill="currentColor"/>
</svg>
