<svg width="20" height="20" viewBox="0 0 20 20" fill="none" xmlns="http://www.w3.org/2000/svg">
<path d="M3.5 3C3.36739 3 3.24022 3.05269 3.14645 3.14645C3.05269 3.24022 3 3.36739 3 3.5V5.5C3 5.63261 3.05269 5.75978 3.14645 5.85355C3.24022 5.94731 3.36739 6 3.5 6H4V14H3.5C3.36739 14 3.24022 14.0527 3.14645 14.1465C3.05269 14.2402 3 14.3674 3 14.5V16.5C3 16.6326 3.05269 16.7598 3.14645 16.8535C3.24022 16.9473 3.36739 17 3.5 17H5.5C5.63261 17 5.75978 16.9473 5.85355 16.8535C5.94731 16.7598 6 16.6326 6 16.5V16H14V16.5C14 16.6326 14.0527 16.7598 14.1465 16.8535C14.2402 16.9473 14.3674 17 14.5 17H16.5C16.6326 17 16.7598 16.9473 16.8535 16.8535C16.9473 16.7598 17 16.6326 17 16.5V14.5C17 14.3674 16.9473 14.2402 16.8535 14.1465C16.7598 14.0527 16.6326 14 16.5 14H16V6H16.5C16.6326 6 16.7598 5.94731 16.8535 5.85355C16.9473 5.75978 17 5.63261 17 5.5V3.5C17 3.36739 16.9473 3.24022 16.8535 3.14645C16.7598 3.05269 16.6326 3 16.5 3H14.5C14.3674 3 14.2402 3.05269 14.1465 3.14645C14.0527 3.24022 14 3.36739 14 3.5V4H6V3.5C6 3.36739 5.94731 3.24022 5.85355 3.14645C5.75978 3.05269 5.63261 3 5.5 3H3.5ZM4 4H5V5H4V4ZM15 4H16V5H15V4ZM6 5H14V5.5C14 5.63261 14.0527 5.75978 14.1465 5.85355C14.2402 5.94731 14.3674 6 14.5 6H15V14H14.5C14.3674 14 14.2402 14.0527 14.1465 14.1465C14.0527 14.2402 14 14.3674 14 14.5V15H6V14.5C6 14.3674 5.94731 14.2402 5.85355 14.1465C5.75978 14.0527 5.63261 14 5.5 14H5V6H5.5C5.63261 6 5.75978 5.94731 5.85355 5.85355C5.94731 5.75978 6 5.63261 6 5.5V5ZM4 15H5V16H4V15ZM15 15H16V16H15V15Z" fill="currentColor"/>
<path d="M7.5 7C7.36739 7 7.24022 7.05269 7.14645 7.14645C7.05269 7.24022 7 7.36739 7 7.5V12.5C7 12.6326 7.05269 12.7598 7.14645 12.8535C7.24022 12.9473 7.36739 13 7.5 13H12.5C12.6326 13 12.7598 12.9473 12.8535 12.8535C12.9473 12.7598 13 12.6326 13 12.5V7.5C13 7.36739 12.9473 7.24022 12.8535 7.14645C12.7598 7.05269 12.6326 7 12.5 7H7.5ZM8 8H12V12H8V8Z" fill="currentColor"/>
</svg>
