<svg width="20" height="20" viewBox="0 0 20 20" fill="none" xmlns="http://www.w3.org/2000/svg">
<path d="M10.607 4.1C10.572 4.10025 10.5371 4.10427 10.503 4.112C9.5118 4.34 8.62704 4.89699 7.99292 5.69219C7.35879 6.48739 7.01268 7.47392 7.011 8.491C7.011 8.997 7.161 9.484 7.329 9.96L4.902 12.387C3.892 13.397 3.882 14.701 4.589 15.407C5.295 16.113 6.599 16.104 7.609 15.094L10.039 12.664C10.513 12.832 10.998 12.984 11.503 12.985H11.505C12.5277 12.9837 13.5196 12.6341 14.317 11.9937C15.1144 11.3533 15.6699 10.4604 15.892 9.462C15.9077 9.39152 15.908 9.31846 15.8928 9.24785C15.8776 9.17725 15.8473 9.11077 15.804 9.053L15.156 8.19C15.1144 8.13467 15.0617 8.08858 15.0013 8.05467C14.941 8.02075 14.8742 7.99975 14.8053 7.99298C14.7364 7.98621 14.6668 7.99383 14.601 8.01535C14.5352 8.03687 14.4746 8.07182 14.423 8.118L12.316 9.99H11.236L10.006 8.554V7.697L11.859 5.843C11.9527 5.74924 12.0054 5.62208 12.0054 5.4895C12.0054 5.35692 11.9527 5.22976 11.859 5.136L10.968 4.246C10.9207 4.19857 10.8644 4.16113 10.8024 4.13587C10.7404 4.11062 10.6739 4.09808 10.607 4.099V4.1Z" fill="currentColor"/>
</svg>
