<svg width="20" height="20" viewBox="0 0 20 20" fill="none" xmlns="http://www.w3.org/2000/svg">
<path d="M11.524 2.99799C11.5049 2.99834 11.4859 2.99967 11.467 3.00199C10.7358 3.08256 10.0313 3.32302 9.40346 3.70634C8.7756 4.08965 8.23979 4.60644 7.834 5.22001C7.08 6.36101 6.891 7.76701 7.184 9.09501L3.661 12.617C3.244 12.997 3.025 13.572 3.001 14.23C2.976 14.886 3.191 15.637 3.784 16.23C4.04456 16.4911 4.35705 16.6945 4.70123 16.8272C5.04541 16.9598 5.41362 17.0187 5.782 17C6.434 16.968 6.993 16.744 7.373 16.363L10.907 12.82C12.235 13.111 13.641 12.92 14.78 12.166C15.393 11.7603 15.9094 11.2249 16.2927 10.5977C16.676 9.9704 16.9167 9.26658 16.998 8.53599C17.0069 8.45378 16.9971 8.37064 16.9694 8.29273C16.9417 8.21482 16.8968 8.14416 16.838 8.08601L15.895 7.15601C15.7917 7.05399 15.6523 6.99695 15.5071 6.99732C15.3619 6.9977 15.2228 7.05545 15.12 7.158L13.313 8.95701H12.723L11.043 7.27702V6.68699L12.848 4.887C12.9511 4.78446 13.0094 4.64525 13.0102 4.49983C13.0109 4.3544 12.9541 4.2146 12.852 4.111L11.92 3.16401C11.8685 3.1112 11.8069 3.06927 11.7389 3.04075C11.6708 3.01223 11.5978 2.99769 11.524 2.99799ZM11.368 4.171L11.684 4.494L10.104 6.07002C10.0526 6.12114 10.0119 6.18192 9.98408 6.24885C9.95628 6.31578 9.94198 6.38753 9.942 6.46L9.944 7.507C9.94475 7.65233 10.003 7.79146 10.106 7.89399L12.108 9.896C12.159 9.94725 12.2196 9.98793 12.2864 10.0157C12.3531 10.0435 12.4247 10.0579 12.497 10.058L13.543 10.056C13.6881 10.0558 13.8271 9.99828 13.93 9.896L15.51 8.322L15.829 8.63599C15.645 9.69499 15.077 10.651 14.174 11.248C13.204 11.89 11.954 12.078 10.844 11.74C10.7488 11.7108 10.6474 11.7081 10.5507 11.732C10.454 11.756 10.3656 11.8058 10.295 11.876L6.596 15.586C6.494 15.688 6.121 15.881 5.727 15.9C5.51177 15.9154 5.29578 15.8834 5.09429 15.8062C4.89281 15.7289 4.71075 15.6084 4.561 15.453C4.40378 15.3006 4.2811 15.1161 4.20122 14.9122C4.12135 14.7083 4.08615 14.4897 4.098 14.271C4.113 13.876 4.308 13.516 4.403 13.429C4.40879 13.4235 4.41446 13.4178 4.42 13.412L8.127 9.70701C8.19762 9.63641 8.24767 9.54789 8.27181 9.451C8.29595 9.3541 8.29325 9.25247 8.264 9.15699C8.0981 8.5997 8.05581 8.01292 8.1401 7.4376C8.22438 6.86228 8.43321 6.31228 8.752 5.826C9.35 4.922 10.308 4.354 11.368 4.171Z" fill="currentColor"/>
</svg>
