<svg width="20" height="20" viewBox="0 0 20 20" fill="none" xmlns="http://www.w3.org/2000/svg">
<path d="M6.5 3C6.37872 2.99962 6.26144 3.04334 6.17 3.123L4.17 4.873C4.11641 4.92008 4.07352 4.97808 4.0442 5.0431C4.01488 5.10813 3.99981 5.17867 4 5.25V7H2.5C2.36739 7 2.24021 7.05268 2.14645 7.14645C2.05268 7.24022 2 7.36739 2 7.5V9C2 9.986 2.74 10.689 3.568 10.92C4.284 11.12 5.083 10.968 5.752 10.535L7 11.94V14.251C7 15.14 7.394 15.869 7.969 16.329C8.543 16.789 9.275 17.001 10 17.001C10.725 17.001 11.457 16.789 12.031 16.329C12.606 15.869 13 15.139 13 14.251V11.941L14.248 10.536C14.918 10.969 15.716 11.121 16.432 10.921C17.259 10.689 18 9.986 18 9V7.5C18 7.36739 17.9473 7.24022 17.8536 7.14645C17.7598 7.05268 17.6326 7 17.5 7H16V5.25C16.0002 5.17867 15.9851 5.10813 15.9558 5.0431C15.9265 4.97808 15.8836 4.92008 15.83 4.873L13.83 3.123C13.7386 3.04334 13.6213 2.99962 13.5 3H11.5C11.4343 2.99989 11.3692 3.01272 11.3085 3.03777C11.2477 3.06282 11.1925 3.0996 11.146 3.146L10.293 4H9.707L8.854 3.146C8.80748 3.0996 8.75227 3.06282 8.69153 3.03777C8.63079 3.01272 8.5657 2.99989 8.5 3H6.5ZM6.688 4H8.293L9.146 4.854C9.19252 4.9004 9.24773 4.93718 9.30847 4.96223C9.36921 4.98728 9.4343 5.00012 9.5 5H10.5C10.5657 5.00012 10.6308 4.98728 10.6915 4.96223C10.7523 4.93718 10.8075 4.9004 10.854 4.854L11.707 4H13.313L15 5.479V7.5C15 7.63261 15.0527 7.75979 15.1464 7.85356C15.2402 7.94732 15.3674 8 15.5 8H17V9C17 9.514 16.678 9.811 16.162 9.955C15.768 10.065 15.341 9.892 14.955 9.705C15.0026 9.59637 15.0101 9.47433 14.9761 9.3607C14.942 9.24708 14.8687 9.14925 14.7692 9.08471C14.6696 9.02016 14.5504 8.9931 14.4328 9.00836C14.3151 9.02362 14.2068 9.0802 14.127 9.168L12.127 11.418C12.0454 11.5094 12.0002 11.6275 12 11.75V14.25C12 14.861 11.77 15.257 11.406 15.547C11.043 15.837 10.525 16 10 16C9.475 16 8.957 15.837 8.594 15.547C8.231 15.257 8 14.861 8 14.25V11.75C7.99976 11.6275 7.95457 11.5094 7.873 11.418L5.873 9.168C5.79324 9.0802 5.68486 9.02362 5.56723 9.00836C5.4496 8.9931 5.33036 9.02016 5.23084 9.08471C5.13132 9.14925 5.05798 9.24708 5.02394 9.3607C4.9899 9.47433 4.99736 9.59637 5.045 9.705C4.659 9.892 4.232 10.065 3.838 9.955C3.322 9.811 3 9.514 3 9V8H4.5C4.63261 8 4.75979 7.94732 4.85355 7.85356C4.94732 7.75979 5 7.63261 5 7.5V5.477L6.688 4Z" fill="currentColor"/>
<path d="M8 6C7.9343 5.99988 7.86921 6.01272 7.80847 6.03777C7.74773 6.06282 7.69252 6.0996 7.646 6.146L7.146 6.646C7.0996 6.69252 7.06282 6.74773 7.03777 6.80847C7.01271 6.86921 6.99988 6.9343 7 7V7.5C7 7.63261 7.05268 7.75979 7.14645 7.85355C7.24022 7.94732 7.36739 8 7.5 8C7.63261 8 7.75979 7.94732 7.85355 7.85355C7.94732 7.75979 8 7.63261 8 7.5V7.207L8.207 7H8.5C8.63261 7 8.75979 6.94732 8.85355 6.85355C8.94732 6.75979 9 6.63261 9 6.5C9 6.36739 8.94732 6.24022 8.85355 6.14645C8.75979 6.05268 8.63261 6 8.5 6H8ZM12 6C11.9343 5.99988 11.8692 6.01272 11.8085 6.03777C11.7477 6.06282 11.6925 6.0996 11.646 6.146L11.146 6.646C11.0996 6.69252 11.0628 6.74773 11.0378 6.80847C11.0127 6.86921 10.9999 6.9343 11 7V7.5C11 7.63261 11.0527 7.75979 11.1464 7.85355C11.2402 7.94732 11.3674 8 11.5 8C11.6326 8 11.7598 7.94732 11.8536 7.85355C11.9473 7.75979 12 7.63261 12 7.5V7.207L12.207 7H12.5C12.6326 7 12.7598 6.94732 12.8536 6.85355C12.9473 6.75979 13 6.63261 13 6.5C13 6.36739 12.9473 6.24022 12.8536 6.14645C12.7598 6.05268 12.6326 6 12.5 6H12ZM9.5 9C9.36739 9 9.24022 9.05268 9.14645 9.14645C9.05268 9.24022 9 9.36739 9 9.5C9 9.63261 9.05268 9.75979 9.14645 9.85355C9.24022 9.94732 9.36739 10 9.5 10H10.5C10.6326 10 10.7598 9.94732 10.8536 9.85355C10.9473 9.75979 11 9.63261 11 9.5C11 9.36739 10.9473 9.24022 10.8536 9.14645C10.7598 9.05268 10.6326 9 10.5 9H9.5Z" fill="currentColor"/>
</svg>
