<svg width="20" height="20" viewBox="0 0 20 20" fill="none" xmlns="http://www.w3.org/2000/svg">
<path d="M9.516 2.99C9.97359 2.98948 10.4268 3.0792 10.8497 3.25404C11.2725 3.42888 11.6568 3.6854 11.9804 4.00892C12.304 4.33243 12.5606 4.7166 12.7356 5.13942C12.9105 5.56224 13.0004 6.01541 13 6.473V9.488C13 9.62027 12.9476 9.74714 12.8543 9.84085C12.7609 9.93456 12.6343 9.98747 12.502 9.988L8.492 9.996C8.35939 9.996 8.23221 9.94332 8.13845 9.84956C8.04468 9.75579 7.992 9.62861 7.992 9.496L8 3.525V3.487C8.00053 3.35474 8.05344 3.22808 8.14715 3.13474C8.24086 3.04141 8.36774 2.989 8.5 2.989L9.516 2.99ZM7 2.99V3.99H5.484C5.15733 3.98801 4.8335 4.05087 4.5313 4.17494C4.22909 4.299 3.95451 4.48181 3.72346 4.71276C3.49242 4.94371 3.3095 5.21822 3.18532 5.52037C3.06113 5.82253 2.99814 6.14633 3 6.473V14.504C3 15.889 4.1 16.988 5.484 16.988H9.516C10.9 16.988 12 15.888 12 14.504V10.99H13V14.506C12.9989 15.4297 12.6315 16.3152 11.9784 16.9684C11.3252 17.6215 10.4397 17.9889 9.516 17.99H5.484C4.56014 17.9889 3.67443 17.6214 3.02126 16.968C2.36808 16.3147 2.00079 15.4289 2 14.505V6.474C2.00079 5.55014 2.36808 4.66433 3.02126 4.01097C3.67443 3.3576 4.56014 2.99006 5.484 2.989L7 2.99ZM14.477 2.011C14.3777 2.01493 14.2818 2.04839 14.2015 2.10709C14.1213 2.16579 14.0604 2.24708 14.0266 2.34056C13.9928 2.43405 13.9876 2.5355 14.0117 2.63194C14.0358 2.72838 14.0882 2.81544 14.162 2.882C14.75 3.427 15.004 3.968 15.004 4.484L15 10.489C15 10.6216 15.0527 10.7488 15.1464 10.8426C15.2402 10.9363 15.3674 10.989 15.5 10.989C15.6326 10.989 15.7598 10.9363 15.8536 10.8426C15.9473 10.7488 16 10.6216 16 10.489L16.004 4.484C16.004 3.633 15.572 2.824 14.842 2.148C14.7934 2.10189 14.7361 2.066 14.6734 2.04246C14.6107 2.01893 14.5439 2.00823 14.477 2.011ZM17.492 4.027C17.3599 4.02911 17.234 4.0834 17.1418 4.17803C17.0497 4.27265 16.9987 4.39991 17 4.532V8.591C17 8.72361 17.0527 8.85079 17.1464 8.94456C17.2402 9.03832 17.3674 9.091 17.5 9.091C17.6326 9.091 17.7598 9.03832 17.8536 8.94456C17.9473 8.85079 18 8.72361 18 8.591V4.532C18.0007 4.46524 17.988 4.39903 17.9626 4.33725C17.9373 4.27548 17.8999 4.21941 17.8525 4.17234C17.8052 4.12527 17.7489 4.08816 17.687 4.0632C17.625 4.03824 17.5588 4.02593 17.492 4.027Z" fill="currentColor"/>
</svg>
