<svg width="20" height="20" viewBox="0 0 20 20" fill="none" xmlns="http://www.w3.org/2000/svg">
<path d="M5.484 2.99C5.02641 2.98947 4.57321 3.0792 4.15034 3.25404C3.72747 3.42887 3.34323 3.68539 3.01962 4.00891C2.69601 4.33243 2.43938 4.71659 2.26442 5.13942C2.08946 5.56224 1.9996 6.01541 2 6.473V9.488C2 9.62026 2.0524 9.74714 2.14574 9.84085C2.23907 9.93456 2.36574 9.98747 2.498 9.988L6.508 9.996C6.64061 9.996 6.76778 9.94332 6.86155 9.84955C6.95532 9.75578 7.008 9.62861 7.008 9.496L7 3.525V3.487C6.99947 3.35474 6.94656 3.22807 6.85285 3.13474C6.75914 3.0414 6.63226 2.989 6.5 2.989L5.484 2.99ZM8 2.99V3.99H9.516C10.9 3.99 12 5.09 12 6.473V14.504C12 15.889 10.9 16.988 9.516 16.988H5.484C5.15732 16.99 4.8335 16.9271 4.5313 16.8031C4.22909 16.679 3.95451 16.4962 3.72346 16.2652C3.49242 16.0343 3.3095 15.7598 3.18532 15.4576C3.06113 15.1555 2.99814 14.8317 3 14.505V10.99H2V14.506C2.00106 15.4297 2.36846 16.3152 3.02161 16.9684C3.67476 17.6215 4.56031 17.9889 5.484 17.99H9.516C10.4399 17.9889 11.3256 17.6214 11.9787 16.968C12.6319 16.3147 12.9992 15.4289 13 14.505V6.474C12.9992 5.55014 12.6319 4.66433 11.9787 4.01096C11.3256 3.3576 10.4399 2.99006 9.516 2.989L8 2.99ZM14.477 2.011C14.3777 2.01493 14.2818 2.04838 14.2015 2.10708C14.1213 2.16579 14.0604 2.24707 14.0266 2.34056C13.9928 2.43405 13.9876 2.53549 14.0117 2.63193C14.0358 2.72838 14.0882 2.81544 14.162 2.882C14.75 3.427 15.004 3.968 15.004 4.484L15 10.489C15 10.6216 15.0527 10.7488 15.1464 10.8426C15.2402 10.9363 15.3674 10.989 15.5 10.989C15.6326 10.989 15.7598 10.9363 15.8536 10.8426C15.9473 10.7488 16 10.6216 16 10.489L16.004 4.484C16.004 3.633 15.572 2.824 14.842 2.148C14.7934 2.10188 14.7361 2.06599 14.6734 2.04246C14.6107 2.01892 14.5439 2.00823 14.477 2.011ZM17.492 4.027C17.3599 4.02911 17.234 4.0834 17.1418 4.17802C17.0497 4.27264 16.9987 4.3999 17 4.532V8.591C17 8.72361 17.0527 8.85078 17.1464 8.94455C17.2402 9.03832 17.3674 9.091 17.5 9.091C17.6326 9.091 17.7598 9.03832 17.8536 8.94455C17.9473 8.85078 18 8.72361 18 8.591V4.532C18.0007 4.46524 17.988 4.39902 17.9626 4.33725C17.9373 4.27548 17.8999 4.2194 17.8525 4.17234C17.8052 4.12527 17.7489 4.08816 17.687 4.0632C17.625 4.03824 17.5588 4.02593 17.492 4.027Z" fill="currentColor"/>
</svg>
