<svg width="20" height="20" viewBox="0 0 20 20" fill="none" xmlns="http://www.w3.org/2000/svg">
<path d="M5.484 2.99C4.56048 2.99106 3.67508 3.35832 3.02196 4.01125C2.36884 4.66419 2.00132 5.54948 2 6.473V14.504C2.00106 15.4277 2.36846 16.3132 3.02161 16.9664C3.67476 17.6195 4.56031 17.9869 5.484 17.988H9.516C10.4395 17.9869 11.3249 17.6197 11.978 16.9667C12.6312 16.3138 12.9987 15.4285 13 14.505V6.474C12.9992 5.55014 12.6319 4.66433 11.9787 4.01096C11.3256 3.3576 10.4399 2.99006 9.516 2.989L5.484 2.99ZM5.484 3.99H9.516C10.9 3.99 12 5.09 12 6.473V14.504C12 15.889 10.9 16.988 9.516 16.988H5.484C5.15733 16.99 4.8335 16.9271 4.5313 16.8031C4.22909 16.679 3.95451 16.4962 3.72346 16.2652C3.49242 16.0343 3.3095 15.7598 3.18532 15.4576C3.06113 15.1555 2.99814 14.8317 3 14.505V6.474C3 5.089 4.1 3.989 5.484 3.989V3.99ZM7.047 4.99C6.476 4.99 6 5.464 6 6.035V9.942C6 10.512 6.476 10.988 7.047 10.988H7.953C8.22985 10.9864 8.49495 10.8759 8.6909 10.6803C8.88686 10.4847 8.9979 10.2198 9 9.943V6.036C9 5.465 8.524 4.989 7.953 4.989L7.047 4.99ZM14.477 2.011C14.3777 2.01493 14.2818 2.04838 14.2015 2.10708C14.1213 2.16579 14.0604 2.24707 14.0266 2.34056C13.9928 2.43405 13.9876 2.53549 14.0117 2.63193C14.0358 2.72838 14.0882 2.81544 14.162 2.882C14.75 3.427 15.004 3.968 15.004 4.484L15 10.489C15 10.6216 15.0527 10.7488 15.1464 10.8426C15.2402 10.9363 15.3674 10.989 15.5 10.989C15.6326 10.989 15.7598 10.9363 15.8536 10.8426C15.9473 10.7488 16 10.6216 16 10.489L16.004 4.484C16.004 3.633 15.572 2.824 14.842 2.148C14.7934 2.10188 14.7361 2.06599 14.6734 2.04246C14.6107 2.01892 14.5439 2.00823 14.477 2.011ZM17.492 4.027C17.3599 4.02911 17.234 4.0834 17.1418 4.17802C17.0497 4.27264 16.9987 4.3999 17 4.532V8.591C17 8.72361 17.0527 8.85078 17.1464 8.94455C17.2402 9.03832 17.3674 9.091 17.5 9.091C17.6326 9.091 17.7598 9.03832 17.8536 8.94455C17.9473 8.85078 18 8.72361 18 8.591V4.532C18.0007 4.46524 17.988 4.39902 17.9626 4.33725C17.9373 4.27548 17.8999 4.2194 17.8525 4.17234C17.8052 4.12527 17.7489 4.08816 17.687 4.0632C17.625 4.03824 17.5588 4.02593 17.492 4.027Z" fill="currentColor"/>
</svg>
