<svg width="20" height="20" viewBox="0 0 20 20" fill="none" xmlns="http://www.w3.org/2000/svg">
<path d="M7.49201 4.98201C7.42634 4.98305 7.36152 4.99702 7.30126 5.02311C7.24099 5.04921 7.18647 5.0869 7.14078 5.13408C7.09509 5.18125 7.05915 5.23698 7.03499 5.29805C7.01084 5.35911 6.99894 5.42434 7 5.49V9.49C7 9.62261 7.05269 9.74978 7.14646 9.84355C7.24023 9.93732 7.3674 9.99 7.5 9.99C7.63261 9.99 7.75978 9.93732 7.85355 9.84355C7.94732 9.74978 8 9.62261 8 9.49V5.49C8.00108 5.42299 7.98868 5.35645 7.96354 5.29432C7.93839 5.2322 7.90102 5.17576 7.85363 5.12837C7.80624 5.08098 7.74979 5.04362 7.68767 5.01847C7.62555 4.99333 7.55902 4.98093 7.49201 4.98201Z" fill="currentColor"/>
<path d="M14.477 2.011C14.3774 2.01472 14.2813 2.04809 14.2008 2.10685C14.1204 2.16561 14.0593 2.24707 14.0254 2.34077C13.9916 2.43447 13.9865 2.53615 14.0108 2.63276C14.0352 2.72937 14.0878 2.81651 14.162 2.883C14.75 3.427 15.004 3.96799 15.004 4.48399L15 10.49C15 10.6226 15.0527 10.7498 15.1464 10.8435C15.2402 10.9373 15.3674 10.99 15.5 10.99C15.6326 10.99 15.7598 10.9373 15.8536 10.8435C15.9473 10.7498 16 10.6226 16 10.49L16.004 4.48399C16.004 3.63399 15.572 2.82399 14.842 2.14799C14.7934 2.10187 14.7361 2.06599 14.6734 2.04246C14.6107 2.01892 14.5439 2.00822 14.477 2.011ZM5.562 2.99C4.61745 2.99106 3.71191 3.36681 3.04411 4.0348C2.3763 4.70279 2.00079 5.60844 2 6.55299V14.428C2.00106 15.3725 2.37682 16.2781 3.04481 16.9459C3.7128 17.6137 4.61845 17.9892 5.563 17.99H9.437C10.3817 17.9892 11.2875 17.6136 11.9555 16.9455C12.6236 16.2775 12.9992 15.3717 13 14.427V6.55201C12.9989 5.60746 12.6232 4.7019 11.9552 4.0341C11.2872 3.36629 10.3815 2.99079 9.437 2.99H5.562ZM5.562 3.99H9.438C9.77513 3.98787 10.1093 4.05273 10.4212 4.1808C10.733 4.30886 11.0164 4.49757 11.2547 4.736C11.493 4.97444 11.6817 5.25783 11.8096 5.56974C11.9375 5.88165 12.0023 6.21586 12 6.55299V14.428C12.0021 14.7651 11.9373 15.0993 11.8092 15.4112C11.6811 15.723 11.4924 16.0064 11.254 16.2447C11.0156 16.483 10.7322 16.6717 10.4202 16.7996C10.1083 16.9275 9.77412 16.9923 9.437 16.99H5.563C5.2258 16.9923 4.89149 16.9275 4.57951 16.7995C4.26754 16.6715 3.9841 16.4828 3.74565 16.2444C3.5072 16.0059 3.3185 15.7224 3.1905 15.4105C3.0625 15.0985 2.99774 14.7642 3 14.427V6.55201C2.99787 6.21489 3.06273 5.88069 3.19079 5.56883C3.31885 5.25696 3.50758 4.97364 3.74601 4.7353C3.98444 4.49696 4.26784 4.30834 4.57975 4.1804C4.89166 4.05246 5.22588 3.98774 5.563 3.99H5.562ZM17.492 4.02699C17.3597 4.02909 17.2337 4.08355 17.1415 4.17838C17.0493 4.27322 16.9984 4.40073 17 4.533V8.59199C17 8.7246 17.0527 8.8518 17.1464 8.94557C17.2402 9.03933 17.3674 9.09199 17.5 9.09199C17.6326 9.09199 17.7598 9.03933 17.8536 8.94557C17.9473 8.8518 18 8.7246 18 8.59199V4.533C18.0008 4.46616 17.9882 4.39982 17.9629 4.33793C17.9377 4.27604 17.9003 4.21985 17.8529 4.17268C17.8055 4.1255 17.7492 4.0883 17.6872 4.06327C17.6252 4.03825 17.5588 4.02591 17.492 4.02699Z" fill="currentColor"/>
</svg>
