<svg width="20" height="20" viewBox="0 0 20 20" fill="none" xmlns="http://www.w3.org/2000/svg">
<path d="M12.016 2.5C12.4737 2.49948 12.927 2.58923 13.3499 2.76413C13.7728 2.93903 14.1571 3.19564 14.4807 3.51927C14.8044 3.84289 15.061 4.22717 15.2359 4.65011C15.4108 5.07305 15.5005 5.52633 15.5 5.984V9C15.5 9.13226 15.4476 9.25914 15.3543 9.35285C15.2609 9.44656 15.1343 9.49947 15.002 9.5L10.992 9.508C10.8594 9.508 10.7322 9.45532 10.6384 9.36156C10.5447 9.26779 10.492 9.14061 10.492 9.008L10.5 3.035V2.998C10.5005 2.86574 10.5534 2.73908 10.6472 2.64574C10.7409 2.55241 10.8677 2.5 11 2.5H12.016ZM9.5 2.5V3.5H7.984C7.65724 3.49801 7.33334 3.5609 7.03106 3.68503C6.72879 3.80916 6.45417 3.99205 6.22311 4.22311C5.99205 4.45417 5.80915 4.72879 5.68503 5.03107C5.5609 5.33334 5.49801 5.65724 5.5 5.984V14.016C5.5 15.4 6.6 16.5 7.984 16.5H12.016C13.4 16.5 14.5 15.4 14.5 14.016V10.5H15.5V14.016C15.4989 14.9397 15.1315 15.8252 14.4784 16.4784C13.8252 17.1315 12.9397 17.4989 12.016 17.5H7.984C7.06031 17.4989 6.17476 17.1315 5.52161 16.4784C4.86846 15.8252 4.50106 14.9397 4.5 14.016V5.984C4.50106 5.06031 4.86846 4.17476 5.52161 3.52161C6.17476 2.86846 7.06031 2.50106 7.984 2.5H9.5Z" fill="currentColor"/>
</svg>
