<svg width="20" height="20" viewBox="0 0 20 20" fill="none" xmlns="http://www.w3.org/2000/svg">
<path d="M14.499 5C14.5885 5.00243 14.6758 5.02887 14.7516 5.07654C14.8274 5.12421 14.889 5.19137 14.93 5.271C16.37 7.991 16.368 12.013 14.922 14.731C14.8917 14.79 14.8499 14.8423 14.7992 14.885C14.7484 14.9276 14.6897 14.9598 14.6264 14.9796C14.5631 14.9993 14.4965 15.0063 14.4305 15.0001C14.3645 14.9938 14.3003 14.9745 14.2419 14.9433C14.1834 14.9121 14.1317 14.8695 14.0898 14.8181C14.0479 14.7667 14.0167 14.7075 13.9979 14.6439C13.9791 14.5803 13.9731 14.5136 13.9804 14.4477C13.9876 14.3818 14.0079 14.318 14.04 14.26C15.284 11.921 15.285 8.08001 14.046 5.74001C14.0037 5.66279 13.9825 5.57577 13.9847 5.48775C13.9868 5.39973 14.0121 5.31383 14.0581 5.23874C14.104 5.16365 14.169 5.10203 14.2464 5.06011C14.3239 5.01818 14.411 4.99745 14.499 5ZM12.503 6.998C12.6353 7.00011 12.7613 7.05455 12.8535 7.14938C12.9457 7.24422 12.9966 7.37173 12.995 7.504V12.496C12.995 12.6286 12.9423 12.7558 12.8486 12.8495C12.7548 12.9433 12.6276 12.996 12.495 12.996C12.3624 12.996 12.2352 12.9433 12.1415 12.8495C12.0477 12.7558 11.995 12.6286 11.995 12.496V7.504C11.9942 7.43716 12.0068 7.37083 12.0321 7.30895C12.0573 7.24706 12.0947 7.19087 12.1421 7.14369C12.1895 7.09652 12.2458 7.05931 12.3078 7.03429C12.3698 7.00926 12.4362 6.99693 12.503 6.998ZM9.241 4C9.17529 3.99988 9.11021 4.01271 9.04947 4.03777C8.98873 4.06282 8.93351 4.0996 8.887 4.146L6.034 7H4.491C4.35839 7 4.23122 7.05269 4.13745 7.14645C4.04368 7.24022 3.991 7.36739 3.991 7.5V12.5C3.991 12.6326 4.04368 12.7598 4.13745 12.8535C4.23122 12.9473 4.35839 13 4.491 13H6.034L8.887 15.854C8.93351 15.9004 8.98873 15.9372 9.04947 15.9622C9.11021 15.9873 9.17529 16.0001 9.241 16H9.491C9.62361 16 9.75078 15.9473 9.84455 15.8535C9.93831 15.7598 9.991 15.6326 9.991 15.5V4.5C9.991 4.36739 9.93831 4.24022 9.84455 4.14645C9.75078 4.05269 9.62361 4 9.491 4H9.241Z" fill="currentColor"/>
</svg>
