<svg width="20" height="20" viewBox="0 0 20 20" fill="none" xmlns="http://www.w3.org/2000/svg">
<path d="M12 4C11.9343 3.99988 11.8692 4.01272 11.8085 4.03777C11.7477 4.06282 11.6925 4.0996 11.646 4.146L8.793 7H7C6.86739 7 6.74021 7.05268 6.64645 7.14645C6.55268 7.24022 6.5 7.36739 6.5 7.5V12.5C6.5 12.6326 6.55268 12.7598 6.64645 12.8536C6.74021 12.9473 6.86739 13 7 13H8.793L11.646 15.854C11.6925 15.9004 11.7477 15.9372 11.8085 15.9622C11.8692 15.9873 11.9343 16.0001 12 16H13C13.1326 16 13.2598 15.9473 13.3536 15.8536C13.4473 15.7598 13.5 15.6326 13.5 15.5V4.5C13.5 4.36739 13.4473 4.24022 13.3536 4.14645C13.2598 4.05268 13.1326 4 13 4H12ZM12.207 5H12.5V15H12.207L9.354 12.146C9.30748 12.0996 9.25227 12.0628 9.19153 12.0378C9.13079 12.0127 9.0657 11.9999 9 12H7.5V8H9C9.0657 8.00012 9.13079 7.98728 9.19153 7.96223C9.25227 7.93718 9.30748 7.9004 9.354 7.854L12.207 5Z" fill="currentColor"/>
</svg>
