<svg width="20" height="20" viewBox="0 0 20 20" fill="none" xmlns="http://www.w3.org/2000/svg">
<path d="M15.5 2.5C14.677 2.5 14 3.177 14 4C14 4.23 14.058 4.447 14.152 4.643C14.15 4.64399 14.148 4.64499 14.146 4.646L12.293 6.5H11.5C11.3674 6.5 11.2402 6.55268 11.1464 6.64645C11.0527 6.74021 11 6.86739 11 7C11 7.13261 11.0527 7.25979 11.1464 7.35355C11.2402 7.44732 11.3674 7.5 11.5 7.5H12.5C12.5657 7.50012 12.6308 7.48728 12.6915 7.46223C12.7523 7.43718 12.8075 7.4004 12.854 7.354L14.854 5.354C14.8554 5.35201 14.8567 5.35001 14.858 5.348C15.053 5.442 15.27 5.5 15.5 5.5C16.323 5.5 17 4.823 17 4C17 3.177 16.323 2.5 15.5 2.5ZM15.5 3.5C15.782 3.5 16 3.718 16 4C16 4.282 15.782 4.5 15.5 4.5C15.4341 4.50094 15.3686 4.48865 15.3076 4.46386C15.2465 4.43907 15.191 4.40227 15.1443 4.35566C15.0977 4.30904 15.0609 4.25354 15.0361 4.19245C15.0113 4.13136 14.9991 4.06592 15 4C15 3.718 15.218 3.5 15.5 3.5ZM15.5 8.5C14.853 8.5 14.302 8.921 14.094 9.5H11.5C11.3674 9.5 11.2402 9.55268 11.1464 9.64645C11.0527 9.74021 11 9.86739 11 10C11 10.1326 11.0527 10.2598 11.1464 10.3536C11.2402 10.4473 11.3674 10.5 11.5 10.5H14.094C14.302 11.079 14.854 11.5 15.5 11.5C16.323 11.5 17 10.823 17 10C17 9.177 16.323 8.5 15.5 8.5ZM15.5 9.5C15.782 9.5 16 9.718 16 10C16 10.282 15.782 10.5 15.5 10.5C15.4341 10.5009 15.3686 10.4887 15.3076 10.4639C15.2465 10.4391 15.191 10.4023 15.1443 10.3557C15.0977 10.309 15.0609 10.2535 15.0361 10.1925C15.0113 10.1314 14.9991 10.0659 15 10C15 9.718 15.218 9.5 15.5 9.5ZM11.5 12.492C11.3674 12.492 11.2402 12.5447 11.1464 12.6384C11.0527 12.7322 11 12.8594 11 12.992C11 13.1246 11.0527 13.2518 11.1464 13.3456C11.2402 13.4393 11.3674 13.492 11.5 13.492H12.293L14.146 15.346C14.1486 15.3487 14.1513 15.3514 14.154 15.354C14.0541 15.5548 14.0015 15.7757 14 16C14 16.823 14.677 17.5 15.5 17.5C16.323 17.5 17 16.823 17 16C17 15.177 16.323 14.5 15.5 14.5C15.272 14.5 15.057 14.556 14.863 14.648C14.8597 14.6446 14.8564 14.6413 14.853 14.638L12.853 12.638C12.7593 12.5445 12.6324 12.492 12.5 12.492H11.5ZM15.5 15.5C15.782 15.5 16 15.718 16 16C16 16.282 15.782 16.5 15.5 16.5C15.4341 16.5009 15.3686 16.4887 15.3076 16.4639C15.2465 16.4391 15.191 16.4023 15.1443 16.3557C15.0977 16.309 15.0609 16.2535 15.0361 16.1925C15.0113 16.1314 14.9991 16.0659 15 16C15 15.718 15.218 15.5 15.5 15.5Z" fill="currentColor"/>
<path d="M7 13.5H8V14.5H7V13.5ZM5 13.5H6V14.5H5V13.5ZM4.53699 5.5C3.69399 5.5 3 6.194 3 7.037V14.963C3 15.806 3.69399 16.5 4.53699 16.5H10.463C10.8698 16.4974 11.2593 16.3346 11.5469 16.0469C11.8346 15.7593 11.9974 15.3698 12 14.963V7.037C12 6.194 11.306 5.5 10.463 5.5H4.53699ZM4.53699 12.5H10.463C10.769 12.5 11 12.731 11 13.037V14.963C11.0015 15.0339 10.9886 15.1044 10.9622 15.1703C10.9357 15.2361 10.8962 15.2959 10.8461 15.3461C10.7959 15.3962 10.7361 15.4357 10.6703 15.4622C10.6045 15.4886 10.5339 15.5015 10.463 15.5H4.53699C4.46606 15.5015 4.39554 15.4886 4.32971 15.4622C4.26388 15.4357 4.2041 15.3962 4.15393 15.3461C4.10376 15.2959 4.0643 15.2361 4.03784 15.1703C4.01139 15.1044 3.9985 15.0339 4 14.963V13.037C4 12.731 4.23099 12.5 4.53699 12.5Z" fill="currentColor"/>
</svg>
