<svg width="20" height="20" viewBox="0 0 20 20" fill="none" xmlns="http://www.w3.org/2000/svg">
<path d="M3 5C2.86739 5 2.74022 5.05268 2.64645 5.14645C2.55269 5.24021 2.5 5.36739 2.5 5.5V16.5C2.5 16.6326 2.55269 16.7598 2.64645 16.8536C2.74022 16.9473 2.86739 17 3 17H15C15.1326 17 15.2598 16.9473 15.3535 16.8536C15.4473 16.7598 15.5 16.6326 15.5 16.5V10.941C15.18 11.049 14.845 11.117 14.5 11.154V16H3.5V9C5.511 9.017 7.75799 9.005 10.041 9C9.6603 8.39524 9.42421 7.71084 9.35101 7H6.5V5.5C6.5 5.36739 6.44731 5.24021 6.35355 5.14645C6.25978 5.05268 6.13261 5 6 5H3Z" fill="currentColor"/>
<path d="M14 3C13.0717 3 12.1815 3.36875 11.5251 4.02512C10.8687 4.6815 10.5 5.57174 10.5 6.5C10.5 7.42826 10.8687 8.3185 11.5251 8.97488C12.1815 9.63125 13.0717 10 14 10C14.9283 10 15.8185 9.63125 16.4749 8.97488C17.1313 8.3185 17.5 7.42826 17.5 6.5C17.5 5.57174 17.1313 4.6815 16.4749 4.02512C15.8185 3.36875 14.9283 3 14 3ZM13.5 4H14.5V6H16.5V7H14.5V9H13.5V7H11.5V6H13.5V4Z" fill="currentColor"/>
</svg>
