<svg width="20" height="20" viewBox="0 0 20 20" fill="none" xmlns="http://www.w3.org/2000/svg">
<path d="M3.01 6C2.94339 5.99826 2.87712 6.00992 2.81511 6.03431C2.7531 6.05869 2.69663 6.09529 2.64905 6.14194C2.60148 6.18858 2.56376 6.24432 2.53816 6.30583C2.51255 6.36734 2.49957 6.43337 2.5 6.5V13.5C2.49954 13.5963 2.52693 13.6908 2.57887 13.7719C2.6308 13.8531 2.70508 13.9175 2.79276 13.9574C2.88044 13.9973 2.97779 14.0111 3.0731 13.997C3.16841 13.9829 3.25762 13.9416 3.33 13.878L7.33 10.378C7.38387 10.3311 7.42706 10.2731 7.45665 10.2081C7.48625 10.1431 7.50156 10.0724 7.50156 10.001C7.50156 9.92955 7.48625 9.85893 7.45665 9.7939C7.42706 9.72887 7.38387 9.67093 7.33 9.624L3.33 6.124C3.24144 6.04598 3.12801 6.00203 3.01 6ZM12.973 5C12.84 5.00885 12.7158 5.06953 12.627 5.169L8.627 9.669C8.54574 9.7605 8.50086 9.87863 8.50086 10.001C8.50086 10.1234 8.54574 10.2415 8.627 10.333L12.627 14.833C12.6739 14.8855 12.7314 14.9276 12.7957 14.9564C12.8599 14.9851 12.9296 15 13 15C13.0704 15 13.1401 14.9851 13.2043 14.9564C13.2686 14.9276 13.3261 14.8855 13.373 14.833L17.373 10.333C17.4543 10.2415 17.4991 10.1234 17.4991 10.001C17.4991 9.87863 17.4543 9.7605 17.373 9.669L13.373 5.169C13.3232 5.11275 13.2614 5.06844 13.1922 5.03936C13.1229 5.01027 13.048 4.99716 12.973 5.001V5Z" fill="currentColor"/>
</svg>
