<svg width="20" height="20" viewBox="0 0 20 20" fill="none" xmlns="http://www.w3.org/2000/svg">
<path d="M3.5 10C3.36739 10 3.24022 9.94731 3.14645 9.85355C3.05269 9.75978 3 9.63261 3 9.5V6.5C3 6.36739 3.05269 6.24022 3.14645 6.14645C3.24022 6.05269 3.36739 6 3.5 6H9V7H4V9H9V10H3.5ZM12 10V9H14V7H12V6H14.5C14.6326 6 14.7598 6.05269 14.8535 6.14645C14.9473 6.24022 15 6.36739 15 6.5V9.5C15 9.63261 14.9473 9.75978 14.8535 9.85355C14.7598 9.94731 14.6326 10 14.5 10H12Z" fill="currentColor"/>
<path d="M5.5 7C5.36739 7 5.24022 6.94731 5.14645 6.85355C5.05269 6.75978 5 6.63261 5 6.5V3.5C5 3.36739 5.05269 3.24022 5.14645 3.14645C5.24022 3.05269 5.36739 3 5.5 3H9V4H6V6H9V7H5.5ZM12 7V6H16V4H12V3H16.5C16.6326 3 16.7598 3.05269 16.8535 3.14645C16.9473 3.24022 17 3.36739 17 3.5V6.5C17 6.63261 16.9473 6.75978 16.8535 6.85355C16.7598 6.94731 16.6326 7 16.5 7H12Z" fill="currentColor"/>
<path d="M10 3V16.965H11V3H10ZM5.5 13C5.36739 13 5.24022 13.0527 5.14645 13.1464C5.05269 13.2402 5 13.3674 5 13.5V16.5C5 16.6326 5.05269 16.7598 5.14645 16.8536C5.24022 16.9473 5.36739 17 5.5 17H9V13H5.5ZM12 13V17H16.5C16.6326 17 16.7598 16.9473 16.8535 16.8536C16.9473 16.7598 17 16.6326 17 16.5V13.5C17 13.3674 16.9473 13.2402 16.8535 13.1464C16.7598 13.0527 16.6326 13 16.5 13H12Z" fill="currentColor"/>
</svg>
