<svg width="20" height="20" viewBox="0 0 20 20" fill="none" xmlns="http://www.w3.org/2000/svg">
<path d="M3.5 17C3.36739 17 3.24022 16.9473 3.14645 16.8535C3.05269 16.7598 3 16.6326 3 16.5V13.5C3 13.3674 3.05269 13.2402 3.14645 13.1465C3.24022 13.0527 3.36739 13 3.5 13H13.5C13.6326 13 13.7598 13.0527 13.8535 13.1465C13.9473 13.2402 14 13.3674 14 13.5V16.5C14 16.6326 13.9473 16.7598 13.8535 16.8535C13.7598 16.9473 13.6326 17 13.5 17H3.5ZM4 16H13V14H4V16Z" fill="currentColor"/>
<path d="M7.5 14C7.36739 14 7.24022 13.9473 7.14645 13.8535C7.05269 13.7598 7 13.6326 7 13.5V10.5C7 10.3674 7.05269 10.2402 7.14645 10.1465C7.24022 10.0527 7.36739 10 7.5 10H16.5C16.6326 10 16.7598 10.0527 16.8535 10.1465C16.9473 10.2402 17 10.3674 17 10.5V13.5C17 13.6326 16.9473 13.7598 16.8535 13.8535C16.7598 13.9473 16.6326 14 16.5 14H7.5ZM8 13H16V11H8V13Z" fill="currentColor"/>
<path d="M6.5 3C6.40714 3 6.31612 3.02586 6.23714 3.07468C6.15815 3.12349 6.09431 3.19334 6.05279 3.2764C6.01126 3.35945 5.99368 3.45243 6.00202 3.54491C6.01036 3.63739 6.04428 3.72572 6.1 3.8L9.1 7.8C9.14657 7.8621 9.20696 7.91251 9.27639 7.94722C9.34582 7.98193 9.42238 8 9.5 8C9.57762 8 9.65418 7.98193 9.72361 7.94722C9.79304 7.91251 9.85343 7.8621 9.9 7.8L12.9 3.8C12.9557 3.72572 12.9896 3.63739 12.998 3.54491C13.0063 3.45243 12.9887 3.35945 12.9472 3.2764C12.9057 3.19334 12.8418 3.12349 12.7629 3.07468C12.6839 3.02586 12.5929 3 12.5 3H6.5Z" fill="currentColor"/>
</svg>
