<svg width="20" height="20" viewBox="0 0 20 20" fill="none" xmlns="http://www.w3.org/2000/svg">
<path d="M3.5 7.496C3.36739 7.496 3.24021 7.54868 3.14645 7.64245C3.05268 7.73622 3 7.86339 3 7.996V11.996C3 12.1286 3.05268 12.2558 3.14645 12.3496C3.24021 12.4433 3.36739 12.496 3.5 12.496C3.63261 12.496 3.75979 12.4433 3.85355 12.3496C3.94732 12.2558 4 12.1286 4 11.996V8.496H16V11.996C16 12.1286 16.0527 12.2558 16.1464 12.3496C16.2402 12.4433 16.3674 12.496 16.5 12.496C16.6326 12.496 16.7598 12.4433 16.8536 12.3496C16.9473 12.2558 17 12.1286 17 11.996V7.996C17 7.86339 16.9473 7.73622 16.8536 7.64245C16.7598 7.54868 16.6326 7.496 16.5 7.496H3.5Z" fill="currentColor"/>
</svg>
