<svg width="20" height="20" viewBox="0 0 20 20" fill="none" xmlns="http://www.w3.org/2000/svg">
<path d="M7.5 3C7.36739 3 7.24022 3.05266 7.14645 3.14642C7.05269 3.24019 7 3.36739 7 3.5V12.5C7 12.6326 7.05269 12.7598 7.14645 12.8536C7.24022 12.9473 7.36739 13 7.5 13H16.5C16.6326 13 16.7598 12.9473 16.8535 12.8536C16.9473 12.7598 17 12.6326 17 12.5V3.5C17 3.36739 16.9473 3.24019 16.8535 3.14642C16.7598 3.05266 16.6326 3 16.5 3H7.5ZM8 4H16V12H8V4Z" fill="currentColor"/>
<path d="M5.49201 4.99201C5.42635 4.99305 5.36154 5.00699 5.30127 5.03309C5.24101 5.05918 5.18647 5.09693 5.14078 5.14411C5.09509 5.19128 5.05913 5.24698 5.03498 5.30805C5.01082 5.36912 4.99894 5.43434 5 5.5V14.5C5 14.6326 5.05269 14.7598 5.14646 14.8536C5.24023 14.9473 5.3674 15 5.5 15H14.5C14.6326 15 14.7598 14.9473 14.8535 14.8536C14.9473 14.7598 15 14.6326 15 14.5C15 14.3674 14.9473 14.2402 14.8535 14.1464C14.7598 14.0527 14.6326 14 14.5 14H6V5.5C6.00109 5.43299 5.98868 5.36645 5.96354 5.30433C5.93839 5.2422 5.901 5.18576 5.85361 5.13837C5.80622 5.09098 5.74981 5.05359 5.68769 5.02845C5.62557 5.0033 5.55902 4.99093 5.49201 4.99201ZM3.49201 6.99201C3.42634 6.99305 3.36154 7.00699 3.30127 7.03309C3.24101 7.05918 3.18647 7.09693 3.14078 7.14411C3.09509 7.19128 3.05913 7.24698 3.03498 7.30805C3.01082 7.36912 2.99895 7.43434 3 7.5V16.5C3 16.6326 3.05269 16.7598 3.14646 16.8536C3.24023 16.9473 3.3674 17 3.5 17H12.5C12.6326 17 12.7598 16.9473 12.8535 16.8536C12.9473 16.7598 13 16.6326 13 16.5C13 16.3674 12.9473 16.2402 12.8535 16.1464C12.7598 16.0527 12.6326 16 12.5 16H4V7.5C4.00109 7.43299 3.98868 7.36645 3.96354 7.30433C3.93839 7.2422 3.901 7.18576 3.85361 7.13837C3.80622 7.09098 3.74981 7.05359 3.68769 7.02845C3.62557 7.0033 3.55902 6.99093 3.49201 6.99201Z" fill="currentColor"/>
<path d="M16.484 3.00001C16.3569 3.00391 16.236 3.05612 16.146 3.14601L7.14598 12.146C7.07587 12.2159 7.02811 12.3051 7.00874 12.4022C6.98938 12.4993 6.99927 12.6 7.03719 12.6915C7.0751 12.783 7.13934 12.8611 7.22173 12.916C7.30412 12.971 7.40096 13.0002 7.49999 13H16.5C16.6326 13 16.7598 12.9474 16.8535 12.8536C16.9473 12.7598 17 12.6326 17 12.5V3.50001C17 3.43298 16.9866 3.36661 16.9605 3.30488C16.9343 3.24315 16.8961 3.18734 16.8479 3.1407C16.7998 3.09405 16.7428 3.05756 16.6803 3.0334C16.6177 3.00923 16.551 2.99787 16.484 3.00001Z" fill="currentColor"/>
</svg>
