<svg width="20" height="20" viewBox="0 0 20 20" fill="none" xmlns="http://www.w3.org/2000/svg">
<path d="M4.46899 3C3.66399 3 3 3.66399 3 4.46899V15.531C3 16.336 3.66399 17 4.46899 17H12.531C13.336 17 14 16.336 14 15.531V14.949C12.318 14.701 11 13.245 11 11.5C11 9.755 12.318 8.29899 14 8.04999V4.46899C14 3.66399 13.336 3 12.531 3H4.46899ZM4 4H13V7H4V4Z" fill="currentColor"/>
<path d="M14.5 14C13.8376 13.9979 13.2029 13.7338 12.7346 13.2654C12.2662 12.7971 12.0021 12.1624 12 11.5C12 10.125 13.125 9 14.5 9C15.875 9 17 10.125 17 11.5C17 12.875 15.875 14 14.5 14Z" fill="currentColor"/>
</svg>
