<svg width="20" height="20" viewBox="0 0 20 20" fill="none" xmlns="http://www.w3.org/2000/svg">
<path d="M2.99199 13.508C2.99304 13.5737 3.00701 13.6385 3.0331 13.6987C3.0592 13.759 3.09691 13.8136 3.14409 13.8593C3.19126 13.9049 3.24696 13.9409 3.30803 13.965C3.3691 13.9892 3.43433 14.0011 3.5 14H6.00399L6.008 16.5C6.008 16.6326 6.06068 16.7598 6.15445 16.8536C6.24821 16.9473 6.37539 17 6.508 17C6.64061 17 6.76779 16.9473 6.86155 16.8536C6.95532 16.7598 7.008 16.6326 7.008 16.5L7.00399 13.5C7.00399 13.3674 6.95132 13.2402 6.85755 13.1464C6.76378 13.0527 6.6366 13 6.50399 13H3.5C3.43299 12.9989 3.36645 13.0113 3.30433 13.0364C3.2422 13.0616 3.18577 13.099 3.13838 13.1464C3.09099 13.1938 3.05361 13.2502 3.02846 13.3123C3.00332 13.3744 2.99091 13.441 2.99199 13.508ZM6.008 11.5C6.008 11.6326 6.06068 11.7598 6.15445 11.8536C6.24821 11.9473 6.37539 12 6.508 12C6.64061 12 6.76779 11.9473 6.86155 11.8536C6.95532 11.7598 7.008 11.6326 7.008 11.5L7.008 8.5C7.008 8.36739 6.95532 8.24019 6.86155 8.14642C6.76779 8.05266 6.64061 8 6.508 8C6.37539 8 6.24821 8.05266 6.15445 8.14642C6.06068 8.24019 6.008 8.36739 6.008 8.5V11.5ZM6.008 6.5C6.008 6.63261 6.06068 6.75981 6.15445 6.85358C6.24821 6.94734 6.37539 7 6.508 7C6.64061 7 6.76779 6.94734 6.86155 6.85358C6.95532 6.75981 7.008 6.63261 7.008 6.5V3.5C7.008 3.36739 6.95532 3.24019 6.86155 3.14642C6.76779 3.05266 6.64061 3 6.508 3C6.37539 3 6.24821 3.05266 6.15445 3.14642C6.06068 3.24019 6.008 3.36739 6.008 3.5L6.008 6.5ZM7.994 13.508C7.99611 13.6403 8.05054 13.7663 8.14537 13.8585C8.24021 13.9507 8.36773 14.0016 8.5 14H11.5C11.6326 14 11.7598 13.9473 11.8535 13.8536C11.9473 13.7598 12 13.6326 12 13.5C12 13.3674 11.9473 13.2402 11.8535 13.1464C11.7598 13.0527 11.6326 13 11.5 13H8.5C8.43315 12.9992 8.36682 13.0118 8.30494 13.037C8.24305 13.0623 8.18686 13.0997 8.13968 13.1471C8.09251 13.1945 8.05531 13.2508 8.03028 13.3128C8.00526 13.3748 7.99293 13.4412 7.994 13.508ZM12.994 13.508C12.9961 13.6403 13.0505 13.7663 13.1454 13.8585C13.2402 13.9507 13.3677 14.0016 13.5 14H16.5C16.6326 14 16.7598 13.9473 16.8535 13.8536C16.9473 13.7598 17 13.6326 17 13.5C17 13.3674 16.9473 13.2402 16.8535 13.1464C16.7598 13.0527 16.6326 13 16.5 13H13.5C13.4332 12.9992 13.3668 13.0118 13.3049 13.037C13.243 13.0623 13.1869 13.0997 13.1397 13.1471C13.0925 13.1945 13.0553 13.2508 13.0303 13.3128C13.0053 13.3748 12.9929 13.4412 12.994 13.508Z" fill="currentColor"/>
<path d="M10.493 4C9.671 4 8.993 4.678 8.993 5.5V9.5C8.993 10.322 9.671 11 10.493 11H15.493C16.315 11 16.993 10.322 16.993 9.5V5.5C16.993 4.678 16.315 4 15.493 4H10.493ZM10.493 9H15.493C15.6256 9 15.7528 9.05269 15.8465 9.14645C15.9403 9.24022 15.993 9.36739 15.993 9.5C15.993 9.63261 15.9403 9.75978 15.8465 9.85355C15.7528 9.94731 15.6256 10 15.493 10H10.493C10.3604 10 10.2332 9.94731 10.1395 9.85355C10.0457 9.75978 9.993 9.63261 9.993 9.5C9.993 9.36739 10.0457 9.24022 10.1395 9.14645C10.2332 9.05269 10.3604 9 10.493 9Z" fill="currentColor"/>
</svg>
