<svg width="20" height="20" viewBox="0 0 20 20" fill="none" xmlns="http://www.w3.org/2000/svg">
<path d="M3.5 17C3.36739 17 3.24022 16.9473 3.14645 16.8536C3.05268 16.7598 3 16.6326 3 16.5V3.5C3 3.36739 3.05268 3.24019 3.14645 3.14642C3.24022 3.05266 3.36739 3 3.5 3H16.5C16.6326 3 16.7598 3.05266 16.8535 3.14642C16.9473 3.24019 17 3.36739 17 3.5V16.5C17 16.6326 16.9473 16.7598 16.8535 16.8536C16.7598 16.9473 16.6326 17 16.5 17H3.5ZM4 16H16V10.994L15 11V9L16 8.99402V6.992H14.994L15 9H13L12.994 6.992H10.994L11 9H9L8.99401 6.992H6.99401L7 9H5L4.99401 6.992H4V8.99603L5 9.00201V11.002L4 10.996V16ZM7 9H9V11H7V9ZM11 9H13V11H11V9Z" fill="currentColor"/>
<path d="M5 13V11H7V13H5ZM9 13V11H11V13H9ZM13 13V11H15V13H13Z" fill="currentColor"/>
</svg>
