<svg width="20" height="20" viewBox="0 0 20 20" fill="none" xmlns="http://www.w3.org/2000/svg">
<path d="M6.60999 3C5.75299 3 5 3.648 5 4.5V7.5C5 8.352 5.75299 9 6.60999 9H11.39C12.247 9 13 8.352 13 7.5V4.5C13 3.648 12.247 3 11.39 3H6.60999ZM14 4V7C14.563 7 15 6.49599 15 5.96899V5.03101C15 4.50401 14.563 4 14 4ZM6.465 7C6.47666 6.99959 6.48834 6.99959 6.5 7H11.5C11.6326 7 11.7598 7.05266 11.8535 7.14642C11.9473 7.24019 12 7.36739 12 7.5C12 7.63261 11.9473 7.75981 11.8535 7.85358C11.7598 7.94734 11.6326 8 11.5 8H6.5C6.36739 8.00464 6.23838 7.95639 6.14133 7.86591C6.04428 7.77542 5.98715 7.65013 5.98251 7.51752C5.97787 7.38491 6.02609 7.25586 6.11658 7.15881C6.20706 7.06176 6.33239 7.00464 6.465 7ZM4.60901 11C3.75301 11 3 11.648 3 12.5V15.5C3 16.352 3.75299 17 4.60999 17H9.39001C10.247 17 11 16.352 11 15.5V12.5C11 11.648 10.247 11 9.39001 11H4.60901ZM12 13V16C12.563 16 13 15.496 13 14.969V14.031C13 13.504 12.563 13 12 13ZM4.465 15C4.47666 14.9996 4.48834 14.9996 4.5 15H9.5C9.63261 15 9.75978 15.0527 9.85355 15.1464C9.94731 15.2402 10 15.3674 10 15.5C10 15.6326 9.94731 15.7598 9.85355 15.8536C9.75978 15.9473 9.63261 16 9.5 16H4.5C4.36739 16.0046 4.23838 15.9564 4.14133 15.8659C4.04428 15.7754 3.98715 15.6501 3.98251 15.5175C3.97787 15.3849 4.02609 15.2559 4.11658 15.1588C4.20706 15.0618 4.33239 15.0046 4.465 15Z" fill="currentColor"/>
<path d="M14.5 5V6C15.06 6 15.408 6.143 15.633 6.367C15.857 6.592 16 6.941 16 7.5V12.5C16 13.06 15.857 13.408 15.633 13.633C15.408 13.857 15.059 14 14.5 14H12.5V15H14.5C15.24 15 15.889 14.79 16.34 14.34C16.79 13.889 17 13.24 17 12.5V7.5C17 6.76 16.79 6.111 16.34 5.66C15.889 5.21 15.24 5 14.5 5Z" fill="currentColor"/>
</svg>
