<svg width="20" height="20" viewBox="0 0 20 20" fill="none" xmlns="http://www.w3.org/2000/svg">
<path d="M14.992 2.99199C14.9263 2.99304 14.8615 3.00701 14.8013 3.0331C14.741 3.0592 14.6864 3.09691 14.6408 3.14409C14.5951 3.19126 14.5591 3.24696 14.535 3.30803C14.5108 3.3691 14.4989 3.43433 14.5 3.5V6.5C14.5 6.6326 14.5527 6.75978 14.6464 6.85355C14.7402 6.94732 14.8674 7 15 7C15.1326 7 15.2598 6.94732 15.3536 6.85355C15.4473 6.75978 15.5 6.6326 15.5 6.5V3.5C15.5011 3.43299 15.4887 3.36645 15.4636 3.30433C15.4384 3.2422 15.401 3.18577 15.3536 3.13838C15.3063 3.09099 15.2498 3.05361 15.1877 3.02846C15.1256 3.00332 15.059 2.99091 14.992 2.99199ZM14.992 7.99199C14.9263 7.99304 14.8615 8.00701 14.8013 8.0331C14.741 8.0592 14.6864 8.09691 14.6408 8.14408C14.5951 8.19126 14.5591 8.24696 14.535 8.30803C14.5108 8.3691 14.4989 8.43433 14.5 8.5V11.5C14.5 11.6326 14.5527 11.7598 14.6464 11.8535C14.7402 11.9473 14.8674 12 15 12C15.1326 12 15.2598 11.9473 15.3536 11.8535C15.4473 11.7598 15.5 11.6326 15.5 11.5V8.5C15.5011 8.43299 15.4887 8.36645 15.4636 8.30433C15.4384 8.2422 15.401 8.18577 15.3536 8.13838C15.3063 8.09099 15.2498 8.05361 15.1877 8.02846C15.1256 8.00331 15.059 7.99091 14.992 7.99199ZM14.992 12.992C14.9263 12.993 14.8615 13.007 14.8013 13.0331C14.741 13.0592 14.6864 13.0969 14.6408 13.1441C14.5951 13.1913 14.5591 13.247 14.535 13.308C14.5108 13.3691 14.4989 13.4343 14.5 13.5V16.5C14.5 16.6326 14.5527 16.7598 14.6464 16.8535C14.7402 16.9473 14.8674 17 15 17C15.1326 17 15.2598 16.9473 15.3536 16.8535C15.4473 16.7598 15.5 16.6326 15.5 16.5V13.5C15.5011 13.433 15.4887 13.3664 15.4636 13.3043C15.4384 13.2422 15.401 13.1858 15.3536 13.1384C15.3063 13.091 15.2498 13.0536 15.1877 13.0285C15.1256 13.0033 15.059 12.9909 14.992 12.992Z" fill="currentColor"/>
<path d="M6 7C5.178 7 4.5 7.678 4.5 8.5V12.5C4.5 13.322 5.178 14 6 14H11C11.822 14 12.5 13.322 12.5 12.5V8.5C12.5 7.678 11.822 7 11 7H6ZM6 12H11C11.1326 12 11.2598 12.0527 11.3535 12.1465C11.4473 12.2402 11.5 12.3674 11.5 12.5C11.5 12.6326 11.4473 12.7598 11.3535 12.8535C11.2598 12.9473 11.1326 13 11 13H6C5.86739 13 5.74022 12.9473 5.64645 12.8535C5.55269 12.7598 5.5 12.6326 5.5 12.5C5.5 12.3674 5.55269 12.2402 5.64645 12.1465C5.74022 12.0527 5.86739 12 6 12Z" fill="currentColor"/>
</svg>
