<svg width="20" height="20" viewBox="0 0 20 20" fill="none" xmlns="http://www.w3.org/2000/svg">
<path d="M7.492 8C6.67 8 5.992 8.678 5.992 9.5V13.5C5.992 14.322 6.67 15 7.492 15H12.492C13.314 15 13.992 14.322 13.992 13.5V9.5C13.992 8.678 13.314 8 12.492 8H7.492ZM7.492 13H12.492C12.6246 13 12.7518 13.0527 12.8456 13.1465C12.9393 13.2402 12.992 13.3674 12.992 13.5C12.992 13.6326 12.9393 13.7598 12.8456 13.8535C12.7518 13.9473 12.6246 14 12.492 14H7.492C7.35939 14 7.23221 13.9473 7.13844 13.8535C7.04467 13.7598 6.992 13.6326 6.992 13.5C6.992 13.3674 7.04467 13.2402 7.13844 13.1465C7.23221 13.0527 7.35939 13 7.492 13Z" fill="currentColor"/>
<path d="M17.008 5.49201C17.007 5.42634 16.993 5.36154 16.9669 5.30127C16.9408 5.24101 16.9031 5.18644 16.8559 5.14075C16.8087 5.09506 16.753 5.05913 16.692 5.03498C16.6309 5.01082 16.5657 4.99895 16.5 5H13.5C13.3674 5 13.2402 5.05266 13.1464 5.14643C13.0527 5.2402 13 5.3674 13 5.5C13 5.63261 13.0527 5.75981 13.1464 5.85358C13.2402 5.94735 13.3674 6 13.5 6H16.5C16.567 6.00109 16.6336 5.98871 16.6957 5.96357C16.7578 5.93842 16.8142 5.90103 16.8616 5.85364C16.909 5.80625 16.9464 5.74981 16.9715 5.68769C16.9967 5.62557 17.0091 5.55902 17.008 5.49201ZM12.008 5.49201C12.007 5.42634 11.993 5.36154 11.9669 5.30127C11.9408 5.24101 11.9031 5.18644 11.8559 5.14075C11.8087 5.09506 11.753 5.05913 11.692 5.03498C11.6309 5.01082 11.5657 4.99895 11.5 5L8.5 5C8.3674 5 8.24022 5.05266 8.14645 5.14643C8.05268 5.2402 8 5.3674 8 5.5C8 5.63261 8.05268 5.75981 8.14645 5.85358C8.24022 5.94735 8.3674 6 8.5 6H11.5C11.567 6.00109 11.6336 5.98871 11.6957 5.96357C11.7578 5.93842 11.8142 5.90103 11.8616 5.85364C11.909 5.80625 11.9464 5.74981 11.9715 5.68769C11.9967 5.62557 12.0091 5.55902 12.008 5.49201ZM7.00801 5.49201C7.00696 5.42634 6.993 5.36154 6.9669 5.30127C6.9408 5.24101 6.90309 5.18644 6.85592 5.14075C6.80874 5.09506 6.75304 5.05913 6.69197 5.03498C6.6309 5.01082 6.56567 4.99895 6.5 5H3.5C3.3674 5 3.24022 5.05266 3.14645 5.14643C3.05268 5.2402 3 5.3674 3 5.5C3 5.63261 3.05268 5.75981 3.14645 5.85358C3.24022 5.94735 3.3674 6 3.5 6H6.5C6.56701 6.00109 6.63355 5.98871 6.69567 5.96357C6.7578 5.93842 6.81423 5.90103 6.86162 5.85364C6.90901 5.80625 6.94639 5.74981 6.97154 5.68769C6.99669 5.62557 7.00909 5.55902 7.00801 5.49201Z" fill="currentColor"/>
</svg>
