<svg width="20" height="20" viewBox="0 0 20 20" fill="none" xmlns="http://www.w3.org/2000/svg">
<path d="M5.496 3.00199C5.40071 3.00189 5.30738 3.02903 5.227 3.0802C5.14662 3.13137 5.08254 3.20446 5.0423 3.29084C5.00205 3.37721 4.98733 3.47326 4.99985 3.56772C5.01238 3.66218 5.05163 3.75111 5.113 3.82401L9.613 9.32401C9.65989 9.38133 9.71894 9.42751 9.78587 9.45923C9.8528 9.49095 9.92593 9.50742 10 9.50742C10.0741 9.50742 10.1472 9.49095 10.2141 9.45923C10.2811 9.42751 10.3401 9.38133 10.387 9.32401L14.887 3.82401C14.9315 3.77357 14.9655 3.71464 14.9867 3.65079C15.0079 3.58694 15.0161 3.51946 15.0106 3.4524C15.0051 3.38533 14.9862 3.32004 14.9549 3.26047C14.9236 3.2009 14.8806 3.14828 14.8285 3.10572C14.7764 3.06316 14.7162 3.03154 14.6516 3.01279C14.5869 2.99404 14.5192 2.98853 14.4524 2.99659C14.3856 3.00464 14.3211 3.02612 14.2628 3.0597C14.2044 3.09327 14.1535 3.13826 14.113 3.19199L10 8.21799L5.887 3.19101C5.84044 3.13209 5.78119 3.08438 5.71368 3.05149C5.64616 3.01859 5.5721 3.00136 5.497 3.00101L5.496 3.00199Z" fill="currentColor"/>
<path d="M4.25 11.008C3.566 11.008 3 11.574 3 12.258V15.758C3 16.442 3.566 17.008 4.25 17.008H7.75C8.434 17.008 9 16.442 9 15.758V12.258C9 11.574 8.434 11.008 7.75 11.008H4.25ZM12.25 11.008C11.566 11.008 11 11.574 11 12.258V15.758C11 16.442 11.566 17.008 12.25 17.008H15.75C16.434 17.008 17 16.442 17 15.758V12.258C17 11.574 16.434 11.008 15.75 11.008H12.25ZM4.5 15.008H7.5C7.63261 15.008 7.75979 15.0607 7.85355 15.1545C7.94732 15.2482 8 15.3754 8 15.508C8 15.6406 7.94732 15.7678 7.85355 15.8615C7.75979 15.9553 7.63261 16.008 7.5 16.008H4.5C4.36739 16.008 4.24021 15.9553 4.14645 15.8615C4.05268 15.7678 4 15.6406 4 15.508C4 15.3754 4.05268 15.2482 4.14645 15.1545C4.24021 15.0607 4.36739 15.008 4.5 15.008ZM12.5 15.008H15.5C15.6326 15.008 15.7598 15.0607 15.8536 15.1545C15.9473 15.2482 16 15.3754 16 15.508C16 15.6406 15.9473 15.7678 15.8536 15.8615C15.7598 15.9553 15.6326 16.008 15.5 16.008H12.5C12.3674 16.008 12.2402 15.9553 12.1464 15.8615C12.0527 15.7678 12 15.6406 12 15.508C12 15.3754 12.0527 15.2482 12.1464 15.1545C12.2402 15.0607 12.3674 15.008 12.5 15.008Z" fill="currentColor"/>
</svg>
