<svg width="20" height="20" viewBox="0 0 20 20" fill="none" xmlns="http://www.w3.org/2000/svg">
<path d="M10 2.93799C8.69854 2.93812 7.4224 3.2977 6.31232 3.97705C5.20224 4.6564 4.30136 5.62918 3.70902 6.78802C3.2005 7.78228 2.93587 8.88325 2.93702 10C2.93887 11.8727 3.68359 13.6681 5.00776 14.9922C6.33192 16.3164 8.12735 17.0611 10 17.063C11.8727 17.0611 13.6681 16.3164 14.9923 14.9922C16.3164 13.6681 17.0611 11.8727 17.063 10C17.0611 8.12734 16.3164 6.33192 14.9923 5.00775C13.6681 3.68358 11.8727 2.93886 10 2.93701V2.93799ZM10 3.93799C10.7964 3.93694 11.5852 4.09302 12.3212 4.39728C13.0572 4.70154 13.726 5.14802 14.2892 5.71112C14.8524 6.27423 15.299 6.94288 15.6033 7.67883C15.9077 8.41479 16.0639 9.20358 16.063 10C16.064 10.7965 15.908 11.5854 15.6036 12.3215C15.2993 13.0575 14.8528 13.7263 14.2896 14.2896C13.7263 14.8528 13.0575 15.2993 12.3214 15.6036C11.5854 15.908 10.7965 16.064 10 16.063C9.2035 16.064 8.41463 15.908 7.67856 15.6036C6.94249 15.2993 6.27366 14.8528 5.71045 14.2896C5.14724 13.7263 4.70069 13.0575 4.39637 12.3215C4.09204 11.5854 3.93596 10.7965 3.93702 10C3.93636 9.20361 4.09273 8.41491 4.39719 7.67902C4.70165 6.94312 5.14821 6.2745 5.71134 5.71136C6.27447 5.14823 6.94313 4.70162 7.67902 4.39716C8.41491 4.09269 9.20361 3.93635 10 3.93701V3.93799ZM10 5C9.73479 5 9.48045 5.10537 9.29291 5.29291C9.10538 5.48044 9 5.73478 9 6C9 6.26522 9.10538 6.51956 9.29291 6.70709C9.48045 6.89463 9.73479 7 10 7C10.2652 7 10.5196 6.89463 10.7071 6.70709C10.8946 6.51956 11 6.26522 11 6C11 5.73478 10.8946 5.48044 10.7071 5.29291C10.5196 5.10537 10.2652 5 10 5ZM7.176 6.16199C6.9157 6.17019 6.66888 6.2796 6.48801 6.46698C5.86947 7.08778 5.42495 7.86024 5.19901 8.70697C5.16262 8.83461 5.15201 8.96825 5.16779 9.10004C5.18357 9.23183 5.2254 9.35916 5.2909 9.47461C5.35639 9.59005 5.44423 9.69131 5.54926 9.77246C5.65429 9.85362 5.77442 9.91308 5.90265 9.94733C6.03089 9.98158 6.16467 9.98991 6.29618 9.97192C6.42768 9.95394 6.55428 9.91001 6.66861 9.84259C6.78295 9.77517 6.88271 9.68566 6.9621 9.57928C7.04149 9.47291 7.09892 9.35181 7.13102 9.22302C7.26702 8.71302 7.533 8.24901 7.904 7.87701C8.048 7.73638 8.14622 7.55551 8.18579 7.35815C8.22537 7.16079 8.20448 6.9561 8.12583 6.77081C8.04718 6.58553 7.91443 6.42833 7.74497 6.3197C7.57551 6.21108 7.3772 6.15609 7.176 6.16199Z" fill="currentColor"/>
</svg>
