<svg width="20" height="20" viewBox="0 0 20 20" fill="none" xmlns="http://www.w3.org/2000/svg">
<path d="M5 3C3.9 3 3 3.9 3 5V15C3 16.1 3.9 17 5 17H12C13.1 17 14 16.1 14 15V14.5C14.01 13.824 12.99 13.824 13 14.5V15C13 15.563 12.563 16 12 16H5C4.437 16 4 15.563 4 15V7H14V5C14 3.9 13.1 3 12 3H5Z" fill="currentColor"/>
<path d="M14.5 13C13.8376 12.9979 13.2029 12.7338 12.7346 12.2654C12.2662 11.7971 12.0021 11.1624 12 10.5C12 9.125 13.125 8 14.5 8C15.875 8 17 9.125 17 10.5C17 11.875 15.875 13 14.5 13Z" fill="currentColor"/>
</svg>
