<svg width="20" height="20" viewBox="0 0 20 20" fill="none" xmlns="http://www.w3.org/2000/svg">
<path d="M10.981 2.991C10.7161 2.99521 10.4637 3.10435 10.2793 3.29446C10.0948 3.48457 9.99326 3.74011 9.99701 4.005V8.837C9.96992 8.99697 9.98217 9.16113 10.0327 9.31532C10.0832 9.4695 10.1705 9.60908 10.287 9.722C10.2887 9.72401 10.2903 9.726 10.292 9.728C10.2966 9.73271 10.3013 9.73738 10.306 9.742C10.4178 9.84847 10.5527 9.92762 10.7001 9.97324C10.8476 10.0189 11.0036 10.0297 11.156 10.005H15.997C16.2622 10.005 16.5166 9.89964 16.7041 9.7121C16.8917 9.52457 16.997 9.27021 16.997 9.005C16.997 8.73978 16.8917 8.48543 16.7041 8.29789C16.5166 8.11035 16.2622 8.005 15.997 8.005H11.997V4.005C11.9989 3.87114 11.9739 3.73828 11.9235 3.61427C11.8731 3.49026 11.7983 3.37763 11.7035 3.28307C11.6088 3.1885 11.496 3.11392 11.3719 3.06375C11.2478 3.01358 11.1148 2.98884 10.981 2.991Z" fill="currentColor"/>
<path d="M12.99 16.508C12.99 16.6406 12.9373 16.7678 12.8436 16.8616C12.7498 16.9553 12.6226 17.008 12.49 17.008H3.49C3.35739 17.008 3.23019 16.9553 3.13642 16.8616C3.04265 16.7678 2.99 16.6406 2.99 16.508V7.508C2.99 7.37539 3.04265 7.24819 3.13642 7.15442C3.23019 7.06065 3.35739 7.008 3.49 7.008L8.998 7.00201V8.00201L3.99 8.008V16.008H11.99V11.004H12.99V16.508Z" fill="currentColor"/>
</svg>
