<svg width="20" height="20" viewBox="0 0 20 20" fill="none" xmlns="http://www.w3.org/2000/svg">
<path d="M15.978 2.99501C15.7183 3.00294 15.4719 3.1116 15.291 3.298L12.571 6.018C12.544 6.018 12.519 6.011 12.492 6.011C11.67 6.011 10.992 6.688 10.992 7.511C10.992 8.333 11.67 9.011 12.492 9.011C13.315 9.011 13.992 8.333 13.992 7.511C13.992 7.484 13.986 7.459 13.984 7.433L16.704 4.712C16.8486 4.57161 16.9474 4.3908 16.9874 4.19328C17.0275 3.99576 17.0069 3.79076 16.9284 3.60513C16.8499 3.4195 16.7172 3.26192 16.5476 3.15304C16.378 3.04417 16.1795 2.98909 15.978 2.99501Z" fill="currentColor"/>
<path d="M3.49199 6.005C3.35938 6.005 3.23221 6.05768 3.13844 6.15145C3.04467 6.24522 2.99199 6.37239 2.99199 6.505V8.505C2.99199 8.63761 3.04467 8.76478 3.13844 8.85854C3.23221 8.95231 3.35938 9.005 3.49199 9.005H3.99199V14.005H3.49199C3.35938 14.005 3.23221 14.0577 3.13844 14.1515C3.04467 14.2452 2.99199 14.3724 2.99199 14.505V16.505C2.99199 16.6376 3.04467 16.7648 3.13844 16.8585C3.23221 16.9523 3.35938 17.005 3.49199 17.005H5.49199C5.6246 17.005 5.7518 16.9523 5.84556 16.8585C5.93933 16.7648 5.99199 16.6376 5.99199 16.505V15.997H10.992V16.505C10.992 16.6376 11.0447 16.7648 11.1384 16.8585C11.2322 16.9523 11.3594 17.005 11.492 17.005H13.492C13.6246 17.005 13.7518 16.9523 13.8456 16.8585C13.9393 16.7648 13.992 16.6376 13.992 16.505V14.505C13.992 14.3724 13.9393 14.2452 13.8456 14.1515C13.7518 14.0577 13.6246 14.005 13.492 14.005H12.992V10.005H11.992V14.005H11.492C11.3594 14.005 11.2322 14.0577 11.1384 14.1515C11.0447 14.2452 10.992 14.3724 10.992 14.505V14.997H5.99199V14.505C5.99199 14.3724 5.93933 14.2452 5.84556 14.1515C5.7518 14.0577 5.6246 14.005 5.49199 14.005H4.99199V9.005H5.49199C5.6246 9.005 5.7518 8.95231 5.84556 8.85854C5.93933 8.76478 5.99199 8.63761 5.99199 8.505V7.997H9.998V6.997H5.99199V6.505C5.99199 6.37239 5.93933 6.24522 5.84556 6.15145C5.7518 6.05768 5.6246 6.005 5.49199 6.005H3.49199ZM3.99199 7.005H4.99199V8.005H3.99199V7.005ZM3.99199 15.005H4.99199V16.005H3.99199V15.005ZM11.992 15.005H12.992V16.005H11.992V15.005Z" fill="currentColor"/>
</svg>
