<svg width="20" height="20" viewBox="0 0 20 20" fill="none" xmlns="http://www.w3.org/2000/svg">
<path d="M17.007 9.991C17.0052 9.85967 16.9775 9.72999 16.9255 9.60936C16.8736 9.48873 16.7984 9.37951 16.7042 9.28795C16.6101 9.19639 16.4988 9.12428 16.3768 9.07573C16.2547 9.02718 16.1243 9.00314 15.993 9.00499H7.993C6.641 8.98499 6.641 11.025 7.993 11.005H15.993C16.1267 11.0069 16.2594 10.9819 16.3833 10.9316C16.5071 10.8814 16.6197 10.8067 16.7142 10.7122C16.8087 10.6177 16.8834 10.5051 16.9337 10.3813C16.9839 10.2574 17.0089 10.1247 17.007 9.991Z" fill="currentColor"/>
<path d="M11.994 3.49803C12 2.90303 11.146 2.79806 11.008 3.37706L11.08 3.09404L3.37303 5.01402C3.26498 5.04097 3.16898 5.10322 3.10032 5.1909C3.03167 5.27858 2.99425 5.38667 2.994 5.49803V16.498C2.994 16.6299 3.04611 16.7566 3.13902 16.8502C3.23192 16.9439 3.35806 16.997 3.48997 16.998L4.48802 17.008C4.53541 17.0082 4.58252 17.0015 4.62797 16.988L11.631 14.983C11.7359 14.9531 11.8282 14.8897 11.8937 14.8025C11.9593 14.7153 11.9945 14.6091 11.994 14.5L12.008 12.004L11.008 12.006L10.992 14.125L4.42399 16.0051L3.994 16.004V5.89104L10.994 4.14604L11.008 8.00603H12.008L11.994 3.49803Z" fill="currentColor"/>
</svg>
