<svg width="20" height="20" viewBox="0 0 20 20" fill="none" xmlns="http://www.w3.org/2000/svg">
<path d="M7.49102 2.994C7.41576 2.99536 7.34177 3.01368 7.27459 3.04762C7.2074 3.08155 7.14877 3.13023 7.10302 3.19C7.10167 3.19199 7.10034 3.19398 7.09902 3.19599L5.14501 5.149C5.09725 5.19512 5.05915 5.25029 5.03295 5.31129C5.00674 5.37229 4.99297 5.43791 4.99239 5.5043C4.99181 5.57069 5.00445 5.63653 5.02959 5.69798C5.05473 5.75942 5.09187 5.81524 5.13881 5.86219C5.18576 5.90914 5.24158 5.94626 5.30303 5.9714C5.36448 5.99654 5.43033 6.00919 5.49672 6.00861C5.56311 6.00804 5.62871 5.99425 5.68972 5.96804C5.75072 5.94184 5.80588 5.90375 5.85201 5.856L6.99901 4.70899V8.50199C6.99901 8.6346 7.0517 8.76177 7.14547 8.85554C7.23923 8.94931 7.3664 9.00199 7.49901 9.00199C7.63162 9.00199 7.75879 8.94931 7.85256 8.85554C7.94633 8.76177 7.99901 8.6346 7.99901 8.50199V4.70899L9.14501 5.856C9.1915 5.90248 9.24668 5.93936 9.30742 5.96452C9.36816 5.98968 9.43327 6.00262 9.49901 6.00262C9.56476 6.00262 9.62986 5.98968 9.6906 5.96452C9.75134 5.93936 9.80653 5.90248 9.85302 5.856C9.8995 5.80951 9.93638 5.75432 9.96154 5.69358C9.98669 5.63284 9.99965 5.56774 9.99965 5.50199C9.99965 5.43625 9.98669 5.37114 9.96154 5.3104C9.93638 5.24966 9.8995 5.19448 9.85302 5.14799L7.89501 3.19099C7.84772 3.1289 7.78654 3.07874 7.71639 3.04453C7.64623 3.01033 7.56906 2.99302 7.49102 2.994ZM14.493 9.996C14.3932 9.99579 14.2957 10.0254 14.2129 10.0811C14.1302 10.1368 14.0659 10.216 14.0285 10.3084C13.9911 10.4009 13.9822 10.5025 14.0029 10.6C14.0237 10.6976 14.0732 10.7868 14.145 10.856L15.292 12.002H11.499C11.3664 12.002 11.2392 12.0547 11.1455 12.1484C11.0517 12.2422 10.999 12.3694 10.999 12.502C10.999 12.6346 11.0517 12.7618 11.1455 12.8555C11.2392 12.9493 11.3664 13.002 11.499 13.002H15.292L14.145 14.148C14.0985 14.1945 14.0616 14.2497 14.0365 14.3104C14.0113 14.3711 13.9984 14.4362 13.9984 14.502C13.9984 14.5677 14.0113 14.6328 14.0365 14.6936C14.0616 14.7543 14.0985 14.8095 14.145 14.856C14.1915 14.9025 14.2467 14.9394 14.3074 14.9645C14.3682 14.9897 14.4333 15.0026 14.499 15.0026C14.5648 15.0026 14.6299 14.9897 14.6906 14.9645C14.7513 14.9394 14.8065 14.9025 14.853 14.856L16.81 12.898C16.8707 12.8514 16.9199 12.7916 16.9539 12.723C16.9878 12.6544 17.0056 12.579 17.0058 12.5025C17.0059 12.426 16.9886 12.3504 16.955 12.2817C16.9214 12.213 16.8725 12.1529 16.812 12.106C16.81 12.1046 16.808 12.1033 16.806 12.102L14.852 10.148C14.8054 10.0999 14.7496 10.0617 14.6879 10.0356C14.6263 10.0095 14.56 9.996 14.493 9.996ZM3.49102 12.994C3.42535 12.995 3.36055 13.009 3.30028 13.0351C3.24002 13.0612 3.18548 13.0989 3.13979 13.1461C3.0941 13.1933 3.05814 13.249 3.03398 13.31C3.00983 13.3711 2.99795 13.4363 2.99901 13.502V16.442C2.9892 16.5179 2.99692 16.595 3.02159 16.6674C3.04627 16.7398 3.08722 16.8056 3.14132 16.8597C3.19541 16.9138 3.26119 16.9547 3.33361 16.9794C3.40602 17.0041 3.48314 17.0118 3.55901 17.002H6.49901C6.63162 17.002 6.75879 16.9493 6.85256 16.8555C6.94633 16.7618 6.99901 16.6346 6.99901 16.502C6.99901 16.3694 6.94633 16.2422 6.85256 16.1484C6.75879 16.0547 6.63162 16.002 6.49901 16.002H4.70601L5.85302 14.856C5.9469 14.7621 5.99965 14.6348 5.99965 14.502C5.99965 14.3692 5.9469 14.2419 5.85302 14.148C5.75913 14.0541 5.63179 14.0014 5.49901 14.0014C5.36624 14.0014 5.23889 14.0541 5.14501 14.148L3.99901 15.295V13.502C4.00009 13.435 3.98769 13.3684 3.96254 13.3063C3.9374 13.2442 3.90001 13.1878 3.85262 13.1404C3.80523 13.093 3.74882 13.0556 3.68669 13.0305C3.62457 13.0053 3.55803 12.9929 3.49102 12.994Z" fill="currentColor"/>
<path d="M9.995 12.002C9.995 12.5314 9.7847 13.0391 9.41038 13.4134C9.03605 13.7877 8.52837 13.998 7.999 13.998C7.46963 13.998 6.96195 13.7877 6.58762 13.4134C6.2133 13.0391 6.003 12.5314 6.003 12.002C6.003 11.4726 6.2133 10.9649 6.58762 10.5906C6.96195 10.2163 7.46963 10.006 7.999 10.006C8.52837 10.006 9.03605 10.2163 9.41038 10.5906C9.7847 10.9649 9.995 11.4726 9.995 12.002Z" fill="currentColor"/>
</svg>
