<svg width="20" height="20" viewBox="0 0 20 20" fill="none" xmlns="http://www.w3.org/2000/svg">
<path d="M3.5 3C3.36739 3 3.24022 3.05266 3.14645 3.14642C3.05269 3.24019 3 3.36739 3 3.5V7H4V4H7V3H3.5ZM13 3V4H16V7H17V3.5C17 3.36739 16.9473 3.24019 16.8535 3.14642C16.7598 3.05266 16.6326 3 16.5 3H13ZM3 13V16.5C3 16.6326 3.05269 16.7598 3.14645 16.8536C3.24022 16.9473 3.36739 17 3.5 17H7V16H4V13H3ZM16 13V16H13V17H16.5C16.6326 17 16.7598 16.9473 16.8535 16.8536C16.9473 16.7598 17 16.6326 17 16.5V13H16Z" fill="currentColor"/>
<path d="M6.5 6C6.36739 6 6.24022 6.05266 6.14645 6.14642C6.05269 6.24019 6 6.36739 6 6.5V8H7V7H8V6H6.5ZM9 6V7H11V6H9ZM12 6V7H13V8H14V6.5C14 6.36739 13.9473 6.24019 13.8535 6.14642C13.7598 6.05266 13.6326 6 13.5 6H12ZM6 9V11H7V9H6ZM13 9V11H14V9H13ZM6 12V13.5C6 13.6326 6.05269 13.7598 6.14645 13.8536C6.24022 13.9473 6.36739 14 6.5 14H8V13H7V12H6ZM13 12V13H12V14H13.5C13.6326 14 13.7598 13.9473 13.8535 13.8536C13.9473 13.7598 14 13.6326 14 13.5V12H13ZM9 13V14H11V13H9Z" fill="currentColor"/>
</svg>
