<svg width="20" height="20" viewBox="0 0 20 20" fill="none" xmlns="http://www.w3.org/2000/svg">
<path d="M10 5.504C7.52 5.504 5.5 7.522 5.5 10C5.50264 11.1923 5.97773 12.3349 6.82118 13.1776C7.66464 14.0203 8.8077 14.4944 10 14.496C12.48 14.496 14.5 12.478 14.5 10C14.4974 8.80771 14.0223 7.66506 13.1788 6.82236C12.3354 5.97965 11.1923 5.50558 10 5.504ZM10 6.69101C10.4349 6.68995 10.8657 6.7748 11.2677 6.9407C11.6697 7.10661 12.035 7.35031 12.3425 7.65778C12.6501 7.96524 12.8939 8.33044 13.0599 8.73239C13.2259 9.13434 13.3109 9.56511 13.31 10C13.3108 10.4348 13.2257 10.8655 13.0596 11.2673C12.8935 11.6691 12.6497 12.0342 12.3422 12.3416C12.0346 12.6489 11.6694 12.8925 11.2675 13.0584C10.8655 13.2242 10.4348 13.3091 10 13.308C9.5652 13.3091 9.13446 13.2242 8.73253 13.0584C8.3306 12.8925 7.96538 12.6489 7.65784 12.3416C7.35029 12.0342 7.10647 11.6691 6.94038 11.2673C6.7743 10.8655 6.68921 10.4348 6.69 10C6.68908 9.56511 6.77407 9.13434 6.94009 8.73239C7.10612 8.33044 7.34993 7.96524 7.65749 7.65778C7.96504 7.35031 8.3303 7.10661 8.7323 6.9407C9.1343 6.7748 9.56511 6.68995 10 6.69101Z" fill="currentColor"/>
</svg>
