<svg width="20" height="20" viewBox="0 0 20 20" fill="none" xmlns="http://www.w3.org/2000/svg">
<path d="M4.08401 8.586C3.67211 9.06641 3.36626 9.62838 3.18652 10.2351C3.00679 10.8419 2.95719 11.4798 3.04098 12.107C3.16179 12.9921 3.54312 13.8212 4.13644 14.489C4.72976 15.1567 5.50828 15.6329 6.37298 15.857C7.07171 16.0353 7.80309 16.0429 8.50537 15.8791C9.20765 15.7153 9.86022 15.385 10.408 14.916C10.112 14.966 9.81 15 9.5 15C9.114 15 8.73698 14.958 8.37298 14.88C7.79989 15.0317 7.1976 15.0348 6.62298 14.889C5.95005 14.7156 5.34406 14.3456 4.88238 13.8262C4.42071 13.3068 4.12431 12.6616 4.031 11.973C3.97243 11.5229 4.0023 11.0657 4.11899 10.627C4.04051 10.2578 4.00064 9.88144 4 9.504C4 9.191 4.03301 8.885 4.08401 8.586Z" fill="currentColor"/>
<path d="M8.086 5.25C6.3 5.847 5 7.517 5 9.5C5 11.98 7.02 14 9.5 14C9.989 14 10.451 13.903 10.893 13.758C10.3362 13.5843 9.81059 13.3231 9.336 12.984C8.43796 12.9456 7.58949 12.5616 6.96783 11.9124C6.34618 11.2632 5.99944 10.3989 6 9.5C6 8.416 6.49901 7.46299 7.26801 6.82199C7.4537 6.25713 7.72996 5.72622 8.086 5.25Z" fill="currentColor"/>
<path d="M12.5 4C11.3077 4.00395 10.1654 4.47933 9.32239 5.32239C8.47933 6.16545 8.00395 7.30774 8 8.5C8 10.973 10.027 13 12.5 13C14.973 13 17 10.973 17 8.5C17 6.027 14.973 4 12.5 4ZM12.5 6C13.893 6 15 7.107 15 8.5C15 9.893 13.893 11 12.5 11C12.1711 11.002 11.8452 10.9387 11.541 10.8138C11.2367 10.6888 10.9603 10.5048 10.7278 10.2722C10.4952 10.0397 10.3112 9.76326 10.1862 9.45905C10.0613 9.15483 9.99801 8.82886 10 8.5C10 7.107 11.107 6 12.5 6Z" fill="currentColor"/>
</svg>
