<svg width="20" height="20" viewBox="0 0 20 20" fill="none" xmlns="http://www.w3.org/2000/svg">
<path d="M12.504 3.5C11.681 3.5 11.004 4.177 11.004 5C11.004 5.823 11.681 6.5 12.504 6.5C13.327 6.5 14.004 5.823 14.004 5C14.004 4.177 13.327 3.5 12.504 3.5ZM7.504 8.5C6.681 8.5 6.004 9.177 6.004 10C6.004 10.823 6.681 11.5 7.504 11.5C8.327 11.5 9.004 10.823 9.004 10C9.004 9.177 8.327 8.5 7.504 8.5ZM10.504 13.5C9.681 13.5 9.004 14.177 9.004 15C9.004 15.823 9.681 16.5 10.504 16.5C11.327 16.5 12.004 15.823 12.004 15C12.004 14.177 11.327 13.5 10.504 13.5Z" fill="currentColor"/>
<path d="M16.504 14.5C17.161 14.51 17.161 15.49 16.504 15.5H13.004V14.5H16.504ZM7.99602 14.5V15.5H3.49602C2.83902 15.49 2.83902 14.51 3.49602 14.5H7.99602ZM3.49602 4.5C2.83902 4.51 2.83902 5.49 3.49602 5.5H9.99602V4.5H3.49602ZM15.004 4.5V5.5H16.504C17.161 5.49 17.161 4.51 16.504 4.5H15.004ZM3.49602 9.5C2.83902 9.51 2.83902 10.49 3.49602 10.5H4.99602V9.5H3.49602ZM10.004 9.5V10.5H16.504C17.161 10.49 17.161 9.51 16.504 9.5H10.004Z" fill="currentColor"/>
</svg>
