<svg width="20" height="20" viewBox="0 0 20 20" fill="none" xmlns="http://www.w3.org/2000/svg">
<path d="M5.49202 2.992C5.41677 2.99336 5.34277 3.01168 5.27559 3.04562C5.20841 3.07955 5.14977 3.12823 5.10402 3.188C5.10267 3.18999 5.10131 3.19198 5.09999 3.19399L3.14601 5.147C3.09826 5.19312 3.06016 5.24829 3.03395 5.30929C3.00775 5.37029 2.99394 5.43591 2.99337 5.5023C2.99279 5.56869 3.00546 5.63453 3.0306 5.69598C3.05574 5.75743 3.0929 5.81325 3.13985 5.86019C3.1868 5.90714 3.24259 5.94426 3.30403 5.9694C3.36548 5.99454 3.43131 6.00719 3.4977 6.00662C3.56409 6.00604 3.62969 5.99225 3.69069 5.96604C3.75169 5.93984 3.80692 5.90175 3.85305 5.854L5.00002 4.70699V12.281C4.40602 12.629 4.00002 13.267 4.00002 14C4.00002 15.099 4.90102 16 6.00002 16C6.73302 16 7.37001 15.594 7.71901 15H15.293L14.146 16.146C14.0995 16.1925 14.0627 16.2477 14.0375 16.3084C14.0123 16.3691 13.9994 16.4342 13.9994 16.5C13.9994 16.5657 14.0123 16.6308 14.0375 16.6916C14.0627 16.7523 14.0995 16.8075 14.146 16.854C14.1925 16.9005 14.2477 16.9374 14.3084 16.9625C14.3692 16.9877 14.4343 17.0006 14.5 17.0006C14.5658 17.0006 14.6309 16.9877 14.6916 16.9625C14.7523 16.9374 14.8075 16.9005 14.854 16.854L16.811 14.896C16.8717 14.8494 16.921 14.7896 16.9549 14.721C16.9888 14.6524 17.0065 14.577 17.0067 14.5005C17.0069 14.424 16.9896 14.3484 16.956 14.2797C16.9224 14.211 16.8735 14.1509 16.813 14.104C16.811 14.1026 16.809 14.1013 16.807 14.1L14.853 12.146C14.8064 12.0979 14.7506 12.0597 14.6889 12.0336C14.6273 12.0075 14.561 11.994 14.494 11.994C14.3943 11.9938 14.2967 12.0234 14.2139 12.0791C14.1312 12.1348 14.0669 12.214 14.0295 12.3064C13.9921 12.3989 13.9832 12.5005 14.0039 12.598C14.0247 12.6956 14.0742 12.7848 14.146 12.854L15.293 14H8.00002C8.00002 12.901 7.09902 12 6.00002 12V4.70699L7.14602 5.854C7.1925 5.90049 7.24769 5.93736 7.30843 5.96252C7.36917 5.98768 7.43428 6.00062 7.50002 6.00062C7.56576 6.00062 7.63087 5.98768 7.69161 5.96252C7.75235 5.93736 7.80754 5.90049 7.85402 5.854C7.90051 5.80751 7.93738 5.75232 7.96254 5.69158C7.9877 5.63084 8.00063 5.56574 8.00063 5.49999C8.00063 5.43425 7.9877 5.36914 7.96254 5.3084C7.93738 5.24766 7.90051 5.19248 7.85402 5.14599L5.89601 3.18899C5.84872 3.1269 5.78758 3.07674 5.71743 3.04253C5.64727 3.00833 5.57007 2.99102 5.49202 2.992ZM6.00002 13C6.55802 13 7.00002 13.442 7.00002 14C7.00002 14.558 6.55802 15 6.00002 15C5.44202 15 5.00002 14.558 5.00002 14C5.00002 13.442 5.44202 13 6.00002 13Z" fill="currentColor"/>
</svg>
