<svg width="20" height="20" viewBox="0 0 20 20" fill="none" xmlns="http://www.w3.org/2000/svg">
<path d="M5.507 3.502C5.25147 3.48613 4.99499 3.50839 4.746 3.56801C4.50753 3.62554 4.28535 3.7368 4.09644 3.8933C3.90754 4.0498 3.75688 4.2474 3.656 4.47101C3.459 4.92401 3.452 5.457 3.58 6.062C4.09 8.482 6.619 11.729 9.619 14.092C11.119 15.273 12.517 16.05 13.687 16.359C14.272 16.514 14.807 16.558 15.289 16.426C15.5326 16.36 15.7571 16.2375 15.9444 16.0685C16.1317 15.8994 16.2765 15.6885 16.367 15.453C16.729 14.483 16.352 13.292 15.634 11.953C15.049 10.861 14.184 9.67301 13.124 8.50301H14.82C14.9526 8.50301 15.0798 8.45032 15.1736 8.35655C15.2673 8.26278 15.32 8.13561 15.32 8.00301C15.32 7.8704 15.2673 7.74321 15.1736 7.64945C15.0798 7.55568 14.9526 7.50301 14.82 7.50301H11.992C11.8594 7.50301 11.7322 7.55568 11.6384 7.64945C11.5447 7.74321 11.492 7.8704 11.492 8.00301V10.832C11.492 10.9646 11.5447 11.0918 11.6384 11.1855C11.7322 11.2793 11.8594 11.332 11.992 11.332C12.1246 11.332 12.2518 11.2793 12.3456 11.1855C12.4393 11.0918 12.492 10.9646 12.492 10.832V9.29201C13.455 10.373 14.234 11.461 14.752 12.426C15.409 13.652 15.59 14.679 15.432 15.103C15.352 15.315 15.255 15.398 15.025 15.461C14.795 15.524 14.422 15.518 13.945 15.392C12.992 15.14 11.663 14.431 10.236 13.307C7.382 11.059 4.961 7.761 4.56 5.857C4.46 5.381 4.494 5.054 4.574 4.869C4.654 4.685 4.752 4.599 4.988 4.541C5.46 4.423 6.507 4.634 7.84 5.394C7.95524 5.45977 8.09188 5.47708 8.21988 5.44211C8.34787 5.40713 8.45673 5.32274 8.5225 5.2075C8.58827 5.09227 8.60558 4.95562 8.5706 4.82762C8.53562 4.69963 8.45124 4.59077 8.336 4.52499C7.254 3.90799 6.314 3.545 5.507 3.502Z" fill="currentColor"/>
<path d="M8.41002 15.422C8.37778 15.4534 8.34145 15.4804 8.30202 15.5021C6.75102 16.3781 5.49203 16.737 4.52303 16.349C4.28095 16.2482 4.06686 16.0904 3.899 15.8889C3.73114 15.6875 3.61448 15.4483 3.55901 15.192C3.44101 14.667 3.51401 14.067 3.73601 13.376C4.62401 10.613 7.69802 7.07308 10.889 4.98108C12.485 3.93508 13.831 3.40709 14.911 3.50709C15.451 3.55709 15.952 3.81404 16.228 4.26404C16.504 4.71404 16.552 5.28401 16.438 5.92701C16.4149 6.05776 16.3409 6.17399 16.2321 6.25013C16.1233 6.32627 15.9888 6.35609 15.858 6.33301C15.7273 6.30994 15.611 6.23585 15.5349 6.12708C15.4588 6.01831 15.4289 5.88381 15.452 5.75306C15.54 5.25906 15.476 4.95009 15.376 4.78809C15.277 4.62509 15.139 4.53403 14.82 4.50403C14.182 4.44503 12.935 4.83502 11.437 5.81702C8.443 7.78002 5.43901 11.348 4.68901 13.683C4.50101 14.267 4.476 14.7071 4.536 14.9721C4.596 15.2371 4.68602 15.338 4.89302 15.421C5.30602 15.586 6.37902 15.4401 7.81102 14.6321C7.91642 14.5721 8.04002 14.5523 8.15883 14.5767C8.27764 14.601 8.38355 14.6678 8.45683 14.7644C8.53011 14.8611 8.56576 14.9811 8.55714 15.1021C8.54853 15.223 8.49625 15.3367 8.41002 15.422Z" fill="currentColor"/>
</svg>
