<svg width="20" height="20" viewBox="0 0 20 20" fill="none" xmlns="http://www.w3.org/2000/svg">
<path d="M14.516 6.99901C14.4153 6.99575 14.316 7.02296 14.2311 7.07709C14.1461 7.13122 14.0795 7.20974 14.04 7.30237C14.0004 7.395 13.9898 7.49742 14.0094 7.59621C14.029 7.695 14.078 7.78554 14.15 7.85601L15.297 9.00301H9.711C9.53649 8.70073 9.28591 8.44939 8.98417 8.27396C8.68242 8.09853 8.34002 8.00512 7.991 8.00301C6.891 8.00301 5.991 8.90401 5.991 10.003C5.991 11.102 6.891 12.003 7.991 12.003C9.089 12.003 9.991 11.102 9.991 10.003H15.297L14.15 11.149C14.0562 11.2432 14.0037 11.3707 14.004 11.5036C14.0043 11.6364 14.0573 11.7638 14.1515 11.8575C14.2456 11.9513 14.3732 12.0038 14.5061 12.0035C14.6389 12.0032 14.7662 11.9502 14.86 11.856L16.86 9.85601C16.9537 9.76224 17.0064 9.63509 17.0064 9.50251C17.0064 9.36992 16.9537 9.24277 16.86 9.14901L14.86 7.14901C14.7692 7.05624 14.6458 7.00245 14.516 6.99901ZM7.99 9.00301C8.548 9.00301 8.99 9.44501 8.99 10.003C8.99 10.561 8.548 11.003 7.99 11.003C7.432 11.003 6.99 10.561 6.99 10.003C6.99 9.44501 7.432 9.00301 7.99 9.00301Z" fill="currentColor"/>
<path d="M11.998 7.99603L11.994 3.49402C11.994 3.42802 11.9809 3.36268 11.9555 3.30176C11.9302 3.24083 11.893 3.18552 11.8461 3.13904C11.7993 3.09256 11.7437 3.05584 11.6826 3.03095C11.6215 3.00605 11.556 2.99349 11.49 2.99402L10.488 3.00201C10.443 3.00266 10.3983 3.00941 10.355 3.02203L3.35698 5.01404C3.25256 5.04379 3.16068 5.1067 3.0952 5.1933C3.02971 5.2799 2.99419 5.38545 2.994 5.49402V16.494C2.994 16.6259 3.04611 16.7525 3.13902 16.8462C3.23192 16.9398 3.35806 16.993 3.48997 16.994L4.48802 17.004C4.5354 17.004 4.58249 16.9973 4.62797 16.984L11.631 14.979C11.7356 14.9492 11.8276 14.8862 11.8931 14.7994C11.9586 14.7126 11.994 14.6068 11.994 14.498L11.998 10.996H10.998L10.994 14.121L4.42399 16.001L3.994 16V5.87305L10.562 4.00201L10.994 3.99805L10.998 7.99603H11.998Z" fill="currentColor"/>
</svg>
