<svg width="20" height="20" viewBox="0 0 20 20" fill="none" xmlns="http://www.w3.org/2000/svg">
<path d="M6.322 3.033C4.612 3.106 3 4.517 3 6.97C3 8.264 3.432 9.52301 4.072 10.699C4.1093 10.7672 4.162 10.8258 4.22592 10.8701C4.28984 10.9144 4.3632 10.9432 4.44019 10.9542C4.51718 10.9651 4.59566 10.958 4.66941 10.9333C4.74315 10.9086 4.81012 10.8671 4.865 10.812L8.5 7.177L10.146 8.82401C10.1924 8.87057 10.2476 8.90751 10.3084 8.93272C10.3691 8.95792 10.4342 8.9709 10.5 8.9709C10.5658 8.9709 10.6309 8.95792 10.6916 8.93272C10.7524 8.90751 10.8076 8.87057 10.854 8.82401L13.5 6.177L15.982 8.66C16.0451 8.72292 16.1238 8.76785 16.21 8.79014C16.2962 8.81244 16.3869 8.81129 16.4725 8.78682C16.5582 8.76235 16.6357 8.71544 16.6972 8.65095C16.7586 8.58647 16.8017 8.50673 16.822 8.42C16.933 7.945 17 7.462 17 6.97C17 4.517 15.388 3.106 13.678 3.033C12.156 2.968 10.625 3.96 10 5.73C9.375 3.96 7.844 2.968 6.322 3.033ZM13.492 8.97001C13.3619 8.97213 13.2378 9.02486 13.146 9.117L10.5 11.763L8.854 10.117C8.80755 10.0704 8.75238 10.0335 8.69163 10.0083C8.63089 9.98309 8.56577 9.97011 8.5 9.97011C8.43423 9.97011 8.36911 9.98309 8.30837 10.0083C8.24762 10.0335 8.19245 10.0704 8.146 10.117L5.8 12.464C5.71188 12.5518 5.65967 12.6694 5.65356 12.7936C5.64746 12.9179 5.68791 13.04 5.767 13.136C6.999 14.635 8.39 15.928 9.419 16.843C9.51037 16.9246 9.62851 16.9698 9.751 16.97H10.251C10.3735 16.9698 10.4916 16.9246 10.583 16.843C11.998 15.585 14.123 13.63 15.544 11.355C15.6043 11.259 15.6303 11.1454 15.6176 11.0327C15.6049 10.9201 15.5542 10.8151 15.474 10.735L13.854 9.117C13.8069 9.0697 13.7507 9.03232 13.6889 9.00707C13.627 8.98183 13.5608 8.96922 13.494 8.97001H13.492Z" fill="currentColor"/>
</svg>
