<svg width="20" height="20" viewBox="0 0 20 20" fill="none" xmlns="http://www.w3.org/2000/svg">
<path d="M13 2.498C10.86 2.498 9.14599 4.03302 8.69299 6.03902C8.05899 5.16602 7.159 4.498 6 4.498C5.07239 4.50011 4.18339 4.86955 3.52747 5.52547C2.87155 6.18139 2.50211 7.07039 2.5 7.998C2.5 9.925 4.073 11.498 6 11.498H13C15.48 11.498 17.5 9.478 17.5 6.998C17.5 4.518 15.48 2.498 13 2.498ZM13 5.498C13.823 5.498 14.5 6.175 14.5 6.998C14.5 7.821 13.823 8.498 13 8.498C12.177 8.498 11.5 7.821 11.5 6.998C11.5 6.175 12.177 5.498 13 5.498ZM6 6.498C6.823 6.498 7.5 7.175 7.5 7.998C7.5 8.821 6.823 9.498 6 9.498C5.177 9.498 4.5 8.821 4.5 7.998C4.5 7.175 5.177 6.498 6 6.498ZM13 6.498C12.718 6.498 12.5 6.716 12.5 6.998C12.5 7.28 12.718 7.498 13 7.498C13.282 7.498 13.5 7.28 13.5 6.998C13.5 6.716 13.282 6.498 13 6.498ZM9.04999 7.49605H9C9.01666 7.49688 9.03333 7.49688 9.04999 7.49605ZM6 7.49605C5.718 7.49605 5.5 7.71405 5.5 7.99605C5.5 8.27805 5.718 8.49605 6 8.49605C6.282 8.49605 6.5 8.27805 6.5 7.99605C6.5 7.71405 6.282 7.49605 6 7.49605Z" fill="currentColor"/>
<path d="M4.99201 12.4899C4.92634 12.4909 4.86154 12.5049 4.80127 12.531C4.74101 12.5571 4.68647 12.5948 4.64078 12.642C4.59509 12.6892 4.55913 12.7449 4.53498 12.8059C4.51082 12.867 4.49895 12.9323 4.5 12.9979V14.9979C4.5 15.1306 4.55269 15.2577 4.64646 15.3515C4.74023 15.4452 4.8674 15.4979 5 15.4979C5.13261 15.4979 5.25978 15.4452 5.35355 15.3515C5.44732 15.2577 5.5 15.1306 5.5 14.9979V14.4979H6.5V15.9979C6.50003 16.1303 6.55253 16.2573 6.646 16.351L7.646 17.351C7.69244 17.3976 7.74761 17.4345 7.80835 17.4597C7.8691 17.485 7.93423 17.4979 8 17.4979H13C13.1326 17.4979 13.2598 17.4452 13.3535 17.3515C13.4473 17.2577 13.5 17.1306 13.5 16.9979V12.9979C13.5 12.8653 13.4473 12.7382 13.3535 12.6444C13.2598 12.5507 13.1326 12.4979 13 12.4979H7C6.8674 12.4979 6.74023 12.5507 6.64646 12.6444C6.55269 12.7382 6.5 12.8653 6.5 12.9979V13.4979H5.5V12.9979C5.50109 12.9309 5.48868 12.8644 5.46354 12.8023C5.43839 12.7401 5.401 12.6838 5.35361 12.6364C5.30622 12.589 5.24981 12.5515 5.18769 12.5264C5.12557 12.5012 5.05902 12.4888 4.99201 12.4899ZM16.984 12.4999C16.8758 12.5021 16.7714 12.541 16.688 12.61L14.188 14.61C14.1296 14.6569 14.0825 14.7162 14.0501 14.7837C14.0177 14.8512 14.0009 14.925 14.0009 14.9999C14.0009 15.0748 14.0177 15.1487 14.0501 15.2162C14.0825 15.2837 14.1296 15.3431 14.188 15.3899L16.688 17.3899C16.7615 17.4486 16.8501 17.4854 16.9436 17.496C17.0371 17.5066 17.1317 17.4907 17.2165 17.45C17.3013 17.4092 17.3729 17.3454 17.423 17.2658C17.4732 17.1862 17.4999 17.094 17.5 16.9999V12.9999C17.5 12.9329 17.4866 12.8666 17.4605 12.8048C17.4344 12.7431 17.3961 12.6873 17.3479 12.6406C17.2998 12.594 17.2428 12.5575 17.1803 12.5333C17.1177 12.5092 17.051 12.4978 16.984 12.4999Z" fill="currentColor"/>
</svg>
