<svg width="20" height="20" viewBox="0 0 20 20" fill="none" xmlns="http://www.w3.org/2000/svg">
<path d="M13.45 3.00001C12.5301 3.01211 11.6521 3.38632 11.0062 4.04151C10.3604 4.69669 9.99887 5.58003 10 6.50001C10 6.63261 9.94732 6.75979 9.85355 6.85356C9.75979 6.94733 9.63261 7.00001 9.5 7.00001C9.36739 7.00001 9.24021 6.94733 9.14645 6.85356C9.05268 6.75979 9 6.63261 9 6.50001C9 5.96801 9.103 5.45501 9.278 4.97301C9.186 4.98301 9.104 5.00001 9 5.00001C5.693 5.00001 3 7.69201 3 11C3 14.308 5.693 17 9 17C12.308 17 15 14.308 15 11V10.998C15 10.888 15.014 10.801 15.034 10.725C14.1757 11.0387 13.2421 11.083 12.358 10.852C12.2934 10.8364 12.2325 10.808 12.1789 10.7686C12.1254 10.7292 12.0802 10.6795 12.0461 10.6224C12.012 10.5653 11.9897 10.502 11.9803 10.4362C11.971 10.3703 11.9749 10.3033 11.9918 10.239C12.0087 10.1746 12.0382 10.1143 12.0787 10.0616C12.1192 10.0088 12.1698 9.96468 12.2276 9.93172C12.2853 9.89876 12.3491 9.87766 12.4151 9.86963C12.4811 9.86161 12.548 9.86684 12.612 9.88501C13.3185 10.071 14.0654 10.0311 14.7481 9.77083C15.4307 9.51059 16.0147 9.04311 16.418 8.43401C16.8221 7.82544 17.0253 7.10556 16.9991 6.37554C16.9729 5.64552 16.7186 4.94206 16.272 4.36401C15.9402 3.93272 15.5123 3.58483 15.0224 3.34803C14.5325 3.11123 13.9941 2.99206 13.45 3.00001Z" fill="currentColor"/>
</svg>
