<svg width="20" height="20" viewBox="0 0 20 20" fill="none" xmlns="http://www.w3.org/2000/svg">
<path d="M7.508 3C7.43502 2.99993 7.36291 3.01584 7.29674 3.04661C7.23056 3.07738 7.17192 3.12227 7.12494 3.17811C7.07796 3.23396 7.04377 3.29941 7.02478 3.36988C7.00578 3.44034 7.00245 3.51411 7.015 3.586C7.379 5.656 7.226 6.826 6.885 7.574C6.543 8.322 5.987 8.72 5.322 9.227C4.657 9.733 3.895 10.352 3.449 11.471C3.003 12.59 2.873 14.153 3.258 16.578C3.27658 16.6957 3.33655 16.8028 3.42712 16.8802C3.51768 16.9575 3.63289 17 3.752 17H12.508C12.5803 17 12.6517 16.9844 12.7173 16.9541C12.783 16.9239 12.8413 16.8798 12.8882 16.8249C12.9352 16.7699 12.9697 16.7055 12.9893 16.6359C13.0089 16.5664 13.0133 16.4934 13.002 16.422C12.633 14.097 12.782 12.721 13.132 11.84C13.482 10.959 14.03 10.517 14.678 10.023C15.325 9.53 16.084 8.99 16.541 7.988C16.997 6.986 17.127 5.594 16.744 3.414C16.7238 3.29815 16.6634 3.19314 16.5734 3.11742C16.4834 3.04171 16.3696 3.00013 16.252 3H7.508Z" fill="currentColor"/>
</svg>
