<svg width="20" height="20" viewBox="0 0 20 20" fill="none" xmlns="http://www.w3.org/2000/svg">
<path d="M10.69 3.012C9.68608 3.09074 8.74871 3.54496 8.0648 4.2841C7.38089 5.02324 7.00069 5.99299 7 7C7 7.045 7.004 7.09 7.016 7.133C6.64428 7.2236 6.2876 7.36741 5.957 7.56C5.25905 7.97743 4.70515 8.59799 4.36938 9.33869C4.0336 10.0794 3.93195 10.905 4.078 11.705C3.7287 11.9964 3.45029 12.3635 3.26387 12.7784C3.07745 13.1934 2.9879 13.6453 3.002 14.1C3.02738 14.821 3.31129 15.5088 3.80187 16.0377C4.29245 16.5667 4.95696 16.9015 5.674 16.981C6.34907 17.0523 7.02836 16.8925 7.60087 16.5278C8.17339 16.163 8.60529 15.6149 8.826 14.973C9.71924 15.0128 10.5998 14.75 11.325 14.227C11.8527 14.6491 12.4913 14.9093 13.1637 14.9762C13.8361 15.0431 14.5135 14.9138 15.114 14.604C15.7088 14.2945 16.2022 13.8207 16.5354 13.2389C16.8687 12.6571 17.0279 11.9918 16.9939 11.3221C16.96 10.6525 16.7345 10.0067 16.3441 9.46152C15.9538 8.91636 15.415 8.49481 14.792 8.247C15.0182 7.56299 15.0554 6.83056 14.8996 6.12716C14.7438 5.42376 14.4009 4.77553 13.907 4.251C13.4961 3.81888 12.9944 3.48346 12.438 3.26901C11.8817 3.05456 11.2846 2.96643 10.69 3.011V3.012Z" fill="currentColor"/>
</svg>
