<svg width="20" height="20" viewBox="0 0 20 20" fill="none" xmlns="http://www.w3.org/2000/svg">
<path d="M16.5 3.5C16.6326 3.5 16.7597 3.55266 16.8535 3.64642C16.9473 3.74019 17 3.86739 17 4V6C17 6.13261 16.9473 6.25981 16.8535 6.35358C16.7597 6.44734 16.6326 6.5 16.5 6.5H5.5C5.36739 6.5 5.24025 6.44734 5.14648 6.35358C5.05272 6.25981 5 6.13261 5 6V4C5 3.86739 5.05272 3.74019 5.14648 3.64642C5.24025 3.55266 5.36739 3.5 5.5 3.5H16.5ZM16 7.5V14C16 14.1326 15.9473 14.2598 15.8535 14.3536C15.7597 14.4473 15.6326 14.5 15.5 14.5H6.5C6.36739 14.5 6.24025 14.4473 6.14648 14.3536C6.05272 14.2598 6 14.1326 6 14V7.5H16ZM12 8.5H10C8.648 8.48 8.648 10.52 10 10.5H12C13.352 10.52 13.352 8.48 12 8.5Z" fill="currentColor"/>
<path d="M4 5.5V6C4 6.623 4.447 7.06798 5 7.28998V8.5H3.5C3.36739 8.5 3.24025 8.44734 3.14648 8.35358C3.05272 8.25981 3 8.13261 3 8V6C3 5.86739 3.05272 5.74019 3.14648 5.64642C3.24025 5.55266 3.36739 5.5 3.5 5.5H4ZM5 9.5V14C5 14.817 5.683 15.5 6.5 15.5H14V16C14 16.1326 13.9473 16.2598 13.8535 16.3536C13.7597 16.4473 13.6326 16.5 13.5 16.5H4.5C4.36739 16.5 4.24025 16.4473 4.14648 16.3536C4.05272 16.2598 4 16.1326 4 16V9.5H5Z" fill="currentColor"/>
</svg>
