<svg width="20" height="20" viewBox="0 0 20 20" fill="none" xmlns="http://www.w3.org/2000/svg">
<path d="M9 3C8.9343 2.99988 8.86921 3.01273 8.80847 3.03778C8.74773 3.06283 8.69252 3.0996 8.646 3.146L5.793 6H3.5C3.36739 6 3.24022 6.05269 3.14645 6.14645C3.05269 6.24022 3 6.36739 3 6.5V13.5C3 13.6326 3.05269 13.7598 3.14645 13.8535C3.24022 13.9473 3.36739 14 3.5 14H5.793L8.646 16.854C8.69252 16.9004 8.74773 16.9372 8.80847 16.9622C8.86921 16.9873 8.9343 17.0001 9 17H9.5C9.63261 17 9.75978 16.9473 9.85355 16.8535C9.94731 16.7598 10 16.6326 10 16.5V3.5C10 3.36739 9.94731 3.24022 9.85355 3.14645C9.75978 3.05269 9.63261 3 9.5 3H9ZM15.467 5.01599C15.3844 5.0204 15.3042 5.04525 15.2336 5.08826C15.163 5.13127 15.1041 5.19111 15.0623 5.26245C15.0205 5.3338 14.997 5.4144 14.994 5.49704C14.991 5.57968 15.0085 5.66179 15.045 5.73599C15.6752 7.07238 16.0014 8.53187 16 10.0094C15.9986 11.4869 15.6697 12.9458 15.037 14.281C15.0089 14.3404 14.9928 14.4047 14.9895 14.4703C14.9863 14.5359 14.996 14.6015 15.0181 14.6633C15.0402 14.7251 15.0742 14.782 15.1183 14.8307C15.1624 14.8794 15.2156 14.9189 15.275 14.947C15.3344 14.9751 15.3987 14.9912 15.4643 14.9945C15.5299 14.9977 15.5954 14.988 15.6573 14.9659C15.7191 14.9438 15.776 14.9098 15.8247 14.8657C15.8734 14.8216 15.9129 14.7684 15.941 14.709C16.6365 13.24 16.9979 11.6352 16.9993 10.0099C17.0007 8.38458 16.642 6.77915 15.949 5.30899C15.9075 5.21732 15.8393 5.14032 15.7533 5.08804C15.6673 5.03577 15.5675 5.01065 15.467 5.01599ZM12.605 5.953C12.5184 5.95379 12.4335 5.97704 12.3586 6.02051C12.2837 6.06398 12.2213 6.12616 12.1777 6.20096C12.134 6.27576 12.1106 6.36063 12.1096 6.44724C12.1086 6.53384 12.1301 6.61922 12.172 6.69501C12.715 7.7093 12.9995 8.84177 13.0006 9.99225C13.0016 11.1427 12.7191 12.2757 12.178 13.291C12.1157 13.4081 12.1024 13.5452 12.1411 13.672C12.1799 13.7989 12.2674 13.9052 12.3845 13.9675C12.5016 14.0298 12.6386 14.0431 12.7655 14.0044C12.8924 13.9656 12.9987 13.8781 13.061 13.761C13.6789 12.6009 14.0013 11.3064 13.9999 9.99201C13.9985 8.67762 13.6733 7.38382 13.053 6.22501C13.0108 6.14265 12.9466 6.07363 12.8675 6.0256C12.7884 5.97758 12.6975 5.95245 12.605 5.953Z" fill="currentColor"/>
</svg>
