<svg width="20" height="20" viewBox="0 0 20 20" fill="none" xmlns="http://www.w3.org/2000/svg">
<path d="M10.69 3.012C9.68608 3.09074 8.74871 3.54496 8.0648 4.2841C7.38089 5.02324 7.00069 5.99299 7 7C6.99934 7.04485 7.00472 7.08958 7.016 7.133C6.64427 7.22358 6.28759 7.3674 5.957 7.56C5.25904 7.97743 4.70515 8.59799 4.36938 9.33869C4.0336 10.0794 3.93195 10.905 4.078 11.705C3.7287 11.9964 3.45029 12.3635 3.26387 12.7784C3.07745 13.1934 2.9879 13.6453 3.002 14.1C3.02737 14.821 3.31129 15.5088 3.80187 16.0377C4.29245 16.5667 4.95696 16.9015 5.674 16.981C6.34907 17.0523 7.02836 16.8925 7.60087 16.5278C8.17339 16.163 8.60529 15.6149 8.826 14.973C9.71924 15.0128 10.5998 14.75 11.325 14.227C11.8527 14.6491 12.4913 14.9093 13.1637 14.9762C13.8361 15.0431 14.5135 14.9138 15.114 14.604C15.7088 14.2945 16.2022 13.8207 16.5354 13.2389C16.8687 12.6571 17.0279 11.9918 16.9939 11.3221C16.96 10.6525 16.7345 10.0067 16.3441 9.46152C15.9538 8.91636 15.415 8.49481 14.792 8.247C15.0182 7.56299 15.0554 6.83056 14.8996 6.12716C14.7438 5.42376 14.4009 4.77553 13.907 4.251C13.4961 3.81888 12.9944 3.48346 12.438 3.26901C11.8817 3.05456 11.2846 2.96643 10.69 3.011V3.012ZM11.211 4.008C11.6963 4.04127 12.1663 4.19223 12.5802 4.44783C12.9941 4.70344 13.3396 5.05599 13.5867 5.47504C13.8339 5.89408 13.9752 6.36699 13.9986 6.85292C14.022 7.33884 13.9267 7.82315 13.721 8.264C13.6873 8.3311 13.6692 8.40493 13.668 8.48C13.6437 8.60833 13.6706 8.74108 13.7429 8.84985C13.8152 8.95861 13.9273 9.03476 14.055 9.062C14.555 9.17464 15.0082 9.43836 15.3532 9.81737C15.6982 10.1964 15.9183 10.6723 15.9836 11.1807C16.0489 11.689 15.9563 12.2052 15.7182 12.6591C15.4802 13.113 15.1083 13.4827 14.653 13.718C14.1986 13.9546 13.6824 14.0458 13.1744 13.9792C12.6664 13.9127 12.1912 13.6916 11.813 13.346C11.7559 13.2904 11.6863 13.2492 11.61 13.226C11.5281 13.1657 11.4297 13.1319 11.328 13.129C11.1987 13.125 11.0729 13.1712 10.977 13.258C10.652 13.5425 10.2694 13.7536 9.8554 13.8766C9.44136 13.9997 9.00563 14.0319 8.578 13.971C8.46342 13.9548 8.34678 13.9788 8.24794 14.039C8.1491 14.0992 8.0742 14.1918 8.036 14.301C7.98911 14.3586 7.95563 14.4259 7.938 14.498C7.8193 14.9645 7.53584 15.3724 7.13993 15.6462C6.74403 15.9201 6.26241 16.0415 5.784 15.988C5.38264 15.9458 5.00356 15.7827 4.6969 15.5203C4.39025 15.258 4.17046 14.9087 4.06663 14.5187C3.96279 14.1287 3.97979 13.7164 4.11539 13.3363C4.25098 12.9562 4.49878 12.6262 4.826 12.39C4.88911 12.3629 4.94596 12.3231 4.993 12.273C5.191 12.158 5.41 12.073 5.649 12.031C5.77475 12.0117 5.8884 11.9451 5.96681 11.8449C6.04522 11.7447 6.08248 11.6184 6.07101 11.4917C6.05953 11.365 6.00019 11.2474 5.90506 11.1629C5.80993 11.0785 5.68618 11.0334 5.559 11.037C5.53077 11.038 5.50267 11.0413 5.475 11.047C5.315 11.075 5.162 11.122 5.012 11.174C4.97447 10.5729 5.11925 9.97439 5.42738 9.45688C5.73552 8.93936 6.19268 8.52689 6.73906 8.27342C7.28543 8.01995 7.89559 7.93728 8.48971 8.03623C9.08383 8.13518 9.63426 8.41113 10.069 8.828C10.1165 8.8733 10.1725 8.9088 10.2338 8.93247C10.295 8.95613 10.3604 8.9675 10.426 8.96592C10.4917 8.96434 10.5564 8.94985 10.6164 8.92327C10.6765 8.89669 10.7307 8.85853 10.776 8.811C10.8213 8.76346 10.8568 8.70746 10.8805 8.6462C10.9041 8.58495 10.9155 8.51963 10.9139 8.45398C10.9123 8.38833 10.8979 8.32363 10.8713 8.26358C10.8447 8.20353 10.8065 8.1493 10.759 8.104C10.1275 7.50169 9.31618 7.12271 8.449 7.025C8.302 7.008 8.15 7.01 8 7.01C8.00003 7.00666 8.00003 7.00333 8 7C7.99935 6.58804 8.08366 6.18038 8.24767 5.80249C8.41168 5.42459 8.65186 5.08458 8.9532 4.80369C9.25455 4.52281 9.61058 4.30708 9.99906 4.17C10.3875 4.03293 10.8001 3.97743 11.211 4.007V4.008Z" fill="currentColor"/>
</svg>
