<svg width="20" height="20" viewBox="0 0 20 20" fill="none" xmlns="http://www.w3.org/2000/svg">
<path d="M13.5 3C13.3674 3 13.2402 3.05269 13.1465 3.14645C13.0527 3.24022 13 3.36739 13 3.5V5H12.006C10.83 5 9.754 5.41801 9.121 6.18201C9.0752 6.23202 9.04005 6.29081 9.0177 6.35483C8.99534 6.41885 8.98625 6.48674 8.99096 6.55438C8.99567 6.62203 9.01409 6.68802 9.0451 6.74832C9.07611 6.80863 9.11904 6.862 9.17132 6.90518C9.2236 6.94836 9.28413 6.98045 9.34921 6.99951C9.41428 7.01857 9.48254 7.02421 9.54986 7.01605C9.61718 7.0079 9.68214 6.98613 9.74078 6.95209C9.79942 6.91804 9.85053 6.87241 9.89099 6.81799C10.266 6.36499 11.079 6 12.006 6H13V6.5C13 6.63261 13.0527 6.75978 13.1465 6.85355C13.2402 6.94731 13.3674 7 13.5 7H16.5C16.6326 7 16.7598 6.94731 16.8535 6.85355C16.9473 6.75978 17 6.63261 17 6.5V3.5C17 3.36739 16.9473 3.24022 16.8535 3.14645C16.7598 3.05269 16.6326 3 16.5 3H13.5ZM14 4H16V6H14V4ZM9.414 7.95901C8.307 8.00701 7.34199 8.328 6.59399 8.871C6.0984 9.22759 5.69556 9.69784 5.41925 10.2423C5.14294 10.7867 5.00124 11.3895 5.00601 12V13H3.5C3.36739 13 3.24022 13.0527 3.14645 13.1465C3.05268 13.2402 3 13.3674 3 13.5V16.5C3 16.6326 3.05268 16.7598 3.14645 16.8535C3.24022 16.9473 3.36739 17 3.5 17H6.5C6.6326 17 6.75977 16.9473 6.85354 16.8535C6.94731 16.7598 7 16.6326 7 16.5V13.5C7 13.3674 6.94731 13.2402 6.85354 13.1465C6.75977 13.0527 6.6326 13 6.5 13H6.00601V12C6.00601 11.025 6.424 10.23 7.182 9.67999C7.939 9.12999 9.05799 8.833 10.447 8.996C12.437 9.23 13.861 10.224 14.551 11.328C15.241 12.432 15.233 13.566 14.402 14.396C13.564 15.234 12.414 15.29 11.318 14.66C10.223 14.03 9.23601 12.68 9.00201 10.691C8.95201 9.99601 7.89701 10.121 8.01001 10.809C8.27601 13.069 9.41399 14.719 10.818 15.527C11.521 15.931 12.303 16.117 13.055 16.055C13.8316 15.9946 14.5606 15.6571 15.109 15.104C16.279 13.934 16.271 12.193 15.399 10.797C14.526 9.401 12.824 8.27 10.564 8.004C10.1825 7.95829 9.79792 7.94326 9.414 7.95901ZM4 14H6V16H4V14Z" fill="currentColor"/>
</svg>
