<svg width="20" height="20" viewBox="0 0 20 20" fill="none" xmlns="http://www.w3.org/2000/svg">
<path d="M10.5 2.989C10.1022 2.989 9.72064 3.14703 9.43934 3.42834C9.15804 3.70964 9 4.09117 9 4.489C9.00071 4.65945 9.03047 4.82854 9.088 4.989H4.52C4.12218 4.989 3.74064 5.14703 3.45934 5.42834C3.17804 5.70964 3.02 6.09117 3.02 6.489C3.02 6.88682 3.17804 7.26835 3.45934 7.54966C3.74064 7.83096 4.12218 7.989 4.52 7.989H8V9.938C6.68 11.274 5.526 12.708 5.03 15.194C4.98453 15.3896 4.97879 15.5923 5.01314 15.7902C5.04748 15.9881 5.12121 16.177 5.22994 16.3458C5.33867 16.5147 5.4802 16.66 5.64613 16.7731C5.81206 16.8862 5.99901 16.9648 6.1959 17.0043C6.39279 17.0438 6.59561 17.0434 6.79234 17.0031C6.98906 16.9628 7.17568 16.8833 7.34114 16.7695C7.50659 16.6557 7.64751 16.5098 7.75553 16.3405C7.86355 16.1713 7.93649 15.982 7.97 15.784C8.34 13.934 8.966 13.181 10 12.154C11.034 13.181 11.66 13.934 12.03 15.784C12.0635 15.982 12.1364 16.1713 12.2445 16.3405C12.3525 16.5098 12.4934 16.6557 12.6589 16.7695C12.8243 16.8833 13.0109 16.9628 13.2077 17.0031C13.4044 17.0434 13.6072 17.0438 13.8041 17.0043C14.001 16.9648 14.1879 16.8862 14.3539 16.7731C14.5198 16.66 14.6613 16.5147 14.7701 16.3458C14.8788 16.177 14.9525 15.9881 14.9869 15.7902C15.0212 15.5923 15.0155 15.3896 14.97 15.194C14.474 12.708 13.32 11.274 12 9.938V7.988H15.48C15.8778 7.988 16.2594 7.82996 16.5407 7.54866C16.822 7.26735 16.98 6.88582 16.98 6.488C16.98 6.09017 16.822 5.70864 16.5407 5.42734C16.2594 5.14603 15.8778 4.988 15.48 4.988H12.943C12.905 5.178 12.849 5.366 12.766 5.545C12.5649 5.97647 12.2449 6.34162 11.8435 6.59757C11.4421 6.85353 10.976 6.98966 10.5 6.99C10.3674 6.99 10.2402 6.93732 10.1464 6.84355C10.0527 6.74978 10 6.62261 10 6.49C10 6.35739 10.0527 6.23021 10.1464 6.13644C10.2402 6.04268 10.3674 5.99 10.5 5.99C10.6401 5.98976 10.7794 5.9699 10.914 5.931C10.924 5.929 10.931 5.926 10.939 5.923C11.0628 5.88444 11.1812 5.82999 11.291 5.761L11.311 5.751C11.3123 5.75033 11.3137 5.74967 11.315 5.749C11.4219 5.6784 11.5194 5.59438 11.605 5.499L11.635 5.469C11.7209 5.36893 11.7931 5.25797 11.85 5.139L11.86 5.124L11.866 5.109C11.9544 4.91425 12 4.70285 12 4.489C12 4.09117 11.842 3.70964 11.5607 3.42834C11.2794 3.14703 10.8978 2.989 10.5 2.989Z" fill="currentColor"/>
</svg>
