<svg width="20" height="20" viewBox="0 0 20 20" fill="none" xmlns="http://www.w3.org/2000/svg">
<path d="M13.248 3.014C11.977 3.125 10.919 4.00001 10.402 5.19101C7.827 4.57101 5.135 5.695 3.805 8C3.14519 9.14387 2.88097 10.4734 3.05326 11.7826C3.22554 13.0919 3.82473 14.3078 4.758 15.242C5.69223 16.1753 6.90813 16.7745 8.21737 16.9467C9.5266 17.119 10.8561 16.8548 12 16.195C14.305 14.865 15.428 12.173 14.809 9.59799C16.17 9.00699 17.119 7.71 16.986 6.195C16.9132 5.37584 16.5547 4.60834 15.9732 4.02682C15.3916 3.4453 14.6242 3.0868 13.805 3.014C13.6197 2.99773 13.4333 2.99773 13.248 3.014ZM13.271 4.01001C13.599 3.97896 13.9298 4.01322 14.2444 4.11081C14.5591 4.20839 14.8512 4.36735 15.1041 4.57852C15.3569 4.78969 15.5654 5.04887 15.7174 5.34109C15.8695 5.63331 15.9621 5.95277 15.99 6.281C16.0423 6.86683 15.8859 7.45229 15.5485 7.93405C15.2111 8.4158 14.7144 8.76286 14.146 8.914C14.0234 8.94727 13.9181 9.02594 13.8515 9.13403C13.7848 9.24212 13.7617 9.37154 13.787 9.496L13.822 9.67599C13.8244 9.68607 13.827 9.69607 13.83 9.70599C14.1153 10.7692 14.0416 11.8968 13.6203 12.9138C13.1989 13.9307 12.4536 14.7801 11.5 15.33C10.547 15.881 9.43876 16.1018 8.34741 15.958C7.25606 15.8142 6.24275 15.314 5.46499 14.535C4.68601 13.7572 4.18577 12.7439 4.042 11.6526C3.89824 10.5612 4.119 9.45295 4.66999 8.5C5.21994 7.5462 6.06948 6.80073 7.08666 6.37939C8.10383 5.95805 9.23169 5.88446 10.295 6.17001C10.3049 6.17299 10.3149 6.17565 10.325 6.17801L10.505 6.21301C10.6294 6.23795 10.7587 6.21461 10.8666 6.14776C10.9745 6.08091 11.0529 5.97553 11.086 5.85299C11.2177 5.35886 11.498 4.91709 11.889 4.58746C12.2799 4.25783 12.7627 4.05627 13.272 4.01001H13.271ZM7.5 9C7.36739 9 7.24021 9.05268 7.14644 9.14645C7.05267 9.24022 7 9.36739 7 9.5V12.5C7 12.6326 7.05267 12.7598 7.14644 12.8535C7.24021 12.9473 7.36739 13 7.5 13H10.5C10.6326 13 10.7598 12.9473 10.8536 12.8535C10.9473 12.7598 11 12.6326 11 12.5V9.5C11 9.36739 10.9473 9.24022 10.8536 9.14645C10.7598 9.05268 10.6326 9 10.5 9H7.5ZM8 10H10V12H8V10Z" fill="currentColor"/>
</svg>
