<svg width="20" height="20" viewBox="0 0 20 20" fill="none" xmlns="http://www.w3.org/2000/svg">
<path d="M10.5 3.5L6.748 3.50601C6.63698 3.50671 6.52935 3.54432 6.44208 3.61295C6.35481 3.68157 6.29286 3.77729 6.266 3.88501L5.016 8.879C4.99764 8.95261 4.99627 9.02942 5.012 9.10364C5.02773 9.17785 5.06014 9.24754 5.10677 9.30737C5.15341 9.36721 5.21304 9.41563 5.28117 9.44901C5.3493 9.48238 5.42413 9.49983 5.5 9.5H9.25C9.36136 9.49975 9.46945 9.46233 9.55713 9.39368C9.6448 9.32502 9.70705 9.22905 9.734 9.121L10.984 4.121C11.0024 4.04739 11.0037 3.97058 10.988 3.89636C10.9723 3.82215 10.9399 3.75246 10.8932 3.69263C10.8466 3.63279 10.787 3.58437 10.7188 3.55099C10.6507 3.51762 10.5759 3.50017 10.5 3.5ZM16.5 3.5L12.748 3.50601C12.637 3.50671 12.5294 3.54432 12.4421 3.61295C12.3548 3.68157 12.2929 3.77729 12.266 3.88501L11.016 8.879C10.9976 8.95261 10.9963 9.02942 11.012 9.10364C11.0277 9.17785 11.0601 9.24754 11.1068 9.30737C11.1534 9.36721 11.213 9.41563 11.2812 9.44901C11.3493 9.48238 11.4241 9.49983 11.5 9.5H15.25C15.3614 9.49975 15.4694 9.46233 15.5571 9.39368C15.6448 9.32502 15.7071 9.22905 15.734 9.121L16.984 4.121C17.0024 4.04739 17.0037 3.97058 16.988 3.89636C16.9723 3.82215 16.9399 3.75246 16.8932 3.69263C16.8466 3.63279 16.787 3.58437 16.7188 3.55099C16.6507 3.51762 16.5759 3.50017 16.5 3.5ZM8.5 10.5L4.748 10.506C4.63698 10.5067 4.52935 10.5443 4.44208 10.6129C4.35481 10.6816 4.29286 10.7773 4.266 10.885L3.016 15.879C2.99764 15.9526 2.99627 16.0294 3.012 16.1036C3.02773 16.1779 3.06014 16.2475 3.10677 16.3074C3.15341 16.3672 3.21304 16.4156 3.28117 16.449C3.3493 16.4824 3.42413 16.4998 3.5 16.5H7.25C7.36136 16.4997 7.46945 16.4623 7.55713 16.3937C7.6448 16.325 7.70705 16.2291 7.734 16.121L8.984 11.121C9.00236 11.0474 9.00372 10.9706 8.988 10.8964C8.97227 10.8221 8.93986 10.7525 8.89322 10.6926C8.84659 10.6328 8.78695 10.5844 8.71882 10.551C8.6507 10.5176 8.57586 10.5002 8.5 10.5ZM14.5 10.5L10.748 10.506C10.637 10.5067 10.5294 10.5443 10.4421 10.6129C10.3548 10.6816 10.2929 10.7773 10.266 10.885L9.016 15.879C8.99764 15.9526 8.99627 16.0294 9.012 16.1036C9.02773 16.1779 9.06014 16.2475 9.10677 16.3074C9.15341 16.3672 9.21304 16.4156 9.28117 16.449C9.3493 16.4824 9.42413 16.4998 9.5 16.5H13.25C13.3614 16.4997 13.4694 16.4623 13.5571 16.3937C13.6448 16.325 13.7071 16.2291 13.734 16.121L14.984 11.121C15.0024 11.0474 15.0037 10.9706 14.988 10.8964C14.9723 10.8221 14.9399 10.7525 14.8932 10.6926C14.8466 10.6328 14.787 10.5844 14.7188 10.551C14.6507 10.5176 14.5759 10.5002 14.5 10.5Z" fill="currentColor"/>
</svg>
