<svg width="20" height="20" viewBox="0 0 20 20" fill="none" xmlns="http://www.w3.org/2000/svg">
<path d="M3.5 3C3.36739 3 3.24019 3.05269 3.14642 3.14645C3.05266 3.24022 3 3.36739 3 3.5V16.5C3 16.6326 3.05266 16.7598 3.14642 16.8535C3.24019 16.9473 3.36739 17 3.5 17H16.5C16.6326 17 16.7598 16.9473 16.8536 16.8535C16.9473 16.7598 17 16.6326 17 16.5V3.5C17 3.36739 16.9473 3.24022 16.8536 3.14645C16.7598 3.05269 16.6326 3 16.5 3H3.5ZM13.5 5C14.323 5 15 5.678 15 6.5C15 7.323 14.323 8 13.5 8C12.677 8 12 7.323 12 6.5C12 5.678 12.677 5 13.5 5ZM8.52301 8C8.60703 8.00412 8.68865 8.02938 8.76031 8.07343C8.83198 8.11748 8.89136 8.1789 8.93298 8.252L12.933 15.252C12.9764 15.328 12.9991 15.414 12.9988 15.5014C12.9986 15.5889 12.9754 15.6748 12.9316 15.7505C12.8878 15.8262 12.8248 15.8891 12.7491 15.9329C12.6734 15.9766 12.5875 15.9998 12.5 16H4.5C4.41244 16 4.32642 15.977 4.25055 15.9332C4.17468 15.8895 4.11163 15.8267 4.06769 15.7509C4.02375 15.6752 4.00048 15.5893 4.00018 15.5017C3.99989 15.4141 4.02255 15.328 4.06598 15.252L8.06598 8.252C8.11156 8.17198 8.17839 8.10611 8.25903 8.06165C8.33967 8.01718 8.43102 7.99585 8.52301 8Z" fill="currentColor"/>
</svg>
