<svg width="20" height="20" viewBox="0 0 20 20" fill="none" xmlns="http://www.w3.org/2000/svg">
<path d="M5.636 3.07999C7.287 3.07999 8.636 4.42899 8.636 6.07999C8.636 7.72999 7.287 9.07999 5.636 9.07999C3.986 9.07999 2.636 7.72999 2.636 6.07999C2.636 4.42899 3.986 3.07999 5.636 3.07999ZM14.363 7.12698C16.014 7.12698 17.363 8.47598 17.363 10.127C17.363 11.777 16.014 13.127 14.363 13.127C12.713 13.127 11.363 11.777 11.363 10.127C11.363 8.47598 12.713 7.12698 14.363 7.12698ZM7.027 10.921C8.678 10.921 10.027 12.271 10.027 13.921C10.027 15.572 8.678 16.921 7.027 16.921C5.377 16.921 4.027 15.572 4.027 13.921C4.027 12.271 5.377 10.921 7.027 10.921Z" fill="currentColor"/>
</svg>
