<svg width="20" height="20" viewBox="0 0 20 20" fill="none" xmlns="http://www.w3.org/2000/svg">
<path d="M3.5 3C3.36739 3 3.24021 3.05266 3.14645 3.14642C3.05268 3.24019 3 3.36739 3 3.5V5.5C3 5.63261 3.05268 5.75981 3.14645 5.85358C3.24021 5.94734 3.36739 6 3.5 6H7.5C7.63261 6 7.75979 5.94734 7.85355 5.85358C7.94732 5.75981 8 5.63261 8 5.5V3.5C8 3.36739 7.94732 3.24019 7.85355 3.14642C7.75979 3.05266 7.63261 3 7.5 3H3.5ZM10.5 9C10.3674 9 10.2402 9.05266 10.1464 9.14642C10.0527 9.24019 10 9.36739 10 9.5V11.5C10 11.6326 10.0527 11.7598 10.1464 11.8536C10.2402 11.9473 10.3674 12 10.5 12H16.5C16.6326 12 16.7598 11.9473 16.8536 11.8536C16.9473 11.7598 17 11.6326 17 11.5V9.5C17 9.36739 16.9473 9.24019 16.8536 9.14642C16.7598 9.05266 16.6326 9 16.5 9H10.5ZM10.5 14C10.3674 14 10.2402 14.0527 10.1464 14.1464C10.0527 14.2402 10 14.3674 10 14.5V16.5C10 16.6326 10.0527 16.7598 10.1464 16.8536C10.2402 16.9473 10.3674 17 10.5 17H16.5C16.6326 17 16.7598 16.9473 16.8536 16.8536C16.9473 16.7598 17 16.6326 17 16.5V14.5C17 14.3674 16.9473 14.2402 16.8536 14.1464C16.7598 14.0527 16.6326 14 16.5 14H10.5Z" fill="currentColor"/>
<path d="M5 7V15.5C5 15.6326 5.05268 15.7598 5.14645 15.8536C5.24021 15.9473 5.36739 16 5.5 16H9V15H6V11H9V10H6V7H5Z" fill="currentColor"/>
</svg>
