<svg width="20" height="20" viewBox="0 0 20 20" fill="none" xmlns="http://www.w3.org/2000/svg">
<path d="M5.511 2.99699C5.37839 2.99699 5.25121 3.04967 5.15745 3.14344C5.06368 3.23721 5.011 3.36439 5.011 3.49699V6.49699C5.011 6.6296 5.06368 6.75678 5.15745 6.85055C5.25121 6.94432 5.37839 6.99699 5.511 6.99699H7.015C7.035 7.57999 7.055 8.03299 6.966 8.24499C6.738 8.78799 6.406 9.07199 5.958 9.35499C5.511 9.63699 4.951 9.88499 4.421 10.329C3.891 10.772 3.421 11.429 3.195 12.417C2.969 13.404 2.961 14.716 3.257 16.581C3.27558 16.6986 3.33555 16.8058 3.42612 16.8832C3.51668 16.9605 3.63189 17.003 3.751 17.003H12.507C12.5793 17.003 12.6507 16.9874 12.7163 16.9571C12.782 16.9269 12.8403 16.8828 12.8872 16.8278C12.9342 16.7729 12.9687 16.7084 12.9883 16.6389C13.0079 16.5694 13.0123 16.4964 13.001 16.425C12.632 14.099 12.786 12.788 13.124 12.017C13.462 11.245 13.977 10.931 14.622 10.562C15.267 10.192 16.058 9.78099 16.531 8.85399C17.003 7.92799 17.126 6.59499 16.744 4.41699C16.7237 4.30098 16.6632 4.19583 16.573 4.1201C16.4828 4.04436 16.3688 4.00289 16.251 4.00299H9.011V3.49699C9.011 3.36439 8.95832 3.23721 8.86455 3.14344C8.77078 3.04967 8.64361 2.99699 8.511 2.99699H5.511ZM6.011 3.99699H8.011V5.99699H6.011V3.99699ZM9.011 5.00299H15.792C16.047 6.75299 15.937 7.81899 15.64 8.40099C15.315 9.03799 14.792 9.31299 14.126 9.69399C13.46 10.075 12.664 10.574 12.208 11.614C11.796 12.555 11.712 13.969 11.972 16.003H4.238C4.045 14.528 4.007 13.351 4.169 12.64C4.352 11.84 4.666 11.428 5.062 11.097C5.458 10.765 5.965 10.531 6.492 10.198C7.018 9.86499 7.565 9.39999 7.888 8.63199C8.108 8.10799 8.065 7.57699 8.027 6.99699H8.511C8.64361 6.99699 8.77078 6.94432 8.86455 6.85055C8.95832 6.75678 9.011 6.6296 9.011 6.49699V5.00299Z" fill="currentColor"/>
</svg>
