<svg width="20" height="20" viewBox="0 0 20 20" fill="none" xmlns="http://www.w3.org/2000/svg">
<path d="M8.993 3C6.905 3 5.514 4.046 4.602 5.187C4.51912 5.29057 4.48078 5.42282 4.4954 5.55465C4.51003 5.68649 4.57643 5.80712 4.68 5.89C4.78357 5.97288 4.91582 6.01122 5.04765 5.9966C5.17949 5.98197 5.30012 5.91557 5.383 5.812C6.183 4.812 7.227 4 8.993 4C11.091 4 12.127 4.877 12.744 5.945C13.362 7.014 13.493 8.316 13.493 9H8.243C6.969 9 5.799 9.364 4.928 10.055C4.48068 10.4041 4.11935 10.851 3.87179 11.3616C3.62424 11.8721 3.49705 12.4326 3.5 13C3.5 14.217 4.057 15.255 4.928 15.945C5.8 16.635 6.97 17 8.243 17H8.993C10.748 17 12.38 16.033 13.53 14.967C13.608 15.5 13.82 15.971 14.17 16.322C14.621 16.773 15.268 17 15.993 17C16.1256 17 16.2528 16.9473 16.3466 16.8536C16.4403 16.7598 16.493 16.6326 16.493 16.5C16.493 16.3674 16.4403 16.2402 16.3466 16.1464C16.2528 16.0527 16.1256 16 15.993 16C15.468 16 15.113 15.852 14.877 15.615C14.641 15.379 14.493 15.025 14.493 14.5V9C14.493 8.203 14.37 6.757 13.612 5.445C12.853 4.134 11.389 3 8.992 3H8.993ZM8.243 10H13.493V13.56C12.538 14.685 10.681 16 8.993 16H8.243C7.162 16 6.211 15.684 5.549 15.16C4.888 14.636 4.5 13.923 4.5 13C4.5 12.077 4.888 11.364 5.55 10.84C6.21 10.316 7.162 10 8.243 10Z" fill="currentColor"/>
</svg>
