<svg width="20" height="20" viewBox="0 0 20 20" fill="none" xmlns="http://www.w3.org/2000/svg">
<path d="M4.494 2.997C4.36139 2.997 4.23421 3.04968 4.14044 3.14345C4.04668 3.23722 3.994 3.36439 3.994 3.497V6.497C3.994 6.62961 4.04668 6.75679 4.14044 6.85056C4.23421 6.94432 4.36139 6.997 4.494 6.997H5.354L4.529 10.296C4.50568 10.3492 4.4918 10.406 4.488 10.464L3.01 16.376C2.99182 16.4495 2.99058 16.5263 3.00639 16.6003C3.0222 16.6744 3.05464 16.744 3.10126 16.8037C3.14787 16.8634 3.20745 16.9117 3.27549 16.9451C3.34352 16.9784 3.41824 16.9958 3.494 16.996H8.416C8.46899 17.0046 8.52301 17.0046 8.576 16.996H13.469C13.58 16.9959 13.6877 16.9589 13.7754 16.8909C13.863 16.8228 13.9255 16.7275 13.953 16.62L16.99 4.63C17.0087 4.55626 17.0104 4.47922 16.9948 4.40474C16.9792 4.33027 16.9469 4.26033 16.9002 4.20025C16.8535 4.14017 16.7938 4.09153 16.7254 4.05804C16.6571 4.02456 16.5821 4.0071 16.506 4.007L11.599 4C11.5314 3.98584 11.4616 3.98584 11.394 4L7.994 3.996V3.496C7.994 3.36339 7.94132 3.23622 7.84755 3.14245C7.75378 3.04868 7.62661 2.996 7.494 2.996L4.494 2.997ZM4.994 3.997H6.994V5.997H6.072C6.01901 5.98841 5.96499 5.98841 5.912 5.997H4.994V3.997ZM7.994 4.997L10.854 5.001L9.604 9.997H5.634L6.384 6.997H7.494C7.62661 6.997 7.75378 6.94432 7.84755 6.85056C7.94132 6.75679 7.994 6.62961 7.994 6.497V4.997ZM11.883 5L15.863 5.006L14.599 9.996H10.635L11.883 5ZM5.385 10.996H9.353L8.103 15.996H4.135L5.385 10.996ZM10.385 10.996H14.345L13.08 15.996H9.135L10.385 10.996Z" fill="currentColor"/>
</svg>
