<svg width="20" height="20" viewBox="0 0 20 20" fill="none" xmlns="http://www.w3.org/2000/svg">
<path d="M7.5 13.5C7.36739 13.5 7.24021 13.5527 7.14645 13.6464C7.05268 13.7402 7 13.8674 7 14C7 14.1326 7.05268 14.2598 7.14645 14.3536C7.24021 14.4473 7.36739 14.5 7.5 14.5H12.5C12.6326 14.5 12.7598 14.4473 12.8536 14.3536C12.9473 14.2598 13 14.1326 13 14C13 13.8674 12.9473 13.7402 12.8536 13.6464C12.7598 13.5527 12.6326 13.5 12.5 13.5H7.5ZM7.5 15.5C7.36739 15.5 7.24021 15.5527 7.14645 15.6464C7.05268 15.7402 7 15.8674 7 16C7 16.1326 7.05268 16.2598 7.14645 16.3536C7.24021 16.4473 7.36739 16.5 7.5 16.5H9V17C9 17.1326 9.05268 17.2598 9.14645 17.3536C9.24021 17.4473 9.36739 17.5 9.5 17.5H10.5C10.6326 17.5 10.7598 17.4473 10.8536 17.3536C10.9473 17.2598 11 17.1326 11 17V16.5H12.5C12.6326 16.5 12.7598 16.4473 12.8536 16.3536C12.9473 16.2598 13 16.1326 13 16C13 15.8674 12.9473 15.7402 12.8536 15.6464C12.7598 15.5527 12.6326 15.5 12.5 15.5H7.5ZM10 2.5C6.717 2.5 4 4.941 4 8C4 9.722 5.088 11.295 6.146 12.354C6.19252 12.4004 6.24773 12.4372 6.30847 12.4622C6.36921 12.4873 6.4343 12.5001 6.5 12.5H13.5C13.6324 12.5 13.7593 12.4475 13.853 12.354C14.564 11.643 15.276 10.702 15.68 9.639C15.878 9.118 16 8.566 16 8C16 4.941 13.283 2.5 10 2.5ZM7.49 7.506C7.62456 7.50394 7.75467 7.55412 7.853 7.646L8.707 8.5H11.293L12.147 7.646C12.617 7.196 13.304 7.882 12.854 8.353L12 9.207V11.5H11V9.5H9V11.5H8V9.207L7.146 8.353C7.07877 8.28335 7.03321 8.19569 7.01484 8.10066C6.99646 8.00562 7.00607 7.90729 7.0425 7.81761C7.07892 7.72792 7.14059 7.65074 7.22003 7.59543C7.29947 7.54012 7.39325 7.50905 7.49 7.506Z" fill="currentColor"/>
</svg>
