<svg width="20" height="20" viewBox="0 0 20 20" fill="none" xmlns="http://www.w3.org/2000/svg">
<path d="M5.636 3.07999C7.287 3.07999 8.636 4.42899 8.636 6.07999C8.636 7.72999 7.287 9.07999 5.636 9.07999C3.986 9.07999 2.636 7.72999 2.636 6.07999C2.636 4.42899 3.986 3.07999 5.636 3.07999ZM5.636 4.07999C4.526 4.07999 3.636 4.96899 3.636 6.07999C3.636 7.18999 4.526 8.07999 5.636 8.07999C6.746 8.07999 7.636 7.18999 7.636 6.07999C7.636 4.96899 6.746 4.07999 5.636 4.07999ZM14.363 7.12698C16.014 7.12698 17.363 8.47598 17.363 10.127C17.363 11.777 16.014 13.127 14.363 13.127C12.713 13.127 11.363 11.777 11.363 10.127C11.363 8.47598 12.713 7.12698 14.363 7.12698ZM14.363 8.12698C13.253 8.12698 12.363 9.01698 12.363 10.127C12.363 11.237 13.253 12.127 14.363 12.127C15.473 12.127 16.363 11.237 16.363 10.127C16.363 9.01698 15.473 8.12698 14.363 8.12698ZM7.027 10.921C8.678 10.921 10.027 12.271 10.027 13.921C10.027 15.572 8.678 16.921 7.027 16.921C5.377 16.921 4.027 15.572 4.027 13.921C4.027 12.271 5.377 10.921 7.027 10.921ZM7.027 11.921C5.917 11.921 5.027 12.811 5.027 13.921C5.027 15.031 5.917 15.921 7.027 15.921C8.137 15.921 9.027 15.031 9.027 13.921C9.027 12.811 8.137 11.921 7.027 11.921Z" fill="currentColor"/>
</svg>
