<svg width="20" height="20" viewBox="0 0 20 20" fill="none" xmlns="http://www.w3.org/2000/svg">
<path d="M14.152 3.01999C13.656 2.97499 13.113 3.18 12.659 3.633L4.15899 12.133C4.09535 12.1975 4.05041 12.278 4.02898 12.366L3.02898 16.366C3.00842 16.4495 3.00977 16.537 3.03289 16.6198C3.056 16.7027 3.1001 16.7782 3.16094 16.8391C3.22177 16.8999 3.29728 16.944 3.38015 16.9671C3.46301 16.9902 3.55045 16.9916 3.63399 16.971L7.63399 15.971C7.722 15.9496 7.80254 15.9046 7.86699 15.841L16.367 7.34101C16.82 6.88701 17.025 6.344 16.98 5.848C16.935 5.352 16.675 4.942 16.367 4.633L15.367 3.633C15.057 3.325 14.647 3.06499 14.152 3.01999ZM12.263 5.444L14.556 7.737L7.25698 15.036L4.19899 15.801L4.96398 12.743L12.263 5.444Z" fill="currentColor"/>
</svg>
