<svg width="20" height="20" viewBox="0 0 20 20" fill="none" xmlns="http://www.w3.org/2000/svg">
<path d="M7.492 2.99201C7.42634 2.99305 7.36152 3.00702 7.30126 3.03312C7.24099 3.05921 7.18646 3.0969 7.14077 3.14408C7.09508 3.19125 7.05913 3.24698 7.03498 3.30805C7.01083 3.36912 6.99894 3.43434 7 3.5V12.293L3.146 16.146C3.09951 16.1925 3.06264 16.2477 3.03748 16.3084C3.01232 16.3692 2.99937 16.4343 2.99937 16.5C2.99937 16.5657 3.01232 16.6309 3.03748 16.6916C3.06264 16.7523 3.09951 16.8075 3.146 16.854C3.19249 16.9005 3.24768 16.9374 3.30842 16.9625C3.36916 16.9877 3.43426 17.0006 3.5 17.0006C3.56574 17.0006 3.63084 16.9877 3.69158 16.9625C3.75232 16.9374 3.80751 16.9005 3.854 16.854L7.707 13H16.5C16.6326 13 16.7598 12.9473 16.8536 12.8535C16.9473 12.7598 17 12.6326 17 12.5C17 12.3674 16.9473 12.2402 16.8536 12.1465C16.7598 12.0527 16.6326 12 16.5 12H8V3.5C8.00108 3.43299 7.98868 3.36645 7.96353 3.30433C7.93839 3.2422 7.90101 3.18576 7.85362 3.13837C7.80623 3.09098 7.7498 3.05362 7.68768 3.02848C7.62555 3.00333 7.55901 2.99093 7.492 2.99201Z" fill="currentColor"/>
</svg>
