<svg width="20" height="20" viewBox="0 0 20 20" fill="none" xmlns="http://www.w3.org/2000/svg">
<path d="M13 5.498C12.177 5.498 11.5 6.175 11.5 6.998C11.5 7.821 12.177 8.498 13 8.498C13.823 8.498 14.5 7.821 14.5 6.998C14.5 6.175 13.823 5.498 13 5.498ZM13 6.498C13.282 6.498 13.5 6.716 13.5 6.998C13.5 7.28 13.282 7.498 13 7.498C12.9341 7.49894 12.8686 7.48666 12.8076 7.46187C12.7465 7.43707 12.691 7.40033 12.6443 7.35371C12.5977 7.3071 12.5609 7.25159 12.5361 7.19051C12.5113 7.12942 12.4991 7.06392 12.5 6.998C12.5 6.716 12.718 6.498 13 6.498ZM6 7.498C5.86739 7.498 5.74022 7.55072 5.64645 7.64449C5.55269 7.73825 5.5 7.86539 5.5 7.998C5.5 8.13061 5.55269 8.25775 5.64645 8.35152C5.74022 8.44528 5.86739 8.498 6 8.498C6.13261 8.498 6.25978 8.44528 6.35355 8.35152C6.44731 8.25775 6.5 8.13061 6.5 7.998C6.5 7.86539 6.44731 7.73825 6.35355 7.64449C6.25978 7.55072 6.13261 7.498 6 7.498Z" fill="currentColor"/>
<path d="M12 11.502H12.498C16.092 11.502 17.5 9.00203 17.5 7.00203C17.5 4.52203 15.48 2.50203 13 2.50203C11.11 2.50203 9.54299 3.76203 8.89499 5.50203H8.37701C7.73101 4.88903 6.89901 4.50403 6.00201 4.50203H6C5.07239 4.50414 4.18339 4.87358 3.52747 5.5295C2.87155 6.18542 2.50211 7.07442 2.5 8.00203C2.5 9.92903 4.073 11.502 6 11.502H12ZM6 10.498C5.6714 10.4991 5.34584 10.4352 5.04205 10.3099C4.73826 10.1846 4.46225 10.0005 4.22989 9.76814C3.99753 9.53579 3.8134 9.2598 3.68814 8.95601C3.56288 8.65222 3.49894 8.3266 3.5 7.998C3.49946 7.4922 3.65261 6.99819 3.93915 6.58138C4.22569 6.16456 4.63211 5.84467 5.10455 5.66402C5.577 5.48337 6.09318 5.45048 6.58472 5.56978C7.07625 5.68908 7.51993 5.95486 7.85699 6.33199C7.90399 6.38434 7.96151 6.42618 8.02579 6.45479C8.09006 6.48339 8.15966 6.49813 8.23001 6.498H9.133C9.24382 6.49797 9.35151 6.46114 9.43912 6.39326C9.52673 6.32539 9.5893 6.23031 9.617 6.123C9.80996 5.37225 10.247 4.70696 10.8594 4.23177C11.4718 3.75657 12.2248 3.49844 13 3.498C14.939 3.498 16.5 5.059 16.5 6.998C16.5013 7.92075 16.1371 8.80644 15.4869 9.46126C14.8368 10.1161 13.9537 10.4867 13.031 10.492C12.992 10.492 12.953 10.492 12.914 10.502H12L6 10.498ZM4.992 12.4899C4.92622 12.4906 4.86123 12.5044 4.80078 12.5303C4.74033 12.5563 4.68563 12.5939 4.63986 12.6412C4.5941 12.6884 4.55816 12.7444 4.53415 12.8056C4.51014 12.8669 4.49854 12.9322 4.5 12.998V14.998C4.509 15.655 5.49 15.655 5.5 14.998V14.498H6.5V15.998C6.50003 16.1304 6.55253 16.2573 6.646 16.351L7.646 17.351C7.69243 17.3976 7.7476 17.4346 7.80835 17.4598C7.8691 17.485 7.93423 17.498 8 17.498H13C13.1326 17.498 13.2598 17.4453 13.3535 17.3515C13.4473 17.2577 13.5 17.1306 13.5 16.998V15.494H13.836L16.456 17.398C16.5409 17.4618 16.6439 17.4968 16.75 17.498H17C17.1326 17.498 17.2598 17.4453 17.3535 17.3515C17.4473 17.2577 17.5 17.1306 17.5 16.998V12.998C17.5 12.8654 17.4473 12.7383 17.3535 12.6445C17.2598 12.5507 17.1326 12.498 17 12.498H16.75C16.644 12.4981 16.5407 12.5317 16.455 12.5939L13.838 14.498H13.5V12.498H12.5V16.498H8.207L7.5 15.791V12.498H6.5V13.498H5.5V12.998C5.50108 12.931 5.48868 12.8644 5.46353 12.8023C5.43838 12.7402 5.401 12.6838 5.35361 12.6364C5.30622 12.589 5.2498 12.5516 5.18768 12.5264C5.12556 12.5013 5.05901 12.4889 4.992 12.4899ZM16.5 13.799V16.197L14.85 14.998L16.5 13.799Z" fill="currentColor"/>
<path d="M7.5 12.498H12.5V13.498H7.5V12.498Z" fill="currentColor"/>
</svg>
