<svg width="20" height="20" viewBox="0 0 20 20" fill="none" xmlns="http://www.w3.org/2000/svg">
<path d="M11.5 2.98801C10.68 2.98801 10.004 3.66401 10.004 4.48401C10.004 5.30401 10.679 5.98001 11.5 5.98001C12.32 5.98001 12.996 5.30501 12.996 4.48401C12.996 3.66401 12.32 2.98801 11.5 2.98801ZM3.496 3.98801C3.36339 3.98801 3.23622 4.04069 3.14246 4.13446C3.04869 4.22823 2.996 4.3554 2.996 4.48801V7.48801C2.996 7.62062 3.04869 7.74778 3.14246 7.84155C3.23622 7.93532 3.36339 7.98801 3.496 7.98801H6.496C6.62861 7.98801 6.75578 7.93532 6.84955 7.84155C6.94332 7.74778 6.996 7.62062 6.996 7.48801V6.98801H10.01L9.996 10.275C8.336 11.685 6.755 12.897 6.008 16.383C5.83 17.057 6.86801 17.281 6.98401 16.593C7.66001 13.443 8.908 12.505 10.502 11.166C12.086 12.506 13.333 13.443 14.022 16.596C14.155 17.262 15.157 17.042 14.998 16.381C14.235 12.886 12.647 11.677 10.996 10.263L11.01 6.98801H16.512C17.169 6.97901 17.169 5.99801 16.512 5.98801H13.469C13.2387 6.29334 12.9412 6.54161 12.5996 6.71362C12.258 6.88563 11.8815 6.97678 11.499 6.98001C11.1169 6.97663 10.7406 6.88539 10.3994 6.71338C10.0581 6.54137 9.76102 6.29318 9.53101 5.98801H6.996V4.48801C6.996 4.3554 6.94332 4.22823 6.84955 4.13446C6.75578 4.04069 6.62861 3.98801 6.496 3.98801H3.496ZM3.996 4.98801H5.996V6.98801H3.996V4.98801Z" fill="currentColor"/>
</svg>
