<svg width="20" height="20" viewBox="0 0 20 20" fill="none" xmlns="http://www.w3.org/2000/svg">
<path d="M3.99299 2.98801C3.81105 2.98869 3.63272 3.03898 3.47725 3.13349C3.32177 3.228 3.19506 3.36315 3.1107 3.52436C3.02634 3.68557 2.98754 3.86673 2.99852 4.04835C3.0095 4.22996 3.06982 4.40513 3.17299 4.555L4.80299 7.00001L3.17299 9.44501C3.06335 9.60934 3.00484 9.80246 3.00484 10C3.00484 10.1976 3.06335 10.3907 3.17299 10.555L4.80299 13L3.17299 15.445C3.1001 15.5543 3.04946 15.6768 3.02394 15.8056C2.99842 15.9345 2.99852 16.0671 3.02424 16.1959C3.04997 16.3247 3.10079 16.4471 3.17384 16.5563C3.24689 16.6654 3.34074 16.7591 3.45 16.832C3.55926 16.9049 3.68179 16.9555 3.81062 16.9811C3.93946 17.0066 4.07205 17.0065 4.20085 16.9807C4.32964 16.955 4.45211 16.9042 4.56126 16.8312C4.67041 16.7581 4.76411 16.6643 4.83699 16.555L6.83699 13.555C6.94663 13.3907 7.00514 13.1976 7.00514 13C7.00514 12.8025 6.94663 12.6093 6.83699 12.445L5.20601 10L6.83598 7.555C6.94562 7.39067 7.00413 7.19755 7.00413 7.00001C7.00413 6.80246 6.94562 6.60934 6.83598 6.44501L4.83598 3.44501C4.745 3.30431 4.62015 3.18871 4.47285 3.10886C4.32555 3.02901 4.16054 2.98747 3.99299 2.98801ZM8.99299 2.98801C8.81105 2.98869 8.63272 3.03898 8.47725 3.13349C8.32177 3.228 8.19506 3.36315 8.1107 3.52436C8.02634 3.68557 7.98754 3.86673 7.99852 4.04835C8.0095 4.22996 8.06982 4.40513 8.17299 4.555L9.80299 7.00001L8.17299 9.44501C8.06335 9.60934 8.00484 9.80246 8.00484 10C8.00484 10.1976 8.06335 10.3907 8.17299 10.555L9.80299 13L8.17299 15.445C8.1001 15.5543 8.04946 15.6768 8.02394 15.8056C7.99842 15.9345 7.99852 16.0671 8.02424 16.1959C8.04997 16.3247 8.10079 16.4471 8.17384 16.5563C8.24689 16.6654 8.34074 16.7591 8.45 16.832C8.55926 16.9049 8.68179 16.9555 8.81062 16.9811C8.93946 17.0066 9.07206 17.0065 9.20085 16.9807C9.32964 16.955 9.45212 16.9042 9.56126 16.8312C9.67041 16.7581 9.76411 16.6643 9.83699 16.555L11.837 13.555C11.9466 13.3907 12.0051 13.1976 12.0051 13C12.0051 12.8025 11.9466 12.6093 11.837 12.445L10.206 10L11.836 7.555C11.9456 7.39067 12.0041 7.19755 12.0041 7.00001C12.0041 6.80246 11.9456 6.60934 11.836 6.44501L9.83598 3.44501C9.745 3.30431 9.62015 3.18871 9.47285 3.10886C9.32555 3.02901 9.16054 2.98747 8.99299 2.98801ZM13.993 2.98801C13.811 2.98869 13.6327 3.03898 13.4772 3.13349C13.3218 3.228 13.1951 3.36315 13.1107 3.52436C13.0263 3.68557 12.9875 3.86673 12.9985 4.04835C13.0095 4.22996 13.0698 4.40513 13.173 4.555L14.803 7.00001L13.173 9.44501C13.0633 9.60934 13.0048 9.80246 13.0048 10C13.0048 10.1976 13.0633 10.3907 13.173 10.555L14.803 13L13.173 15.445C13.1001 15.5543 13.0495 15.6768 13.0239 15.8056C12.9984 15.9345 12.9985 16.0671 13.0242 16.1959C13.05 16.3247 13.1008 16.4471 13.1738 16.5563C13.2469 16.6654 13.3407 16.7591 13.45 16.832C13.5593 16.9049 13.6818 16.9555 13.8106 16.9811C13.9395 17.0066 14.0721 17.0065 14.2008 16.9807C14.3296 16.955 14.4521 16.9042 14.5613 16.8312C14.6704 16.7581 14.7641 16.6643 14.837 16.555L16.837 13.555C16.9466 13.3907 17.0051 13.1976 17.0051 13C17.0051 12.8025 16.9466 12.6093 16.837 12.445L15.206 10L16.836 7.555C16.9456 7.39067 17.0041 7.19755 17.0041 7.00001C17.0041 6.80246 16.9456 6.60934 16.836 6.44501L14.836 3.44501C14.745 3.30431 14.6202 3.18871 14.4729 3.10886C14.3256 3.02901 14.1605 2.98747 13.993 2.98801Z" fill="currentColor"/>
</svg>
