<svg width="20" height="20" viewBox="0 0 20 20" fill="none" xmlns="http://www.w3.org/2000/svg">
<path d="M7.526 2.994C7.4451 2.99148 7.36479 3.00863 7.29198 3.04399C7.21917 3.07935 7.15604 3.13186 7.108 3.197C4.692 6.377 3.663 9.2 3.251 11.484C2.838 13.768 3.034 15.534 3.032 16.49C3.03147 16.6226 3.08364 16.75 3.17703 16.8441C3.27042 16.9383 3.39739 16.9915 3.53 16.992C3.66261 16.9925 3.79 16.9404 3.88414 16.847C3.97828 16.7536 4.03147 16.6266 4.032 16.494C4.034 15.409 3.848 13.803 4.235 11.662C4.622 9.521 5.576 6.866 7.903 3.802C7.95992 3.72931 7.99561 3.64228 8.0061 3.55055C8.0166 3.45882 8.00149 3.36598 7.96245 3.28231C7.92341 3.19865 7.86197 3.12742 7.78493 3.07653C7.7079 3.02564 7.61827 2.99708 7.526 2.994ZM12.481 5.996C12.3682 6.00278 12.2611 6.04754 12.177 6.123C8.053 9.708 7.005 13.659 7.005 16.499C7.005 16.5647 7.01793 16.6297 7.04306 16.6903C7.06819 16.751 7.10502 16.8061 7.15145 16.8526C7.19788 16.899 7.25299 16.9358 7.31366 16.9609C7.37432 16.9861 7.43934 16.999 7.505 16.999C7.57066 16.999 7.63568 16.9861 7.69634 16.9609C7.757 16.9358 7.81212 16.899 7.85855 16.8526C7.90498 16.8061 7.94181 16.751 7.96694 16.6903C7.99207 16.6297 8.005 16.5647 8.005 16.499C8.005 13.899 8.918 10.279 12.833 6.876C12.9127 6.80815 12.9692 6.71697 12.9943 6.61534C13.0195 6.5137 13.0121 6.40674 12.9732 6.30953C12.9343 6.21231 12.8659 6.12976 12.7776 6.07351C12.6893 6.01726 12.5855 5.99015 12.481 5.996ZM16.507 10.999C13.49 10.993 11.012 13.47 11.005 16.498C11.0045 16.6306 11.0566 16.758 11.15 16.8521C11.2434 16.9463 11.3704 16.9995 11.503 17C11.6356 17.0005 11.763 16.9484 11.8571 16.855C11.9513 16.7616 12.0045 16.6346 12.005 16.502C12.011 14.017 14.035 11.994 16.505 12C16.6376 12.0003 16.7649 11.9478 16.8588 11.8543C16.9528 11.7607 17.0057 11.6336 17.006 11.501C17.0063 11.3684 16.9538 11.2411 16.8603 11.1472C16.7667 11.0532 16.6396 11.0003 16.507 11V10.999Z" fill="currentColor"/>
</svg>
