<svg width="20" height="20" viewBox="0 0 20 20" fill="none" xmlns="http://www.w3.org/2000/svg">
<path d="M15.996 2.99699C14.678 2.99699 13.305 3.28399 12.299 4.28999C12.2035 4.38224 12.1273 4.49259 12.0749 4.61459C12.0225 4.73659 11.9949 4.86781 11.9937 5.00059C11.9926 5.13337 12.0179 5.26505 12.0682 5.38795C12.1185 5.51084 12.1927 5.6225 12.2866 5.71639C12.3805 5.81028 12.4921 5.88453 12.615 5.93482C12.7379 5.9851 12.8696 6.0104 13.0024 6.00924C13.1352 6.00809 13.2664 5.9805 13.3884 5.9281C13.5104 5.87569 13.6208 5.7995 13.713 5.70399C14.207 5.20999 14.961 4.99699 15.996 4.99699C16.2612 4.99699 16.5156 4.89164 16.7031 4.7041C16.8906 4.51656 16.996 4.26221 16.996 3.99699C16.996 3.73178 16.8906 3.47742 16.7031 3.28989C16.5156 3.10235 16.2612 2.99699 15.996 2.99699ZM8.756 6.03999C8.0335 6.02246 7.31317 6.12623 6.625 6.34699C5.297 6.78699 4.153 7.88399 4.008 9.40699C3.813 11.457 4.815 12.901 5.035 13.753C5.181 14.318 5.058 14.476 4.854 14.671C4.649 14.866 4.241 15.003 4.004 15.003C3.73878 15.003 3.48443 15.1084 3.29689 15.2959C3.10936 15.4834 3.004 15.7378 3.004 16.003C3.004 16.2682 3.10936 16.5226 3.29689 16.7101C3.48443 16.8976 3.73878 17.003 4.004 17.003C4.767 17.003 5.578 16.743 6.234 16.116C6.891 15.489 7.267 14.398 6.971 13.251C6.599 11.813 5.876 10.875 5.998 9.59699C6.066 8.88099 6.438 8.51499 7.254 8.24499C8.069 7.97499 9.284 7.97099 10.486 8.31399C11.689 8.65599 12.87 9.32899 13.706 10.271C14.54 11.212 15.056 12.398 14.998 13.96C14.976 14.545 14.809 14.734 14.625 14.855C14.441 14.975 14.123 15.036 13.715 14.927C13.058 14.751 12.702 14.342 12.415 13.624C12.126 12.906 12.005 11.92 12.005 10.997C12.005 10.7318 11.8996 10.4774 11.7121 10.2899C11.5246 10.1024 11.2702 9.99699 11.005 9.99699C10.7398 9.99699 10.4854 10.1024 10.2979 10.2899C10.1104 10.4774 10.005 10.7318 10.005 10.997C10.005 12.074 10.117 13.272 10.557 14.368C10.997 15.465 11.864 16.501 13.197 16.858C14.039 17.084 14.963 17.025 15.721 16.528C16.478 16.032 16.956 15.106 16.996 14.036V14.034C17.072 11.973 16.336 10.224 15.201 8.94399C14.066 7.66399 12.561 6.82399 11.035 6.38999C10.2935 6.17442 9.52701 6.05676 8.755 6.03999H8.756Z" fill="currentColor"/>
</svg>
