<svg width="20" height="20" viewBox="0 0 20 20" fill="none" xmlns="http://www.w3.org/2000/svg">
<path d="M4.5 3C3.678 3 3 3.678 3 4.5V9.5C3 10.322 4 11 4.5 11H5V8H4.5C3.824 8.01 3.824 6.99 4.5 7H15.5C16.176 6.99 16.176 8.01 15.5 8H15V11H15.5C16.322 11 17 10.322 17 9.5V4.5C17 3.678 16.322 3 15.5 3H5H4.5Z" fill="currentColor"/>
<path d="M6 8V16.5C6 16.6326 6.05269 16.7598 6.14645 16.8536C6.24022 16.9473 6.36739 17 6.5 17H13.5C13.6326 17 13.7598 16.9473 13.8535 16.8536C13.9473 16.7598 14 16.6326 14 16.5V8H6ZM12 10C12.546 10 13 10.454 13 11C13 11.546 12.546 12 12 12C11.454 12 11 11.546 11 11C11 10.454 11.454 10 12 10ZM9.492 12C9.5757 11.9987 9.65837 12.0185 9.73245 12.0574C9.80653 12.0964 9.86964 12.1533 9.916 12.223L11.916 15.223C11.9661 15.2983 11.9949 15.3858 11.9992 15.4761C12.0035 15.5665 11.9832 15.6563 11.9405 15.736C11.8978 15.8158 11.8343 15.8824 11.7568 15.9289C11.6792 15.9754 11.5904 16 11.5 16H7.5C7.40956 16 7.32082 15.9754 7.24324 15.9289C7.16566 15.8824 7.10215 15.8158 7.05946 15.736C7.01677 15.6563 6.9965 15.5665 7.00082 15.4761C7.00515 15.3858 7.03389 15.2983 7.084 15.223L9.084 12.223C9.12892 12.1556 9.1895 12.1001 9.26056 12.0613C9.33162 12.0224 9.41104 12.0014 9.492 12Z" fill="currentColor"/>
</svg>
