<svg width="20" height="20" viewBox="0 0 20 20" fill="none" xmlns="http://www.w3.org/2000/svg">
<path d="M12 3C10.8296 3.00037 9.69646 3.41147 8.7981 4.16163C7.89973 4.91179 7.29311 5.95345 7.084 7.105C7.566 7.015 8.059 6.976 8.554 7.031C9.218 7.105 9.106 8.1 8.444 8.025C7.96244 7.97156 7.47519 8.00612 7.006 8.127C7.0383 9.40591 7.56009 10.6237 8.46378 11.5292C9.36746 12.4348 10.5842 12.9591 11.863 12.994C11.985 12.521 12.029 12.029 11.973 11.539C11.9654 11.4737 11.9708 11.4076 11.9888 11.3444C12.0068 11.2812 12.0371 11.2222 12.0779 11.1707C12.1187 11.1192 12.1693 11.0763 12.2267 11.0443C12.2841 11.0124 12.3472 10.992 12.4125 10.9845C12.4778 10.9769 12.5439 10.9823 12.6071 11.0003C12.6703 11.0183 12.7293 11.0486 12.7808 11.0894C12.8323 11.1302 12.8752 11.1808 12.9072 11.2382C12.9391 11.2956 12.9594 11.3587 12.967 11.424C13.0232 11.9206 13.0047 12.4229 12.912 12.914C14.1354 12.6841 15.2291 12.0061 15.9792 11.0126C16.7292 10.0191 17.0817 8.78158 16.9677 7.54197C16.8536 6.30236 16.2813 5.14987 15.3626 4.30988C14.4439 3.46989 13.2448 3.00281 12 3ZM10.432 7.83C10.5322 7.83125 10.6298 7.86261 10.712 7.92C11.2534 8.28257 11.7182 8.74807 12.08 9.29C12.486 9.849 11.614 10.434 11.25 9.846C10.9603 9.41284 10.5886 9.04052 10.156 8.75C9.73599 8.478 9.931 7.826 10.432 7.83Z" fill="currentColor"/>
<path d="M5.484 7.75801C5.38841 7.7612 5.29575 7.79174 5.217 7.84601C4.60623 8.25563 4.09335 8.79494 3.7149 9.42549C3.33645 10.056 3.10174 10.7623 3.02753 11.494C2.95331 12.2256 3.0414 12.9646 3.28552 13.6583C3.52964 14.352 3.92379 14.9834 4.43985 15.5073C4.95592 16.0312 5.5812 16.4348 6.27114 16.6894C6.96108 16.944 7.69868 17.0433 8.43137 16.9801C9.16406 16.9169 9.8738 16.6929 10.51 16.3241C11.1462 15.9552 11.6932 15.4505 12.112 14.846C12.1494 14.792 12.1757 14.7311 12.1895 14.6669C12.2034 14.6027 12.2044 14.5363 12.1926 14.4717C12.1809 14.4071 12.1564 14.3454 12.1208 14.2902C12.0852 14.235 12.039 14.1874 11.985 14.15C11.931 14.1126 11.8701 14.0863 11.8059 14.0725C11.7416 14.0586 11.6753 14.0576 11.6107 14.0694C11.5461 14.0811 11.4844 14.1056 11.4292 14.1412C11.374 14.1768 11.3264 14.223 11.289 14.277C10.8411 14.9244 10.212 15.4251 9.48069 15.7163C8.74935 16.0075 7.94829 16.0763 7.178 15.914C6.40708 15.7531 5.70086 15.3681 5.14795 14.8072C4.59504 14.2464 4.22008 13.5348 4.07011 12.7617C3.92014 11.9886 4.00185 11.1884 4.30498 10.4615C4.60811 9.73464 5.11916 9.1135 5.774 8.67601C5.86521 8.61627 5.93438 8.52835 5.97099 8.42565C6.00761 8.32295 6.00965 8.21109 5.9768 8.10713C5.94396 8.00316 5.87803 7.91279 5.78907 7.84976C5.7001 7.78673 5.59297 7.75451 5.484 7.75801Z" fill="currentColor"/>
</svg>
