<svg width="20" height="20" viewBox="0 0 20 20" fill="none" xmlns="http://www.w3.org/2000/svg">
<path d="M7.99699 3V5H12.997V8.70801L14.851 6.853C14.9445 6.75929 14.997 6.63235 14.997 6.5C15.008 5.526 14.997 3.458 14.997 3H7.99699ZM4.99699 6V10H11.997V6H4.99699ZM16.481 7.125C16.3539 7.1289 16.233 7.18111 16.143 7.271L12.415 11H3.50298C3.37037 11 3.24323 11.0527 3.14946 11.1465C3.05569 11.2402 3.00298 11.3674 3.00298 11.5V16.5C3.00298 16.6326 3.05569 16.7598 3.14946 16.8535C3.24323 16.9473 3.37037 17 3.50298 17H11.997V12.5C11.9954 12.3677 12.0463 12.2402 12.1385 12.1454C12.2307 12.0505 12.3567 11.9961 12.489 11.994C12.5558 11.9929 12.6222 12.0052 12.6842 12.0303C12.7462 12.0553 12.8025 12.0925 12.8499 12.1397C12.8973 12.1869 12.9347 12.243 12.9599 12.3049C12.9852 12.3668 12.9978 12.4332 12.997 12.5V16.832L16.85 12.978C16.9439 12.8845 16.9967 12.7575 16.997 12.625V7.625C16.997 7.55797 16.9836 7.4916 16.9574 7.42987C16.9313 7.36814 16.8931 7.3123 16.845 7.26566C16.7968 7.21901 16.7398 7.18252 16.6773 7.15836C16.6148 7.13419 16.548 7.12286 16.481 7.125Z" fill="currentColor"/>
</svg>
