<svg width="20" height="20" viewBox="0 0 20 20" fill="none" xmlns="http://www.w3.org/2000/svg">
<path d="M13.8632 6.14737C13.9552 6.24244 14.0058 6.37009 14.004 6.50238C14.0021 6.63467 13.9478 6.76081 13.8532 6.85322L10.7062 10.0002L13.8532 13.1472C13.9038 13.1926 13.9447 13.2478 13.9732 13.3095C14.0018 13.3712 14.0175 13.4381 14.0194 13.5061C14.0212 13.574 14.0092 13.6417 13.9841 13.7048C13.9589 13.768 13.9211 13.8254 13.873 13.8735C13.825 13.9216 13.7676 13.9593 13.7044 13.9845C13.6412 14.0096 13.5736 14.0217 13.5056 14.0198C13.4377 14.0179 13.3708 14.0022 13.3091 13.9737C13.2474 13.9451 13.1921 13.9042 13.1468 13.8536L9.99977 10.7066L6.85279 13.8536C6.80741 13.9042 6.75219 13.9451 6.69049 13.9737C6.62879 14.0022 6.56191 14.0179 6.49393 14.0198C6.42596 14.0217 6.35833 14.0097 6.29516 13.9845C6.23198 13.9593 6.1746 13.9216 6.12652 13.8735C6.07843 13.8254 6.04065 13.768 6.01549 13.7048C5.99033 13.6417 5.97831 13.574 5.98018 13.5061C5.98204 13.4381 5.99774 13.3712 6.02632 13.3095C6.0549 13.2478 6.09576 13.1926 6.14641 13.1472L9.29339 10.0002L6.1464 6.85322C6.09575 6.80785 6.0549 6.75262 6.02632 6.69092C5.99774 6.62922 5.98204 6.56233 5.98018 6.49436C5.97831 6.42639 5.99034 6.35875 6.0155 6.29557C6.04066 6.2324 6.07843 6.17502 6.12651 6.12694C6.1746 6.07886 6.23197 6.04108 6.29515 6.01592C6.35832 5.99077 6.42596 5.97874 6.49393 5.9806C6.56191 5.98246 6.62879 5.99816 6.69049 6.02674C6.75219 6.05532 6.80742 6.09618 6.8528 6.14682L9.99979 9.29381L13.1468 6.14683C13.1934 6.09905 13.2491 6.06107 13.3107 6.03517C13.3722 6.00926 13.4383 5.99596 13.5051 5.99601C13.5719 5.99606 13.638 6.00947 13.6995 6.03547C13.761 6.06146 13.8167 6.09951 13.8632 6.14737Z" fill="currentColor"/>
</svg>
