<svg width="20" height="20" viewBox="0 0 20 20" fill="none" xmlns="http://www.w3.org/2000/svg">
<path d="M13.257 2.99601C12.867 2.98901 12.435 3.06601 11.974 3.25401C10.744 3.75301 9.21699 4.92303 7.11699 7.15403C5.02499 9.37703 3.86999 10.89 3.34099 12.07C3.07699 12.66 2.967 13.182 3.025 13.66C3.08865 14.1316 3.31586 14.5658 3.667 14.887L6.167 16.887C6.66 17.282 7.281 16.589 6.834 16.142L4.834 14.142C4.464 13.773 4.534 13.149 4.834 12.85C5.155 12.528 5.694 12.418 6.126 12.85L8.126 14.85C8.21988 14.9439 8.34722 14.9966 8.48 14.9966C8.61278 14.9966 8.74012 14.9439 8.834 14.85C8.92789 14.7561 8.98063 14.6288 8.98063 14.496C8.98063 14.3632 8.92789 14.2359 8.834 14.142L6.834 12.142C6.464 11.773 6.534 11.149 6.834 10.85C7.155 10.528 7.694 10.418 8.126 10.85L10.126 12.85C10.1725 12.8965 10.2277 12.9334 10.2884 12.9585C10.3491 12.9837 10.4143 12.9966 10.48 12.9966C10.5457 12.9966 10.6108 12.9837 10.6716 12.9585C10.7323 12.9334 10.7875 12.8965 10.834 12.85C10.8805 12.8035 10.9174 12.7483 10.9425 12.6876C10.9677 12.6269 10.9806 12.5618 10.9806 12.496C10.9806 12.4303 10.9677 12.3652 10.9425 12.3044C10.9174 12.2437 10.8805 12.1885 10.834 12.142L8.857 10.168C8.84957 10.1591 8.8419 10.1505 8.834 10.142C8.464 9.77301 8.534 9.14901 8.834 8.85001C9.155 8.52801 9.694 8.41801 10.126 8.85001L12.126 10.85C12.1725 10.8965 12.2277 10.9334 12.2884 10.9585C12.3491 10.9837 12.4143 10.9966 12.48 10.9966C12.5457 10.9966 12.6108 10.9837 12.6716 10.9585C12.7323 10.9334 12.7875 10.8965 12.834 10.85C12.8805 10.8035 12.9174 10.7483 12.9425 10.6876C12.9677 10.6269 12.9806 10.5618 12.9806 10.496C12.9806 10.4303 12.9677 10.3652 12.9425 10.3044C12.9174 10.2437 12.8805 10.1885 12.834 10.142L10.857 8.16801C10.8496 8.15914 10.8419 8.15047 10.834 8.14201C10.464 7.77301 10.534 7.14901 10.834 6.85001C11.155 6.52801 11.694 6.41801 12.127 6.85001L14.127 8.85001C14.1735 8.89644 14.2287 8.93325 14.2894 8.95835C14.3501 8.98345 14.4152 8.99636 14.4809 8.99632C14.5466 8.99627 14.6116 8.98323 14.6723 8.95805C14.733 8.93286 14.7881 8.89601 14.8345 8.84953C14.8809 8.80304 14.9177 8.74783 14.9428 8.68711C14.9679 8.6264 14.9808 8.56134 14.9808 8.49564C14.9807 8.42995 14.9677 8.36492 14.9426 8.30424C14.9174 8.24356 14.8805 8.18843 14.834 8.14201L12.834 6.14201C12.464 5.77301 12.534 5.14901 12.834 4.85001C13.155 4.52801 13.694 4.41801 14.127 4.85001L16.127 6.85001C16.573 7.29701 17.267 6.67602 16.871 6.18302L14.871 3.68302C14.5405 3.33749 14.1068 3.10863 13.635 3.03098C13.5101 3.00983 13.3837 2.99816 13.257 2.99601Z" fill="currentColor"/>
</svg>
