<svg width="20" height="20" viewBox="0 0 20 20" fill="none" xmlns="http://www.w3.org/2000/svg">
<path d="M15.493 5.97901C15.2569 5.98088 15.0246 6.03844 14.815 6.14701C11.398 7.85601 8.985 11.206 8.985 15.489C8.985 15.8868 9.14303 16.2684 9.42433 16.5497C9.70564 16.831 10.0872 16.989 10.485 16.989C10.8828 16.989 11.2644 16.831 11.5457 16.5497C11.827 16.2684 11.985 15.8868 11.985 15.489C11.985 12.272 13.572 10.122 16.155 8.831C16.4623 8.68333 16.7102 8.43535 16.8577 8.12792C17.0053 7.82049 17.0437 7.47196 16.9666 7.13979C16.8895 6.80763 16.7015 6.51164 16.4336 6.30063C16.1657 6.08962 15.834 5.97619 15.493 5.97901Z" fill="currentColor"/>
<path d="M8.48097 2.991C8.351 2.98646 8.22442 3.03273 8.128 3.12C4.044 6.71 2.98402 10.928 2.99702 16.483C2.99729 16.6156 3.05022 16.7427 3.14418 16.8363C3.23813 16.9298 3.36539 16.9823 3.498 16.982C3.6306 16.9817 3.75769 16.9288 3.85127 16.8348C3.94485 16.7409 3.99729 16.6136 3.99702 16.481C3.98502 11.049 4.926 7.267 8.787 3.871C8.86358 3.80565 8.91866 3.7187 8.94502 3.62154C8.97137 3.52437 8.96777 3.42152 8.9347 3.32643C8.90164 3.23134 8.84067 3.14846 8.75972 3.08861C8.67876 3.02876 8.58157 2.99473 8.48097 2.991Z" fill="currentColor"/>
</svg>
