<svg width="20" height="20" viewBox="0 0 20 20" fill="none" xmlns="http://www.w3.org/2000/svg">
<path d="M5.49601 7.99402C5.4063 7.99525 5.31857 8.02058 5.24204 8.06738C5.1655 8.11418 5.10298 8.18072 5.06101 8.26001C3.52901 11.067 3.04601 13.305 3.03901 16.484C3.03874 16.5497 3.05141 16.6147 3.0763 16.6755C3.10118 16.7362 3.13778 16.7915 3.18403 16.8381C3.23027 16.8847 3.28527 16.9218 3.34583 16.9472C3.40639 16.9726 3.47133 16.9858 3.53699 16.986C3.60265 16.9863 3.66773 16.9736 3.72849 16.9487C3.78925 16.9238 3.84453 16.8872 3.89115 16.8409C3.93776 16.7947 3.97482 16.7398 4.00019 16.6792C4.02556 16.6186 4.03874 16.5536 4.03901 16.488C4.04601 13.405 4.471 11.433 5.939 8.73999C5.98233 8.66335 6.00464 8.57662 6.0037 8.48859C6.00276 8.40055 5.97861 8.31434 5.93366 8.23865C5.88871 8.16295 5.82456 8.10045 5.74772 8.05749C5.67087 8.01454 5.58404 7.99266 5.49601 7.99402ZM12.494 9.99402C12.4211 9.9955 12.3494 10.0129 12.2839 10.045C12.2184 10.0772 12.1608 10.1232 12.115 10.18C10.841 11.708 10 13.166 10 16.5C10 16.6326 10.0527 16.7598 10.1465 16.8536C10.2402 16.9473 10.3674 17 10.5 17C10.6326 17 10.7598 16.9473 10.8535 16.8536C10.9473 16.7598 11 16.6326 11 16.5C11 13.32 11.659 12.292 12.885 10.82C12.948 10.7468 12.9885 10.6568 13.0015 10.561C13.0144 10.4653 12.9994 10.3678 12.9581 10.2804C12.9169 10.193 12.8512 10.1194 12.769 10.0686C12.6868 10.0178 12.5916 9.99189 12.495 9.99402H12.494Z" fill="currentColor"/>
<path d="M6.5 3C6.36739 3 6.24022 3.05266 6.14645 3.14642C6.05269 3.24019 6 3.36739 6 3.5V6.5C6 6.63261 6.05269 6.75981 6.14645 6.85358C6.24022 6.94734 6.36739 7 6.5 7H9.5C9.63261 7 9.75978 6.94734 9.85355 6.85358C9.94731 6.75981 10 6.63261 10 6.5V3.5C10 3.36739 9.94731 3.24019 9.85355 3.14642C9.75978 3.05266 9.63261 3 9.5 3H6.5ZM13.5 5C13.3674 5 13.2402 5.05266 13.1465 5.14642C13.0527 5.24019 13 5.36739 13 5.5V8.5C13 8.63261 13.0527 8.75981 13.1465 8.85358C13.2402 8.94734 13.3674 9 13.5 9H16.5C16.6326 9 16.7598 8.94734 16.8535 8.85358C16.9473 8.75981 17 8.63261 17 8.5V5.5C17 5.36739 16.9473 5.24019 16.8535 5.14642C16.7598 5.05266 16.6326 5 16.5 5H13.5Z" fill="currentColor"/>
</svg>
