<svg width="20" height="20" viewBox="0 0 20 20" fill="none" xmlns="http://www.w3.org/2000/svg">
<path d="M3.56 2.993C3.49433 2.99404 3.42952 3.00801 3.36926 3.03411C3.30899 3.0602 3.25446 3.09791 3.20877 3.14508C3.16308 3.19226 3.12713 3.24797 3.10298 3.30904C3.07882 3.37011 3.06694 3.43533 3.068 3.501V6.501C3.068 6.6336 3.12068 6.76079 3.21444 6.85456C3.30821 6.94833 3.43539 7.001 3.568 7.001C3.70061 7.001 3.82778 6.94833 3.92155 6.85456C4.01532 6.76079 4.068 6.6336 4.068 6.501V3.501C4.06908 3.43399 4.05668 3.36745 4.03153 3.30533C4.00638 3.24321 3.969 3.18677 3.92162 3.13938C3.87423 3.09199 3.81779 3.05462 3.75567 3.02947C3.69355 3.00432 3.62701 2.99192 3.56 2.993ZM3.56 7.993C3.49433 7.99404 3.42952 8.00801 3.36926 8.03411C3.30899 8.0602 3.25446 8.09791 3.20877 8.14508C3.16308 8.19226 3.12713 8.24797 3.10298 8.30904C3.07882 8.37011 3.06694 8.43533 3.068 8.501V11.501C3.068 11.6336 3.12068 11.7608 3.21444 11.8546C3.30821 11.9483 3.43539 12.001 3.568 12.001C3.70061 12.001 3.82778 11.9483 3.92155 11.8546C4.01532 11.7608 4.068 11.6336 4.068 11.501V8.501C4.06908 8.43399 4.05668 8.36745 4.03153 8.30533C4.00638 8.24321 3.969 8.18677 3.92162 8.13938C3.87423 8.09199 3.81779 8.05462 3.75567 8.02947C3.69355 8.00432 3.62701 7.99192 3.56 7.993ZM3.56 12.993C3.49433 12.994 3.42952 13.008 3.36926 13.0341C3.30899 13.0602 3.25446 13.0979 3.20877 13.1451C3.16308 13.1923 3.12713 13.248 3.10298 13.309C3.07882 13.3701 3.06694 13.4353 3.068 13.501V16.501C3.068 16.6336 3.12068 16.7608 3.21444 16.8546C3.30821 16.9483 3.43539 17.001 3.568 17.001C3.70061 17.001 3.82778 16.9483 3.92155 16.8546C4.01532 16.7608 4.068 16.6336 4.068 16.501V13.501C4.06908 13.434 4.05668 13.3675 4.03153 13.3053C4.00638 13.2432 3.969 13.1868 3.92162 13.1394C3.87423 13.092 3.81779 13.0546 3.75567 13.0295C3.69355 13.0043 3.62701 12.9919 3.56 12.993Z" fill="currentColor"/>
<path d="M6.57799 2.993C6.44538 2.993 6.31821 3.04568 6.22444 3.13945C6.13067 3.23322 6.07799 3.36039 6.07799 3.493V3.993H5.06799V4.993H10.093V4.493C10.093 4.42605 10.0796 4.35979 10.0536 4.29813C10.0275 4.23646 9.98931 4.18066 9.94128 4.13403C9.89325 4.0874 9.83635 4.05088 9.77394 4.02666C9.71154 4.00243 9.6449 3.99099 9.57799 3.993H8.07799V3.493C8.07799 3.36039 8.02531 3.23322 7.93155 3.13945C7.83778 3.04568 7.7106 2.993 7.57799 2.993H6.57799ZM10.093 4.993L10.078 5.493V5.993H5.06799V14.993H9.07799V10.677C9.04754 10.4481 9.07034 10.2153 9.1446 9.99673C9.21885 9.77813 9.34257 9.57961 9.50612 9.41664C9.66966 9.25368 9.86862 9.13066 10.0875 9.05717C10.3064 8.98369 10.5392 8.96174 10.768 8.993H12.077V5.493C12.077 5.36039 12.0243 5.23322 11.9305 5.13945C11.8368 5.04568 11.7096 4.993 11.577 4.993H10.093Z" fill="currentColor"/>
<path d="M10.588 9.98901C10.6047 9.98951 10.6214 9.99084 10.638 9.99301H14.578C14.7106 9.99301 14.8378 10.0457 14.9315 10.1395C15.0253 10.2332 15.078 10.3604 15.078 10.493C15.078 10.6256 15.0253 10.7528 14.9315 10.8466C14.8378 10.9403 14.7106 10.993 14.578 10.993H11.785L16.932 16.14C16.9797 16.1861 17.0178 16.2413 17.044 16.3023C17.0703 16.3633 17.084 16.4289 17.0846 16.4953C17.0852 16.5617 17.0725 16.6275 17.0474 16.689C17.0223 16.7504 16.9851 16.8063 16.9382 16.8532C16.8912 16.9002 16.8354 16.9373 16.774 16.9624C16.7125 16.9876 16.6467 17.0002 16.5803 16.9996C16.5139 16.9991 16.4483 16.9853 16.3873 16.9591C16.3263 16.9329 16.2711 16.8948 16.225 16.847L11.078 11.7V14.493C11.078 14.6256 11.0253 14.7528 10.9315 14.8466C10.8378 14.9403 10.7106 14.993 10.578 14.993C10.4454 14.993 10.3182 14.9403 10.2244 14.8466C10.1307 14.7528 10.078 14.6256 10.078 14.493V10.55C10.0693 10.4787 10.0762 10.4063 10.098 10.3378C10.1199 10.2693 10.1563 10.2063 10.2047 10.1532C10.2531 10.1 10.3124 10.0579 10.3785 10.0298C10.4447 10.0016 10.5161 9.98804 10.588 9.99001V9.98901Z" fill="currentColor"/>
</svg>
