<svg width="20" height="20" viewBox="0 0 20 20" fill="none" xmlns="http://www.w3.org/2000/svg">
<path d="M16.505 3C16.5707 3.00105 16.6355 3.01502 16.6957 3.04111C16.756 3.06721 16.8105 3.10491 16.8562 3.15209C16.9019 3.19926 16.9379 3.25498 16.962 3.31604C16.9862 3.37711 16.9981 3.44234 16.997 3.508V6.508C16.997 6.64061 16.9443 6.76779 16.8506 6.86156C16.7568 6.95533 16.6296 7.008 16.497 7.008C16.3644 7.008 16.2372 6.95533 16.1434 6.86156C16.0497 6.76779 15.997 6.64061 15.997 6.508V3.508C15.9959 3.44099 16.0083 3.37446 16.0335 3.31234C16.0586 3.25021 16.096 3.19377 16.1434 3.14638C16.1908 3.09899 16.2472 3.06162 16.3093 3.03647C16.3714 3.01133 16.438 2.99892 16.505 3ZM16.505 8C16.5707 8.00105 16.6355 8.01502 16.6957 8.04111C16.756 8.06721 16.8105 8.10491 16.8562 8.15209C16.9019 8.19926 16.9379 8.25498 16.962 8.31604C16.9862 8.37711 16.9981 8.44234 16.997 8.508V11.508C16.997 11.6406 16.9443 11.7678 16.8506 11.8616C16.7568 11.9553 16.6296 12.008 16.497 12.008C16.3644 12.008 16.2372 11.9553 16.1434 11.8616C16.0497 11.7678 15.997 11.6406 15.997 11.508V8.508C15.9959 8.44099 16.0083 8.37446 16.0335 8.31234C16.0586 8.25021 16.096 8.19377 16.1434 8.14638C16.1908 8.09899 16.2472 8.06162 16.3093 8.03647C16.3714 8.01133 16.438 7.99892 16.505 8ZM16.505 13C16.5707 13.001 16.6355 13.015 16.6957 13.0411C16.756 13.0672 16.8105 13.1049 16.8562 13.1521C16.9019 13.1993 16.9379 13.255 16.962 13.316C16.9862 13.3771 16.9981 13.4423 16.997 13.508V16.508C16.997 16.6406 16.9443 16.7678 16.8506 16.8616C16.7568 16.9553 16.6296 17.008 16.497 17.008C16.3644 17.008 16.2372 16.9553 16.1434 16.8616C16.0497 16.7678 15.997 16.6406 15.997 16.508V13.508C15.9959 13.441 16.0083 13.3745 16.0335 13.3123C16.0586 13.2502 16.096 13.1938 16.1434 13.1464C16.1908 13.099 16.2472 13.0616 16.3093 13.0365C16.3714 13.0113 16.438 12.9989 16.505 13Z" fill="currentColor"/>
<path d="M13.481 3C13.6136 3 13.7408 3.05269 13.8345 3.14645C13.9283 3.24022 13.981 3.36739 13.981 3.5V4H14.997V5H9.99699V4.5C9.99699 4.247 10.147 4.005 10.481 4H11.981V3.5C11.981 3.36739 12.0337 3.24022 12.1274 3.14645C12.2212 3.05269 12.3484 3 12.481 3H13.481ZM9.99699 5L9.981 5.5V6H14.997V15H8.481C8.34839 15 8.22121 14.9473 8.12744 14.8535C8.03367 14.7598 7.981 14.6326 7.981 14.5V14.14L10.561 11.56C10.7084 11.4227 10.8266 11.2571 10.9086 11.0731C10.9905 10.8891 11.0346 10.6904 11.0382 10.489C11.0417 10.2876 11.0047 10.0876 10.9292 9.9008C10.8538 9.71403 10.7415 9.54435 10.5991 9.40192C10.4566 9.25948 10.287 9.1472 10.1002 9.07176C9.91341 8.99632 9.71335 8.95926 9.51195 8.96281C9.31054 8.96637 9.11192 9.01045 8.92792 9.09244C8.74392 9.17442 8.57832 9.29263 8.44099 9.44L7.981 9.89799V5.5C7.981 5.36739 8.03367 5.24022 8.12744 5.14645C8.22121 5.05269 8.34839 5 8.481 5H9.99699Z" fill="currentColor"/>
<path d="M9.507 9.994C9.60693 9.99339 9.70475 10.0227 9.78784 10.0783C9.87093 10.1338 9.93547 10.2129 9.97314 10.3055C10.0108 10.3981 10.0199 10.4998 9.99918 10.5976C9.97848 10.6953 9.92896 10.7846 9.857 10.854L4.709 16H7.502C7.63461 16 7.76179 16.0527 7.85556 16.1464C7.94932 16.2402 8.002 16.3674 8.002 16.5C8.002 16.6326 7.94932 16.7598 7.85556 16.8535C7.76179 16.9473 7.63461 17 7.502 17H3.562C3.48518 17.0102 3.40705 17.0023 3.33377 16.9771C3.2605 16.9519 3.19408 16.91 3.13978 16.8547C3.08547 16.7994 3.04476 16.7323 3.02085 16.6586C2.99694 16.5849 2.99048 16.5066 3.002 16.43V12.5C3.002 12.3674 3.05468 12.2402 3.14845 12.1464C3.24222 12.0527 3.36939 12 3.502 12C3.63461 12 3.76179 12.0527 3.85556 12.1464C3.94932 12.2402 4.002 12.3674 4.002 12.5V15.293L9.148 10.146C9.1945 10.098 9.25013 10.0599 9.31161 10.0338C9.3731 10.0077 9.4392 9.99413 9.506 9.994H9.507Z" fill="currentColor"/>
</svg>
