<svg width="20" height="20" viewBox="0 0 20 20" fill="none" xmlns="http://www.w3.org/2000/svg">
<path d="M10 7.00101C8.35 7.00101 7 8.35101 7 10.001C7 11.651 8.35 13.001 10 13.001C11.65 13.001 13 11.651 13 10.001C13 8.35101 11.65 7.00101 10 7.00101Z" fill="currentColor"/>
<path d="M9.924 3.00098C8.52742 3.01729 7.16757 3.45045 6.01888 4.24494C4.87019 5.03942 3.98505 6.15897 3.47701 7.45996C2.84916 9.076 2.8428 10.8675 3.45917 12.4879C4.07555 14.1084 5.27086 15.4427 6.814 16.233C8.35873 17.021 10.1408 17.2083 11.8156 16.7585C13.4904 16.3087 14.9389 15.2539 15.881 13.798C15.953 13.6866 15.9778 13.5511 15.95 13.4214C15.9221 13.2918 15.8439 13.1785 15.7325 13.1065C15.6211 13.0345 15.4857 13.0097 15.356 13.0375C15.2263 13.0654 15.113 13.1436 15.041 13.255C14.2355 14.505 12.9942 15.411 11.5582 15.7972C10.1222 16.1835 8.59387 16.0223 7.27001 15.345C5.94487 14.6696 4.9181 13.5257 4.38918 12.1356C3.86027 10.7455 3.86698 9.20844 4.40801 7.823C4.94689 6.43684 5.98176 5.30043 7.31161 4.63458C8.64145 3.96874 10.1713 3.82097 11.604 4.21997C11.6674 4.23737 11.7335 4.24212 11.7987 4.23395C11.8639 4.22578 11.9269 4.20487 11.984 4.17236C12.0411 4.13986 12.0912 4.09644 12.1316 4.04456C12.1719 3.99268 12.2016 3.93336 12.219 3.87C12.2364 3.80663 12.2411 3.74043 12.233 3.67523C12.2248 3.61004 12.2039 3.5471 12.1714 3.48999C12.1389 3.43288 12.0955 3.38273 12.0436 3.34241C11.9917 3.30209 11.9324 3.27241 11.869 3.25501C11.2359 3.07897 10.5811 2.99343 9.924 3.00098ZM15 3.00098C13.901 3.00098 13 3.90198 13 5.00098C13 6.09998 13.901 7.00098 15 7.00098C16.099 7.00098 17 6.09998 17 5.00098C17 3.90198 16.099 3.00098 15 3.00098Z" fill="currentColor"/>
</svg>
