<svg width="20" height="20" viewBox="0 0 20 20" fill="none" xmlns="http://www.w3.org/2000/svg">
<path d="M7.5 8C9.98 8 12 10.02 12 12.5C12 14.98 9.98 17 7.5 17C5.02 17 3 14.98 3 12.5C3 10.02 5.02 8 7.5 8ZM7.5 9C7.04008 8.99895 6.58448 9.08875 6.15936 9.26427C5.73425 9.43978 5.348 9.69757 5.02278 10.0228C4.69757 10.348 4.43978 10.7342 4.26427 11.1594C4.08875 11.5845 3.99895 12.0401 4 12.5C4 14.439 5.561 16 7.5 16C9.439 16 11 14.439 11 12.5C11 10.561 9.439 9 7.5 9Z" fill="currentColor"/>
<path d="M12.87 3.01601C13.9281 3.10437 14.921 3.56371 15.6734 4.31298C16.4258 5.06224 16.8893 6.05323 16.982 7.111C17.0733 8.16909 16.7877 9.2254 16.1756 10.0933C15.5635 10.9612 14.6643 11.5848 13.637 11.854C13.573 11.8722 13.5061 11.8774 13.4401 11.8694C13.3741 11.8614 13.3103 11.8402 13.2526 11.8073C13.1948 11.7743 13.1442 11.7302 13.1037 11.6774C13.0633 11.6247 13.0337 11.5644 13.0168 11.5001C12.9999 11.4357 12.996 11.3687 13.0053 11.3029C13.0147 11.237 13.037 11.1737 13.0711 11.1166C13.1052 11.0595 13.1504 11.0098 13.2039 10.9704C13.2575 10.931 13.3184 10.9026 13.383 10.887C14.1832 10.6792 14.8839 10.1944 15.3605 9.51884C15.837 8.84324 16.0587 8.02058 15.986 7.19701C15.9156 6.37354 15.5556 5.60167 14.9699 5.01855C14.3842 4.43542 13.6108 4.07878 12.787 4.012C11.9632 3.94287 11.1416 4.16808 10.4681 4.64761C9.79472 5.12713 9.31313 5.8299 9.109 6.631C9.09481 6.69677 9.06751 6.759 9.02871 6.81396C8.98991 6.86892 8.94042 6.91548 8.8832 6.95086C8.82598 6.98624 8.7622 7.00971 8.6957 7.01986C8.62919 7.03001 8.56133 7.02664 8.49616 7.00994C8.43099 6.99324 8.36986 6.96357 8.31643 6.92269C8.26299 6.88181 8.21836 6.83058 8.1852 6.77204C8.15204 6.7135 8.13103 6.64887 8.12343 6.58202C8.11584 6.51518 8.12183 6.44748 8.14101 6.383C8.40579 5.35452 9.0254 4.45264 9.89048 3.83659C10.7556 3.22053 11.8105 2.92991 12.869 3.01601H12.87Z" fill="currentColor"/>
<path d="M9 12.498C9 12.8953 8.84218 13.2763 8.56125 13.5573C8.28032 13.8382 7.89929 13.996 7.502 13.996C7.1047 13.996 6.72368 13.8382 6.44275 13.5573C6.16182 13.2763 6.004 12.8953 6.004 12.498C6.004 12.1007 6.16182 11.7197 6.44275 11.4388C6.72368 11.1578 7.1047 11 7.502 11C7.89929 11 8.28032 11.1578 8.56125 11.4388C8.84218 11.7197 9 12.1007 9 12.498Z" fill="currentColor"/>
</svg>
