<svg width="20" height="20" viewBox="0 0 20 20" fill="none" xmlns="http://www.w3.org/2000/svg">
<path d="M12.813 3.016C13.8863 3.10555 14.8934 3.57153 15.6565 4.33163C16.4195 5.09174 16.8893 6.09705 16.983 7.17C17.0753 8.24334 16.7855 9.31479 16.1647 10.1952C15.5439 11.0757 14.632 11.7085 13.59 11.982C13.5264 11.9987 13.4602 12.0027 13.3951 11.9938C13.33 11.9848 13.2673 11.9632 13.2106 11.93C13.1538 11.8969 13.1042 11.8529 13.0644 11.8006C13.0247 11.7482 12.9957 11.6886 12.979 11.625C12.9623 11.5614 12.9583 11.4952 12.9672 11.4301C12.9762 11.365 12.9978 11.3023 13.031 11.2456C13.0641 11.1888 13.1081 11.1392 13.1604 11.0994C13.2128 11.0597 13.2724 11.0307 13.336 11.014C14.1507 10.8021 14.864 10.3082 15.3492 9.62025C15.8343 8.93226 16.0599 8.09459 15.986 7.25599C15.9147 6.4175 15.5485 5.63144 14.9523 5.03749C14.3562 4.44354 13.5688 4.08018 12.73 4.01199C11.8912 3.94198 11.0547 4.17163 10.3692 4.66011C9.68375 5.14859 9.19363 5.86427 8.986 6.67999C8.97181 6.74575 8.9445 6.80798 8.9057 6.86294C8.8669 6.9179 8.81742 6.96446 8.7602 6.99985C8.70298 7.03523 8.6392 7.05871 8.5727 7.06886C8.50619 7.07901 8.43833 7.07564 8.37316 7.05894C8.30799 7.04225 8.24686 7.01256 8.19342 6.97168C8.13999 6.9308 8.09536 6.87956 8.0622 6.82103C8.02904 6.76249 8.00802 6.69786 8.00043 6.63101C7.99284 6.56416 7.99882 6.49649 8.01801 6.432C8.28611 5.3888 8.91421 4.47388 9.7914 3.84883C10.6686 3.22378 11.7384 2.92882 12.812 3.016H12.813ZM7.5 8C7.63261 8 7.75978 8.05268 7.85355 8.14645C7.94732 8.24022 8 8.36739 8 8.5C8 8.63261 7.94732 8.75978 7.85355 8.85354C7.75978 8.94731 7.63261 9 7.5 9C6.8073 8.99899 6.12989 9.20367 5.55365 9.58809C4.97741 9.97251 4.52829 10.5194 4.2632 11.1593C3.99811 11.7993 3.92899 12.5036 4.06461 13.1829C4.20023 13.8622 4.53448 14.4859 5.025 14.975C5.51411 15.4655 6.13785 15.7998 6.81714 15.9354C7.49644 16.071 8.2007 16.0019 8.84067 15.7368C9.48064 15.4717 10.0275 15.0226 10.4119 14.4463C10.7963 13.8701 11.001 13.1927 11 12.5C11 12.3674 11.0527 12.2402 11.1465 12.1465C11.2402 12.0527 11.3674 12 11.5 12C11.6326 12 11.7598 12.0527 11.8535 12.1465C11.9473 12.2402 12 12.3674 12 12.5C11.9998 13.3899 11.7359 14.2598 11.2416 14.9998C10.7474 15.7399 10.045 16.3169 9.22301 16.658C8.40069 16.997 7.49638 17.085 6.62413 16.9107C5.75189 16.7365 4.95077 16.308 4.32177 15.6791C3.69276 15.0502 3.26406 14.2491 3.08969 13.3769C2.91533 12.5047 3.00312 11.6004 3.342 10.778C3.68295 9.95587 4.25989 9.25321 4.99994 8.75877C5.74 8.26433 6.60998 8.00029 7.5 8Z" fill="currentColor"/>
<path d="M11.996 9.502C11.996 9.89929 11.8382 10.2803 11.5573 10.5612C11.2763 10.8422 10.8953 11 10.498 11C10.1007 11 9.71968 10.8422 9.43875 10.5612C9.15782 10.2803 9 9.89929 9 9.502C9 9.1047 9.15782 8.72368 9.43875 8.44275C9.71968 8.16182 10.1007 8.004 10.498 8.004C10.8953 8.004 11.2763 8.16182 11.5573 8.44275C11.8382 8.72368 11.996 9.1047 11.996 9.502Z" fill="currentColor"/>
</svg>
