<svg width="20" height="20" viewBox="0 0 20 20" fill="none" xmlns="http://www.w3.org/2000/svg">
<path d="M5.96 3.99999C5.70178 4.01033 5.45758 4.12023 5.27861 4.30666C5.09964 4.49309 4.99979 4.74156 5 4.99999V15C5 15.1785 5.04778 15.3537 5.13838 15.5076C5.22898 15.6614 5.3591 15.7881 5.51523 15.8746C5.67136 15.9612 5.8478 16.0043 6.02625 15.9996C6.20469 15.995 6.37863 15.9426 6.53 15.848L14.53 10.848C14.6738 10.7581 14.7924 10.6331 14.8746 10.4848C14.9569 10.3364 15 10.1696 15 9.99999C15 9.83038 14.9569 9.66357 14.8746 9.51522C14.7924 9.36688 14.6738 9.24188 14.53 9.15199L6.53 4.15199C6.35961 4.04516 6.16096 3.99219 5.96 3.99999Z" fill="currentColor"/>
</svg>
