<svg width="20" height="20" viewBox="0 0 20 20" fill="none" xmlns="http://www.w3.org/2000/svg">
<path d="M8.5 4C8.4343 3.99988 8.36921 4.01271 8.30847 4.03777C8.24773 4.06282 8.19252 4.0996 8.146 4.146L5.293 7H3.5C3.36739 7 3.24022 7.05269 3.14645 7.14645C3.05269 7.24022 3 7.36739 3 7.5V12.5C3 12.6326 3.05269 12.7598 3.14645 12.8535C3.24022 12.9473 3.36739 13 3.5 13H5.293L8.146 15.854C8.19252 15.9004 8.24773 15.9372 8.30847 15.9622C8.36921 15.9873 8.4343 16.0001 8.5 16H9.5C9.63261 16 9.75978 15.9473 9.85355 15.8535C9.94731 15.7598 10 15.6326 10 15.5V4.5C10 4.36739 9.94731 4.24022 9.85355 4.14645C9.75978 4.05269 9.63261 4 9.5 4H8.5ZM8.707 5H9V15H8.707L5.854 12.146C5.80748 12.0996 5.75227 12.0628 5.69153 12.0378C5.63079 12.0127 5.5657 11.9999 5.5 12H4V8H5.5C5.5657 8.00012 5.63079 7.98729 5.69153 7.96224C5.75227 7.93718 5.80748 7.90041 5.854 7.854L8.707 5Z" fill="currentColor"/>
<path d="M15.467 5.01603C15.3844 5.02043 15.3042 5.04525 15.2336 5.08826C15.163 5.13127 15.1041 5.19114 15.0623 5.26249C15.0205 5.33383 14.997 5.41443 14.994 5.49707C14.991 5.57972 15.0085 5.66181 15.045 5.73601C15.6752 7.0724 16.0014 8.53188 16 10.0094C15.9986 11.487 15.6697 12.9458 15.037 14.281C14.9802 14.4009 14.9734 14.5384 15.0181 14.6633C15.0627 14.7882 15.1551 14.8903 15.275 14.947C15.3949 15.0038 15.5324 15.0106 15.6573 14.9659C15.7822 14.9213 15.8842 14.8289 15.941 14.709C16.6365 13.24 16.9979 11.6352 16.9993 10.0099C17.0007 8.38461 16.642 6.77918 15.949 5.30902C15.9075 5.21735 15.8393 5.14034 15.7533 5.08806C15.6673 5.03579 15.5675 5.01068 15.467 5.01603ZM12.605 5.95302C12.5184 5.9538 12.4335 5.97707 12.3586 6.02054C12.2837 6.06401 12.2213 6.12619 12.1777 6.20099C12.134 6.27579 12.1106 6.36065 12.1096 6.44725C12.1086 6.53386 12.1301 6.61924 12.172 6.69503C12.715 7.70932 12.9996 8.84179 13.0006 9.99227C13.0016 11.1427 12.7191 12.2757 12.178 13.291C12.1471 13.349 12.128 13.4125 12.1217 13.4779C12.1154 13.5432 12.122 13.6092 12.1411 13.672C12.1603 13.7348 12.1917 13.7933 12.2334 13.844C12.2752 13.8947 12.3265 13.9367 12.3845 13.9675C12.4425 13.9984 12.506 14.0175 12.5714 14.0238C12.6367 14.0302 12.7027 14.0236 12.7655 14.0044C12.8283 13.9852 12.8868 13.9538 12.9375 13.9121C12.9882 13.8703 13.0301 13.819 13.061 13.761C13.6789 12.6009 14.0013 11.3064 13.9999 9.99202C13.9985 8.67763 13.6733 7.38383 13.053 6.22502C13.0108 6.14267 12.9466 6.07364 12.8675 6.02562C12.7884 5.9776 12.6975 5.95247 12.605 5.95302Z" fill="currentColor"/>
</svg>
