<svg width="20" height="20" viewBox="0 0 20 20" fill="none" xmlns="http://www.w3.org/2000/svg">
<path d="M14.04 4.00001C14.2982 4.01034 14.5424 4.12025 14.7214 4.30667C14.9004 4.4931 15.0002 4.74158 15 5.00001V15C15 15.1785 14.9522 15.3538 14.8616 15.5076C14.771 15.6614 14.6409 15.7881 14.4848 15.8747C14.3286 15.9612 14.1522 16.0043 13.9738 15.9997C13.7953 15.995 13.6214 15.9426 13.47 15.848L5.47 10.848C5.32618 10.7581 5.20758 10.6331 5.12536 10.4848C5.04314 10.3364 5 10.1696 5 10C5 9.8304 5.04314 9.66358 5.12536 9.51524C5.20758 9.36689 5.32618 9.2419 5.47 9.15201L13.47 4.15201C13.6404 4.04517 13.839 3.9922 14.04 4.00001Z" fill="currentColor"/>
</svg>
