<svg width="20" height="20" viewBox="0 0 20 20" fill="none" xmlns="http://www.w3.org/2000/svg">
<path d="M6.49601 3C6.43083 3.00039 6.36635 3.01364 6.30631 3.039C6.24627 3.06437 6.19187 3.10137 6.14615 3.14783C6.10044 3.19428 6.06434 3.24931 6.03995 3.30975C6.01556 3.37019 6.00334 3.43483 6.004 3.5V5H3.504C3.37139 5 3.24419 5.05266 3.15042 5.14642C3.05666 5.24019 3.004 5.36739 3.004 5.5C3.004 5.63261 3.05666 5.75981 3.15042 5.85358C3.24419 5.94734 3.37139 6 3.504 6H6.004V9H3.504C3.37139 9 3.24419 9.05266 3.15042 9.14642C3.05666 9.24019 3.004 9.36739 3.004 9.5C3.004 9.63261 3.05666 9.75981 3.15042 9.85358C3.24419 9.94734 3.37139 10 3.504 10H6.004V11.5C6.004 11.777 6.22401 12 6.49601 12H6.512C6.57717 11.9996 6.64166 11.9864 6.70169 11.961C6.76173 11.9356 6.81614 11.8986 6.86185 11.8522C6.90756 11.8057 6.94366 11.7507 6.96805 11.6902C6.99244 11.6298 7.00466 11.5652 7.004 11.5V3.5C7.004 3.223 6.784 3 6.512 3H6.49601ZM7.754 4V11H9.004C10.699 11 12.004 9.695 12.004 8V7C12.004 5.305 10.699 4 9.004 4H7.754Z" fill="currentColor"/>
<path d="M13.49 7.027C12.933 7.044 12.816 7.82203 13.344 8.00203C14.82 8.54103 15.857 9.92002 15.988 11.539C16.119 13.157 15.313 14.693 13.943 15.484C13.3552 15.8281 12.6851 16.0064 12.004 16H3.004V17H12.004C12.854 17 13.678 16.794 14.444 16.352C16.152 15.365 17.148 13.458 16.986 11.459C16.825 9.461 15.537 7.73599 13.686 7.06099C13.6236 7.03665 13.5569 7.02509 13.49 7.027Z" fill="currentColor"/>
</svg>
