<svg width="20" height="20" viewBox="0 0 20 20" fill="none" xmlns="http://www.w3.org/2000/svg">
<path d="M10 4.5C8.54131 4.5 7.14236 5.07946 6.11091 6.11091C5.07946 7.14236 4.5 8.54131 4.5 10C4.5 11.4587 5.07946 12.8576 6.11091 13.8891C7.14236 14.9205 8.54131 15.5 10 15.5C11.4587 15.5 12.8576 14.9205 13.8891 13.8891C14.9205 12.8576 15.5 11.4587 15.5 10C15.5 8.54131 14.9205 7.14236 13.8891 6.11091C12.8576 5.07946 11.4587 4.5 10 4.5ZM9.998 6.484C10.0664 6.48283 10.1343 6.4957 10.1975 6.52183C10.2608 6.54796 10.318 6.58678 10.3656 6.6359C10.4132 6.68501 10.4502 6.74338 10.4744 6.80738C10.4985 6.87139 10.5093 6.93967 10.506 7.008V9.508H13.008C13.0762 9.50368 13.1445 9.51338 13.2088 9.53651C13.2731 9.55963 13.332 9.59568 13.3818 9.64244C13.4316 9.6892 13.4713 9.74568 13.4985 9.80838C13.5256 9.87108 13.5396 9.93868 13.5396 10.007C13.5396 10.0753 13.5256 10.1429 13.4985 10.2056C13.4713 10.2683 13.4316 10.3248 13.3818 10.3716C13.332 10.4183 13.2731 10.4544 13.2088 10.4775C13.1445 10.5006 13.0762 10.5103 13.008 10.506H10.506V13.008C10.5068 13.0747 10.4943 13.1408 10.4691 13.2026C10.444 13.2643 10.4067 13.3204 10.3596 13.3676C10.3124 13.4147 10.2563 13.452 10.1946 13.4771C10.1328 13.5023 10.0667 13.5148 10 13.514C9.86774 13.5119 9.7417 13.4575 9.64949 13.3626C9.55727 13.2678 9.5064 13.1403 9.508 13.008V10.506H7.008C6.93981 10.5103 6.87147 10.5006 6.80717 10.4775C6.74288 10.4544 6.68401 10.4183 6.6342 10.3716C6.58438 10.3248 6.54468 10.2683 6.51754 10.2056C6.4904 10.1429 6.47639 10.0753 6.47639 10.007C6.47639 9.93868 6.4904 9.87108 6.51754 9.80838C6.54468 9.74568 6.58438 9.6892 6.6342 9.64244C6.68401 9.59568 6.74288 9.55963 6.80717 9.53651C6.87147 9.51338 6.93981 9.50368 7.008 9.508H9.508V7.008C9.50478 6.94118 9.515 6.8744 9.53805 6.8116C9.5611 6.7488 9.59653 6.69127 9.64222 6.6424C9.68791 6.59354 9.74294 6.55435 9.80405 6.52714C9.86516 6.49993 9.93112 6.48526 9.998 6.484Z" fill="currentColor"/>
</svg>
