<svg width="20" height="20" viewBox="0 0 20 20" fill="none" xmlns="http://www.w3.org/2000/svg">
<path d="M9.977 3C9.88421 3.00431 9.79446 3.03438 9.7178 3.08684C9.64114 3.13929 9.58061 3.21207 9.543 3.297L5.543 12.297C5.50183 12.3894 5.48963 12.4921 5.50802 12.5915C5.52641 12.6909 5.57452 12.7825 5.646 12.854L9.646 16.854C9.69245 16.9006 9.74762 16.9375 9.80837 16.9627C9.86911 16.9879 9.93423 17.0009 10 17.0009C10.0658 17.0009 10.1309 16.9879 10.1916 16.9627C10.2524 16.9375 10.3076 16.9006 10.354 16.854L14.354 12.854C14.4255 12.7825 14.4736 12.6909 14.492 12.5915C14.5104 12.4921 14.4982 12.3894 14.457 12.297L10.457 3.297C10.4162 3.20491 10.3486 3.12729 10.2629 3.07429C10.1773 3.0213 10.0776 2.9954 9.977 3Z" fill="currentColor"/>
</svg>
