<svg width="20" height="20" viewBox="0 0 20 20" fill="none" xmlns="http://www.w3.org/2000/svg">
<path d="M5.637 3.07901C7.287 3.07901 8.637 4.42801 8.637 6.07901C8.637 7.72901 7.287 9.07901 5.637 9.07901C3.986 9.07901 2.637 7.72901 2.637 6.07901C2.637 4.42801 3.986 3.07901 5.637 3.07901ZM5.637 4.07901C4.527 4.07901 3.637 4.96901 3.637 6.07901C3.637 7.18901 4.527 8.07901 5.637 8.07901C6.747 8.07901 7.637 7.18901 7.637 6.07901C7.637 4.96901 6.747 4.07901 5.637 4.07901ZM7.028 10.921C8.678 10.921 10.028 12.27 10.028 13.921C10.028 15.571 8.678 16.921 7.028 16.921C5.377 16.921 4.028 15.571 4.028 13.921C4.028 12.27 5.377 10.921 7.028 10.921ZM7.028 11.921C5.918 11.921 5.028 12.811 5.028 13.921C5.028 15.031 5.918 15.921 7.028 15.921C8.138 15.921 9.028 15.031 9.028 13.921C9.028 12.811 8.138 11.921 7.028 11.921ZM14.363 7.12601C16.015 7.12601 17.363 8.47601 17.363 10.126C17.363 11.777 16.015 13.126 14.363 13.126C12.713 13.126 11.363 11.777 11.363 10.126C11.363 8.47601 12.713 7.12601 14.363 7.12601ZM14.363 8.12601C13.253 8.12601 12.363 9.01601 12.363 10.126C12.363 11.236 13.253 12.126 14.363 12.126C15.474 12.126 16.363 11.236 16.363 10.126C16.363 9.01601 15.474 8.12601 14.363 8.12601Z" fill="currentColor"/>
</svg>
