<svg width="20" height="20" viewBox="0 0 20 20" fill="none" xmlns="http://www.w3.org/2000/svg">
<path d="M9.496 4.5C9.36339 4.5 9.23622 4.55272 9.14246 4.64648C9.04869 4.74025 8.996 4.86739 8.996 5C8.996 5.13261 9.04869 5.25975 9.14246 5.35352C9.23622 5.44728 9.36339 5.5 9.496 5.5H16.496C16.6286 5.5 16.7558 5.44728 16.8495 5.35352C16.9433 5.25975 16.996 5.13261 16.996 5C16.996 4.86739 16.9433 4.74025 16.8495 4.64648C16.7558 4.55272 16.6286 4.5 16.496 4.5H9.496ZM9.496 9.5C9.36339 9.5 9.23622 9.55272 9.14246 9.64648C9.04869 9.74025 8.996 9.86739 8.996 10C8.996 10.1326 9.04869 10.2597 9.14246 10.3535C9.23622 10.4473 9.36339 10.5 9.496 10.5H16.496C16.6286 10.5 16.7558 10.4473 16.8495 10.3535C16.9433 10.2597 16.996 10.1326 16.996 10C16.996 9.86739 16.9433 9.74025 16.8495 9.64648C16.7558 9.55272 16.6286 9.5 16.496 9.5H9.496ZM9.496 14.5C9.36339 14.5 9.23622 14.5527 9.14246 14.6465C9.04869 14.7403 8.996 14.8674 8.996 15C8.996 15.1326 9.04869 15.2597 9.14246 15.3535C9.23622 15.4473 9.36339 15.5 9.496 15.5H16.496C16.6286 15.5 16.7558 15.4473 16.8495 15.3535C16.9433 15.2597 16.996 15.1326 16.996 15C16.996 14.8674 16.9433 14.7403 16.8495 14.6465C16.7558 14.5527 16.6286 14.5 16.496 14.5H9.496Z" fill="currentColor"/>
<path d="M4.496 3.5C3.673 3.5 2.996 4.177 2.996 5C2.996 5.823 3.673 6.5 4.496 6.5C5.319 6.5 5.996 5.823 5.996 5C5.996 4.177 5.319 3.5 4.496 3.5ZM4.496 8.5C3.673 8.5 2.996 9.177 2.996 10C2.996 10.823 3.673 11.5 4.496 11.5C5.319 11.5 5.996 10.823 5.996 10C5.996 9.177 5.319 8.5 4.496 8.5ZM4.496 13.5C3.673 13.5 2.996 14.177 2.996 15C2.996 15.823 3.673 16.5 4.496 16.5C5.319 16.5 5.996 15.823 5.996 15C5.996 14.177 5.319 13.5 4.496 13.5Z" fill="currentColor"/>
</svg>
