<svg width="20" height="20" viewBox="0 0 20 20" fill="none" xmlns="http://www.w3.org/2000/svg">
<path d="M4 7C3.454 7 3 7.454 3 8C3 8.546 3.454 9 4 9C4.546 9 5 8.546 5 8C5 7.454 4.546 7 4 7ZM4 11C3.454 11 3 11.454 3 12C3 12.546 3.454 13 4 13C4.546 13 5 12.546 5 12C5 11.454 4.546 11 4 11ZM4 15C3.454 15 3 15.454 3 16C3 16.546 3.454 17 4 17C4.546 17 5 16.546 5 16C5 15.454 4.546 15 4 15ZM7.5 8C6.824 7.99 6.824 9.01 7.5 9H9.76001C9.55743 8.68811 9.39449 8.35219 9.27499 8H7.5ZM7.5 12C6.824 11.99 6.824 13.01 7.5 13H15.5C16.176 13.01 16.176 11.99 15.5 12H7.5ZM7.5 16C6.824 15.99 6.824 17.01 7.5 17H15.5C16.176 17.01 16.176 15.99 15.5 16H7.5Z" fill="currentColor"/>
<path d="M13.5 3C12.5717 3 11.6815 3.36875 11.0251 4.02512C10.3687 4.6815 10 5.57174 10 6.5C10 7.42826 10.3687 8.3185 11.0251 8.97488C11.6815 9.63125 12.5717 10 13.5 10C14.4283 10 15.3185 9.63125 15.9749 8.97488C16.6313 8.3185 17 7.42826 17 6.5C17 5.57174 16.6313 4.6815 15.9749 4.02512C15.3185 3.36875 14.4283 3 13.5 3ZM13 4H14V6H16V7H14V9H13V7H11V6H13V4Z" fill="currentColor"/>
</svg>
