<svg width="20" height="20" viewBox="0 0 20 20" fill="none" xmlns="http://www.w3.org/2000/svg">
<path d="M16.99 6C17.27 5.99 17.5 6.22 17.5 6.5V13.5C17.5005 13.5963 17.4731 13.6908 17.4211 13.7719C17.3692 13.8531 17.2949 13.9175 17.2072 13.9574C17.1196 13.9973 17.0222 14.0111 16.9269 13.997C16.8316 13.9829 16.7424 13.9416 16.67 13.878L12.67 10.378C12.6161 10.3311 12.5729 10.2731 12.5433 10.2081C12.5138 10.1431 12.4984 10.0724 12.4984 10.001C12.4984 9.92955 12.5138 9.85893 12.5433 9.7939C12.5729 9.72887 12.6161 9.67093 12.67 9.624L16.67 6.124C16.7586 6.04598 16.872 6.00203 16.99 6ZM7.027 5C7.16 5.01 7.284 5.069 7.373 5.169L11.373 9.669C11.4543 9.7605 11.4991 9.87863 11.4991 10.001C11.4991 10.1234 11.4543 10.2415 11.373 10.333L7.373 14.833C7.3261 14.8855 7.26862 14.9276 7.20434 14.9564C7.14007 14.9851 7.07043 15 7 15C6.92957 15 6.85993 14.9851 6.79566 14.9564C6.73138 14.9276 6.6739 14.8855 6.627 14.833L2.627 10.333C2.54574 10.2415 2.50087 10.1234 2.50087 10.001C2.50087 9.87863 2.54574 9.7605 2.627 9.669L6.627 5.169C6.67677 5.11275 6.73858 5.06844 6.80783 5.03936C6.87708 5.01027 6.95199 4.99716 7.027 5.001V5Z" fill="currentColor"/>
</svg>
