<svg width="20" height="20" viewBox="0 0 20 20" fill="none" xmlns="http://www.w3.org/2000/svg">
<path d="M6.997 3.002C6.321 2.992 6.321 4.012 6.997 4.002H8.497V5.08999C5.665 5.56999 3.497 8.032 3.497 10.998C3.497 14.306 6.19 16.998 9.499 16.998C11.0899 16.9961 12.6152 16.3635 13.7403 15.2387C14.8654 14.114 15.4986 12.5889 15.501 10.998C15.5015 9.81865 15.1521 8.66567 14.497 7.68499C14.535 7.66301 14.57 7.63611 14.601 7.60499L16.351 5.85499C16.4236 5.78477 16.4731 5.69424 16.4932 5.59529C16.5134 5.49634 16.503 5.39362 16.4636 5.30066C16.4242 5.20769 16.3576 5.12882 16.2725 5.07444C16.1875 5.02007 16.0879 4.99272 15.987 4.996C15.8569 4.99997 15.7335 5.05449 15.643 5.14799L13.893 6.89799C13.8892 6.90259 13.8856 6.90727 13.882 6.912C13.3224 6.30864 12.6443 5.82724 11.8901 5.49791C11.1359 5.16857 10.3219 4.99839 9.499 4.998H9.497V4.002H10.997C11.673 4.012 11.673 2.992 10.997 3.002H6.997ZM9.499 5.998C10.156 5.99694 10.8067 6.12554 11.414 6.37642C12.0212 6.62729 12.5729 6.99551 13.0376 7.45999C13.5023 7.92446 13.8707 8.47607 14.1218 9.08319C14.3729 9.6903 14.5018 10.341 14.501 10.998C14.501 13.765 12.267 15.998 9.499 15.998C8.842 15.9991 8.19125 15.8705 7.58404 15.6196C6.97682 15.3687 6.42507 15.0005 5.96041 14.536C5.49575 14.0715 5.1273 13.5199 4.87618 12.9128C4.62506 12.3057 4.49621 11.655 4.497 10.998C4.497 8.231 6.731 5.998 9.499 5.998Z" fill="currentColor"/>
<path d="M8.98901 6.99402C8.92335 6.99506 8.85853 7.00903 8.79826 7.03513C8.738 7.06122 8.68347 7.09893 8.63778 7.14611C8.5921 7.19328 8.55615 7.24899 8.532 7.31006C8.50784 7.37113 8.49595 7.43635 8.49701 7.50202V11.422C8.48545 11.4935 8.48958 11.5667 8.50909 11.6364C8.5286 11.7062 8.56304 11.7709 8.61001 11.826C8.61518 11.8328 8.6205 11.8395 8.626 11.846C8.63153 11.8518 8.6372 11.8575 8.643 11.863C8.64433 11.8637 8.64566 11.8644 8.647 11.865C8.65785 11.8759 8.66921 11.8862 8.68101 11.896C8.68234 11.8967 8.68367 11.8974 8.68501 11.898C8.7397 11.942 8.80305 11.9741 8.87094 11.992C8.93882 12.0099 9.00971 12.0133 9.07901 12.002H11.997C12.1296 12.002 12.2568 11.9493 12.3506 11.8556C12.4443 11.7618 12.497 11.6346 12.497 11.502C12.497 11.3694 12.4443 11.2422 12.3506 11.1485C12.2568 11.0547 12.1296 11.002 11.997 11.002H9.49701V7.50202C9.49809 7.43501 9.48568 7.36846 9.46054 7.30634C9.43539 7.24422 9.39802 7.18779 9.35063 7.1404C9.30324 7.09301 9.2468 7.05564 9.18467 7.03049C9.12255 7.00534 9.05602 6.99294 8.98901 6.99402Z" fill="currentColor"/>
</svg>
