<svg width="20" height="20" viewBox="0 0 20 20" fill="none" xmlns="http://www.w3.org/2000/svg">
<path d="M9.993 8C8.894 8 7.993 8.901 7.993 10C7.993 11.099 8.894 12 9.993 12C11.092 12 11.993 11.099 11.993 10C11.993 8.901 11.092 8 9.993 8Z" fill="currentColor"/>
<path d="M10.073 4.98401C8.74286 4.98586 7.4677 5.51479 6.52678 6.45496C5.58586 7.39512 5.0559 8.66988 5.05299 10C5.05299 12.752 7.296 15.023 10.075 15.016L15.995 15C16.2602 14.9995 16.5144 14.8936 16.7015 14.7057C16.8887 14.5178 16.9935 14.2632 16.993 13.998C16.9925 13.7328 16.8866 13.4787 16.6987 13.2915C16.5108 13.1043 16.2562 12.9995 15.991 13L10.071 13.016C8.368 13.021 7.05299 11.683 7.05299 10C7.04857 9.60254 7.12363 9.2082 7.27376 8.84015C7.42388 8.4721 7.64604 8.13779 7.9272 7.85681C8.20836 7.57584 8.54285 7.35386 8.911 7.20398C9.27914 7.0541 9.67354 6.97932 10.071 6.98401L15.991 7C16.1223 7.00026 16.2524 6.97463 16.3738 6.92462C16.4953 6.87461 16.6056 6.80117 16.6987 6.7085C16.7917 6.61582 16.8656 6.50575 16.9161 6.38452C16.9666 6.2633 16.9927 6.13334 16.993 6.00201C16.9933 5.87069 16.9677 5.74057 16.9176 5.61914C16.8676 5.49771 16.7942 5.38736 16.7015 5.29431C16.6088 5.20127 16.4987 5.1274 16.3775 5.0769C16.2563 5.02641 16.1263 5.00026 15.995 5L10.075 4.98401C10.0743 4.98401 10.0736 4.98401 10.073 4.98401Z" fill="currentColor"/>
<path d="M9.993 3C8.76441 3.00046 7.55756 3.3242 6.49367 3.93866C5.42978 4.55312 4.54629 5.43672 3.93193 6.50067C3.31758 7.56463 2.99398 8.77147 2.99364 10.0001C2.9933 11.2287 3.31624 12.4357 3.93001 13.5C4.54462 14.5641 5.42844 15.4478 6.4927 16.0621C7.55695 16.6765 8.76414 16.9999 9.993 17H16.493C16.6256 17 16.7528 16.9473 16.8465 16.8536C16.9403 16.7598 16.993 16.6326 16.993 16.5C16.993 16.3674 16.9403 16.2402 16.8465 16.1464C16.7528 16.0527 16.6256 16 16.493 16H9.993C8.4017 16 6.87557 15.3678 5.75036 14.2426C4.62514 13.1174 3.993 11.5913 3.993 10C3.993 8.4087 4.62514 6.8826 5.75036 5.75739C6.87557 4.63217 8.4017 4 9.993 4H16.493C16.6256 4 16.7528 3.94734 16.8465 3.85358C16.9403 3.75981 16.993 3.63261 16.993 3.5C16.993 3.36739 16.9403 3.24019 16.8465 3.14642C16.7528 3.05266 16.6256 3 16.493 3H9.993Z" fill="currentColor"/>
</svg>
