<svg width="20" height="20" viewBox="0 0 20 20" fill="none" xmlns="http://www.w3.org/2000/svg">
<path d="M5.5 3C5.17162 2.99974 4.84641 3.06422 4.54298 3.18977C4.23955 3.31531 3.96385 3.49945 3.73165 3.73165C3.49945 3.96385 3.31531 4.23955 3.18977 4.54298C3.06422 4.84641 2.99974 5.17162 3 5.5V6.5C3 7.882 4.118 9 5.5 9H14.5C15.882 9 17 7.882 17 6.5V5.5C17 4.114 15.865 3.016 14.488 3.014L5.5 3ZM9 4.006L14.486 4.014C15.35 4.014 16 4.646 16 5.5V6.5C16 7.358 15.358 8 14.5 8H9V4.006ZM5.5 11C5.17162 10.9997 4.84641 11.0642 4.54298 11.1898C4.23955 11.3153 3.96385 11.4994 3.73165 11.7316C3.49945 11.9638 3.31531 12.2395 3.18977 12.543C3.06422 12.8464 2.99974 13.1716 3 13.5V14.5C3 15.882 4.118 17 5.5 17H14.5C15.882 17 17 15.882 17 14.5V13.5C17 12.114 15.865 11.016 14.488 11.014L5.5 11ZM12.01 12.01L14.486 12.014C15.349 12.014 16 12.646 16 13.5V14.5C16 15.358 15.358 16 14.5 16H12L12.01 12.01Z" fill="currentColor"/>
</svg>
