<svg width="20" height="20" viewBox="0 0 20 20" fill="none" xmlns="http://www.w3.org/2000/svg">
<path d="M10 5C8.217 5 7 6.5 7 8H9C9 7.5 9.283 7 10 7C10.717 7 11 7.5 11 8C11 8.247 10.964 8.29997 10.883 8.40997C10.803 8.51997 10.629 8.67 10.369 8.88C9.849 9.303 9 10.167 9 11.5V12H11V11.5C11 10.833 11.15 10.822 11.63 10.432C11.871 10.236 12.198 9.99602 12.492 9.59802C12.786 9.19902 13 8.628 13 8C13 6.5 11.783 5 10 5ZM9 13H11V15H9V13ZM10 3C6.14 3 3 6.14 3 10C3 13.86 6.14 17 10 17C13.86 17 17 13.86 17 10C17 6.14 13.86 3 10 3ZM10 4C13.32 4 16 6.68 16 10C16 13.32 13.32 16 10 16C6.68 16 4 13.32 4 10C4 6.68 6.68 4 10 4Z" fill="currentColor"/>
</svg>
