<svg width="20" height="20" viewBox="0 0 20 20" fill="none" xmlns="http://www.w3.org/2000/svg">
<path d="M9.99199 2.99604C9.92633 2.99708 9.86152 3.01102 9.80126 3.03711C9.74099 3.06321 9.68645 3.1009 9.64077 3.14808C9.59508 3.19525 9.55912 3.25101 9.53496 3.31208C9.51081 3.37315 9.49893 3.43837 9.49999 3.50403V10.504C9.49999 10.6366 9.55267 10.7638 9.64644 10.8575C9.74021 10.9513 9.86738 11.004 9.99999 11.004C10.1326 11.004 10.2598 10.9513 10.3535 10.8575C10.4473 10.7638 10.5 10.6366 10.5 10.504V3.50403C10.5011 3.43702 10.4887 3.37048 10.4635 3.30835C10.4384 3.24623 10.401 3.18979 10.3536 3.1424C10.3062 3.09501 10.2498 3.05762 10.1877 3.03247C10.1256 3.00733 10.059 2.99496 9.99199 2.99604ZM6.97698 5.04902C6.89833 5.05379 6.82192 5.07709 6.75399 5.11701C4.20899 6.55401 2.95998 9.50004 3.72298 12.285C4.48598 15.071 7.06499 17.005 9.99999 17.005C12.935 17.005 15.514 15.071 16.277 12.285C17.04 9.50004 15.791 6.55501 13.247 5.11701C13.1315 5.05163 12.9947 5.03481 12.8668 5.07026C12.7389 5.1057 12.6304 5.19053 12.565 5.30603C12.4996 5.42154 12.4828 5.55826 12.5182 5.68616C12.5537 5.81406 12.6385 5.92267 12.754 5.98804C14.913 7.20804 15.955 9.67604 15.312 12.022C14.67 14.367 12.497 16.004 9.99999 16.004C7.50299 16.004 5.33 14.367 4.687 12.022C4.045 9.67604 5.087 7.20804 7.247 5.98804C7.34743 5.93387 7.42631 5.84695 7.47054 5.74176C7.51477 5.63658 7.52169 5.51946 7.49016 5.40979C7.45863 5.30013 7.39052 5.20454 7.29717 5.13892C7.20382 5.0733 7.09084 5.04157 6.97698 5.04902Z" fill="currentColor"/>
</svg>
