<svg width="20" height="20" viewBox="0 0 20 20" fill="none" xmlns="http://www.w3.org/2000/svg">
<path d="M3.49599 2.999C3.43033 3.00004 3.36552 3.01404 3.30526 3.04013C3.24499 3.06623 3.19045 3.10392 3.14477 3.1511C3.09908 3.19827 3.06315 3.25397 3.03899 3.31504C3.01484 3.37611 3.00296 3.44133 3.00402 3.50699V7.50699C3.00402 7.6396 3.05667 7.7668 3.15044 7.86057C3.24421 7.95434 3.37141 8.00699 3.50402 8.00699H7.50402C7.63663 8.00699 7.7638 7.95434 7.85756 7.86057C7.95133 7.7668 8.00402 7.6396 8.00402 7.50699C8.00402 7.37438 7.95133 7.24724 7.85756 7.15348C7.7638 7.05971 7.63663 7.00699 7.50402 7.00699H4.816C5.53228 5.76653 6.66964 4.82408 8.02157 4.35068C9.37349 3.87729 10.8504 3.90438 12.184 4.42704C13.5196 4.94809 14.6239 5.931 15.2963 7.19718C15.9686 8.46336 16.1644 9.92873 15.848 11.327C15.5339 12.7258 14.7284 13.9654 13.5778 14.8205C12.4272 15.6757 11.0079 16.0896 9.57799 15.987C8.14778 15.8862 6.80117 15.2757 5.78277 14.2665C4.76436 13.2573 4.14174 11.9163 4.02801 10.487C4.0174 10.3548 3.95471 10.2322 3.85372 10.1462C3.75273 10.0602 3.6217 10.0179 3.48949 10.0285C3.35728 10.0391 3.23472 10.1018 3.14873 10.2028C3.06275 10.3038 3.02039 10.4348 3.031 10.567C3.16535 12.2339 3.89227 13.7976 5.08007 14.9747C6.26786 16.1519 7.83798 16.8646 9.506 16.984C11.174 17.1015 12.829 16.618 14.1714 15.6208C15.5137 14.6237 16.4547 13.1789 16.824 11.548C17.1909 9.91635 16.9615 8.20724 16.1774 6.73008C15.3932 5.25291 14.1061 4.10533 12.549 3.49503C11.0081 2.89515 9.30459 2.86025 7.74044 3.39658C6.17629 3.93291 4.85259 5.00582 4.00402 6.42502V3.50699C4.0051 3.43998 3.9927 3.37344 3.96755 3.31131C3.9424 3.24919 3.90502 3.19275 3.85763 3.14536C3.81024 3.09797 3.75379 3.06064 3.69167 3.0355C3.62955 3.01035 3.563 2.99792 3.49599 2.999ZM12.484 6.00303C12.409 6.00634 12.3358 6.02644 12.2696 6.06192C12.2035 6.09741 12.1462 6.14733 12.102 6.20798L9.10201 10.208C9.0398 10.2908 9.00484 10.3909 9.00197 10.4945C8.99911 10.598 9.02849 10.6999 9.08602 10.786L11.086 13.786C11.1214 13.8427 11.1679 13.8918 11.2226 13.9303C11.2773 13.9687 11.3392 13.9958 11.4046 14.0099C11.47 14.024 11.5376 14.0249 11.6033 14.0125C11.669 14 11.7316 13.9745 11.7873 13.9374C11.8429 13.9003 11.8906 13.8524 11.9275 13.7966C11.9643 13.7408 11.9896 13.6781 12.0018 13.6123C12.014 13.5466 12.0128 13.479 11.9984 13.4137C11.984 13.3483 11.9567 13.2866 11.918 13.232L10.115 10.527L12.902 6.81003C12.9711 6.72046 13.0077 6.61008 13.006 6.49698C13.0053 6.42994 12.991 6.36372 12.9642 6.30228C12.9373 6.24084 12.8984 6.18547 12.8497 6.13938C12.801 6.09329 12.7435 6.05746 12.6807 6.03403C12.6179 6.01061 12.551 6.00007 12.484 6.00303Z" fill="currentColor"/>
</svg>
