<svg width="20" height="20" viewBox="0 0 20 20" fill="none" xmlns="http://www.w3.org/2000/svg">
<path d="M7.5 3C7.36739 3 7.24021 3.05269 7.14645 3.14645C7.05268 3.24022 7 3.36739 7 3.5V12.5C7 12.6326 7.05268 12.7598 7.14645 12.8535C7.24021 12.9473 7.36739 13 7.5 13H16.5C16.6326 13 16.7598 12.9473 16.8536 12.8535C16.9473 12.7598 17 12.6326 17 12.5V3.5C17 3.36739 16.9473 3.24022 16.8536 3.14645C16.7598 3.05269 16.6326 3 16.5 3H7.5ZM8 4H16V12H8V4Z" fill="currentColor"/>
<path d="M14 5C13.454 5 13 5.454 13 6C13 6.546 13.454 7 14 7C14.546 7 15 6.546 15 6C15 5.454 14.546 5 14 5ZM10.486 6.04999C10.4049 6.05265 10.326 6.0772 10.2577 6.12103C10.1894 6.16487 10.1342 6.22638 10.098 6.29901L7.348 11.799C7.314 11.8675 7.29803 11.9436 7.3016 12.02C7.30517 12.0964 7.32816 12.1706 7.36839 12.2357C7.40863 12.3007 7.46478 12.3545 7.53155 12.3918C7.59832 12.4291 7.6735 12.4488 7.75 12.449H13.5C13.5778 12.4489 13.6543 12.4285 13.722 12.39C13.7896 12.3514 13.8461 12.296 13.8859 12.2291C13.9257 12.1622 13.9474 12.0861 13.949 12.0082C13.9506 11.9304 13.932 11.8535 13.895 11.785L10.895 6.285C10.8551 6.21201 10.7958 6.15151 10.7236 6.1102C10.6514 6.06889 10.5691 6.04839 10.486 6.05099V6.04999Z" fill="currentColor"/>
<path d="M5.492 4.99201C5.42634 4.99305 5.36152 5.00702 5.30126 5.03312C5.24099 5.05921 5.18646 5.0969 5.14077 5.14408C5.09508 5.19125 5.05913 5.24698 5.03498 5.30805C5.01083 5.36912 4.99894 5.43434 5 5.5V14.5C5 14.6326 5.05268 14.7598 5.14645 14.8535C5.24021 14.9473 5.36739 15 5.5 15H14.5C14.6326 15 14.7598 14.9473 14.8536 14.8535C14.9473 14.7598 15 14.6326 15 14.5C15 14.3674 14.9473 14.2402 14.8536 14.1465C14.7598 14.0527 14.6326 14 14.5 14H6V5.5C6.00108 5.43299 5.98868 5.36645 5.96353 5.30433C5.93839 5.2422 5.90101 5.18576 5.85362 5.13837C5.80623 5.09098 5.7498 5.05362 5.68768 5.02848C5.62555 5.00333 5.55901 4.99093 5.492 4.99201ZM3.492 6.99201C3.42634 6.99305 3.36152 7.00702 3.30126 7.03312C3.24099 7.05921 3.18646 7.0969 3.14077 7.14408C3.09508 7.19125 3.05913 7.24698 3.03498 7.30805C3.01083 7.36912 2.99894 7.43434 3 7.5V16.5C3 16.6326 3.05268 16.7598 3.14645 16.8535C3.24021 16.9473 3.36739 17 3.5 17H12.5C12.6326 17 12.7598 16.9473 12.8536 16.8535C12.9473 16.7598 13 16.6326 13 16.5C13 16.3674 12.9473 16.2402 12.8536 16.1465C12.7598 16.0527 12.6326 16 12.5 16H4V7.5C4.00108 7.43299 3.98868 7.36645 3.96353 7.30433C3.93839 7.2422 3.90101 7.18576 3.85362 7.13837C3.80623 7.09098 3.7498 7.05362 3.68768 7.02848C3.62555 7.00333 3.55901 6.99093 3.492 6.99201Z" fill="currentColor"/>
</svg>
