<svg width="20" height="20" viewBox="0 0 20 20" fill="none" xmlns="http://www.w3.org/2000/svg">
<path d="M5.5 2.5C5.36739 2.5 5.24021 2.55268 5.14645 2.64645C5.05268 2.74021 5 2.86739 5 3C5 3.13261 5.05268 3.25979 5.14645 3.35355C5.24021 3.44732 5.36739 3.5 5.5 3.5H8.5C8.63261 3.5 8.75979 3.44732 8.85355 3.35355C8.94732 3.25979 9 3.13261 9 3C9 2.86739 8.94732 2.74021 8.85355 2.64645C8.75979 2.55268 8.63261 2.5 8.5 2.5H5.5ZM3.5 4.5C3.36739 4.5 3.24021 4.55268 3.14645 4.64645C3.05268 4.74021 3 4.86739 3 5V17C3 17.1326 3.05268 17.2598 3.14645 17.3536C3.24021 17.4473 3.36739 17.5 3.5 17.5H10.5C11.176 17.51 11.176 16.49 10.5 16.5H4V15.5H6.508C6.64061 15.5 6.76779 15.4473 6.86155 15.3536C6.95532 15.2598 7.008 15.1326 7.008 15V7.5H16V10C16 10.525 15.852 10.879 15.615 11.115C15.379 11.352 15.025 11.5 14.5 11.5H13.5C13.3674 11.5 13.2402 11.5527 13.1464 11.6464C13.0527 11.7402 13 11.8674 13 12V14.5H8.5C7.824 14.49 7.824 15.51 8.5 15.5H13.5C13.6326 15.5 13.7598 15.4473 13.8536 15.3536C13.9473 15.2598 14 15.1326 14 15V12.5H14.5C15.225 12.5 15.871 12.273 16.322 11.822C16.773 11.372 17 10.725 17 10V7C17 6.86739 16.9473 6.74021 16.8536 6.64645C16.7598 6.55268 16.6326 6.5 16.5 6.5H11V5C11 4.86739 10.9473 4.74021 10.8536 4.64645C10.7598 4.55268 10.6326 4.5 10.5 4.5H3.5ZM4 5.5H10V6.5H4V5.5ZM8 8.5V9.5H9V8.5H8ZM10 8.5V9.5H11V8.5H10ZM12 8.5V9.5H13V8.5H12ZM14 8.5V9.5H15V8.5H14Z" fill="currentColor"/>
</svg>
