<svg width="20" height="20" viewBox="0 0 20 20" fill="none" xmlns="http://www.w3.org/2000/svg">
<path d="M4.98 4.49899C4.89925 4.50069 4.8201 4.52191 4.74935 4.56087C4.67859 4.59982 4.61832 4.65533 4.5737 4.72266C4.52908 4.78998 4.50143 4.86712 4.49312 4.94746C4.48482 5.0278 4.4961 5.10896 4.526 5.18399L8.526 15.186C8.55029 15.2471 8.58638 15.3027 8.63219 15.3499C8.67801 15.397 8.73265 15.4346 8.79301 15.4606C8.85337 15.4866 8.91826 15.5005 8.98397 15.5014C9.04968 15.5023 9.11493 15.4903 9.176 15.466C9.23706 15.4417 9.29275 15.4056 9.33986 15.3598C9.38698 15.314 9.42462 15.2593 9.45062 15.199C9.47662 15.1386 9.49048 15.0737 9.4914 15.008C9.49232 14.9423 9.48029 14.8771 9.456 14.816L5.888 5.89599L14.804 9.46299C14.8655 9.49071 14.9321 9.50569 14.9996 9.507C15.0671 9.50832 15.1341 9.49596 15.1967 9.47066C15.2593 9.44537 15.3161 9.40766 15.3637 9.35982C15.4113 9.31197 15.4488 9.25498 15.4738 9.19228C15.4988 9.12957 15.5108 9.06246 15.5092 8.99497C15.5075 8.92749 15.4923 8.86104 15.4642 8.79962C15.4362 8.7382 15.3961 8.68309 15.3462 8.63761C15.2963 8.59213 15.2377 8.55722 15.174 8.53499L5.174 4.53299C5.1123 4.50857 5.04635 4.49667 4.98 4.49799V4.49899Z" fill="currentColor"/>
</svg>
