<svg width="20" height="20" viewBox="0 0 20 20" fill="none" xmlns="http://www.w3.org/2000/svg">
<path d="M13.555 3.017C12.757 2.979 11.983 3.294 11.395 3.882L10.131 5.146C10.0832 5.19212 10.0452 5.24729 10.019 5.30829C9.99275 5.3693 9.97895 5.43491 9.97838 5.5013C9.9778 5.56769 9.99045 5.63353 10.0156 5.69497C10.0407 5.75642 10.0779 5.81225 10.1248 5.85919C10.1718 5.90614 10.2276 5.94327 10.289 5.96841C10.3505 5.99355 10.4163 6.0062 10.4827 6.00562C10.5491 6.00504 10.6147 5.99125 10.6757 5.96505C10.7367 5.93884 10.7919 5.90075 10.838 5.853L12.102 4.589C12.514 4.178 12.992 3.991 13.506 4.015C14.021 4.04 14.591 4.285 15.146 4.839C15.7 5.394 15.955 5.975 15.983 6.492C16.011 7.009 15.831 7.477 15.409 7.871C15.4043 7.87458 15.3996 7.87825 15.395 7.882L14.131 9.146C14.0832 9.19212 14.0452 9.24729 14.019 9.30829C13.9927 9.3693 13.979 9.43491 13.9784 9.5013C13.9778 9.56769 13.9904 9.63353 14.0156 9.69497C14.0407 9.75642 14.0779 9.81225 14.1248 9.85919C14.1718 9.90614 14.2276 9.94327 14.289 9.96841C14.3505 9.99355 14.4163 10.0062 14.4827 10.0056C14.5491 10.005 14.6147 9.99125 14.6757 9.96505C14.7367 9.93884 14.7919 9.90075 14.838 9.853L16.09 8.601C16.389 8.3283 16.6241 7.99293 16.7785 7.61884C16.9328 7.24476 17.0027 6.8412 16.983 6.437C16.939 5.634 16.547 4.827 15.853 4.132C15.156 3.437 14.353 3.055 13.555 3.017ZM5.475 9.996C5.34521 9.99944 5.22184 10.0532 5.131 10.146L3.881 11.396C3.293 11.984 2.978 12.756 3.016 13.554C3.054 14.352 3.436 15.157 4.131 15.853C4.827 16.548 5.635 16.938 6.438 16.982C6.84169 17.0022 7.24485 16.9328 7.61861 16.779C7.99238 16.6251 8.3275 16.3905 8.6 16.092L9.838 14.853C9.88576 14.8069 9.92385 14.7517 9.95005 14.6907C9.97626 14.6297 9.99005 14.5641 9.99063 14.4977C9.9912 14.4313 9.97855 14.3655 9.95341 14.304C9.92827 14.2426 9.89114 14.1867 9.8442 14.1398C9.79725 14.0929 9.74143 14.0557 9.67998 14.0306C9.61853 14.0054 9.55269 13.9928 9.4863 13.9934C9.41991 13.9939 9.3543 14.0077 9.2933 14.0339C9.2323 14.0601 9.17712 14.0982 9.131 14.146L7.881 15.396C7.87727 15.3999 7.8736 15.4039 7.87 15.408C7.476 15.83 7.01 16.012 6.493 15.984C5.976 15.956 5.393 15.701 4.838 15.146C4.284 14.592 4.041 14.022 4.016 13.507C3.992 12.993 4.176 12.515 4.588 12.103L5.838 10.853C5.90975 10.7827 5.95867 10.6924 5.97838 10.5939C5.99809 10.4954 5.98768 10.3933 5.94851 10.3008C5.90933 10.2083 5.8432 10.1298 5.75875 10.0754C5.67429 10.021 5.57541 9.99336 5.475 9.996Z" fill="currentColor"/>
</svg>
