<svg width="20" height="20" viewBox="0 0 20 20" fill="none" xmlns="http://www.w3.org/2000/svg">
<path d="M4 4.5C3.86739 4.5 3.74021 4.55268 3.64645 4.64645C3.55268 4.74021 3.5 4.86739 3.5 5V13C3.5 13.1326 3.55268 13.2598 3.64645 13.3536C3.74021 13.4473 3.86739 13.5 4 13.5H9.5V14.5H7C6.324 14.49 6.324 15.51 7 15.5H13C13.657 15.491 13.657 14.51 13 14.5H10.5V13.5H16C16.1326 13.5 16.2598 13.4473 16.3536 13.3536C16.4473 13.2598 16.5 13.1326 16.5 13V5C16.5 4.86739 16.4473 4.74021 16.3536 4.64645C16.2598 4.55268 16.1326 4.5 16 4.5H4ZM4.5 5.5H15.5V12.5H4.5V5.5Z" fill="currentColor"/>
</svg>
