<svg width="20" height="20" viewBox="0 0 20 20" fill="none" xmlns="http://www.w3.org/2000/svg">
<path d="M8 4.5L5.004 4.50601C4.87174 4.50601 4.74486 4.5584 4.65115 4.65173C4.55744 4.74507 4.50453 4.87174 4.504 5.004L4.5 13.463C4.5 14.486 5.306 15.5 6.5 15.5C7.695 15.5 8.496 14.478 8.496 13.457L8.5 5C8.5 4.86739 8.44731 4.74022 8.35355 4.64645C8.25978 4.55269 8.13261 4.5 8 4.5ZM6.5 12.5C6.76522 12.5 7.01956 12.6054 7.20709 12.7929C7.39463 12.9804 7.5 13.2348 7.5 13.5C7.5 13.7652 7.39463 14.0196 7.20709 14.2071C7.01956 14.3946 6.76522 14.5 6.5 14.5C6.23478 14.5 5.98044 14.3946 5.79291 14.2071C5.60537 14.0196 5.5 13.7652 5.5 13.5C5.5 13.2348 5.60537 12.9804 5.79291 12.7929C5.98044 12.6054 6.23478 12.5 6.5 12.5Z" fill="currentColor"/>
<path d="M12.646 11.646L9.64598 14.646C9.57587 14.7159 9.52811 14.8051 9.50874 14.9022C9.48938 14.9993 9.49927 15.1 9.53719 15.1915C9.5751 15.283 9.63934 15.3611 9.72173 15.416C9.80412 15.471 9.90096 15.5002 9.99999 15.5H15C15.1326 15.5 15.2598 15.4473 15.3535 15.3536C15.4473 15.2598 15.5 15.1326 15.5 15V12C15.5 11.9332 15.4866 11.867 15.4606 11.8054C15.4346 11.7438 15.3965 11.688 15.3486 11.6414C15.3007 11.5948 15.2439 11.5583 15.1816 11.534C15.1193 11.5097 15.0528 11.4981 14.986 11.5H12.986C12.8583 11.504 12.7368 11.5562 12.646 11.646Z" fill="currentColor"/>
<path d="M11.993 5.5C11.8629 5.50213 11.7388 5.55486 11.647 5.64701L9.646 7.64701C9.55216 7.74055 9.49929 7.86751 9.49899 8V12C9.49882 12.099 9.52805 12.1959 9.58298 12.2783C9.63791 12.3607 9.71605 12.4249 9.80753 12.4628C9.899 12.5007 9.99969 12.5106 10.0968 12.4912C10.1939 12.4719 10.2831 12.4241 10.353 12.354L14.353 8.35401C14.4467 8.26024 14.4994 8.13307 14.4994 8.00049C14.4994 7.86791 14.4467 7.74077 14.353 7.64701L12.353 5.64701C12.3059 5.5997 12.2497 5.56233 12.1879 5.53708C12.126 5.51184 12.0598 5.49922 11.993 5.5Z" fill="currentColor"/>
</svg>
