<svg width="20" height="20" viewBox="0 0 20 20" fill="none" xmlns="http://www.w3.org/2000/svg">
<path d="M9 4.5C8.9343 4.49988 8.86921 4.51272 8.80847 4.53777C8.74773 4.56282 8.69252 4.5996 8.646 4.646L6.793 6.5H4C3.86739 6.5 3.74021 6.55268 3.64645 6.64645C3.55268 6.74022 3.5 6.86739 3.5 7V15C3.5 15.1326 3.55268 15.2598 3.64645 15.3536C3.74021 15.4473 3.86739 15.5 4 15.5H16C16.1326 15.5 16.2598 15.4473 16.3536 15.3536C16.4473 15.2598 16.5 15.1326 16.5 15V7C16.5 6.86739 16.4473 6.74022 16.3536 6.64645C16.2598 6.55268 16.1326 6.5 16 6.5H14.207L12.354 4.646C12.3075 4.5996 12.2523 4.56282 12.1915 4.53777C12.1308 4.51272 12.0657 4.49988 12 4.5H9ZM9.207 5.5H11.793L13.646 7.354C13.6925 7.4004 13.7477 7.43718 13.8085 7.46223C13.8692 7.48728 13.9343 7.50012 14 7.5H15.5V14.5H4.5V7.5H7C7.0657 7.50012 7.13079 7.48728 7.19153 7.46223C7.25227 7.43718 7.30748 7.4004 7.354 7.354L9.207 5.5ZM8.747 8.244C8.64707 8.2434 8.54925 8.27275 8.46616 8.32828C8.38307 8.3838 8.31853 8.46295 8.28086 8.55551C8.24319 8.64808 8.23412 8.7498 8.25482 8.84757C8.27552 8.94533 8.32505 9.03465 8.397 9.104L9.792 10.5L8.395 11.896C8.30111 11.9899 8.24837 12.1172 8.24837 12.25C8.24837 12.3828 8.30111 12.5101 8.395 12.604C8.48889 12.6979 8.61622 12.7506 8.749 12.7506C8.88178 12.7506 9.00911 12.6979 9.103 12.604L10.499 11.207L11.895 12.604C11.9889 12.6979 12.1162 12.7506 12.249 12.7506C12.3818 12.7506 12.5091 12.6979 12.603 12.604C12.6969 12.5101 12.7496 12.3828 12.7496 12.25C12.7496 12.1172 12.6969 11.9899 12.603 11.896L11.207 10.5L12.604 9.104C12.6979 9.01011 12.7506 8.88278 12.7506 8.75C12.7506 8.61723 12.6979 8.48989 12.604 8.396C12.5101 8.30211 12.3828 8.24937 12.25 8.24937C12.1172 8.24937 11.9899 8.30211 11.896 8.396L10.5 9.793L9.104 8.396C9.05751 8.34803 9.00187 8.30987 8.94038 8.28376C8.8789 8.25766 8.8128 8.24414 8.746 8.244H8.747Z" fill="currentColor"/>
</svg>
