<svg width="20" height="20" viewBox="0 0 20 20" fill="none" xmlns="http://www.w3.org/2000/svg">
<path d="M9 4.5C8.9343 4.49988 8.86921 4.51272 8.80847 4.53777C8.74773 4.56282 8.69252 4.5996 8.646 4.646L6.793 6.5H4C3.86739 6.5 3.74021 6.55268 3.64645 6.64645C3.55268 6.74022 3.5 6.86739 3.5 7V15C3.5 15.1326 3.55268 15.2598 3.64645 15.3536C3.74021 15.4473 3.86739 15.5 4 15.5H10.457C10.4737 15.4996 10.4904 15.4983 10.507 15.496C10.5216 15.4979 10.5363 15.4992 10.551 15.5H16C16.1326 15.5 16.2598 15.4473 16.3536 15.3536C16.4473 15.2598 16.5 15.1326 16.5 15V7C16.5 6.86739 16.4473 6.74022 16.3536 6.64645C16.2598 6.55268 16.1326 6.5 16 6.5H14.207L12.354 4.646C12.3075 4.5996 12.2523 4.56282 12.1915 4.53777C12.1308 4.51272 12.0657 4.49988 12 4.5H9ZM10.498 6.498C11.0238 6.49695 11.5447 6.59974 12.0307 6.80049C12.5168 7.00123 12.9584 7.29598 13.3302 7.66781C13.702 8.03964 13.9968 8.48123 14.1975 8.96726C14.3983 9.45328 14.5011 9.97415 14.5 10.5C14.5016 11.5536 14.0869 12.5652 13.3461 13.3144C12.6053 14.0636 11.5985 14.4897 10.545 14.5C10.5316 14.5007 10.5183 14.5021 10.505 14.504L10.461 14.5H10.457C9.40259 14.491 8.39451 14.0654 7.65265 13.3161C6.9108 12.5668 6.49538 11.5544 6.497 10.5C6.49595 9.97432 6.59868 9.45361 6.7993 8.96772C6.99992 8.48183 7.29448 8.04032 7.6661 7.66852C8.03772 7.29671 8.47908 7.00193 8.96487 6.80106C9.45066 6.6002 9.97132 6.49721 10.497 6.498H10.498ZM10.498 7.5C9.70318 7.50211 8.94156 7.81893 8.37972 8.38114C7.81789 8.94334 7.50158 9.70518 7.5 10.5C7.5 12.15 8.847 13.5 10.498 13.5C12.148 13.5 13.498 12.15 13.498 10.5C13.498 8.85 12.148 7.5 10.498 7.5ZM10.498 8.5C11.608 8.5 12.498 9.39 12.498 10.5C12.498 11.61 11.608 12.5 10.498 12.5C9.388 12.5 8.5 11.61 8.5 10.5C8.5 9.39 9.388 8.5 10.498 8.5Z" fill="currentColor"/>
</svg>
