<svg width="20" height="20" viewBox="0 0 20 20" fill="none" xmlns="http://www.w3.org/2000/svg">
<path d="M5 4.5C4.86739 4.5 4.74022 4.55269 4.64645 4.64645C4.55269 4.74022 4.5 4.86739 4.5 5V13.5C4.5 14.599 5.401 15.5 6.5 15.5C7.599 15.5 8.5 14.599 8.5 13.5V5C8.5 4.86739 8.44731 4.74022 8.35355 4.64645C8.25978 4.55269 8.13261 4.5 8 4.5H5ZM5.5 5.5H7.5V13.5C7.5 14.058 7.058 14.5 6.5 14.5C5.942 14.5 5.5 14.058 5.5 13.5V5.5Z" fill="currentColor"/>
<path d="M11.992 5.49999C11.8621 5.50185 11.738 5.55421 11.646 5.64598L9.5 7.79299V9.20699L12 6.70699L13.293 7.99999L9.5 11.793V13.207L14.354 8.35399C14.4006 8.30754 14.4375 8.25235 14.4627 8.19161C14.4879 8.13086 14.5009 8.06575 14.5009 7.99999C14.5009 7.93422 14.4879 7.86911 14.4627 7.80837C14.4375 7.74762 14.4006 7.69243 14.354 7.64598L12.354 5.64598C12.3065 5.59862 12.25 5.56129 12.1878 5.53621C12.1256 5.51113 12.0591 5.4988 11.992 5.49999Z" fill="currentColor"/>
<path d="M12.75 11.5L11.75 12.5H14.5V14.5H9.75L8.75 15.5H15C15.1326 15.5 15.2598 15.4473 15.3535 15.3535C15.4473 15.2598 15.5 15.1326 15.5 15V12C15.5 11.8674 15.4473 11.7402 15.3535 11.6465C15.2598 11.5527 15.1326 11.5 15 11.5H12.75Z" fill="currentColor"/>
</svg>
