<svg width="20" height="20" viewBox="0 0 20 20" fill="none" xmlns="http://www.w3.org/2000/svg">
<path d="M6.23 8.74001C5.97034 8.74794 5.72395 8.85661 5.543 9.04301L4.066 10.52C3.71566 10.844 3.44034 11.2406 3.25931 11.6821C3.07829 12.1236 2.99593 12.5993 3.018 13.076C3.069 14.022 3.528 14.942 4.293 15.707C5.059 16.473 5.983 16.922 6.922 16.967C7.862 17.012 8.78 16.634 9.457 15.957L10.957 14.457C11.0525 14.3648 11.1287 14.2544 11.1811 14.1324C11.2335 14.0104 11.2611 13.8792 11.2623 13.7464C11.2634 13.6136 11.2381 13.4819 11.1878 13.3591C11.1375 13.2362 11.0633 13.1245 10.9694 13.0306C10.8755 12.9367 10.7639 12.8625 10.641 12.8122C10.5181 12.7619 10.3864 12.7366 10.2536 12.7378C10.1208 12.7389 9.9896 12.7665 9.8676 12.8189C9.74559 12.8713 9.63525 12.9475 9.543 13.043L8.043 14.543C7.72 14.866 7.389 14.988 7.016 14.971C6.643 14.953 6.191 14.777 5.707 14.293C5.222 13.808 5.037 13.339 5.016 12.965C4.996 12.591 5.11 12.283 5.434 11.98C5.44179 11.9725 5.44946 11.9648 5.457 11.957L6.957 10.457C7.10166 10.3166 7.20049 10.1356 7.24051 9.93803C7.28053 9.74041 7.25988 9.53531 7.18126 9.34964C7.10264 9.16397 6.96974 9.0064 6.79998 8.89761C6.63022 8.78881 6.43154 8.73388 6.23 8.74001ZM13.078 3.03301C12.138 2.98901 11.22 3.36601 10.543 4.04301L9.043 5.54301C8.94749 5.63525 8.87131 5.7456 8.8189 5.8676C8.76649 5.98961 8.7389 6.12083 8.73775 6.25361C8.7366 6.38639 8.7619 6.51806 8.81218 6.64096C8.86246 6.76386 8.93671 6.87551 9.03061 6.9694C9.1245 7.0633 9.23615 7.13755 9.35905 7.18783C9.48194 7.23811 9.61362 7.26341 9.7464 7.26226C9.87918 7.2611 10.0104 7.23352 10.1324 7.18111C10.2544 7.1287 10.3648 7.05252 10.457 6.95701L11.957 5.45701C12.28 5.13401 12.611 5.01201 12.984 5.02901C13.357 5.04701 13.809 5.22301 14.293 5.70701C14.778 6.19201 14.963 6.66101 14.984 7.03501C15.004 7.40901 14.89 7.71701 14.566 8.02001C14.5582 8.02755 14.5505 8.03522 14.543 8.04301L13.043 9.54301C12.9475 9.63525 12.8713 9.7456 12.8189 9.8676C12.7665 9.98961 12.7389 10.1208 12.7378 10.2536C12.7366 10.3864 12.7619 10.5181 12.8122 10.641C12.8625 10.7639 12.9367 10.8755 13.0306 10.9694C13.1245 11.0633 13.2362 11.1375 13.359 11.1878C13.4819 11.2381 13.6136 11.2634 13.7464 11.2623C13.8792 11.2611 14.0104 11.2335 14.1324 11.1811C14.2544 11.1287 14.3648 11.0525 14.457 10.957L15.934 9.48001C16.2843 9.15604 16.5597 8.75942 16.7407 8.31791C16.9217 7.87641 17.0041 7.40067 16.982 6.92401C16.931 5.97801 16.472 5.05801 15.707 4.29301C14.941 3.52701 14.017 3.07801 13.078 3.03301ZM11.98 6.99001C11.7203 6.99794 11.474 7.10661 11.293 7.29301L7.293 11.293C7.19749 11.3853 7.12131 11.4956 7.0689 11.6176C7.01649 11.7396 6.9889 11.8708 6.98775 12.0036C6.9866 12.1364 7.0119 12.2681 7.06218 12.391C7.11246 12.5139 7.18671 12.6255 7.28061 12.7194C7.3745 12.8133 7.48615 12.8875 7.60905 12.9378C7.73194 12.9881 7.86362 13.0134 7.9964 13.0123C8.12918 13.0111 8.2604 12.9835 8.38241 12.9311C8.50441 12.8787 8.61475 12.8025 8.707 12.707L12.707 8.70701C12.8517 8.56655 12.9505 8.38565 12.9905 8.18803C13.0305 7.99041 13.0099 7.78531 12.9313 7.59964C12.8526 7.41397 12.7197 7.2564 12.55 7.14761C12.3802 7.03881 12.1815 6.98388 11.98 6.99001Z" fill="currentColor"/>
</svg>
