<svg width="20" height="20" viewBox="0 0 20 20" fill="none" xmlns="http://www.w3.org/2000/svg">
<path d="M13.994 6C14.273 6 14.5 6.222 14.5 6.5V13.5C14.5001 13.5915 14.4751 13.6814 14.4276 13.7596C14.3802 13.8379 14.3122 13.9017 14.231 13.944C14.1498 13.9863 14.0586 14.0055 13.9672 13.9995C13.8759 13.9935 13.788 13.9625 13.713 13.91L8.713 10.41C8.64699 10.3639 8.59307 10.3026 8.55585 10.2312C8.51862 10.1598 8.49918 10.0805 8.49918 10C8.49918 9.91949 8.51862 9.84018 8.55585 9.7688C8.59307 9.69742 8.64699 9.63608 8.713 9.59L13.713 6.09C13.7954 6.03225 13.8934 6.00086 13.994 6ZM7.5 5V15H5.5V5H7.5Z" fill="currentColor"/>
</svg>
