<svg width="20" height="20" viewBox="0 0 20 20" fill="none" xmlns="http://www.w3.org/2000/svg">
<path d="M7.998 5.49399C7.89845 5.49399 7.80116 5.52371 7.71861 5.57934C7.63605 5.63498 7.57198 5.71398 7.5346 5.80625C7.49722 5.89852 7.48824 5.99984 7.5088 6.09724C7.52935 6.19465 7.57852 6.2837 7.65 6.35299L11.297 9.99899L7.65 13.646C7.60224 13.6921 7.56415 13.7473 7.53795 13.8083C7.51174 13.8693 7.49795 13.9349 7.49737 14.0013C7.49679 14.0677 7.50945 14.1335 7.53459 14.195C7.55973 14.2564 7.59685 14.3122 7.6438 14.3592C7.69075 14.4061 7.74657 14.4433 7.80802 14.4684C7.86947 14.4935 7.93531 14.5062 8.0017 14.5056C8.06809 14.505 8.1337 14.4912 8.1947 14.465C8.2557 14.4388 8.31087 14.4007 8.357 14.353L12.357 10.353C12.4507 10.2592 12.5034 10.1321 12.5034 9.99949C12.5034 9.86691 12.4507 9.73975 12.357 9.64599L8.357 5.64599C8.31027 5.59778 8.25431 5.55948 8.19246 5.53336C8.13061 5.50725 8.06413 5.49386 7.997 5.49399H7.998Z" fill="currentColor"/>
</svg>
