<svg width="20" height="20" viewBox="0 0 20 20" fill="none" xmlns="http://www.w3.org/2000/svg">
<path d="M7.99302 10.992C7.92727 10.9929 7.86232 11.0068 7.80194 11.0328C7.74156 11.0588 7.68691 11.0965 7.64112 11.1437C7.59532 11.1909 7.55928 11.2467 7.53507 11.3078C7.51085 11.3689 7.49895 11.4342 7.5 11.5V14.5C7.5 15.225 7.72701 15.871 8.17801 16.322C8.62901 16.773 9.275 17 10 17C10.725 17 11.372 16.773 11.823 16.322C12.273 15.872 12.5 15.225 12.5 14.5V11.5C12.5 11.3674 12.4473 11.2402 12.3535 11.1464C12.2598 11.0527 12.1326 11 12 11C11.8674 11 11.7402 11.0527 11.6465 11.1464C11.5527 11.2402 11.5 11.3674 11.5 11.5V14.5C11.5 15.025 11.352 15.379 11.116 15.615C10.879 15.852 10.526 16 10 16C9.475 16 9.12201 15.852 8.88501 15.615C8.64901 15.379 8.5 15.025 8.5 14.5V11.5C8.50108 11.4331 8.48871 11.3666 8.46363 11.3046C8.43854 11.2425 8.40126 11.1861 8.35398 11.1387C8.3067 11.0913 8.25036 11.0539 8.18836 11.0287C8.12635 11.0035 8.05994 10.991 7.99302 10.992Z" fill="currentColor"/>
<path d="M9.99301 5.992C9.92726 5.99292 9.86232 6.00677 9.80194 6.03281C9.74156 6.05884 9.68691 6.09655 9.64111 6.14374C9.59532 6.19092 9.55928 6.24667 9.53506 6.3078C9.51085 6.36893 9.49894 6.43425 9.5 6.5V12.5C9.5 12.6326 9.55269 12.7598 9.64645 12.8535C9.74022 12.9473 9.86739 13 10 13C10.1326 13 10.2598 12.9473 10.3535 12.8535C10.4473 12.7598 10.5 12.6326 10.5 12.5V6.5C10.5011 6.43308 10.4887 6.36662 10.4636 6.30457C10.4385 6.24251 10.4013 6.18611 10.354 6.13873C10.3067 6.09136 10.2504 6.05395 10.1884 6.02875C10.1263 6.00354 10.0599 5.99106 9.99301 5.992ZM4 3C3.86739 3 3.74022 3.05269 3.64645 3.14645C3.55269 3.24022 3.5 3.36739 3.5 3.5C3.5 3.63261 3.55269 3.75978 3.64645 3.85355C3.74022 3.94731 3.86739 4 4 4H6.5V5.75C6.5 6.722 7.037 7.57799 7.776 7.94699C7.83494 7.97877 7.89967 7.99841 7.96634 8.0047C8.033 8.01099 8.10025 8.00383 8.16409 7.98364C8.22794 7.96345 8.28706 7.93063 8.33798 7.88715C8.38891 7.84367 8.43059 7.79042 8.46054 7.73053C8.49049 7.67064 8.5081 7.60534 8.51233 7.53851C8.51656 7.47169 8.50732 7.40468 8.48517 7.34149C8.46301 7.2783 8.4284 7.22021 8.38336 7.17065C8.33833 7.1211 8.28378 7.08109 8.22299 7.05301C7.96199 6.92301 7.5 6.278 7.5 5.75V4H12.5V5.75C12.5 6.278 12.037 6.92201 11.776 7.05301C11.7152 7.08109 11.6607 7.1211 11.6157 7.17065C11.5706 7.22021 11.536 7.2783 11.5138 7.34149C11.4917 7.40468 11.4824 7.47169 11.4867 7.53851C11.4909 7.60534 11.5085 7.67064 11.5385 7.73053C11.5684 7.79042 11.6101 7.84367 11.661 7.88715C11.7119 7.93063 11.7711 7.96345 11.8349 7.98364C11.8987 8.00383 11.966 8.01099 12.0327 8.0047C12.0993 7.99841 12.1641 7.97877 12.223 7.94699C12.962 7.57799 13.5 6.722 13.5 5.75V4H16C16.1326 4 16.2598 3.94731 16.3535 3.85355C16.4473 3.75978 16.5 3.63261 16.5 3.5C16.5 3.36739 16.4473 3.24022 16.3535 3.14645C16.2598 3.05269 16.1326 3 16 3H4Z" fill="currentColor"/>
</svg>
