<svg width="20" height="20" viewBox="0 0 20 20" fill="none" xmlns="http://www.w3.org/2000/svg">
<path d="M11.976 6.983C11.9025 6.98675 11.8306 7.00605 11.7651 7.03967C11.6996 7.07329 11.6419 7.12042 11.596 7.17797L7.98401 11.694L4.892 8.16098C4.8482 8.10614 4.79375 8.06075 4.73194 8.02752C4.67012 7.99429 4.60222 7.97394 4.53232 7.96765C4.46243 7.96136 4.39198 7.96927 4.32523 7.99093C4.25848 8.01259 4.19681 8.04755 4.14393 8.09369C4.09104 8.13982 4.04802 8.19617 4.01749 8.25937C3.98697 8.32256 3.96954 8.39129 3.96628 8.46139C3.96302 8.5315 3.97398 8.60154 3.99851 8.66729C4.02304 8.73305 4.06064 8.79315 4.10901 8.84399L7.60901 12.844C7.65905 12.9015 7.72114 12.9474 7.79087 12.9783C7.8606 13.0091 7.93624 13.0243 8.01249 13.0227C8.08873 13.0211 8.16368 13.0027 8.23203 12.9689C8.30038 12.935 8.36048 12.8866 8.40802 12.827L12.019 8.31298L15.109 11.844C15.1528 11.8988 15.2073 11.9442 15.2691 11.9774C15.3309 12.0107 15.3988 12.0311 15.4687 12.0373C15.5386 12.0436 15.609 12.0357 15.6758 12.014C15.7425 11.9924 15.8042 11.9574 15.8571 11.9113C15.91 11.8651 15.953 11.8088 15.9835 11.7456C16.0141 11.6824 16.0315 11.6137 16.0347 11.5436C16.038 11.4735 16.027 11.4035 16.0025 11.3377C15.978 11.2719 15.9404 11.2118 15.892 11.161L12.392 7.16098C12.3406 7.10188 12.2764 7.0552 12.2044 7.02438C12.1323 6.99356 12.0543 6.97941 11.976 6.983Z" fill="currentColor"/>
<path d="M3.49299 3.97597C3.4247 3.97688 3.35724 3.99126 3.2945 4.01824C3.23176 4.04522 3.17497 4.08429 3.12733 4.13323C3.07969 4.18216 3.04217 4.24001 3.01689 4.30345C2.9916 4.3669 2.97906 4.43469 2.97999 4.50298V15.503C2.97999 15.6409 3.03478 15.7732 3.1323 15.8707C3.22982 15.9682 3.36207 16.023 3.49998 16.023C3.63789 16.023 3.77017 15.9682 3.86769 15.8707C3.9652 15.7732 4.02 15.6409 4.02 15.503V14.003H15.98V15.503C15.98 15.6409 16.0348 15.7732 16.1323 15.8707C16.2298 15.9682 16.3621 16.023 16.5 16.023C16.6379 16.023 16.7702 15.9682 16.8677 15.8707C16.9652 15.7732 17.02 15.6409 17.02 15.503V4.50298C17.0209 4.43351 17.0079 4.36455 16.9818 4.30019C16.9556 4.23582 16.9168 4.17735 16.8677 4.12822C16.8186 4.0791 16.7601 4.04033 16.6958 4.01418C16.6314 3.98803 16.5625 3.97503 16.493 3.97597C16.4247 3.97688 16.3572 3.99126 16.2945 4.01824C16.2318 4.04522 16.175 4.08429 16.1273 4.13323C16.0797 4.18216 16.0422 4.24001 16.0169 4.30345C15.9916 4.3669 15.9791 4.43469 15.98 4.50298V6.00298H4.02V4.50298C4.02094 4.43351 4.00794 4.36455 3.98179 4.30019C3.95564 4.23582 3.91684 4.17735 3.86772 4.12822C3.81859 4.0791 3.76014 4.04033 3.69578 4.01418C3.63142 3.98803 3.56246 3.97503 3.49299 3.97597ZM4.02098 7.00298H15.98V13.003H4.02L4.02098 7.00298Z" fill="currentColor"/>
</svg>
