<svg width="20" height="20" viewBox="0 0 20 20" fill="none" xmlns="http://www.w3.org/2000/svg">
<path d="M5.6 2.89999C5.5 2.89999 5.3 2.99999 5.2 3.09999C4.7 3.59999 4 4.19999 4 5.29999C4 6.49999 4.9 7.39999 5.9 8.19999C7 8.99999 8.4 9.69999 9.8 10.4C10.2 10.6 10.7 10.9 11.1 11.1C12.2 11.7 13.2 12.3 13.9 12.9C14.6 13.5 15 14.1 15 14.6C15 15.1 14.7 15.6 14.2 16C14 16.2 13.9 16.5 14.1 16.8C14.3 17.1 14.6 17.1 14.9 16.9C15.6 16.4 16.1 15.6 16.1 14.7C16.1 13.7 15.5 12.9 14.7 12.2C13.9 11.5 12.8 10.9 11.7 10.3C11.3 10.1 10.8 9.79999 10.4 9.59999C8.9 8.69999 7.6 7.99999 6.6 7.29999C5.6 6.59999 5.1 5.89999 5.1 5.29999C5.1 4.89999 5.5 4.49999 6 3.89999C6.2 3.69999 6.2 3.29999 6 3.09999C5.9 2.99999 5.8 2.89999 5.6 2.89999ZM7.6 10.9C7.5 10.9 7.4 10.9 7.4 11C6.6 11.4 5.9 11.8 5.2 12.3C4.5 12.8 4 13.5 4 14.4C4 15.4 4.5 16.3 5.2 16.8C5.4 17.1 5.8 17 6 16.8C6.2 16.6 6.2 16.2 5.9 16C5.5 15.6 5.1 15 5.1 14.4C5.1 13.8 5.4 13.4 5.8 13C6.3 12.6 7 12.2 7.8 11.9C8.1 11.8 8.2 11.4 8.1 11.2C8 11 7.8 10.9 7.6 10.9Z" fill="currentColor"/>
<path d="M6.5 5C6.2 5 6 5.2 6 5.5C6 5.8 6.2 6 6.5 6H8.5C8.8 6 9 5.8 9 5.5C9 5.2 8.8 5 8.5 5H6.5ZM6.5 14C6.2 14 6 14.2 6 14.5C6 14.8 6.2 15 6.5 15H8.5C8.7 15 9 14.8 9 14.6C9 14.8 9.3 15 9.5 15H13.5C13.8 15 14 14.8 14 14.5C14 14.2 13.8 14 13.5 14H9.5C9.3 14 9 14.2 9 14.4C9 14.2 8.7 14 8.5 14H6.5Z" fill="currentColor"/>
<path d="M13.5 2C11.6 2 10 3.6 10 5.5C10 7.4 11.6 9 13.5 9C15.4 9 17 7.4 17 5.5C17 3.6 15.4 2 13.5 2ZM13 3H14V5H16V6H14V8H13V6H11V5H13V3Z" fill="currentColor"/>
</svg>
