<svg width="20" height="20" viewBox="0 0 20 20" fill="none" xmlns="http://www.w3.org/2000/svg">
<path d="M9.75069 4.97171C9.63509 4.97214 9.52348 5.01732 9.43623 5.09901L5.93621 8.34876C4.20574 9.95559 3.01767 11.8942 3.01767 14.4924C3.01767 14.6301 3.06845 14.7622 3.15883 14.8596C3.24921 14.9569 3.37178 15.0116 3.4996 15.0116C3.62741 15.0116 3.74999 14.9569 3.84037 14.8596C3.93075 14.7622 3.98153 14.6301 3.98153 14.4924C3.98153 12.225 4.95375 10.6302 6.56514 9.13363L9.92839 6.01119H10.0707L13.4358 9.13363C13.4358 9.1343 13.4358 9.13497 13.4358 9.13564C15.0482 10.6312 16.0176 12.225 16.0176 14.4924C16.0147 14.5626 16.0251 14.6327 16.048 14.6984C16.071 14.7641 16.1061 14.8242 16.1511 14.8749C16.1962 14.9257 16.2504 14.9661 16.3103 14.9937C16.3703 15.0213 16.4348 15.0355 16.5 15.0355C16.5652 15.0355 16.6297 15.0213 16.6897 14.9937C16.7496 14.9661 16.8038 14.9257 16.8488 14.8749C16.8939 14.8242 16.929 14.7641 16.9519 14.6984C16.9749 14.6327 16.9852 14.5626 16.9824 14.4924C16.9824 11.8942 15.7952 9.95459 14.0648 8.34876L10.5648 5.09901C10.4775 5.01732 10.3659 4.97214 10.2503 4.97171H9.75069Z" fill="currentColor"/>
</svg>
