<svg width="20" height="20" viewBox="0 0 20 20" fill="none" xmlns="http://www.w3.org/2000/svg">
<path d="M11.014 4.06601C11.2538 3.97886 11.5126 3.9572 11.7635 4.00325C12.0145 4.0493 12.2487 4.1614 12.442 4.32801C12.804 4.65101 13.023 5.10201 13.213 5.63001C13.594 6.68701 13.823 8.10401 14.077 9.54001C14.331 10.977 14.609 12.43 15.018 13.47C15.223 13.99 15.461 14.403 15.708 14.658C15.955 14.912 16.181 15.021 16.493 15.021C16.6256 15.021 16.7528 15.0737 16.8465 15.1675C16.9403 15.2612 16.993 15.3884 16.993 15.521C16.993 15.6536 16.9403 15.7808 16.8465 15.8746C16.7528 15.9683 16.6256 16.021 16.493 16.021C15.903 16.021 15.377 15.753 14.989 15.353C14.601 14.953 14.319 14.431 14.087 13.837C13.62 12.651 13.347 11.157 13.092 9.71401C12.837 8.27101 12.599 6.87201 12.274 5.97001C12.112 5.52001 11.92 5.20401 11.774 5.07401C11.628 4.94401 11.587 4.92101 11.358 5.00501C11.301 5.02601 11.195 5.10701 11.075 5.30201C10.927 5.56326 10.809 5.84034 10.723 6.12801C10.505 6.80901 10.33 7.68801 10.141 8.50101C9.953 9.31501 9.783 10.051 9.401 10.583C9.21 10.85 8.889 11.099 8.501 11.089C8.111 11.079 7.797 10.859 7.499 10.546C7.161 10.193 6.903 10.049 6.776 10.017C6.649 9.98501 6.638 9.99201 6.534 10.085C6.325 10.272 6.021 10.977 5.794 11.818C5.566 12.658 5.364 13.623 5.077 14.419C4.933 14.818 4.771 15.179 4.534 15.476C4.296 15.774 3.932 16.021 3.506 16.021C3.37339 16.021 3.24621 15.9683 3.15244 15.8746C3.05867 15.7808 3.006 15.6536 3.006 15.521C3.006 15.3884 3.05867 15.2612 3.15244 15.1675C3.24621 15.0737 3.37339 15.021 3.506 15.021C3.579 15.021 3.631 15.003 3.753 14.851C3.873 14.699 4.013 14.424 4.137 14.08C4.387 13.39 4.59 12.437 4.829 11.556C5.067 10.676 5.289 9.85601 5.866 9.33901C6.02115 9.20185 6.2068 9.10371 6.40751 9.05275C6.60823 9.00179 6.81821 8.99948 7.02 9.04601C7.439 9.15101 7.814 9.42801 8.223 9.85601C8.429 10.072 8.543 10.09 8.526 10.089C8.51 10.089 8.503 10.118 8.588 9.99901C8.758 9.76301 8.983 9.06501 9.167 8.27501C9.35 7.48501 9.525 6.59001 9.772 5.82201C9.895 5.43801 10.034 5.08401 10.222 4.77901C10.409 4.47301 10.655 4.19701 11.014 4.06601Z" fill="currentColor"/>
</svg>
