<svg width="20" height="20" viewBox="0 0 20 20" fill="none" xmlns="http://www.w3.org/2000/svg">
<path d="M10 2.996C8.202 2.996 7.21499 3.229 6.61099 3.748C6.00799 4.268 6 5.002 6 5.496V5.996H5.99799C5.86999 5.996 5.08701 5.996 4.35901 6.533C3.63101 7.071 2.999 8.143 3 10C3 10.847 3.125 11.439 3.353 11.895C3.582 12.35 3.899 12.637 4.168 12.875C4.21725 12.9186 4.27461 12.9521 4.33679 12.9735C4.39897 12.9949 4.46475 13.0039 4.5304 12.9999C4.59605 12.9959 4.66027 12.9791 4.71939 12.9502C4.77852 12.9214 4.8314 12.8812 4.875 12.832C4.9186 12.7828 4.95208 12.7254 4.97351 12.6632C4.99495 12.601 5.00393 12.5352 4.99994 12.4696C4.99595 12.4039 4.97904 12.3397 4.95023 12.2806C4.92141 12.2215 4.88125 12.1686 4.832 12.125C4.568 11.891 4.38699 11.725 4.24799 11.447C4.10899 11.17 4 10.749 4 10C4 8.357 4.494 7.677 4.953 7.338C5.2561 7.11428 5.62329 6.99434 6 6.996H6.44299C6.46256 6.9985 6.48229 6.99983 6.50202 7L9.50202 6.99001C9.63462 6.98974 9.76168 6.93681 9.85526 6.84285C9.94884 6.74889 10.0013 6.62161 10.001 6.489C10.0007 6.35639 9.94781 6.22932 9.85385 6.13574C9.7599 6.04216 9.63261 5.98974 9.5 5.99001H9.496L7 5.994V5.496C7 5.002 6.99201 4.74 7.26401 4.506C7.53501 4.272 8.298 3.996 10 3.996C11.702 3.996 12.465 4.272 12.736 4.506C13.008 4.74 13 5.002 13 5.496V7.49001C13 7.96901 12.735 8.27999 12.154 8.62C11.574 8.96 10.722 9.24 9.84799 9.521C8.97299 9.803 8.07301 10.085 7.34201 10.51C6.61101 10.935 6 11.592 6 12.49V14.504C6 14.998 6.00799 15.733 6.61099 16.252C7.21499 16.772 8.201 17.004 10 17.004C11.798 17.004 12.785 16.771 13.389 16.252C13.992 15.732 14 14.998 14 14.504V14.004C14.127 14.004 14.912 14.004 15.64 13.467C16.37 12.929 17 11.857 17 10C17 8.43 16.33 7.65201 15.863 7.15601C15.8178 7.10834 15.7637 7.07003 15.7037 7.04327C15.6438 7.01652 15.5791 7.00184 15.5134 7.00008C15.4478 6.99831 15.3824 7.0095 15.3211 7.03299C15.2598 7.05648 15.2037 7.09182 15.156 7.13699C15.1083 7.18217 15.07 7.2363 15.0433 7.29628C15.0165 7.35626 15.0018 7.42092 15.0001 7.48657C14.9983 7.55222 15.0095 7.61757 15.033 7.67889C15.0565 7.74022 15.0918 7.79632 15.137 7.84399C15.607 8.34299 16 8.675 16 10C16 11.643 15.506 12.323 15.047 12.662C14.7439 12.8857 14.3767 13.0057 14 13.004H13.557C13.5374 13.0015 13.5177 13.0002 13.498 13L10.498 13.01C10.4323 13.0101 10.3673 13.0232 10.3067 13.0484C10.2461 13.0737 10.1911 13.1106 10.1447 13.1572C10.0984 13.2037 10.0617 13.2589 10.0367 13.3196C10.0117 13.3803 9.99886 13.4453 9.99899 13.511C9.99913 13.5767 10.0122 13.6417 10.0374 13.7023C10.0627 13.7629 10.0996 13.8179 10.1461 13.8643C10.1927 13.9106 10.2479 13.9473 10.3086 13.9723C10.3693 13.9973 10.4343 14.0101 10.5 14.01H10.504L13 14.006V14.504C13 14.998 13.008 15.26 12.736 15.494C12.465 15.728 11.702 16.004 10 16.004C8.298 16.004 7.53501 15.728 7.26401 15.494C6.99201 15.26 7 14.998 7 14.504V12.49C7 12.018 7.26401 11.711 7.84601 11.373C8.42701 11.035 9.27701 10.754 10.152 10.473C11.028 10.191 11.927 9.91 12.658 9.483C13.39 9.054 14 8.39201 14 7.49001V5.496C14 5.002 13.992 4.267 13.389 3.748C12.785 3.228 11.799 2.996 10 2.996Z" fill="currentColor"/>
</svg>
