<svg width="20" height="20" viewBox="0 0 20 20" fill="none" xmlns="http://www.w3.org/2000/svg">
<path d="M14.159 3.01899C13.663 2.97399 13.12 3.17896 12.666 3.63196L10.916 5.38196C10.8694 5.42841 10.8325 5.48357 10.8073 5.54432C10.7821 5.60506 10.7691 5.6702 10.7691 5.73597C10.7691 5.80173 10.7821 5.86687 10.8073 5.92762C10.8325 5.98836 10.8694 6.04352 10.916 6.08997L13.916 9.08997C13.9624 9.13653 14.0176 9.17347 14.0784 9.19867C14.1391 9.22388 14.2042 9.23688 14.27 9.23688C14.3358 9.23688 14.4009 9.22388 14.4616 9.19867C14.5224 9.17347 14.5776 9.13653 14.624 9.08997L16.374 7.33997C16.827 6.88597 17.032 6.34299 16.987 5.84699C16.942 5.35099 16.682 4.94096 16.374 4.63196L15.374 3.63196C15.064 3.32396 14.654 3.06399 14.159 3.01899ZM9.76201 6.73597C9.63209 6.73783 9.50798 6.79019 9.416 6.88196L9.166 7.13196C9.11944 7.17841 9.0825 7.23357 9.0573 7.29432C9.03209 7.35506 9.0191 7.4202 9.0191 7.48597C9.0191 7.55173 9.03209 7.61687 9.0573 7.67762C9.0825 7.73836 9.11944 7.79352 9.166 7.83997L12.166 10.84C12.2124 10.8865 12.2676 10.9235 12.3284 10.9487C12.3891 10.9739 12.4542 10.9869 12.52 10.9869C12.5858 10.9869 12.6509 10.9739 12.7116 10.9487C12.7724 10.9235 12.8276 10.8865 12.874 10.84L13.124 10.59C13.1706 10.5435 13.2075 10.4884 13.2327 10.4276C13.2579 10.3669 13.2709 10.3017 13.2709 10.236C13.2709 10.1702 13.2579 10.1051 13.2327 10.0443C13.2075 9.98357 13.1706 9.92841 13.124 9.88196L10.124 6.88196C10.0765 6.8346 10.02 6.79724 9.95784 6.77216C9.89565 6.74708 9.82905 6.73478 9.76201 6.73597ZM8.51001 8.98194C8.38022 8.98538 8.25684 9.03919 8.166 9.13196L3.916 13.382C3.078 14.221 2.848 15.1399 3.114 15.8489C3.38 16.5589 4.062 16.986 4.77 16.986H9.02C10.02 16.986 11.02 16.188 11.02 14.986V11.486C11.02 11.3534 10.9673 11.2262 10.8735 11.1324C10.7798 11.0386 10.6526 10.986 10.52 10.986C10.3874 10.986 10.2602 11.0386 10.1665 11.1324C10.0727 11.2262 10.02 11.3534 10.02 11.486V14.986C10.02 15.651 9.516 15.986 9.02 15.986H4.77C4.61582 15.9828 4.46586 15.935 4.33826 15.8484C4.21065 15.7618 4.11089 15.6401 4.05101 15.498C3.94201 15.208 3.96101 14.751 4.62401 14.09L8.87401 9.83997C8.94619 9.76968 8.99546 9.67922 9.01535 9.58045C9.03524 9.48168 9.02484 9.37919 8.98549 9.28644C8.94614 9.19369 8.87968 9.11501 8.79483 9.06067C8.70998 9.00634 8.61071 8.97888 8.51001 8.98194Z" fill="currentColor"/>
</svg>
