<svg width="20" height="20" viewBox="0 0 20 20" fill="none" xmlns="http://www.w3.org/2000/svg">
<path d="M7.496 2.99301C7.43017 2.99301 7.36499 3.00601 7.3042 3.03126C7.2434 3.05651 7.18819 3.09352 7.14174 3.14016C7.09528 3.18681 7.05849 3.24216 7.03348 3.30306C7.00847 3.36395 6.99574 3.42918 6.996 3.49501L7.004 6.50301C7.00453 6.63527 7.05744 6.76194 7.15115 6.85527C7.24486 6.94861 7.37174 7.00101 7.504 7.00101H13.004V12.503C13.004 12.6356 13.0567 12.7628 13.1504 12.8566C13.2442 12.9503 13.3714 13.003 13.504 13.003H16.504C16.6366 13.003 16.7638 12.9503 16.8576 12.8566C16.9513 12.7628 17.004 12.6356 17.004 12.503V3.50301C17.004 3.3704 16.9513 3.24323 16.8576 3.14946C16.7638 3.05569 16.6366 3.00301 16.504 3.00301L7.496 2.99301ZM3.496 6.99701C3.36339 6.99701 3.23621 7.04969 3.14245 7.14346C3.04868 7.23723 2.996 7.3644 2.996 7.49701V16.497C2.996 16.6296 3.04868 16.7568 3.14245 16.8506C3.23621 16.9443 3.36339 16.997 3.496 16.997L12.504 17.007C12.5698 17.007 12.635 16.994 12.6958 16.9688C12.7566 16.9435 12.8118 16.9065 12.8583 16.8599C12.9047 16.8132 12.9415 16.7579 12.9665 16.697C12.9915 16.6361 13.0043 16.5708 13.004 16.505L12.996 13.499C12.996 13.3664 12.9433 13.2392 12.8496 13.1455C12.7558 13.0517 12.6286 12.999 12.496 12.999H6.996V7.49701C6.996 7.3644 6.94332 7.23723 6.84955 7.14346C6.75579 7.04969 6.62861 6.99701 6.496 6.99701H3.496Z" fill="currentColor"/>
</svg>
