<svg width="20" height="20" viewBox="0 0 20 20" fill="none" xmlns="http://www.w3.org/2000/svg">
<path d="M7.49399 6.98899C7.42799 6.98872 7.36263 7.00154 7.30161 7.02668C7.24058 7.05181 7.18513 7.08877 7.13846 7.13544C7.09179 7.18211 7.05483 7.23756 7.02969 7.29859C7.00456 7.35961 6.99171 7.425 6.99197 7.491L7.00003 12.497C7.00003 12.6296 7.05269 12.7568 7.14645 12.8506C7.24022 12.9443 7.36742 12.997 7.50003 12.997H12.5C12.6326 12.997 12.7598 12.9443 12.8535 12.8506C12.9473 12.7568 13 12.6296 13 12.497V7.499C13 7.36639 12.9473 7.23922 12.8535 7.14545C12.7598 7.05168 12.6326 6.999 12.5 6.999L7.49399 6.98899Z" fill="currentColor"/>
<path d="M7.00003 2.99899V3.00299H6.996V5.00299H7.996V3.99899H9.00003V2.99899H7.00003ZM11 2.99899V3.99899H13V2.99899H11ZM14.996 3.00299V4.00299H15.996V5.00299H17V2.99899L14.996 3.00299ZM16 6.99899V8.99899H17V6.99899H16ZM3 7.00098V9.00098H4.00003V8.00098H5.00003V7.00098H3ZM16 10.999V11.999H15V12.999H17V10.999H16ZM3 11.001V13.001H4.00003V11.001H3ZM3 15.001V17.001H5.00003V16.001H4.00003V15.001H3ZM12 15.001V16.001H11V17.001H13V15.001H12ZM7.00003 16.001V17.001H9.00003V16.001H7.00003Z" fill="currentColor"/>
</svg>
