<svg width="20" height="20" viewBox="0 0 20 20" fill="none" xmlns="http://www.w3.org/2000/svg">
<path d="M3 7.00598V9.00598H4V8.00598H5V7.00598H3ZM3 11.006V13.006H4V11.006H3ZM3 15.006V17.006H5V16.006H4V15.006H3ZM12 15.006V16.006H11V17.006H13V15.006H12ZM7 16.006V17.006H9V16.006H7Z" fill="currentColor"/>
<path d="M7.49201 2.99399C7.42618 2.99399 7.361 3.007 7.30021 3.03226C7.23941 3.05751 7.18419 3.0945 7.13773 3.14114C7.09127 3.18779 7.05449 3.24315 7.02948 3.30405C7.00447 3.36494 6.99175 3.43017 6.99201 3.496L7 7.50198C7 7.63459 7.05269 7.76179 7.14646 7.85556C7.24023 7.94933 7.3674 8.00198 7.5 8.00198H12V12.504C12 12.6366 12.0527 12.7638 12.1465 12.8575C12.2402 12.9513 12.3674 13.004 12.5 13.004H16.5C16.6326 13.004 16.7598 12.9513 16.8535 12.8575C16.9473 12.7638 17 12.6366 17 12.504V3.504C17 3.37139 16.9473 3.24422 16.8535 3.15045C16.7598 3.05668 16.6326 3.004 16.5 3.004L7.49201 2.99399Z" fill="currentColor"/>
</svg>
