<svg width="20" height="20" viewBox="0 0 20 20" fill="none" xmlns="http://www.w3.org/2000/svg">
<path d="M3.49199 2.992C3.3758 2.99439 3.26408 3.03717 3.17601 3.113C3.16921 3.11816 3.16252 3.1235 3.15599 3.12901C3.15019 3.13454 3.14449 3.1402 3.13896 3.146C3.13829 3.14733 3.13767 3.14867 3.13701 3.15001C3.12582 3.16083 3.1151 3.17218 3.10497 3.184C3.1043 3.185 3.10368 3.186 3.10302 3.187C3.09343 3.19924 3.08438 3.21192 3.07598 3.225C3.0753 3.22633 3.07462 3.22767 3.07396 3.229C3.00624 3.33337 2.97988 3.45923 2.99999 3.582V4.5C2.99999 4.63261 3.05264 4.75979 3.14641 4.85356C3.24018 4.94733 3.36738 5 3.49999 5C3.6326 5 3.7598 4.94733 3.85356 4.85356C3.94733 4.75979 3.99999 4.63261 3.99999 4.5V4H4.49999C4.6326 4 4.7598 3.94733 4.85356 3.85356C4.94733 3.75979 4.99999 3.63261 4.99999 3.5C4.99999 3.3674 4.94733 3.24022 4.85356 3.14645C4.7598 3.05268 4.6326 3 4.49999 3H3.58C3.55097 2.99475 3.5215 2.99207 3.49199 2.992ZM16.492 2.992C16.4672 2.99283 16.4425 2.9955 16.418 3H15.5C15.3674 3 15.2402 3.05268 15.1464 3.14645C15.0526 3.24022 15 3.3674 15 3.5C15 3.63261 15.0526 3.75979 15.1464 3.85356C15.2402 3.94733 15.3674 4 15.5 4H16V4.5C16 4.63261 16.0526 4.75979 16.1464 4.85356C16.2402 4.94733 16.3674 5 16.5 5C16.6326 5 16.7598 4.94733 16.8536 4.85356C16.9473 4.75979 17 4.63261 17 4.5V3.58001C17.0115 3.5085 17.0074 3.43534 16.9879 3.36558C16.9684 3.29583 16.934 3.23114 16.887 3.176C16.8864 3.17467 16.8857 3.17334 16.885 3.172C16.8752 3.16054 16.8648 3.14953 16.854 3.139C16.8527 3.13833 16.8513 3.13767 16.85 3.137C16.8391 3.12581 16.8278 3.11513 16.816 3.105C16.8146 3.10433 16.8133 3.10367 16.812 3.103C16.7214 3.03026 16.6082 2.99137 16.492 2.993V2.992ZM6.49999 3C6.36738 3 6.24018 3.05268 6.14641 3.14645C6.05264 3.24022 5.99999 3.3674 5.99999 3.5C5.99999 3.63261 6.05264 3.75979 6.14641 3.85356C6.24018 3.94733 6.36738 4 6.49999 4H7.49999C7.6326 4 7.7598 3.94733 7.85356 3.85356C7.94733 3.75979 7.99999 3.63261 7.99999 3.5C7.99999 3.3674 7.94733 3.24022 7.85356 3.14645C7.7598 3.05268 7.6326 3 7.49999 3H6.49999ZM9.49999 3C9.36738 3 9.24018 3.05268 9.14641 3.14645C9.05264 3.24022 8.99999 3.3674 8.99999 3.5C8.99999 3.63261 9.05264 3.75979 9.14641 3.85356C9.24018 3.94733 9.36738 4 9.49999 4H10.5C10.6326 4 10.7598 3.94733 10.8536 3.85356C10.9473 3.75979 11 3.63261 11 3.5C11 3.3674 10.9473 3.24022 10.8536 3.14645C10.7598 3.05268 10.6326 3 10.5 3H9.49999ZM12.5 3C12.3674 3 12.2402 3.05268 12.1464 3.14645C12.0526 3.24022 12 3.3674 12 3.5C12 3.63261 12.0526 3.75979 12.1464 3.85356C12.2402 3.94733 12.3674 4 12.5 4H13.5C13.6326 4 13.7598 3.94733 13.8536 3.85356C13.9473 3.75979 14 3.63261 14 3.5C14 3.3674 13.9473 3.24022 13.8536 3.14645C13.7598 3.05268 13.6326 3 13.5 3H12.5ZM3.49199 5.992C3.42633 5.99305 3.36152 6.00701 3.30126 6.03311C3.24099 6.0592 3.18642 6.09691 3.14073 6.14409C3.09505 6.19126 3.05911 6.24698 3.03496 6.30804C3.01081 6.36911 2.99893 6.43434 2.99999 6.5V7.5C2.99999 7.63261 3.05264 7.75979 3.14641 7.85356C3.24018 7.94733 3.36738 8 3.49999 8C3.6326 8 3.7598 7.94733 3.85356 7.85356C3.94733 7.75979 3.99999 7.63261 3.99999 7.5V6.5C4.00107 6.43299 3.9887 6.36645 3.96355 6.30433C3.9384 6.24221 3.90101 6.18578 3.85363 6.13839C3.80624 6.091 3.74979 6.05362 3.68767 6.02847C3.62555 6.00332 3.559 5.99092 3.49199 5.992ZM16.492 5.992C16.4263 5.99305 16.3615 6.00701 16.3013 6.03311C16.241 6.0592 16.1864 6.09691 16.1407 6.14409C16.095 6.19126 16.0591 6.24698 16.035 6.30804C16.0108 6.36911 15.9989 6.43434 16 6.5V7.5C16 7.63261 16.0526 7.75979 16.1464 7.85356C16.2402 7.94733 16.3674 8 16.5 8C16.6326 8 16.7598 7.94733 16.8536 7.85356C16.9473 7.75979 17 7.63261 17 7.5V6.5C17.0011 6.43299 16.9887 6.36645 16.9635 6.30433C16.9384 6.24221 16.901 6.18578 16.8536 6.13839C16.8062 6.091 16.7498 6.05362 16.6877 6.02847C16.6255 6.00332 16.559 5.99092 16.492 5.992ZM3.49199 8.992C3.42633 8.99305 3.36152 9.00701 3.30126 9.03311C3.24099 9.0592 3.18642 9.09691 3.14073 9.14409C3.09505 9.19126 3.05911 9.24698 3.03496 9.30804C3.01081 9.36911 2.99893 9.43434 2.99999 9.5V10.5C2.99999 10.6326 3.05264 10.7598 3.14641 10.8536C3.24018 10.9473 3.36738 11 3.49999 11C3.6326 11 3.7598 10.9473 3.85356 10.8536C3.94733 10.7598 3.99999 10.6326 3.99999 10.5V9.5C4.00107 9.43299 3.9887 9.36645 3.96355 9.30433C3.9384 9.24221 3.90101 9.18577 3.85363 9.13839C3.80624 9.091 3.74979 9.05362 3.68767 9.02847C3.62555 9.00332 3.559 8.99092 3.49199 8.992ZM16.492 8.992C16.4263 8.99305 16.3615 9.00701 16.3013 9.03311C16.241 9.0592 16.1864 9.09691 16.1407 9.14409C16.095 9.19126 16.0591 9.24698 16.035 9.30804C16.0108 9.36911 15.9989 9.43434 16 9.5V10.5C16 10.6326 16.0526 10.7598 16.1464 10.8536C16.2402 10.9473 16.3674 11 16.5 11C16.6326 11 16.7598 10.9473 16.8536 10.8536C16.9473 10.7598 17 10.6326 17 10.5V9.5C17.0011 9.43299 16.9887 9.36645 16.9635 9.30433C16.9384 9.24221 16.901 9.18577 16.8536 9.13839C16.8062 9.091 16.7498 9.05362 16.6877 9.02847C16.6255 9.00332 16.559 8.99092 16.492 8.992ZM3.49199 11.992C3.42633 11.993 3.36152 12.007 3.30126 12.0331C3.24099 12.0592 3.18642 12.0969 3.14073 12.1441C3.09505 12.1913 3.05911 12.247 3.03496 12.308C3.01081 12.3691 2.99893 12.4343 2.99999 12.5V13.5C2.99999 13.6326 3.05264 13.7598 3.14641 13.8536C3.24018 13.9473 3.36738 14 3.49999 14C3.6326 14 3.7598 13.9473 3.85356 13.8536C3.94733 13.7598 3.99999 13.6326 3.99999 13.5V12.5C4.00107 12.433 3.9887 12.3665 3.96355 12.3043C3.9384 12.2422 3.90101 12.1858 3.85363 12.1384C3.80624 12.091 3.74979 12.0536 3.68767 12.0285C3.62555 12.0033 3.559 11.9909 3.49199 11.992ZM16.492 11.992C16.4263 11.993 16.3615 12.007 16.3013 12.0331C16.241 12.0592 16.1864 12.0969 16.1407 12.1441C16.095 12.1913 16.0591 12.247 16.035 12.308C16.0108 12.3691 15.9989 12.4343 16 12.5V13.5C16 13.6326 16.0526 13.7598 16.1464 13.8536C16.2402 13.9473 16.3674 14 16.5 14C16.6326 14 16.7598 13.9473 16.8536 13.8536C16.9473 13.7598 17 13.6326 17 13.5V12.5C17.0011 12.433 16.9887 12.3665 16.9635 12.3043C16.9384 12.2422 16.901 12.1858 16.8536 12.1384C16.8062 12.091 16.7498 12.0536 16.6877 12.0285C16.6255 12.0033 16.559 11.9909 16.492 11.992ZM3.49199 14.992C3.42633 14.993 3.36152 15.007 3.30126 15.0331C3.24099 15.0592 3.18642 15.0969 3.14073 15.1441C3.09505 15.1913 3.05911 15.247 3.03496 15.308C3.01081 15.3691 2.99893 15.4343 2.99999 15.5V16.42C2.98844 16.4915 2.99256 16.5647 3.01207 16.6344C3.03158 16.7042 3.06599 16.7689 3.11296 16.824C3.11813 16.8308 3.12351 16.8375 3.12902 16.844C3.13455 16.8498 3.14018 16.8555 3.14598 16.861C3.14731 16.8617 3.14868 16.8623 3.15001 16.863C3.16084 16.8742 3.17218 16.8849 3.18401 16.895C3.18534 16.8957 3.18664 16.8963 3.18798 16.897C3.24275 16.9409 3.30613 16.9727 3.37401 16.9904C3.44189 17.0082 3.51273 17.0114 3.58196 17H4.49999C4.6326 17 4.7598 16.9473 4.85356 16.8536C4.94733 16.7598 4.99999 16.6326 4.99999 16.5C4.99999 16.3674 4.94733 16.2402 4.85356 16.1465C4.7598 16.0527 4.6326 16 4.49999 16H3.99999V15.5C4.00107 15.433 3.9887 15.3665 3.96355 15.3043C3.9384 15.2422 3.90101 15.1858 3.85363 15.1384C3.80624 15.091 3.74979 15.0536 3.68767 15.0285C3.62555 15.0033 3.559 14.9909 3.49199 14.992ZM16.492 14.992C16.4263 14.993 16.3615 15.007 16.3013 15.0331C16.241 15.0592 16.1864 15.0969 16.1407 15.1441C16.095 15.1913 16.0591 15.247 16.035 15.308C16.0108 15.3691 15.9989 15.4343 16 15.5V16H15.5C15.3674 16 15.2402 16.0527 15.1464 16.1465C15.0526 16.2402 15 16.3674 15 16.5C15 16.6326 15.0526 16.7598 15.1464 16.8536C15.2402 16.9473 15.3674 17 15.5 17H16.42C16.4915 17.0116 16.5646 17.0074 16.6344 16.9879C16.7041 16.9684 16.7688 16.934 16.824 16.887C16.8253 16.8863 16.8267 16.8857 16.828 16.885C16.8395 16.8749 16.8505 16.8642 16.861 16.853C16.8617 16.852 16.8623 16.851 16.863 16.85C16.8742 16.8392 16.8849 16.8278 16.895 16.816C16.8957 16.8147 16.8963 16.8133 16.897 16.812C16.9408 16.7572 16.9727 16.6938 16.9904 16.626C17.0082 16.5581 17.0114 16.4872 17 16.418V15.5C17.0011 15.433 16.9887 15.3665 16.9635 15.3043C16.9384 15.2422 16.901 15.1858 16.8536 15.1384C16.8062 15.091 16.7498 15.0536 16.6877 15.0285C16.6255 15.0033 16.559 14.9909 16.492 14.992ZM6.49999 16C6.36738 16 6.24018 16.0527 6.14641 16.1465C6.05264 16.2402 5.99999 16.3674 5.99999 16.5C5.99999 16.6326 6.05264 16.7598 6.14641 16.8536C6.24018 16.9473 6.36738 17 6.49999 17H7.49999C7.6326 17 7.7598 16.9473 7.85356 16.8536C7.94733 16.7598 7.99999 16.6326 7.99999 16.5C7.99999 16.3674 7.94733 16.2402 7.85356 16.1465C7.7598 16.0527 7.6326 16 7.49999 16H6.49999ZM9.49999 16C9.36738 16 9.24018 16.0527 9.14641 16.1465C9.05264 16.2402 8.99999 16.3674 8.99999 16.5C8.99999 16.6326 9.05264 16.7598 9.14641 16.8536C9.24018 16.9473 9.36738 17 9.49999 17H10.5C10.6326 17 10.7598 16.9473 10.8536 16.8536C10.9473 16.7598 11 16.6326 11 16.5C11 16.3674 10.9473 16.2402 10.8536 16.1465C10.7598 16.0527 10.6326 16 10.5 16H9.49999ZM12.5 16C12.3674 16 12.2402 16.0527 12.1464 16.1465C12.0526 16.2402 12 16.3674 12 16.5C12 16.6326 12.0526 16.7598 12.1464 16.8536C12.2402 16.9473 12.3674 17 12.5 17H13.5C13.6326 17 13.7598 16.9473 13.8536 16.8536C13.9473 16.7598 14 16.6326 14 16.5C14 16.3674 13.9473 16.2402 13.8536 16.1465C13.7598 16.0527 13.6326 16 13.5 16H12.5Z" fill="currentColor"/>
<path d="M10.508 14.008C10.6406 14.008 10.7678 13.9553 10.8616 13.8615C10.9553 13.7678 11.008 13.6406 11.008 13.508V11.508C11.008 11.3754 10.9553 11.2482 10.8616 11.1544C10.7678 11.0607 10.6406 11.008 10.508 11.008L5.508 11.008C5.37539 11.008 5.24821 11.0607 5.15445 11.1544C5.06068 11.2482 5.008 11.3754 5.008 11.508V13.508C5.008 13.6406 5.06068 13.7678 5.15445 13.8615C5.24821 13.9553 5.37539 14.008 5.508 14.008L10.508 14.008ZM14.508 9.008C14.6406 9.008 14.7678 8.95532 14.8616 8.86155C14.9553 8.76778 15.008 8.6406 15.008 8.508L15.008 6.508C15.008 6.37539 14.9553 6.24821 14.8616 6.15444C14.7678 6.06067 14.6406 6.008 14.508 6.008L7.508 6.008C7.37539 6.008 7.24821 6.06067 7.15445 6.15444C7.06068 6.24821 7.008 6.37539 7.008 6.508L7.008 8.508C7.008 8.6406 7.06068 8.76778 7.15445 8.86155C7.24821 8.95532 7.37539 9.008 7.508 9.008H14.508Z" fill="currentColor"/>
</svg>
