<svg width="20" height="20" viewBox="0 0 20 20" fill="none" xmlns="http://www.w3.org/2000/svg">
<path d="M9.5 3.00001C9.41624 2.99959 9.33371 3.02022 9.26 3.06001L3.76 6.06001C3.68109 6.10318 3.61529 6.16684 3.56954 6.24428C3.52378 6.32171 3.49976 6.41006 3.5 6.50001V13.5C3.49976 13.59 3.52378 13.6783 3.56954 13.7557C3.61529 13.8332 3.68109 13.8968 3.76 13.94L9.26 16.94C9.33371 16.9798 9.41624 17.0004 9.5 17H10.5C10.5838 17.0004 10.6663 16.9798 10.74 16.94L16.24 13.94C16.3189 13.8968 16.3847 13.8332 16.4305 13.7557C16.4762 13.6783 16.5002 13.59 16.5 13.5V6.50001C16.5002 6.41006 16.4762 6.32171 16.4305 6.24428C16.3847 6.16684 16.3189 6.10318 16.24 6.06001L10.74 3.06001C10.6663 3.02022 10.5838 2.99959 10.5 3.00001H9.5ZM9.883 5.00001H10.123L14.5 7.39001V12.61L10.117 15H9.883L5.5 12.61V7.39001L9.883 5.00001Z" fill="currentColor"/>
</svg>
