<svg width="20" height="20" viewBox="0 0 20 20" fill="none" xmlns="http://www.w3.org/2000/svg">
<path d="M14.98 2.50398C14.9393 2.50574 14.899 2.51247 14.86 2.524L13.496 2.912L13.506 4.95198L15.136 4.48402C15.2399 4.45373 15.3311 4.39058 15.396 4.30403C15.4609 4.21748 15.496 4.11216 15.496 4.00398V3.00398C15.496 2.93695 15.4826 2.87064 15.4565 2.80891C15.4303 2.74718 15.3921 2.69131 15.3439 2.64466C15.2958 2.59802 15.2388 2.56153 15.1762 2.53737C15.1137 2.5132 15.047 2.50183 14.98 2.50398ZM12.496 3.19801L10.496 3.76802L10.506 5.808L12.506 5.235L12.496 3.19801ZM9.49599 4.05403L7.859 4.52198C7.75458 4.55173 7.66268 4.61465 7.59719 4.70124C7.5317 4.78784 7.49618 4.89345 7.49599 5.00203V6.00203C7.49597 6.0794 7.51391 6.15566 7.54839 6.22493C7.58287 6.29419 7.63295 6.35451 7.69469 6.40113C7.75644 6.44776 7.82816 6.47946 7.90421 6.49366C7.98027 6.50787 8.05858 6.50418 8.13299 6.48298L9.50199 6.09297L9.49599 4.05403ZM7.49599 9.498V10.498L15.996 10.508C16.1286 10.508 16.2558 10.4553 16.3495 10.3615C16.4433 10.2678 16.496 10.1406 16.496 10.008C16.496 9.8754 16.4433 9.7482 16.3495 9.65443C16.2558 9.56066 16.1286 9.50801 15.996 9.50801L7.49599 9.498ZM4.49599 11.504V16.996C4.49599 17.1286 4.54868 17.2558 4.64245 17.3496C4.73622 17.4433 4.86339 17.496 4.99599 17.496H15.996C16.1286 17.496 16.2558 17.4433 16.3495 17.3496C16.4433 17.2558 16.496 17.1286 16.496 16.996V12.004C16.496 11.8714 16.4433 11.7442 16.3495 11.6505C16.2558 11.5567 16.1286 11.504 15.996 11.504H4.49599Z" fill="currentColor"/>
<path d="M4.00406 5.49594C3.87145 5.49594 3.74419 5.54866 3.65042 5.64243C3.55665 5.73619 3.50406 5.86333 3.50406 5.99594V9.99594C3.50406 10.1285 3.55665 10.2558 3.65042 10.3496C3.74419 10.4433 3.87145 10.4959 4.00406 10.4959H6.00406C6.13666 10.4959 6.2638 10.4433 6.35757 10.3496C6.45134 10.2558 6.50406 10.1285 6.50406 9.99594V5.99594C6.50406 5.86333 6.45134 5.73619 6.35757 5.64243C6.2638 5.54866 6.13666 5.49594 6.00406 5.49594H4.00406ZM4.50406 6.49594H5.50406V9.49594H4.50406V6.49594Z" fill="currentColor"/>
</svg>
