<svg width="20" height="20" viewBox="0 0 20 20" fill="none" xmlns="http://www.w3.org/2000/svg">
<path d="M10 3C6.14 3 3 6.14 3 10C3 13.86 6.14 17 10 17C13.86 17 17 13.86 17 10C17 6.14 13.86 3 10 3ZM10 4C13.32 4 16 6.68 16 10C16 13.32 13.32 16 10 16C6.68 16 4 13.32 4 10C4 6.68 6.68 4 10 4Z" fill="currentColor"/>
<path d="M9.129 4.96702C9.07245 4.96992 9.01625 4.9776 8.961 4.99C7.97988 5.194 7.08014 5.68133 6.37323 6.39162C5.66633 7.1019 5.18333 8.00392 4.98401 8.98601C4.95794 9.11477 4.95748 9.24742 4.98267 9.37636C5.00786 9.50529 5.05822 9.62799 5.13083 9.73747C5.20345 9.84695 5.2969 9.94106 5.40589 10.0144C5.51487 10.0878 5.63723 10.139 5.76599 10.165C5.89475 10.1911 6.02741 10.1915 6.15634 10.1663C6.28528 10.1411 6.40798 10.0908 6.51746 10.0182C6.62694 9.94559 6.72105 9.8521 6.79441 9.74312C6.86776 9.63413 6.91894 9.51177 6.94501 9.38301C7.06519 8.78434 7.35894 8.2343 7.78964 7.80147C8.22035 7.36863 8.76894 7.07216 9.36701 6.94902C9.61746 6.90323 9.841 6.76361 9.99207 6.55867C10.1431 6.35373 10.2103 6.09887 10.18 5.84608C10.1496 5.5933 10.024 5.36161 9.82871 5.19826C9.63341 5.03491 9.38317 4.95222 9.129 4.96702Z" fill="currentColor"/>
<path d="M14.496 8.09601C14.4163 8.09574 14.3383 8.1193 14.272 8.16367C14.2058 8.20804 14.1543 8.2712 14.1242 8.34503C14.0941 8.41887 14.0867 8.50003 14.1031 8.57807C14.1195 8.65611 14.1588 8.72745 14.216 8.78299L16.216 10.783C16.291 10.8582 16.3929 10.9005 16.4991 10.9006C16.6054 10.9007 16.7073 10.8586 16.7825 10.7835C16.8577 10.7085 16.9 10.6066 16.9001 10.5004C16.9002 10.3941 16.858 10.2922 16.783 10.217L14.783 8.21701C14.7457 8.17868 14.701 8.1482 14.6517 8.12741C14.6025 8.10663 14.5495 8.09596 14.496 8.09601ZM13.746 10.346C13.6663 10.3457 13.5883 10.3693 13.522 10.4137C13.4558 10.458 13.4043 10.5212 13.3742 10.595C13.3441 10.6689 13.3367 10.75 13.3531 10.8281C13.3695 10.9061 13.4088 10.9775 13.466 11.033L15.466 13.033C15.5032 13.0702 15.5473 13.0998 15.5959 13.1199C15.6445 13.1401 15.6965 13.1505 15.7491 13.1506C15.8017 13.1506 15.8538 13.1403 15.9025 13.1202C15.9511 13.1001 15.9953 13.0707 16.0325 13.0335C16.0697 12.9963 16.0993 12.9522 16.1194 12.9036C16.1396 12.855 16.15 12.803 16.1501 12.7504C16.1501 12.6978 16.1398 12.6457 16.1197 12.597C16.0996 12.5484 16.0701 12.5042 16.033 12.467L14.033 10.467C13.9957 10.4287 13.951 10.3982 13.9017 10.3774C13.8525 10.3566 13.7995 10.346 13.746 10.346ZM12.496 12.096C12.4163 12.0957 12.3383 12.1193 12.272 12.1637C12.2058 12.208 12.1543 12.2712 12.1242 12.345C12.0941 12.4189 12.0867 12.5 12.1031 12.5781C12.1195 12.6561 12.1588 12.7275 12.216 12.783L14.216 14.783C14.2532 14.8202 14.2973 14.8498 14.3459 14.8699C14.3945 14.8901 14.4465 14.9005 14.4991 14.9006C14.5517 14.9006 14.6038 14.8903 14.6525 14.8702C14.7011 14.8501 14.7453 14.8207 14.7825 14.7835C14.8197 14.7463 14.8493 14.7022 14.8694 14.6536C14.8896 14.605 14.9 14.553 14.9001 14.5004C14.9001 14.4478 14.8898 14.3957 14.8697 14.347C14.8496 14.2984 14.8201 14.2542 14.783 14.217L12.783 12.217C12.7457 12.1787 12.701 12.1482 12.6517 12.1274C12.6025 12.1066 12.5495 12.096 12.496 12.096ZM10.746 13.346C10.6663 13.3457 10.5883 13.3693 10.522 13.4137C10.4558 13.458 10.4043 13.5212 10.3742 13.595C10.3441 13.6689 10.3367 13.75 10.3531 13.8281C10.3695 13.9061 10.4088 13.9775 10.466 14.033L12.466 16.033C12.5032 16.0702 12.5473 16.0998 12.5959 16.1199C12.6445 16.1401 12.6965 16.1505 12.7491 16.1506C12.8017 16.1506 12.8538 16.1403 12.9025 16.1202C12.9511 16.1001 12.9953 16.0707 13.0325 16.0335C13.0697 15.9963 13.0993 15.9522 13.1194 15.9036C13.1396 15.855 13.15 15.803 13.1501 15.7504C13.1501 15.6978 13.1398 15.6457 13.1197 15.597C13.0996 15.5484 13.0701 15.5042 13.033 15.467L11.033 13.467C10.9957 13.4287 10.951 13.3982 10.9017 13.3774C10.8525 13.3566 10.7995 13.346 10.746 13.346ZM8.51 14.096C8.42679 14.0928 8.34463 14.1156 8.27501 14.1613C8.20539 14.2069 8.15176 14.2732 8.1216 14.3508C8.09143 14.4284 8.08623 14.5135 8.10674 14.5942C8.12724 14.6749 8.17242 14.7472 8.23598 14.801L10.236 16.551C10.2755 16.5857 10.3215 16.6122 10.3713 16.6291C10.421 16.646 10.4737 16.6529 10.5261 16.6495C10.5786 16.6461 10.6299 16.6324 10.677 16.6091C10.7242 16.5859 10.7663 16.5535 10.801 16.514C10.8356 16.4745 10.8622 16.4285 10.8791 16.3787C10.896 16.3289 10.9029 16.2763 10.8995 16.2238C10.8961 16.1714 10.8823 16.1201 10.8591 16.0729C10.8358 16.0258 10.8035 15.9837 10.764 15.949L8.76399 14.199C8.6941 14.1358 8.60415 14.0994 8.51 14.096Z" fill="currentColor"/>
</svg>
