<svg width="20" height="20" viewBox="0 0 20 20" fill="none" xmlns="http://www.w3.org/2000/svg">
<path d="M3.496 2.996C3.36339 2.996 3.23621 3.04868 3.14245 3.14245C3.04868 3.23622 2.996 3.36339 2.996 3.496V7.496C2.996 7.62861 3.04868 7.75579 3.14245 7.84956C3.23621 7.94332 3.36339 7.996 3.496 7.996C3.62861 7.996 3.75578 7.94332 3.84955 7.84956C3.94332 7.75579 3.996 7.62861 3.996 7.496V3.996H7.496C7.62861 3.996 7.75578 3.94332 7.84955 3.84956C7.94332 3.75579 7.996 3.62861 7.996 3.496C7.996 3.36339 7.94332 3.23622 7.84955 3.14245C7.75578 3.04868 7.62861 2.996 7.496 2.996H3.496ZM12.504 2.996C12.3714 2.996 12.2442 3.04868 12.1504 3.14245C12.0567 3.23622 12.004 3.36339 12.004 3.496C12.004 3.62861 12.0567 3.75579 12.1504 3.84956C12.2442 3.94332 12.3714 3.996 12.504 3.996H16.004V7.496C16.004 7.62861 16.0567 7.75579 16.1504 7.84956C16.2442 7.94332 16.3714 7.996 16.504 7.996C16.6366 7.996 16.7638 7.94332 16.8576 7.84956C16.9513 7.75579 17.004 7.62861 17.004 7.496V3.496C17.004 3.36339 16.9513 3.23622 16.8576 3.14245C16.7638 3.04868 16.6366 2.996 16.504 2.996H12.504ZM3.488 11.996C3.42233 11.997 3.35752 12.011 3.29726 12.0371C3.23699 12.0632 3.18246 12.1009 3.13677 12.1481C3.09108 12.1953 3.05513 12.251 3.03098 12.312C3.00683 12.3731 2.99494 12.4383 2.996 12.504V16.504C2.996 16.6366 3.04868 16.7638 3.14245 16.8576C3.23621 16.9513 3.36339 17.004 3.496 17.004H7.496C7.62861 17.004 7.75578 16.9513 7.84955 16.8576C7.94332 16.7638 7.996 16.6366 7.996 16.504C7.996 16.3714 7.94332 16.2442 7.84955 16.1504C7.75578 16.0567 7.62861 16.004 7.496 16.004H3.996V12.504C3.99708 12.437 3.98468 12.3704 3.95953 12.3083C3.93438 12.2462 3.89701 12.1898 3.84962 12.1424C3.80223 12.095 3.7458 12.0576 3.68367 12.0325C3.62155 12.0073 3.55501 11.9949 3.488 11.996ZM16.496 11.996C16.4303 11.997 16.3655 12.011 16.3053 12.0371C16.245 12.0632 16.1905 12.1009 16.1448 12.1481C16.0991 12.1953 16.0631 12.251 16.039 12.312C16.0148 12.3731 16.0029 12.4383 16.004 12.504V16.004H12.504C12.3714 16.004 12.2442 16.0567 12.1504 16.1504C12.0567 16.2442 12.004 16.3714 12.004 16.504C12.004 16.6366 12.0567 16.7638 12.1504 16.8576C12.2442 16.9513 12.3714 17.004 12.504 17.004H16.504C16.6366 17.004 16.7638 16.9513 16.8576 16.8576C16.9513 16.7638 17.004 16.6366 17.004 16.504V12.504C17.0051 12.437 16.9927 12.3704 16.9675 12.3083C16.9424 12.2462 16.905 12.1898 16.8576 12.1424C16.8102 12.095 16.7538 12.0576 16.6917 12.0325C16.6296 12.0073 16.563 11.9949 16.496 11.996Z" fill="currentColor"/>
</svg>
