<svg width="20" height="20" viewBox="0 0 20 20" fill="none" xmlns="http://www.w3.org/2000/svg">
<path d="M10 3.5C6.41 3.5 3.5 5.91 3.5 9.5C4.5 10.5 6.5 12 10 12V3.5Z" fill="currentColor"/>
<path d="M10 3C6.14 3 3 6.14 3 10C3 13.86 6.14 17 10 17C13.86 17 17 13.86 17 10C17 6.14 13.86 3 10 3ZM10 4C13.32 4 16 6.68 16 10C16 13.32 13.32 16 10 16C6.68 16 4 13.32 4 10C4 6.68 6.68 4 10 4Z" fill="currentColor"/>
<path d="M15.244 10.645C15.1249 10.6453 15.0085 10.681 14.9098 10.7477C14.8111 10.8143 14.7344 10.9088 14.6896 11.0192C14.6448 11.1295 14.6338 11.2507 14.6581 11.3674C14.6824 11.484 14.7408 11.5907 14.826 11.674L15.326 12.174C15.3809 12.2329 15.4472 12.2802 15.5208 12.313C15.5944 12.3458 15.6738 12.3634 15.7544 12.3649C15.8349 12.3663 15.915 12.3515 15.9897 12.3213C16.0644 12.2911 16.1323 12.2462 16.1892 12.1892C16.2462 12.1322 16.2911 12.0644 16.3213 11.9897C16.3515 11.915 16.3663 11.8349 16.3649 11.7544C16.3635 11.6738 16.3458 11.5944 16.313 11.5208C16.2802 11.4472 16.233 11.3809 16.174 11.326L15.674 10.826C15.618 10.7686 15.5512 10.7231 15.4773 10.692C15.4035 10.6609 15.3241 10.6449 15.244 10.645ZM12.994 11.395C12.8749 11.3953 12.7585 11.431 12.6598 11.4977C12.5611 11.5643 12.4844 11.6588 12.4396 11.7692C12.3948 11.8795 12.3838 12.0007 12.4081 12.1174C12.4324 12.234 12.4908 12.3407 12.576 12.424L14.326 14.174C14.3809 14.2329 14.4472 14.2802 14.5208 14.313C14.5944 14.3458 14.6738 14.3634 14.7544 14.3649C14.8349 14.3663 14.915 14.3515 14.9897 14.3213C15.0644 14.2911 15.1323 14.2462 15.1892 14.1892C15.2462 14.1322 15.2911 14.0644 15.3213 13.9897C15.3515 13.915 15.3663 13.8349 15.3649 13.7544C15.3635 13.6738 15.3458 13.5944 15.313 13.5208C15.2802 13.4472 15.233 13.3809 15.174 13.326L13.424 11.576C13.368 11.5186 13.3012 11.4731 13.2273 11.442C13.1535 11.4109 13.0741 11.3949 12.994 11.395ZM10.494 11.895C10.3749 11.8953 10.2585 11.931 10.1598 11.9977C10.0611 12.0643 9.98442 12.1588 9.93959 12.2692C9.89476 12.3795 9.88379 12.5007 9.90808 12.6174C9.93237 12.734 9.99083 12.8407 10.076 12.924L12.826 15.674C12.8809 15.7329 12.9472 15.7802 13.0208 15.813C13.0944 15.8458 13.1738 15.8634 13.2544 15.8649C13.3349 15.8663 13.415 15.8515 13.4897 15.8213C13.5644 15.7911 13.6323 15.7462 13.6892 15.6892C13.7462 15.6322 13.7911 15.5644 13.8213 15.4897C13.8515 15.415 13.8663 15.3349 13.8649 15.2544C13.8635 15.1738 13.8458 15.0944 13.813 15.0208C13.7802 14.9472 13.733 14.8809 13.674 14.826L10.924 12.076C10.868 12.0186 10.8012 11.9731 10.7273 11.942C10.6535 11.9109 10.5741 11.8949 10.494 11.895ZM10.494 14.895C10.3749 14.8953 10.2585 14.931 10.1598 14.9977C10.0611 15.0643 9.98442 15.1588 9.93959 15.2692C9.89476 15.3795 9.88379 15.5007 9.90808 15.6174C9.93237 15.734 9.99083 15.8407 10.076 15.924L10.826 16.674C10.8809 16.7329 10.9472 16.7802 11.0208 16.813C11.0944 16.8458 11.1738 16.8634 11.2544 16.8649C11.3349 16.8663 11.415 16.8515 11.4897 16.8213C11.5644 16.7911 11.6323 16.7462 11.6892 16.6892C11.7462 16.6322 11.7911 16.5644 11.8213 16.4897C11.8515 16.415 11.8663 16.3349 11.8649 16.2544C11.8635 16.1738 11.8458 16.0944 11.813 16.0208C11.7802 15.9472 11.733 15.8809 11.674 15.826L10.924 15.076C10.868 15.0186 10.8012 14.9731 10.7273 14.942C10.6535 14.9109 10.5741 14.8949 10.494 14.895Z" fill="currentColor"/>
</svg>
