<svg width="20" height="20" viewBox="0 0 20 20" fill="none" xmlns="http://www.w3.org/2000/svg">
<path d="M10 3C6.14 3 3 6.14 3 10C3 13.86 6.14 17 10 17C13.86 17 17 13.86 17 10C17 6.14 13.86 3 10 3ZM10 4C13.32 4 16 6.68 16 10C16 13.32 13.32 16 10 16C6.68 16 4 13.32 4 10C4 6.68 6.68 4 10 4Z" fill="currentColor"/>
<path d="M9.98399 3.24399C9.91112 3.24702 9.83979 3.26595 9.77501 3.29947C9.71023 3.33298 9.65356 3.38026 9.60899 3.43799C8.90299 4.32099 8.43999 5.43399 8.19899 6.99999H4.24998C3.57398 6.98999 3.57398 8.00999 4.24998 7.99999H8.08198C8.02587 8.66517 7.99851 9.33246 7.99998 9.99999C7.99998 10.737 8.02998 11.394 8.08198 12H4.24998C3.57398 11.99 3.57398 13.01 4.24998 13H8.19999C8.43999 14.566 8.90297 15.68 9.60997 16.563C9.69298 16.6664 9.8137 16.7326 9.94554 16.7471C10.0774 16.7615 10.2095 16.723 10.313 16.64C10.4164 16.557 10.4826 16.4363 10.4971 16.3044C10.5115 16.1726 10.473 16.0404 10.39 15.937C9.825 15.231 9.42697 14.341 9.20497 13H15.75C16.426 13.01 16.426 11.99 15.75 12H9.08198C9.02498 11.3349 8.99762 10.6675 8.99998 9.99999C8.99998 9.24699 9.02998 8.58999 9.08198 7.99999H15.75C16.426 8.00999 16.426 6.98999 15.75 6.99999H9.20497C9.42697 5.65899 9.82497 4.76999 10.391 4.06199C10.4526 3.98745 10.4912 3.89666 10.5022 3.8006C10.5133 3.70455 10.4962 3.60736 10.4532 3.5208C10.4101 3.43423 10.3429 3.36202 10.2596 3.31289C10.1763 3.26376 10.0806 3.23983 9.98399 3.24399Z" fill="currentColor"/>
</svg>
