<svg width="20" height="20" viewBox="0 0 20 20" fill="none" xmlns="http://www.w3.org/2000/svg">
<path d="M10.488 8.00401C10.3581 8.00587 10.234 8.05823 10.142 8.15001L8.996 9.29704L10.703 11.004L11.85 9.85802C11.8966 9.81157 11.9335 9.75641 11.9587 9.69567C11.9839 9.63492 11.9969 9.56978 11.9969 9.50401C11.9969 9.43825 11.9839 9.37311 11.9587 9.31236C11.9335 9.25162 11.8966 9.19646 11.85 9.15001L10.85 8.15001C10.8025 8.10264 10.746 8.06529 10.6838 8.04021C10.6216 8.01513 10.5551 8.00283 10.488 8.00401ZM8.28903 10.004L3.142 15.15C3.09544 15.1965 3.0585 15.2516 3.03329 15.3124C3.00809 15.3731 2.99509 15.4382 2.99509 15.504C2.99509 15.5698 3.00809 15.6349 3.03329 15.6957C3.0585 15.7564 3.09544 15.8116 3.142 15.858L4.142 16.858C4.18844 16.9046 4.24361 16.9415 4.30435 16.9667C4.3651 16.9919 4.43023 17.0049 4.496 17.0049C4.56177 17.0049 4.62691 16.9919 4.68765 16.9667C4.7484 16.9415 4.80356 16.9046 4.85001 16.858L9.996 11.711L8.28903 10.004Z" fill="currentColor"/>
<path d="M6.48801 2.99601C6.42234 2.99705 6.35754 3.01099 6.29727 3.03708C6.23701 3.06318 6.18244 3.10093 6.13675 3.14811C6.09106 3.19528 6.05513 3.25098 6.03098 3.31205C6.00682 3.37311 5.99494 3.43834 5.996 3.504V5.004H4.496C4.36339 5.004 4.23619 5.05666 4.14243 5.15043C4.04866 5.24419 3.996 5.37139 3.996 5.504C3.996 5.63661 4.04866 5.76381 4.14243 5.85758C4.23619 5.95135 4.36339 6.004 4.496 6.004H5.996V7.504C5.996 7.63661 6.04866 7.76381 6.14243 7.85758C6.23619 7.95135 6.36339 8.004 6.496 8.004C6.62861 8.004 6.75581 7.95135 6.84958 7.85758C6.94335 7.76381 6.996 7.63661 6.996 7.504V6.004H8.496C8.62861 6.004 8.75581 5.95135 8.84958 5.85758C8.94335 5.76381 8.996 5.63661 8.996 5.504C8.996 5.37139 8.94335 5.24419 8.84958 5.15043C8.75581 5.05666 8.62861 5.004 8.496 5.004H6.996V3.504C6.99708 3.43699 6.98471 3.37045 6.95956 3.30832C6.93442 3.2462 6.89703 3.18976 6.84964 3.14237C6.80225 3.09498 6.74581 3.05759 6.68369 3.03244C6.62156 3.0073 6.55502 2.99493 6.48801 2.99601ZM14.488 3.49601C14.4223 3.49705 14.3575 3.51099 14.2973 3.53708C14.237 3.56318 14.1824 3.60093 14.1367 3.64811C14.0911 3.69528 14.0551 3.75098 14.031 3.81205C14.0068 3.87312 13.9949 3.93834 13.996 4.004V5.004H12.996C12.8634 5.004 12.7362 5.05666 12.6424 5.15043C12.5487 5.24419 12.496 5.37139 12.496 5.504C12.496 5.63661 12.5487 5.76381 12.6424 5.85758C12.7362 5.95135 12.8634 6.004 12.996 6.004H13.996V7.004C13.996 7.13661 14.0487 7.26381 14.1424 7.35758C14.2362 7.45135 14.3634 7.504 14.496 7.504C14.6286 7.504 14.7558 7.45135 14.8496 7.35758C14.9433 7.26381 14.996 7.13661 14.996 7.004V6.004H15.996C16.1286 6.004 16.2558 5.95135 16.3496 5.85758C16.4433 5.76381 16.496 5.63661 16.496 5.504C16.496 5.37139 16.4433 5.24419 16.3496 5.15043C16.2558 5.05666 16.1286 5.004 15.996 5.004H14.996V4.004C14.9971 3.93699 14.9847 3.87045 14.9596 3.80832C14.9344 3.7462 14.897 3.68976 14.8496 3.64237C14.8023 3.59498 14.7458 3.55759 14.6837 3.53244C14.6216 3.5073 14.555 3.49493 14.488 3.49601ZM14.488 10.996C14.4223 10.997 14.3575 11.011 14.2973 11.0371C14.237 11.0632 14.1824 11.1009 14.1367 11.1481C14.0911 11.1953 14.0551 11.251 14.031 11.312C14.0068 11.3731 13.9949 11.4383 13.996 11.504V13.004H12.496C12.3634 13.004 12.2362 13.0567 12.1424 13.1504C12.0487 13.2442 11.996 13.3714 11.996 13.504C11.996 13.6366 12.0487 13.7638 12.1424 13.8576C12.2362 13.9513 12.3634 14.004 12.496 14.004H13.996V15.504C13.996 15.6366 14.0487 15.7638 14.1424 15.8576C14.2362 15.9513 14.3634 16.004 14.496 16.004C14.6286 16.004 14.7558 15.9513 14.8496 15.8576C14.9433 15.7638 14.996 15.6366 14.996 15.504V14.004H16.496C16.6286 14.004 16.7558 13.9513 16.8496 13.8576C16.9433 13.7638 16.996 13.6366 16.996 13.504C16.996 13.3714 16.9433 13.2442 16.8496 13.1504C16.7558 13.0567 16.6286 13.004 16.496 13.004H14.996V11.504C14.9971 11.437 14.9847 11.3704 14.9596 11.3083C14.9344 11.2462 14.897 11.1898 14.8496 11.1424C14.8023 11.095 14.7458 11.0576 14.6837 11.0324C14.6216 11.0073 14.555 10.9949 14.488 10.996Z" fill="currentColor"/>
</svg>
