<svg width="20" height="20" viewBox="0 0 20 20" fill="none" xmlns="http://www.w3.org/2000/svg">
<path d="M9.98 4.99701C9.86924 5.00165 9.76316 5.04297 9.67845 5.11447C9.59373 5.18597 9.53518 5.2836 9.512 5.39201C8.778 8.81701 7.044 12.88 3.832 14.027C3.7677 14.0471 3.70813 14.0799 3.65685 14.1236C3.60557 14.1673 3.56364 14.2209 3.53358 14.2811C3.50352 14.3414 3.48595 14.4072 3.48192 14.4744C3.4779 14.5416 3.4875 14.609 3.51015 14.6724C3.5328 14.7359 3.56803 14.7941 3.61373 14.8435C3.65944 14.893 3.71466 14.9327 3.7761 14.9604C3.83754 14.988 3.90393 15.0029 3.97127 15.0042C4.03861 15.0055 4.10553 14.9932 4.168 14.968C7.362 13.828 9.068 10.509 10 7.34801C10.932 10.509 12.638 13.828 15.832 14.968C15.8945 14.9932 15.9614 15.0055 16.0287 15.0042C16.0961 15.0029 16.1625 14.988 16.2239 14.9604C16.2853 14.9327 16.3406 14.893 16.3863 14.8435C16.432 14.7941 16.4672 14.7359 16.4899 14.6724C16.5125 14.609 16.5221 14.5416 16.5181 14.4744C16.514 14.4072 16.4965 14.3414 16.4664 14.2811C16.4364 14.2209 16.3944 14.1673 16.3432 14.1236C16.2919 14.0799 16.2323 14.0471 16.168 14.027C12.956 12.88 11.222 8.81701 10.488 5.39201C10.4634 5.2769 10.3989 5.17418 10.306 5.10193C10.2131 5.02967 10.0976 4.99252 9.98 4.99701Z" fill="currentColor"/>
</svg>
