<svg width="20" height="20" viewBox="0 0 20 20" fill="none" xmlns="http://www.w3.org/2000/svg">
<path d="M15.992 7.5H16.992V8.5H15.992V7.5ZM15.992 4.5H16.992V5.5H15.992V4.5ZM7.992 7.5H8.992V8.5H7.992V7.5ZM7.992 10.5H8.992V11.5H7.992V10.5ZM7.992 4.5H8.992V5.5H7.992V4.5Z" fill="currentColor"/>
<path d="M11.508 3.5C11.3754 3.5 11.2482 3.55268 11.1544 3.64645C11.0607 3.74021 11.008 3.86739 11.008 4V10C11.008 10.1326 11.0607 10.2598 11.1544 10.3536C11.2482 10.4473 11.3754 10.5 11.508 10.5H14.492C14.6246 10.5 14.7518 10.4473 14.8456 10.3536C14.9393 10.2598 14.992 10.1326 14.992 10V4C14.992 3.86739 14.9393 3.74021 14.8456 3.64645C14.7518 3.55268 14.6246 3.5 14.492 3.5H11.508ZM12.008 4.5H13.992V6.5H12.008V4.5ZM12.008 7.5H13.992V9.5H12.008V7.5ZM3.508 3.5C3.37539 3.5 3.24821 3.55268 3.15445 3.64645C3.06068 3.74021 3.008 3.86739 3.008 4V16C3.008 16.1326 3.06068 16.2598 3.15445 16.3536C3.24821 16.4473 3.37539 16.5 3.508 16.5H6.492C6.62461 16.5 6.75179 16.4473 6.84555 16.3536C6.93932 16.2598 6.992 16.1326 6.992 16V4C6.992 3.86739 6.93932 3.74021 6.84555 3.64645C6.75179 3.55268 6.62461 3.5 6.492 3.5H3.508ZM4.008 4.5H5.992V6.5H4.008V4.5ZM4.008 7.5H5.992V9.5H4.008V7.5ZM4.008 10.5H5.992V12.5H4.008V10.5ZM4.008 13.5H5.992V15.5H4.008V13.5Z" fill="currentColor"/>
</svg>
