<svg width="20" height="20" viewBox="0 0 20 20" fill="none" xmlns="http://www.w3.org/2000/svg">
<path d="M3.50001 3C3.3674 3 3.24021 3.05269 3.14645 3.14645C3.05268 3.24022 3.00001 3.36739 3.00001 3.5V5.5C3.00001 5.63261 3.05268 5.75978 3.14645 5.85355C3.24021 5.94731 3.3674 6 3.50001 6C3.63262 6 3.75979 5.94731 3.85355 5.85355C3.94732 5.75978 4.00001 5.63261 4.00001 5.5V4H7.00001V16H5.50001C5.3674 16 5.24021 16.0527 5.14645 16.1465C5.05268 16.2402 5.00001 16.3674 5.00001 16.5C5.00001 16.6326 5.05268 16.7598 5.14645 16.8535C5.24021 16.9473 5.3674 17 5.50001 17H9.50001C9.63262 17 9.75979 16.9473 9.85355 16.8535C9.94732 16.7598 10 16.6326 10 16.5C10 16.3674 9.94732 16.2402 9.85355 16.1465C9.75979 16.0527 9.63262 16 9.50001 16H8.00001V4H11V5.5C11 5.63261 11.0527 5.75978 11.1464 5.85355C11.2402 5.94731 11.3674 6 11.5 6C11.6326 6 11.7598 5.94731 11.8536 5.85355C11.9473 5.75978 12 5.63261 12 5.5V3.5C12 3.36739 11.9473 3.24022 11.8536 3.14645C11.7598 3.05269 11.6326 3 11.5 3H3.50001ZM10.5 9C10.3674 9 10.2402 9.05269 10.1464 9.14645C10.0527 9.24022 10 9.36739 10 9.5V10.5C10 10.6326 10.0527 10.7598 10.1464 10.8535C10.2402 10.9473 10.3674 11 10.5 11C10.6326 11 10.7598 10.9473 10.8536 10.8535C10.9473 10.7598 11 10.6326 11 10.5V10H13V16H12.5C12.3674 16 12.2402 16.0527 12.1464 16.1465C12.0527 16.2402 12 16.3674 12 16.5C12 16.6326 12.0527 16.7598 12.1464 16.8535C12.2402 16.9473 12.3674 17 12.5 17H14.5C14.6326 17 14.7598 16.9473 14.8536 16.8535C14.9473 16.7598 15 16.6326 15 16.5C15 16.3674 14.9473 16.2402 14.8536 16.1465C14.7598 16.0527 14.6326 16 14.5 16H14V10H16V10.5C16 10.6326 16.0527 10.7598 16.1464 10.8535C16.2402 10.9473 16.3674 11 16.5 11C16.6326 11 16.7598 10.9473 16.8536 10.8535C16.9473 10.7598 17 10.6326 17 10.5V9.5C17 9.36739 16.9473 9.24022 16.8536 9.14645C16.7598 9.05269 16.6326 9 16.5 9H10.5Z" fill="currentColor"/>
</svg>
