<svg width="20" height="20" viewBox="0 0 20 20" fill="none" xmlns="http://www.w3.org/2000/svg">
<path d="M10.001 4C9.45604 4.00616 8.93573 4.22802 8.554 4.617C8.177 4.989 7.904 5.474 7.673 6.025C7.21 7.127 6.916 8.515 6.593 9.885C6.27 11.254 5.917 12.601 5.419 13.549C4.92 14.497 4.377 15 3.507 15C3.3744 15 3.24722 15.0527 3.15345 15.1464C3.05968 15.2402 3.007 15.3674 3.007 15.5C3.007 15.6326 3.05968 15.7598 3.15345 15.8536C3.24722 15.9473 3.3744 16 3.507 16C4.801 16 5.719 15.128 6.304 14.014C6.888 12.899 7.239 11.496 7.565 10.115C7.892 8.735 8.192 7.372 8.595 6.412C8.796 5.932 9.025 5.558 9.257 5.328C9.489 5.098 9.7 5 10 5C10.3 5 10.512 5.098 10.744 5.328C10.977 5.558 11.204 5.932 11.406 6.412C11.809 7.372 12.109 8.734 12.436 10.115C12.762 11.496 13.111 12.899 13.696 14.014C14.28 15.128 15.198 16 16.492 16C16.6246 16 16.7518 15.9473 16.8456 15.8536C16.9393 15.7598 16.992 15.6326 16.992 15.5C16.992 15.3674 16.9393 15.2402 16.8456 15.1464C16.7518 15.0527 16.6246 15 16.492 15C15.622 15 15.08 14.497 14.582 13.549C14.084 12.601 13.732 11.254 13.408 9.885C13.085 8.515 12.791 7.127 12.328 6.025C12.097 5.475 11.823 4.989 11.448 4.617C11.066 4.22778 10.5453 4.0059 10 4H10.001Z" fill="currentColor"/>
</svg>
