<svg width="20" height="20" viewBox="0 0 20 20" fill="none" xmlns="http://www.w3.org/2000/svg">
<path d="M9.10204 4.014C8.05342 4.07825 7.03587 4.39562 6.13671 4.93899C5.23754 5.48235 4.48345 6.23552 3.93895 7.134C3.20818 8.34263 2.89075 9.7563 3.03454 11.1613C3.17832 12.5664 3.77552 13.8864 4.73595 14.922C5.69685 15.9566 6.96847 16.6504 8.35851 16.8984C9.74856 17.1465 11.1816 16.9354 12.441 16.297C13.7 15.6573 14.7164 14.6253 15.337 13.3569C15.9576 12.0885 16.1486 10.6525 15.881 9.26599C15.8685 9.20144 15.8435 9.14 15.8072 9.08514C15.771 9.03028 15.7244 8.9831 15.6699 8.94628C15.6154 8.90946 15.5543 8.88371 15.4899 8.87054C15.4255 8.85736 15.3591 8.85703 15.2945 8.8695C15.23 8.88198 15.1685 8.90704 15.1136 8.94326C15.0588 8.97949 15.0115 9.02616 14.9747 9.08062C14.9379 9.13508 14.9122 9.19627 14.899 9.26068C14.8859 9.32508 14.8855 9.39144 14.8979 9.45599C15.1255 10.629 14.9647 11.8442 14.4396 12.9175C13.9145 13.9909 13.0538 14.8638 11.988 15.404C10.9228 15.9458 9.7098 16.1255 8.53319 15.9158C7.35659 15.7061 6.28049 15.1185 5.46801 14.242C4.65457 13.3661 4.14878 12.2489 4.02733 11.0597C3.90589 9.87058 4.17544 8.67424 4.79503 7.652C5.41317 6.62956 6.34781 5.83654 7.45727 5.39315C8.56672 4.94977 9.79043 4.8802 10.943 5.195C11.0072 5.21491 11.0747 5.22167 11.1416 5.21493C11.2085 5.20818 11.2733 5.18805 11.3323 5.15573C11.3912 5.1234 11.4431 5.07956 11.4847 5.02679C11.5264 4.97401 11.557 4.91338 11.5747 4.84854C11.5924 4.78369 11.5969 4.71596 11.5879 4.64935C11.5789 4.58273 11.5565 4.51862 11.5222 4.46081C11.4879 4.403 11.4423 4.35268 11.3882 4.31286C11.334 4.27304 11.2724 4.24451 11.207 4.229C10.507 4.039 9.79704 3.971 9.10204 4.014Z" fill="currentColor"/>
<path d="M15.979 2.99003C15.7193 2.99796 15.4729 3.10662 15.292 3.29302L11.579 7.00802C11.553 7.00702 11.528 7.00002 11.501 7.00002C10.679 7.00002 10.001 7.67702 10.001 8.50002C10.001 9.32202 10.679 10 11.501 10C12.323 10 13.001 9.32202 13.001 8.50002C13.001 8.47202 12.995 8.44702 12.993 8.42002L16.706 4.70702C16.8507 4.56657 16.9495 4.38566 16.9895 4.18804C17.0295 3.99042 17.0089 3.78533 16.9303 3.59966C16.8516 3.41399 16.7187 3.25641 16.549 3.14762C16.3792 3.03882 16.1805 2.9839 15.979 2.99003Z" fill="currentColor"/>
</svg>
