<svg width="20" height="20" viewBox="0 0 20 20" fill="none" xmlns="http://www.w3.org/2000/svg">
<path d="M16.431 3.00199C16.2875 3.00562 16.1512 3.0652 16.051 3.16799L12.608 6.61299C12.5048 6.71616 12.4469 6.85609 12.4469 7.00199C12.4469 7.14789 12.5048 7.28782 12.608 7.39099C12.7112 7.49416 12.8511 7.55212 12.997 7.55212C13.1429 7.55212 13.2828 7.49416 13.386 7.39099L16.831 3.94699C16.9108 3.86977 16.9654 3.7702 16.9875 3.66138C17.0097 3.55256 16.9984 3.43958 16.9551 3.33732C16.9118 3.23505 16.8385 3.14828 16.745 3.08843C16.6515 3.02858 16.542 2.99844 16.431 3.00199ZM6.985 12.447C6.84258 12.4514 6.70742 12.5109 6.608 12.613L3.163 16.057C3.11185 16.1082 3.07129 16.169 3.04363 16.2359C3.01597 16.3028 3.00176 16.3745 3.00181 16.4468C3.00186 16.5192 3.01616 16.5909 3.0439 16.6577C3.07164 16.7246 3.11228 16.7853 3.1635 16.8365C3.21472 16.8876 3.2755 16.9282 3.3424 16.9559C3.40929 16.9835 3.48097 16.9977 3.55335 16.9977C3.62574 16.9976 3.6974 16.9833 3.76426 16.9556C3.83111 16.9278 3.89185 16.8872 3.943 16.836L7.386 13.391C7.46545 13.3137 7.51969 13.2142 7.54163 13.1056C7.56356 12.9969 7.55216 12.8842 7.50892 12.7822C7.46567 12.6801 7.39261 12.5935 7.2993 12.5337C7.20599 12.4739 7.09678 12.4437 6.986 12.447H6.985Z" fill="currentColor"/>
<path d="M8.497 8.00198C8.36439 8.00198 8.23721 8.05466 8.14345 8.14843C8.04968 8.2422 7.997 8.36938 7.997 8.50198V11.502C7.997 11.6346 8.04968 11.7618 8.14345 11.8555C8.23721 11.9493 8.36439 12.002 8.497 12.002H11.497C11.6296 12.002 11.7568 11.9493 11.8506 11.8555C11.9443 11.7618 11.997 11.6346 11.997 11.502V8.50198C11.997 8.36938 11.9443 8.2422 11.8506 8.14843C11.7568 8.05466 11.6296 8.00198 11.497 8.00198H8.497Z" fill="currentColor"/>
</svg>
