<svg width="20" height="20" viewBox="0 0 20 20" fill="none" xmlns="http://www.w3.org/2000/svg">
<path d="M16 4.5C16 4.36739 15.9473 4.24022 15.8535 4.14645C15.7598 4.05269 15.6326 4 15.5 4L4.5 4C4.36739 4 4.24022 4.05269 4.14645 4.14645C4.05269 4.24022 4 4.36739 4 4.5V6.5C4 6.63261 4.05269 6.75978 4.14645 6.85355C4.24022 6.94731 4.36739 7 4.5 7L15.5 7C15.6326 7 15.7598 6.94731 15.8535 6.85355C15.9473 6.75978 16 6.63261 16 6.5V4.5ZM16 13.5C16 13.3674 15.9473 13.2402 15.8535 13.1465C15.7598 13.0527 15.6326 13 15.5 13H4.5C4.36739 13 4.24022 13.0527 4.14645 13.1465C4.05269 13.2402 4 13.3674 4 13.5V15.5C4 15.6326 4.05269 15.7598 4.14645 15.8535C4.24022 15.9473 4.36739 16 4.5 16H15.5C15.6326 16 15.7598 15.9473 15.8535 15.8535C15.9473 15.7598 16 15.6326 16 15.5V13.5Z" fill="currentColor"/>
</svg>
