<svg width="20" height="20" viewBox="0 0 20 20" fill="none" xmlns="http://www.w3.org/2000/svg">
<path d="M13.492 2.99201C13.4264 2.99305 13.3615 3.00702 13.3013 3.03312C13.241 3.05921 13.1865 3.0969 13.1408 3.14408C13.0951 3.19125 13.0591 3.24698 13.035 3.30805C13.0108 3.36912 12.999 3.43434 13 3.5V5.99601L10.494 5.99201C9.818 5.98201 9.81602 7.00001 10.492 6.99201L13 6.99601V13H6.99601L6.99202 10.492C7.00002 9.81601 5.98202 9.81799 5.99202 10.494L5.99601 13H3.50001C2.82401 12.99 2.82401 14.01 3.50001 14H5.99601L6.00001 16.5C5.99001 17.176 7.01001 17.176 7.00001 16.5L6.99601 14H13V16.5C12.99 17.176 14.01 17.176 14 16.5V14H16.5C17.176 14.01 17.176 12.99 16.5 13H14V6.99601L16.5 7C17.176 7.01 17.176 5.99 16.5 6L14 5.99601V3.5C14.0011 3.43299 13.9887 3.36645 13.9635 3.30433C13.9384 3.2422 13.901 3.18576 13.8536 3.13837C13.8062 3.09098 13.7498 3.05362 13.6877 3.02848C13.6256 3.00333 13.559 2.99093 13.492 2.99201Z" fill="currentColor"/>
<path d="M4.5 4C4.36739 4 4.24022 4.05269 4.14645 4.14645C4.05269 4.24022 4 4.36739 4 4.5V8.5C4 8.63261 4.05269 8.75978 4.14645 8.85355C4.24022 8.94731 4.36739 9 4.5 9H8.5C8.63261 9 8.75978 8.94731 8.85355 8.85355C8.94731 8.75978 9 8.63261 9 8.5V4.5C9 4.36739 8.94731 4.24022 8.85355 4.14645C8.75978 4.05269 8.63261 4 8.5 4H4.5Z" fill="currentColor"/>
</svg>
