<svg width="20" height="20" viewBox="0 0 20 20" fill="none" xmlns="http://www.w3.org/2000/svg">
<path d="M6.489 12.005C6.42325 12.0059 6.35833 12.0198 6.29795 12.0458C6.23757 12.0719 6.18292 12.1095 6.13713 12.1567C6.09133 12.2039 6.0553 12.2597 6.03108 12.3208C6.00686 12.3819 5.99494 12.4472 5.996 12.513V14.013H3.496C3.36339 14.013 3.23622 14.0657 3.14245 14.1594C3.04868 14.2532 2.996 14.3804 2.996 14.513V16.513C2.996 16.6456 3.04868 16.7728 3.14245 16.8665C3.23622 16.9603 3.36339 17.013 3.496 17.013C3.62861 17.013 3.75579 16.9603 3.84956 16.8665C3.94332 16.7728 3.996 16.6456 3.996 16.513V15.013H6.496C6.62861 15.013 6.75579 14.9603 6.84956 14.8665C6.94332 14.7728 6.996 14.6456 6.996 14.513V12.513C6.99708 12.4461 6.98471 12.3796 6.95962 12.3176C6.93454 12.2555 6.89725 12.1991 6.84997 12.1517C6.80269 12.1044 6.74637 12.067 6.68437 12.0418C6.62236 12.0165 6.55593 12.004 6.489 12.005Z" fill="currentColor"/>
<path d="M10.887 2.98001C9.292 2.96001 7.717 3.51901 6.633 4.67101L5.893 5.41001C5.79926 5.50377 5.7466 5.63093 5.7466 5.76351C5.7466 5.89609 5.79926 6.02325 5.893 6.11701L7.893 8.11701C7.98676 8.21075 8.11392 8.2634 8.2465 8.2634C8.37908 8.2634 8.50623 8.21075 8.6 8.11701L9.1 7.61701C9.685 7.03201 10.682 6.71901 11.446 6.92301C11.8393 7.02853 12.198 7.23573 12.4859 7.52379C12.7737 7.81185 12.9807 8.17061 13.086 8.56401C13.291 9.32801 12.978 10.324 12.393 10.91L11.893 11.41C11.7993 11.5038 11.7466 11.6309 11.7466 11.7635C11.7466 11.8961 11.7993 12.0232 11.893 12.117L13.893 14.117C13.9868 14.2107 14.1139 14.2634 14.2465 14.2634C14.3791 14.2634 14.5062 14.2107 14.6 14.117L15.35 13.367C17.574 11.143 17.568 7.06901 15.252 4.75401C14.094 3.59601 12.482 3.00001 10.887 2.98001ZM4.739 6.76301C4.60893 6.76514 4.48482 6.81787 4.393 6.91001L3.143 8.16001C3.04926 8.25377 2.9966 8.38093 2.9966 8.51351C2.9966 8.64609 3.04926 8.77325 3.143 8.86701L5.143 10.867C5.23676 10.9607 5.36392 11.0134 5.4965 11.0134C5.62908 11.0134 5.75623 10.9607 5.85 10.867L7.1 9.61701C7.19373 9.52325 7.24639 9.39609 7.24639 9.26351C7.24639 9.13093 7.19373 9.00377 7.1 8.91001L5.1 6.91001C5.05273 6.86258 4.99642 6.82514 4.93441 6.79988C4.8724 6.77463 4.80595 6.76209 4.739 6.76301ZM10.739 12.763C10.6089 12.7651 10.4848 12.8179 10.393 12.91L9.143 14.16C9.04926 14.2538 8.9966 14.3809 8.9966 14.5135C8.9966 14.6461 9.04926 14.7732 9.143 14.867L11.143 16.867C11.2368 16.9607 11.3639 17.0134 11.4965 17.0134C11.6291 17.0134 11.7562 16.9607 11.85 16.867L13.1 15.617C13.1937 15.5232 13.2464 15.3961 13.2464 15.2635C13.2464 15.1309 13.1937 15.0038 13.1 14.91L11.1 12.91C11.0527 12.8626 10.9964 12.8251 10.9344 12.7999C10.8724 12.7746 10.8059 12.7621 10.739 12.763Z" fill="currentColor"/>
</svg>
