<svg width="20" height="20" viewBox="0 0 20 20" fill="none" xmlns="http://www.w3.org/2000/svg">
<path d="M7.5 3C7.4343 2.99988 7.36921 3.01272 7.30847 3.03777C7.24773 3.06282 7.19252 3.0996 7.146 3.146L3.146 7.146C3.09956 7.19249 3.06275 7.24769 3.03769 7.30844C3.01264 7.36919 2.99983 7.43429 3 7.5V16.5C3 16.6326 3.05268 16.7598 3.14645 16.8536C3.24022 16.9473 3.36739 17 3.5 17H12.5C12.5657 17.0001 12.6308 16.9873 12.6915 16.9622C12.7523 16.9372 12.8075 16.9004 12.854 16.854L16.854 12.854C16.9004 12.8075 16.9372 12.7523 16.9622 12.6915C16.9873 12.6308 17.0001 12.5657 17 12.5V3.5C17 3.36739 16.9473 3.24022 16.8536 3.14645C16.7598 3.05268 16.6326 3 16.5 3H7.5ZM14.988 3.982C15.1895 3.97587 15.3882 4.03081 15.558 4.1396C15.7277 4.24839 15.8606 4.40596 15.9393 4.59164C16.0179 4.77731 16.0385 4.98241 15.9985 5.18002C15.9585 5.37764 15.8597 5.55855 15.715 5.699L13.008 8.406V14.992C13.008 15.2572 12.9026 15.5116 12.7151 15.6991C12.5276 15.8866 12.2732 15.992 12.008 15.992C11.7428 15.992 11.4884 15.8866 11.3009 15.6991C11.1134 15.5116 11.008 15.2572 11.008 14.992V8.992H5.008C4.74279 8.992 4.48843 8.88664 4.30089 8.69911C4.11336 8.51157 4.008 8.25722 4.008 7.992C4.008 7.72678 4.11336 7.47243 4.30089 7.28489C4.48843 7.09736 4.74279 6.992 5.008 6.992H11.594L14.3 4.285C14.481 4.0986 14.7273 3.98993 14.987 3.982H14.988Z" fill="currentColor"/>
</svg>
