<svg width="20" height="20" viewBox="0 0 20 20" fill="none" xmlns="http://www.w3.org/2000/svg">
<path d="M3.493 2.99298C3.36074 2.99509 3.2347 3.04953 3.14249 3.14437C3.05027 3.23921 2.9994 3.36673 3.00101 3.499V16.407C2.98902 16.4721 2.9901 16.539 3.00417 16.6037C3.01825 16.6684 3.04504 16.7297 3.083 16.784C3.08366 16.7853 3.08433 16.7867 3.08501 16.788C3.09444 16.8005 3.10445 16.8125 3.115 16.824C3.11533 16.8253 3.11566 16.8267 3.116 16.828C3.12583 16.8395 3.13618 16.8505 3.147 16.861C3.15543 16.8683 3.1641 16.8753 3.173 16.882C3.17693 16.8861 3.18094 16.8901 3.185 16.894C3.186 16.8947 3.187 16.8953 3.188 16.896C3.20115 16.9067 3.21484 16.9167 3.229 16.926C3.33377 16.9936 3.46002 17.0197 3.583 16.999H16.501C16.6336 16.999 16.7608 16.9463 16.8546 16.8525C16.9483 16.7588 17.001 16.6316 17.001 16.499C17.001 16.3664 16.9483 16.2392 16.8546 16.1454C16.7608 16.0517 16.6336 15.999 16.501 15.999H4.00101V3.499C4.00182 3.43215 3.98921 3.36582 3.96394 3.30393C3.93867 3.24204 3.90126 3.18585 3.8539 3.13868C3.80653 3.0915 3.7502 3.05431 3.68821 3.02929C3.62622 3.00426 3.55984 2.99191 3.493 2.99298Z" fill="currentColor"/>
<path d="M6.493 10.007C6.3604 10.007 6.23322 10.0597 6.13945 10.1534C6.04568 10.2472 5.993 10.3744 5.993 10.507V13.507C5.993 13.6396 6.04568 13.7668 6.13945 13.8605C6.23322 13.9543 6.3604 14.007 6.493 14.007H9.493C9.62561 14.007 9.75279 13.9543 9.84656 13.8605C9.94033 13.7668 9.993 13.6396 9.993 13.507V10.507C9.993 10.3744 9.94033 10.2472 9.84656 10.1534C9.75279 10.0597 9.62561 10.007 9.493 10.007H6.493Z" fill="currentColor"/>
</svg>
