<svg width="20" height="20" viewBox="0 0 20 20" fill="none" xmlns="http://www.w3.org/2000/svg">
<path d="M10.924 2.99601C9.339 2.98401 7.764 3.53901 6.652 4.65101L3.152 8.15101C3.05827 8.24477 3.00561 8.37193 3.00561 8.50451C3.00561 8.63709 3.05827 8.76425 3.152 8.85801L5.152 10.858C5.24576 10.9517 5.37292 11.0044 5.5055 11.0044C5.63808 11.0044 5.76524 10.9517 5.859 10.858L9.109 7.60801C9.694 7.02301 10.691 6.70901 11.455 6.91401C12.257 7.12901 12.881 7.75401 13.095 8.55401C13.3 9.31901 12.987 10.316 12.402 10.901L9.152 14.151C9.05827 14.2448 9.00561 14.3719 9.00561 14.5045C9.00561 14.6371 9.05827 14.7642 9.152 14.858L11.152 16.858C11.2458 16.9517 11.3729 17.0044 11.5055 17.0044C11.6381 17.0044 11.7652 16.9517 11.859 16.858L15.334 13.381C15.3426 13.3736 15.3509 13.366 15.359 13.358C15.4133 13.3047 15.4546 13.2397 15.48 13.168C17.545 10.913 17.522 7.00401 15.262 4.74401C14.104 3.58601 12.509 3.00801 10.924 2.99601ZM10.916 4.02901C12.256 4.03901 13.61 4.50701 14.555 5.45101C16.444 7.34001 16.429 10.874 14.652 12.651L11.506 15.797L10.213 14.504L13.109 11.608C13.949 10.768 14.379 9.47801 14.063 8.29501C13.912 7.73205 13.6156 7.21873 13.2034 6.80659C12.7913 6.39445 12.278 6.098 11.715 5.94701C10.532 5.63101 9.242 6.06001 8.402 6.90101L5.506 9.79701L4.213 8.50401L7.359 5.35801C8.248 4.46901 9.575 4.02001 10.916 4.02901Z" fill="currentColor"/>
</svg>
