<svg width="20" height="20" viewBox="0 0 20 20" fill="none" xmlns="http://www.w3.org/2000/svg">
<path d="M9.75 3C9.64625 2.99972 9.54498 3.03172 9.46023 3.09156C9.37548 3.15141 9.31145 3.23614 9.277 3.334L7.645 8H3.5C3.36739 8 3.24021 8.05268 3.14645 8.14645C3.05268 8.24022 3 8.36739 3 8.5V9.25C3.00014 9.33366 3.02127 9.41595 3.06145 9.48933C3.10163 9.5627 3.15959 9.62483 3.23 9.67L6.396 11.707L5.029 15.584C5.01001 15.6373 5.00021 15.6934 5 15.75V16.5C5 16.6326 5.05268 16.7598 5.14645 16.8536C5.24021 16.9473 5.36739 17 5.5 17H6.25C6.36964 17 6.48531 16.957 6.576 16.879L9.936 14H10.064L13.424 16.879C13.5157 16.9579 13.633 17.0009 13.754 17L14.5 16.994C14.6312 16.993 14.7568 16.9404 14.8496 16.8476C14.9424 16.7548 14.995 16.6292 14.996 16.498L15 15.752C14.9997 15.6947 14.9896 15.6379 14.97 15.584L13.604 11.707L16.77 9.67C16.8404 9.62483 16.8984 9.5627 16.9385 9.48933C16.9787 9.41595 16.9999 9.33366 17 9.25V8.5C17 8.36739 16.9473 8.24022 16.8536 8.14645C16.7598 8.05268 16.6326 8 16.5 8H12.355L10.723 3.334C10.6886 3.23614 10.6245 3.15141 10.5398 3.09156C10.455 3.03172 10.3537 2.99972 10.25 3H9.998H9.75ZM10 4.3L11.527 8.666C11.5614 8.76387 11.6255 8.84859 11.7102 8.90844C11.795 8.96828 11.8962 9.00028 12 9H15.963L12.73 11.08C12.6357 11.141 12.5647 11.232 12.5284 11.3383C12.4921 11.4446 12.4927 11.5601 12.53 11.666L14 15.834L13.998 15.998H13.934L10.576 13.121C10.4853 13.043 10.3696 13 10.25 13H9.75C9.63036 13 9.51469 13.043 9.424 13.121L6.064 16H6V15.836L7.47 11.666C7.50733 11.5601 7.50791 11.4446 7.47162 11.3383C7.43534 11.232 7.36432 11.141 7.27 11.08L4.037 9H8C8.10375 9.00028 8.20502 8.96828 8.28977 8.90844C8.37452 8.84859 8.43855 8.76387 8.473 8.666L10 4.3Z" fill="currentColor"/>
</svg>
