<svg width="20" height="20" viewBox="0 0 20 20" fill="none" xmlns="http://www.w3.org/2000/svg">
<path d="M6.475 3.494C6.38826 3.49766 6.30397 3.52383 6.23041 3.56995C6.15686 3.61607 6.09658 3.68054 6.05551 3.75703C6.01444 3.83352 5.994 3.91938 5.99619 4.00617C5.99838 4.09296 6.02313 4.17768 6.068 4.252L9.128 9.5H3.5C3.36739 9.5 3.24021 9.55268 3.14645 9.64645C3.05268 9.74022 3 9.8674 3 10C3 10.1326 3.05268 10.2598 3.14645 10.3536C3.24021 10.4473 3.36739 10.5 3.5 10.5H9.129L6.069 15.748C6.03315 15.8048 6.00909 15.8681 5.99826 15.9344C5.98743 16.0006 5.99005 16.0684 6.00597 16.1336C6.02189 16.1988 6.05077 16.2602 6.0909 16.314C6.13103 16.3678 6.18159 16.413 6.23956 16.4468C6.29752 16.4807 6.36171 16.5025 6.4283 16.511C6.49489 16.5195 6.5625 16.5145 6.62712 16.4964C6.69174 16.4782 6.75204 16.4472 6.80442 16.4052C6.8568 16.3632 6.90019 16.3111 6.932 16.252L10 10.992L13.068 16.252C13.1011 16.3087 13.145 16.3584 13.1973 16.3981C13.2496 16.4379 13.3092 16.467 13.3727 16.4837C13.4362 16.5004 13.5024 16.5044 13.5675 16.4956C13.6326 16.4867 13.6953 16.4651 13.752 16.432C13.8087 16.3989 13.8584 16.355 13.8981 16.3027C13.9379 16.2504 13.9669 16.1908 13.9837 16.1273C14.0004 16.0638 14.0044 15.9976 13.9956 15.9325C13.9867 15.8674 13.9651 15.8047 13.932 15.748L10.872 10.5H16.5C16.6326 10.5 16.7598 10.4473 16.8536 10.3536C16.9473 10.2598 17 10.1326 17 10C17 9.8674 16.9473 9.74022 16.8536 9.64645C16.7598 9.55268 16.6326 9.5 16.5 9.5H10.871L13.931 4.252C13.9669 4.19525 13.9909 4.13186 14.0017 4.06561C14.0126 3.99937 14.0099 3.93161 13.994 3.8664C13.9781 3.80119 13.9492 3.73985 13.9091 3.68604C13.869 3.63222 13.8184 3.58705 13.7604 3.55319C13.7025 3.51934 13.6383 3.49751 13.5717 3.48899C13.5051 3.48048 13.4375 3.48546 13.3729 3.50364C13.3083 3.52182 13.248 3.55283 13.1956 3.59481C13.1432 3.63679 13.0998 3.68889 13.068 3.748L10 9.00801L6.932 3.748C6.88668 3.66762 6.82 3.60134 6.73935 3.55651C6.65869 3.51168 6.56719 3.49005 6.475 3.494Z" fill="currentColor"/>
</svg>
