<svg width="20" height="20" viewBox="0 0 20 20" fill="none" xmlns="http://www.w3.org/2000/svg">
<path d="M9.992 3.996C9.86194 3.99813 9.73782 4.05086 9.646 4.143L5.646 8.143C5.55225 8.23689 5.49963 8.36417 5.49973 8.49686C5.49982 8.62954 5.55262 8.75675 5.6465 8.8505C5.74039 8.94426 5.86767 8.99687 6.00036 8.99678C6.13304 8.99669 6.26025 8.94389 6.354 8.85L9.5 5.703V15.496C9.5 15.6286 9.55268 15.7558 9.64645 15.8496C9.74022 15.9433 9.86739 15.996 10 15.996C10.1326 15.996 10.2598 15.9433 10.3536 15.8496C10.4473 15.7558 10.5 15.6286 10.5 15.496V5.703L13.646 8.85C13.6924 8.89649 13.7476 8.93338 13.8082 8.95856C13.8689 8.98375 13.934 8.99673 13.9997 8.99678C14.0653 8.99683 14.1304 8.98393 14.1911 8.95883C14.2518 8.93374 14.307 8.89692 14.3535 8.8505C14.4 8.80408 14.4369 8.74896 14.4621 8.68828C14.4872 8.6276 14.5002 8.56255 14.5003 8.49686C14.5003 8.43116 14.4874 8.3661 14.4623 8.30538C14.4372 8.24467 14.4004 8.18949 14.354 8.143L10.354 4.143C10.3066 4.09546 10.2501 4.05794 10.188 4.03268C10.1258 4.00742 10.0591 3.99495 9.992 3.996Z" fill="currentColor"/>
</svg>
