<svg width="20" height="20" viewBox="0 0 20 20" fill="none" xmlns="http://www.w3.org/2000/svg">
<path d="M5.994 2.993C5.96853 2.9934 5.94312 2.99574 5.918 3H5C4.86739 3 4.74021 3.05268 4.64645 3.14645C4.55268 3.24022 4.5 3.3674 4.5 3.5C4.5 3.63261 4.55268 3.75979 4.64645 3.85356C4.74021 3.94733 4.86739 4 5 4H5.5V5.125C5.5 6.757 6.471 7.978 7.701 8.9L8.5 9.5V10.5L7.701 11.1C6.471 12.022 5.5 13.243 5.5 14.875V16H5C4.86739 16 4.74021 16.0527 4.64645 16.1465C4.55268 16.2402 4.5 16.3674 4.5 16.5C4.5 16.6326 4.55268 16.7598 4.64645 16.8536C4.74021 16.9473 4.86739 17 5 17H5.922C5.97499 17.0086 6.02901 17.0086 6.082 17H13.92C13.9736 17.0088 14.0284 17.0088 14.082 17H15C15.1326 17 15.2598 16.9473 15.3536 16.8536C15.4473 16.7598 15.5 16.6326 15.5 16.5C15.5 16.3674 15.4473 16.2402 15.3536 16.1465C15.2598 16.0527 15.1326 16 15 16H14.5V14.875C14.5 13.243 13.53 12.022 12.3 11.099L11.5 10.499V10.035C11.5004 10.0233 11.5004 10.0117 11.5 10V9.5L12.3 8.9C13.53 7.978 14.5 6.757 14.5 5.125V4H15C15.1326 4 15.2598 3.94733 15.3536 3.85356C15.4473 3.75979 15.5 3.63261 15.5 3.5C15.5 3.3674 15.4473 3.24022 15.3536 3.14645C15.2598 3.05268 15.1326 3 15 3H14.08C14.0264 2.9912 13.9716 2.9912 13.918 3H6.082C6.05296 2.99475 6.02351 2.99207 5.994 2.992V2.993ZM6.5 4H13.5V5.125C13.5 6.37 12.802 7.272 11.7 8.099L10.7 8.849C10.6379 8.89558 10.5875 8.95597 10.5528 9.0254C10.5181 9.09483 10.5 9.17138 10.5 9.249V10.75C10.5 10.8276 10.5181 10.9042 10.5528 10.9736C10.5875 11.043 10.6379 11.1034 10.7 11.15L11.7 11.9C12.801 12.726 13.5 13.628 13.5 14.873V16H6.5V14.873C6.5 13.628 7.199 12.726 8.3 11.9L9.3 11.15C9.3621 11.1034 9.4125 11.043 9.44721 10.9736C9.48193 10.9042 9.5 10.8276 9.5 10.75V10.035C9.50041 10.0233 9.50041 10.0117 9.5 10V9.25C9.5 9.17238 9.48193 9.09582 9.44721 9.0264C9.4125 8.95697 9.3621 8.89658 9.3 8.85L8.3 8.1C7.2 7.273 6.5 6.37 6.5 5.127V5.125V4Z" fill="currentColor"/>
</svg>
