<svg width="20" height="20" viewBox="0 0 20 20" fill="none" xmlns="http://www.w3.org/2000/svg">
<path d="M9.992 3.99701C9.85974 3.99912 9.7337 4.05355 9.64148 4.14839C9.54927 4.24323 9.49839 4.37074 9.5 4.50301V14.296L6.354 11.149C6.30751 11.1025 6.25232 11.0656 6.19158 11.0405C6.13084 11.0153 6.06574 11.0024 6 11.0024C5.93425 11.0024 5.86915 11.0153 5.80841 11.0405C5.74768 11.0656 5.69249 11.1025 5.646 11.149C5.59951 11.1955 5.56263 11.2507 5.53748 11.3114C5.51232 11.3722 5.49937 11.4373 5.49937 11.503C5.49937 11.5688 5.51232 11.6339 5.53748 11.6946C5.56263 11.7553 5.59951 11.8105 5.646 11.857L9.646 15.857C9.69244 15.9036 9.74762 15.9405 9.80837 15.9657C9.86911 15.9909 9.93423 16.0039 10 16.0039C10.0658 16.0039 10.1309 15.9909 10.1916 15.9657C10.2524 15.9405 10.3076 15.9036 10.354 15.857L14.354 11.857C14.4005 11.8105 14.4374 11.7553 14.4625 11.6946C14.4877 11.6339 14.5006 11.5688 14.5006 11.503C14.5006 11.4373 14.4877 11.3722 14.4625 11.3114C14.4374 11.2507 14.4005 11.1955 14.354 11.149C14.3075 11.1025 14.2523 11.0656 14.1916 11.0405C14.1308 11.0153 14.0657 11.0024 14 11.0024C13.9343 11.0024 13.8692 11.0153 13.8084 11.0405C13.7477 11.0656 13.6925 11.1025 13.646 11.149L10.5 14.296V4.50301C10.5008 4.43617 10.4882 4.36984 10.4629 4.30795C10.4377 4.24607 10.4003 4.18987 10.3529 4.1427C10.3055 4.09552 10.2492 4.05832 10.1872 4.0333C10.1252 4.00828 10.0588 3.99594 9.992 3.99701Z" fill="currentColor"/>
</svg>
