<svg width="20" height="20" viewBox="0 0 20 20" fill="none" xmlns="http://www.w3.org/2000/svg">
<path d="M3.5 3.5C3.36739 3.5 3.24021 3.55268 3.14645 3.64645C3.05268 3.74021 3 3.86739 3 4C3 4.13261 3.05268 4.25979 3.14645 4.35355C3.24021 4.44732 3.36739 4.5 3.5 4.5H16.5C16.6326 4.5 16.7598 4.44732 16.8536 4.35355C16.9473 4.25979 17 4.13261 17 4C17 3.86739 16.9473 3.74021 16.8536 3.64645C16.7598 3.55268 16.6326 3.5 16.5 3.5H3.5ZM3.5 6.5C3.36739 6.5 3.24021 6.55268 3.14645 6.64645C3.05268 6.74021 3 6.86739 3 7C3 7.13261 3.05268 7.25979 3.14645 7.35355C3.24021 7.44732 3.36739 7.5 3.5 7.5H13.5C13.6326 7.5 13.7598 7.44732 13.8536 7.35355C13.9473 7.25979 14 7.13261 14 7C14 6.86739 13.9473 6.74021 13.8536 6.64645C13.7598 6.55268 13.6326 6.5 13.5 6.5H3.5ZM3.5 9.5C3.36739 9.5 3.24021 9.55268 3.14645 9.64645C3.05268 9.74021 3 9.86739 3 10C3 10.1326 3.05268 10.2598 3.14645 10.3536C3.24021 10.4473 3.36739 10.5 3.5 10.5H10.5C10.6326 10.5 10.7598 10.4473 10.8536 10.3536C10.9473 10.2598 11 10.1326 11 10C11 9.86739 10.9473 9.74021 10.8536 9.64645C10.7598 9.55268 10.6326 9.5 10.5 9.5H3.5ZM3.5 12.5C3.36739 12.5 3.24021 12.5527 3.14645 12.6464C3.05268 12.7402 3 12.8674 3 13C3 13.1326 3.05268 13.2598 3.14645 13.3536C3.24021 13.4473 3.36739 13.5 3.5 13.5H7.5C7.63261 13.5 7.75979 13.4473 7.85355 13.3536C7.94732 13.2598 8 13.1326 8 13C8 12.8674 7.94732 12.7402 7.85355 12.6464C7.75979 12.5527 7.63261 12.5 7.5 12.5H3.5ZM3.5 15.5C3.36739 15.5 3.24021 15.5527 3.14645 15.6464C3.05268 15.7402 3 15.8674 3 16C3 16.1326 3.05268 16.2598 3.14645 16.3536C3.24021 16.4473 3.36739 16.5 3.5 16.5H4.5C4.63261 16.5 4.75979 16.4473 4.85355 16.3536C4.94732 16.2598 5 16.1326 5 16C5 15.8674 4.94732 15.7402 4.85355 15.6464C4.75979 15.5527 4.63261 15.5 4.5 15.5H3.5Z" fill="currentColor"/>
</svg>
