<svg width="20" height="20" viewBox="0 0 20 20" fill="none" xmlns="http://www.w3.org/2000/svg">
<path d="M7.5 3C7.3674 3 7.24023 3.05266 7.14646 3.14642C7.05269 3.24019 7 3.36739 7 3.5V13.14C6.72013 13.0376 6.39906 12.9911 6.05761 13.0037C5.71616 13.0162 5.36197 13.0876 5.01801 13.213C4.36748 13.4511 3.79436 13.8678 3.42473 14.3713C3.0551 14.8749 2.91922 15.424 3.047 15.898C3.11018 16.1328 3.23622 16.342 3.41793 16.5139C3.59963 16.6857 3.83344 16.8166 4.10599 16.8993C4.37855 16.9819 4.68451 17.0146 5.0064 16.9955C5.32829 16.9764 5.6598 16.906 5.982 16.788C6.52128 16.5903 7.01045 16.2685 7.3738 15.8726C7.73715 15.4767 7.95444 15.0288 7.99201 14.598C7.99789 14.5657 8.00056 14.5329 8 14.5V5H16V12.14C15.7201 12.0376 15.3991 11.9911 15.0576 12.0037C14.7162 12.0162 14.362 12.0876 14.018 12.213C13.3675 12.4511 12.7944 12.8678 12.4247 13.3713C12.0551 13.8749 11.9192 14.424 12.047 14.898C12.1102 15.1328 12.2362 15.342 12.4179 15.5139C12.5996 15.6857 12.8334 15.8166 13.106 15.8993C13.3785 15.9819 13.6845 16.0146 14.0064 15.9955C14.3283 15.9764 14.6598 15.906 14.982 15.788C15.5213 15.5903 16.0104 15.2685 16.3738 14.8726C16.7372 14.4767 16.9544 14.0288 16.992 13.598C16.9979 13.5657 17.0006 13.5329 17 13.5V3.5C17 3.36739 16.9473 3.24019 16.8536 3.14642C16.7598 3.05266 16.6326 3 16.5 3H7.5Z" fill="currentColor"/>
</svg>
