<svg width="20" height="20" viewBox="0 0 20 20" fill="none" xmlns="http://www.w3.org/2000/svg">
<path d="M14 5.00297H16.5C16.6326 5.00297 16.7598 4.95031 16.8536 4.85654C16.9473 4.76278 17 4.63558 17 4.50297V3.50297C17 3.37036 16.9473 3.24316 16.8536 3.14939C16.7598 3.05562 16.6326 3.00297 16.5 3.00297H13.58C13.508 2.99129 13.4342 2.99552 13.364 3.01536C13.2938 3.0352 13.2288 3.07019 13.1735 3.11784C13.1182 3.16548 13.074 3.22464 13.0441 3.29118C13.0141 3.35771 12.9991 3.43 13 3.50297V10.143C12.434 9.93598 11.714 9.96298 11.018 10.216C9.66301 10.712 8.78 11.915 9.047 12.901C9.313 13.888 10.627 14.286 11.982 13.79C13.212 13.339 14 12.435 14 11.253V5.00297Z" fill="currentColor"/>
<path d="M7.516 5.00299C7.43689 5.00377 7.3591 5.02331 7.28901 5.06C5.29201 6.063 3.82101 7.94397 3.25401 10.194C2.68701 12.445 3.07801 14.842 4.32801 16.763C4.3629 16.82 4.40885 16.8694 4.46314 16.9083C4.51744 16.9472 4.57899 16.9748 4.64414 16.9895C4.7093 17.0042 4.77676 17.0058 4.84251 16.994C4.90826 16.9822 4.97099 16.9574 5.02699 16.921C5.08299 16.8845 5.1311 16.8373 5.16853 16.782C5.20595 16.7267 5.23192 16.6643 5.24488 16.5988C5.25784 16.5333 5.25754 16.4659 5.244 16.4005C5.23045 16.335 5.20391 16.273 5.16599 16.218C4.07199 14.538 3.72602 12.42 4.22502 10.438C4.72402 8.45799 6.01302 6.81797 7.73802 5.95197C7.83963 5.90218 7.92135 5.81941 7.96983 5.71717C8.0183 5.61492 8.03064 5.49928 8.00486 5.3891C7.97909 5.27892 7.91672 5.18073 7.82792 5.1106C7.73912 5.04047 7.62915 5.00254 7.516 5.00299ZM8.498 8.00299C8.40267 8.00422 8.30971 8.03264 8.23002 8.08496C7.01702 8.86397 6.216 10.207 6.037 11.715C5.858 13.225 6.318 14.741 7.301 15.833C7.34451 15.8835 7.39767 15.9248 7.45735 15.9544C7.51702 15.9841 7.58203 16.0015 7.64854 16.0056C7.71504 16.0098 7.7817 16.0006 7.84461 15.9786C7.90752 15.9567 7.96542 15.9223 8.01487 15.8777C8.06433 15.833 8.10436 15.7789 8.13261 15.7186C8.16086 15.6582 8.17677 15.5928 8.17939 15.5262C8.18201 15.4597 8.17129 15.3933 8.14787 15.3309C8.12445 15.2685 8.0888 15.2114 8.04301 15.163C7.26701 14.301 6.88502 13.063 7.03102 11.833C7.17702 10.603 7.83 9.53001 8.77 8.92701C8.8626 8.86916 8.93374 8.78255 8.97251 8.68049C9.01129 8.57842 9.01558 8.4665 8.98475 8.36176C8.95392 8.25702 8.88963 8.16525 8.80174 8.10047C8.71385 8.03569 8.60717 8.00145 8.498 8.00299Z" fill="currentColor"/>
</svg>
