<svg width="20" height="20" viewBox="0 0 20 20" fill="none" xmlns="http://www.w3.org/2000/svg">
<path d="M3.46424 14.4997C3.40101 14.4962 3.33903 14.4793 3.28185 14.4501C3.22466 14.4208 3.17339 14.3796 3.13097 14.329C3.08855 14.2784 3.0558 14.2192 3.03461 14.1549C3.01341 14.0906 3.00418 14.0225 3.00744 13.9544L3.03628 13.0733V13.0703C3.03692 11.7445 3.35899 10.4419 3.97061 9.29154C4.58223 8.14116 5.46216 7.18288 6.52327 6.51162C7.5828 5.84471 8.78783 5.49326 10.0149 5.49326C11.242 5.49326 12.447 5.84471 13.5066 6.51162C14.57 7.18434 15.4514 8.14531 16.0631 9.29894C16.6749 10.4526 16.9957 11.7587 16.9935 13.0873V13.9724C16.9964 14.0425 16.9861 14.1124 16.9632 14.178C16.9402 14.2436 16.9052 14.3036 16.8603 14.3542C16.8153 14.4049 16.7612 14.4452 16.7014 14.4727C16.6415 14.5003 16.5772 14.5145 16.5121 14.5145C16.447 14.5145 16.3826 14.5003 16.3228 14.4727C16.2629 14.4452 16.2089 14.4049 16.1639 14.3542C16.1189 14.3036 16.0839 14.2436 16.061 14.178C16.0381 14.1124 16.0278 14.0425 16.0306 13.9724V13.0873C16.0327 11.9397 15.7558 10.8115 15.2274 9.81508C14.699 8.81862 13.9376 7.98865 13.019 7.40776C12.1074 6.83307 11.0702 6.53016 10.014 6.53016C8.95776 6.53016 7.92056 6.83307 7.00892 7.40776C6.09059 7.98882 5.32954 8.81889 4.80149 9.81534C4.27345 10.8118 3.99684 11.9399 3.9992 13.0873C3.99868 13.0933 3.99806 13.0993 3.99734 13.1053L3.96943 13.9895C3.96826 14.0589 3.95418 14.1273 3.92802 14.1908C3.90186 14.2542 3.86416 14.3114 3.81715 14.3588C3.77014 14.4063 3.71477 14.4431 3.65431 14.4672C3.59385 14.4912 3.52954 14.5019 3.46518 14.4987L3.46424 14.4997Z" fill="currentColor"/>
</svg>
