<svg width="20" height="20" viewBox="0 0 20 20" fill="none" xmlns="http://www.w3.org/2000/svg">
<path d="M2.5 3C2.36739 3 2.24025 3.05269 2.14648 3.14645C2.05272 3.24022 2 3.36739 2 3.5V9H3V4H5V3H2.5ZM10 3V4H17V9H18V3.5C18 3.36739 17.9473 3.24022 17.8535 3.14645C17.7597 3.05269 17.6326 3 17.5 3H10ZM2 14V16.5C2 16.6326 2.05272 16.7598 2.14648 16.8535C2.24025 16.9473 2.36739 17 2.5 17H5V16H3V14H2ZM17 14V16H10V17H17.5C17.6326 17 17.7597 16.9473 17.8535 16.8535C17.9473 16.7598 18 16.6326 18 16.5V14H17Z" fill="currentColor"/>
<path d="M6 3H9V17H6V3ZM2 10H18V13H2V10Z" fill="currentColor"/>
</svg>
