<svg width="20" height="20" viewBox="0 0 20 20" fill="none" xmlns="http://www.w3.org/2000/svg">
<path d="M8.5 6C8.36739 6 8.24022 6.05269 8.14645 6.14645C8.05269 6.24022 8 6.36739 8 6.5V9H6.5C6.36739 9 6.24022 9.05269 6.14645 9.14645C6.05269 9.24022 6 9.36739 6 9.5V12.5C6 12.6326 6.05269 12.7598 6.14645 12.8535C6.24022 12.9473 6.36739 13 6.5 13H9.5C9.63261 13 9.75978 12.9473 9.85355 12.8535C9.94731 12.7598 10 12.6326 10 12.5V13.5C10 13.6326 10.0527 13.7598 10.1465 13.8535C10.2402 13.9473 10.3674 14 10.5 14H13.5C13.6326 14 13.7598 13.9473 13.8535 13.8535C13.9473 13.7598 14 13.6326 14 13.5V10.5C14 10.3674 13.9473 10.2402 13.8535 10.1465C13.7598 10.0527 13.6326 10 13.5 10H11.5C11.6326 10 11.7598 9.94731 11.8535 9.85355C11.9473 9.75978 12 9.63261 12 9.5V6.5C12 6.36739 11.9473 6.24022 11.8535 6.14645C11.7598 6.05269 11.6326 6 11.5 6H8.5ZM9 7H11V9H9V7ZM7 10H9V12H7V10ZM11 11H13V13H11V11Z" fill="currentColor"/>
<path d="M3.49202 2.99201C3.37582 2.99439 3.26408 3.03718 3.17601 3.11301C3.16921 3.11817 3.16255 3.1235 3.15602 3.129C3.15022 3.13453 3.14455 3.1402 3.13902 3.146C3.13835 3.14733 3.13767 3.14866 3.13701 3.15C3.12582 3.16083 3.11516 3.17218 3.10503 3.18401C3.10435 3.18534 3.10367 3.18667 3.10301 3.18801C3.09345 3.19992 3.08443 3.21227 3.076 3.22501C3.07533 3.22634 3.07468 3.22767 3.07402 3.22901C3.00629 3.33337 2.9799 3.45923 3.00001 3.582V4.5C3.00001 4.63261 3.0527 4.75978 3.14647 4.85355C3.24024 4.94732 3.36741 5 3.50001 5C3.63262 5 3.75979 4.94732 3.85356 4.85355C3.94733 4.75978 4.00001 4.63261 4.00001 4.5V4H4.50001C4.63262 4 4.75979 3.94732 4.85356 3.85355C4.94733 3.75978 5.00001 3.63261 5.00001 3.5C5.00001 3.3674 4.94733 3.24023 4.85356 3.14646C4.75979 3.05269 4.63262 3 4.50001 3H3.58C3.55096 2.99474 3.52153 2.99207 3.49202 2.99201ZM16.492 2.99201C16.4672 2.99283 16.4424 2.9955 16.418 3H15.5C15.3674 3 15.2402 3.05269 15.1465 3.14646C15.0527 3.24023 15 3.3674 15 3.5C15 3.63261 15.0527 3.75978 15.1465 3.85355C15.2402 3.94732 15.3674 4 15.5 4H16V4.5C16 4.63261 16.0527 4.75978 16.1465 4.85355C16.2402 4.94732 16.3674 5 16.5 5C16.6326 5 16.7598 4.94732 16.8536 4.85355C16.9473 4.75978 17 4.63261 17 4.5V3.58001C17.0116 3.5085 17.0074 3.43533 16.9879 3.36557C16.9684 3.29582 16.934 3.23113 16.887 3.176C16.8863 3.17466 16.8857 3.17333 16.885 3.172C16.8752 3.16054 16.8648 3.14954 16.854 3.13901C16.8527 3.13834 16.8514 3.13766 16.85 3.137C16.8392 3.12581 16.8278 3.11513 16.816 3.105C16.8147 3.10433 16.8134 3.10366 16.812 3.103C16.7215 3.0299 16.6084 2.99065 16.492 2.99201ZM6.50001 3C6.36741 3 6.24024 3.05269 6.14647 3.14646C6.0527 3.24023 6.00001 3.3674 6.00001 3.5C6.00001 3.63261 6.0527 3.75978 6.14647 3.85355C6.24024 3.94732 6.36741 4 6.50001 4H7.50001C7.63262 4 7.75979 3.94732 7.85356 3.85355C7.94733 3.75978 8.00001 3.63261 8.00001 3.5C8.00001 3.3674 7.94733 3.24023 7.85356 3.14646C7.75979 3.05269 7.63262 3 7.50001 3H6.50001ZM9.50001 3C9.36741 3 9.24024 3.05269 9.14647 3.14646C9.0527 3.24023 9.00001 3.3674 9.00001 3.5C9.00001 3.63261 9.0527 3.75978 9.14647 3.85355C9.24024 3.94732 9.36741 4 9.50001 4H10.5C10.6326 4 10.7598 3.94732 10.8536 3.85355C10.9473 3.75978 11 3.63261 11 3.5C11 3.3674 10.9473 3.24023 10.8536 3.14646C10.7598 3.05269 10.6326 3 10.5 3H9.50001ZM12.5 3C12.3674 3 12.2402 3.05269 12.1465 3.14646C12.0527 3.24023 12 3.3674 12 3.5C12 3.63261 12.0527 3.75978 12.1465 3.85355C12.2402 3.94732 12.3674 4 12.5 4H13.5C13.6326 4 13.7598 3.94732 13.8536 3.85355C13.9473 3.75978 14 3.63261 14 3.5C14 3.3674 13.9473 3.24023 13.8536 3.14646C13.7598 3.05269 13.6326 3 13.5 3H12.5ZM3.49202 5.99201C3.42636 5.99305 3.36155 6.00702 3.30128 6.03311C3.24102 6.05921 3.18648 6.09692 3.14079 6.14409C3.0951 6.19127 3.05914 6.24698 3.03499 6.30805C3.01083 6.36912 2.99896 6.43434 3.00001 6.5V7.5C3.00001 7.63261 3.0527 7.75978 3.14647 7.85355C3.24024 7.94732 3.36741 8 3.50001 8C3.63262 8 3.75979 7.94732 3.85356 7.85355C3.94733 7.75978 4.00001 7.63261 4.00001 7.5V6.5C4.0011 6.43299 3.98869 6.36645 3.96355 6.30432C3.9384 6.2422 3.90101 6.18577 3.85362 6.13839C3.80623 6.091 3.74982 6.05362 3.6877 6.02848C3.62558 6.00333 3.55903 5.99093 3.49202 5.99201ZM16.492 5.99201C16.4264 5.99305 16.3615 6.00702 16.3013 6.03311C16.241 6.05921 16.1865 6.09692 16.1408 6.14409C16.0951 6.19127 16.0591 6.24698 16.035 6.30805C16.0108 6.36912 15.999 6.43434 16 6.5V7.5C16 7.63261 16.0527 7.75978 16.1465 7.85355C16.2402 7.94732 16.3674 8 16.5 8C16.6326 8 16.7598 7.94732 16.8536 7.85355C16.9473 7.75978 17 7.63261 17 7.5V6.5C17.0011 6.43299 16.9887 6.36645 16.9635 6.30432C16.9384 6.2422 16.901 6.18577 16.8536 6.13839C16.8062 6.091 16.7498 6.05362 16.6877 6.02848C16.6256 6.00333 16.559 5.99093 16.492 5.99201ZM3.49202 8.99201C3.42636 8.99305 3.36155 9.00702 3.30128 9.03311C3.24102 9.05921 3.18648 9.09692 3.14079 9.14409C3.0951 9.19127 3.05914 9.24698 3.03499 9.30805C3.01083 9.36912 2.99896 9.43434 3.00001 9.5V10.5C3.00001 10.6326 3.0527 10.7598 3.14647 10.8535C3.24024 10.9473 3.36741 11 3.50001 11C3.63262 11 3.75979 10.9473 3.85356 10.8535C3.94733 10.7598 4.00001 10.6326 4.00001 10.5V9.5C4.0011 9.43299 3.98869 9.36645 3.96355 9.30432C3.9384 9.2422 3.90101 9.18577 3.85362 9.13839C3.80623 9.091 3.74982 9.05362 3.6877 9.02848C3.62558 9.00333 3.55903 8.99093 3.49202 8.99201ZM16.492 8.99201C16.4264 8.99305 16.3615 9.00702 16.3013 9.03311C16.241 9.05921 16.1865 9.09692 16.1408 9.14409C16.0951 9.19127 16.0591 9.24698 16.035 9.30805C16.0108 9.36912 15.999 9.43434 16 9.5V10.5C16 10.6326 16.0527 10.7598 16.1465 10.8535C16.2402 10.9473 16.3674 11 16.5 11C16.6326 11 16.7598 10.9473 16.8536 10.8535C16.9473 10.7598 17 10.6326 17 10.5V9.5C17.0011 9.43299 16.9887 9.36645 16.9635 9.30432C16.9384 9.2422 16.901 9.18577 16.8536 9.13839C16.8062 9.091 16.7498 9.05362 16.6877 9.02848C16.6256 9.00333 16.559 8.99093 16.492 8.99201ZM3.49202 11.992C3.42636 11.9931 3.36155 12.007 3.30128 12.0331C3.24102 12.0592 3.18648 12.0969 3.14079 12.1441C3.0951 12.1913 3.05914 12.247 3.03499 12.308C3.01083 12.3691 2.99896 12.4343 3.00001 12.5V13.5C3.00001 13.6326 3.0527 13.7598 3.14647 13.8535C3.24024 13.9473 3.36741 14 3.50001 14C3.63262 14 3.75979 13.9473 3.85356 13.8535C3.94733 13.7598 4.00001 13.6326 4.00001 13.5V12.5C4.0011 12.433 3.98869 12.3664 3.96355 12.3043C3.9384 12.2422 3.90101 12.1858 3.85362 12.1384C3.80623 12.091 3.74982 12.0536 3.6877 12.0285C3.62558 12.0033 3.55903 11.9909 3.49202 11.992ZM16.492 11.992C16.4264 11.9931 16.3615 12.007 16.3013 12.0331C16.241 12.0592 16.1865 12.0969 16.1408 12.1441C16.0951 12.1913 16.0591 12.247 16.035 12.308C16.0108 12.3691 15.999 12.4343 16 12.5V13.5C16 13.6326 16.0527 13.7598 16.1465 13.8535C16.2402 13.9473 16.3674 14 16.5 14C16.6326 14 16.7598 13.9473 16.8536 13.8535C16.9473 13.7598 17 13.6326 17 13.5V12.5C17.0011 12.433 16.9887 12.3664 16.9635 12.3043C16.9384 12.2422 16.901 12.1858 16.8536 12.1384C16.8062 12.091 16.7498 12.0536 16.6877 12.0285C16.6256 12.0033 16.559 11.9909 16.492 11.992ZM3.49202 14.992C3.42636 14.9931 3.36155 15.007 3.30128 15.0331C3.24102 15.0592 3.18648 15.0969 3.14079 15.1441C3.0951 15.1913 3.05914 15.247 3.03499 15.308C3.01083 15.3691 2.99896 15.4343 3.00001 15.5V16.42C2.98846 16.4915 2.99259 16.5647 3.0121 16.6344C3.03161 16.7042 3.06605 16.7689 3.11302 16.824C3.11818 16.8308 3.12351 16.8375 3.12901 16.844C3.13454 16.8498 3.14021 16.8555 3.14601 16.861C3.14734 16.8617 3.14867 16.8623 3.15001 16.863C3.16084 16.8742 3.17218 16.8849 3.184 16.895C3.18534 16.8957 3.18667 16.8963 3.188 16.897C3.24277 16.9409 3.30616 16.9727 3.37404 16.9904C3.44192 17.0082 3.51279 17.0114 3.58202 17H4.50001C4.63262 17 4.75979 16.9473 4.85356 16.8535C4.94733 16.7598 5.00001 16.6326 5.00001 16.5C5.00001 16.3674 4.94733 16.2402 4.85356 16.1465C4.75979 16.0527 4.63262 16 4.50001 16H4.00001V15.5C4.0011 15.433 3.98869 15.3664 3.96355 15.3043C3.9384 15.2422 3.90101 15.1858 3.85362 15.1384C3.80623 15.091 3.74982 15.0536 3.6877 15.0285C3.62558 15.0033 3.55903 14.9909 3.49202 14.992ZM16.492 14.992C16.4264 14.9931 16.3615 15.007 16.3013 15.0331C16.241 15.0592 16.1865 15.0969 16.1408 15.1441C16.0951 15.1913 16.0591 15.247 16.035 15.308C16.0108 15.3691 15.999 15.4343 16 15.5V16H15.5C15.3674 16 15.2402 16.0527 15.1465 16.1465C15.0527 16.2402 15 16.3674 15 16.5C15 16.6326 15.0527 16.7598 15.1465 16.8535C15.2402 16.9473 15.3674 17 15.5 17H16.42C16.4915 17.0116 16.5647 17.0074 16.6344 16.9879C16.7042 16.9684 16.7689 16.934 16.824 16.887C16.8254 16.8863 16.8267 16.8857 16.828 16.885C16.8395 16.8752 16.8505 16.8648 16.861 16.854C16.8617 16.8527 16.8624 16.8513 16.863 16.85C16.8742 16.8392 16.8849 16.8278 16.895 16.816C16.8957 16.8147 16.8964 16.8133 16.897 16.812C16.9066 16.8001 16.9156 16.7877 16.924 16.775C16.9247 16.7737 16.9253 16.7723 16.926 16.771C16.9937 16.6666 17.0201 16.5408 17 16.418V15.5C17.0011 15.433 16.9887 15.3664 16.9635 15.3043C16.9384 15.2422 16.901 15.1858 16.8536 15.1384C16.8062 15.091 16.7498 15.0536 16.6877 15.0285C16.6256 15.0033 16.559 14.9909 16.492 14.992ZM6.50001 16C6.36741 16 6.24024 16.0527 6.14647 16.1465C6.0527 16.2402 6.00001 16.3674 6.00001 16.5C6.00001 16.6326 6.0527 16.7598 6.14647 16.8535C6.24024 16.9473 6.36741 17 6.50001 17H7.50001C7.63262 17 7.75979 16.9473 7.85356 16.8535C7.94733 16.7598 8.00001 16.6326 8.00001 16.5C8.00001 16.3674 7.94733 16.2402 7.85356 16.1465C7.75979 16.0527 7.63262 16 7.50001 16H6.50001ZM9.50001 16C9.36741 16 9.24024 16.0527 9.14647 16.1465C9.0527 16.2402 9.00001 16.3674 9.00001 16.5C9.00001 16.6326 9.0527 16.7598 9.14647 16.8535C9.24024 16.9473 9.36741 17 9.50001 17H10.5C10.6326 17 10.7598 16.9473 10.8536 16.8535C10.9473 16.7598 11 16.6326 11 16.5C11 16.3674 10.9473 16.2402 10.8536 16.1465C10.7598 16.0527 10.6326 16 10.5 16H9.50001ZM12.5 16C12.3674 16 12.2402 16.0527 12.1465 16.1465C12.0527 16.2402 12 16.3674 12 16.5C12 16.6326 12.0527 16.7598 12.1465 16.8535C12.2402 16.9473 12.3674 17 12.5 17H13.5C13.6326 17 13.7598 16.9473 13.8536 16.8535C13.9473 16.7598 14 16.6326 14 16.5C14 16.3674 13.9473 16.2402 13.8536 16.1465C13.7598 16.0527 13.6326 16 13.5 16H12.5Z" fill="currentColor"/>
</svg>
