<svg width="20" height="20" viewBox="0 0 20 20" fill="none" xmlns="http://www.w3.org/2000/svg">
<path d="M7.03699 2.98796C6.87433 2.98327 6.71299 3.01834 6.56696 3.09014C6.42093 3.16193 6.29463 3.26834 6.19901 3.40001C2.89301 7.80901 3.01701 14.368 3.01401 15.984C3.01322 16.2492 3.11781 16.5038 3.30478 16.6919C3.49176 16.88 3.74577 16.9862 4.01099 16.987C4.27621 16.9878 4.5309 16.8832 4.719 16.6962C4.9071 16.5092 5.01322 16.2552 5.01401 15.99C5.01801 14.348 5.107 8.19096 7.801 4.59996C7.91415 4.45389 7.98463 4.27932 8.00458 4.09563C8.02454 3.91194 7.9932 3.72635 7.91407 3.55938C7.83493 3.39241 7.7111 3.25063 7.55628 3.14977C7.40146 3.04891 7.2217 2.99288 7.03699 2.98796ZM12.012 5.98998C11.7516 5.9892 11.5012 6.09002 11.314 6.27098C9.06 8.39398 7.94102 10.261 7.42402 11.914C6.90702 13.567 7.00001 14.964 7.00001 16C7.00001 16.2652 7.10538 16.5195 7.29291 16.7071C7.48045 16.8946 7.73479 17 8.00001 17C8.26522 17 8.51956 16.8946 8.7071 16.7071C8.89463 16.5195 9.00001 16.2652 9.00001 16C9.00001 14.864 8.93001 13.797 9.33201 12.512C9.73401 11.227 10.613 9.67899 12.686 7.72899C12.8351 7.59308 12.9396 7.41525 12.9858 7.21886C13.0319 7.02247 13.0176 6.8167 12.9447 6.62859C12.8718 6.44048 12.7437 6.27882 12.5772 6.16484C12.4108 6.05087 12.2137 5.98992 12.012 5.98998ZM15.957 9.99797C15.9005 10.0009 15.8443 10.0086 15.789 10.021C13.332 10.55 11 12.829 11 16C11 16.2652 11.1054 16.5195 11.2929 16.7071C11.4804 16.8946 11.7348 17 12 17C12.2652 17 12.5196 16.8946 12.7071 16.7071C12.8946 16.5195 13 16.2652 13 16C13 13.826 14.668 12.31 16.21 11.979C16.4617 11.9329 16.6862 11.7922 16.8372 11.5856C16.9883 11.3791 17.0544 11.1225 17.0219 10.8686C16.9895 10.6148 16.8611 10.3831 16.663 10.2211C16.4649 10.0592 16.2122 9.97929 15.957 9.99797Z" fill="currentColor"/>
</svg>
