<svg width="20" height="20" viewBox="0 0 20 20" fill="none" xmlns="http://www.w3.org/2000/svg">
<path d="M12.995 3C11.82 3 10.743 3.418 10.11 4.182C10.0642 4.23201 10.0291 4.29081 10.0067 4.35483C9.98435 4.41885 9.97525 4.48674 9.97996 4.55439C9.98467 4.62204 10.0031 4.68802 10.0341 4.74832C10.0651 4.80862 10.1081 4.86199 10.1603 4.90517C10.2126 4.94836 10.2731 4.98045 10.3382 4.99951C10.4033 5.01857 10.4716 5.0242 10.5389 5.01604C10.6062 5.00789 10.6711 4.98613 10.7298 4.95208C10.7884 4.91804 10.8395 4.87242 10.88 4.818C11.255 4.365 12.068 4 12.995 4H14.495C14.6276 4 14.7548 3.94732 14.8486 3.85355C14.9423 3.75979 14.995 3.63261 14.995 3.5C14.995 3.36739 14.9423 3.24021 14.8486 3.14645C14.7548 3.05268 14.6276 3 14.495 3H12.995ZM11.553 6.004C9.826 5.801 8.226 6.125 7.023 6.906C5.819 7.687 5.027 8.955 4.995 10.49V10.5C4.995 11.583 5.279 12.314 5.532 12.889C5.785 13.464 5.985 13.86 5.985 14.5C5.985 14.962 5.878 15.27 5.55 15.527C5.221 15.785 4.588 16 3.495 16C3.36239 16 3.23521 16.0527 3.14145 16.1464C3.04768 16.2402 2.995 16.3674 2.995 16.5C2.995 16.6326 3.04768 16.7598 3.14145 16.8536C3.23521 16.9473 3.36239 17 3.495 17C4.715 17 5.578 16.776 6.167 16.315C6.755 15.853 6.985 15.162 6.985 14.5C6.985 13.64 6.69 13.036 6.448 12.486C6.207 11.938 5.998 11.418 5.997 10.506C6.024 9.294 6.601 8.371 7.567 7.744C8.534 7.116 9.904 6.816 11.437 6.996C13.427 7.23 14.85 8.224 15.54 9.328C16.23 10.432 16.222 11.566 15.391 12.396C14.553 13.234 13.403 13.29 12.307 12.66C11.212 12.03 10.227 10.68 9.993 8.691C9.98532 8.62573 9.96485 8.56262 9.93278 8.50526C9.90071 8.4479 9.85765 8.39742 9.80607 8.3567C9.75448 8.31598 9.69538 8.28582 9.63215 8.26795C9.56891 8.25007 9.50277 8.24482 9.4375 8.2525C9.37223 8.26018 9.30912 8.28064 9.25176 8.31272C9.1944 8.34479 9.14392 8.38785 9.1032 8.43943C9.06248 8.49102 9.03232 8.55012 9.01444 8.61335C8.99657 8.67659 8.99132 8.74273 8.999 8.808C9.265 11.07 10.405 12.72 11.809 13.528C13.214 14.335 14.936 14.265 16.099 13.103C17.268 11.934 17.26 10.193 16.387 8.797C15.515 7.401 13.813 6.27 11.553 6.004Z" fill="currentColor"/>
</svg>
