<svg width="20" height="20" viewBox="0 0 20 20" fill="none" xmlns="http://www.w3.org/2000/svg">
<path d="M7.547 8.16C7.485 8.15863 7.42327 8.1688 7.36499 8.19C6.61226 8.44868 5.97002 8.95592 5.54398 9.62824C5.11794 10.3006 4.9335 11.0979 5.021 11.889C5.11055 12.6801 5.46671 13.4172 6.03086 13.9789C6.595 14.5407 7.33354 14.8938 8.125 14.98C8.91666 15.0643 9.71342 14.8766 10.3843 14.4479C11.0551 14.0191 11.56 13.3749 11.816 12.621C11.8392 12.5583 11.8495 12.4916 11.8465 12.4248C11.8434 12.358 11.827 12.2926 11.7982 12.2322C11.7694 12.1719 11.7288 12.118 11.6788 12.0736C11.6288 12.0293 11.5704 11.9954 11.5071 11.974C11.4438 11.9526 11.3768 11.9441 11.3101 11.949C11.2434 11.954 11.1784 11.9722 11.119 12.0027C11.0595 12.0332 11.0067 12.0753 10.9638 12.1265C10.9208 12.1778 10.8886 12.2371 10.869 12.301C10.6873 12.8403 10.3268 13.3014 9.8472 13.6078C9.36763 13.9143 8.79776 14.0477 8.232 13.986C7.66621 13.9254 7.13811 13.6734 6.73511 13.2716C6.33211 12.8699 6.07839 12.3426 6.01599 11.777C5.95198 11.2119 6.08298 10.6419 6.38724 10.1614C6.6915 9.68089 7.15078 9.31877 7.689 9.13501C7.80094 9.09836 7.89635 9.02337 7.95841 8.92325C8.02047 8.82313 8.04521 8.70433 8.02823 8.58777C8.01126 8.47121 7.95367 8.36436 7.86563 8.2861C7.7776 8.20785 7.66475 8.1632 7.547 8.16Z" fill="currentColor"/>
<path d="M7.521 6.09401C7.49243 6.09491 7.464 6.09826 7.43601 6.10402C6.13321 6.36219 4.96766 7.08264 4.15427 8.13255C3.34088 9.18246 2.93449 10.491 3.01001 11.817C3.08749 13.1427 3.64159 14.3958 4.57019 15.3452C5.49879 16.2945 6.73928 16.8762 8.06299 16.983C9.38693 17.0874 10.704 16.7097 11.7713 15.9194C12.8387 15.1292 13.5844 13.9798 13.871 12.683C13.8881 12.6179 13.8918 12.5499 13.882 12.4833C13.8721 12.4167 13.8489 12.3527 13.8138 12.2952C13.7786 12.2378 13.7322 12.188 13.6773 12.149C13.6224 12.1099 13.5602 12.0823 13.4944 12.0679C13.4286 12.0535 13.3606 12.0525 13.2944 12.065C13.2282 12.0775 13.1652 12.1033 13.1093 12.1408C13.0533 12.1782 13.0054 12.2266 12.9686 12.283C12.9318 12.3394 12.9067 12.4027 12.895 12.469C12.6626 13.5311 12.053 14.4729 11.1792 15.1198C10.3054 15.7667 9.22666 16.0748 8.14301 15.987C7.05887 15.9014 6.04249 15.4258 5.2822 14.6482C4.5219 13.8706 4.06921 12.8438 4.008 11.758C3.94407 10.6729 4.27562 9.60136 4.94122 8.74196C5.60683 7.88256 6.56136 7.29355 7.62799 7.08403C7.75006 7.0593 7.85851 6.98987 7.9321 6.88939C8.00569 6.7889 8.03914 6.66457 8.02588 6.54073C8.01262 6.41688 7.95361 6.30246 7.86041 6.21983C7.76721 6.13721 7.64654 6.09233 7.522 6.09401H7.521Z" fill="currentColor"/>
<path d="M14.492 2.99999C14.3621 3.00185 14.238 3.05421 14.146 3.14598L9.14601 8.14598C9.0996 8.1925 9.06284 8.24772 9.03779 8.30846C9.01274 8.3692 8.99989 8.43428 9.00001 8.49999V10.293L8.14601 11.146C7.65601 11.618 8.38201 12.344 8.85401 11.854L9.70701 11H11.5C11.5657 11.0001 11.6308 10.9873 11.6915 10.9622C11.7523 10.9372 11.8075 10.9004 11.854 10.854L16.854 5.85399C16.9006 5.80754 16.9375 5.75235 16.9627 5.69161C16.9879 5.63086 17.0009 5.56575 17.0009 5.49999C17.0009 5.43422 16.9879 5.36911 16.9627 5.30837C16.9375 5.24762 16.9006 5.19243 16.854 5.14598L14.854 3.14598C14.8065 3.09862 14.75 3.06129 14.6878 3.03621C14.6257 3.01113 14.5591 2.9988 14.492 2.99999Z" fill="currentColor"/>
</svg>
