<svg width="20" height="20" viewBox="0 0 20 20" fill="none" xmlns="http://www.w3.org/2000/svg">
<path d="M9.997 5.00598C8.151 5.00598 6.43499 5.53199 5.15099 6.41199C3.86799 7.29199 2.997 8.56198 2.997 10.006C2.997 11.449 3.86699 12.719 5.15099 13.6C6.43499 14.48 8.151 15.006 9.997 15.006C11.843 15.006 13.559 14.48 14.843 13.6C16.126 12.72 16.997 11.45 16.997 10.006C16.997 8.56298 16.127 7.29299 14.843 6.41199C13.559 5.53199 11.843 5.00598 9.997 5.00598ZM12.489 8.62299C12.556 8.6219 12.6226 8.63431 12.6847 8.65945C12.7468 8.6846 12.8032 8.72196 12.8506 8.76935C12.898 8.81674 12.9354 8.87318 12.9605 8.9353C12.9857 8.99742 12.9981 9.06397 12.997 9.13098C12.997 9.75198 12.557 10.24 12.013 10.541C11.467 10.842 10.769 11.006 9.997 11.006C9.225 11.006 8.52701 10.842 7.98101 10.541C7.43601 10.24 6.997 9.75198 6.997 9.13098C6.99621 9.06532 7.00837 9.00014 7.03277 8.93918C7.05717 8.87821 7.09331 8.82265 7.13918 8.77567C7.18506 8.72868 7.23974 8.69117 7.3001 8.66531C7.36047 8.63946 7.42533 8.62575 7.49099 8.62497C7.55766 8.62416 7.62385 8.63672 7.6856 8.66187C7.74735 8.68701 7.80343 8.72425 7.85058 8.77139C7.89773 8.81854 7.93499 8.87465 7.96014 8.9364C7.98528 8.99816 7.99781 9.06431 7.997 9.13098C7.997 9.26798 8.111 9.46999 8.466 9.66599C8.821 9.86199 9.372 10.006 9.997 10.006C10.622 10.006 11.173 9.86199 11.528 9.66599C11.883 9.46999 11.997 9.26798 11.997 9.13098C11.9959 9.06532 12.0078 9.00009 12.032 8.93903C12.0561 8.87796 12.0921 8.82223 12.1378 8.77505C12.1835 8.72788 12.238 8.69019 12.2983 8.66409C12.3585 8.638 12.4233 8.62403 12.489 8.62299Z" fill="currentColor"/>
<path d="M3.49499 3C3.36238 3 3.23521 3.05269 3.14144 3.14645C3.04767 3.24022 2.99499 3.36739 2.99499 3.5V5.5C2.99499 5.63261 3.04767 5.75981 3.14144 5.85358C3.23521 5.94734 3.36238 6 3.49499 6H4.49499C4.6276 6 4.7548 5.94734 4.84856 5.85358C4.94233 5.75981 4.99499 5.63261 4.99499 5.5C4.99499 5.36739 4.94233 5.24022 4.84856 5.14645C4.7548 5.05269 4.6276 5 4.49499 5H3.99499V4H4.99499V4.5C4.99499 4.63261 5.04767 4.75981 5.14144 4.85358C5.23521 4.94734 5.36238 5 5.49499 5C5.6276 5 5.7548 4.94734 5.84856 4.85358C5.94233 4.75981 5.99499 4.63261 5.99499 4.5V3.5C5.99499 3.36739 5.94233 3.24022 5.84856 3.14645C5.7548 3.05269 5.6276 3 5.49499 3H3.49499ZM14.505 3C14.3724 3 14.2452 3.05269 14.1515 3.14645C14.0577 3.24022 14.005 3.36739 14.005 3.5V4.5C14.005 4.63261 14.0577 4.75981 14.1515 4.85358C14.2452 4.94734 14.3724 5 14.505 5C14.6376 5 14.7648 4.94734 14.8585 4.85358C14.9523 4.75981 15.005 4.63261 15.005 4.5V4H16.005V5H15.505C15.3724 5 15.2452 5.05269 15.1515 5.14645C15.0577 5.24022 15.005 5.36739 15.005 5.5C15.005 5.63261 15.0577 5.75981 15.1515 5.85358C15.2452 5.94734 15.3724 6 15.505 6H16.505C16.6376 6 16.7648 5.94734 16.8585 5.85358C16.9523 5.75981 17.005 5.63261 17.005 5.5V3.5C17.005 3.36739 16.9523 3.24022 16.8585 3.14645C16.7648 3.05269 16.6376 3 16.505 3H14.505ZM3.49499 14C3.36238 14 3.23521 14.0527 3.14144 14.1465C3.04767 14.2402 2.99499 14.3674 2.99499 14.5V16.5C2.99499 16.6326 3.04767 16.7598 3.14144 16.8536C3.23521 16.9473 3.36238 17 3.49499 17H5.49499C5.6276 17 5.7548 16.9473 5.84856 16.8536C5.94233 16.7598 5.99499 16.6326 5.99499 16.5V15.5C5.99499 15.3674 5.94233 15.2402 5.84856 15.1465C5.7548 15.0527 5.6276 15 5.49499 15C5.36238 15 5.23521 15.0527 5.14144 15.1465C5.04767 15.2402 4.99499 15.3674 4.99499 15.5V16H3.99499V15H4.49499C4.6276 15 4.7548 14.9473 4.84856 14.8536C4.94233 14.7598 4.99499 14.6326 4.99499 14.5C4.99499 14.3674 4.94233 14.2402 4.84856 14.1465C4.7548 14.0527 4.6276 14 4.49499 14H3.49499ZM15.505 14C15.3724 14 15.2452 14.0527 15.1515 14.1465C15.0577 14.2402 15.005 14.3674 15.005 14.5C15.005 14.6326 15.0577 14.7598 15.1515 14.8536C15.2452 14.9473 15.3724 15 15.505 15H16.005V16H15.005V15.5C15.005 15.3674 14.9523 15.2402 14.8585 15.1465C14.7648 15.0527 14.6376 15 14.505 15C14.3724 15 14.2452 15.0527 14.1515 15.1465C14.0577 15.2402 14.005 15.3674 14.005 15.5V16.5C14.005 16.6326 14.0577 16.7598 14.1515 16.8536C14.2452 16.9473 14.3724 17 14.505 17H16.505C16.6376 17 16.7648 16.9473 16.8585 16.8536C16.9523 16.7598 17.005 16.6326 17.005 16.5V14.5C17.005 14.3674 16.9523 14.2402 16.8585 14.1465C16.7648 14.0527 16.6376 14 16.505 14H15.505Z" fill="currentColor"/>
</svg>
