<svg width="20" height="20" viewBox="0 0 20 20" fill="none" xmlns="http://www.w3.org/2000/svg">
<path d="M9.997 4.00601C6.689 4.00601 3.997 6.69801 3.997 10.006C3.997 13.314 6.689 16.006 9.997 16.006C13.305 16.006 15.997 13.314 15.997 10.006C15.997 6.69801 13.305 4.00601 9.997 4.00601ZM14.755 10.74C14.8641 10.737 14.9713 10.7697 15.06 10.8332C15.1488 10.8968 15.2143 10.9876 15.2466 11.0919C15.2789 11.1961 15.2762 11.3081 15.2389 11.4107C15.2016 11.5133 15.1317 11.6008 15.04 11.66C13.878 12.5 12.042 13.01 9.997 13.01C7.953 13.01 6.117 12.5 4.954 11.662C4.86851 11.6027 4.80365 11.5182 4.76846 11.4203C4.73326 11.3224 4.72948 11.2159 4.75765 11.1158C4.78583 11.0156 4.84457 10.9267 4.92565 10.8615C5.00673 10.7963 5.10614 10.758 5.21001 10.752C5.32815 10.7446 5.44507 10.7793 5.54 10.85C6.439 11.498 8.127 12.01 9.997 12.01C11.869 12.01 13.556 11.501 14.454 10.852C14.539 10.7828 14.6444 10.7435 14.754 10.74H14.755Z" fill="currentColor"/>
<path d="M3.49499 3C3.36238 3 3.23521 3.05269 3.14144 3.14645C3.04767 3.24022 2.99499 3.36739 2.99499 3.5V5.5C2.99499 5.63261 3.04767 5.75981 3.14144 5.85358C3.23521 5.94734 3.36238 6 3.49499 6H4.49499C4.6276 6 4.7548 5.94734 4.84856 5.85358C4.94233 5.75981 4.99499 5.63261 4.99499 5.5C4.99499 5.36739 4.94233 5.24022 4.84856 5.14645C4.7548 5.05269 4.6276 5 4.49499 5H3.99499V4H4.99499V4.5C4.99499 4.63261 5.04767 4.75981 5.14144 4.85358C5.23521 4.94734 5.36238 5 5.49499 5C5.6276 5 5.7548 4.94734 5.84856 4.85358C5.94233 4.75981 5.99499 4.63261 5.99499 4.5V3.5C5.99499 3.36739 5.94233 3.24022 5.84856 3.14645C5.7548 3.05269 5.6276 3 5.49499 3H3.49499ZM14.505 3C14.3724 3 14.2452 3.05269 14.1515 3.14645C14.0577 3.24022 14.005 3.36739 14.005 3.5V4.5C14.005 4.63261 14.0577 4.75981 14.1515 4.85358C14.2452 4.94734 14.3724 5 14.505 5C14.6376 5 14.7648 4.94734 14.8585 4.85358C14.9523 4.75981 15.005 4.63261 15.005 4.5V4H16.005V5H15.505C15.3724 5 15.2452 5.05269 15.1515 5.14645C15.0577 5.24022 15.005 5.36739 15.005 5.5C15.005 5.63261 15.0577 5.75981 15.1515 5.85358C15.2452 5.94734 15.3724 6 15.505 6H16.505C16.6376 6 16.7648 5.94734 16.8585 5.85358C16.9523 5.75981 17.005 5.63261 17.005 5.5V3.5C17.005 3.36739 16.9523 3.24022 16.8585 3.14645C16.7648 3.05269 16.6376 3 16.505 3H14.505ZM3.49499 14C3.36238 14 3.23521 14.0527 3.14144 14.1465C3.04767 14.2402 2.99499 14.3674 2.99499 14.5V16.5C2.99499 16.6326 3.04767 16.7598 3.14144 16.8536C3.23521 16.9473 3.36238 17 3.49499 17H5.49499C5.6276 17 5.7548 16.9473 5.84856 16.8536C5.94233 16.7598 5.99499 16.6326 5.99499 16.5V15.5C5.99499 15.3674 5.94233 15.2402 5.84856 15.1465C5.7548 15.0527 5.6276 15 5.49499 15C5.36238 15 5.23521 15.0527 5.14144 15.1465C5.04767 15.2402 4.99499 15.3674 4.99499 15.5V16H3.99499V15H4.49499C4.6276 15 4.7548 14.9473 4.84856 14.8536C4.94233 14.7598 4.99499 14.6326 4.99499 14.5C4.99499 14.3674 4.94233 14.2402 4.84856 14.1465C4.7548 14.0527 4.6276 14 4.49499 14H3.49499ZM15.505 14C15.3724 14 15.2452 14.0527 15.1515 14.1465C15.0577 14.2402 15.005 14.3674 15.005 14.5C15.005 14.6326 15.0577 14.7598 15.1515 14.8536C15.2452 14.9473 15.3724 15 15.505 15H16.005V16H15.005V15.5C15.005 15.3674 14.9523 15.2402 14.8585 15.1465C14.7648 15.0527 14.6376 15 14.505 15C14.3724 15 14.2452 15.0527 14.1515 15.1465C14.0577 15.2402 14.005 15.3674 14.005 15.5V16.5C14.005 16.6326 14.0577 16.7598 14.1515 16.8536C14.2452 16.9473 14.3724 17 14.505 17H16.505C16.6376 17 16.7648 16.9473 16.8585 16.8536C16.9523 16.7598 17.005 16.6326 17.005 16.5V14.5C17.005 14.3674 16.9523 14.2402 16.8585 14.1465C16.7648 14.0527 16.6376 14 16.505 14H15.505Z" fill="currentColor"/>
</svg>
