<svg width="20" height="20" viewBox="0 0 20 20" fill="none" xmlns="http://www.w3.org/2000/svg">
<path d="M16.06 4.01802C15.0014 4.01607 13.9608 4.29124 13.0415 4.81614C12.1222 5.34104 11.3564 6.09738 10.82 7.01002C10.2886 7.9194 10.0085 8.95375 10.0085 10.007C10.0085 11.0603 10.2886 12.0946 10.82 13.004C11.3564 13.9166 12.1222 14.673 13.0415 15.1979C13.9608 15.7228 15.0014 15.998 16.06 15.996L16.491 16.006C16.5575 16.0074 16.6236 15.9954 16.6854 15.9709C16.7472 15.9463 16.8035 15.9097 16.851 15.8632C16.8985 15.8166 16.9363 15.761 16.962 15.6997C16.9878 15.6384 17.001 15.5725 17.001 15.506L16.997 4.52201C16.997 4.3901 16.9449 4.26353 16.852 4.16987C16.7591 4.07622 16.6329 4.02307 16.501 4.02201L16.063 4.01802H16.059H16.06Z" fill="currentColor"/>
<path d="M3.499 3C3.36639 3 3.23921 3.05269 3.14545 3.14645C3.05168 3.24022 2.999 3.36739 2.999 3.5V5.5C2.999 5.63261 3.05168 5.75981 3.14545 5.85358C3.23921 5.94734 3.36639 6 3.499 6H4.001V14H3.499C3.36639 14 3.23921 14.0527 3.14545 14.1465C3.05168 14.2402 2.999 14.3674 2.999 14.5V16.5C2.999 16.6326 3.05168 16.7598 3.14545 16.8536C3.23921 16.9473 3.36639 17 3.499 17H5.499C5.63161 17 5.75879 16.9473 5.85255 16.8536C5.94632 16.7598 5.999 16.6326 5.999 16.5V16.006H11.001C11.677 16.016 11.677 14.996 11.001 15.006H5.999V14.5C5.999 14.3674 5.94632 14.2402 5.85255 14.1465C5.75879 14.0527 5.63161 14 5.499 14H5.001V6H5.499C5.63161 6 5.75879 5.94734 5.85255 5.85358C5.94632 5.75981 5.999 5.63261 5.999 5.5V5.00601H11.001C11.677 5.01601 11.677 3.99601 11.001 4.00601H5.999V3.5C5.999 3.36739 5.94632 3.24022 5.85255 3.14645C5.75879 3.05269 5.63161 3 5.499 3H3.499ZM3.999 4H4.999V5H3.999V4ZM3.999 15H4.999V16H3.999V15Z" fill="currentColor"/>
</svg>
