<svg width="20" height="20" viewBox="0 0 20 20" fill="none" xmlns="http://www.w3.org/2000/svg">
<path d="M8.503 4.00601C8.43011 4.00609 8.35809 4.02211 8.29203 4.05295C8.22598 4.08378 8.16749 4.12868 8.12062 4.18451C8.07374 4.24034 8.03964 4.30574 8.0207 4.37613C8.00177 4.44652 7.99846 4.5202 8.011 4.59201C8.375 6.66501 8.206 7.70202 7.90299 8.22202C7.59999 8.74402 7.113 8.909 6.443 9.164C5.773 9.419 4.933 9.787 4.46 10.754C3.986 11.721 3.869 13.161 4.253 15.584C4.27158 15.7017 4.33153 15.8088 4.4221 15.8862C4.51266 15.9635 4.62788 16.006 4.74699 16.006H11.503C11.5753 16.006 11.6467 15.9904 11.7123 15.9601C11.778 15.9299 11.8362 15.8858 11.8832 15.8309C11.9301 15.7759 11.9647 15.7115 11.9843 15.6419C12.0039 15.5724 12.0083 15.4994 11.997 15.428C11.628 13.1 11.79 11.852 12.112 11.193C12.434 10.535 12.905 10.343 13.548 10.098C14.19 9.85302 15.018 9.57801 15.513 8.72501C16.008 7.87101 16.122 6.59701 15.739 4.42001C15.7188 4.30417 15.6584 4.19916 15.5684 4.12344C15.4784 4.04773 15.3646 4.00614 15.247 4.00601H8.503Z" fill="currentColor"/>
<path d="M3.49499 3C3.36238 3 3.23521 3.05269 3.14144 3.14645C3.04767 3.24022 2.99499 3.36739 2.99499 3.5V5.5C2.99499 5.63261 3.04767 5.75981 3.14144 5.85358C3.23521 5.94734 3.36238 6 3.49499 6H5.49499C5.6276 6 5.7548 5.94734 5.84856 5.85358C5.94233 5.75981 5.99499 5.63261 5.99499 5.5V3.5C5.99499 3.36739 5.94233 3.24022 5.84856 3.14645C5.7548 3.05269 5.6276 3 5.49499 3H3.49499ZM3.99499 4H4.99499V5H3.99499V4ZM14.505 14C14.3724 14 14.2452 14.0527 14.1515 14.1465C14.0577 14.2402 14.005 14.3674 14.005 14.5V16.5C14.005 16.6326 14.0577 16.7598 14.1515 16.8536C14.2452 16.9473 14.3724 17 14.505 17H16.505C16.6376 17 16.7648 16.9473 16.8585 16.8536C16.9523 16.7598 17.005 16.6326 17.005 16.5V14.5C17.005 14.3674 16.9523 14.2402 16.8585 14.1465C16.7648 14.0527 16.6376 14 16.505 14H14.505ZM15.005 15H16.005V16H15.005V15Z" fill="currentColor"/>
</svg>
