<svg width="20" height="20" viewBox="0 0 20 20" fill="none" xmlns="http://www.w3.org/2000/svg">
<path d="M9.997 5.00601C8.697 5.00601 7.517 5.22602 6.618 5.61002C6.168 5.80202 5.78699 6.033 5.49499 6.328C5.20299 6.623 4.997 7.00602 4.997 7.43002V12.582C4.997 13.006 5.20299 13.389 5.49499 13.684C5.78699 13.979 6.169 14.21 6.618 14.402C7.517 14.787 8.697 15.006 9.997 15.006C11.297 15.006 12.477 14.786 13.376 14.402C13.826 14.21 14.207 13.979 14.499 13.684C14.791 13.389 14.997 13.006 14.997 12.582V7.43002C14.997 7.00602 14.791 6.623 14.499 6.328C14.207 6.033 13.825 5.80202 13.376 5.61002C12.477 5.22502 11.297 5.00601 9.997 5.00601ZM9.997 6.00601C11.009 6.00601 11.922 6.13902 12.617 6.34802C12.963 6.45202 13.257 6.57302 13.497 6.73102C13.738 6.88902 13.997 7.11301 13.997 7.50601C13.997 7.89901 13.738 8.12301 13.497 8.28101C13.2235 8.45011 12.9271 8.57909 12.617 8.664C11.922 8.873 11.009 9.00601 9.997 9.00601C8.985 9.00601 8.07201 8.873 7.37701 8.664C7.06686 8.57909 6.7705 8.45011 6.497 8.28101C6.256 8.12301 5.997 7.89901 5.997 7.50601C5.997 7.11301 6.256 6.88902 6.497 6.73102C6.738 6.57302 7.03101 6.45202 7.37701 6.34802C8.07201 6.13902 8.985 6.00601 9.997 6.00601Z" fill="currentColor"/>
<path d="M3.49499 3C3.36238 3 3.23521 3.05269 3.14144 3.14645C3.04767 3.24022 2.99499 3.36739 2.99499 3.5V5.5C2.99499 5.63261 3.04767 5.75981 3.14144 5.85358C3.23521 5.94734 3.36238 6 3.49499 6H4.49499C4.6276 6 4.7548 5.94734 4.84856 5.85358C4.94233 5.75981 4.99499 5.63261 4.99499 5.5C4.99499 5.36739 4.94233 5.24022 4.84856 5.14645C4.7548 5.05269 4.6276 5 4.49499 5H3.99499V4H4.99499V4.5C4.99499 4.63261 5.04767 4.75981 5.14144 4.85358C5.23521 4.94734 5.36238 5 5.49499 5C5.6276 5 5.7548 4.94734 5.84856 4.85358C5.94233 4.75981 5.99499 4.63261 5.99499 4.5V3.5C5.99499 3.36739 5.94233 3.24022 5.84856 3.14645C5.7548 3.05269 5.6276 3 5.49499 3H3.49499ZM14.505 3C14.3724 3 14.2452 3.05269 14.1515 3.14645C14.0577 3.24022 14.005 3.36739 14.005 3.5V4.5C14.005 4.63261 14.0577 4.75981 14.1515 4.85358C14.2452 4.94734 14.3724 5 14.505 5C14.6376 5 14.7648 4.94734 14.8585 4.85358C14.9523 4.75981 15.005 4.63261 15.005 4.5V4H16.005V5H15.505C15.3724 5 15.2452 5.05269 15.1515 5.14645C15.0577 5.24022 15.005 5.36739 15.005 5.5C15.005 5.63261 15.0577 5.75981 15.1515 5.85358C15.2452 5.94734 15.3724 6 15.505 6H16.505C16.6376 6 16.7648 5.94734 16.8585 5.85358C16.9523 5.75981 17.005 5.63261 17.005 5.5V3.5C17.005 3.36739 16.9523 3.24022 16.8585 3.14645C16.7648 3.05269 16.6376 3 16.505 3H14.505ZM3.49499 14C3.36238 14 3.23521 14.0527 3.14144 14.1465C3.04767 14.2402 2.99499 14.3674 2.99499 14.5V16.5C2.99499 16.6326 3.04767 16.7598 3.14144 16.8536C3.23521 16.9473 3.36238 17 3.49499 17H5.49499C5.6276 17 5.7548 16.9473 5.84856 16.8536C5.94233 16.7598 5.99499 16.6326 5.99499 16.5V15.5C5.99499 15.3674 5.94233 15.2402 5.84856 15.1465C5.7548 15.0527 5.6276 15 5.49499 15C5.36238 15 5.23521 15.0527 5.14144 15.1465C5.04767 15.2402 4.99499 15.3674 4.99499 15.5V16H3.99499V15H4.49499C4.6276 15 4.7548 14.9473 4.84856 14.8536C4.94233 14.7598 4.99499 14.6326 4.99499 14.5C4.99499 14.3674 4.94233 14.2402 4.84856 14.1465C4.7548 14.0527 4.6276 14 4.49499 14H3.49499ZM15.505 14C15.3724 14 15.2452 14.0527 15.1515 14.1465C15.0577 14.2402 15.005 14.3674 15.005 14.5C15.005 14.6326 15.0577 14.7598 15.1515 14.8536C15.2452 14.9473 15.3724 15 15.505 15H16.005V16H15.005V15.5C15.005 15.3674 14.9523 15.2402 14.8585 15.1465C14.7648 15.0527 14.6376 15 14.505 15C14.3724 15 14.2452 15.0527 14.1515 15.1465C14.0577 15.2402 14.005 15.3674 14.005 15.5V16.5C14.005 16.6326 14.0577 16.7598 14.1515 16.8536C14.2452 16.9473 14.3724 17 14.505 17H16.505C16.6376 17 16.7648 16.9473 16.8585 16.8536C16.9523 16.7598 17.005 16.6326 17.005 16.5V14.5C17.005 14.3674 16.9523 14.2402 16.8585 14.1465C16.7648 14.0527 16.6376 14 16.505 14H15.505Z" fill="currentColor"/>
</svg>
