<svg width="20" height="20" viewBox="0 0 20 20" fill="none" xmlns="http://www.w3.org/2000/svg">
<path d="M6.74597 3C6.63488 3.00014 6.52703 3.03726 6.43939 3.10553C6.35175 3.1738 6.28935 3.26934 6.26202 3.37701L3.01599 16.127C3.00557 16.1672 3.00021 16.2085 3 16.25V16.5C3 16.6326 3.05266 16.7598 3.14642 16.8536C3.24019 16.9473 3.36739 17 3.5 17C3.63261 17 3.75981 16.9473 3.85358 16.8536C3.94734 16.7598 4 16.6326 4 16.5V16.312L4.84998 12.979C4.89862 12.9936 4.94922 13.0007 5 13H9C9.05006 13.0008 9.09996 12.994 9.14801 12.98H9.15002L10 16.312V16.5C10 16.6326 10.0527 16.7598 10.1464 16.8536C10.2402 16.9473 10.3674 17 10.5 17C10.6326 17 10.7598 16.9473 10.8536 16.8536C10.9473 16.7598 11 16.6326 11 16.5V16.25C10.9998 16.2085 10.9944 16.1672 10.984 16.127L7.72998 3.37701C7.70265 3.26934 7.64025 3.1738 7.55261 3.10553C7.46497 3.03726 7.35706 3.00014 7.24597 3H6.74597ZM6.99597 4.54498L8.89801 12H5.09802L6.99597 4.54498Z" fill="currentColor"/>
<path d="M13 16V11H14.5C15.335 11 16 11.664 16 12.498V14.506C16 15.34 15.335 16.004 14.5 16.002L13 16ZM17 14.506V12.498C16.9979 11.8358 16.7338 11.2013 16.2653 10.7333C15.7969 10.2652 15.1622 10.0016 14.5 10H13V3.5C13 3.36739 12.9473 3.24021 12.8535 3.14645C12.7598 3.05268 12.6326 3 12.5 3C12.3674 3 12.2402 3.05268 12.1465 3.14645C12.0527 3.24021 12 3.36739 12 3.5V16.5C12 16.6326 12.0527 16.7598 12.1465 16.8536C12.2402 16.9473 12.3674 17 12.5 17L14.5 17.002C15.1621 17.0012 15.7969 16.7381 16.2655 16.2703C16.734 15.8025 16.9981 15.1681 17 14.506Z" fill="currentColor"/>
</svg>
