<svg width="20" height="20" viewBox="0 0 20 20" fill="none" xmlns="http://www.w3.org/2000/svg">
<path d="M3 3V11H17V3H3ZM5.508 5H14.492C15.168 4.99 15.168 6.01 14.492 6H5.508C4.832 6.01 4.832 4.99 5.508 5ZM5.508 8H14.492C15.168 7.99 15.168 9.01 14.492 9H5.508C4.832 9.01 4.832 7.99 5.508 8Z" fill="currentColor"/>
<path d="M5.508 13C5.37539 13 5.24822 13.0527 5.15445 13.1464C5.06068 13.2402 5.008 13.3674 5.008 13.5C5.008 13.6326 5.06068 13.7598 5.15445 13.8536C5.24822 13.9473 5.37539 14 5.508 14H14.492C14.6246 14 14.7518 13.9473 14.8456 13.8536C14.9393 13.7598 14.992 13.6326 14.992 13.5C14.992 13.3674 14.9393 13.2402 14.8456 13.1464C14.7518 13.0527 14.6246 13 14.492 13H5.508ZM5.508 16C5.37539 16 5.24822 16.0527 5.15445 16.1464C5.06068 16.2402 5.008 16.3674 5.008 16.5C5.008 16.6326 5.06068 16.7598 5.15445 16.8536C5.24822 16.9473 5.37539 17 5.508 17H14.492C14.6246 17 14.7518 16.9473 14.8456 16.8536C14.9393 16.7598 14.992 16.6326 14.992 16.5C14.992 16.3674 14.9393 16.2402 14.8456 16.1464C14.7518 16.0527 14.6246 16 14.492 16H5.508Z" fill="currentColor"/>
</svg>
