<svg width="20" height="20" viewBox="0 0 20 20" fill="none" xmlns="http://www.w3.org/2000/svg">
<path d="M10 4C11.5913 4 13.1174 4.63214 14.2426 5.75736C15.3679 6.88258 16 8.4087 16 10C16 11.5913 15.3679 13.1174 14.2426 14.2426C13.1174 15.3679 11.5913 16 10 16" fill="currentColor"/>
<path d="M4 11C4.55228 11 5 10.5523 5 10C5 9.44772 4.55228 9 4 9C3.44772 9 3 9.44772 3 10C3 10.5523 3.44772 11 4 11Z" fill="currentColor"/>
<path d="M4.80399 8C5.35627 8 5.80399 7.55228 5.80399 7C5.80399 6.44772 5.35627 6 4.80399 6C4.2517 6 3.80399 6.44772 3.80399 7C3.80399 7.55228 4.2517 8 4.80399 8Z" fill="currentColor"/>
<path d="M7 5.80402C7.55228 5.80402 8 5.3563 8 4.80402C8 4.25173 7.55228 3.80402 7 3.80402C6.44772 3.80402 6 4.25173 6 4.80402C6 5.3563 6.44772 5.80402 7 5.80402Z" fill="currentColor"/>
<path d="M4.80399 12C5.35627 12 5.80399 12.4477 5.80399 13C5.80399 13.5523 5.35627 14 4.80399 14C4.2517 14 3.80399 13.5523 3.80399 13C3.80399 12.4477 4.2517 12 4.80399 12Z" fill="currentColor"/>
<path d="M7 14.196C7.55228 14.196 8 14.6438 8 15.196C8 15.7483 7.55228 16.196 7 16.196C6.44772 16.196 6 15.7483 6 15.196C6 14.6438 6.44772 14.196 7 14.196Z" fill="currentColor"/>
<path d="M12.5 10.5H9.5V7.5" fill="currentColor"/>
</svg>
