<svg width="20" height="20" viewBox="0 0 20 20" fill="none" xmlns="http://www.w3.org/2000/svg">
<path d="M10 3.5C9.177 3.5 8.5 4.177 8.5 5C8.5 5.823 9.177 6.5 10 6.5C10.823 6.5 11.5 5.823 11.5 5C11.5 4.177 10.823 3.5 10 3.5ZM10 8.5C9.177 8.5 8.5 9.177 8.5 10C8.5 10.823 9.177 11.5 10 11.5C10.823 11.5 11.5 10.823 11.5 10C11.5 9.177 10.823 8.5 10 8.5ZM10 13.5C9.177 13.5 8.5 14.177 8.5 15C8.5 15.823 9.177 16.5 10 16.5C10.823 16.5 11.5 15.823 11.5 15C11.5 14.177 10.823 13.5 10 13.5Z" fill="currentColor"/>
</svg>
