<svg width="20" height="20" viewBox="0 0 20 20" fill="none" xmlns="http://www.w3.org/2000/svg">
<path d="M10 3C6.14 3 3 6.139 3 10C3 13.86 6.14 17 10 17C13.86 17 17 13.86 17 10C17 6.139 13.86 3 10 3ZM12.962 4.99701C13.0955 4.99165 13.2287 5.01308 13.3537 5.06006C13.4788 5.10703 13.5932 5.1786 13.6901 5.27051C13.787 5.36242 13.8646 5.47281 13.9182 5.59518C13.9717 5.71756 14.0003 5.84943 14.002 5.983C14.005 6.20851 13.9317 6.4284 13.794 6.60699L11.218 10.042L12.825 12.452C12.8979 12.5613 12.9485 12.6838 12.9741 12.8127C12.9996 12.9415 12.9995 13.0741 12.9738 13.2029C12.948 13.3317 12.8972 13.4541 12.8242 13.5633C12.7511 13.6724 12.6573 13.7661 12.548 13.839C12.4387 13.9119 12.3162 13.9625 12.1873 13.9881C12.0585 14.0136 11.9259 14.0135 11.7971 13.9878C11.6683 13.962 11.5459 13.9112 11.4367 13.8381C11.3276 13.7651 11.2339 13.6713 11.161 13.562L9.24899 10.692C9.07828 10.5064 8.98397 10.2632 8.98499 10.011C8.98525 9.98428 8.98661 9.9576 8.98901 9.931C9.0048 9.68024 9.11438 9.44462 9.29599 9.271L12.194 5.40701C12.2828 5.2852 12.398 5.18504 12.531 5.11404C12.664 5.04305 12.8114 5.00304 12.962 4.99701Z" fill="currentColor"/>
</svg>
