<svg width="20" height="20" viewBox="0 0 20 20" fill="none" xmlns="http://www.w3.org/2000/svg">
<path d="M6.506 16.004C6.60576 16.0042 6.70329 15.9745 6.78607 15.9188C6.86885 15.8632 6.93308 15.784 6.9705 15.6915C7.00793 15.599 7.01682 15.4975 6.99606 15.3999C6.9753 15.3023 6.92583 15.2132 6.854 15.144L4.207 12.498L6.854 9.85197C7.344 9.37997 6.618 8.65397 6.146 9.14397L3.146 12.144C3.09943 12.1904 3.0625 12.2456 3.03729 12.3063C3.01209 12.3671 2.9991 12.4322 2.9991 12.498C2.9991 12.5637 3.01209 12.6289 3.03729 12.6896C3.0625 12.7503 3.09943 12.8055 3.146 12.852L6.146 15.852C6.19272 15.9002 6.24868 15.9385 6.31053 15.9646C6.37238 15.9907 6.43886 16.0041 6.506 16.004ZM15.508 12.998C15.5737 12.9969 15.6385 12.983 15.6987 12.9569C15.759 12.9308 15.8135 12.8931 15.8592 12.8459C15.9049 12.7987 15.9409 12.743 15.965 12.6819C15.9892 12.6209 16.0011 12.5556 16 12.49V11.49C16.01 10.814 14.99 10.814 15 11.49V12.49C14.9989 12.557 15.0113 12.6235 15.0365 12.6856C15.0616 12.7478 15.099 12.8042 15.1464 12.8516C15.1938 12.899 15.2502 12.9364 15.3123 12.9615C15.3745 12.9866 15.441 12.9991 15.508 12.998ZM10.5 12.998C11.176 13.008 11.176 11.988 10.5 11.998H9.5C8.824 11.988 8.824 13.008 9.5 12.998H10.5ZM7.5 12.998C8.176 13.008 8.176 11.988 7.5 11.998H6.5C5.824 11.988 5.824 13.008 6.5 12.998H7.5ZM13.5 12.99C14.176 13 14.176 11.98 13.5 11.99H12.5C11.824 11.98 11.824 13 12.5 12.99H13.5ZM15.508 9.99797C15.5737 9.99693 15.6385 9.98296 15.6987 9.95686C15.759 9.93077 15.8135 9.89306 15.8592 9.84589C15.9049 9.79871 15.9409 9.743 15.965 9.68193C15.9892 9.62086 16.0011 9.55563 16 9.48997V8.48997C16.01 7.81397 14.99 7.81397 15 8.48997V9.48997C14.9989 9.55698 15.0113 9.62352 15.0365 9.68565C15.0616 9.74777 15.099 9.8042 15.1464 9.85158C15.1938 9.89897 15.2502 9.93635 15.3123 9.9615C15.3745 9.98665 15.441 9.99905 15.508 9.99797ZM15.5 6.99797C16.323 6.99797 17 6.32097 17 5.49797C17 4.67497 16.323 3.99797 15.5 3.99797C14.677 3.99797 14 4.67497 14 5.49797C14 6.32097 14.677 6.99797 15.5 6.99797Z" fill="currentColor"/>
</svg>
