<svg width="20" height="20" viewBox="0 0 20 20" fill="none" xmlns="http://www.w3.org/2000/svg">
<g clip-path="url(#clip0_181_11105)">
<path d="M9.86967 10.145C9.96167 10.24 10.0123 10.3677 10.0104 10.5C10.0085 10.6323 9.95426 10.7584 9.85958 10.8508L7.21323 13.4972L9.85959 16.1435C9.95341 16.2373 10.0061 16.3646 10.0061 16.4973C10.0061 16.6299 9.9534 16.7572 9.85958 16.851C9.76577 16.9448 9.63854 16.9975 9.50587 16.9975C9.37319 16.9975 9.24595 16.9448 9.15213 16.851L6.50577 14.2046L3.85942 16.851C3.81404 16.9016 3.75883 16.9425 3.69713 16.9711C3.63542 16.9996 3.56854 17.0153 3.50057 17.0172C3.43259 17.0191 3.36495 17.0071 3.30177 16.9819C3.2386 16.9568 3.18122 16.919 3.13313 16.8709C3.08505 16.8228 3.04727 16.7654 3.02211 16.7022C2.99695 16.6391 2.98495 16.5714 2.98681 16.5035C2.98867 16.4355 3.00437 16.3686 3.03295 16.3069C3.06153 16.2452 3.1024 16.19 3.15304 16.1446L5.79939 13.4982L3.15303 10.8519C3.05922 10.7581 3.00651 10.6308 3.00651 10.4982C3.00651 10.3655 3.05922 10.2383 3.15303 10.1444C3.24685 10.0506 3.37408 9.9979 3.50676 9.9979C3.63943 9.9979 3.76668 10.0506 3.86049 10.1444L6.50685 12.7908L9.15319 10.1444C9.19981 10.0965 9.25554 10.0585 9.31712 10.0325C9.37869 10.0065 9.44485 9.99307 9.51169 9.99307C9.57853 9.99307 9.64469 10.0065 9.70626 10.0325C9.76784 10.0585 9.82359 10.0965 9.8702 10.1444L9.86967 10.145Z" fill="currentColor"/>
<path d="M6.50201 2.98499C6.43635 2.98603 6.37152 3 6.31126 3.02609C6.251 3.05219 6.19647 3.0899 6.15078 3.13707C6.1051 3.18425 6.06915 3.23996 6.04499 3.30103C6.02084 3.3621 6.00895 3.42733 6.01001 3.49299V9.49299C6.01001 9.6256 6.06269 9.75277 6.15646 9.84654C6.25023 9.94031 6.3774 9.99299 6.51001 9.99299C6.64261 9.99299 6.76978 9.94031 6.86355 9.84654C6.95732 9.75277 7.01001 9.6256 7.01001 9.49299V6.99299H7.51001C7.64261 6.99299 7.76978 6.94031 7.86355 6.84654C7.95732 6.75277 8.01001 6.6256 8.01001 6.49299C8.01001 6.36038 7.95732 6.2332 7.86355 6.13944C7.76978 6.04567 7.64261 5.99299 7.51001 5.99299H7.01001V3.49299C7.01109 3.42598 6.99868 3.35944 6.97354 3.29731C6.94839 3.23519 6.91102 3.17876 6.86363 3.13137C6.81624 3.08398 6.7598 3.0466 6.69767 3.02145C6.63555 2.99631 6.56902 2.98391 6.50201 2.98499ZM13.504 2.98699C13.4042 2.98679 13.3067 3.01643 13.2239 3.07211C13.1412 3.12779 13.0769 3.20696 13.0395 3.29943C13.0021 3.39191 12.9932 3.49347 13.0139 3.59105C13.0347 3.68862 13.0842 3.77776 13.156 3.84699L15.803 6.49299L13.156 9.13999C13.1096 9.18648 13.0728 9.24165 13.0477 9.30237C13.0226 9.36308 13.0097 9.42815 13.0097 9.49384C13.0098 9.55954 13.0228 9.62459 13.0479 9.68526C13.0731 9.74594 13.11 9.80107 13.1565 9.84749C13.203 9.89391 13.2582 9.93072 13.3189 9.95582C13.3796 9.98092 13.4447 9.99381 13.5104 9.99377C13.5761 9.99372 13.6411 9.98074 13.7018 9.95555C13.7625 9.93037 13.8176 9.89348 13.864 9.84699L16.864 6.84699C16.9577 6.75323 17.0104 6.62607 17.0104 6.49349C17.0104 6.36091 16.9577 6.23375 16.864 6.13999L13.864 3.13999C13.8174 3.0916 13.7614 3.05311 13.6996 3.02683C13.6377 3.00054 13.5712 2.98699 13.504 2.98699ZM9.51001 5.99299C9.3774 5.99299 9.25023 6.04567 9.15646 6.13944C9.06269 6.2332 9.01001 6.36038 9.01001 6.49299C9.01001 6.6256 9.06269 6.75277 9.15646 6.84654C9.25023 6.94031 9.3774 6.99299 9.51001 6.99299H10.51C10.6426 6.99299 10.7698 6.94031 10.8636 6.84654C10.9573 6.75277 11.01 6.6256 11.01 6.49299C11.01 6.36038 10.9573 6.2332 10.8636 6.13944C10.7698 6.04567 10.6426 5.99299 10.51 5.99299H9.51001ZM12.51 5.99299C12.3774 5.99299 12.2502 6.04567 12.1565 6.13944C12.0627 6.2332 12.01 6.36038 12.01 6.49299C12.01 6.6256 12.0627 6.75277 12.1565 6.84654C12.2502 6.94031 12.3774 6.99299 12.51 6.99299H13.51C13.6426 6.99299 13.7698 6.94031 13.8636 6.84654C13.9573 6.75277 14.01 6.6256 14.01 6.49299C14.01 6.36038 13.9573 6.2332 13.8636 6.13944C13.7698 6.04567 13.6426 5.99299 13.51 5.99299H12.51Z" fill="currentColor"/>
</g>
<defs>
<clipPath id="clip0_181_11105">
<rect width="20" height="20" fill="currentColor"/>
</clipPath>
</defs>
</svg>
