<svg width="20" height="20" viewBox="0 0 20 20" fill="none" xmlns="http://www.w3.org/2000/svg">
<path d="M15.006 6.99198C14.9392 6.99117 14.8728 7.00376 14.8109 7.02903C14.7491 7.0543 14.6929 7.09171 14.6457 7.13907C14.5985 7.18644 14.5613 7.2428 14.5363 7.30479C14.5113 7.36677 14.4989 7.43314 14.5 7.49998V8.49998C14.5 8.63258 14.5527 8.75978 14.6465 8.85355C14.7402 8.94732 14.8674 8.99998 15 8.99998C15.1326 8.99998 15.2598 8.94732 15.3535 8.85355C15.4473 8.75978 15.5 8.63258 15.5 8.49998V7.49998C15.5011 7.43431 15.4892 7.36909 15.465 7.30802C15.4409 7.24695 15.4049 7.19125 15.3592 7.14408C15.3135 7.09691 15.259 7.05915 15.1987 7.03306C15.1385 7.00696 15.0737 6.99302 15.008 6.99198C15.0073 6.99198 15.0067 6.99198 15.006 6.99198ZM6.996 9.98795C6.86368 9.99062 6.73782 10.0457 6.646 10.141L3.646 13.141C3.55226 13.2347 3.4996 13.3619 3.4996 13.4945C3.4996 13.6271 3.55226 13.7542 3.646 13.848L6.646 16.848C6.69272 16.8962 6.7487 16.9345 6.81055 16.9606C6.8724 16.9867 6.93887 17.0001 7.00601 17C7.10577 17.0002 7.20329 16.9705 7.28607 16.9148C7.36885 16.8592 7.4331 16.78 7.47052 16.6875C7.50794 16.5951 7.51683 16.4935 7.49606 16.3959C7.4753 16.2983 7.42583 16.2092 7.354 16.14L4.707 13.494L7.354 10.848C7.42649 10.7782 7.4762 10.6881 7.49667 10.5896C7.51715 10.491 7.50743 10.3886 7.46875 10.2957C7.43007 10.2028 7.36425 10.1237 7.27991 10.0688C7.19556 10.0139 7.09662 9.98571 6.996 9.98795ZM14.006 9.99399C13.9388 9.99399 13.8723 10.0075 13.8104 10.0338C13.7486 10.0601 13.6926 10.0986 13.646 10.1469L12.646 11.1469C12.5996 11.1934 12.5628 11.2486 12.5377 11.3094C12.5126 11.3701 12.4997 11.4351 12.4997 11.5008C12.4998 11.5665 12.5127 11.6316 12.5379 11.6922C12.5631 11.7529 12.6 11.808 12.6465 11.8545C12.693 11.9009 12.7482 11.9377 12.8089 11.9628C12.8696 11.9879 12.9347 12.0008 13.0004 12.0008C13.0661 12.0007 13.1311 11.9877 13.1918 11.9626C13.2525 11.9374 13.3076 11.9005 13.354 11.854L14.354 10.854C14.4258 10.7847 14.4753 10.6956 14.4961 10.5981C14.5168 10.5005 14.5079 10.3989 14.4705 10.3064C14.4331 10.214 14.3688 10.1348 14.2861 10.0791C14.2033 10.0234 14.1058 9.99379 14.006 9.99399ZM10.976 11.998C10.9432 12.0007 10.9107 12.0068 10.879 12.016L9.879 12.266C9.81253 12.2791 9.74943 12.3056 9.69351 12.3438C9.6376 12.3821 9.59002 12.4314 9.55371 12.4886C9.5174 12.5458 9.49312 12.6098 9.4823 12.6767C9.47148 12.7436 9.47434 12.8119 9.49075 12.8777C9.50717 12.9434 9.53679 13.0051 9.57779 13.0591C9.61879 13.113 9.67031 13.158 9.72925 13.1914C9.78819 13.2249 9.85331 13.246 9.92065 13.2535C9.988 13.2609 10.0562 13.2546 10.121 13.235L11.121 12.985C11.2392 12.9578 11.3436 12.8886 11.4146 12.7903C11.4856 12.6919 11.5184 12.571 11.5069 12.4502C11.4954 12.3295 11.4403 12.217 11.3521 12.1338C11.2638 12.0506 11.1482 12.0023 11.027 11.998C11.0104 11.9971 10.9936 11.9971 10.977 11.998H10.976ZM7.97601 12.748C7.94317 12.7507 7.91066 12.7568 7.879 12.766L6.879 13.016C6.81253 13.0291 6.74943 13.0556 6.69351 13.0938C6.6376 13.1321 6.59002 13.1814 6.55371 13.2386C6.5174 13.2958 6.49312 13.3598 6.4823 13.4267C6.47148 13.4936 6.47434 13.5619 6.49075 13.6277C6.50717 13.6934 6.53679 13.7551 6.57779 13.8091C6.61879 13.863 6.67031 13.908 6.72925 13.9414C6.78819 13.9749 6.85331 13.996 6.92065 14.0035C6.988 14.0109 7.05616 14.0046 7.121 13.985L8.121 13.735C8.23924 13.7078 8.34359 13.6386 8.41458 13.5403C8.48557 13.4419 8.51837 13.321 8.50687 13.2002C8.49536 13.0795 8.44034 12.967 8.35205 12.8838C8.26377 12.8006 8.14825 12.7523 8.02701 12.748C8.01035 12.7471 7.99365 12.7471 7.97699 12.748H7.97601Z" fill="currentColor"/>
<path d="M15 6C14.177 6 13.5 5.323 13.5 4.5C13.5 3.677 14.177 3 15 3C15.823 3 16.5 3.677 16.5 4.5C16.5 5.323 15.823 6 15 6Z" fill="currentColor"/>
</svg>
