<svg width="20" height="20" viewBox="0 0 20 20" fill="none" xmlns="http://www.w3.org/2000/svg">
<path d="M12.994 3C12.8943 2.9998 12.7967 3.02947 12.7139 3.08515C12.6312 3.14082 12.5669 3.21996 12.5295 3.31244C12.4921 3.40492 12.4831 3.50649 12.5039 3.60407C12.5247 3.70164 12.5742 3.79076 12.646 3.85999L15.293 6.50598L12.646 9.15198C12.5996 9.19847 12.5628 9.25368 12.5377 9.31439C12.5126 9.37511 12.4997 9.44016 12.4997 9.50586C12.4997 9.57156 12.5128 9.63659 12.538 9.69727C12.5632 9.75795 12.6 9.81308 12.6465 9.8595C12.693 9.90592 12.7482 9.94274 12.8089 9.96784C12.8696 9.99293 12.9347 10.0058 13.0004 10.0058C13.0661 10.0058 13.1311 9.99278 13.1918 9.96759C13.2525 9.94241 13.3076 9.9055 13.354 9.85901L16.354 6.85901C16.4477 6.76525 16.5004 6.63808 16.5004 6.50549C16.5004 6.37291 16.4477 6.24574 16.354 6.15198L13.354 3.15198C13.3073 3.10377 13.2513 3.06548 13.1895 3.03937C13.1276 3.01325 13.0612 2.99987 12.994 3ZM13.027 5.99402C12.9768 5.99389 12.927 6.00128 12.879 6.01599L11.879 6.26599C11.7616 6.29388 11.6582 6.3633 11.588 6.46143C11.5177 6.55956 11.4854 6.67979 11.4968 6.79993C11.5083 6.92006 11.5628 7.03196 11.6503 7.11505C11.7378 7.19814 11.8525 7.24681 11.973 7.25202C12.023 7.25345 12.0728 7.24737 12.121 7.23401L13.121 6.98401C13.242 6.95947 13.3497 6.89102 13.4233 6.79181C13.4968 6.69261 13.5311 6.56967 13.5194 6.44672C13.5077 6.32377 13.451 6.2095 13.3601 6.12592C13.2691 6.04233 13.1505 5.99534 13.027 5.99402ZM10.027 6.74402C9.97682 6.74389 9.92698 6.75128 9.87903 6.76599L8.87903 7.01599C8.76162 7.04388 8.6582 7.1133 8.58796 7.21143C8.51771 7.30956 8.48538 7.42979 8.49683 7.54993C8.50828 7.67006 8.56275 7.78196 8.65027 7.86505C8.73779 7.94814 8.85246 7.99681 8.97303 8.00202C9.02298 8.00345 9.07282 7.99737 9.12098 7.98401L10.121 7.73401C10.242 7.70947 10.3497 7.64102 10.4233 7.54181C10.4968 7.44261 10.5311 7.31967 10.5194 7.19672C10.5077 7.07377 10.451 6.9595 10.3601 6.87592C10.2691 6.79233 10.1505 6.74534 10.027 6.74402ZM7.00403 7.99201C6.93709 7.9924 6.87089 8.00626 6.80939 8.03272C6.7479 8.05917 6.69232 8.09767 6.646 8.146L5.646 9.146C5.57417 9.21523 5.52467 9.30434 5.50391 9.40192C5.48315 9.49949 5.49206 9.60107 5.52948 9.69354C5.56691 9.78602 5.63116 9.86522 5.71393 9.9209C5.79671 9.97658 5.89426 10.0062 5.99402 10.006C6.06116 10.0061 6.12761 9.99273 6.18946 9.96661C6.25131 9.9405 6.30728 9.90221 6.35401 9.854L7.35401 8.854C7.42667 8.78478 7.47681 8.69528 7.49793 8.59717C7.51904 8.49905 7.51017 8.39688 7.47242 8.30389C7.43466 8.21091 7.3698 8.13143 7.28626 8.07581C7.20272 8.02018 7.10439 7.99098 7.00403 7.99201ZM5.008 10.992C4.94099 10.9909 4.87444 11.0033 4.81232 11.0284C4.7502 11.0536 4.69376 11.091 4.64637 11.1384C4.59898 11.1858 4.56159 11.2422 4.53644 11.3043C4.5113 11.3664 4.49892 11.433 4.5 11.5V12.5C4.49895 12.5657 4.51082 12.6309 4.53498 12.692C4.55913 12.753 4.59506 12.8087 4.64075 12.8559C4.68644 12.9031 4.74101 12.9408 4.80127 12.9669C4.86154 12.993 4.92635 13.007 4.99201 13.008C5.05902 13.0091 5.12557 12.9967 5.18769 12.9716C5.24981 12.9464 5.30625 12.909 5.35364 12.8616C5.40103 12.8142 5.43842 12.7578 5.46357 12.6957C5.48871 12.6336 5.50109 12.567 5.5 12.5V11.5C5.50106 11.4343 5.48918 11.3691 5.46503 11.308C5.44088 11.247 5.40495 11.1913 5.35926 11.1441C5.31357 11.0969 5.259 11.0592 5.19873 11.0331C5.13847 11.007 5.07366 10.993 5.008 10.992Z" fill="currentColor"/>
<path d="M5 14C5.823 14 6.5 14.677 6.5 15.5C6.5 16.323 5.823 17 5 17C4.177 17 3.5 16.323 3.5 15.5C3.5 14.677 4.177 14 5 14Z" fill="currentColor"/>
</svg>
