<svg width="20" height="20" viewBox="0 0 20 20" fill="none" xmlns="http://www.w3.org/2000/svg">
<g clip-path="url(#clip0_181_10471)">
<path d="M10.1305 9.85497C10.0384 9.75989 9.98786 9.63224 9.98974 9.49995C9.99163 9.36766 10.0459 9.24152 10.1405 9.14911L12.7869 6.50277L10.1405 3.85641C10.0467 3.7626 9.994 3.63535 9.994 3.50268C9.994 3.37 10.0467 3.24277 10.1405 3.14895C10.2343 3.05514 10.3616 3.00243 10.4943 3.00243C10.6269 3.00243 10.7542 3.05514 10.848 3.14895L13.4943 5.79531L16.1407 3.14896C16.1861 3.09832 16.2413 3.05745 16.303 3.02887C16.3647 3.00029 16.4316 2.98459 16.4996 2.98273C16.5675 2.98087 16.6352 2.99287 16.6983 3.01803C16.7615 3.04319 16.8189 3.08097 16.867 3.12905C16.9151 3.17714 16.9529 3.23452 16.978 3.29769C17.0032 3.36087 17.0152 3.42851 17.0133 3.49649C17.0114 3.56446 16.9957 3.63134 16.9672 3.69305C16.9386 3.75475 16.8977 3.80996 16.8471 3.85534L14.2007 6.50169L16.8471 9.14805C16.9409 9.24187 16.9936 9.36911 16.9936 9.50179C16.9936 9.63446 16.9409 9.76169 16.8471 9.8555C16.7533 9.94932 16.626 10.002 16.4934 10.002C16.3607 10.002 16.2334 9.94933 16.1396 9.85551L13.4933 7.20915L10.8469 9.8555C10.8003 9.90339 10.7446 9.94147 10.683 9.96747C10.6214 9.99346 10.5553 10.0069 10.4884 10.0069C10.4216 10.0069 10.3554 9.99347 10.2939 9.96747C10.2323 9.94148 10.1765 9.9034 10.1299 9.8555L10.1305 9.85497Z" fill="currentColor"/>
<path d="M13.498 17.014C13.5637 17.0129 13.6285 16.999 13.6887 16.9729C13.749 16.9468 13.8035 16.9091 13.8492 16.8619C13.8949 16.8147 13.9309 16.759 13.955 16.6979C13.9792 16.6369 13.9911 16.5716 13.99 16.506V10.506C13.99 10.3734 13.9373 10.2462 13.8435 10.1524C13.7498 10.0587 13.6226 10.006 13.49 10.006C13.3574 10.006 13.2302 10.0587 13.1365 10.1524C13.0427 10.2462 12.99 10.3734 12.99 10.506V13.006H12.49C12.3574 13.006 12.2302 13.0587 12.1365 13.1524C12.0427 13.2462 11.99 13.3734 11.99 13.506C11.99 13.6386 12.0427 13.7658 12.1365 13.8595C12.2302 13.9533 12.3574 14.006 12.49 14.006H12.99V16.506C12.9889 16.573 13.0013 16.6395 13.0265 16.7016C13.0516 16.7638 13.089 16.8202 13.1364 16.8676C13.1838 16.915 13.2402 16.9524 13.3023 16.9775C13.3645 17.0027 13.431 17.0151 13.498 17.014ZM6.49599 17.012C6.59576 17.0122 6.69329 16.9825 6.77607 16.9269C6.85885 16.8712 6.92308 16.792 6.9605 16.6995C6.99792 16.6071 7.00682 16.5055 6.98606 16.4079C6.9653 16.3103 6.91583 16.2212 6.844 16.152L4.197 13.506L6.844 10.859C6.89042 10.8125 6.92723 10.7573 6.95232 10.6966C6.97742 10.6359 6.99032 10.5708 6.99027 10.5051C6.99023 10.4394 6.97725 10.3744 6.95206 10.3137C6.92688 10.253 6.88999 10.1979 6.8435 10.1515C6.79701 10.1051 6.74183 10.0682 6.68111 10.0431C6.6204 10.018 6.55534 10.0051 6.48965 10.0052C6.42395 10.0052 6.3589 10.0182 6.29823 10.0434C6.23755 10.0686 6.18242 10.1055 6.13599 10.152L3.13599 13.152C3.04226 13.2457 2.9896 13.3729 2.9896 13.5055C2.9896 13.6381 3.04226 13.7652 3.13599 13.859L6.13599 16.859C6.18264 16.9074 6.23857 16.9458 6.30042 16.9721C6.36228 16.9984 6.42879 17.012 6.49599 17.012ZM10.49 14.006C10.6226 14.006 10.7498 13.9533 10.8435 13.8595C10.9373 13.7658 10.99 13.6386 10.99 13.506C10.99 13.3734 10.9373 13.2462 10.8435 13.1524C10.7498 13.0587 10.6226 13.006 10.49 13.006H9.49C9.35739 13.006 9.23022 13.0587 9.13645 13.1524C9.04268 13.2462 8.99 13.3734 8.99 13.506C8.99 13.6386 9.04268 13.7658 9.13645 13.8595C9.23022 13.9533 9.35739 14.006 9.49 14.006H10.49ZM7.49 14.006C7.62261 14.006 7.74978 13.9533 7.84354 13.8595C7.93731 13.7658 7.99 13.6386 7.99 13.506C7.99 13.3734 7.93731 13.2462 7.84354 13.1524C7.74978 13.0587 7.62261 13.006 7.49 13.006H6.49C6.35739 13.006 6.23022 13.0587 6.13645 13.1524C6.04268 13.2462 5.99 13.3734 5.99 13.506C5.99 13.6386 6.04268 13.7658 6.13645 13.8595C6.23022 13.9533 6.35739 14.006 6.49 14.006H7.49Z" fill="currentColor"/>
</g>
<defs>
<clipPath id="clip0_181_10471">
<rect width="20" height="20" fill="currentColor"/>
</clipPath>
</defs>
</svg>
