<svg width="20" height="20" viewBox="0 0 20 20" fill="none" xmlns="http://www.w3.org/2000/svg">
<path d="M5.25 3C4.6 3 4.014 3.197 3.605 3.605C3.197 4.014 3 4.6 3 5.25V14.75C3 15.4 3.197 15.986 3.605 16.395C4.014 16.803 4.599 17 5.25 17H6V16H5.25C4.793 16 4.502 15.877 4.313 15.687C4.123 15.497 4 15.207 4 14.75V5.25C4 4.793 4.123 4.502 4.313 4.312C4.503 4.122 4.793 4 5.25 4H6V3H5.25ZM14 3V4H14.75C15.207 4 15.498 4.123 15.688 4.313C15.878 4.503 16 4.793 16 5.25V14.75C16 15.207 15.877 15.498 15.687 15.688C15.497 15.878 15.207 16 14.75 16H14V17H14.75C15.4 17 15.986 16.803 16.395 16.395C16.803 15.986 17 15.401 17 14.75V5.25C17 4.6 16.803 4.014 16.395 3.605C15.986 3.197 15.4 3 14.75 3H14ZM10 7V9H8.5C8.36739 9 8.24021 9.05268 8.14645 9.14645C8.05268 9.24021 8 9.36739 8 9.5V11H6V12H8V13.5C8 13.6326 8.05268 13.7598 8.14645 13.8536C8.24021 13.9473 8.36739 14 8.5 14H10V16H11V14H12.5C12.6326 14 12.7598 13.9473 12.8536 13.8536C12.9473 13.7598 13 13.6326 13 13.5V12H15V11H13V9.5C13 9.36739 12.9473 9.24021 12.8536 9.14645C12.7598 9.05268 12.6326 9 12.5 9H11V7H10ZM9 10H12V13H9V10Z" fill="currentColor"/>
</svg>
