<svg width="20" height="20" viewBox="0 0 20 20" fill="none" xmlns="http://www.w3.org/2000/svg">
<path d="M3.492 6.49298C3.35956 6.49509 3.23337 6.54966 3.14113 6.64472C3.04888 6.73977 2.99813 6.86754 3 6.99998V13C3 13.1326 3.05268 13.2598 3.14644 13.3535C3.24021 13.4473 3.36739 13.5 3.5 13.5C3.6326 13.5 3.75978 13.4473 3.85355 13.3535C3.94732 13.2598 4 13.1326 4 13V10.075C4.01959 10.1929 4.08081 10.3 4.17254 10.3766C4.26427 10.4533 4.38044 10.4946 4.5 10.493H5.5C5.6326 10.493 5.75978 10.4403 5.85355 10.3465C5.94732 10.2528 6 10.1256 6 9.99298C6 9.86038 5.94732 9.7332 5.85355 9.63943C5.75978 9.54566 5.6326 9.49298 5.5 9.49298H4.5C4.38 9.49148 4.26347 9.53318 4.17168 9.61047C4.07988 9.68776 4.01895 9.79549 4 9.91398V6.99998C4.00094 6.93306 3.98844 6.86662 3.96323 6.80462C3.93803 6.74261 3.90063 6.6863 3.85325 6.63902C3.80588 6.59174 3.74949 6.55445 3.68744 6.52936C3.62538 6.50428 3.55892 6.49191 3.492 6.49298ZM16.492 6.49298C16.3596 6.49509 16.2334 6.54966 16.1411 6.64472C16.0489 6.73977 15.9981 6.86754 16 6.99998V13C16 13.1326 16.0527 13.2598 16.1464 13.3535C16.2402 13.4473 16.3674 13.5 16.5 13.5C16.6326 13.5 16.7598 13.4473 16.8535 13.3535C16.9473 13.2598 17 13.1326 17 13V6.99998C17.0009 6.93306 16.9884 6.86662 16.9632 6.80462C16.938 6.74261 16.9006 6.6863 16.8533 6.63902C16.8059 6.59174 16.7495 6.55445 16.6874 6.52936C16.6254 6.50428 16.5589 6.49191 16.492 6.49298ZM11.494 6.49498C11.3944 6.49499 11.2972 6.52471 11.2146 6.58034C11.1321 6.63597 11.068 6.71498 11.0306 6.80724C10.9932 6.89951 10.9842 7.00083 11.0048 7.09824C11.0254 7.19564 11.0745 7.28469 11.146 7.35398L13.793 9.99998L11.146 12.647C11.0996 12.6935 11.0628 12.7486 11.0377 12.8094C11.0126 12.8701 10.9997 12.9351 10.9997 13.0008C10.9998 13.0665 11.0128 13.1316 11.0379 13.1923C11.0631 13.2529 11.1 13.3081 11.1465 13.3545C11.193 13.4009 11.2482 13.4377 11.3089 13.4628C11.3696 13.4879 11.4347 13.5008 11.5003 13.5008C11.566 13.5007 11.6311 13.4877 11.6918 13.4625C11.7524 13.4374 11.8076 13.4005 11.854 13.354L14.854 10.354C14.9477 10.2602 15.0004 10.1331 15.0004 10.0005C15.0004 9.8679 14.9477 9.74075 14.854 9.64699L11.854 6.64698C11.8073 6.59878 11.7513 6.56047 11.6895 6.53436C11.6276 6.50824 11.5611 6.49485 11.494 6.49498ZM7.5 9.49998C7.36739 9.49998 7.24021 9.55266 7.14644 9.64643C7.05268 9.7402 7 9.86738 7 9.99998C7 10.1326 7.05268 10.2598 7.14644 10.3535C7.24021 10.4473 7.36739 10.5 7.5 10.5H8.5C8.63261 10.5 8.75978 10.4473 8.85355 10.3535C8.94732 10.2598 9 10.1326 9 9.99998C9 9.86738 8.94732 9.7402 8.85355 9.64643C8.75978 9.55266 8.63261 9.49998 8.5 9.49998H7.5ZM10.5 9.49998C10.3674 9.49998 10.2402 9.55266 10.1464 9.64643C10.0527 9.7402 10 9.86738 10 9.99998C10 10.1326 10.0527 10.2598 10.1464 10.3535C10.2402 10.4473 10.3674 10.5 10.5 10.5H11.5C11.6326 10.5 11.7598 10.4473 11.8535 10.3535C11.9473 10.2598 12 10.1326 12 9.99998C12 9.86738 11.9473 9.7402 11.8535 9.64643C11.7598 9.55266 11.6326 9.49998 11.5 9.49998H10.5Z" fill="currentColor"/>
</svg>
