<svg width="20" height="20" viewBox="0 0 20 20" fill="none" xmlns="http://www.w3.org/2000/svg">
<path d="M3.495 2.98999C3.36239 2.98999 3.23522 3.04267 3.14145 3.13644C3.04768 3.2302 2.995 3.35738 2.995 3.48999V13.49C2.995 13.6226 3.04768 13.7498 3.14145 13.8435C3.23522 13.9373 3.36239 13.99 3.495 13.99H10.495C10.6276 13.99 10.7548 13.9373 10.8485 13.8435C10.9423 13.7498 10.995 13.6226 10.995 13.49C10.995 13.3574 10.9423 13.2302 10.8485 13.1364C10.7548 13.0427 10.6276 12.99 10.495 12.99H3.995V3.98999H12.995V10.49C12.995 10.6226 13.0477 10.7498 13.1415 10.8435C13.2352 10.9373 13.3624 10.99 13.495 10.99C13.6276 10.99 13.7548 10.9373 13.8485 10.8435C13.9423 10.7498 13.995 10.6226 13.995 10.49V3.48999C13.995 3.35738 13.9423 3.2302 13.8485 3.13644C13.7548 3.04267 13.6276 2.98999 13.495 2.98999H3.495Z" fill="currentColor"/>
<path d="M10.991 8.99002C10.991 9.51939 10.7807 10.0271 10.4064 10.4014C10.0321 10.7757 9.52437 10.986 8.995 10.986C8.46563 10.986 7.95794 10.7757 7.58362 10.4014C7.2093 10.0271 6.999 9.51939 6.999 8.99002C6.999 8.46065 7.2093 7.95296 7.58362 7.57864C7.95794 7.20431 8.46563 6.99402 8.995 6.99402C9.52437 6.99402 10.0321 7.20431 10.4064 7.57864C10.7807 7.95296 10.991 8.46065 10.991 8.99002ZM11.499 11.006C11.3999 11.0064 11.3031 11.0363 11.221 11.0918C11.1389 11.1474 11.0751 11.2261 11.0378 11.3179C11.0005 11.4097 10.9914 11.5106 11.0115 11.6077C11.0317 11.7047 11.0802 11.7936 11.151 11.863L15.298 16.01L12.495 15.99C11.819 15.98 11.819 17 12.495 16.99L16.505 17.01C16.6376 17.01 16.7648 16.9573 16.8586 16.8636C16.9523 16.7698 17.005 16.6426 17.005 16.51L16.995 12.49C17.005 11.814 15.985 11.814 15.995 12.49L16.005 15.303L11.859 11.156C11.8121 11.1082 11.7561 11.0702 11.6942 11.0445C11.6324 11.0187 11.566 11.0056 11.499 11.006Z" fill="currentColor"/>
</svg>
