<svg width="20" height="20" viewBox="0 0 20 20" fill="none" xmlns="http://www.w3.org/2000/svg">
<path d="M4.99998 7.5V14.75C4.99998 15.236 5.16997 15.69 5.48997 16.01C5.80997 16.33 6.26398 16.5 6.74998 16.5H13.25C13.736 16.5 14.19 16.33 14.51 16.01C14.83 15.69 15 15.236 15 14.75V7.5H14V14.75C14 15.014 13.92 15.185 13.803 15.303C13.685 15.42 13.513 15.5 13.25 15.5H6.74998C6.48598 15.5 6.315 15.42 6.197 15.303C6.08 15.185 5.99998 15.013 5.99998 14.75V7.5H4.99998ZM8.49998 3.5C8.36737 3.5 8.24017 3.55272 8.1464 3.64648C8.05264 3.74025 7.99998 3.86739 7.99998 4V5.5H4.49998C3.82398 5.49 3.82398 6.51 4.49998 6.5H15.5C16.176 6.51 16.176 5.49 15.5 5.5H12V4C12 3.86739 11.9473 3.74025 11.8536 3.64648C11.7598 3.55272 11.6326 3.5 11.5 3.5H8.49998ZM8.99998 4.5H11V5.5H8.99998V4.5Z" fill="currentColor"/>
<path d="M8.492 8.49189C8.42622 8.49253 8.36123 8.50633 8.30078 8.53229C8.24033 8.55825 8.18566 8.59588 8.13989 8.64313C8.09413 8.69039 8.05819 8.74631 8.03418 8.80756C8.01017 8.86881 7.99854 8.93417 8 8.99994V12.9999C7.99 13.6759 9.01 13.6759 9 12.9999V8.99994C9.00108 8.93293 8.98871 8.86639 8.96356 8.80426C8.93842 8.74214 8.90103 8.68576 8.85364 8.63837C8.80625 8.59098 8.7498 8.55353 8.68768 8.52839C8.62556 8.50324 8.55901 8.49081 8.492 8.49189ZM11.492 8.49189C11.4262 8.49253 11.3612 8.50633 11.3008 8.53229C11.2403 8.55825 11.1857 8.59588 11.1399 8.64313C11.0941 8.69039 11.0582 8.74631 11.0342 8.80756C11.0102 8.86881 10.9985 8.93417 11 8.99994V12.9999C10.99 13.6759 12.01 13.6759 12 12.9999V8.99994C12.0011 8.93293 11.9887 8.86639 11.9636 8.80426C11.9384 8.74214 11.901 8.68576 11.8536 8.63837C11.8062 8.59098 11.7498 8.55353 11.6877 8.52839C11.6256 8.50324 11.559 8.49081 11.492 8.49189Z" fill="currentColor"/>
</svg>
