<svg width="20" height="20" viewBox="0 0 20 20" fill="none" xmlns="http://www.w3.org/2000/svg">
<path d="M6 12.495C6 12.773 6.22 13.001 6.5 13.001H13.5C13.5917 13.0013 13.6817 12.9763 13.7602 12.9288C13.8386 12.8813 13.9025 12.8132 13.9448 12.7318C13.9872 12.6505 14.0063 12.559 14.0002 12.4675C13.994 12.376 13.9628 12.288 13.91 12.213L10.41 7.21302C10.3639 7.14701 10.3026 7.0931 10.2312 7.05587C10.1598 7.01865 10.0805 6.99921 10 6.99921C9.91949 6.99921 9.84018 7.01865 9.7688 7.05587C9.69742 7.0931 9.63608 7.14701 9.59 7.21302L6.09 12.213C6.03205 12.2957 6.00066 12.3941 6 12.495Z" fill="currentColor"/>
</svg>
