<svg width="20" height="20" viewBox="0 0 20 20" fill="none" xmlns="http://www.w3.org/2000/svg">
<path d="M6.006 6.00002C5.93991 5.99949 5.87436 6.01202 5.81313 6.03688C5.75189 6.06175 5.69617 6.09847 5.64915 6.14492C5.60214 6.19138 5.56476 6.24666 5.53917 6.3076C5.51357 6.36853 5.50026 6.43392 5.5 6.50002V13.5C5.4999 13.5916 5.52492 13.6814 5.57236 13.7597C5.61979 13.838 5.6878 13.9017 5.76899 13.944C5.85017 13.9863 5.94141 14.0055 6.03275 13.9995C6.1241 13.9935 6.21204 13.9626 6.287 13.91L11.287 10.41C11.353 10.3639 11.4069 10.3026 11.4442 10.2312C11.4814 10.1598 11.5008 10.0805 11.5008 10C11.5008 9.91951 11.4814 9.8402 11.4442 9.76881C11.4069 9.69743 11.353 9.63609 11.287 9.59002L6.287 6.09002C6.2046 6.03226 6.10662 6.00088 6.006 6.00002ZM12.5 6.00002V14H14.5V6.00002H12.5Z" fill="currentColor"/>
</svg>
