<svg width="20" height="20" viewBox="0 0 20 20" fill="none" xmlns="http://www.w3.org/2000/svg">
<path d="M6 7.505C6 7.227 6.22 7 6.5 7H13.5C13.5917 6.99977 13.6817 7.02476 13.7602 7.07224C13.8386 7.11972 13.9025 7.18787 13.9448 7.26922C13.9872 7.35057 14.0063 7.44199 14.0002 7.53349C13.994 7.62499 13.9628 7.71304 13.91 7.788L10.41 12.788C10.3639 12.854 10.3026 12.9079 10.2312 12.9452C10.1598 12.9824 10.0805 13.0018 10 13.0018C9.91949 13.0018 9.84018 12.9824 9.7688 12.9452C9.69742 12.9079 9.63608 12.854 9.59 12.788L6.09 7.788C6.03186 7.70505 6.00046 7.6063 6 7.505Z" fill="currentColor"/>
</svg>
