<svg width="20" height="20" viewBox="0 0 20 20" fill="none" xmlns="http://www.w3.org/2000/svg">
<path d="M14 13.994C14.0005 14.0601 13.988 14.1256 13.9631 14.1869C13.9383 14.2481 13.9016 14.3038 13.8551 14.3508C13.8086 14.3979 13.7534 14.4352 13.6924 14.4608C13.6315 14.4864 13.5661 14.4997 13.5 14.5H6.5C6.40846 14.5001 6.31865 14.4751 6.24035 14.4276C6.16206 14.3802 6.09829 14.3122 6.056 14.231C6.0137 14.1498 5.99451 14.0586 6.0005 13.9672C6.0065 13.8759 6.03746 13.788 6.09 13.713L9.59 8.713C9.63608 8.64699 9.69742 8.59307 9.7688 8.55585C9.84018 8.51862 9.91949 8.49918 10 8.49918C10.0805 8.49918 10.1598 8.51862 10.2312 8.55585C10.3026 8.59307 10.3639 8.64699 10.41 8.713L13.91 13.713C13.9688 13.7949 14.0002 13.8932 14 13.994ZM14 7.5H6V5.5H14V7.5Z" fill="currentColor"/>
</svg>
