<svg width="20" height="20" viewBox="0 0 20 20" fill="none" xmlns="http://www.w3.org/2000/svg">
<path d="M13.994 5.99997C14.0602 5.99918 14.1258 6.01153 14.1872 6.0363C14.2485 6.06107 14.3044 6.09777 14.3514 6.14428C14.3985 6.19079 14.4359 6.24618 14.4614 6.30724C14.4869 6.36829 14.5 6.43381 14.5 6.49997V13.5C14.5001 13.5915 14.4751 13.6813 14.4276 13.7596C14.3802 13.8379 14.3122 13.9017 14.231 13.944C14.1498 13.9863 14.0586 14.0055 13.9672 13.9995C13.8759 13.9935 13.788 13.9625 13.713 13.91L8.713 10.41C8.64699 10.3639 8.59307 10.3026 8.55585 10.2312C8.51862 10.1598 8.49918 10.0805 8.49918 9.99998C8.49918 9.91947 8.51862 9.84015 8.55585 9.76877C8.59307 9.69739 8.64699 9.63605 8.713 9.58998L13.713 6.08998C13.7954 6.03222 13.8934 6.00084 13.994 5.99997ZM7.5 5.99997V14H5.5V5.99997H7.5Z" fill="currentColor"/>
</svg>
