<svg width="20" height="20" viewBox="0 0 20 20" fill="none" xmlns="http://www.w3.org/2000/svg">
<path d="M12.495 6C12.773 6 13.001 6.22 13.001 6.5V13.5C13.0012 13.5917 12.9762 13.6817 12.9288 13.7602C12.8813 13.8386 12.8131 13.9025 12.7318 13.9448C12.6504 13.9872 12.559 14.0063 12.4675 14.0002C12.376 13.994 12.288 13.9628 12.213 13.91L7.213 10.41C7.14699 10.3639 7.09308 10.3026 7.05585 10.2312C7.01862 10.1598 6.99918 10.0805 6.99918 10C6.99918 9.91949 7.01862 9.84018 7.05585 9.7688C7.09308 9.69742 7.14699 9.63608 7.213 9.59L12.213 6.09C12.2957 6.03205 12.394 6.00066 12.495 6Z" fill="currentColor"/>
</svg>
