<svg width="20" height="20" viewBox="0 0 20 20" fill="none" xmlns="http://www.w3.org/2000/svg">
<path d="M14 6.006C14.0005 5.93991 13.988 5.87436 13.9631 5.81313C13.9383 5.75189 13.9016 5.69617 13.8551 5.64915C13.8086 5.60214 13.7534 5.56476 13.6924 5.53917C13.6315 5.51357 13.5661 5.50026 13.5 5.5H6.5C6.40846 5.4999 6.31865 5.52492 6.24035 5.57236C6.16206 5.61979 6.09829 5.6878 6.056 5.76899C6.0137 5.85017 5.99451 5.94141 6.0005 6.03275C6.0065 6.1241 6.03746 6.21204 6.09 6.287L9.59 11.287C9.63608 11.353 9.69742 11.4069 9.7688 11.4442C9.84018 11.4814 9.91949 11.5008 10 11.5008C10.0805 11.5008 10.1598 11.4814 10.2312 11.4442C10.3026 11.4069 10.3639 11.353 10.41 11.287L13.91 6.287C13.9678 6.2046 13.9991 6.10662 14 6.006ZM14 12.5H6V14.5H14V12.5Z" fill="currentColor"/>
</svg>
