<svg width="20" height="20" viewBox="0 0 20 20" fill="none" xmlns="http://www.w3.org/2000/svg">
<path d="M7.505 6.00001C7.43899 5.99961 7.37356 6.01224 7.31243 6.03717C7.25131 6.06209 7.19571 6.09883 7.1488 6.14527C7.10189 6.19171 7.06461 6.24695 7.03907 6.30782C7.01354 6.36869 7.00026 6.434 7 6.50001V13.5C6.99977 13.5917 7.02476 13.6817 7.07224 13.7602C7.11972 13.8386 7.18787 13.9025 7.26922 13.9448C7.35057 13.9872 7.44199 14.0063 7.53349 14.0002C7.62499 13.994 7.71304 13.9628 7.788 13.91L12.788 10.41C12.854 10.3639 12.9079 10.3026 12.9452 10.2312C12.9824 10.1598 13.0018 10.0805 13.0018 10C13.0018 9.9195 12.9824 9.84019 12.9452 9.76881C12.9079 9.69743 12.854 9.63609 12.788 9.59001L7.788 6.09001C7.70505 6.03187 7.6063 6.00047 7.505 6.00001Z" fill="currentColor"/>
</svg>
