<svg width="20" height="20" viewBox="0 0 20 20" fill="none" xmlns="http://www.w3.org/2000/svg">
<path d="M7.49601 4.98999C7.43034 4.99104 7.36554 5.00501 7.30527 5.0311C7.24501 5.0572 7.19044 5.09489 7.14475 5.14206C7.09906 5.18924 7.06313 5.24497 7.03898 5.30603C7.01482 5.3671 7.00294 5.43233 7.004 5.49799V9.49799C7.004 9.6306 7.05666 9.75777 7.15043 9.85154C7.2442 9.9453 7.3714 9.99799 7.504 9.99799C7.63661 9.99799 7.76381 9.9453 7.85758 9.85154C7.95135 9.75777 8.004 9.6306 8.004 9.49799V5.49799C8.00508 5.43098 7.99271 5.36443 7.96757 5.30231C7.94242 5.24019 7.90503 5.18375 7.85764 5.13636C7.81025 5.08897 7.75381 5.05161 7.69169 5.02646C7.62957 5.00132 7.56302 4.98891 7.49601 4.98999ZM12.494 8.99598C12.4283 8.99676 12.3635 9.0105 12.3031 9.03635C12.2428 9.0622 12.1881 9.09968 12.1422 9.14667C12.0963 9.19366 12.0601 9.24922 12.0357 9.31018C12.0113 9.37115 11.9992 9.43633 12 9.50199V14.502C12 14.6346 12.0527 14.7618 12.1465 14.8555C12.2402 14.9493 12.3674 15.002 12.5 15.002C12.6326 15.002 12.7598 14.9493 12.8536 14.8555C12.9473 14.7618 13 14.6346 13 14.502V9.50199C13.0008 9.43532 12.9883 9.36916 12.9631 9.30741C12.938 9.24565 12.9008 9.18955 12.8536 9.1424C12.8065 9.09525 12.7503 9.05801 12.6886 9.03287C12.6268 9.00773 12.5607 8.99517 12.494 8.99598Z" fill="currentColor"/>
<path d="M7.5 4.99799C7.36745 4.99749 7.24011 5.04966 7.146 5.14301L3.146 9.14301C3.09948 9.18965 3.06263 9.24502 3.03757 9.30594C3.01252 9.36687 2.99975 9.43212 3 9.49799V14.498C3 14.6306 3.05269 14.7578 3.14646 14.8516C3.24023 14.9453 3.3674 14.998 3.5 14.998L12.5 15.004C12.5659 15.0043 12.6312 14.9915 12.6921 14.9664C12.753 14.9414 12.8083 14.9045 12.855 14.858L16.855 10.854C16.9014 10.8072 16.9382 10.7516 16.9631 10.6905C16.988 10.6294 17.0005 10.564 17 10.498V5.49799C17 5.36538 16.9473 5.23821 16.8536 5.14444C16.7598 5.05068 16.6326 4.99799 16.5 4.99799H7.5ZM7.70899 5.99799H15.297L12.293 9.004L4.70301 9L7.70899 5.99799ZM16 6.707V10.291L12.293 14.004L4 14V10L12.5 10.004C12.566 10.004 12.6314 9.99092 12.6923 9.96552C12.7533 9.94012 12.8085 9.90287 12.855 9.85599L16 6.707Z" fill="currentColor"/>
</svg>
