<svg width="20" height="20" viewBox="0 0 20 20" fill="none" xmlns="http://www.w3.org/2000/svg">
<path d="M13.57 3.01798C12.772 2.97998 11.999 3.29397 11.41 3.88297L10.924 4.37095C10.308 4.94595 9.98904 5.725 10.031 6.525C10.0318 6.59229 10.0462 6.6587 10.0732 6.72031C10.1003 6.78192 10.1394 6.83742 10.1884 6.88352C10.2375 6.92962 10.2953 6.96534 10.3585 6.98856C10.4216 7.01178 10.4888 7.02202 10.556 7.01865C10.6232 7.01529 10.6891 6.99839 10.7496 6.96897C10.8101 6.93955 10.8641 6.89821 10.9082 6.84745C10.9524 6.79668 10.9859 6.73757 11.0066 6.67356C11.0274 6.60955 11.035 6.54198 11.029 6.47495C11.002 5.95995 11.185 5.49497 11.605 5.10197C11.6091 5.09803 11.6131 5.09407 11.617 5.09L12.117 4.59C12.529 4.178 13.007 3.99097 13.521 4.01597C14.036 4.03997 14.606 4.286 15.161 4.84C15.715 5.395 15.97 5.97498 15.998 6.49198C16.026 7.00898 15.846 7.47699 15.424 7.87199C15.4193 7.87524 15.4146 7.87858 15.41 7.882L14.91 8.382C14.498 8.795 14.033 8.986 13.514 8.986C13.3814 8.986 13.2543 9.03865 13.1605 9.13242C13.0667 9.22619 13.014 9.35339 13.014 9.486C13.014 9.61861 13.0667 9.74575 13.1605 9.83951C13.2543 9.93328 13.3814 9.986 13.514 9.986C14.294 9.986 15.039 9.668 15.617 9.09L16.105 8.60197C16.4041 8.32916 16.6394 7.99363 16.7937 7.61936C16.9481 7.24509 17.0178 6.84136 16.998 6.43699C16.954 5.63499 16.562 4.82797 15.868 4.13297C15.171 3.43697 14.368 3.05598 13.57 3.01798ZM6.56003 10.018C6.1542 9.99593 5.74856 10.0643 5.3724 10.2182C4.99625 10.3722 4.659 10.6078 4.38504 10.908L3.89603 11.396C3.30803 11.985 2.99303 12.756 3.03103 13.555C3.06903 14.353 3.45102 15.158 4.14602 15.854C4.84202 16.549 5.65003 16.938 6.45303 16.982C6.85672 17.0021 7.25987 16.9328 7.63364 16.779C8.0074 16.6251 8.34252 16.3905 8.61502 16.092L9.10403 15.604C9.68203 15.024 10 14.281 10 13.5C10 13.3674 9.94737 13.2402 9.85361 13.1464C9.75984 13.0526 9.63264 13 9.50003 13C9.36742 13 9.24022 13.0526 9.14645 13.1464C9.05268 13.2402 9.00003 13.3674 9.00003 13.5C9.00003 14.02 8.80903 14.484 8.39603 14.896L7.89603 15.396C7.89229 15.3999 7.88864 15.4039 7.88504 15.408C7.49104 15.83 7.02502 16.013 6.50802 15.984C5.99102 15.956 5.40803 15.701 4.85403 15.146C4.29903 14.592 4.05603 14.022 4.03103 13.508C4.00703 12.993 4.19103 12.515 4.60403 12.103L5.10403 11.603C5.10776 11.5994 5.11141 11.5957 5.11502 11.592C5.51202 11.168 5.98204 10.985 6.50204 11.016C6.56844 11.0214 6.63521 11.0135 6.69852 10.9928C6.76182 10.972 6.82039 10.9389 6.8707 10.8952C6.921 10.8515 6.962 10.7982 6.99142 10.7384C7.02084 10.6787 7.03803 10.6137 7.04196 10.5472C7.04589 10.4807 7.03655 10.4141 7.01437 10.3512C6.9922 10.2884 6.95768 10.2307 6.91287 10.1814C6.86807 10.1321 6.81387 10.0922 6.75345 10.0641C6.69303 10.0361 6.62757 10.0204 6.561 10.018H6.56003Z" fill="currentColor"/>
<path d="M7.492 2.99201C7.42633 2.99305 7.36152 3.00699 7.30125 3.03309C7.24099 3.05918 7.18646 3.09693 7.14077 3.14411C7.09508 3.19128 7.05913 3.24698 7.03498 3.30805C7.01083 3.36912 6.99894 3.43434 7 3.5V5.5C7 5.63261 7.05268 5.75981 7.14645 5.85358C7.24021 5.94735 7.36739 6 7.5 6C7.63261 6 7.75979 5.94735 7.85355 5.85358C7.94732 5.75981 8 5.63261 8 5.5V3.5C8.00108 3.43299 7.98868 3.36645 7.96353 3.30433C7.93839 3.2422 7.901 3.18576 7.85361 3.13837C7.80623 3.09098 7.7498 3.05359 7.68768 3.02845C7.62555 3.0033 7.55901 2.99093 7.492 2.99201ZM4.494 3.99402C4.39424 3.99382 4.2967 4.02343 4.21392 4.07911C4.13114 4.13479 4.06692 4.21398 4.0295 4.30646C3.99207 4.39894 3.98317 4.50051 4.00394 4.59809C4.0247 4.69566 4.07418 4.78478 4.146 4.85401L5.146 5.85401C5.19249 5.9005 5.24768 5.93737 5.30842 5.96253C5.36916 5.98769 5.43426 6.00061 5.5 6.00061C5.56574 6.00061 5.63084 5.98769 5.69158 5.96253C5.75232 5.93737 5.80751 5.9005 5.854 5.85401C5.90048 5.80752 5.93737 5.75233 5.96252 5.69159C5.98768 5.63085 6.00063 5.56575 6.00063 5.5C6.00063 5.43426 5.98768 5.36915 5.96252 5.30841C5.93737 5.24768 5.90048 5.19249 5.854 5.146L4.854 4.146C4.80727 4.09779 4.75131 4.0595 4.68946 4.03339C4.62761 4.00728 4.56114 3.99389 4.494 3.99402ZM3.5 7C3.36739 7 3.24021 7.05266 3.14645 7.14643C3.05268 7.2402 3 7.3674 3 7.5C3 7.63261 3.05268 7.75981 3.14645 7.85358C3.24021 7.94735 3.36739 8 3.5 8H5.5C5.63261 8 5.75979 7.94735 5.85355 7.85358C5.94732 7.75981 6 7.63261 6 7.5C6 7.3674 5.94732 7.2402 5.85355 7.14643C5.75979 7.05266 5.63261 7 5.5 7H3.5ZM14.5 12C14.3674 12 14.2402 12.0527 14.1464 12.1464C14.0527 12.2402 14 12.3674 14 12.5C14 12.6326 14.0527 12.7598 14.1464 12.8536C14.2402 12.9473 14.3674 13 14.5 13H16.5C16.6326 13 16.7598 12.9473 16.8536 12.8536C16.9473 12.7598 17 12.6326 17 12.5C17 12.3674 16.9473 12.2402 16.8536 12.1464C16.7598 12.0527 16.6326 12 16.5 12H14.5ZM12.492 13.992C12.4263 13.9931 12.3615 14.007 12.3013 14.0331C12.241 14.0592 12.1865 14.0969 12.1408 14.1441C12.0951 14.1913 12.0591 14.247 12.035 14.308C12.0108 14.3691 11.9989 14.4343 12 14.5V16.5C12 16.6326 12.0527 16.7598 12.1464 16.8536C12.2402 16.9473 12.3674 17 12.5 17C12.6326 17 12.7598 16.9473 12.8536 16.8536C12.9473 16.7598 13 16.6326 13 16.5V14.5C13.0011 14.433 12.9887 14.3664 12.9635 14.3043C12.9384 14.2422 12.901 14.1858 12.8536 14.1384C12.8062 14.091 12.7498 14.0536 12.6877 14.0284C12.6256 14.0033 12.559 13.9909 12.492 13.992ZM14.494 13.994C14.3942 13.9938 14.2967 14.0234 14.2139 14.0791C14.1311 14.1348 14.0669 14.214 14.0295 14.3065C13.9921 14.3989 13.9832 14.5005 14.0039 14.5981C14.0247 14.6957 14.0742 14.7848 14.146 14.854L15.146 15.854C15.2398 15.9479 15.367 16.0007 15.4996 16.0008C15.6323 16.0009 15.7596 15.9482 15.8535 15.8545C15.9474 15.7607 16.0002 15.6335 16.0003 15.5009C16.0004 15.3682 15.9478 15.2409 15.854 15.147L14.854 14.147C14.8074 14.0986 14.7514 14.0601 14.6896 14.0338C14.6277 14.0075 14.5612 13.994 14.494 13.994Z" fill="currentColor"/>
</svg>
