<svg width="20" height="20" viewBox="0 0 20 20" fill="none" xmlns="http://www.w3.org/2000/svg">
<path d="M9.47399 2.49796C9.45757 2.49915 9.44123 2.50119 9.42501 2.504C9.39507 2.50865 9.3656 2.51599 9.337 2.52597C9.112 2.53097 8.88699 2.52601 8.66299 2.55301C7.50696 2.69271 6.40402 3.11844 5.45397 3.79172C4.50392 4.465 3.73675 5.36454 3.22189 6.40897C2.70702 7.45339 2.46073 8.6097 2.50527 9.77329C2.54981 10.9369 2.88378 12.071 3.47698 13.073C4.08735 14.0966 4.94904 14.9474 5.98034 15.5446C7.01164 16.1419 8.17838 16.466 9.36999 16.486H9.372C9.47688 16.5178 9.58932 16.5143 9.69201 16.476C10.3013 16.4678 10.9068 16.3793 11.493 16.213C11.556 16.1943 11.6147 16.1633 11.6658 16.1219C11.7169 16.0805 11.7593 16.0295 11.7907 15.9717C11.822 15.9138 11.8417 15.8504 11.8485 15.785C11.8553 15.7196 11.8492 15.6535 11.8305 15.5905C11.8118 15.5275 11.7808 15.4687 11.7394 15.4176C11.698 15.3666 11.6469 15.3242 11.5891 15.2928C11.5313 15.2615 11.4679 15.2418 11.4025 15.235C11.3371 15.2282 11.271 15.2342 11.208 15.253C10.6932 15.3993 10.1611 15.4757 9.626 15.48C9.304 15.262 8.764 14.659 8.337 13.707C8.16871 13.3158 8.02834 12.9131 7.91698 12.502H10.005C10.1376 12.502 10.2648 12.4493 10.3585 12.3556C10.4523 12.2618 10.505 12.1346 10.505 12.002C10.505 11.8694 10.4523 11.7422 10.3585 11.6484C10.2648 11.5546 10.1376 11.502 10.005 11.502H7.68899C7.56861 10.8421 7.50704 10.1728 7.505 9.50198C7.505 8.77398 7.57899 8.11398 7.68899 7.50198H11.251C11.409 8.27398 11.505 9.11598 11.505 10.002C11.505 10.1346 11.5577 10.2618 11.6515 10.3556C11.7452 10.4493 11.8724 10.502 12.005 10.502C12.1376 10.502 12.2648 10.4493 12.3585 10.3556C12.4523 10.2618 12.505 10.1346 12.505 10.002C12.505 9.11898 12.411 8.28198 12.265 7.50198H15.151C15.5829 8.70832 15.6159 10.0215 15.245 11.248C15.2254 11.3109 15.2185 11.3772 15.2246 11.4429C15.2308 11.5086 15.2498 11.5724 15.2807 11.6306C15.3116 11.6889 15.3538 11.7405 15.4047 11.7824C15.4556 11.8244 15.5143 11.8558 15.5774 11.8749C15.6406 11.894 15.7069 11.9005 15.7725 11.8939C15.8381 11.8873 15.9018 11.8678 15.9599 11.8365C16.0179 11.8051 16.0692 11.7626 16.1107 11.7114C16.1523 11.6602 16.1833 11.6013 16.202 11.538C16.6551 10.0465 16.5973 8.4464 16.038 6.99143C15.4786 5.53645 14.4496 4.30986 13.114 3.50601C12.0625 2.87585 10.8637 2.53371 9.63799 2.51401C9.59006 2.50142 9.54051 2.49597 9.49099 2.49796C9.48532 2.49786 9.47966 2.49786 9.47399 2.49796ZM9.501 3.629C9.811 3.939 10.294 4.60496 10.667 5.52896C10.787 5.82896 10.901 6.15598 11.003 6.50198H7.919C8.042 6.07498 8.17898 5.67196 8.33498 5.32596C8.70498 4.50696 9.158 3.935 9.501 3.629ZM10.839 3.66C11.4591 3.79883 12.0532 4.03545 12.599 4.36099C13.4695 4.88463 14.1925 5.62106 14.7 6.50101H12.032C11.9126 6.04456 11.7667 5.59544 11.595 5.15598C11.3909 4.63452 11.1378 4.13364 10.839 3.66ZM8.13399 3.676C7.88399 4.029 7.642 4.43199 7.423 4.91599C7.19888 5.42859 7.01823 5.95912 6.88299 6.50198H4.325C4.585 6.05298 4.88799 5.62399 5.27099 5.24399C6.06125 4.46567 7.0526 3.92274 8.13399 3.676ZM3.86599 7.48196C3.91179 7.49532 3.9593 7.50208 4.00701 7.50198H6.67699C6.57499 8.12398 6.505 8.78198 6.505 9.50198C6.505 10.22 6.57499 10.877 6.67699 11.502H4.00701C3.95714 11.5023 3.90759 11.51 3.86001 11.525C3.39198 10.2176 3.39408 8.78796 3.86599 7.48196ZM4.30999 12.502H6.88201C7.03301 13.092 7.211 13.642 7.423 14.115C7.635 14.588 7.867 14.982 8.109 15.328C7.32713 15.1439 6.59037 14.8042 5.94265 14.3291C5.29493 13.8541 4.74954 13.2534 4.33901 12.563C4.32701 12.543 4.32098 12.522 4.30898 12.502H4.30999Z" fill="currentColor"/>
<path d="M11.99 11.501C11.909 11.5025 11.8297 11.5236 11.7587 11.5625C11.6877 11.6015 11.6271 11.6571 11.5824 11.7245C11.5376 11.792 11.51 11.8694 11.5017 11.9499C11.4934 12.0305 11.5048 12.1118 11.535 12.187L13.535 17.187C13.719 17.649 14.392 17.589 14.49 17.101L14.93 14.927L17.098 14.491C17.586 14.394 17.648 13.721 17.186 13.536L12.186 11.536C12.1236 11.5113 12.057 11.4994 11.99 11.501Z" fill="currentColor"/>
</svg>
