<svg width="20" height="20" viewBox="0 0 20 20" fill="none" xmlns="http://www.w3.org/2000/svg">
<path d="M9.499 3C8.57078 3.00132 7.6809 3.37036 7.02417 4.02634C6.36744 4.68232 5.99738 5.57178 5.995 6.5V8.5C5.995 8.917 6.188 9.275 6.455 9.541C6.72 9.807 7.078 10 7.495 10C7.62761 10 7.75479 9.94732 7.84856 9.85355C7.94232 9.75979 7.995 9.63261 7.995 9.5C7.995 9.36739 7.94232 9.24021 7.84856 9.14645C7.75479 9.05268 7.62761 9 7.495 9C7.36759 8.98575 7.2493 8.92696 7.161 8.834C7.06804 8.74571 7.00925 8.62742 6.995 8.5V6.5C6.995 5.113 8.108 4 9.5 4H10.504C10.8328 3.99868 11.1586 4.06243 11.4626 4.18757C11.7666 4.31272 12.0429 4.49678 12.2754 4.72917C12.508 4.96155 12.6923 5.23766 12.8177 5.54158C12.9431 5.8455 13.0071 6.17123 13.006 6.5V8.5C12.9918 8.62742 12.933 8.74571 12.84 8.834C12.7517 8.92696 12.6334 8.98575 12.506 9C12.3734 9 12.2462 9.05268 12.1524 9.14645C12.0587 9.24021 12.006 9.36739 12.006 9.5C12.006 9.63261 12.0587 9.75979 12.1524 9.85355C12.2462 9.94732 12.3734 10 12.506 10C12.923 10 13.281 9.807 13.546 9.541C13.813 9.275 14.006 8.917 14.006 8.5V6.5C14.006 4.573 12.434 3 10.504 3H9.499ZM13.449 10.414C13.3431 10.4106 13.2389 10.4409 13.1514 10.5006C13.0639 10.5603 12.9975 10.6462 12.962 10.746C12.788 11.228 12.604 11.79 12.208 12.226C11.812 12.663 11.218 13.016 10.032 13.016C8.845 13.016 8.244 12.669 7.841 12.236C7.437 11.804 7.243 11.246 7.056 10.764C7.0314 10.7002 6.99397 10.6422 6.94604 10.5934C6.89811 10.5447 6.8407 10.5063 6.77734 10.4806C6.71399 10.4549 6.64604 10.4425 6.5777 10.4441C6.50936 10.4457 6.44207 10.4614 6.38 10.49C5.408 10.936 4.595 11.39 3.991 11.945C3.388 12.501 2.995 13.199 2.995 14V16.5C2.995 16.6326 3.04768 16.7598 3.14145 16.8536C3.23522 16.9473 3.36239 17 3.495 17H16.505C16.6376 17 16.7648 16.9473 16.8586 16.8536C16.9523 16.7598 17.005 16.6326 17.005 16.5V14C17.005 13.203 16.621 12.5 16.022 11.936C15.424 11.371 14.613 10.906 13.642 10.461C13.5812 10.4325 13.5152 10.4165 13.448 10.414H13.449ZM13.624 11.614C14.309 11.959 14.96 12.308 15.337 12.664C15.802 13.104 16.005 13.508 16.005 14V16H3.995V14C3.995 13.506 4.2 13.113 4.669 12.682C5.051 12.33 5.709 11.984 6.403 11.637C6.568 12.047 6.693 12.473 7.108 12.918C7.69 13.541 8.632 14.016 10.032 14.016C11.434 14.016 12.374 13.531 12.948 12.898C13.355 12.451 13.468 12.025 13.624 11.613V11.614Z" fill="currentColor"/>
</svg>
