<svg width="20" height="20" viewBox="0 0 20 20" fill="none" xmlns="http://www.w3.org/2000/svg">
<path d="M5 3C4.476 3 3.976 3.217 3.607 3.576C3.239 3.936 3 4.436 3 5.002V15C3.00026 15.5304 3.21106 16.0389 3.58608 16.4139C3.96109 16.7889 4.46965 16.9997 5 17H6.5C6.63261 17 6.75979 16.9473 6.85355 16.8536C6.94732 16.7598 7 16.6326 7 16.5V6.5C7 6.36739 6.94732 6.24021 6.85355 6.14645C6.75979 6.05268 6.63261 6 6.5 6H5C4.548 6 4 5.529 4 5.002C4 4.738 4.138 4.487 4.332 4.302C4.525 4.12 4.775 4 5 4H11V6H13V4H15V6.006L13 6V8L15 8.006V10.006L13 10V12L15 12.006V14H13.006L12.996 12H10.996L11.006 14H8V15H16.5C16.6326 15 16.7598 14.9473 16.8536 14.8536C16.9473 14.7598 17 14.6326 17 14.5V3.5C17 3.36739 16.9473 3.24021 16.8536 3.14645C16.7598 3.05268 16.6326 3 16.5 3H5.5H5ZM13 10V8H11V10H13Z" fill="currentColor"/>
<path d="M9 12H11V10H9V12ZM9 8H11V6H9V8Z" fill="currentColor"/>
</svg>
