<svg width="20" height="20" viewBox="0 0 20 20" fill="none" xmlns="http://www.w3.org/2000/svg">
<path d="M6.5 3C6.4343 2.99988 6.36921 3.01273 6.30847 3.03778C6.24773 3.06283 6.19252 3.0996 6.146 3.146L3.146 6.146C3.0996 6.19252 3.06282 6.24773 3.03777 6.30847C3.01272 6.36921 2.99988 6.4343 3 6.5V16.5C3 16.6326 3.05268 16.7598 3.14645 16.8536C3.24022 16.9473 3.36739 17 3.5 17H13.5C13.5657 17.0001 13.6308 16.9873 13.6915 16.9622C13.7523 16.9372 13.8075 16.9004 13.854 16.854L16.854 13.854C16.9004 13.8075 16.9372 13.7523 16.9622 13.6915C16.9873 13.6308 17.0001 13.5657 17 13.5V3.5C17 3.36739 16.9473 3.24019 16.8536 3.14642C16.7598 3.05266 16.6326 3 16.5 3H6.5ZM6.707 4H16V13.293L13.293 16H4V6.70697L6.707 4ZM7 7V9H9V7H7ZM9 9V11H11V9H9ZM11 9H13V7H11V9ZM11 11V13H13V11H11ZM11 13H9V15H11V13ZM9 13V11H7V13H9ZM7 13H5V15H7V13ZM7 11V9H5V11H7Z" fill="currentColor"/>
</svg>
