<svg width="20" height="20" viewBox="0 0 20 20" fill="none" xmlns="http://www.w3.org/2000/svg">
<path d="M8.50302 3.5C8.50302 3.36739 8.55567 3.24021 8.64944 3.14645C8.74321 3.05268 8.87041 3 9.00302 3H11.003C11.1356 3 11.2628 3.05268 11.3565 3.14645C11.4503 3.24021 11.503 3.36739 11.503 3.5V11.5C11.503 11.6326 11.4503 11.7598 11.3565 11.8536C11.2628 11.9473 11.1356 12 11.003 12H9.00302C8.87041 12 8.74321 11.9473 8.64944 11.8536C8.55567 11.7598 8.50302 11.6326 8.50302 11.5V3.5Z" fill="currentColor"/>
<path d="M3.50302 4.5C3.50302 4.36739 3.55567 4.24021 3.64944 4.14645C3.74321 4.05268 3.87041 4 4.00302 4H7.50302V5H4.50302V10H7.50302V11H4.50302V16H9.50302V13H10.503V16.5C10.503 16.6326 10.4503 16.7598 10.3565 16.8536C10.2628 16.9473 10.1356 17 10.003 17H4.00302C3.87041 17 3.74321 16.9473 3.64944 16.8536C3.55567 16.7598 3.50302 16.6326 3.50302 16.5V4.5ZM12.503 4L15.996 4.005C16.1286 4.005 16.2558 4.05768 16.3496 4.15145C16.4433 4.24522 16.496 4.37239 16.496 4.505V10.505C16.496 10.6373 16.4436 10.7641 16.3502 10.8578C16.2569 10.9516 16.1303 11.0045 15.998 11.005L12.498 11.007L12.496 10.007H15.496V5.007L12.505 5L12.503 4Z" fill="currentColor"/>
</svg>
