<svg width="20" height="20" viewBox="0 0 20 20" fill="none" xmlns="http://www.w3.org/2000/svg">
<path d="M3.5 4C3.36739 4 3.24022 4.05269 3.14645 4.14645C3.05269 4.24022 3 4.36739 3 4.5V15.502C3 15.6346 3.05269 15.7618 3.14645 15.8556C3.24022 15.9493 3.36739 16.002 3.5 16.002L7.5 16C7.63261 16 7.75978 15.9473 7.85355 15.8535C7.94731 15.7598 8 15.6326 8 15.5V4.5C8 4.36739 7.94731 4.24022 7.85355 4.14645C7.75978 4.05269 7.63261 4 7.5 4H3.5ZM4 5H7V15L4 15.002V5Z" fill="currentColor"/>
<path d="M11.5 3C11.3674 3 11.2402 3.05272 11.1464 3.14648C11.0527 3.24025 11 3.36739 11 3.5V16.5C11 16.6326 11.0527 16.7598 11.1464 16.8536C11.2402 16.9473 11.3674 17 11.5 17H16.5C16.6326 17 16.7598 16.9473 16.8536 16.8536C16.9473 16.7598 17 16.6326 17 16.5V3.5C17 3.36739 16.9473 3.24025 16.8536 3.14648C16.7598 3.05272 16.6326 3 16.5 3H11.5Z" fill="currentColor"/>
</svg>
