<svg width="20" height="20" viewBox="0 0 20 20" fill="none" xmlns="http://www.w3.org/2000/svg">
<path d="M16.43 7.99102C16.5298 7.99082 16.6273 8.02046 16.7101 8.07614C16.7929 8.13181 16.8571 8.21098 16.8945 8.30346C16.9319 8.39594 16.9408 8.49749 16.9201 8.59507C16.8993 8.69265 16.8498 8.78179 16.778 8.85102L9.62499 16.003H12.424C12.5566 16.003 12.6838 16.0557 12.7775 16.1495C12.8713 16.2432 12.924 16.3704 12.924 16.503C12.924 16.6356 12.8713 16.7628 12.7775 16.8566C12.6838 16.9503 12.5566 17.003 12.424 17.003H8.424C8.422 17.003 8.41999 17.003 8.41799 17.003C8.38635 17.002 8.35488 16.998 8.324 16.991C8.30781 16.9878 8.29178 16.9838 8.27599 16.979C8.16248 16.9449 8.0648 16.8716 8.00033 16.7721C7.93585 16.6727 7.9088 16.5536 7.924 16.436V12.503C7.924 12.3704 7.97669 12.2432 8.07046 12.1495C8.16422 12.0557 8.29139 12.003 8.424 12.003C8.55661 12.003 8.68378 12.0557 8.77755 12.1495C8.87132 12.2432 8.924 12.3704 8.924 12.503V15.29L16.07 8.14301C16.1167 8.09481 16.1727 8.0565 16.2345 8.03039C16.2964 8.00427 16.3629 7.99089 16.43 7.99102ZM11.43 2.99702C11.4616 2.99738 11.4931 3.00072 11.524 3.00701C11.5402 3.01022 11.5562 3.01423 11.572 3.01902C11.6853 3.0531 11.7829 3.12626 11.8473 3.2255C11.9118 3.32475 11.939 3.44363 11.924 3.56101V7.49702C11.924 7.62963 11.8713 7.7568 11.7775 7.85056C11.6838 7.94433 11.5566 7.99702 11.424 7.99702C11.2914 7.99702 11.1642 7.94433 11.0705 7.85056C10.9767 7.7568 10.924 7.62963 10.924 7.49702V4.71002L3.77801 11.856C3.68425 11.9499 3.55705 12.0027 3.42437 12.0028C3.29169 12.0029 3.1644 11.9503 3.07052 11.8565C2.97663 11.7628 2.92382 11.6356 2.92373 11.5029C2.92363 11.3702 2.97624 11.2429 3.07 11.149L10.224 3.99702H7.42501C7.2924 3.99702 7.16523 3.94433 7.07146 3.85056C6.9777 3.7568 6.92501 3.62963 6.92501 3.49702C6.92501 3.36441 6.9777 3.23724 7.07146 3.14347C7.16523 3.0497 7.2924 2.99702 7.42501 2.99702H11.425C11.427 2.99701 11.429 2.99701 11.431 2.99702H11.43Z" fill="currentColor"/>
</svg>
