<svg width="20" height="20" viewBox="0 0 20 20" fill="none" xmlns="http://www.w3.org/2000/svg">
<path d="M3.5 3C3.36739 3 3.24022 3.05269 3.14645 3.14645C3.05269 3.24022 3 3.36739 3 3.5V6.5C3 6.63261 3.05269 6.75978 3.14645 6.85355C3.24022 6.94731 3.36739 7 3.5 7H6.5C6.63261 7 6.75978 6.94731 6.85355 6.85355C6.94731 6.75978 7 6.63261 7 6.5V3.5C7 3.36739 6.94731 3.24022 6.85355 3.14645C6.75978 3.05269 6.63261 3 6.5 3H3.5Z" fill="currentColor"/>
<path d="M7.963 4V5H10V10H5V8.008H4V16.5C4 16.6326 4.05268 16.7597 4.14645 16.8535C4.24021 16.9473 4.36739 17 4.5 17H10.5C10.6326 17 10.7598 16.9473 10.8536 16.8535C10.9473 16.7597 11 16.6326 11 16.5V11H16.5C16.6326 11 16.7598 10.9473 16.8536 10.8535C16.9473 10.7597 17 10.6326 17 10.5V4.5C17 4.36739 16.9473 4.24019 16.8536 4.14642C16.7598 4.05266 16.6326 4 16.5 4H7.963ZM11 5H16V10H11V5ZM5 11H10V16H5V11Z" fill="currentColor"/>
</svg>
