<svg width="20" height="20" viewBox="0 0 20 20" fill="none" xmlns="http://www.w3.org/2000/svg">
<path d="M7.496 3.5C7.36365 3.50003 7.2367 3.55253 7.143 3.646L5.149 5.64C4.658 6.112 5.384 6.83798 5.856 6.34698L7.703 4.5H15.996V12.793L13.289 15.5H5L5.004 12.493L4.004 12.491L3.997 16C3.997 16.1326 4.04968 16.2598 4.14344 16.3535C4.23721 16.4473 4.36439 16.5 4.497 16.5H13.497C13.5628 16.5 13.6279 16.487 13.6886 16.4618C13.7494 16.4365 13.8046 16.3996 13.851 16.353L16.851 13.353C16.9445 13.2593 16.997 13.1324 16.997 13V4C16.997 3.86739 16.9443 3.74021 16.8506 3.64644C16.7568 3.55267 16.6296 3.5 16.497 3.5H7.496Z" fill="currentColor"/>
<path d="M3.502 7.49402C3.36939 7.49402 3.24221 7.5467 3.14845 7.64047C3.05468 7.73424 3.002 7.86141 3.002 7.99402V10.994C3.002 11.1266 3.05468 11.2538 3.14845 11.3476C3.24221 11.4413 3.36939 11.494 3.502 11.494H6.502C6.63461 11.494 6.76178 11.4413 6.85555 11.3476C6.94932 11.2538 7.002 11.1266 7.002 10.994V7.99402C7.002 7.86141 6.94932 7.73424 6.85555 7.64047C6.76178 7.5467 6.63461 7.49402 6.502 7.49402H3.502Z" fill="currentColor"/>
</svg>
