<svg width="20" height="20" viewBox="0 0 20 20" fill="none" xmlns="http://www.w3.org/2000/svg">
<path d="M5.75 3.5C5.64018 3.50018 5.53346 3.53651 5.44635 3.60338C5.35923 3.67026 5.29656 3.76395 5.268 3.87L2.018 15.87C1.99806 15.944 1.99542 16.0217 2.01028 16.0969C2.02514 16.1721 2.05711 16.2429 2.1037 16.3038C2.15029 16.3647 2.21026 16.4141 2.27898 16.4481C2.3477 16.4821 2.42332 16.4999 2.5 16.5H17.5C17.5767 16.4999 17.6523 16.4821 17.721 16.4481C17.7897 16.4141 17.8497 16.3647 17.8963 16.3038C17.9429 16.2429 17.9749 16.1721 17.9897 16.0969C18.0046 16.0217 18.0019 15.944 17.982 15.87L14.732 3.87C14.7034 3.76395 14.6408 3.67026 14.5537 3.60338C14.4665 3.53651 14.3598 3.50018 14.25 3.5H5.75ZM6.133 4.5H8.219L8.002 6.5H5.59L6.133 4.5ZM9.227 4.5H10.773L10.99 6.5H9.01L9.227 4.5ZM11.781 4.5H13.867L14.408 6.5H11.998L11.781 4.5ZM5.321 7.5H7.893L7.566 10.5H4.508L5.321 7.5ZM8.901 7.5H11.1L11.426 10.5H8.574L8.901 7.5ZM12.107 7.5H14.68L15.492 10.5H12.434L12.107 7.5ZM4.237 11.5H7.457L7.023 15.5H3.153L4.237 11.5ZM8.467 11.5H11.533L11.969 15.5H8.03L8.467 11.5ZM12.543 11.5H15.763L16.848 15.5H12.977L12.543 11.5Z" fill="currentColor"/>
</svg>
