<svg width="20" height="20" viewBox="0 0 20 20" fill="none" xmlns="http://www.w3.org/2000/svg">
<path d="M12.5 2C10.36 2 8.693 3.472 8.17 5.244C7.52 4.496 6.66 4 5.5 4C4.57239 4.00211 3.68338 4.37154 3.02746 5.02746C2.37154 5.68338 2.00211 6.57239 2 7.5C2 9.427 3.573 11 5.5 11H12.5C14.98 11 17 8.98 17 6.5C17 4.02 14.98 2 12.5 2ZM12.5 5C13.323 5 14 5.677 14 6.5C14 7.322 13.323 8 12.5 8C11.677 8 11 7.322 11 6.5C11 5.677 11.677 5 12.5 5ZM5.5 6C6.323 6 7 6.677 7 7.5C7 8.322 6.323 9 5.5 9C4.677 9 4 8.322 4 7.5C4 6.677 4.677 6 5.5 6ZM12.5 6C12.218 6 12 6.218 12 6.5C12 6.782 12.218 7 12.5 7C12.782 7 13 6.782 13 6.5C13 6.218 12.782 6 12.5 6ZM5.5 7C5.218 7 5 7.218 5 7.5C5 7.782 5.218 8 5.5 8C5.782 8 6 7.782 6 7.5C6 7.218 5.782 7 5.5 7ZM6.5 12C6.36739 12 6.24021 12.0527 6.14645 12.1464C6.05268 12.2402 6 12.3674 6 12.5V14H5V13.5C5 13.3674 4.94732 13.2402 4.85355 13.1464C4.75979 13.0527 4.63261 13 4.5 13C4.36739 13 4.24021 13.0527 4.14645 13.1464C4.05268 13.2402 4 13.3674 4 13.5V15.5C4.009 16.157 4.99 16.157 5 15.5V15H6V16.5C6 16.632 6.053 16.76 6.146 16.853L7.146 17.853C7.19244 17.8996 7.24761 17.9365 7.30835 17.9618C7.3691 17.987 7.43423 18 7.5 18H12.5C12.6326 18 12.7598 17.9473 12.8536 17.8536C12.9473 17.7598 13 17.6326 13 17.5V12.5C13 12.3674 12.9473 12.2402 12.8536 12.1464C12.7598 12.0527 12.6326 12 12.5 12H6.5ZM17.484 13C17.3967 13.0013 17.3115 13.027 17.238 13.074L13.988 15.074C13.9154 15.1188 13.8555 15.1814 13.814 15.2559C13.7724 15.3303 13.7506 15.4142 13.7506 15.4995C13.7506 15.5848 13.7724 15.6687 13.814 15.7431C13.8555 15.8176 13.9154 15.8802 13.988 15.925L17.238 17.925C17.3137 17.9716 17.4004 17.9971 17.4893 17.999C17.5782 18.0009 17.6659 17.9791 17.7436 17.9358C17.8212 17.8925 17.8859 17.8293 17.9309 17.7527C17.976 17.6761 17.9998 17.5889 18 17.5V13.5C18 13.433 17.9866 13.3666 17.9605 13.3049C17.9343 13.2432 17.8961 13.1873 17.8479 13.1407C17.7998 13.094 17.7428 13.0575 17.6803 13.0334C17.6177 13.0092 17.551 12.9979 17.484 13Z" fill="currentColor"/>
</svg>
