<svg width="20" height="20" viewBox="0 0 20 20" fill="none" xmlns="http://www.w3.org/2000/svg">
<path d="M13.502 3C12.5748 3.00185 11.6862 3.37101 11.0306 4.02661C10.375 4.68221 10.0058 5.57083 10.004 6.49799C10.0058 7.42514 10.375 8.31382 11.0306 8.96942C11.6862 9.62502 12.5748 9.99412 13.502 9.99597C14.4292 9.99412 15.3178 9.62502 15.9734 8.96942C16.629 8.31382 16.9982 7.42514 17 6.49799C16.9982 5.57083 16.629 4.68221 15.9734 4.02661C15.3178 3.37101 14.4292 3.00185 13.502 3ZM13.502 3.99597C13.6346 3.99597 13.7618 4.04869 13.8556 4.14246C13.9493 4.23622 14.002 4.36336 14.002 4.49597C14.002 4.62858 13.9493 4.75578 13.8556 4.84955C13.7618 4.94332 13.6346 4.99597 13.502 4.99597C12.667 4.99597 12 5.66299 12 6.49799C12 6.63059 11.9473 6.75779 11.8536 6.85156C11.7598 6.94533 11.6326 6.99799 11.5 6.99799C11.3674 6.99799 11.2402 6.94533 11.1464 6.85156C11.0527 6.75779 11 6.63059 11 6.49799C11.0021 5.83506 11.2664 5.1999 11.7351 4.73114C12.2039 4.26238 12.8391 3.99808 13.502 3.99597Z" fill="currentColor"/>
<path d="M7.504 6.99201C7.38853 6.99148 7.27644 7.03091 7.18675 7.10364C7.09707 7.17637 7.03532 7.27791 7.012 7.391L6.654 9.00001H4.5C4.36739 9.00001 4.24021 9.05266 4.14645 9.14643C4.05268 9.2402 4 9.3674 4 9.50001C4 9.63261 4.05268 9.75981 4.14645 9.85358C4.24021 9.94735 4.36739 10 4.5 10H6.432L5.766 13H3.5C3.36739 13 3.24021 13.0527 3.14645 13.1464C3.05268 13.2402 3 13.3674 3 13.5C3 13.6326 3.05268 13.7598 3.14645 13.8536C3.24021 13.9474 3.36739 14 3.5 14H5.543L5.012 16.39C4.99755 16.4541 4.99587 16.5204 5.00705 16.5851C5.01823 16.6499 5.04205 16.7117 5.07715 16.7673C5.11225 16.8228 5.15795 16.8709 5.21162 16.9088C5.2653 16.9466 5.32592 16.9735 5.39 16.988C5.45409 17.0024 5.52039 17.0041 5.58512 16.9929C5.64986 16.9817 5.71176 16.958 5.76729 16.9229C5.82282 16.8878 5.87089 16.8421 5.90876 16.7884C5.94663 16.7347 5.97355 16.6741 5.988 16.61L6.568 14H13.531L14.008 16.59C14.0198 16.6546 14.0442 16.7163 14.0799 16.7714C14.1155 16.8266 14.1617 16.8742 14.2157 16.9116C14.2698 16.9489 14.3307 16.9752 14.3949 16.989C14.4591 17.0028 14.5254 17.0038 14.59 16.992C14.6546 16.9802 14.7163 16.9558 14.7714 16.9201C14.8266 16.8845 14.8742 16.8383 14.9115 16.7842C14.9489 16.7302 14.9752 16.6693 14.989 16.6051C15.0028 16.5409 15.0038 16.4746 14.992 16.41L14.547 14H16.5C16.6326 14 16.7598 13.9474 16.8536 13.8536C16.9473 13.7598 17 13.6326 17 13.5C17 13.3674 16.9473 13.2402 16.8536 13.1464C16.7598 13.0527 16.6326 13 16.5 13H14.363L14.063 11.371C14.0525 11.3051 14.0288 11.2421 13.9936 11.1855C13.9583 11.1289 13.912 11.08 13.8575 11.0416C13.8031 11.0031 13.7414 10.9759 13.6763 10.9617C13.6112 10.9474 13.5438 10.9463 13.4783 10.9584C13.4127 10.9706 13.3502 10.9957 13.2945 11.0324C13.2388 11.069 13.191 11.1164 13.1539 11.1718C13.1168 11.2272 13.0911 11.2895 13.0784 11.3549C13.0657 11.4204 13.0663 11.4877 13.08 11.553L13.346 13H6.79L7.456 10H9.5C9.63261 10 9.75979 9.94735 9.85355 9.85358C9.94732 9.75981 10 9.63261 10 9.50001C10 9.3674 9.94732 9.2402 9.85355 9.14643C9.75979 9.05266 9.63261 9.00001 9.5 9.00001H7.68L7.988 7.60999C8.00583 7.53658 8.00679 7.46013 7.99082 7.3863C7.97484 7.31246 7.94235 7.24319 7.89577 7.18372C7.84919 7.12425 7.78974 7.07612 7.72189 7.04291C7.65404 7.00971 7.57954 6.99229 7.504 6.99201Z" fill="currentColor"/>
</svg>
