<svg width="20" height="20" viewBox="0 0 20 20" fill="none" xmlns="http://www.w3.org/2000/svg">
<path d="M12.004 2.99597C9.256 2.99597 7.004 5.24797 7.004 7.99597C7.004 9.18997 7.445 10.278 8.152 11.141L3.15 16.142C3.05612 16.2359 3.00337 16.3632 3.00337 16.496C3.00337 16.6287 3.05612 16.7561 3.15 16.85C3.24389 16.9439 3.37122 16.9966 3.504 16.9966C3.63678 16.9966 3.76411 16.9439 3.858 16.85L8.859 11.848C9.722 12.555 10.809 12.996 12.004 12.996C14.752 12.996 17.004 10.744 17.004 7.99597C17.004 5.24797 14.752 2.99597 12.004 2.99597ZM12.004 3.99597C14.206 3.99597 16.004 5.79397 16.004 7.99597C16.004 10.198 14.206 11.996 12.004 11.996C9.802 11.996 8.004 10.198 8.004 7.99597C8.004 5.79397 9.802 3.99597 12.004 3.99597Z" fill="currentColor"/>
</svg>
