<svg width="20" height="20" viewBox="0 0 20 20" fill="none" xmlns="http://www.w3.org/2000/svg">
<path d="M6.50001 4.49701C6.40039 4.49543 6.30257 4.52363 6.21909 4.57802C6.13562 4.63241 6.07029 4.7105 6.0315 4.80226C5.99271 4.89403 5.98223 4.99529 6.00138 5.09307C6.02053 5.19084 6.06846 5.28066 6.13901 5.35101C7.37101 6.62501 8.77301 8.50301 11.498 8.50301C14.223 8.50301 15.625 6.62501 16.858 5.35101C16.9037 5.30373 16.9397 5.24792 16.9638 5.18675C16.9879 5.12559 16.9997 5.06027 16.9986 4.99452C16.9975 4.92878 16.9835 4.8639 16.9573 4.80358C16.9311 4.74327 16.8933 4.68871 16.846 4.64301C16.7987 4.59731 16.7429 4.56137 16.6818 4.53724C16.6206 4.51311 16.5553 4.50126 16.4895 4.50238C16.4238 4.50349 16.3589 4.51755 16.2986 4.54373C16.2383 4.56992 16.1837 4.60773 16.138 4.65501C14.833 6.00501 13.773 7.50301 11.498 7.50301C9.22301 7.50301 8.16301 6.00601 6.85801 4.65501C6.81202 4.60595 6.75662 4.56668 6.69511 4.53953C6.63359 4.51238 6.56724 4.49792 6.50001 4.49701Z" fill="currentColor"/>
<path d="M3.5 7.50299C3.41713 7.50275 3.33551 7.52311 3.26246 7.56224C3.18941 7.60137 3.12724 7.65804 3.08152 7.72716C3.03581 7.79628 3.00798 7.87567 3.00056 7.95821C2.99314 8.04074 3.00635 8.12383 3.039 8.2L6.039 15.2C6.07894 15.2932 6.14629 15.3721 6.2321 15.4261C6.31791 15.4802 6.41812 15.5069 6.51945 15.5026C6.62078 15.4984 6.71843 15.4635 6.79943 15.4025C6.88044 15.3414 6.94097 15.2572 6.973 15.161L7.893 12.398L10.656 11.478C10.7523 11.4461 10.8366 11.3856 10.8977 11.3047C10.9588 11.2237 10.9939 11.1261 10.9982 11.0248C11.0025 10.9235 10.976 10.8232 10.922 10.7373C10.868 10.6514 10.7892 10.584 10.696 10.544L3.69599 7.54399C3.63409 7.51728 3.56742 7.50333 3.5 7.50299Z" fill="currentColor"/>
</svg>
