<svg width="20" height="20" viewBox="0 0 20 20" fill="none" xmlns="http://www.w3.org/2000/svg">
<path d="M6.49999 4.487C6.40038 4.48542 6.30255 4.51362 6.21908 4.56801C6.1356 4.6224 6.07028 4.70049 6.03149 4.79225C5.9927 4.88402 5.98221 4.98528 6.00137 5.08306C6.02052 5.18083 6.06845 5.27066 6.139 5.34101C7.371 6.61501 8.77299 8.493 11.498 8.493C14.223 8.493 15.625 6.61501 16.858 5.34101C16.9037 5.29373 16.9396 5.23791 16.9638 5.17674C16.9879 5.11558 16.9997 5.05026 16.9986 4.98451C16.9975 4.91877 16.9835 4.85389 16.9573 4.79358C16.9311 4.73327 16.8933 4.6787 16.846 4.633C16.7987 4.5873 16.7429 4.55135 16.6817 4.52722C16.6206 4.50309 16.5553 4.49126 16.4895 4.49237C16.4238 4.49349 16.3589 4.50754 16.2986 4.53372C16.2383 4.55991 16.1837 4.59772 16.138 4.64499C14.833 5.99499 13.773 7.493 11.498 7.493C9.22299 7.493 8.163 5.99599 6.858 4.64499C6.81201 4.59594 6.7566 4.55668 6.69509 4.52953C6.63358 4.50238 6.56722 4.48791 6.49999 4.487ZM3.49999 7.493C3.41713 7.49276 3.33551 7.51312 3.26246 7.55225C3.18941 7.59138 3.12724 7.64805 3.08152 7.71717C3.03581 7.78628 3.00798 7.86568 3.00056 7.94821C2.99314 8.03075 3.00634 8.11384 3.03899 8.19L6.039 15.19C6.06281 15.2532 6.09919 15.311 6.14594 15.3597C6.1927 15.4085 6.24885 15.4473 6.31101 15.4738C6.37317 15.5002 6.44005 15.5138 6.50761 15.5138C6.57517 15.5137 6.64202 15.4999 6.70411 15.4732C6.7662 15.4466 6.82223 15.4076 6.86884 15.3587C6.91546 15.3098 6.95167 15.252 6.9753 15.1887C6.99894 15.1254 7.0095 15.0579 7.00636 14.9904C7.00321 14.923 6.98642 14.8568 6.95699 14.796L4.449 8.944L10.301 11.452C10.3618 11.4814 10.428 11.4982 10.4954 11.5014C10.5629 11.5045 10.6304 11.4939 10.6937 11.4703C10.757 11.4467 10.8148 11.4105 10.8637 11.3638C10.9126 11.3172 10.9516 11.2612 10.9782 11.1991C11.0049 11.137 11.0187 11.0702 11.0187 11.0026C11.0188 10.935 11.0052 10.8682 10.9788 10.806C10.9523 10.7439 10.9135 10.6877 10.8647 10.6409C10.816 10.5942 10.7582 10.5578 10.695 10.534L3.695 7.534C3.63341 7.50739 3.56709 7.49344 3.49999 7.493Z" fill="currentColor"/>
</svg>
