<svg width="20" height="20" viewBox="0 0 20 20" fill="none" xmlns="http://www.w3.org/2000/svg">
<path d="M11.5 2.98999C8.775 2.98999 7.37301 4.868 6.14001 6.142C6.0496 6.23528 5.99902 6.36008 5.99902 6.48999C5.99902 6.6199 6.0496 6.7447 6.14001 6.83798C7.37301 8.11298 8.775 9.98999 11.5 9.98999C14.225 9.98999 15.626 8.11098 16.86 6.83398C16.9498 6.7408 17 6.61643 17 6.487C17 6.35757 16.9498 6.23317 16.86 6.13998C15.626 4.86298 14.224 2.98999 11.5 2.98999ZM11.5 3.98999C12.875 3.98999 14 5.11499 14 6.48999C14 7.86499 12.875 8.98999 11.5 8.98999C10.8376 8.98788 10.2029 8.72382 9.73456 8.25543C9.26617 7.78705 9.00211 7.15238 9 6.48999C9 5.11499 10.125 3.98999 11.5 3.98999ZM11.5 4.98999C10.666 4.98999 10 5.65599 10 6.48999C10 7.32399 10.666 7.98999 11.5 7.98999C12.334 7.98999 13 7.32399 13 6.48999C13 5.65599 12.334 4.98999 11.5 4.98999Z" fill="currentColor"/>
<path d="M3.50201 8.98999C3.41914 8.98975 3.33751 9.01013 3.26446 9.04926C3.19141 9.08839 3.1292 9.14506 3.08349 9.21417C3.03778 9.28329 3.00998 9.36269 3.00256 9.44522C2.99514 9.52776 3.00836 9.61082 3.04101 9.68698L6.04101 16.687C6.06483 16.7502 6.10119 16.8079 6.14794 16.8567C6.1947 16.9055 6.25082 16.9443 6.31298 16.9708C6.37514 16.9972 6.44208 17.0108 6.50964 17.0107C6.5772 17.0106 6.64402 16.9969 6.70611 16.9702C6.7682 16.9436 6.82423 16.9046 6.87084 16.8557C6.91746 16.8068 6.95365 16.749 6.97729 16.6857C7.00092 16.6224 7.0115 16.5549 7.00836 16.4875C7.00521 16.42 6.9884 16.3538 6.95898 16.293L4.45098 10.441L10.303 12.949C10.3638 12.9784 10.4299 12.9952 10.4974 12.9984C10.5649 13.0015 10.6324 12.991 10.6957 12.9673C10.759 12.9437 10.8168 12.9075 10.8657 12.8608C10.9146 12.8142 10.9536 12.7582 10.9802 12.6961C11.0069 12.634 11.0206 12.5672 11.0207 12.4996C11.0208 12.432 11.0072 12.3652 10.9808 12.303C10.9543 12.2408 10.9155 12.1847 10.8668 12.1379C10.818 12.0912 10.7602 12.0548 10.697 12.031L3.69702 9.03098C3.63542 9.00437 3.5691 8.99044 3.50201 8.98999Z" fill="currentColor"/>
</svg>
