<svg width="20" height="20" viewBox="0 0 20 20" fill="none" xmlns="http://www.w3.org/2000/svg">
<path d="M10.69 3.01201C9.68608 3.09075 8.74871 3.54497 8.0648 4.28411C7.38089 5.02325 7.00069 5.99301 7 7.00001C6.99934 7.04486 7.00472 7.0896 7.016 7.13301C6.64428 7.22361 6.2876 7.36743 5.957 7.56001C5.25904 7.97745 4.70515 8.598 4.36938 9.33871C4.0336 10.0794 3.93195 10.905 4.078 11.705C3.7287 11.9964 3.45029 12.3635 3.26387 12.7785C3.07745 13.1934 2.9879 13.6453 3.002 14.1C3.02737 14.821 3.31129 15.5088 3.80187 16.0377C4.29245 16.5667 4.95696 16.9015 5.674 16.981C6.34907 17.0523 7.02836 16.8925 7.60087 16.5278C8.17339 16.1631 8.60529 15.615 8.826 14.973C9.71924 15.0129 10.5998 14.75 11.325 14.227C11.8527 14.6491 12.4913 14.9093 13.1637 14.9762C13.8361 15.0431 14.5135 14.9139 15.114 14.604C15.7088 14.2945 16.2022 13.8207 16.5354 13.2389C16.8687 12.6571 17.0279 11.9918 16.9939 11.3221C16.96 10.6525 16.7345 10.0067 16.3441 9.46153C15.9538 8.91638 15.415 8.49482 14.792 8.24701C15.0182 7.563 15.0554 6.83058 14.8996 6.12718C14.7438 5.42378 14.4009 4.77554 13.907 4.25101C13.4961 3.81889 12.9944 3.48348 12.438 3.26903C11.8817 3.05458 11.2846 2.96645 10.69 3.01101V3.01201ZM11.211 4.00801C11.6963 4.04128 12.1663 4.19224 12.5802 4.44785C12.9941 4.70345 13.3396 5.05601 13.5867 5.47505C13.8339 5.89409 13.9752 6.36701 13.9986 6.85293C14.022 7.33886 13.9267 7.82317 13.721 8.26401C13.6873 8.33112 13.6692 8.40495 13.668 8.48001C13.6437 8.60835 13.6706 8.7411 13.7429 8.84986C13.8152 8.95863 13.9273 9.03477 14.055 9.06201C14.555 9.17466 15.0082 9.43837 15.3532 9.81739C15.6982 10.1964 15.9183 10.6724 15.9836 11.1807C16.0489 11.6891 15.9563 12.2052 15.7182 12.6591C15.4802 13.113 15.1083 13.4827 14.653 13.718C14.1986 13.9546 13.6824 14.0458 13.1744 13.9793C12.6664 13.9127 12.1912 13.6917 11.813 13.346C11.7559 13.2904 11.6863 13.2493 11.61 13.226C11.5281 13.1657 11.4297 13.1319 11.328 13.129C11.1987 13.125 11.0729 13.1712 10.977 13.258C10.652 13.5426 10.2694 13.7536 9.8554 13.8766C9.44136 13.9997 9.00563 14.0319 8.578 13.971C8.46342 13.9548 8.34678 13.9788 8.24794 14.039C8.1491 14.0992 8.0742 14.1918 8.036 14.301C7.98911 14.3586 7.95563 14.4259 7.938 14.498C7.8193 14.9645 7.53584 15.3724 7.13993 15.6462C6.74403 15.9201 6.26241 16.0415 5.784 15.988C5.38264 15.9458 5.00356 15.7827 4.6969 15.5204C4.39025 15.258 4.17046 14.9087 4.06663 14.5187C3.96279 14.1288 3.97979 13.7164 4.11539 13.3363C4.25098 12.9562 4.49878 12.6262 4.826 12.39C4.88911 12.3629 4.94596 12.3231 4.993 12.273C5.191 12.158 5.41 12.073 5.649 12.031C5.77475 12.0117 5.8884 11.9451 5.96681 11.845C6.04522 11.7448 6.08248 11.6184 6.07101 11.4917C6.05953 11.365 6.00019 11.2474 5.90506 11.163C5.80993 11.0785 5.68618 11.0334 5.559 11.037C5.53077 11.038 5.50267 11.0413 5.475 11.047C5.315 11.075 5.162 11.122 5.012 11.174C4.97447 10.5729 5.11925 9.97441 5.42738 9.45689C5.73552 8.93937 6.19268 8.52691 6.73906 8.27344C7.28543 8.01997 7.89559 7.9373 8.48971 8.03624C9.08383 8.13519 9.63426 8.41115 10.069 8.82801C10.1165 8.87332 10.1725 8.90882 10.2338 8.93248C10.295 8.95615 10.3604 8.96751 10.426 8.96594C10.4917 8.96436 10.5564 8.94986 10.6164 8.92328C10.6765 8.8967 10.7307 8.85855 10.776 8.81101C10.8213 8.76347 10.8568 8.70748 10.8805 8.64622C10.9041 8.58496 10.9155 8.51964 10.9139 8.45399C10.9123 8.38834 10.8979 8.32364 10.8713 8.26359C10.8447 8.20354 10.8065 8.14932 10.759 8.10401C10.1275 7.5017 9.31618 7.12273 8.449 7.02501C8.302 7.00801 8.15 7.01001 8 7.01001C8.00003 7.00668 8.00003 7.00335 8 7.00001C7.99935 6.58806 8.08366 6.1804 8.24767 5.8025C8.41168 5.42461 8.65186 5.08459 8.9532 4.80371C9.25455 4.52282 9.61058 4.3071 9.99906 4.17002C10.3875 4.03294 10.8001 3.97745 11.211 4.00701V4.00801Z" fill="currentColor"/>
</svg>
