<svg width="20" height="20" viewBox="0 0 20 20" fill="none" xmlns="http://www.w3.org/2000/svg">
<path d="M8 7V14C8 14.5 8.25 15 9 15C9.75 15 10 14.5 10 14V13C10 12.5 10.534 12 11 12C11.2652 12 11.5196 12.1054 11.7071 12.2929C11.8946 12.4804 12 12.7348 12 13V15.5C12 15.8978 12.158 16.2794 12.4393 16.5607C12.7206 16.842 13.1022 17 13.5 17C13.8978 17 14.2794 16.842 14.5607 16.5607C14.842 16.2794 15 15.8978 15 15.5V14C15 13.7348 15.1054 13.4804 15.2929 13.2929C15.4804 13.1054 15.7348 13 16 13C16.2652 13 16.5196 12.8946 16.7071 12.7071C16.8946 12.5196 17 12.2652 17 12V8.91199C16.8395 8.96952 16.6705 8.99929 16.5 9H13.5C13.1022 9 12.7206 8.84197 12.4393 8.56067C12.158 8.27936 12 7.89782 12 7.5V7H8Z" fill="currentColor"/>
<path d="M6.5 3C6.63261 3 6.75979 3.05266 6.85355 3.14642C6.94732 3.24019 7 3.36739 7 3.5V5H13V4.5C13 4.36739 13.0527 4.24019 13.1464 4.14642C13.2402 4.05266 13.3674 4 13.5 4H16.5C16.6326 4 16.7598 4.05266 16.8536 4.14642C16.9473 4.24019 17 4.36739 17 4.5V7.5C17 7.63261 16.9473 7.75981 16.8536 7.85358C16.7598 7.94734 16.6326 8 16.5 8H13.5C13.3674 8 13.2402 7.94734 13.1464 7.85358C13.0527 7.75981 13 7.63261 13 7.5V6H7V6.5C7 6.63261 6.94732 6.75981 6.85355 6.85358C6.75979 6.94734 6.63261 7 6.5 7H3.5C3.36739 7 3.24021 6.94734 3.14645 6.85358C3.05268 6.75981 3 6.63261 3 6.5V3.5C3 3.36739 3.05268 3.24019 3.14645 3.14642C3.24021 3.05266 3.36739 3 3.5 3H6.5ZM6 4H4V6H6V4ZM16 5H14V7H16V5Z" fill="currentColor"/>
</svg>
