<svg width="20" height="20" viewBox="0 0 20 20" fill="none" xmlns="http://www.w3.org/2000/svg">
<path d="M3.5 3C3.36739 3 3.24021 3.05268 3.14645 3.14645C3.05268 3.24021 3 3.36739 3 3.5V16.5C3 16.6326 3.05268 16.7598 3.14645 16.8536C3.24021 16.9473 3.36739 17 3.5 17H16.5C16.6326 17 16.7598 16.9473 16.8536 16.8536C16.9473 16.7598 17 16.6326 17 16.5V3.5C17 3.36739 16.9473 3.24021 16.8536 3.14645C16.7598 3.05268 16.6326 3 16.5 3H3.5ZM4 4H16V16H4V4Z" fill="currentColor"/>
<path d="M6.566 6.00002C6.50034 5.99949 6.43522 6.0119 6.37435 6.03655C6.31349 6.06119 6.25808 6.09758 6.21127 6.14363C6.16447 6.18969 6.1272 6.24452 6.10159 6.30498C6.07598 6.36544 6.06252 6.43035 6.062 6.49602C6.06147 6.56168 6.07389 6.6268 6.09853 6.68766C6.12317 6.74853 6.15956 6.80394 6.20562 6.85074C6.25168 6.89754 6.3065 6.93481 6.36696 6.96043C6.42742 6.98604 6.49234 6.99949 6.558 7.00002L11.496 7.03102C11.5617 7.03154 11.6268 7.01913 11.6876 6.99449C11.7485 6.96984 11.8039 6.93346 11.8507 6.8874C11.8975 6.84134 11.9348 6.78651 11.9604 6.72605C11.986 6.66559 11.9995 6.60068 12 6.53502C12.0005 6.46935 11.9881 6.40423 11.9635 6.34337C11.9388 6.28251 11.9024 6.22709 11.8564 6.18029C11.8103 6.13349 11.7555 6.09622 11.695 6.07061C11.6346 6.04499 11.5697 6.03154 11.504 6.03102L6.566 6.00002ZM6.566 8.00002C6.50034 7.99949 6.43522 8.0119 6.37435 8.03655C6.31349 8.06119 6.25808 8.09758 6.21127 8.14363C6.16447 8.18969 6.1272 8.24452 6.10159 8.30498C6.07598 8.36544 6.06252 8.43036 6.062 8.49602C6.06147 8.56168 6.07389 8.6268 6.09853 8.68766C6.12317 8.74853 6.15956 8.80394 6.20562 8.85074C6.25168 8.89754 6.3065 8.93481 6.36696 8.96043C6.42742 8.98604 6.49234 8.99949 6.558 9.00002L10.496 9.03102C10.6286 9.03208 10.7562 8.98042 10.8507 8.8874C10.9452 8.79438 10.9989 8.66762 11 8.53502C11.0011 8.40241 10.9494 8.27481 10.8564 8.18029C10.7634 8.08577 10.6366 8.03208 10.504 8.03102L6.566 8.00002ZM6.57 10C6.50434 9.99903 6.43913 10.011 6.37809 10.0352C6.31705 10.0594 6.26138 10.0954 6.21425 10.1412C6.16712 10.1869 6.12947 10.2415 6.10343 10.3017C6.07739 10.362 6.06348 10.4269 6.0625 10.4925C6.06151 10.5582 6.07347 10.6234 6.09769 10.6844C6.12191 10.7455 6.15791 10.8011 6.20364 10.8483C6.24938 10.8954 6.30394 10.933 6.36423 10.9591C6.42451 10.9851 6.48934 10.999 6.555 11L8.492 11.031C8.62461 11.0331 8.75263 10.9825 8.8479 10.8902C8.94316 10.798 8.99788 10.6716 9 10.539C9.00212 10.4064 8.95148 10.2784 8.85921 10.1831C8.76694 10.0879 8.64061 10.0331 8.508 10.031L6.57 10ZM6.564 12C6.49834 11.9998 6.43327 12.0124 6.37251 12.0373C6.31174 12.0622 6.25648 12.0988 6.20986 12.145C6.16325 12.1913 6.1262 12.2463 6.10083 12.3068C6.07546 12.3674 6.06226 12.4324 6.062 12.498C6.06174 12.5637 6.07441 12.6287 6.09929 12.6895C6.12418 12.7503 6.16079 12.8055 6.20703 12.8522C6.25328 12.8988 6.30825 12.9358 6.36881 12.9612C6.42937 12.9866 6.49434 12.9998 6.56 13L12.498 13.031C12.5637 13.0313 12.6287 13.0186 12.6895 12.9937C12.7503 12.9688 12.8055 12.9322 12.8521 12.886C12.8988 12.8397 12.9358 12.7848 12.9612 12.7242C12.9865 12.6636 12.9997 12.5987 13 12.533C13.0003 12.4674 12.9876 12.4023 12.9627 12.3415C12.9378 12.2808 12.9012 12.2255 12.855 12.1789C12.8087 12.1323 12.7538 12.0952 12.6932 12.0698C12.6326 12.0445 12.5677 12.0313 12.502 12.031L6.564 12Z" fill="currentColor"/>
</svg>
