<svg width="20" height="20" viewBox="0 0 20 20" fill="none" xmlns="http://www.w3.org/2000/svg">
<path d="M3.496 3C3.36339 3 3.23621 3.05266 3.14245 3.14642C3.04868 3.24019 2.996 3.36739 2.996 3.5V12.5C2.996 12.6326 3.04868 12.7598 3.14245 12.8536C3.23621 12.9473 3.36339 13 3.496 13H16.496C16.6283 13 16.7551 12.9476 16.8488 12.8542C16.9426 12.7609 16.9955 12.6343 16.996 12.502L17.004 9.008L16.004 9.00598L15.998 12H3.996V4H11.996V7.5C11.996 7.63261 12.0487 7.75981 12.1424 7.85358C12.2362 7.94734 12.3634 8 12.496 8H16.496C16.5948 7.99998 16.6914 7.97065 16.7736 7.91577C16.8558 7.86089 16.9198 7.78292 16.9577 7.69165C16.9956 7.60038 17.0056 7.49995 16.9864 7.40302C16.9672 7.30608 16.9198 7.21695 16.85 7.14697L12.85 3.14697C12.8034 3.10071 12.7482 3.06413 12.6874 3.03925C12.6267 3.01436 12.5616 3.00171 12.496 3.00201V3H12.488H3.496ZM11.004 14.008L9.004 14.012V16H6.496C5.82 15.99 5.82 17.01 6.496 17H13.496C14.172 17.01 14.172 15.99 13.496 16H11.004V14.008Z" fill="currentColor"/>
</svg>
