<svg width="20" height="20" viewBox="0 0 20 20" fill="none" xmlns="http://www.w3.org/2000/svg">
<path d="M16.492 2.99404C16.3622 2.99747 16.2388 3.05129 16.148 3.14406L14.578 4.71407C13.3101 3.6079 11.6846 2.99831 10.002 2.99806C6.142 2.99806 3.002 6.13806 3.002 9.99806C3.002 11.7481 3.652 13.3481 4.717 14.5761L3.148 16.145C3.10025 16.1912 3.06216 16.2463 3.03595 16.3073C3.00975 16.3683 2.99596 16.4339 2.99538 16.5003C2.9948 16.5667 3.00745 16.6326 3.03259 16.694C3.05773 16.7555 3.09486 16.8113 3.14181 16.8582C3.18876 16.9052 3.24458 16.9423 3.30602 16.9675C3.36747 16.9926 3.43331 17.0052 3.4997 17.0047C3.56609 17.0041 3.6317 16.9903 3.6927 16.9641C3.75371 16.9379 3.80888 16.8998 3.85501 16.8521L5.42401 15.283C6.69271 16.389 8.31893 16.9982 10.002 16.9981C13.862 16.9981 17.002 13.8581 17.002 9.99806C17.002 8.24806 16.351 6.65108 15.285 5.42208L16.855 3.85207C16.9271 3.78184 16.9764 3.69146 16.9963 3.59279C17.0162 3.49412 17.0059 3.39173 16.9666 3.29903C16.9274 3.20632 16.8611 3.12761 16.7764 3.0732C16.6918 3.01878 16.5926 2.99119 16.492 2.99404ZM10.002 3.99806C13.322 3.99806 16.002 6.67806 16.002 9.99806C16.002 13.3181 13.322 15.9981 10.002 15.9981C8.99898 15.9997 8.01158 15.7496 7.13033 15.2706C6.24909 14.7916 5.50218 14.0989 4.9581 13.2563C4.41402 12.4137 4.09018 11.4479 4.01626 10.4476C3.94234 9.44735 4.1207 8.44449 4.53501 7.53102L5.002 7.99806L6.002 8.99806V10.9981H8.002V11.9981L9.002 12.9981V14.9981H11.002L12.002 13.9981L13.002 12.9981V11.9981L12.002 10.9981H9.002L8.002 9.99806H7.002L8.002 8.99806H9.002L11.002 6.99806L10.002 5.99806H9.002L8.002 4.99806L8.89601 4.10402C9.26063 4.0348 9.63086 3.99936 10.002 3.99806Z" fill="currentColor"/>
</svg>
