<svg width="20" height="20" viewBox="0 0 20 20" fill="none" xmlns="http://www.w3.org/2000/svg">
<path d="M4 3V5H3V9H4V11H6V3H4ZM14 3V11H16V9H17V5H16V3H14ZM7 6V8H13V6H7Z" fill="currentColor"/>
<path d="M7 9V14C7 14.5 7.25 15 8 15C8.75 15 9 14.5 9 14V13C9 12.5 9.534 12 10 12C10.2652 12 10.5196 12.1054 10.7071 12.2929C10.8946 12.4804 11 12.7348 11 13V15.5C11 15.8978 11.158 16.2794 11.4393 16.5607C11.7207 16.842 12.1022 17 12.5 17C12.8978 17 13.2793 16.842 13.5607 16.5607C13.842 16.2794 14 15.8978 14 15.5V15C14 14.7348 14.1054 14.4804 14.2929 14.2929C14.4804 14.1054 14.7348 14 15 14C15.2652 14 15.5196 13.8946 15.7071 13.7071C15.8946 13.5196 16 13.2652 16 13V12H13V9H7Z" fill="currentColor"/>
</svg>
