<svg width="20" height="20" viewBox="0 0 20 20" fill="none" xmlns="http://www.w3.org/2000/svg">
<path d="M3.5 6C3.36739 6 3.24022 6.05268 3.14645 6.14645C3.05269 6.24021 3 6.36739 3 6.5V16.5C3 16.6326 3.05269 16.7598 3.14645 16.8535C3.24022 16.9473 3.36739 17 3.5 17H13.5C13.6326 17 13.7598 16.9473 13.8535 16.8535C13.9473 16.7598 14 16.6326 14 16.5V6.5C14 6.36739 13.9473 6.24021 13.8535 6.14645C13.7598 6.05268 13.6326 6 13.5 6H3.5ZM4 7H13V16H4V7Z" fill="currentColor"/>
<path d="M7 8V10H8V8H7ZM7 11V12.5C7 12.6326 7.05269 12.7598 7.14645 12.8536C7.24022 12.9473 7.36739 13 7.5 13H9V12H8V11H7ZM10 12V13H12V12H10Z" fill="currentColor"/>
<path d="M7.5 3C7.36739 3 7.24022 3.05268 7.14645 3.14645C7.05269 3.24021 7 3.36739 7 3.5V5H8V4H16V12H15V13H16.5C16.6326 13 16.7598 12.9473 16.8535 12.8536C16.9473 12.7598 17 12.6326 17 12.5V3.5C17 3.36739 16.9473 3.24021 16.8535 3.14645C16.7598 3.05268 16.6326 3 16.5 3H7.5Z" fill="currentColor"/>
</svg>
