<svg width="20" height="20" viewBox="0 0 20 20" fill="none" xmlns="http://www.w3.org/2000/svg">
<path d="M10.55 2.95001C6.977 2.95001 4.05 5.87701 4.05 9.45001C4.05167 10.9996 4.6103 12.497 5.624 13.669L3.196 16.096C3.10211 16.1899 3.04937 16.3172 3.04937 16.45C3.04937 16.5828 3.10211 16.7101 3.196 16.804C3.28988 16.8979 3.41722 16.9506 3.55 16.9506C3.68278 16.9506 3.81012 16.8979 3.904 16.804L6.32901 14.378C7.50212 15.391 9.00007 15.9488 10.55 15.95C14.123 15.95 17.05 13.023 17.05 9.45001C17.05 5.87701 14.123 2.95001 10.55 2.95001ZM10.55 3.95001C13.409 3.95001 15.77 6.15501 16.025 8.95001H9.757L11.904 6.80402C11.9505 6.75753 11.9874 6.70234 12.0125 6.6416C12.0377 6.58086 12.0506 6.51576 12.0506 6.45001C12.0506 6.38427 12.0377 6.31916 12.0125 6.25842C11.9874 6.19768 11.9505 6.1425 11.904 6.09601C11.8575 6.04952 11.8023 6.01265 11.7416 5.98749C11.6808 5.96233 11.6157 5.9494 11.55 5.9494C11.4843 5.9494 11.4191 5.96233 11.3584 5.98749C11.2977 6.01265 11.2425 6.04952 11.196 6.09601L8.23899 9.05402C8.17828 9.10057 8.12907 9.16044 8.09513 9.229C8.0612 9.29757 8.04345 9.37302 8.04325 9.44952C8.04306 9.52603 8.06043 9.60155 8.09402 9.67029C8.12761 9.73903 8.17652 9.79915 8.237 9.84601L8.24299 9.85004L11.197 12.804C11.667 13.294 12.394 12.568 11.904 12.097L9.757 9.95001H16.025C15.77 12.745 13.409 14.95 10.55 14.95C9.09236 14.9466 7.69541 14.366 6.6647 13.3353C5.63399 12.3046 5.05343 10.9076 5.05 9.45001C5.05 6.42301 7.523 3.95001 10.55 3.95001Z" fill="currentColor"/>
</svg>
