<svg width="20" height="20" viewBox="0 0 20 20" fill="none" xmlns="http://www.w3.org/2000/svg">
<path d="M10.55 2.95001C6.977 2.95001 4.05 5.87701 4.05 9.45001C4.05167 10.9996 4.6103 12.497 5.624 13.669L3.196 16.096C3.10211 16.1899 3.04937 16.3172 3.04937 16.45C3.04937 16.5828 3.10211 16.7101 3.196 16.804C3.28988 16.8979 3.41722 16.9506 3.55 16.9506C3.68278 16.9506 3.81012 16.8979 3.904 16.804L6.32901 14.378C7.50212 15.391 9.00007 15.9488 10.55 15.95C14.123 15.95 17.05 13.023 17.05 9.45001C17.05 5.87701 14.123 2.95001 10.55 2.95001ZM10.55 3.95001C13.577 3.95001 16.05 6.42301 16.05 9.45001C16.05 12.477 13.577 14.95 10.55 14.95C9.09236 14.9466 7.69541 14.366 6.6647 13.3353C5.63399 12.3046 5.05343 10.9076 5.05 9.45001C5.05 6.42301 7.523 3.95001 10.55 3.95001ZM10.542 5.94202C10.4763 5.94306 10.4115 5.957 10.3513 5.98309C10.291 6.00919 10.2365 6.04694 10.1908 6.09412C10.1451 6.14129 10.1091 6.19699 10.085 6.25806C10.0608 6.31913 10.0489 6.38435 10.05 6.45001V8.95001H7.55C7.41739 8.95001 7.29022 9.00267 7.19645 9.09644C7.10268 9.1902 7.05 9.3174 7.05 9.45001C7.05 9.58262 7.10268 9.70982 7.19645 9.80359C7.29022 9.89736 7.41739 9.95001 7.55 9.95001H10.05V12.45C10.05 12.5826 10.1027 12.7098 10.1965 12.8036C10.2902 12.8974 10.4174 12.95 10.55 12.95C10.6826 12.95 10.8098 12.8974 10.9035 12.8036C10.9973 12.7098 11.05 12.5826 11.05 12.45V9.95001H13.55C13.6826 9.95001 13.8098 9.89736 13.9035 9.80359C13.9973 9.70982 14.05 9.58262 14.05 9.45001C14.05 9.3174 13.9973 9.1902 13.9035 9.09644C13.8098 9.00267 13.6826 8.95001 13.55 8.95001H11.05V6.45001C11.0511 6.383 11.0387 6.31646 11.0135 6.25433C10.9884 6.19221 10.951 6.13577 10.9036 6.08838C10.8562 6.04099 10.7998 6.0036 10.7377 5.97845C10.6755 5.95331 10.609 5.94094 10.542 5.94202Z" fill="currentColor"/>
</svg>
