<svg width="20" height="20" viewBox="0 0 20 20" fill="none" xmlns="http://www.w3.org/2000/svg">
<path d="M11.504 2.99597C8.481 2.99597 6.004 5.47297 6.004 8.49597C6.004 9.82897 6.486 11.0549 7.284 12.0099L3.15 16.142C3.10351 16.1885 3.06663 16.2436 3.04148 16.3044C3.01632 16.3651 3.00337 16.4302 3.00337 16.496C3.00337 16.5617 3.01632 16.6268 3.04148 16.6876C3.06663 16.7483 3.10351 16.8035 3.15 16.85C3.19648 16.8965 3.25167 16.9333 3.31241 16.9585C3.37315 16.9837 3.43826 16.9966 3.504 16.9966C3.56974 16.9966 3.63485 16.9837 3.69559 16.9585C3.75633 16.9333 3.81152 16.8965 3.858 16.85L7.98999 12.717C8.97457 13.5431 10.2187 13.996 11.504 13.996C14.527 13.996 17.004 11.519 17.004 8.49597C17.004 5.47297 14.527 2.99597 11.504 2.99597ZM11.504 3.99597C12.6967 3.99861 13.8397 4.47355 14.6831 5.31689C15.5264 6.16024 16.0014 7.30331 16.004 8.49597C16.0014 9.68863 15.5264 10.8317 14.6831 11.675C13.8397 12.5184 12.6967 12.9933 11.504 12.996C10.3113 12.9933 9.16828 12.5184 8.32494 11.675C7.4816 10.8317 7.00664 9.68863 7.004 8.49597C7.00664 7.30331 7.4816 6.16024 8.32494 5.31689C9.16828 4.47355 10.3113 3.99861 11.504 3.99597Z" fill="currentColor"/>
<path d="M9.504 7.99597C9.37139 7.99597 9.24422 8.04863 9.15045 8.1424C9.05669 8.23616 9.004 8.36336 9.004 8.49597V10.713C9.00404 10.7826 9.01865 10.8516 9.04689 10.9153C9.07513 10.979 9.11639 11.0361 9.168 11.0829C9.80633 11.6667 10.639 11.9922 11.504 11.996C12.404 11.996 13.224 11.641 13.84 11.084C13.8917 11.037 13.9331 10.9797 13.9613 10.9158C13.9896 10.8519 14.0041 10.7828 14.004 10.713V8.49597C14.004 8.36336 13.9513 8.23616 13.8575 8.1424C13.7638 8.04863 13.6366 7.99597 13.504 7.99597H9.504ZM10.477 14.916C10.3491 14.9229 10.2288 14.9786 10.1408 15.0717C10.0528 15.1647 10.0038 15.2879 10.004 15.416V16.496C10.004 16.6286 10.0567 16.7558 10.1505 16.8495C10.2442 16.9433 10.3714 16.996 10.504 16.996H12.504C12.6366 16.996 12.7638 16.9433 12.8575 16.8495C12.9513 16.7558 13.004 16.6286 13.004 16.496V15.416C13.0039 15.3443 12.9884 15.2735 12.9585 15.2083C12.9286 15.1432 12.8851 15.0852 12.8308 15.0383C12.7766 14.9915 12.7129 14.9568 12.6441 14.9368C12.5753 14.9167 12.5029 14.9117 12.432 14.922C12.119 14.967 11.812 14.996 11.504 14.996C11.196 14.996 10.889 14.967 10.576 14.922C10.5429 14.917 10.5094 14.9149 10.476 14.916H10.477Z" fill="currentColor"/>
</svg>
