<svg width="20" height="20" viewBox="0 0 20 20" fill="none" xmlns="http://www.w3.org/2000/svg">
<path d="M13 3C10.802 3 9 4.802 9 7C9 7.92 9.328 8.75999 9.855 9.43799L6.146 13.146C6.05211 13.2399 5.99937 13.3672 5.99937 13.5C5.99937 13.6328 6.05211 13.7601 6.146 13.854C6.23988 13.9479 6.36722 14.0006 6.5 14.0006C6.63278 14.0006 6.76012 13.9479 6.854 13.854L10.562 10.144C11.2559 10.6942 12.1144 10.9956 13 11C15.198 11 17 9.198 17 7C17 4.802 15.198 3 13 3ZM13 4C14.652 4 16 5.348 16 7C16 8.652 14.652 10 13 10C11.348 10 10 8.652 10 7C10 5.348 11.348 4 13 4Z" fill="currentColor"/>
<path d="M6.48399 4.00001C6.35685 4.00391 6.23599 4.05612 6.14599 4.14601L3.14599 7.14601C3.07589 7.21594 3.02812 7.30513 3.00876 7.40223C2.98939 7.49934 2.9993 7.60001 3.03721 7.69148C3.07513 7.78295 3.13935 7.8611 3.22174 7.91603C3.30413 7.97096 3.40098 8.00019 3.5 8.00001H6.5C6.63261 8.00001 6.75977 7.94736 6.85354 7.85359C6.94731 7.75982 7 7.63262 7 7.50001V5.00001H7.5C8.176 5.01001 8.176 3.99001 7.5 4.00001H6.5V4.00203L6.48399 4.00001ZM3 9.00001V16.5C3 16.6326 3.05268 16.7598 3.14645 16.8536C3.24022 16.9474 3.36739 17 3.5 17H12.5C12.6326 17 12.7598 16.9474 12.8535 16.8536C12.9473 16.7598 13 16.6326 13 16.5V12.5C13.01 11.824 11.99 11.824 12 12.5V16H4V9.00001H3Z" fill="currentColor"/>
</svg>
