<svg width="20" height="20" viewBox="0 0 20 20" fill="none" xmlns="http://www.w3.org/2000/svg">
<path d="M8.483 3.49201C8.41734 3.49305 8.35253 3.50702 8.29227 3.53312C8.232 3.55921 8.17746 3.59693 8.13177 3.6441C8.08609 3.69127 8.05012 3.74698 8.02597 3.80805C8.00182 3.86912 7.98994 3.93435 7.991 4.00001V12.91L3.30499 14.785C3.18167 14.8343 3.08299 14.9306 3.03067 15.0527C2.97835 15.1748 2.97667 15.3127 3.026 15.436C3.07533 15.5593 3.17161 15.658 3.2937 15.7103C3.41579 15.7627 3.55367 15.7643 3.677 15.715L8.505 13.783L16.329 16.473C16.3913 16.4951 16.4574 16.5046 16.5234 16.5009C16.5894 16.4973 16.654 16.4806 16.7135 16.4519C16.773 16.4231 16.8262 16.3828 16.8701 16.3334C16.9139 16.2839 16.9475 16.2262 16.9689 16.1637C16.9903 16.1012 16.9992 16.035 16.9948 15.9691C16.9905 15.9031 16.9732 15.8387 16.9438 15.7794C16.9144 15.7202 16.8736 15.6674 16.8237 15.6241C16.7738 15.5808 16.7157 15.5478 16.653 15.527L8.991 12.893V4.00001C8.99208 3.933 8.97967 3.86646 8.95453 3.80434C8.92938 3.74222 8.89199 3.68578 8.8446 3.63839C8.79721 3.591 8.7408 3.55362 8.67868 3.52848C8.61656 3.50333 8.55001 3.49093 8.483 3.49201Z" fill="currentColor"/>
<path d="M10.497 3.93601C10.4308 3.93522 10.3652 3.94756 10.3038 3.97233C10.2424 3.99711 10.1866 4.03381 10.1396 4.08032C10.0925 4.12683 10.0551 4.18222 10.0296 4.24328C10.0041 4.30433 9.99099 4.36984 9.991 4.43601V11.32C9.99086 11.4262 10.0245 11.5296 10.0871 11.6154C10.1496 11.7011 10.2379 11.7647 10.339 11.797L16.339 13.727C16.414 13.7509 16.4936 13.7568 16.5713 13.7442C16.649 13.7315 16.7227 13.7007 16.7862 13.6542C16.8498 13.6077 16.9014 13.5469 16.937 13.4766C16.9726 13.4064 16.9911 13.3288 16.991 13.25V6.36501C16.9909 6.25903 16.9572 6.15581 16.8946 6.07026C16.8321 5.9847 16.744 5.92123 16.643 5.88901L10.643 3.95901C10.5957 3.94416 10.5465 3.9364 10.497 3.93601Z" fill="currentColor"/>
</svg>
