<svg width="20" height="20" viewBox="0 0 20 20" fill="none" xmlns="http://www.w3.org/2000/svg">
<path d="M9.004 2.99597V4.99597H10.004V2.99597H9.004ZM12.004 2.99597V3.99597H14.004V2.99597H12.004ZM16.004 2.99597V4.99597H17.004V2.99597H16.004ZM10.004 5.99597C7.806 5.99597 6.004 7.79797 6.004 9.99597C6.004 10.916 6.331 11.756 6.859 12.434L3.15 16.142C3.05612 16.2359 3.00337 16.3632 3.00337 16.496C3.00337 16.6287 3.05612 16.7561 3.15 16.85C3.24389 16.9439 3.37122 16.9966 3.504 16.9966C3.63678 16.9966 3.76411 16.9439 3.858 16.85L7.567 13.14C8.26068 13.6899 9.11877 13.9913 10.004 13.996C11.0635 13.992 12.0784 13.5692 12.8273 12.8199C13.5763 12.0705 13.9986 11.0554 14.002 9.99597C14.002 7.79797 12.202 5.99597 10.004 5.99597ZM16.004 6.99597V8.99597H17.004V6.99597H16.004ZM10.004 6.99799C11.656 6.99799 13.004 8.34397 13.004 9.99597C13.004 11.648 11.656 12.996 10.004 12.996C8.352 12.996 7.004 11.648 7.004 9.99597C7.00559 9.20099 7.32223 8.43908 7.88455 7.87714C8.44688 7.31519 9.20902 6.99904 10.004 6.99799ZM16.004 10.996V12.996H17.004V10.996H16.004ZM9.004 14.996V16.996H10.004V14.996H9.004ZM16.004 14.996V16.996H17.004V14.996H16.004ZM12.004 15.996V16.996H14.004V15.996H12.004Z" fill="currentColor"/>
<path d="M9.004 2.99597V6.49597H10.004V3.99597H16.004V15.996H10.004V13.746H9.004V16.996H17.004V2.99597H9.004Z" fill="currentColor"/>
</svg>
