<svg width="20" height="20" viewBox="0 0 20 20" fill="none" xmlns="http://www.w3.org/2000/svg">
<path d="M5.663 2.98902C5.27914 2.98282 4.89805 3.05496 4.54301 3.20102C4.08595 3.39057 3.69524 3.71117 3.42011 4.12244C3.14499 4.5337 2.99774 5.01722 2.99699 5.51203V9.01203H3.99699V5.51203C3.99692 5.21492 4.0851 4.92448 4.25031 4.67755C4.41553 4.43062 4.65034 4.23833 4.925 4.12503C5.469 3.90003 6.34599 4.06802 6.64399 4.36502L7.14399 4.86502C7.61399 5.35502 8.34099 4.63002 7.85099 4.15802L7.35099 3.65802C6.9936 3.31101 6.53455 3.08744 6.04099 3.02002C5.91584 3.0011 5.78956 2.99074 5.663 2.98902ZM14.337 2.98902C14.2108 2.99056 14.0849 3.00058 13.96 3.01901C13.464 3.09501 13 3.30703 12.65 3.65903L12.15 4.15903C11.66 4.62903 12.385 5.35602 12.857 4.86502L13.357 4.36502C13.654 4.06802 14.532 3.90003 15.075 4.12503C15.3496 4.23833 15.5845 4.43062 15.7497 4.67755C15.9149 4.92448 16.0031 5.21492 16.003 5.51203V9.01203H17.003V5.51203C17.003 4.50203 16.391 3.58803 15.458 3.20203C15.1027 3.05565 14.7213 2.98317 14.337 2.98902ZM3.49699 10.012C3.36438 10.012 3.23721 10.0647 3.14344 10.1585C3.04967 10.2522 2.99699 10.3794 2.99699 10.512V16.512C2.99699 16.6446 3.04967 16.7718 3.14344 16.8656C3.23721 16.9593 3.36438 17.012 3.49699 17.012H7.503C7.58534 17.012 7.66639 16.9916 7.73896 16.9527C7.81153 16.9138 7.87337 16.8576 7.91898 16.789L9.771 14.012H10.235L12.087 16.789C12.1326 16.8576 12.1945 16.9138 12.267 16.9527C12.3396 16.9916 12.4207 17.012 12.503 17.012H16.497C16.6296 17.012 16.7568 16.9593 16.8506 16.8656C16.9443 16.7718 16.997 16.6446 16.997 16.512V10.512C16.997 10.3794 16.9443 10.2522 16.8506 10.1585C16.7568 10.0647 16.6296 10.012 16.497 10.012H3.49699ZM9.003 11.012V13.36L7.23499 16.012H3.99699L4.003 11.014L9.003 11.012ZM10.997 11.012L15.997 11.014V16.012H12.771L11.003 13.36L10.997 11.012Z" fill="currentColor"/>
<path d="M5.49699 12.012C5.36438 12.012 5.23721 12.0647 5.14344 12.1585C5.04967 12.2522 4.99699 12.3794 4.99699 12.512V14.512C4.99699 14.6446 5.04967 14.7718 5.14344 14.8656C5.23721 14.9593 5.36438 15.012 5.49699 15.012H6.503C6.58534 15.012 6.66639 14.9916 6.73896 14.9527C6.81153 14.9138 6.87337 14.8576 6.91898 14.789L7.91898 13.289C7.97483 13.2053 8.00412 13.1066 8.003 13.006L7.99699 12.506C7.99541 12.3744 7.94205 12.2488 7.84846 12.1563C7.75486 12.0639 7.62856 12.012 7.49699 12.012H5.49699Z" fill="currentColor"/>
</svg>
