<svg width="20" height="20" viewBox="0 0 20 20" fill="none" xmlns="http://www.w3.org/2000/svg">
<path d="M10 6C7.798 6 6 7.798 6 10C6 12.202 7.798 14 10 14C12.202 14 14 12.202 14 10C14 7.798 12.202 6 10 6Z" fill="currentColor"/>
<path d="M3.5 3C3.36739 3 3.24022 3.05269 3.14645 3.14645C3.05269 3.24022 3 3.36739 3 3.5V16.5C3 16.6326 3.05269 16.7598 3.14645 16.8535C3.24022 16.9473 3.36739 17 3.5 17H16.5C16.6326 17 16.7598 16.9473 16.8535 16.8535C16.9473 16.7598 17 16.6326 17 16.5V3.5C17 3.36739 16.9473 3.24022 16.8535 3.14645C16.7598 3.05269 16.6326 3 16.5 3H3.5ZM4 4H16V16H4V4Z" fill="currentColor"/>
</svg>
