<svg width="20" height="20" viewBox="0 0 20 20" fill="none" xmlns="http://www.w3.org/2000/svg">
<path d="M5.51 4.99598C5.39735 4.99527 5.28776 5.03262 5.199 5.10198C4.32609 5.7568 3.66769 6.65649 3.30758 7.68657C2.94746 8.71666 2.9019 9.83059 3.17669 10.8866C3.45148 11.9427 4.0342 12.8931 4.85071 13.6171C5.66723 14.341 6.68063 14.8057 7.762 14.952C8.76363 15.0849 9.78253 14.9391 10.7067 14.5305C11.6308 14.1219 12.4243 13.4664 13 12.636V15.5C13 15.6326 13.0527 15.7598 13.1464 15.8535C13.2402 15.9473 13.3674 16 13.5 16C13.6326 16 13.7598 15.9473 13.8536 15.8535C13.9473 15.7598 14 15.6326 14 15.5V11.5C14 11.3674 13.9473 11.2402 13.8536 11.1464C13.7598 11.0527 13.6326 11 13.5 11H9.5C9.36739 11 9.24021 11.0527 9.14644 11.1464C9.05268 11.2402 9 11.3674 9 11.5C9 11.6326 9.05268 11.7598 9.14644 11.8535C9.24021 11.9473 9.36739 12 9.5 12H12.226C11.7456 12.7217 11.0664 13.2888 10.2706 13.6328C9.47479 13.9767 8.59638 14.0828 7.74155 13.9382C6.88672 13.7936 6.09207 13.4046 5.45364 12.818C4.81521 12.2314 4.36034 11.4725 4.144 10.633C3.91889 9.7688 3.95617 8.85716 4.25109 8.01425C4.54602 7.17133 5.08522 6.43531 5.8 5.89998C5.88495 5.83805 5.94821 5.75091 5.9808 5.65096C6.01339 5.55101 6.01365 5.44333 5.98154 5.34323C5.94942 5.24312 5.88658 5.15569 5.80192 5.09335C5.71727 5.03101 5.61512 4.99694 5.51 4.99598Z" fill="currentColor"/>
<path d="M17 8V6H16V8H17ZM17 5V3H16V5H17ZM17 17V15H16V17H17ZM17 14V12H16V14H17ZM17 11V9H16V11H17Z" fill="currentColor"/>
</svg>
