<svg width="20" height="20" viewBox="0 0 20 20" fill="none" xmlns="http://www.w3.org/2000/svg">
<path d="M3.50001 16.005C3.3674 16.005 3.2402 16.0577 3.14643 16.1515C3.05267 16.2452 3.00001 16.3724 3.00001 16.505C3.00001 16.6376 3.05267 16.7648 3.14643 16.8586C3.2402 16.9523 3.3674 17.005 3.50001 17.005H9.783C9.51741 16.7144 9.31121 16.3747 9.17601 16.005H3.50001ZM14.799 16.005C14.6635 16.3748 14.457 16.7146 14.191 17.005H16.5C16.6326 17.005 16.7598 16.9523 16.8536 16.8586C16.9473 16.7648 17 16.6376 17 16.505C17 16.3724 16.9473 16.2452 16.8536 16.1515C16.7598 16.0577 16.6326 16.005 16.5 16.005H14.799Z" fill="currentColor"/>
<path d="M11.986 12.993C13.086 12.993 13.99 13.895 13.99 14.995C13.99 16.095 13.086 16.995 11.986 16.995C10.886 16.995 9.98399 16.095 9.98399 14.995C9.98399 13.895 10.886 12.993 11.986 12.993ZM7.48799 2.995C8.15057 2.9971 8.78546 3.2611 9.25416 3.72943C9.72286 4.19776 9.98737 4.83242 9.99 5.495C9.98736 6.15739 9.7228 6.79182 9.25404 7.25983C8.78528 7.72784 8.15038 7.9914 7.48799 7.99298C6.82578 7.9914 6.19114 7.72777 5.7227 7.2597C5.25426 6.79164 4.9901 6.1572 4.98799 5.495C4.98799 4.121 6.11299 2.995 7.48799 2.995ZM7.48799 3.995C6.65299 3.995 5.98799 4.662 5.98799 5.495C5.98692 5.69218 6.02502 5.88759 6.10005 6.06995C6.17508 6.2523 6.28556 6.41797 6.42509 6.55731C6.56462 6.69665 6.73043 6.8069 6.91288 6.88168C7.09534 6.95647 7.2908 6.99431 7.48799 6.99298C8.32299 6.99298 8.99 6.328 8.99 5.495C8.99 4.662 8.32299 3.995 7.48799 3.995Z" fill="currentColor"/>
<path d="M7.49202 8.99701C7.42636 8.99806 7.36152 9.01203 7.30125 9.03812C7.24099 9.06422 7.18645 9.10194 7.14076 9.14911C7.09507 9.19629 7.05914 9.25198 7.03499 9.31305C7.01083 9.37412 6.99896 9.43935 7.00002 9.50501V10.505C7.00002 10.6376 7.05267 10.7648 7.14644 10.8586C7.24021 10.9523 7.36741 11.005 7.50002 11.005C7.63262 11.005 7.75979 10.9523 7.85356 10.8586C7.94733 10.7648 8.00002 10.6376 8.00002 10.505V9.50501C8.0011 9.438 7.98869 9.37145 7.96355 9.30933C7.9384 9.24721 7.90101 9.1908 7.85362 9.14341C7.80623 9.09602 7.74979 9.05863 7.68767 9.03348C7.62555 9.00834 7.55903 8.99593 7.49202 8.99701ZM7.49202 11.997C7.42636 11.9981 7.36152 12.012 7.30125 12.0381C7.24099 12.0642 7.18645 12.1019 7.14076 12.1491C7.09507 12.1963 7.05914 12.252 7.03499 12.3131C7.01083 12.3741 6.99896 12.4393 7.00002 12.505V13.505C7.00002 13.6376 7.05267 13.7648 7.14644 13.8586C7.24021 13.9523 7.36741 14.005 7.50002 14.005C7.63262 14.005 7.75979 13.9523 7.85356 13.8586C7.94733 13.7648 8.00002 13.6376 8.00002 13.505V12.505C8.0011 12.438 7.98869 12.3715 7.96355 12.3093C7.9384 12.2472 7.90101 12.1908 7.85362 12.1434C7.80623 12.096 7.74979 12.0586 7.68767 12.0335C7.62555 12.0083 7.55903 11.9959 7.49202 11.997Z" fill="currentColor"/>
</svg>
