<svg width="20" height="20" viewBox="0 0 20 20" fill="none" xmlns="http://www.w3.org/2000/svg">
<path d="M11.992 5.50101C11.9939 4.83747 12.2582 4.20164 12.7274 3.73245C13.1966 3.26326 13.8324 2.99886 14.496 2.99701C15.1595 2.99886 15.7953 3.26326 16.2645 3.73245C16.7337 4.20164 16.9982 4.83747 17 5.50101C16.9982 6.16454 16.7337 6.80037 16.2645 7.26956C15.7953 7.73875 15.1595 8.00316 14.496 8.005C13.8324 8.00316 13.1966 7.73875 12.7274 7.26956C12.2582 6.80037 11.9939 6.16454 11.992 5.50101ZM3 15.005C3 13.909 3.897 13.009 4.992 13.009C6.088 13.009 6.98602 13.909 6.98602 15.005C6.98419 15.5337 6.77364 16.0402 6.40021 16.4144C6.02677 16.7886 5.52064 17.0001 4.992 17.003C4.46355 17.0001 3.95765 16.7885 3.58453 16.4142C3.21142 16.04 3.00131 15.5335 3 15.005ZM4 15.005C4 15.562 4.438 16.003 4.992 16.003C5.12303 16.0036 5.25286 15.9781 5.37396 15.928C5.49506 15.878 5.60499 15.8045 5.69745 15.7116C5.78991 15.6188 5.86307 15.5085 5.9126 15.3872C5.96213 15.2659 5.98708 15.136 5.98602 15.005C5.98709 14.8741 5.96209 14.7443 5.91254 14.6231C5.86298 14.5019 5.78981 14.3917 5.69733 14.2991C5.60484 14.2064 5.49487 14.133 5.37378 14.0832C5.25269 14.0334 5.12293 14.0082 4.992 14.009C4.86117 14.0082 4.73145 14.0335 4.61047 14.0833C4.48949 14.1331 4.37968 14.2065 4.28735 14.2992C4.19503 14.3919 4.12209 14.5021 4.07275 14.6232C4.02342 14.7444 3.99867 14.8742 4 15.005Z" fill="currentColor"/>
<path d="M11.368 8.009C11.2104 8.01326 11.0608 8.07895 10.951 8.19202L10.177 8.966C10.1189 9.02158 10.0725 9.0882 10.0405 9.16193C10.0085 9.23566 9.99159 9.31502 9.99066 9.39539C9.98973 9.47576 10.0049 9.55549 10.0352 9.62994C10.0654 9.7044 10.1103 9.77208 10.1671 9.82898C10.2238 9.88588 10.2913 9.93088 10.3657 9.96133C10.4401 9.99179 10.5198 10.0071 10.6002 10.0063C10.6805 10.0056 10.76 9.98883 10.8338 9.957C10.9076 9.92518 10.9743 9.87895 11.03 9.82102L11.806 9.04501C11.8929 8.96018 11.9522 8.85112 11.9762 8.73206C12.0002 8.613 11.9877 8.48946 11.9404 8.37759C11.8931 8.26573 11.8132 8.17073 11.7111 8.10498C11.6089 8.03923 11.4894 8.00577 11.368 8.009ZM8.37097 10.999C8.21186 11.0036 8.06085 11.07 7.95001 11.184L7.16602 11.966C7.10919 12.0226 7.06408 12.0898 7.03326 12.1638C7.00245 12.2377 6.9865 12.317 6.98639 12.3972C6.98628 12.4773 7.00199 12.5566 7.03259 12.6307C7.0632 12.7048 7.10813 12.7721 7.1648 12.8288C7.22146 12.8855 7.28876 12.9306 7.36285 12.9613C7.43695 12.9921 7.51637 13.008 7.59662 13.0081C7.67687 13.0082 7.75638 12.9925 7.83057 12.962C7.90475 12.9314 7.97217 12.8866 8.02899 12.83L8.815 12.046C8.90324 11.9603 8.96347 11.85 8.98785 11.7296C9.01223 11.6091 8.99965 11.4841 8.95166 11.3709C8.90367 11.2577 8.82254 11.1617 8.71893 11.0953C8.61533 11.029 8.49402 10.9954 8.37097 10.999Z" fill="currentColor"/>
</svg>
