<svg width="20" height="20" viewBox="0 0 20 20" fill="none" xmlns="http://www.w3.org/2000/svg">
<path d="M5.496 3.99198C5.42083 3.99322 5.3469 4.01138 5.27973 4.04514C5.21255 4.07891 5.15385 4.12741 5.108 4.18699C5.10665 4.18898 5.10532 4.19096 5.104 4.19297L3.15 6.14698C3.10358 6.19347 3.06677 6.24865 3.04167 6.30937C3.01657 6.37008 3.00368 6.43513 3.00372 6.50083C3.00377 6.56653 3.01675 6.63156 3.04194 6.69224C3.06712 6.75292 3.10401 6.80805 3.1505 6.85447C3.19699 6.90089 3.25217 6.93771 3.31288 6.96281C3.3736 6.98791 3.43866 7.00079 3.50436 7.00074C3.57005 7.00069 3.6351 6.98772 3.69578 6.96253C3.75646 6.93735 3.81158 6.90047 3.858 6.85398L5.004 5.70698V13.5C5.004 13.6326 5.05668 13.7598 5.15045 13.8535C5.24422 13.9473 5.37139 14 5.504 14H13.297L12.15 15.146C12.1035 15.1925 12.0666 15.2476 12.0415 15.3084C12.0163 15.3691 12.0034 15.4342 12.0034 15.5C12.0034 15.5657 12.0163 15.6308 12.0415 15.6916C12.0666 15.7523 12.1035 15.8075 12.15 15.854C12.1965 15.9005 12.2517 15.9373 12.3124 15.9625C12.3732 15.9877 12.4383 16.0006 12.504 16.0006C12.5697 16.0006 12.6348 15.9877 12.6956 15.9625C12.7563 15.9373 12.8115 15.9005 12.858 15.854L14.815 13.896C14.8757 13.8494 14.9249 13.7896 14.9589 13.721C14.9928 13.6524 15.0105 13.577 15.0107 13.5005C15.0109 13.424 14.9936 13.3484 14.96 13.2797C14.9264 13.211 14.8775 13.1508 14.817 13.104C14.815 13.1026 14.813 13.1013 14.811 13.1L12.858 11.146C12.7642 11.0521 12.637 10.9993 12.5044 10.9992C12.3717 10.9991 12.2444 11.0517 12.1505 11.1455C12.0566 11.2392 12.0038 11.3664 12.0037 11.4991C12.0036 11.6318 12.0562 11.7591 12.15 11.853L13.297 13H6.004V5.70698L7.15 6.85398C7.19649 6.90047 7.25168 6.93734 7.31242 6.9625C7.37316 6.98766 7.43826 7.00062 7.504 7.00062C7.56975 7.00062 7.63484 6.98766 7.69558 6.9625C7.75632 6.93734 7.81151 6.90047 7.858 6.85398C7.90449 6.80749 7.94137 6.75231 7.96653 6.69157C7.99168 6.63083 8.00463 6.56572 8.00463 6.49998C8.00463 6.43423 7.99168 6.36913 7.96653 6.30839C7.94137 6.24765 7.90449 6.19246 7.858 6.14597L5.9 4.18897C5.85271 4.12688 5.79154 4.07673 5.72139 4.04252C5.65123 4.00831 5.57405 3.99101 5.496 3.99198Z" fill="currentColor"/>
<path d="M17.004 8V6H16.004V8H17.004ZM17.004 5V3H16.004V5H17.004ZM17.004 17V15H16.004V17H17.004ZM17.004 14V12H16.004V14H17.004ZM17.004 11V9H16.004V11H17.004Z" fill="currentColor"/>
</svg>
