<svg width="20" height="20" viewBox="0 0 20 20" fill="none" xmlns="http://www.w3.org/2000/svg">
<path d="M4 12.5C3.86739 12.5 3.74022 12.5527 3.64645 12.6465C3.55269 12.7402 3.5 12.8674 3.5 13V16C3.5 16.1326 3.55269 16.2598 3.64645 16.3535C3.74022 16.4473 3.86739 16.5 4 16.5H7C7.13261 16.5 7.25978 16.4473 7.35355 16.3535C7.44731 16.2598 7.5 16.1326 7.5 16V13C7.5 12.8674 7.44731 12.7402 7.35355 12.6465C7.25978 12.5527 7.13261 12.5 7 12.5H4Z" fill="currentColor"/>
<path d="M4.021 7.5C3.88908 7.5 3.76251 7.55211 3.66885 7.64502C3.5752 7.73792 3.52205 7.86409 3.521 7.996L3.5 11.496L4.5 11.504L4.51801 8.5H11.5V15.5H8.5V16.5H12C12.1326 16.5 12.2598 16.4473 12.3535 16.3535C12.4473 16.2598 12.5 16.1326 12.5 16V8C12.5 7.86739 12.4473 7.74022 12.3535 7.64645C12.2598 7.55269 12.1326 7.5 12 7.5H4.021Z" fill="currentColor"/>
<path d="M8.021 3.5C7.88908 3.5 7.76251 3.55211 7.66885 3.64502C7.5752 3.73792 7.52205 3.86409 7.521 3.996L7.5 6.496L8.5 6.504L8.51801 4.5H15.5V11.5H13.5V12.5H16C16.1326 12.5 16.2598 12.4473 16.3535 12.3535C16.4473 12.2598 16.5 12.1326 16.5 12V4C16.5 3.86739 16.4473 3.74022 16.3535 3.64645C16.2598 3.55269 16.1326 3.5 16 3.5H8.021Z" fill="currentColor"/>
</svg>
