<svg width="20" height="20" viewBox="0 0 20 20" fill="none" xmlns="http://www.w3.org/2000/svg">
<path d="M12.492 2.49996C12.3621 2.50182 12.238 2.55418 12.146 2.64595L8.146 6.64595C8.09943 6.6924 8.0625 6.74759 8.03729 6.80834C8.01209 6.86908 7.99911 6.93419 7.99911 6.99996C7.99911 7.06572 8.01209 7.13083 8.03729 7.19158C8.0625 7.25232 8.09943 7.30751 8.146 7.35396L12.146 11.354C12.1935 11.4013 12.25 11.4386 12.3122 11.4637C12.3744 11.4888 12.4409 11.5011 12.508 11.5C12.6379 11.4981 12.762 11.4457 12.854 11.354L16.854 7.35396C16.9006 7.30751 16.9375 7.25232 16.9627 7.19158C16.9879 7.13083 17.0009 7.06572 17.0009 6.99996C17.0009 6.93419 16.9879 6.86908 16.9627 6.80834C16.9375 6.74759 16.9006 6.6924 16.854 6.64595L16.672 6.46495L12.854 2.64595C12.8065 2.59858 12.75 2.56126 12.6878 2.53618C12.6256 2.5111 12.5591 2.49877 12.492 2.49996ZM12.5 3.70696L15.793 6.99996L12.5 10.293L9.207 6.99996L12.5 3.70696ZM4 6.49996V7.49996H5V6.49996H4ZM6 6.49996V7.49996H7V6.49996H6ZM6.5 10.5C6.43429 10.4998 6.36919 10.5126 6.30844 10.5376C6.24769 10.5627 6.19248 10.5995 6.146 10.646L3.146 13.646C3.09943 13.6924 3.0625 13.7476 3.03729 13.8083C3.01209 13.8691 2.99911 13.9342 2.99911 14C2.99911 14.0657 3.01209 14.1308 3.03729 14.1916C3.0625 14.2523 3.09943 14.3075 3.146 14.354L6.146 17.354C6.19244 17.4005 6.24763 17.4375 6.30838 17.4627C6.36913 17.4879 6.43423 17.5008 6.5 17.5008C6.56577 17.5008 6.63087 17.4879 6.69162 17.4627C6.75237 17.4375 6.80756 17.4005 6.854 17.354L9.854 14.354C9.90057 14.3075 9.9375 14.2523 9.96271 14.1916C9.98791 14.1308 10.0009 14.0657 10.0009 14C10.0009 13.9342 9.98791 13.8691 9.96271 13.8083C9.9375 13.7476 9.90057 13.6924 9.854 13.646L6.854 10.646C6.80752 10.5995 6.75231 10.5627 6.69156 10.5376C6.63081 10.5126 6.56571 10.4998 6.5 10.5ZM11 13.5V14.5H12V13.5H11ZM13 13.5V14.5H14V13.5H13ZM15 13.5V14.5H16V13.5H15Z" fill="currentColor"/>
</svg>
