<svg width="20" height="20" viewBox="0 0 20 20" fill="none" xmlns="http://www.w3.org/2000/svg">
<path d="M9.5 10.5C9.5 11.3 8.8 12 8 12C7.2 12 6.5 11.3 6.5 10.5C6.5 9.7 7.2 9 8 9C8.8 9 9.5 9.7 9.5 10.5ZM14.5 13C13.4 13 12.5 13.9 12.5 15C12.5 16.1 13.4 17 14.5 17C15.6 17 16.5 16.1 16.5 15C16.5 13.9 15.6 13 14.5 13ZM14.5 14C15.1 14 15.5 14.4 15.5 15C15.5 15.6 15.1 16 14.5 16C13.9 16 13.5 15.6 13.5 15C13.5 14.4 13.9 14 14.5 14ZM4 3C3.7 3 3.5 3.2 3.5 3.5C3.5 3.8 3.7 4 4 4H16C16.3 4 16.5 3.8 16.5 3.5C16.5 3.2 16.3 3 16 3H4Z" fill="currentColor"/>
<path d="M10.3 3.09998C10 3.09998 9.8 3.29998 9.7 3.49998L7.4 9.79998C7.3 10.1 7.4 10.5 7.7 10.6C8 10.7 8.4 10.6 8.5 10.3L10.8 3.99998C10.9 3.69998 10.8 3.29998 10.4 3.19998L10.3 3.09998ZM9 10.9C8.7 10.9 8.4 11.2 8.4 11.5C8.4 11.7 8.5 11.9 8.7 12L12.7 14.7C13 14.9 13.3 14.8 13.5 14.6C13.7 14.3 13.6 14 13.4 13.8L9.4 11.1C9.2 10.9 9.1 10.9 9 10.9Z" fill="currentColor"/>
</svg>
