<svg width="20" height="20" viewBox="0 0 20 20" fill="none" xmlns="http://www.w3.org/2000/svg">
<path d="M11.504 2.996C11.3714 2.996 11.2442 3.04869 11.1504 3.14246C11.0567 3.23622 11.004 3.36339 11.004 3.496V3.996H9.50401C9.43701 3.99386 9.37027 4.00521 9.30775 4.02937C9.24523 4.05354 9.18819 4.09003 9.14005 4.13667C9.09192 4.18332 9.05366 4.23916 9.02753 4.30089C9.00141 4.36262 8.98796 4.42897 8.988 4.496V4.996H14.988V4.496C14.988 4.243 14.838 4.001 14.504 3.996H13.004V3.496C13.004 3.36339 12.9513 3.23622 12.8576 3.14246C12.7638 3.04869 12.6366 2.996 12.504 2.996H11.504ZM14.988 4.996L15.004 5.496V5.996H9.00401V5.496L8.988 4.996H7.50401C7.3714 4.996 7.24421 5.04869 7.15044 5.14246C7.05668 5.23622 7.00401 5.36339 7.00401 5.496V8.996H9.312C9.36571 8.98841 9.41978 8.98373 9.47399 8.98199C9.6913 8.97573 9.90739 9.01679 10.1073 9.10231C10.3071 9.18783 10.486 9.31577 10.6316 9.47728C10.7771 9.63879 10.8858 9.83 10.9501 10.0377C11.0144 10.2453 11.0328 10.4645 11.004 10.68V14.996H16.504C16.6366 14.996 16.7638 14.9433 16.8576 14.8495C16.9513 14.7558 17.004 14.6286 17.004 14.496V5.496C17.004 5.36339 16.9513 5.23622 16.8576 5.14246C16.7638 5.04869 16.6366 4.996 16.504 4.996H14.988Z" fill="currentColor"/>
<path d="M9.494 9.992C9.47728 9.9925 9.46059 9.99383 9.444 9.996H5.50401C5.3714 9.996 5.24422 10.0487 5.15045 10.1425C5.05668 10.2362 5.00401 10.3634 5.00401 10.496C5.00401 10.6286 5.05668 10.7558 5.15045 10.8495C5.24422 10.9433 5.3714 10.996 5.50401 10.996H8.29701L3.15001 16.143C3.10225 16.1891 3.06415 16.2443 3.03794 16.3053C3.01174 16.3663 2.99795 16.4319 2.99737 16.4983C2.99679 16.5647 3.00945 16.6305 3.03459 16.692C3.05973 16.7534 3.09686 16.8093 3.14381 16.8562C3.19076 16.9031 3.24658 16.9403 3.30803 16.9654C3.36947 16.9905 3.43532 17.0032 3.5017 17.0026C3.56809 17.002 3.6337 16.9883 3.6947 16.9621C3.7557 16.9358 3.81088 16.8978 3.85701 16.85L9.00401 11.703V14.496C9.00401 14.6286 9.05668 14.7558 9.15045 14.8495C9.24422 14.9433 9.3714 14.996 9.50401 14.996C9.63662 14.996 9.76379 14.9433 9.85756 14.8495C9.95132 14.7558 10.004 14.6286 10.004 14.496V10.553C10.0127 10.4816 10.0058 10.4092 9.98396 10.3408C9.9621 10.2723 9.92572 10.2093 9.87732 10.1562C9.82891 10.103 9.76961 10.0609 9.70346 10.0328C9.63731 10.0046 9.56586 9.99104 9.494 9.993V9.992Z" fill="currentColor"/>
</svg>
