<svg width="20" height="20" viewBox="0 0 20 20" fill="none" xmlns="http://www.w3.org/2000/svg">
<path d="M7.5 3C7.36739 3 7.24021 3.05268 7.14645 3.14645C7.05268 3.24021 7 3.36739 7 3.5V6.5C7 6.63261 7.05268 6.75979 7.14645 6.85355C7.24021 6.94732 7.36739 7 7.5 7H10.5C10.6326 7 10.7598 6.94732 10.8536 6.85355C10.9473 6.75979 11 6.63261 11 6.5V5H11.5C12.793 5 13.926 5.352 14.719 6.01C15.512 6.667 16 7.624 16 9C16 10.583 15.219 12.055 13.76 13.164C12.3 14.273 10.16 15 7.5 15H7V13.5C7 13.3674 6.94732 13.2402 6.85355 13.1464C6.75979 13.0527 6.63261 13 6.5 13H3.5C3.36739 13 3.24021 13.0527 3.14645 13.1464C3.05268 13.2402 3 13.3674 3 13.5V16.5C3 16.6326 3.05268 16.7598 3.14645 16.8536C3.24021 16.9473 3.36739 17 3.5 17H6.5C6.63261 17 6.75979 16.9473 6.85355 16.8536C6.94732 16.7598 7 16.6326 7 16.5V16H7.5C10.34 16 12.7 15.227 14.365 13.96C16.031 12.696 17 10.918 17 9C17 7.376 16.373 6.083 15.357 5.24C14.342 4.398 12.974 4 11.5 4H11V3.5C11 3.36739 10.9473 3.24021 10.8536 3.14645C10.7598 3.05268 10.6326 3 10.5 3H7.5ZM8 4H10V6H8V4ZM4 14H6V16H4V14Z" fill="currentColor"/>
</svg>
