<svg width="20" height="20" viewBox="0 0 20 20" fill="none" xmlns="http://www.w3.org/2000/svg">
<path d="M7.74801 4.073C8.54001 4.073 9.29701 4.46599 9.61101 5.18399C9.92501 5.90299 9.69 6.838 8.851 7.677L6.351 10.177C5.69 10.838 5.675 11.277 5.799 11.559C5.922 11.841 6.28901 12.073 6.74801 12.073L14.033 12.065L11.894 9.92599C11.8462 9.87987 11.8081 9.8247 11.7819 9.7637C11.7557 9.7027 11.742 9.6371 11.7414 9.57071C11.7408 9.50432 11.7534 9.43846 11.7786 9.37701C11.8037 9.31557 11.8409 9.25975 11.8878 9.2128C11.9348 9.16585 11.9906 9.12872 12.052 9.10358C12.1135 9.07844 12.1793 9.0658 12.2457 9.06638C12.3121 9.06695 12.3777 9.08073 12.4387 9.10693C12.4997 9.13314 12.5549 9.17124 12.601 9.21899L15.535 12.155L15.545 12.163C15.6106 12.2104 15.6637 12.273 15.6998 12.3455C15.7358 12.4179 15.7537 12.4981 15.752 12.579C15.752 12.5817 15.752 12.5843 15.752 12.587C15.7514 12.6027 15.7501 12.6184 15.748 12.634C15.7462 12.6505 15.7435 12.6668 15.74 12.683C15.7143 12.8026 15.6456 12.9086 15.547 12.981L12.601 15.927C12.5549 15.9748 12.4997 16.0129 12.4387 16.0391C12.3777 16.0653 12.3121 16.079 12.2457 16.0796C12.1793 16.0802 12.1135 16.0676 12.052 16.0424C11.9906 16.0173 11.9348 15.9801 11.8878 15.9332C11.8409 15.8863 11.8037 15.8304 11.7786 15.769C11.7534 15.7075 11.7408 15.6417 11.7414 15.5753C11.742 15.5089 11.7557 15.4433 11.7819 15.3823C11.8081 15.3213 11.8462 15.2661 11.894 15.22L14.049 13.065L6.74801 13.073C5.95601 13.073 5.19702 12.68 4.88302 11.962C4.56802 11.244 4.806 10.308 5.644 9.47L8.144 6.97C8.806 6.308 8.818 5.86901 8.695 5.58701C8.572 5.30501 8.20601 5.073 7.74801 5.073H4.24801C4.1154 5.073 3.98823 5.02031 3.89446 4.92654C3.80069 4.83278 3.74801 4.70561 3.74801 4.573C3.74801 4.44039 3.80069 4.31322 3.89446 4.21945C3.98823 4.12568 4.1154 4.073 4.24801 4.073H7.74801Z" fill="currentColor"/>
</svg>
