<svg width="20" height="20" viewBox="0 0 20 20" fill="none" xmlns="http://www.w3.org/2000/svg">
<path d="M12 8C12 8.13261 11.9473 8.25979 11.8535 8.35355C11.7598 8.44732 11.6326 8.5 11.5 8.5H9.5C9.36739 8.5 9.24022 8.44732 9.14645 8.35355C9.05269 8.25979 9 8.13261 9 8V6C9 5.86739 9.05269 5.74021 9.14645 5.64645C9.24022 5.55268 9.36739 5.5 9.5 5.5H11.5C11.6326 5.5 11.7598 5.55268 11.8535 5.64645C11.9473 5.74021 12 5.86739 12 6V8Z" fill="currentColor"/>
<path d="M3.5 15.5C3.42471 15.5013 3.35067 15.5195 3.28339 15.5533C3.21611 15.5871 3.15732 15.6357 3.11139 15.6953C3.06546 15.755 3.03357 15.8243 3.0181 15.898C3.00262 15.9717 3.00396 16.0479 3.022 16.121C3.026 16.137 3.03199 16.153 3.03699 16.168C3.04758 16.1993 3.06134 16.2295 3.078 16.258C3.12185 16.331 3.18364 16.3915 3.25751 16.4339C3.33137 16.4763 3.41486 16.499 3.5 16.5H16.5C16.5753 16.4987 16.6493 16.4805 16.7166 16.4467C16.7839 16.4129 16.8427 16.3643 16.8886 16.3047C16.9345 16.245 16.9664 16.1757 16.9819 16.102C16.9974 16.0283 16.996 15.9521 16.978 15.879C16.974 15.863 16.968 15.847 16.963 15.832C16.9321 15.7452 16.8778 15.6687 16.8062 15.6108C16.7345 15.5529 16.6483 15.516 16.557 15.504C16.5381 15.5016 16.5191 15.5002 16.5 15.5H3.5ZM3.5 3.5C3.36739 3.5 3.24022 3.55268 3.14645 3.64645C3.05269 3.74021 3 3.86739 3 4V14C3 14.1326 3.05269 14.2598 3.14645 14.3536C3.24022 14.4473 3.36739 14.5 3.5 14.5H16.5C16.6326 14.5 16.7598 14.4473 16.8535 14.3536C16.9473 14.2598 17 14.1326 17 14V4C17 3.86739 16.9473 3.74021 16.8535 3.64645C16.7598 3.55268 16.6326 3.5 16.5 3.5H3.5ZM4 4.5H16V13.5H4V4.5Z" fill="currentColor"/>
<path d="M8 12C8 12.1326 7.94731 12.2598 7.85355 12.3536C7.75978 12.4473 7.63261 12.5 7.5 12.5H5.5C5.36739 12.5 5.24022 12.4473 5.14645 12.3536C5.05269 12.2598 5 12.1326 5 12V10C5 9.86739 5.05269 9.74021 5.14645 9.64645C5.24022 9.55268 5.36739 9.5 5.5 9.5H7.5C7.63261 9.5 7.75978 9.55268 7.85355 9.64645C7.94731 9.74021 8 9.86739 8 10V12ZM7 11.5V10.5H6V11.5H7ZM8 8C8 8.13261 7.94731 8.25979 7.85355 8.35355C7.75978 8.44732 7.63261 8.5 7.5 8.5H5.5C5.36739 8.5 5.24022 8.44732 5.14645 8.35355C5.05269 8.25979 5 8.13261 5 8V6C5 5.86739 5.05269 5.74021 5.14645 5.64645C5.24022 5.55268 5.36739 5.5 5.5 5.5H7.5C7.63261 5.5 7.75978 5.55268 7.85355 5.64645C7.94731 5.74021 8 5.86739 8 6V8Z" fill="currentColor"/>
</svg>
