<svg width="20" height="20" viewBox="0 0 20 20" fill="none" xmlns="http://www.w3.org/2000/svg">
<path d="M7.596 7.37501C7.46866 7.38266 7.34906 7.4387 7.26169 7.53165C7.17431 7.6246 7.12577 7.74744 7.126 7.87501V12.125C7.12604 12.2074 7.14642 12.2884 7.18534 12.361C7.22425 12.4336 7.2805 12.4954 7.34907 12.5411C7.41764 12.5867 7.49641 12.6146 7.57839 12.6225C7.66038 12.6303 7.74303 12.6178 7.819 12.586L12.569 10.586C12.6578 10.5486 12.7339 10.4862 12.7881 10.4065C12.8424 10.3268 12.8724 10.2332 12.8746 10.1368C12.8768 10.0404 12.8511 9.94549 12.8006 9.86338C12.7501 9.78127 12.677 9.71551 12.59 9.67401L7.84 7.42401C7.7641 7.38737 7.68016 7.37052 7.596 7.37501Z" fill="currentColor"/>
</svg>
