<svg width="20" height="20" viewBox="0 0 20 20" fill="none" xmlns="http://www.w3.org/2000/svg">
<path d="M7.75 7.125C7.66562 7.12507 7.58263 7.14649 7.50876 7.18728C7.43488 7.22806 7.37254 7.28688 7.32752 7.35825C7.2825 7.42962 7.25628 7.51122 7.25129 7.59546C7.2463 7.67969 7.26272 7.76382 7.299 7.84L9.549 12.59C9.58972 12.6751 9.65368 12.7469 9.73348 12.7972C9.81328 12.8475 9.90568 12.8741 10 12.8741C10.0943 12.8741 10.1867 12.8475 10.2665 12.7972C10.3463 12.7469 10.4103 12.6751 10.451 12.59L12.701 7.84C12.7373 7.76382 12.7537 7.67969 12.7487 7.59546C12.7437 7.51122 12.7175 7.42962 12.6725 7.35825C12.6275 7.28688 12.5651 7.22806 12.4912 7.18728C12.4174 7.14649 12.3344 7.12507 12.25 7.125H7.75Z" fill="currentColor"/>
</svg>
