<svg width="20" height="20" viewBox="0 0 20 20" fill="none" xmlns="http://www.w3.org/2000/svg">
<path d="M3 8V12.5C3 12.6326 3.05269 12.7598 3.14645 12.8535C3.24022 12.9473 3.36739 13 3.5 13H12.5C12.6326 13 12.7598 12.9473 12.8535 12.8535C12.9473 12.7598 13 12.6326 13 12.5V3.5C13 3.36739 12.9473 3.24022 12.8535 3.14645C12.7598 3.05269 12.6326 3 12.5 3H8V8" fill="currentColor"/>
<path d="M3.5 6.5H6.5V3.5L3.5 6.5Z" fill="currentColor"/>
<path d="M16 7.5H16.5V16.5H7.5V16" fill="currentColor"/>
<path d="M14 5.5H14.5V14.5H5.5V14" fill="currentColor"/>
</svg>
