<svg width="20" height="20" viewBox="0 0 20 20" fill="none" xmlns="http://www.w3.org/2000/svg">
<path d="M5.52 2.99702C5.43857 2.99517 5.35793 3.01326 5.28508 3.04969C5.21223 3.08611 5.14938 3.13975 5.102 3.206C2.289 7 2.289 12.994 5.102 16.788C5.13999 16.8436 5.18883 16.891 5.24556 16.9273C5.30229 16.9635 5.36574 16.988 5.43214 16.9991C5.49855 17.0102 5.56654 17.0078 5.632 16.9921C5.69746 16.9763 5.75905 16.9475 5.81309 16.9073C5.86714 16.8671 5.91253 16.8164 5.94652 16.7583C5.9805 16.7002 6.00239 16.6358 6.01088 16.569C6.01937 16.5022 6.01429 16.4344 5.99592 16.3696C5.97756 16.3049 5.94628 16.2444 5.904 16.192C3.4 12.814 3.4 7.18001 5.904 3.80201C5.96038 3.72883 5.9954 3.64149 6.00514 3.54963C6.01488 3.45776 5.99898 3.365 5.95921 3.28162C5.91944 3.19824 5.85732 3.12751 5.7798 3.07728C5.70227 3.02704 5.61235 2.99925 5.52 2.99702ZM14.479 2.99702C14.3866 2.99907 14.2965 3.02669 14.2189 3.07685C14.1412 3.12701 14.0789 3.19772 14.039 3.28113C13.9992 3.36454 13.9832 3.45743 13.9929 3.54938C14.0026 3.64133 14.0376 3.72876 14.094 3.80201C16.599 7.18001 16.599 12.814 14.094 16.192C14.0549 16.2449 14.0265 16.3049 14.0106 16.3687C13.9947 16.4325 13.9915 16.4989 14.0012 16.5639C14.0109 16.629 14.0333 16.6914 14.0672 16.7478C14.101 16.8042 14.1456 16.8534 14.1985 16.8925C14.2514 16.9317 14.3114 16.96 14.3752 16.9759C14.439 16.9918 14.5053 16.9951 14.5704 16.9854C14.6354 16.9757 14.6979 16.9532 14.7543 16.9194C14.8107 16.8855 14.8599 16.8409 14.899 16.788C17.711 12.994 17.711 7 14.899 3.206C14.8516 3.13975 14.7888 3.08611 14.7159 3.04969C14.6431 3.01326 14.5624 2.99517 14.481 2.99702C14.4803 2.99702 14.4797 2.99702 14.479 2.99702ZM7.49901 5.98902C7.40657 5.98971 7.31616 6.01602 7.23777 6.06501C7.15939 6.114 7.09611 6.18377 7.05497 6.26655C7.01384 6.34933 6.99647 6.44188 7.00477 6.53394C7.01308 6.626 7.04672 6.71395 7.102 6.78803L9.39201 9.99701L7.10002 13.206C7.0618 13.2596 7.0345 13.3202 7.0197 13.3843C7.00489 13.4484 7.00288 13.5148 7.01375 13.5797C7.02461 13.6446 7.04814 13.7068 7.08302 13.7626C7.1179 13.8184 7.16344 13.8668 7.21702 13.905C7.2706 13.9432 7.33118 13.9705 7.39531 13.9853C7.45943 14.0001 7.52583 14.0021 7.59074 13.9913C7.65565 13.9804 7.71779 13.9569 7.7736 13.922C7.82941 13.8871 7.87778 13.8416 7.916 13.788L10.008 10.858L12.1 13.788C12.1382 13.8416 12.1866 13.8871 12.2424 13.922C12.2982 13.9569 12.3604 13.9804 12.4253 13.9913C12.4902 14.0021 12.5566 14.0001 12.6207 13.9853C12.6848 13.9705 12.7454 13.9432 12.799 13.905C12.8526 13.8668 12.8981 13.8184 12.933 13.7626C12.9679 13.7068 12.9914 13.6446 13.0023 13.5797C13.0131 13.5148 13.0111 13.4484 12.9963 13.3843C12.9815 13.3202 12.9542 13.2596 12.916 13.206L10.623 9.99701L12.914 6.78803C12.9828 6.69518 13.0173 6.58135 13.0116 6.46595C13.006 6.35055 12.9605 6.24072 12.883 6.15504C12.8324 6.09933 12.77 6.05573 12.7002 6.02753C12.6305 5.99933 12.5553 5.98723 12.4802 5.99213C12.4051 5.99703 12.3322 6.01882 12.2667 6.05585C12.2012 6.09288 12.1449 6.1442 12.102 6.206L10.008 9.13599L7.91401 6.206C7.89856 6.18258 7.88117 6.16052 7.86201 6.14002C7.81465 6.09169 7.75795 6.05344 7.69539 6.02765C7.63282 6.00187 7.56566 5.98906 7.498 5.99L7.49901 5.98902Z" fill="currentColor"/>
</svg>
