<svg width="20" height="20" viewBox="0 0 20 20" fill="none" xmlns="http://www.w3.org/2000/svg">
<path d="M9.992 2.99999C9.86192 3.0011 9.73755 3.05358 9.646 3.14599C8.245 4.54799 6.69 4.99999 4 4.99999C3.86739 4.99999 3.74021 5.05266 3.64645 5.14643C3.55268 5.2402 3.5 5.36738 3.5 5.49999V8.49999C3.5 10.963 4.18 12.568 5.287 13.775C6.394 14.983 7.861 15.8 9.465 16.91C9.549 16.968 9.648 17 9.75 17H10.25C10.3519 16.9996 10.4513 16.9682 10.535 16.91C12.139 15.8 13.606 14.983 14.713 13.775C15.82 12.568 16.5 10.963 16.5 8.49999V5.49999C16.5 5.36738 16.4473 5.2402 16.3536 5.14643C16.2598 5.05266 16.1326 4.99999 16 4.99999C13.31 4.99999 11.755 4.54799 10.354 3.14599C10.3065 3.09862 10.25 3.06128 10.1878 3.0362C10.1256 3.01112 10.059 2.9988 9.992 2.99999ZM13.469 6.98999C13.6618 6.98224 13.8528 7.03046 14.0189 7.12883C14.1849 7.2272 14.3189 7.37152 14.4048 7.54438C14.4906 7.71723 14.5246 7.91124 14.5027 8.10298C14.4807 8.29473 14.4037 8.47602 14.281 8.62499L10.281 13.625C10.1931 13.7348 10.0831 13.8248 9.95801 13.8892C9.83297 13.9536 9.69575 13.9908 9.55533 13.9986C9.4149 14.0063 9.27442 13.9843 9.14306 13.9341C9.0117 13.8838 8.89242 13.8065 8.793 13.707L6.793 11.707C6.69749 11.6147 6.62131 11.5044 6.5689 11.3824C6.51649 11.2604 6.4889 11.1292 6.48775 10.9964C6.4866 10.8636 6.5119 10.7319 6.56218 10.609C6.61246 10.4861 6.68671 10.3745 6.7806 10.2806C6.8745 10.1867 6.98615 10.1124 7.10905 10.0622C7.23194 10.0119 7.36362 9.98658 7.4964 9.98774C7.62918 9.98889 7.7604 10.0165 7.8824 10.0689C8.00441 10.1213 8.11475 10.1975 8.207 10.293L9.416 11.502L12.719 7.37499C12.8084 7.26008 12.9219 7.16609 13.0514 7.09959C13.181 7.03309 13.3235 6.99568 13.469 6.98999Z" fill="currentColor"/>
</svg>
