<svg width="20" height="20" viewBox="0 0 20 20" fill="none" xmlns="http://www.w3.org/2000/svg">
<path d="M10 2.99799H11V5.99799H10V2.99799ZM9 5.99799H10V8.99799H9V5.99799Z" fill="currentColor"/>
<path d="M7.5 14.552C7.5 15.632 6.608 16.502 5.5 16.502C4.392 16.502 3.5 15.632 3.5 14.552V12.502H7.5V14.552Z" fill="currentColor"/>
<path d="M3.5 9.50198H7.5V12.502H3.5V9.50198ZM7.5 4.50198H3.5V7.50198H7.5V4.50198Z" fill="currentColor"/>
<path d="M13 2.99799H14V5.99799H13V2.99799ZM12 5.99799H13V8.99799H12V5.99799ZM16 2.99799H17V5.99799H16V2.99799ZM15 5.99799H16V8.99799H15V5.99799Z" fill="currentColor"/>
</svg>
