<svg width="20" height="20" viewBox="0 0 20 20" fill="none" xmlns="http://www.w3.org/2000/svg">
<path d="M6.508 10.018C6.05065 10.0179 5.59776 10.1078 5.17519 10.2828C4.75262 10.4577 4.36865 10.7142 4.04521 11.0375C3.72177 11.3609 3.4652 11.7448 3.29015 12.1673C3.1151 12.5898 3.025 13.0427 3.025 13.5C3.025 13.9574 3.1151 14.4102 3.29015 14.8327C3.4652 15.2553 3.72177 15.6392 4.04521 15.9625C4.36865 16.2859 4.75262 16.5423 5.17519 16.7172C5.59776 16.8922 6.05065 16.9821 6.508 16.982C7.43149 16.982 8.31715 16.6152 8.97015 15.9622C9.62315 15.3091 9.99 14.4235 9.99 13.5C9.99 12.5765 9.62315 11.6909 8.97015 11.0379C8.31715 10.3849 7.43149 10.018 6.508 10.018ZM6.002 11.004H7.016V12.99H9.012V14.004H7.016V15.99H6.002V14.004H4.006V12.99H6.002V11.004Z" fill="currentColor"/>
<path d="M13.486 3.01801C12.5609 3.01801 11.6737 3.38549 11.0196 4.03962C10.3655 4.69374 9.998 5.58093 9.998 6.50601C9.998 7.43108 10.3655 8.31827 11.0196 8.97239C11.6737 9.62652 12.5609 9.99401 13.486 9.99401C13.9441 9.99414 14.3978 9.90401 14.8211 9.72878C15.2444 9.55356 15.629 9.29665 15.953 8.97275C16.277 8.64884 16.534 8.26429 16.7094 7.84104C16.8847 7.41779 16.975 6.96414 16.975 6.50601C16.975 6.04787 16.8847 5.59422 16.7094 5.17097C16.534 4.74773 16.277 4.36317 15.953 4.03926C15.629 3.71536 15.2444 3.45846 14.8211 3.28323C14.3978 3.108 13.9441 3.01787 13.486 3.01801ZM11.006 6.01801H16.012V7.03001H11.006V6.01801Z" fill="currentColor"/>
</svg>
