<svg width="20" height="20" viewBox="0 0 20 20" fill="none" xmlns="http://www.w3.org/2000/svg">
<path d="M11.998 5.49301C11.8982 5.49281 11.8007 5.52246 11.7179 5.57813C11.6351 5.63381 11.5709 5.71298 11.5335 5.80546C11.4961 5.89794 11.4872 5.99949 11.5079 6.09707C11.5287 6.19465 11.5782 6.28378 11.65 6.35301L14.797 9.49901H4.004C3.87139 9.49901 3.74421 9.55169 3.65045 9.64546C3.55668 9.73923 3.504 9.8664 3.504 9.99901C3.504 10.1316 3.55668 10.2588 3.65045 10.3526C3.74421 10.4463 3.87139 10.499 4.004 10.499H14.797L11.65 13.646C11.6022 13.6921 11.5642 13.7473 11.5379 13.8083C11.5117 13.8693 11.498 13.9349 11.4974 14.0013C11.4968 14.0677 11.5094 14.1335 11.5346 14.195C11.5597 14.2564 11.5969 14.3123 11.6438 14.3592C11.6907 14.4062 11.7466 14.4433 11.808 14.4684C11.8695 14.4936 11.9353 14.5062 12.0017 14.5056C12.0681 14.5051 12.1337 14.4913 12.1947 14.4651C12.2557 14.4389 12.3109 14.4008 12.357 14.353L16.357 10.353C16.4507 10.2592 16.5034 10.1321 16.5034 9.99951C16.5034 9.86693 16.4507 9.73978 16.357 9.64601L12.357 5.64601C12.3104 5.59762 12.2544 5.55914 12.1926 5.53285C12.1307 5.50656 12.0642 5.49301 11.997 5.49301H11.998Z" fill="currentColor"/>
</svg>
