<svg width="20" height="20" viewBox="0 0 20 20" fill="none" xmlns="http://www.w3.org/2000/svg">
<path d="M9.492 2.99298C9.35956 2.99509 9.23337 3.04966 9.14113 3.14472C9.04889 3.23977 8.99813 3.36754 9 3.49998V6.29298L6.854 4.14698C6.76025 4.0531 6.63304 4.0003 6.50035 4.00021C6.36767 4.00011 6.24039 4.05273 6.1465 4.14648C6.05261 4.24024 5.99982 4.36745 5.99972 4.50013C5.99963 4.63281 6.05225 4.7601 6.146 4.85398L9 7.70698V8.28898C8.69985 8.46297 8.4504 8.71239 8.27639 9.01252C8.10238 9.31265 8.00986 9.65306 8.008 9.99998H7.707L4.854 7.14698C4.80727 7.09878 4.75131 7.06047 4.68946 7.03436C4.62761 7.00824 4.56114 6.99485 4.494 6.99498C4.39445 6.99499 4.29717 7.02471 4.21461 7.08034C4.13206 7.13597 4.06799 7.21498 4.03061 7.30724C3.99323 7.39951 3.98424 7.50083 4.0048 7.59824C4.02536 7.69564 4.07452 7.78469 4.146 7.85398L6.293 9.99998H3.5C3.36739 9.99998 3.24021 10.0527 3.14645 10.1464C3.05268 10.2402 3 10.3674 3 10.5C3 10.6326 3.05268 10.7598 3.14645 10.8535C3.24021 10.9473 3.36739 11 3.5 11H6.293L4.146 13.147C4.09958 13.1935 4.06277 13.2486 4.03767 13.3094C4.01257 13.3701 3.99968 13.4351 3.99972 13.5008C3.99982 13.6335 4.05261 13.7607 4.1465 13.8545C4.24039 13.9482 4.36767 14.0009 4.50035 14.0008C4.63304 14.0007 4.76025 13.9479 4.854 13.854L7.707 11H8.289C8.636 11.59 9.271 11.993 10 11.993V12.293L7.146 15.147C7.09958 15.1935 7.06277 15.2486 7.03767 15.3094C7.01257 15.3701 6.99968 15.4351 6.99972 15.5008C6.99977 15.5665 7.01275 15.6316 7.03794 15.6923C7.06312 15.7529 7.10001 15.8081 7.1465 15.8545C7.19299 15.9009 7.24816 15.9377 7.30888 15.9628C7.36959 15.9879 7.43466 16.0008 7.50035 16.0008C7.56605 16.0007 7.6311 15.9877 7.69177 15.9625C7.75245 15.9374 7.80758 15.9005 7.854 15.854L10 13.707V16.5C10 16.6326 10.0527 16.7598 10.1464 16.8535C10.2402 16.9473 10.3674 17 10.5 17C10.6326 17 10.7598 16.9473 10.8536 16.8535C10.9473 16.7598 11 16.6326 11 16.5V13.707L13.146 15.854C13.2398 15.9479 13.367 16.0007 13.4996 16.0008C13.5653 16.0008 13.6304 15.9879 13.6911 15.9628C13.7518 15.9377 13.807 15.9009 13.8535 15.8545C13.9 15.8081 13.9369 15.7529 13.9621 15.6923C13.9872 15.6316 14.0002 15.5665 14.0003 15.5008C14.0003 15.4351 13.9874 15.3701 13.9623 15.3094C13.9372 15.2486 13.9004 15.1935 13.854 15.147L11 12.293V11.711C11.3 11.5371 11.5494 11.2878 11.7234 10.9879C11.8974 10.6879 11.99 10.3477 11.992 10.001H12.293L15.146 12.854C15.1924 12.9005 15.2475 12.9374 15.3082 12.9625C15.3689 12.9877 15.4339 13.0007 15.4996 13.0008C15.5653 13.0008 15.6304 12.9879 15.6911 12.9628C15.7518 12.9377 15.807 12.9009 15.8535 12.8545C15.9 12.8081 15.9369 12.7529 15.9621 12.6923C15.9872 12.6316 16.0002 12.5665 16.0003 12.5008C16.0003 12.4351 15.9874 12.3701 15.9623 12.3094C15.9372 12.2486 15.9004 12.1935 15.854 12.147L13.707 9.99998H16.5C16.6326 9.99998 16.7598 9.94731 16.8536 9.85354C16.9473 9.75977 17 9.63259 17 9.49998C17 9.36738 16.9473 9.2402 16.8536 9.14643C16.7598 9.05266 16.6326 8.99998 16.5 8.99998H13.707L15.854 6.85398C15.9262 6.7837 15.9755 6.69324 15.9953 6.59447C16.0152 6.4957 16.0048 6.39323 15.9655 6.30048C15.9261 6.20773 15.8597 6.12903 15.7748 6.07469C15.69 6.02036 15.5907 5.99292 15.49 5.99598C15.3602 5.99942 15.2368 6.05322 15.146 6.14598L12.293 8.99998H11.711C11.537 8.69984 11.2876 8.45039 10.9875 8.27638C10.6873 8.10237 10.3469 8.00985 10 8.00799V7.70798L12.854 4.85398C12.9004 4.8075 12.9372 4.75232 12.9623 4.69161C12.9874 4.63089 13.0003 4.56583 13.0003 4.50013C13.0002 4.43443 12.9872 4.36939 12.9621 4.30871C12.9369 4.24803 12.9 4.19291 12.8535 4.14648C12.807 4.10006 12.7518 4.06325 12.6911 4.03815C12.6304 4.01305 12.5653 4.00016 12.4996 4.00021C12.4339 4.00025 12.3689 4.01324 12.3082 4.03842C12.2475 4.06361 12.1924 4.1005 12.146 4.14698L10 6.29298V3.49998C10.0009 3.43306 9.98844 3.36662 9.96324 3.30462C9.93803 3.24261 9.90063 3.1863 9.85326 3.13902C9.80588 3.09174 9.74949 3.05445 9.68744 3.02936C9.62538 3.00428 9.55892 2.99191 9.492 2.99298ZM10 9.00799C10.554 9.00799 10.992 9.44598 10.992 9.99998C10.9932 10.1306 10.9684 10.2602 10.919 10.3812C10.8695 10.5021 10.7965 10.612 10.7042 10.7045C10.6118 10.7969 10.502 10.87 10.3811 10.9196C10.2602 10.9691 10.1307 10.9941 10 10.993C9.86935 10.9941 9.73979 10.9691 9.61889 10.9196C9.49798 10.87 9.38816 10.7969 9.29582 10.7045C9.20347 10.612 9.13046 10.5021 9.08105 10.3812C9.03163 10.2602 9.0068 10.1306 9.008 9.99998C9.008 9.44598 9.446 9.00799 10 9.00799Z" fill="currentColor"/>
</svg>
