<svg width="20" height="20" viewBox="0 0 20 20" fill="none" xmlns="http://www.w3.org/2000/svg">
<path d="M10.5 3C9.015 3 7.64701 3.467 6.63901 4.336C5.63101 5.205 5 6.485 5 8V11C5 11.833 4.99301 12.36 4.88901 12.787C4.78401 13.215 4.58601 13.592 4.10901 14.187C4.03815 14.2759 3.99969 14.3863 4 14.5V16.5C4 16.6326 4.05269 16.7598 4.14646 16.8536C4.24022 16.9473 4.36739 17 4.5 17H6.5C6.62128 17.0004 6.73855 16.9567 6.82999 16.877L8.47699 15.434L9.89701 16.854C9.99071 16.9475 10.1176 17 10.25 17H10.75C10.8157 17.0001 10.8808 16.9873 10.9415 16.9622C11.0023 16.9372 11.0575 16.9004 11.104 16.854L12.5 15.457L13.896 16.854C13.9425 16.9004 13.9977 16.9372 14.0585 16.9622C14.1192 16.9873 14.1843 17.0001 14.25 17H15.5C15.6326 17 15.7598 16.9473 15.8535 16.8536C15.9473 16.7598 16 16.6326 16 16.5V8C16 6.485 15.37 5.205 14.361 4.336C13.354 3.467 11.985 3 10.5 3ZM10.5 4C11.775 4 12.907 4.40199 13.709 5.09399C14.511 5.78499 15 6.755 15 8V16H14.457L12.854 14.396C12.8076 14.3494 12.7524 14.3125 12.6916 14.2873C12.6309 14.2621 12.5658 14.2491 12.5 14.2491C12.4342 14.2491 12.3691 14.2621 12.3084 14.2873C12.2476 14.3125 12.1924 14.3494 12.146 14.396L10.543 16H10.457L8.85401 14.396C8.76429 14.3059 8.64361 14.2534 8.51654 14.2491C8.38948 14.2449 8.26558 14.2891 8.17002 14.373L6.31201 16H5V14.611C5.421 14.051 5.73199 13.551 5.86099 13.025C6.00699 12.433 6 11.833 6 11V8C6 6.755 6.48899 5.78499 7.29099 5.09399C8.09299 4.40199 9.225 4 10.5 4ZM9.49399 6.992C9.36223 6.99546 9.23716 7.0508 9.146 7.146L8.5 7.79303L7.85401 7.146C7.80728 7.09779 7.75131 7.0595 7.68946 7.03339C7.6276 7.00727 7.56113 6.99389 7.49399 6.99402C7.39423 6.99382 7.29671 7.02342 7.21393 7.0791C7.13115 7.13478 7.0669 7.21398 7.02948 7.30646C6.99206 7.39893 6.98318 7.50051 7.00394 7.59808C7.0247 7.69566 7.07417 7.78477 7.146 7.854L7.793 8.5L7.146 9.146C7.09951 9.19248 7.06264 9.24767 7.03748 9.30841C7.01232 9.36915 6.99936 9.43426 6.99936 9.5C6.99936 9.56574 7.01232 9.63085 7.03748 9.69159C7.06264 9.75233 7.09951 9.80752 7.146 9.854C7.19249 9.90049 7.24767 9.93737 7.30841 9.96252C7.36915 9.98768 7.43426 10.0006 7.5 10.0006C7.56575 10.0006 7.63085 9.98768 7.69159 9.96252C7.75233 9.93737 7.80752 9.90049 7.85401 9.854L8.5 9.20697L9.146 9.854C9.19249 9.90049 9.24767 9.93737 9.30841 9.96252C9.36915 9.98768 9.43426 10.0006 9.5 10.0006C9.56575 10.0006 9.63085 9.98768 9.69159 9.96252C9.75233 9.93737 9.80752 9.90049 9.85401 9.854C9.90049 9.80752 9.93737 9.75233 9.96253 9.69159C9.98769 9.63085 10.0006 9.56574 10.0006 9.5C10.0006 9.43426 9.98769 9.36915 9.96253 9.30841C9.93737 9.24767 9.90049 9.19248 9.85401 9.146L9.207 8.5L9.85401 7.854C9.92736 7.78421 9.97779 7.69376 9.99863 7.59467C10.0195 7.49558 10.0098 7.39251 9.97074 7.29907C9.93171 7.20564 9.86525 7.12624 9.78012 7.07141C9.695 7.01658 9.5952 6.9889 9.49399 6.992ZM13.494 6.992C13.3622 6.99546 13.2372 7.0508 13.146 7.146L12.5 7.79303L11.854 7.146C11.8073 7.09779 11.7513 7.0595 11.6895 7.03339C11.6276 7.00727 11.5611 6.99389 11.494 6.99402C11.3942 6.99382 11.2967 7.02342 11.2139 7.0791C11.1312 7.13478 11.0669 7.21398 11.0295 7.30646C10.9921 7.39893 10.9832 7.50051 11.0039 7.59808C11.0247 7.69566 11.0742 7.78477 11.146 7.854L11.793 8.5L11.146 9.146C11.0995 9.19248 11.0626 9.24767 11.0375 9.30841C11.0123 9.36915 10.9994 9.43426 10.9994 9.5C10.9994 9.56574 11.0123 9.63085 11.0375 9.69159C11.0626 9.75233 11.0995 9.80752 11.146 9.854C11.1925 9.90049 11.2477 9.93737 11.3084 9.96252C11.3692 9.98768 11.4343 10.0006 11.5 10.0006C11.5657 10.0006 11.6309 9.98768 11.6916 9.96252C11.7523 9.93737 11.8075 9.90049 11.854 9.854L12.5 9.20697L13.146 9.854C13.1925 9.90049 13.2477 9.93737 13.3084 9.96252C13.3692 9.98768 13.4343 10.0006 13.5 10.0006C13.5657 10.0006 13.6309 9.98768 13.6916 9.96252C13.7523 9.93737 13.8075 9.90049 13.854 9.854C13.9005 9.80752 13.9374 9.75233 13.9625 9.69159C13.9877 9.63085 14.0006 9.56574 14.0006 9.5C14.0006 9.43426 13.9877 9.36915 13.9625 9.30841C13.9374 9.24767 13.9005 9.19248 13.854 9.146L13.207 8.5L13.854 7.854C13.9274 7.78421 13.9778 7.69376 13.9986 7.59467C14.0195 7.49558 14.0098 7.39251 13.9707 7.29907C13.9317 7.20564 13.8652 7.12624 13.7801 7.07141C13.695 7.01658 13.5952 6.9889 13.494 6.992Z" fill="currentColor"/>
</svg>
