<svg width="20" height="20" viewBox="0 0 20 20" fill="none" xmlns="http://www.w3.org/2000/svg">
<path d="M6.48799 17C6.6206 17 6.7478 16.9473 6.84156 16.8535C6.93533 16.7598 6.98799 16.6326 6.98799 16.5V13.5C6.98799 13.3674 6.93533 13.2402 6.84156 13.1465C6.7478 13.0527 6.6206 13 6.48799 13H3.48799C3.35538 13 3.22821 13.0527 3.13444 13.1465C3.04067 13.2402 2.98799 13.3674 2.98799 13.5V16.5C2.98799 16.6326 3.04067 16.7598 3.13444 16.8535C3.22821 16.9473 3.35538 17 3.48799 17H6.48799Z" fill="currentColor"/>
<path d="M14.043 14.055C14.8199 13.9949 15.5493 13.6573 16.098 13.104C17.267 11.934 17.259 10.193 16.387 8.797C15.514 7.401 13.813 6.27 11.553 6.004C8.04599 5.591 4.994 7.918 4.994 11V11.5C4.994 11.6326 5.04668 11.7598 5.14045 11.8535C5.23422 11.9473 5.36139 12 5.494 12C5.62661 12 5.75377 11.9473 5.84754 11.8535C5.94131 11.7598 5.994 11.6326 5.994 11.5V11C5.994 8.582 8.42101 6.64101 11.435 6.99601C13.425 7.23001 14.849 8.22401 15.539 9.32801C16.229 10.432 16.221 11.566 15.39 12.396C14.553 13.234 13.402 13.29 12.307 12.66C11.211 12.03 10.224 10.68 9.99 8.69101C9.98504 8.62365 9.96647 8.55798 9.93543 8.49799C9.90439 8.43799 9.86152 8.38489 9.8094 8.34192C9.75728 8.29895 9.697 8.26701 9.63218 8.24799C9.56737 8.22896 9.49937 8.22326 9.43229 8.23124C9.36521 8.23921 9.30043 8.26071 9.24189 8.29441C9.18335 8.32811 9.13224 8.37331 9.09165 8.42731C9.05107 8.48131 9.02185 8.54295 9.00575 8.60855C8.98965 8.67416 8.98701 8.74234 8.99799 8.80899C9.26399 11.069 10.402 12.719 11.806 13.527C12.509 13.931 13.291 14.117 14.043 14.055ZM10.502 5.00501C10.5746 5.00311 10.646 4.98539 10.7111 4.9531C10.7762 4.9208 10.8335 4.87469 10.879 4.818C11.254 4.365 12.067 4 12.994 4H14.494C14.6266 4 14.7538 3.94732 14.8475 3.85355C14.9413 3.75978 14.994 3.63261 14.994 3.5C14.994 3.36739 14.9413 3.24022 14.8475 3.14646C14.7538 3.05269 14.6266 3 14.494 3H12.994C11.819 3 10.742 3.41801 10.109 4.18201C10.0464 4.25551 10.0064 4.34554 9.99391 4.44126C9.98138 4.53697 9.99684 4.63428 10.0384 4.72141C10.08 4.80854 10.1458 4.88175 10.2281 4.93225C10.3104 4.98276 10.4055 5.00839 10.502 5.00601V5.00501Z" fill="currentColor"/>
</svg>
