<svg width="20" height="20" viewBox="0 0 20 20" fill="none" xmlns="http://www.w3.org/2000/svg">
<path d="M12.557 4.96299C12.483 4.96484 12.4103 4.98311 12.3442 5.01648C12.2781 5.04985 12.2202 5.09749 12.1747 5.15595C12.1293 5.21442 12.0974 5.28225 12.0814 5.35454C12.0653 5.42684 12.0655 5.50179 12.082 5.57399L12.389 7.00799H7.679L7.989 5.61799C8.01817 5.48843 7.99469 5.35259 7.9237 5.24035C7.85272 5.12811 7.74006 5.04866 7.6105 5.01949C7.48094 4.99032 7.3451 5.0138 7.23286 5.08479C7.12062 5.15577 7.04117 5.26843 7.012 5.39799L6.654 7.00799H4.5C4.36739 7.00799 4.24021 7.06067 4.14645 7.15444C4.05268 7.2482 4 7.37538 4 7.50799C4 7.6406 4.05268 7.76778 4.14645 7.86154C4.24021 7.95531 4.36739 8.00799 4.5 8.00799H6.432L5.766 11.008H3.5C3.36739 11.008 3.24021 11.0607 3.14645 11.1544C3.05268 11.2482 3 11.3754 3 11.508C3 11.6406 3.05268 11.7678 3.14645 11.8615C3.24021 11.9553 3.36739 12.008 3.5 12.008H5.543L5.012 14.398C4.99755 14.4621 4.99587 14.5284 5.00705 14.5931C5.01823 14.6578 5.04205 14.7197 5.07715 14.7753C5.11225 14.8308 5.15794 14.8789 5.21162 14.9167C5.2653 14.9546 5.32591 14.9815 5.39 14.996C5.45408 15.0104 5.52039 15.0121 5.58512 15.0009C5.64986 14.9898 5.71176 14.9659 5.76729 14.9308C5.82282 14.8957 5.87089 14.85 5.90876 14.7964C5.94663 14.7427 5.97355 14.6821 5.988 14.618L6.568 12.008H13.455L14.012 14.611C14.0216 14.6788 14.0451 14.7439 14.081 14.8023C14.1169 14.8607 14.1643 14.9111 14.2205 14.9503C14.2766 14.9896 14.3402 15.0169 14.4074 15.0305C14.4745 15.0442 14.5437 15.0439 14.6108 15.0297C14.6778 15.0155 14.7412 14.9876 14.797 14.9479C14.8528 14.9082 14.8998 14.8574 14.9352 14.7987C14.9706 14.7401 14.9935 14.6748 15.0026 14.6068C15.0117 14.5389 15.0067 14.4699 14.988 14.404L14.477 12.008H16.5C16.6326 12.008 16.7598 11.9553 16.8536 11.8615C16.9473 11.7678 17 11.6406 17 11.508C17 11.3754 16.9473 11.2482 16.8536 11.1544C16.7598 11.0607 16.6326 11.008 16.5 11.008H14.264L13.625 8.00799H15.5C15.6326 8.00799 15.7598 7.95531 15.8536 7.86154C15.9473 7.76778 16 7.6406 16 7.50799C16 7.37538 15.9473 7.2482 15.8536 7.15444C15.7598 7.06067 15.6326 7.00799 15.5 7.00799H13.41L13.06 5.36499C13.0369 5.24947 12.9738 5.14579 12.8818 5.07224C12.7898 4.9987 12.6748 4.96001 12.557 4.96299ZM7.457 8.00799H12.602L13.242 11.008H6.791L7.457 8.00799Z" fill="currentColor"/>
</svg>
