<svg width="20" height="20" viewBox="0 0 20 20" fill="none" xmlns="http://www.w3.org/2000/svg">
<path d="M8.5 8C8.7 8 8.9 8.1 9 8.3L12 14.3C12.1 14.5 12 14.8 11.8 15C11.7 15 11.7 15.1 11.6 15.1H5.6C5.2 15 5 14.8 5 14.5C5 14.4 5 14.3 5.1 14.3L8.1 8.3C8.1 8.1 8.3 8 8.5 8Z" fill="currentColor"/>
<path d="M13.5 6C14.3 6 15 6.7 15 7.5C15 8.3 14.3 9 13.5 9C12.7 9 12 8.3 12 7.5C12 6.7 12.7 6 13.5 6Z" fill="currentColor"/>
<path d="M16 4V16H4V4H16ZM16.5 3H3.5C3.2 3 3 3.2 3 3.5V16.5C3 16.8 3.2 17 3.5 17H16.5C16.8 17 17 16.8 17 16.5V3.5C17 3.2 16.8 3 16.5 3Z" fill="currentColor"/>
</svg>
