<svg width="20" height="20" viewBox="0 0 20 20" fill="none" xmlns="http://www.w3.org/2000/svg">
<path d="M3.5 3C3.36739 3 3.24022 3.05268 3.14645 3.14645C3.05269 3.24021 3 3.36739 3 3.5V16.5C3 16.6326 3.05269 16.7598 3.14645 16.8536C3.24022 16.9473 3.36739 17 3.5 17H16.5C16.6326 17 16.7598 16.9473 16.8535 16.8536C16.9473 16.7598 17 16.6326 17 16.5V3.5C17 3.36739 16.9473 3.24021 16.8535 3.14645C16.7598 3.05268 16.6326 3 16.5 3H3.5ZM4 4H16V16H4V4Z" fill="currentColor"/>
<path d="M3.588 3.006C3.51592 2.99347 3.44199 2.99684 3.37135 3.01588C3.30072 3.03492 3.2351 3.06916 3.17909 3.11622C3.12308 3.16328 3.07802 3.22201 3.04709 3.2883C3.01615 3.35459 3.00008 3.42685 3 3.5V16.5C3 16.6326 3.05269 16.7598 3.14645 16.8536C3.24022 16.9473 3.36739 17 3.5 17H16.5C16.599 17.0002 16.6959 16.971 16.7783 16.916C16.8606 16.8611 16.9249 16.7829 16.9628 16.6915C17.0007 16.6 17.0106 16.4993 16.9912 16.4022C16.9719 16.3051 16.9241 16.2159 16.854 16.146L3.854 3.146C3.78207 3.07278 3.68908 3.02384 3.588 3.006ZM7.496 9C7.58956 8.99935 7.68143 9.02497 7.76115 9.07394C7.84088 9.1229 7.90528 9.19326 7.94701 9.277L10.947 15.277C10.985 15.3532 11.0029 15.4378 10.999 15.5229C10.9951 15.6079 10.9695 15.6905 10.9248 15.7629C10.88 15.8353 10.8175 15.8951 10.7431 15.9366C10.6688 15.9781 10.5851 15.9999 10.5 16H4.5C4.41487 15.9999 4.33119 15.9781 4.25685 15.9366C4.18252 15.8951 4.11999 15.8353 4.07523 15.7629C4.03046 15.6905 4.00493 15.6079 4.00104 15.5229C3.99715 15.4378 4.01503 15.3532 4.05299 15.277L7.05299 9.277C7.09411 9.19447 7.15726 9.12492 7.23544 9.07604C7.31362 9.02715 7.4038 9.00084 7.496 9Z" fill="currentColor"/>
<path d="M13.5 6C14.323 6 15 6.677 15 7.5C15 8.323 14.323 9 13.5 9C12.677 9 12 8.323 12 7.5C12 6.677 12.677 6 13.5 6Z" fill="currentColor"/>
<path d="M7.503 9C7.4095 8.99963 7.31778 9.02549 7.23823 9.07463C7.15869 9.12377 7.09452 9.19423 7.053 9.278L4.053 15.278C4.01504 15.3542 3.99715 15.4388 4.00104 15.5239C4.00493 15.6089 4.03047 15.6915 4.07524 15.7639C4.12 15.8363 4.18251 15.8961 4.25685 15.9376C4.33118 15.9791 4.41488 16.0009 4.5 16.001H10.5C10.5851 16.0009 10.6688 15.9791 10.7432 15.9376C10.8175 15.8961 10.88 15.8363 10.9248 15.7639C10.9695 15.6915 10.9951 15.6089 10.999 15.5239C11.0029 15.4388 10.985 15.3542 10.947 15.278L7.947 9.278C7.90581 9.19532 7.84251 9.12567 7.76414 9.07678C7.68576 9.02788 7.59538 9.00166 7.503 9.001V9Z" fill="currentColor"/>
</svg>
