<svg width="20" height="20" viewBox="0 0 20 20" fill="none" xmlns="http://www.w3.org/2000/svg">
<path d="M12.508 11C12.3754 11 12.2482 11.0527 12.1544 11.1464C12.0607 11.2402 12.008 11.3674 12.008 11.5V16.5C12.008 16.6326 12.0607 16.7598 12.1544 16.8536C12.2482 16.9473 12.3754 17 12.508 17H16.492C16.6246 17 16.7518 16.9473 16.8455 16.8536C16.9393 16.7598 16.992 16.6326 16.992 16.5V11.5C16.992 11.3674 16.9393 11.2402 16.8455 11.1464C16.7518 11.0527 16.6246 11 16.492 11H12.508ZM13.008 12H15.992V16H13.008V12ZM3.50801 11C3.3754 11 3.24821 11.0527 3.15445 11.1464C3.06068 11.2402 3.00801 11.3674 3.00801 11.5V16.5C3.00801 16.6326 3.06068 16.7598 3.15445 16.8536C3.24821 16.9473 3.3754 17 3.50801 17H7.492C7.62461 17 7.75178 16.9473 7.84555 16.8536C7.93931 16.7598 7.992 16.6326 7.992 16.5V11.5C7.992 11.3674 7.93931 11.2402 7.84555 11.1464C7.75178 11.0527 7.62461 11 7.492 11H3.50801ZM4.00801 12H6.992V16H4.00801V12ZM12.508 3C12.3754 3 12.2482 3.05268 12.1544 3.14645C12.0607 3.24021 12.008 3.36739 12.008 3.5V8.5C12.008 8.63261 12.0607 8.75979 12.1544 8.85355C12.2482 8.94732 12.3754 9 12.508 9H16.492C16.6246 9 16.7518 8.94732 16.8455 8.85355C16.9393 8.75979 16.992 8.63261 16.992 8.5V3.5C16.992 3.36739 16.9393 3.24021 16.8455 3.14645C16.7518 3.05268 16.6246 3 16.492 3H12.508ZM13.008 4H15.992V8H13.008V4ZM3.50801 3C3.3754 3 3.24821 3.05268 3.15445 3.14645C3.06068 3.24021 3.00801 3.36739 3.00801 3.5V8.5C3.00801 8.63261 3.06068 8.75979 3.15445 8.85355C3.24821 8.94732 3.3754 9 3.50801 9H7.492C7.62461 9 7.75178 8.94732 7.84555 8.85355C7.93931 8.75979 7.992 8.63261 7.992 8.5V3.5C7.992 3.36739 7.93931 3.24021 7.84555 3.14645C7.75178 3.05268 7.62461 3 7.492 3H3.50801ZM4.00801 4H6.992V8H4.00801V4Z" fill="currentColor"/>
</svg>
