<svg width="20" height="20" viewBox="0 0 20 20" fill="none" xmlns="http://www.w3.org/2000/svg">
<path d="M14.51 4.49999C14.4282 4.49808 14.3471 4.51628 14.274 4.55299L10.274 6.55299C10.2117 6.58001 10.1556 6.61942 10.1091 6.66882C10.0626 6.71822 10.0266 6.77658 10.0033 6.84034C9.98009 6.90409 9.97006 6.97191 9.97386 7.03967C9.97766 7.10743 9.99522 7.1737 10.0255 7.23446C10.0557 7.29521 10.098 7.34917 10.1498 7.39306C10.2015 7.43694 10.2617 7.46983 10.3266 7.48971C10.3915 7.50959 10.4597 7.51606 10.5272 7.50872C10.5946 7.50137 10.6599 7.48037 10.719 7.44699L13.536 6.03899L9.331 14.226L4.809 10.609C4.70543 10.5261 4.57318 10.4878 4.44135 10.5024C4.30951 10.517 4.18888 10.5834 4.106 10.687C4.02312 10.7906 3.98478 10.9228 3.9994 11.0546C4.01403 11.1865 4.08043 11.3071 4.184 11.39L9.184 15.39C9.24188 15.4364 9.30937 15.4694 9.38158 15.4866C9.45378 15.5037 9.5289 15.5045 9.60148 15.489C9.67405 15.4735 9.74226 15.442 9.80116 15.3969C9.86006 15.3517 9.90817 15.294 9.942 15.228L14.38 6.58799L15.012 9.12099C15.0266 9.186 15.0541 9.24743 15.0928 9.30167C15.1315 9.35591 15.1807 9.40187 15.2374 9.43684C15.2941 9.47181 15.3573 9.49509 15.4231 9.50531C15.489 9.51553 15.5562 9.51248 15.6208 9.49635C15.6855 9.48022 15.7463 9.45133 15.7996 9.41138C15.8529 9.37143 15.8977 9.32122 15.9314 9.2637C15.965 9.20618 15.9868 9.14252 15.9955 9.07646C16.0042 9.01039 15.9996 8.94326 15.982 8.87899L14.982 4.87899C14.9558 4.77272 14.8954 4.67799 14.8101 4.60935C14.7249 4.5407 14.6194 4.50193 14.51 4.49899V4.49999Z" fill="currentColor"/>
</svg>
