<svg width="20" height="20" viewBox="0 0 20 20" fill="none" xmlns="http://www.w3.org/2000/svg">
<path d="M15.501 4.502C15.3684 4.502 15.2412 4.55468 15.1475 4.64845C15.0537 4.74222 15.001 4.86939 15.001 5.002C15.001 8.445 13.926 11.034 11.978 12.793C10.03 14.553 7.164 15.502 3.501 15.502C3.36839 15.502 3.24122 15.5547 3.14745 15.6485C3.05369 15.7422 3.001 15.8694 3.001 16.002C3.001 16.1346 3.05369 16.2618 3.14745 16.3555C3.24122 16.4493 3.36839 16.502 3.501 16.502C7.338 16.502 10.472 15.502 12.649 13.535C14.715 11.669 15.799 8.898 15.913 5.502H16.501C16.6336 5.502 16.7608 5.44931 16.8545 5.35555C16.9483 5.26178 17.001 5.13461 17.001 5.002C17.001 4.86939 16.9483 4.74222 16.8545 4.64845C16.7608 4.55468 16.6336 4.502 16.501 4.502H15.501Z" fill="currentColor"/>
<path d="M3.50099 3.498C3.36838 3.498 3.24121 3.55067 3.14744 3.64444C3.05367 3.73821 3.00099 3.86539 3.00099 3.998V6.002C3.00099 6.13461 3.05367 6.26178 3.14744 6.35555C3.24121 6.44931 3.36838 6.502 3.50099 6.502H5.00099C5.41799 6.502 6.00099 6.952 6.00099 8.002C6.00099 9.052 5.42097 9.496 4.99897 9.498C4.47297 9.501 4.13898 9.15899 3.94898 8.77499C3.92001 8.71571 3.8796 8.66276 3.83006 8.61917C3.78052 8.57559 3.72284 8.54223 3.66035 8.52104C3.59786 8.49985 3.53178 8.49125 3.46595 8.49571C3.40012 8.50017 3.33583 8.51761 3.27677 8.54704C3.21772 8.57647 3.16507 8.6173 3.12187 8.66718C3.07866 8.71705 3.04574 8.77498 3.02503 8.83763C3.00432 8.90028 2.99623 8.96641 3.0012 9.03221C3.00617 9.09801 3.02411 9.16216 3.05399 9.22099C3.36399 9.84399 4.029 10.503 5.003 10.498C6.082 10.493 7.00099 9.452 7.00099 8.002C7.00099 6.552 6.08399 5.502 5.00099 5.502H4.00099V4.498H6.50099C6.63359 4.498 6.76076 4.44532 6.85453 4.35155C6.9483 4.25778 7.00099 4.13061 7.00099 3.998C7.00099 3.86539 6.9483 3.73821 6.85453 3.64444C6.76076 3.55067 6.63359 3.498 6.50099 3.498H3.50099Z" fill="currentColor"/>
</svg>
