<svg width="20" height="20" viewBox="0 0 20 20" fill="none" xmlns="http://www.w3.org/2000/svg">
<path d="M9.999 5.49999C9.86755 5.50108 9.74181 5.55389 9.649 5.64699L5.651 9.64699C5.55727 9.74076 5.50461 9.86791 5.50461 10.0005C5.50461 10.1331 5.55727 10.2602 5.651 10.354L9.649 14.354C9.74277 14.4477 9.86992 14.5004 10.0025 14.5004C10.1351 14.5004 10.2622 14.4477 10.356 14.354L14.348 10.375C14.442 10.2815 14.495 10.1545 14.4954 10.0219C14.4958 9.88933 14.4435 9.76202 14.35 9.66799L10.358 5.64799C10.3109 5.60051 10.2548 5.56295 10.193 5.53752C10.1312 5.5121 10.0649 5.49934 9.998 5.49999H9.999Z" fill="currentColor"/>
</svg>
