<svg width="20" height="20" viewBox="0 0 20 20" fill="none" xmlns="http://www.w3.org/2000/svg">
<path d="M13.554 3.00799C12.756 2.96999 11.983 3.28398 11.394 3.87298L10.908 4.36095C10.292 4.93595 9.973 5.71501 10.015 6.51501C10.0158 6.58229 10.0301 6.64871 10.0572 6.71032C10.0842 6.77193 10.1234 6.82743 10.1724 6.87353C10.2215 6.91962 10.2793 6.95535 10.3424 6.97857C10.4056 7.00179 10.4728 7.01203 10.54 7.00866C10.6072 7.00529 10.673 6.98839 10.7335 6.95898C10.7941 6.92956 10.848 6.88822 10.8922 6.83745C10.9364 6.78669 10.9698 6.72757 10.9906 6.66357C11.0113 6.59956 11.019 6.53198 11.013 6.46496C10.986 5.94996 11.169 5.48497 11.589 5.09197C11.5931 5.08804 11.5971 5.08408 11.601 5.08001L12.101 4.58001C12.513 4.16801 12.991 3.98097 13.505 4.00597C14.02 4.02997 14.59 4.27601 15.145 4.83001C15.699 5.38501 15.954 5.96499 15.982 6.48199C16.01 6.99899 15.83 7.46699 15.408 7.86199C15.4033 7.86524 15.3986 7.86859 15.394 7.872L14.894 8.372C14.482 8.785 14.017 8.976 13.498 8.976C13.3654 8.976 13.2382 9.02866 13.1444 9.12243C13.0507 9.2162 12.998 9.3434 12.998 9.476C12.998 9.60861 13.0507 9.73575 13.1444 9.82952C13.2382 9.92329 13.3654 9.976 13.498 9.976C14.278 9.976 15.023 9.65801 15.601 9.08001L16.089 8.59197C16.3881 8.31917 16.6233 7.98363 16.7777 7.60937C16.9321 7.2351 17.0018 6.83136 16.982 6.42699C16.938 5.62499 16.546 4.81798 15.852 4.12298C15.155 3.42698 14.352 3.04599 13.554 3.00799ZM12.724 6.73595C12.5942 6.73939 12.4708 6.79321 12.38 6.88598L11.38 7.88598C11.3335 7.93247 11.2966 7.98765 11.2715 8.04839C11.2463 8.10913 11.2334 8.17424 11.2334 8.23998C11.2334 8.30573 11.2463 8.37083 11.2715 8.43157C11.2966 8.49231 11.3335 8.5475 11.38 8.59399C11.4265 8.64047 11.4817 8.67735 11.5424 8.70251C11.6032 8.72766 11.6683 8.74059 11.734 8.74059C11.7997 8.74059 11.8648 8.72766 11.9256 8.70251C11.9863 8.67735 12.0415 8.64047 12.088 8.59399L13.088 7.59399C13.1602 7.5237 13.2095 7.43323 13.2293 7.33446C13.2492 7.2357 13.2388 7.13321 13.1995 7.04046C13.1601 6.94771 13.0937 6.86902 13.0088 6.81469C12.924 6.76035 12.8247 6.73289 12.724 6.73595ZM6.544 10.008C6.13817 9.98594 5.73251 10.0543 5.35636 10.2082C4.98021 10.3622 4.64296 10.5978 4.369 10.898L3.88 11.386C3.292 11.975 2.977 12.746 3.015 13.545C3.053 14.343 3.435 15.148 4.13 15.844C4.826 16.539 5.634 16.928 6.437 16.972C6.84069 16.9921 7.24385 16.9228 7.61761 16.769C7.99138 16.6151 8.3265 16.3805 8.599 16.082L9.088 15.594C9.666 15.014 9.984 14.271 9.984 13.49C9.984 13.3574 9.93132 13.2302 9.83755 13.1364C9.74378 13.0426 9.61661 12.99 9.484 12.99C9.35139 12.99 9.22421 13.0426 9.13045 13.1364C9.03668 13.2302 8.984 13.3574 8.984 13.49C8.984 14.01 8.793 14.474 8.38 14.886L7.88 15.386C7.87627 15.3899 7.8726 15.3939 7.869 15.398C7.475 15.82 7.009 16.003 6.492 15.974C5.975 15.946 5.392 15.691 4.838 15.136C4.283 14.582 4.04 14.012 4.015 13.498C3.991 12.983 4.175 12.505 4.588 12.093L5.088 11.593C5.09172 11.5894 5.09539 11.5857 5.099 11.582C5.496 11.158 5.966 10.975 6.486 11.006C6.55239 11.0114 6.6192 11.0035 6.68251 10.9828C6.74581 10.962 6.80433 10.9289 6.85464 10.8852C6.90494 10.8415 6.946 10.7882 6.97542 10.7284C7.00484 10.6687 7.02202 10.6037 7.02595 10.5372C7.02988 10.4707 7.02049 10.4041 6.99832 10.3412C6.97615 10.2784 6.94164 10.2207 6.89683 10.1714C6.85203 10.1221 6.79783 10.0822 6.73741 10.0541C6.67699 10.0261 6.61157 10.0104 6.545 10.008H6.544ZM8.224 11.236C8.0942 11.2394 7.97084 11.2932 7.88 11.386L6.88 12.386C6.78612 12.4799 6.73337 12.6072 6.73337 12.74C6.73337 12.8728 6.78612 13.0001 6.88 13.094C6.97389 13.1879 7.10122 13.2406 7.234 13.2406C7.36678 13.2406 7.49411 13.1879 7.588 13.094L8.588 12.094C8.66018 12.0237 8.70945 11.9332 8.72935 11.8345C8.74924 11.7357 8.73882 11.6332 8.69948 11.5405C8.66013 11.4477 8.59368 11.369 8.50883 11.3147C8.42399 11.2604 8.3247 11.2329 8.224 11.236Z" fill="currentColor"/>
<path d="M4.47799 3.98403C4.37823 3.98382 4.2807 4.01343 4.19793 4.06911C4.11515 4.12479 4.0509 4.20399 4.01348 4.29646C3.97606 4.38894 3.96717 4.49051 3.98794 4.58809C4.0087 4.68567 4.05817 4.77478 4.12999 4.84401L15.277 15.99H12.234C12.1014 15.99 11.9742 16.0427 11.8805 16.1364C11.7867 16.2302 11.734 16.3574 11.734 16.49C11.734 16.6226 11.7867 16.7498 11.8805 16.8436C11.9742 16.9374 12.1014 16.99 12.234 16.99H16.424C16.4999 16.9998 16.577 16.9921 16.6494 16.9674C16.7218 16.9427 16.7876 16.9018 16.8417 16.8477C16.8958 16.7936 16.9367 16.7278 16.9614 16.6554C16.9861 16.583 16.9938 16.5059 16.984 16.43V12.24C16.984 12.1074 16.9313 11.9802 16.8375 11.8864C16.7438 11.7927 16.6166 11.74 16.484 11.74C16.3514 11.74 16.2242 11.7927 16.1305 11.8864C16.0367 11.9802 15.984 12.1074 15.984 12.24V15.283L4.838 4.136C4.79127 4.08779 4.7353 4.04951 4.67345 4.02339C4.6116 3.99728 4.54512 3.98389 4.47799 3.98403Z" fill="currentColor"/>
</svg>
