<svg width="20" height="20" viewBox="0 0 20 20" fill="none" xmlns="http://www.w3.org/2000/svg">
<path d="M7.48399 3.00001C7.35686 3.00392 7.23599 3.05612 7.146 3.14601L4.146 6.14601C4.07589 6.21594 4.02813 6.30513 4.00876 6.40223C3.98939 6.49934 3.9993 6.60001 4.03722 6.69148C4.07513 6.78295 4.13935 6.8611 4.22174 6.91603C4.30413 6.97096 4.40098 7.00019 4.5 7.00001H7.5C7.63261 7.00001 7.75978 6.94733 7.85355 6.85356C7.94732 6.75979 8 6.63262 8 6.50001V3.50001C8.00004 3.43298 7.98659 3.36664 7.96047 3.30491C7.93434 3.24318 7.89608 3.18731 7.84795 3.14067C7.79981 3.09402 7.74277 3.05753 7.68025 3.03337C7.61773 3.0092 7.55099 2.99787 7.48399 3.00001ZM9 3.00001V8.00001H4V9.50001C3.99988 9.56572 4.01271 9.6308 4.03777 9.69154C4.06282 9.75228 4.0996 9.8075 4.146 9.85402L6.146 11.854C6.19244 11.9006 6.24762 11.9375 6.30837 11.9627C6.36911 11.9879 6.43423 12.0009 6.5 12.0009C6.56577 12.0009 6.63089 11.9879 6.69164 11.9627C6.75238 11.9375 6.80756 11.9006 6.854 11.854L9.5 9.20701L11.146 10.854C11.1924 10.9006 11.2476 10.9375 11.3084 10.9627C11.3691 10.9879 11.4342 11.0009 11.5 11.0009C11.5658 11.0009 11.6309 10.9879 11.6916 10.9627C11.7524 10.9375 11.8076 10.9006 11.854 10.854L14.5 8.20701L15.146 8.85402L16.146 9.85402C16.2159 9.92412 16.3051 9.97189 16.4022 9.99125C16.4993 10.0106 16.6 10.0007 16.6915 9.96281C16.7829 9.92489 16.8611 9.86066 16.916 9.77827C16.9709 9.69588 17.0002 9.59903 17 9.50001V3.50001C17 3.3674 16.9473 3.24023 16.8535 3.14647C16.7598 3.0527 16.6326 3.00001 16.5 3.00001H9ZM13.492 12C13.3621 12.0019 13.238 12.0542 13.146 12.146L10.5 14.793L8.854 13.146C8.80756 13.0994 8.75238 13.0625 8.69164 13.0373C8.63089 13.0121 8.56577 12.9991 8.5 12.9991C8.43423 12.9991 8.36911 13.0121 8.30837 13.0373C8.24762 13.0625 8.19244 13.0994 8.146 13.146L5.5 15.793L3.854 14.146C3.78408 14.0759 3.6949 14.0281 3.59779 14.0088C3.50069 13.9894 3.40001 13.9993 3.30853 14.0372C3.21706 14.0751 3.13891 14.1394 3.08399 14.2218C3.02906 14.3041 2.99982 14.401 3 14.5V16.5C3 16.6326 3.05269 16.7598 3.14645 16.8536C3.24022 16.9473 3.36739 17 3.5 17H15.5C15.6326 17 15.7598 16.9473 15.8535 16.8536C15.9473 16.7598 16 16.6326 16 16.5V14.5C16.0001 14.4343 15.9873 14.3692 15.9622 14.3085C15.9372 14.2477 15.9004 14.1925 15.854 14.146L14.854 13.146L13.854 12.146C13.8065 12.0986 13.75 12.0613 13.6878 12.0362C13.6256 12.0112 13.5591 11.9988 13.492 12Z" fill="currentColor"/>
</svg>
