<svg width="20" height="20" viewBox="0 0 20 20" fill="none" xmlns="http://www.w3.org/2000/svg">
<path d="M7 3.5C6.9343 3.49988 6.86921 3.51273 6.80847 3.53778C6.74773 3.56283 6.69252 3.5996 6.646 3.646L3.646 6.646C3.5996 6.69252 3.56283 6.74773 3.53778 6.80847C3.51273 6.86921 3.49988 6.9343 3.5 7V16C3.5 16.1326 3.55269 16.2598 3.64645 16.3535C3.74022 16.4473 3.86739 16.5 4 16.5H13C13.0657 16.5001 13.1308 16.4873 13.1915 16.4622C13.2523 16.4372 13.3075 16.4004 13.354 16.354L16.354 13.354C16.4004 13.3075 16.4372 13.2523 16.4622 13.1915C16.4873 13.1308 16.5001 13.0657 16.5 13V4C16.5 3.86739 16.4473 3.74022 16.3535 3.64645C16.2598 3.55269 16.1326 3.5 16 3.5H7ZM7.207 4.5H15.5V12.793L12.793 15.5H4.5V7.207L7.207 4.5ZM9.00601 9.53699C8.18301 9.53699 7.50601 10.215 7.50601 11.037C7.50601 11.86 8.18301 12.537 9.00601 12.537C9.82801 12.537 10.506 11.86 10.506 11.037C10.506 10.215 9.82801 9.53699 9.00601 9.53699ZM9.00601 10.537C9.28801 10.537 9.50601 10.755 9.50601 11.037C9.50601 11.319 9.28801 11.537 9.00601 11.537C8.94009 11.5379 8.87463 11.5256 8.81354 11.5009C8.75245 11.4761 8.69698 11.4393 8.65036 11.3926C8.60374 11.346 8.56694 11.2906 8.54215 11.2295C8.51735 11.1684 8.50507 11.1029 8.50601 11.037C8.50601 10.755 8.72401 10.537 9.00601 10.537Z" fill="currentColor"/>
<path d="M15.646 3.646L12.793 6.5H4V7.5H12.5L12.506 16.037H13.506L13.5 7.207L16.354 4.354L15.646 3.646Z" fill="currentColor"/>
</svg>
