<svg width="20" height="20" viewBox="0 0 20 20" fill="none" xmlns="http://www.w3.org/2000/svg">
<path d="M9.98003 2.5C6.81703 2.509 4.11501 4.81598 3.59001 7.95098C3.06401 11.086 4.86502 14.156 7.85002 15.209C7.91234 15.2326 7.97875 15.2434 8.04533 15.241C8.11191 15.2385 8.17731 15.2228 8.23772 15.1947C8.29813 15.1666 8.35233 15.1267 8.39711 15.0773C8.44188 15.028 8.47633 14.9702 8.49846 14.9073C8.52058 14.8445 8.52994 14.7779 8.52595 14.7114C8.52196 14.6449 8.50472 14.5798 8.47523 14.5201C8.44575 14.4603 8.40462 14.4071 8.35426 14.3634C8.30391 14.3198 8.24536 14.2867 8.18202 14.266C5.65202 13.373 4.13 10.781 4.576 8.117C5.023 5.453 7.30402 3.507 9.98402 3.5C11.2855 3.49824 12.5456 3.95775 13.5404 4.79696C14.5352 5.63618 15.2005 6.8008 15.418 8.08401C15.88 10.746 14.372 13.347 11.848 14.254C11.7862 14.2763 11.7294 14.3106 11.6809 14.3549C11.6324 14.3991 11.593 14.4525 11.5651 14.512C11.5372 14.5715 11.5213 14.6359 11.5183 14.7015C11.5152 14.7671 11.5252 14.8327 11.5475 14.8945C11.5698 14.9563 11.6041 15.0131 11.6484 15.0616C11.6927 15.1102 11.7461 15.1495 11.8055 15.1774C11.865 15.2053 11.9294 15.2212 11.995 15.2242C12.0606 15.2273 12.1262 15.2173 12.188 15.195C15.166 14.125 16.946 11.046 16.402 7.915C15.859 4.782 13.144 2.491 9.98003 2.5ZM10 7.5C9.17701 7.5 8.50001 8.177 8.50001 9C8.50001 9.647 8.92001 10.198 9.50001 10.406V11C9.49001 11.676 10.51 11.676 10.5 11V10.406C11.079 10.198 11.5 9.646 11.5 9C11.5 8.177 10.822 7.5 10 7.5ZM10 8.5C10.282 8.5 10.5 8.718 10.5 9C10.5 9.282 10.282 9.5 10 9.5C9.93409 9.50094 9.86866 9.48866 9.80757 9.46386C9.74648 9.43907 9.69098 9.40227 9.64436 9.35565C9.59774 9.30903 9.56094 9.25353 9.53615 9.19244C9.51135 9.13135 9.49907 9.06592 9.50001 9C9.50001 8.718 9.71801 8.5 10 8.5ZM9.998 12.484C9.93234 12.485 9.86753 12.499 9.80727 12.5251C9.747 12.5512 9.69246 12.5889 9.64677 12.6361C9.60109 12.6832 9.56515 12.739 9.541 12.8C9.51685 12.8611 9.50497 12.9263 9.50603 12.992V13.992C9.49603 14.668 10.516 14.668 10.506 13.992V12.992C10.5071 12.925 10.4947 12.8584 10.4696 12.7963C10.4444 12.7342 10.407 12.6778 10.3596 12.6304C10.3122 12.583 10.2558 12.5456 10.1937 12.5205C10.1316 12.4953 10.065 12.4829 9.998 12.484ZM9.998 15.484C9.93234 15.485 9.86753 15.499 9.80727 15.5251C9.747 15.5512 9.69246 15.5889 9.64677 15.6361C9.60109 15.6832 9.56515 15.739 9.541 15.8C9.51685 15.8611 9.50497 15.9263 9.50603 15.992V16.994C9.49603 17.67 10.516 17.67 10.506 16.994V15.992C10.5071 15.925 10.4947 15.8584 10.4696 15.7963C10.4444 15.7342 10.407 15.6778 10.3596 15.6304C10.3122 15.583 10.2558 15.5456 10.1937 15.5205C10.1316 15.4953 10.065 15.4829 9.998 15.484Z" fill="currentColor"/>
</svg>
