<svg width="20" height="20" viewBox="0 0 20 20" fill="none" xmlns="http://www.w3.org/2000/svg">
<path d="M9.5 3C9.36739 3 9.24019 3.05266 9.14642 3.14642C9.05266 3.24019 9 3.36739 9 3.5C9 3.63261 9.05266 3.75981 9.14642 3.85358C9.24019 3.94734 9.36739 4 9.5 4H16.492C16.6246 4 16.7518 3.94734 16.8456 3.85358C16.9393 3.75981 16.992 3.63261 16.992 3.5C16.992 3.36739 16.9393 3.24019 16.8456 3.14642C16.7518 3.05266 16.6246 3 16.492 3H9.5ZM9.5 5C9.36739 5 9.24019 5.05266 9.14642 5.14642C9.05266 5.24019 9 5.36739 9 5.5C9 5.63261 9.05266 5.75981 9.14642 5.85358C9.24019 5.94734 9.36739 6 9.5 6H16.492C16.6246 6 16.7518 5.94734 16.8456 5.85358C16.9393 5.75981 16.992 5.63261 16.992 5.5C16.992 5.36739 16.9393 5.24019 16.8456 5.14642C16.7518 5.05266 16.6246 5 16.492 5H9.5ZM9.5 7C9.36739 7 9.24019 7.05266 9.14642 7.14642C9.05266 7.24019 9 7.36739 9 7.5C9 7.63261 9.05266 7.75981 9.14642 7.85358C9.24019 7.94734 9.36739 8 9.5 8H16.492C16.6246 8 16.7518 7.94734 16.8456 7.85358C16.9393 7.75981 16.992 7.63261 16.992 7.5C16.992 7.36739 16.9393 7.24019 16.8456 7.14642C16.7518 7.05266 16.6246 7 16.492 7H9.5ZM9.5 12C9.36739 12 9.24019 12.0527 9.14642 12.1464C9.05266 12.2402 9 12.3674 9 12.5C9 12.6326 9.05266 12.7598 9.14642 12.8536C9.24019 12.9473 9.36739 13 9.5 13H16.492C16.6246 13 16.7518 12.9473 16.8456 12.8536C16.9393 12.7598 16.992 12.6326 16.992 12.5C16.992 12.3674 16.9393 12.2402 16.8456 12.1464C16.7518 12.0527 16.6246 12 16.492 12H9.5ZM9.5 14C9.36739 14 9.24019 14.0527 9.14642 14.1464C9.05266 14.2402 9 14.3674 9 14.5C9 14.6326 9.05266 14.7598 9.14642 14.8536C9.24019 14.9473 9.36739 15 9.5 15H16.492C16.6246 15 16.7518 14.9473 16.8456 14.8536C16.9393 14.7598 16.992 14.6326 16.992 14.5C16.992 14.3674 16.9393 14.2402 16.8456 14.1464C16.7518 14.0527 16.6246 14 16.492 14H9.5ZM9.5 16C9.36739 16 9.24019 16.0527 9.14642 16.1464C9.05266 16.2402 9 16.3674 9 16.5C9 16.6326 9.05266 16.7598 9.14642 16.8536C9.24019 16.9473 9.36739 17 9.5 17H16.5C16.6326 17 16.7598 16.9473 16.8536 16.8536C16.9473 16.7598 17 16.6326 17 16.5C17 16.3674 16.9473 16.2402 16.8536 16.1464C16.7598 16.0527 16.6326 16 16.5 16H9.5Z" fill="currentColor"/>
<path d="M5.48401 3.00001C5.35687 3.00391 5.23599 3.05612 5.146 3.14601L3.146 5.14601C3.05211 5.23989 2.99939 5.36724 2.99939 5.50001C2.99939 5.63279 3.05211 5.76013 3.146 5.85402C3.23988 5.9479 3.36722 6.00062 3.5 6.00062C3.63278 6.00062 3.76012 5.9479 3.854 5.85402L5 4.70698V8.50001C5 8.63262 5.05266 8.75982 5.14642 8.85359C5.24019 8.94736 5.36739 9.00001 5.5 9.00001C5.63261 9.00001 5.75981 8.94736 5.85358 8.85359C5.94734 8.75982 6 8.63262 6 8.50001V3.50001C6.00003 3.43298 5.98657 3.36661 5.96045 3.30488C5.93433 3.24315 5.8961 3.18734 5.84796 3.1407C5.79982 3.09405 5.74276 3.05756 5.68024 3.0334C5.61772 3.00923 5.551 2.99787 5.48401 3.00001ZM5 11C4.208 11 3.29502 11.427 3.02002 12.36C3.00163 12.423 2.99585 12.4891 3.00299 12.5543C3.01013 12.6196 3.03001 12.6829 3.06158 12.7404C3.09316 12.798 3.13575 12.8488 3.18695 12.8899C3.23815 12.931 3.29695 12.9616 3.35999 12.98C3.42302 12.9984 3.48905 13.0042 3.55432 12.997C3.61959 12.9899 3.68285 12.97 3.74042 12.9384C3.79799 12.9069 3.84878 12.8643 3.88989 12.8131C3.931 12.7619 3.9616 12.7031 3.97998 12.64C4.10498 12.22 4.558 12 5 12C5.32 12 5.60003 12.063 5.75403 12.166C5.90803 12.269 6.004 12.378 6.008 12.754C6.008 12.961 5.932 13.082 5.711 13.275C5.489 13.469 5.13302 13.678 4.74402 13.92C4.35602 14.162 3.93303 14.444 3.59003 14.855C3.20618 15.3162 2.99724 15.898 3 16.498C2.99974 16.5638 3.01247 16.6291 3.03748 16.69C3.06249 16.7508 3.0993 16.8062 3.14575 16.8529C3.19221 16.8995 3.24737 16.9365 3.30817 16.9617C3.36896 16.987 3.43417 17 3.5 17H6.5C6.63261 17 6.75981 16.9474 6.85358 16.8536C6.94734 16.7598 7 16.6326 7 16.5C7 16.3674 6.94734 16.2402 6.85358 16.1464C6.75981 16.0527 6.63261 16 6.5 16H4.17798C4.23898 15.838 4.24597 15.63 4.35797 15.496C4.57997 15.228 4.91001 14.994 5.27301 14.768C5.63701 14.541 6.03097 14.328 6.37097 14.029C6.71097 13.731 7.011 13.29 7.008 12.748C7.008 12.7473 7.008 12.7466 7.008 12.746C7.002 12.122 6.71798 11.606 6.30798 11.334C5.89898 11.062 5.431 11 5 11Z" fill="currentColor"/>
</svg>
