<svg width="20" height="20" viewBox="0 0 20 20" fill="none" xmlns="http://www.w3.org/2000/svg">
<path d="M13.57 3.01798C12.772 2.97998 11.999 3.29397 11.41 3.88297L9.92401 5.37095C9.62612 5.64238 9.39167 5.97614 9.23733 6.34843C9.08299 6.72071 9.01254 7.12242 9.031 7.525C9.03177 7.59229 9.0461 7.6587 9.07315 7.72031C9.1002 7.78192 9.13943 7.83742 9.18844 7.88352C9.23746 7.92962 9.29527 7.96534 9.35843 7.98856C9.42158 8.01178 9.48879 8.02202 9.556 8.01865C9.6232 8.01529 9.68902 7.99839 9.74954 7.96897C9.81006 7.93955 9.864 7.89821 9.90817 7.84745C9.95234 7.79668 9.98583 7.73757 10.0066 7.67356C10.0273 7.60955 10.035 7.54198 10.029 7.47495C10.002 6.95995 10.185 6.49497 10.605 6.10197C10.6091 6.09803 10.6131 6.09407 10.617 6.09L12.117 4.59C12.529 4.178 13.007 3.99097 13.521 4.01597C14.036 4.03997 14.606 4.286 15.161 4.84C15.715 5.395 15.97 5.97498 15.998 6.49198C16.026 7.00898 15.846 7.47699 15.424 7.87199C15.4193 7.87524 15.4146 7.87858 15.41 7.882L13.91 9.382C13.498 9.795 13.033 9.986 12.514 9.986C12.3814 9.986 12.2542 10.0387 12.1605 10.1324C12.0667 10.2262 12.014 10.3534 12.014 10.486C12.014 10.6186 12.0667 10.7457 12.1605 10.8395C12.2542 10.9333 12.3814 10.986 12.514 10.986C13.294 10.986 14.039 10.668 14.617 10.09L16.105 8.60197C16.4041 8.32916 16.6393 7.99363 16.7937 7.61936C16.948 7.24509 17.0178 6.84136 16.998 6.43699C16.954 5.63499 16.562 4.82797 15.868 4.13297C15.171 3.43697 14.368 3.05598 13.57 3.01798ZM7.56 9.01798C7.15417 8.99593 6.74853 9.06432 6.37237 9.21824C5.99622 9.37216 5.65897 9.60778 5.38501 9.908L3.89599 11.396C3.30799 11.985 2.993 12.756 3.031 13.555C3.069 14.353 3.45099 15.158 4.14599 15.854C4.84199 16.549 5.65 16.938 6.453 16.982C6.85669 17.0021 7.25984 16.9328 7.6336 16.779C8.00737 16.6251 8.34249 16.3905 8.61499 16.092L10.104 14.604C10.682 14.024 11 13.281 11 12.5C11 12.3674 10.9473 12.2402 10.8535 12.1464C10.7598 12.0526 10.6326 12 10.5 12C10.3674 12 10.2402 12.0526 10.1465 12.1464C10.0527 12.2402 10 12.3674 10 12.5C10 13.02 9.80899 13.484 9.39599 13.896L7.89599 15.396C7.89226 15.3999 7.88861 15.4039 7.88501 15.408C7.49101 15.83 7.02499 16.013 6.50799 15.984C5.99099 15.956 5.408 15.701 4.854 15.146C4.299 14.592 4.056 14.022 4.031 13.508C4.007 12.993 4.191 12.515 4.604 12.103L6.104 10.603C6.10773 10.5994 6.11138 10.5957 6.11499 10.592C6.51199 10.168 6.98201 9.98497 7.50201 10.016C7.56841 10.0214 7.63521 10.0135 7.69852 9.99277C7.76182 9.97203 7.82033 9.93885 7.87063 9.89518C7.92094 9.8515 7.962 9.79821 7.99142 9.73844C8.02084 9.67867 8.03803 9.61366 8.04196 9.54716C8.04589 9.48066 8.03648 9.41405 8.01431 9.35123C7.99214 9.28842 7.95765 9.23067 7.91284 9.18137C7.86804 9.13208 7.81384 9.09218 7.75342 9.06412C7.693 9.03607 7.62757 9.0204 7.561 9.01798H7.56ZM12.49 6.99595C12.3602 6.99939 12.2368 7.0532 12.146 7.14597L7.14599 12.146C7.09951 12.1925 7.06263 12.2476 7.03747 12.3084C7.01232 12.3691 6.99936 12.4342 6.99936 12.5C6.99936 12.5657 7.01232 12.6308 7.03747 12.6916C7.06263 12.7523 7.09951 12.8075 7.14599 12.854C7.19248 12.9005 7.24767 12.9373 7.30841 12.9625C7.36915 12.9877 7.43425 13.0006 7.5 13.0006C7.56574 13.0006 7.63085 12.9877 7.69159 12.9625C7.75233 12.9373 7.80751 12.9005 7.854 12.854L12.854 7.85398C12.9262 7.78369 12.9754 7.69323 12.9953 7.59446C13.0152 7.49569 13.0048 7.3932 12.9655 7.30045C12.9261 7.2077 12.8597 7.12902 12.7748 7.07468C12.69 7.02035 12.5907 6.99289 12.49 6.99595Z" fill="currentColor"/>
</svg>
