<svg width="20" height="20" viewBox="0 0 20 20" fill="none" xmlns="http://www.w3.org/2000/svg">
<path d="M9.75 3C9.6626 2.99997 9.57672 3.02286 9.50092 3.06638C9.42512 3.10989 9.36205 3.1725 9.318 3.24799L5.672 9.49799C5.67133 9.49865 5.67066 9.49933 5.67 9.5C5.08315 10.5181 4.87327 11.7103 5.07713 12.8676C5.28099 14.025 5.88559 15.0737 6.785 15.83C7.68634 16.5847 8.82444 16.9982 10 16.9982C11.1756 16.9982 12.3137 16.5847 13.215 15.83C14.1144 15.0737 14.719 14.025 14.9229 12.8676C15.1267 11.7103 14.9168 10.5181 14.33 9.5C14.3293 9.49933 14.3287 9.49865 14.328 9.49799L10.682 3.24799C10.6379 3.1725 10.5749 3.10989 10.4991 3.06638C10.4233 3.02286 10.3374 2.99997 10.25 3H9.75ZM10 4.064L13.465 10.002C13.9354 10.8162 14.1035 11.7702 13.9398 12.6961C13.7761 13.622 13.291 14.4605 12.57 15.064C11.8505 15.6694 10.9403 16.0013 10 16.0013C9.05968 16.0013 8.14954 15.6694 7.43 15.064C6.70897 14.4605 6.22391 13.622 6.0602 12.6961C5.8965 11.7702 6.06462 10.8162 6.535 10.002V10L10 4.064ZM9.488 6.99399C9.39854 6.99669 9.31145 7.02338 9.23581 7.07123C9.16018 7.11907 9.09877 7.18632 9.058 7.26599L7.361 10.473C7.19496 10.7592 7.07674 11.0707 7.011 11.395C6.98488 11.5251 7.0115 11.6602 7.08502 11.7707C7.15853 11.8812 7.27291 11.9579 7.403 11.984C7.53309 12.0101 7.66823 11.9835 7.77869 11.91C7.88915 11.8365 7.96588 11.7221 7.992 11.592C8.03579 11.3748 8.11519 11.1663 8.227 10.975C8.23046 10.9691 8.23379 10.9631 8.237 10.957L9.941 7.73401C9.9833 7.65679 10.0045 7.56977 10.0023 7.48175C10.0002 7.39373 9.97489 7.30782 9.92892 7.23273C9.88295 7.15764 9.81797 7.09603 9.74055 7.05411C9.66313 7.01219 9.57601 6.99144 9.488 6.99399Z" fill="currentColor"/>
</svg>
