<svg width="20" height="20" viewBox="0 0 20 20" fill="none" xmlns="http://www.w3.org/2000/svg">
<path d="M13.914 3.05701C13.14 2.90301 12.279 2.93299 11.4 3.12299C9.64299 3.50399 7.76499 4.528 6.14599 6.146C4.52799 7.765 3.50398 9.64299 3.12298 11.4C2.74198 13.157 3.00601 14.838 4.08401 15.916C5.16201 16.994 6.843 17.258 8.6 16.876C10.357 16.496 12.235 15.472 13.854 13.854C15.472 12.235 16.496 10.357 16.877 8.60001C17.258 6.84301 16.994 5.16202 15.916 4.08402C15.377 3.54502 14.688 3.21001 13.914 3.05701ZM13.701 4.03299C14.313 4.15299 14.827 4.40899 15.209 4.79099C15.973 5.55499 16.233 6.85099 15.9 8.38699C15.567 9.92299 14.64 11.654 13.146 13.147C11.654 14.639 9.92298 15.567 8.38598 15.9C6.85098 16.233 5.55598 15.973 4.79098 15.209C4.02698 14.445 3.767 13.149 4.1 11.613C4.433 10.077 5.36 8.346 6.854 6.853C8.346 5.361 10.077 4.43301 11.614 4.10001C12.381 3.93301 13.09 3.91399 13.701 4.03299Z" fill="currentColor"/>
<path d="M7.47298 7.99399C7.39895 7.99762 7.32667 8.01767 7.26134 8.05267C7.19601 8.08768 7.13926 8.13679 7.09523 8.19641C7.0512 8.25604 7.02098 8.32469 7.00676 8.39743C6.99254 8.47017 6.99466 8.54519 7.01299 8.61701C7.23499 9.53701 7.79498 10.539 8.65398 11.361C9.46598 12.138 10.404 12.773 11.394 12.988C11.4595 13.0059 11.528 13.0103 11.5953 13.0009C11.6625 12.9914 11.7272 12.9684 11.7853 12.9331C11.8433 12.8979 11.8936 12.8512 11.933 12.7958C11.9724 12.7405 12.0002 12.6778 12.0145 12.6114C12.0289 12.545 12.0295 12.4763 12.0165 12.4097C12.0034 12.343 11.977 12.2797 11.9386 12.2236C11.9003 12.1675 11.851 12.1198 11.7936 12.0834C11.7362 12.0471 11.6721 12.0228 11.605 12.012C10.9 11.859 10.07 11.332 9.34499 10.639C8.62699 9.95101 8.15498 9.082 7.98598 8.383C7.95998 8.26812 7.89428 8.16611 7.80043 8.09494C7.70658 8.02378 7.59061 7.98802 7.47298 7.99399Z" fill="currentColor"/>
</svg>
