<svg width="20" height="20" viewBox="0 0 20 20" fill="none" xmlns="http://www.w3.org/2000/svg">
<path d="M8.49599 2.99201C8.46234 2.99263 8.42884 2.99665 8.396 3.004L3.49599 3.008C3.36339 3.008 3.23621 3.06069 3.14244 3.15445C3.04867 3.24822 2.99599 3.37539 2.99599 3.508V13.508C2.99599 13.6406 3.04867 13.7678 3.14244 13.8615C3.23621 13.9553 3.36339 14.008 3.49599 14.008C3.6286 14.008 3.75578 13.9553 3.84955 13.8615C3.94332 13.7678 3.99599 13.6406 3.99599 13.508V9.00001H8.504C8.63661 9.00001 8.76378 8.94732 8.85755 8.85355C8.95132 8.75978 9.004 8.63261 9.004 8.50001V4.00202L13.504 4.00001C13.6366 4.00001 13.7638 3.94732 13.8576 3.85355C13.9513 3.75978 14.004 3.63261 14.004 3.50001C14.004 3.3674 13.9513 3.24023 13.8576 3.14646C13.7638 3.05269 13.6366 3.00001 13.504 3.00001L8.611 3.004C8.57326 2.99557 8.53466 2.99155 8.49599 2.99201ZM8.004 4.004V8.00001H3.99599V4.00602L8.004 4.004Z" fill="currentColor"/>
<path d="M16.488 3.00001C16.3609 3.00392 16.24 3.05612 16.15 3.14601L3.14301 16.154C3.07296 16.2239 3.02521 16.313 3.00581 16.41C2.98642 16.507 2.99623 16.6076 3.03403 16.699C3.07182 16.7905 3.13589 16.8686 3.21813 16.9236C3.30036 16.9786 3.39707 17.008 3.496 17.008L16.504 17C16.6366 17 16.7638 16.9473 16.8575 16.8536C16.9513 16.7598 17.004 16.6326 17.004 16.5V3.50001C17.004 3.43298 16.9906 3.36664 16.9645 3.30491C16.9383 3.24318 16.9001 3.18731 16.8519 3.14067C16.8038 3.09402 16.7468 3.05753 16.6843 3.03337C16.6217 3.0092 16.555 2.99787 16.488 3.00001ZM16.004 4.70701V16L4.704 16.008L16.004 4.70701Z" fill="currentColor"/>
</svg>
