<svg width="20" height="20" viewBox="0 0 20 20" fill="none" xmlns="http://www.w3.org/2000/svg">
<path d="M10.69 3.012C9.68608 3.09074 8.74871 3.54496 8.0648 4.2841C7.38089 5.02324 7.00069 5.993 7 7C6.99934 7.04485 7.00472 7.08959 7.016 7.133C6.64428 7.2236 6.2876 7.36742 5.957 7.56C5.25905 7.97744 4.70515 8.59799 4.36938 9.3387C4.0336 10.0794 3.93195 10.905 4.078 11.705C3.7287 11.9964 3.45029 12.3635 3.26387 12.7784C3.07745 13.1934 2.9879 13.6453 3.002 14.1C3.02738 14.821 3.31129 15.5088 3.80187 16.0377C4.29245 16.5667 4.95696 16.9015 5.674 16.981C6.34907 17.0523 7.02836 16.8925 7.60087 16.5278C8.17339 16.163 8.60529 15.6149 8.826 14.973C9.71924 15.0128 10.5998 14.75 11.325 14.227C11.8527 14.6491 12.4913 14.9093 13.1637 14.9762C13.8361 15.0431 14.5135 14.9138 15.114 14.604C15.7088 14.2945 16.2022 13.8207 16.5354 13.2389C16.8687 12.6571 17.0279 11.9918 16.9939 11.3221C16.96 10.6525 16.7345 10.0067 16.3441 9.46152C15.9538 8.91637 15.415 8.49481 14.792 8.247C15.0182 7.56299 15.0554 6.83057 14.8996 6.12717C14.7438 5.42377 14.4009 4.77553 13.907 4.251C13.4961 3.81888 12.9944 3.48347 12.438 3.26902C11.8817 3.05456 11.2846 2.96643 10.69 3.011V3.012ZM11.211 4.008C11.6963 4.04127 12.1663 4.19223 12.5802 4.44784C12.9941 4.70344 13.3396 5.056 13.5867 5.47504C13.8339 5.89408 13.9752 6.367 13.9986 6.85292C14.022 7.33885 13.9267 7.82316 13.721 8.264C13.6873 8.33111 13.6692 8.40493 13.668 8.48C13.6437 8.60834 13.6706 8.74108 13.7429 8.84985C13.8152 8.95861 13.9273 9.03476 14.055 9.062C14.555 9.17465 15.0082 9.43836 15.3532 9.81737C15.6983 10.1964 15.9183 10.6723 15.9836 11.1807C16.0489 11.689 15.9563 12.2052 15.7182 12.6591C15.4802 13.113 15.1083 13.4827 14.653 13.718C14.1986 13.9546 13.6824 14.0458 13.1744 13.9793C12.6664 13.9127 12.1912 13.6916 11.813 13.346C11.7559 13.2904 11.6863 13.2492 11.61 13.226C11.5281 13.1657 11.4297 13.1319 11.328 13.129C11.1987 13.125 11.0729 13.1712 10.977 13.258C10.652 13.5425 10.2694 13.7536 9.8554 13.8766C9.44136 13.9997 9.00563 14.0319 8.578 13.971C8.46327 13.9545 8.34639 13.9785 8.24734 14.0387C8.14829 14.0988 8.07323 14.1916 8.035 14.301C7.98847 14.3587 7.95534 14.426 7.938 14.498C7.8193 14.9645 7.53584 15.3724 7.13993 15.6462C6.74403 15.9201 6.26241 16.0415 5.784 15.988C5.38272 15.9456 5.00377 15.7824 4.69725 15.52C4.39073 15.2576 4.17109 14.9083 4.06737 14.5183C3.96365 14.1284 3.98074 13.7161 4.11638 13.3361C4.25201 12.9561 4.49981 12.6262 4.827 12.39C4.88975 12.3628 4.94625 12.3229 4.993 12.273C5.191 12.158 5.411 12.073 5.649 12.031C5.77475 12.0117 5.88841 11.9451 5.96681 11.8449C6.04522 11.7447 6.08248 11.6184 6.07101 11.4917C6.05954 11.365 6.00019 11.2474 5.90506 11.163C5.80993 11.0785 5.68618 11.0334 5.559 11.037C5.53077 11.038 5.50267 11.0413 5.475 11.047C5.315 11.075 5.162 11.122 5.012 11.174C4.97447 10.5729 5.11925 9.9744 5.42739 9.45688C5.73553 8.93936 6.19268 8.52689 6.73906 8.27342C7.28543 8.01995 7.89559 7.93729 8.48971 8.03623C9.08384 8.13518 9.63426 8.41113 10.069 8.828C10.165 8.9195 10.2934 8.96911 10.426 8.96592C10.5586 8.96274 10.6845 8.90701 10.776 8.811C10.8675 8.71499 10.9171 8.58657 10.9139 8.45398C10.9107 8.32139 10.855 8.1955 10.759 8.104C10.1275 7.50169 9.31618 7.12271 8.449 7.025C8.302 7.008 8.15 7.01 8 7.01C8.00003 7.00667 8.00003 7.00333 8 7C7.99949 6.58813 8.0839 6.18058 8.24797 5.8028C8.41204 5.42503 8.65224 5.08513 8.95357 4.80435C9.2549 4.52358 9.61089 4.30795 9.9993 4.17093C10.3877 4.03391 10.8002 3.97844 11.211 4.008Z" fill="currentColor"/>
</svg>
