<svg width="20" height="20" viewBox="0 0 20 20" fill="none" xmlns="http://www.w3.org/2000/svg">
<path d="M8.753 8.003L3.495 8.005C3.3624 8.005 3.23523 8.05768 3.14146 8.15145C3.04769 8.24522 2.995 8.37239 2.995 8.505V16.505C2.995 16.6376 3.04769 16.7648 3.14146 16.8586C3.23523 16.9523 3.3624 17.005 3.495 17.005H11.495C11.6273 17.005 11.7541 16.9526 11.8478 16.8593C11.9416 16.7659 11.9945 16.6393 11.995 16.507L12.003 12.505C12.0033 12.4393 11.9906 12.3743 11.9657 12.3135C11.9408 12.2527 11.9042 12.1975 11.858 12.1509C11.8117 12.1042 11.7567 12.0672 11.6962 12.0418C11.6356 12.0164 11.5707 12.0033 11.505 12.003C11.4394 12.0027 11.3743 12.0154 11.3135 12.0403C11.2528 12.0652 11.1975 12.1018 11.1509 12.148C11.1042 12.1943 11.0672 12.2492 11.0418 12.3098C11.0164 12.3704 11.0033 12.4353 11.003 12.501L10.995 16.005H3.995V9.005L8.753 9.003C8.88561 9.003 9.01278 8.95031 9.10655 8.85655C9.20031 8.76278 9.253 8.63561 9.253 8.503C9.253 8.37039 9.20031 8.24322 9.10655 8.14945C9.01278 8.05569 8.88561 8.003 8.753 8.003Z" fill="currentColor"/>
<path d="M11.495 2.99501C11.4293 2.99605 11.3645 3.01002 11.3043 3.03612C11.244 3.06221 11.1895 3.09992 11.1438 3.14709C11.0981 3.19427 11.0621 3.24998 11.038 3.31105C11.0138 3.37212 11.0019 3.43734 11.003 3.503V8.10101C10.7107 8.20343 10.4571 8.39367 10.277 8.6457C10.097 8.89774 9.99914 9.19925 9.99699 9.509C9.99699 10.331 10.675 11.009 11.497 11.009C11.859 11.009 12.19 10.873 12.45 10.655L16.245 12.933C16.3015 12.9669 16.364 12.9893 16.4292 12.999C16.4943 13.0087 16.5607 13.0055 16.6246 12.9895C16.6885 12.9735 16.7486 12.9451 16.8015 12.9059C16.8544 12.8667 16.8991 12.8175 16.933 12.761C16.9669 12.7045 16.9893 12.6419 16.999 12.5768C17.0087 12.5117 17.0055 12.4453 16.9895 12.3814C16.9735 12.3175 16.9451 12.2574 16.9059 12.2045C16.8667 12.1516 16.8175 12.1069 16.761 12.073L12.968 9.796C13.0064 9.60249 13.0057 9.40325 12.966 9.21L16.761 6.933C16.8175 6.89912 16.8667 6.85445 16.9059 6.80154C16.9451 6.74863 16.9735 6.68852 16.9895 6.62463C17.0055 6.56075 17.0087 6.49433 16.999 6.4292C16.9893 6.36406 16.9669 6.30148 16.933 6.24501C16.8991 6.18854 16.8544 6.1393 16.8015 6.1001C16.7486 6.06089 16.6885 6.03248 16.6246 6.01651C16.5607 6.00054 16.4943 5.99731 16.4292 6.007C16.364 6.01669 16.3015 6.03913 16.245 6.07301L12.441 8.35701C12.3104 8.24871 12.1623 8.16349 12.003 8.10501V3.503C12.0041 3.43599 11.9917 3.36945 11.9665 3.30733C11.9414 3.2452 11.904 3.18878 11.8566 3.14139C11.8092 3.094 11.7528 3.05662 11.6907 3.03148C11.6286 3.00633 11.562 2.99393 11.495 2.99501Z" fill="currentColor"/>
</svg>
