<svg width="20" height="20" viewBox="0 0 20 20" fill="none" xmlns="http://www.w3.org/2000/svg">
<path d="M6.3 16.445C6.3 10.195 10.93 5.063 16.7 5.063C16.7808 5.0597 16.8614 5.07275 16.937 5.10139C17.0126 5.13003 17.0816 5.17369 17.14 5.22968C17.1983 5.28568 17.2447 5.35287 17.2764 5.42725C17.3081 5.50163 17.3245 5.58163 17.3245 5.66248C17.3245 5.74334 17.3081 5.82339 17.2764 5.89777C17.2447 5.97215 17.1983 6.03935 17.14 6.09534C17.0816 6.15134 17.0126 6.19494 16.937 6.22358C16.8614 6.25222 16.7808 6.26527 16.7 6.26197C11.644 6.26197 7.49995 10.785 7.49995 16.446C7.49995 16.6051 7.43681 16.7577 7.32429 16.8702C7.21177 16.9828 7.0591 17.046 6.89997 17.046C6.74084 17.046 6.5883 16.9828 6.47578 16.8702C6.36326 16.7577 6.3 16.6051 6.3 16.446V16.445Z" fill="currentColor"/>
<path d="M13.8 15.055C12.343 15.055 10.903 14.705 9.58003 14.034C9.51863 14.0061 9.46343 13.966 9.41792 13.9162C9.37241 13.8664 9.33746 13.808 9.31514 13.7443C9.29282 13.6807 9.28358 13.6132 9.28804 13.5458C9.29249 13.4785 9.31062 13.4128 9.34114 13.3527C9.37165 13.2925 9.41397 13.2392 9.46565 13.1958C9.51733 13.1525 9.57725 13.12 9.6418 13.1004C9.70634 13.0808 9.7742 13.0745 9.84126 13.0818C9.90832 13.0891 9.97325 13.11 10.0321 13.143C11.1985 13.7402 12.4896 14.0527 13.8 14.055C13.9326 14.055 14.0597 14.1077 14.1535 14.2014C14.2473 14.2952 14.3 14.4224 14.3 14.555C14.3 14.6876 14.2473 14.8148 14.1535 14.9086C14.0597 15.0023 13.9326 15.055 13.8 15.055ZM5.78205 11.043C5.70094 11.04 5.62173 11.0174 5.55134 10.9769C5.48095 10.9365 5.42145 10.8795 5.378 10.811C4.028 8.75298 3.3 6.194 3.3 3.555C3.3 3.42239 3.35272 3.29519 3.44648 3.20142C3.54025 3.10766 3.66739 3.055 3.8 3.055C3.93261 3.055 4.05975 3.10766 4.15351 3.20142C4.24728 3.29519 4.3 3.42239 4.3 3.555C4.3 6.009 4.98294 8.38698 6.21394 10.264C6.2657 10.3404 6.29539 10.4297 6.29951 10.522C6.30364 10.6142 6.28211 10.7058 6.23738 10.7866C6.19264 10.8673 6.12647 10.9341 6.04609 10.9796C5.96572 11.025 5.87433 11.0473 5.78205 11.044V11.043Z" fill="currentColor"/>
</svg>
