<svg width="20" height="20" viewBox="0 0 20 20" fill="none" xmlns="http://www.w3.org/2000/svg">
<path d="M9.007 3.01C8.461 3.01 8.007 3.464 8.007 4.01C8.007 4.556 8.461 5.01 9.007 5.01C9.553 5.01 10.007 4.556 10.007 4.01C10.007 3.464 9.553 3.01 9.007 3.01ZM12.007 3.01C11.461 3.01 11.007 3.464 11.007 4.01C11.007 4.556 11.461 5.01 12.007 5.01C12.553 5.01 13.007 4.556 13.007 4.01C13.007 3.464 12.553 3.01 12.007 3.01ZM15.007 4.01C14.461 4.01 14.007 4.464 14.007 5.01C14.007 5.556 14.461 6.01 15.007 6.01C15.553 6.01 16.007 5.556 16.007 5.01C16.007 4.464 15.553 4.01 15.007 4.01ZM9.33501 6.057C8.62745 6.14529 7.9419 6.36184 7.312 6.696C6.078 7.346 5.085 8.38299 4.362 9.53899C3.64 10.695 3.18201 11.971 3.04001 13.147C2.89801 14.322 3.058 15.43 3.728 16.176C4.41 16.936 5.418 17.156 6.341 16.867C7.359 16.548 8.007 15.56 8.007 14.51C8.007 13.634 8.23701 13.4 8.65001 13.217C9.06301 13.034 9.761 13.01 10.507 13.01C11.3 13.01 12.072 12.86 12.714 12.477C13.237 12.164 13.609 11.639 13.829 11.01H14.962C14.9627 11.01 14.9633 11.01 14.964 11.01C15.992 11.01 16.874 10.253 16.994 9.24001C17.113 8.22801 16.424 7.28699 15.424 7.05999C14.692 6.89499 14.039 7.23299 13.552 7.74999C13.058 7.05799 12.466 6.45099 11.636 6.22899C10.8876 6.02371 10.1066 5.9653 9.336 6.057H9.33501ZM9.455 7.04299C10.0997 6.96791 10.7528 7.01888 11.378 7.19301C12.046 7.37301 12.608 7.95099 13.075 8.75799C13.1225 8.84048 13.1926 8.90772 13.2769 8.95177C13.3613 8.99582 13.4565 9.01487 13.5513 9.00667C13.6462 8.99848 13.7367 8.96341 13.8123 8.90554C13.8879 8.84767 13.9454 8.76943 13.978 8.68001C14.0692 8.44243 14.2436 8.24604 14.4688 8.1274C14.6939 8.00876 14.9545 7.97592 15.202 8.03499C15.729 8.15499 16.061 8.62101 16.002 9.12301C15.942 9.62601 15.505 10.01 14.964 10.01H13.507C13.3894 10.0101 13.2756 10.0517 13.1856 10.1274C13.0956 10.2031 13.0352 10.3082 13.015 10.424C12.912 11.009 12.633 11.362 12.202 11.619C11.772 11.877 11.17 12.01 10.507 12.01C9.762 12.01 8.95901 11.985 8.24501 12.301C7.53101 12.617 7.007 13.383 7.007 14.51C7.007 15.142 6.60101 15.737 6.04201 15.912C5.42001 16.107 4.913 16 4.472 15.508C4.095 15.088 3.913 14.272 4.034 13.268C4.155 12.264 4.56501 11.103 5.21201 10.068C5.85901 9.03401 6.739 8.12801 7.778 7.58001C8.29923 7.30025 8.86726 7.11824 9.45401 7.04299H9.455Z" fill="currentColor"/>
</svg>
