<svg width="20" height="20" viewBox="0 0 20 20" fill="none" xmlns="http://www.w3.org/2000/svg">
<path d="M10.502 2.988C9.682 2.988 9.006 3.664 9.006 4.484C9.006 5.304 9.68 5.98 10.502 5.98C11.322 5.98 11.998 5.305 11.998 4.484C11.998 3.664 11.322 2.988 10.502 2.988ZM16.002 3.98C15.6509 3.98001 15.3061 4.07242 15.002 4.24796C14.698 4.4235 14.4455 4.67597 14.27 4.98C14.079 5.31 14.021 5.663 14.014 5.976V5.988H12.47C12.2397 6.29333 11.9422 6.5416 11.6006 6.71361C11.259 6.88563 10.8824 6.97677 10.5 6.98C10.1179 6.97662 9.74162 6.88539 9.40037 6.71338C9.05913 6.54137 8.76201 6.29318 8.532 5.988H3.498C2.822 5.978 2.822 6.998 3.498 6.988H9.012L8.998 10.275C7.338 11.685 5.757 12.897 5.01 16.383C4.832 17.057 5.87 17.281 5.986 16.593C6.662 13.443 7.91 12.505 9.504 11.166C11.088 12.506 12.335 13.443 13.024 16.596C13.157 17.262 14.159 17.042 14 16.381C13.237 12.886 11.649 11.677 9.998 10.264L10.012 6.988H14.014V6.992C14.021 7.306 14.079 7.658 14.27 7.988C14.4455 8.29203 14.698 8.5445 15.002 8.72004C15.3061 8.89557 15.6509 8.98799 16.002 8.988H16.502C17.178 8.998 17.178 7.978 16.502 7.988H16.002C15.8266 7.98812 15.6542 7.94196 15.5023 7.85417C15.3505 7.76638 15.2244 7.64007 15.137 7.488C15.0557 7.32673 15.0136 7.14859 15.014 6.968V6C15.019 5.803 15.063 5.608 15.137 5.48C15.316 5.17 15.644 4.98 16.002 4.98H16.502C17.178 4.99 17.178 3.97 16.502 3.98H16.002Z" fill="currentColor"/>
</svg>
