<svg width="20" height="20" viewBox="0 0 20 20" fill="none" xmlns="http://www.w3.org/2000/svg">
<path d="M11.452 4.046C10.14 4.046 9.162 4.383 8.102 5.442C7.026 6.52 6.759 8.279 7.37 9.926L4.854 12.442C3.844 13.452 3.835 14.755 4.541 15.462C5.248 16.168 6.551 16.159 7.561 15.149L10.078 12.631C11.724 13.238 13.482 12.978 14.561 11.899C15.62 10.84 15.958 9.861 15.953 8.544C15.9527 8.41199 15.9002 8.28546 15.807 8.192L14.807 7.192C14.7132 7.09826 14.5861 7.0456 14.4535 7.0456C14.3209 7.0456 14.1938 7.09826 14.1 7.192L12.246 9.046H11.661L10.953 8.339V7.753L12.807 5.899C12.9007 5.80523 12.9534 5.67808 12.9534 5.5455C12.9534 5.41292 12.9007 5.28576 12.807 5.192L11.807 4.192C11.7605 4.1456 11.7053 4.10882 11.6445 4.08377C11.5838 4.05872 11.5187 4.04588 11.453 4.046H11.452ZM11.271 5.071L11.745 5.546L10.1 7.192C10.0534 7.23844 10.0165 7.29361 9.99123 7.35435C9.96601 7.4151 9.95301 7.48022 9.953 7.546V8.546C9.95329 8.67849 10.0062 8.80546 10.1 8.899L11.1 9.899C11.1935 9.99283 11.3205 10.0457 11.453 10.046H12.453C12.5188 10.046 12.5839 10.033 12.6446 10.0078C12.7054 9.98254 12.7606 9.94558 12.807 9.899L14.453 8.253L14.928 8.727C14.909 9.76 14.735 10.311 13.854 11.192C13.022 12.024 11.5 12.328 10.102 11.665C10.0089 11.6206 9.90431 11.6061 9.80262 11.6234C9.70093 11.6408 9.6071 11.6892 9.534 11.762L6.854 14.442C6.114 15.182 5.542 15.048 5.248 14.755C4.955 14.461 4.821 13.889 5.561 13.149L8.239 10.471C8.31179 10.3979 8.36018 10.3041 8.37755 10.2024C8.39492 10.1007 8.3804 9.99612 8.336 9.903C7.67 8.504 7.978 6.982 8.811 6.149C9.691 5.269 10.244 5.093 11.271 5.071Z" fill="currentColor"/>
</svg>
