<svg width="20" height="20" viewBox="0 0 20 20" fill="none" xmlns="http://www.w3.org/2000/svg">
<path d="M12.479 3.021L11.51 3.037C11.4909 3.03745 11.4719 3.03878 11.453 3.041C8.871 3.371 6.873 5.641 7.003 8.256C7.031 8.841 7.234 9.354 7.443 9.852L3.658 13.637C3.321 13.944 3.058 14.366 3.018 14.867C2.978 15.368 3.19 15.907 3.643 16.359C4.096 16.813 4.639 17.018 5.135 16.973C5.631 16.928 6.041 16.669 6.35 16.359L10.157 12.553C10.684 12.778 11.226 12.986 11.85 13.003C13.1137 13.0371 14.3434 12.5918 15.2922 11.7565C16.2411 10.9212 16.8387 9.75779 16.965 8.5L16.987 7.533C16.9894 7.43304 16.9618 7.33465 16.9077 7.25055C16.8536 7.16645 16.7756 7.10049 16.6837 7.06119C16.5917 7.0219 16.4901 7.01107 16.3919 7.03011C16.2938 7.04915 16.2036 7.09718 16.133 7.168L13.289 10.006H11.703L9.996 8.299V6.713L12.84 3.875C12.9106 3.80465 12.9585 3.71483 12.9776 3.61706C12.9968 3.51929 12.9863 3.41802 12.9475 3.32626C12.9087 3.23449 12.8434 3.1564 12.7599 3.10201C12.6764 3.04762 12.5786 3.01941 12.479 3.021Z" fill="currentColor"/>
</svg>
