<svg width="20" height="20" viewBox="0 0 20 20" fill="none" xmlns="http://www.w3.org/2000/svg">
<path d="M7.984 2.5C7.52633 2.49947 7.07304 2.58923 6.65011 2.76413C6.22717 2.93903 5.84289 3.19564 5.51926 3.51926C5.19564 3.84289 4.93903 4.22717 4.76413 4.65011C4.58923 5.07304 4.49947 5.52633 4.5 5.984V9C4.5 9.13226 4.5524 9.25914 4.64574 9.35285C4.73907 9.44656 4.86574 9.49947 4.998 9.5L9.008 9.508C9.14061 9.508 9.26778 9.45532 9.36155 9.36155C9.45532 9.26778 9.508 9.14061 9.508 9.008L9.5 3.035V2.998C9.49947 2.86574 9.44656 2.73907 9.35285 2.64574C9.25914 2.5524 9.13226 2.5 9 2.5H7.984ZM10.5 2.5V3.5H12.016C13.4 3.5 14.5 4.6 14.5 5.984V14.016C14.5 15.4 13.4 16.5 12.016 16.5H7.984C7.65724 16.502 7.33333 16.4391 7.03106 16.315C6.72879 16.1908 6.45416 16.0079 6.22311 15.7769C5.99205 15.5458 5.80915 15.2712 5.68503 14.9689C5.5609 14.6667 5.49801 14.3428 5.5 14.016V10.5H4.5V14.016C4.50106 14.9397 4.86846 15.8252 5.52161 16.4784C6.17476 17.1315 7.06031 17.4989 7.984 17.5H12.016C12.9397 17.4989 13.8252 17.1315 14.4784 16.4784C15.1315 15.8252 15.4989 14.9397 15.5 14.016V5.984C15.4989 5.06031 15.1315 4.17476 14.4784 3.52161C13.8252 2.86846 12.9397 2.50106 12.016 2.5H10.5Z" fill="currentColor"/>
</svg>
