<svg width="20" height="20" viewBox="0 0 20 20" fill="none" xmlns="http://www.w3.org/2000/svg">
<path d="M3.496 2.996C3.36339 2.996 3.23622 3.04869 3.14246 3.14246C3.04869 3.23622 2.996 3.36339 2.996 3.496V7.496C2.996 7.62861 3.04869 7.75578 3.14246 7.84955C3.23622 7.94332 3.36339 7.996 3.496 7.996C3.62861 7.996 3.75578 7.94332 3.84955 7.84955C3.94332 7.75578 3.996 7.62861 3.996 7.496V3.996H7.496C7.62861 3.996 7.75578 3.94332 7.84955 3.84955C7.94332 3.75578 7.996 3.62861 7.996 3.496C7.996 3.36339 7.94332 3.23622 7.84955 3.14246C7.75578 3.04869 7.62861 2.996 7.496 2.996H3.496ZM12.504 2.996C12.3714 2.996 12.2442 3.04869 12.1505 3.14246C12.0567 3.23622 12.004 3.36339 12.004 3.496C12.004 3.62861 12.0567 3.75578 12.1505 3.84955C12.2442 3.94332 12.3714 3.996 12.504 3.996H16.004V7.496C16.004 7.62861 16.0567 7.75578 16.1505 7.84955C16.2442 7.94332 16.3714 7.996 16.504 7.996C16.6366 7.996 16.7638 7.94332 16.8575 7.84955C16.9513 7.75578 17.004 7.62861 17.004 7.496V3.496C17.004 3.36339 16.9513 3.23622 16.8575 3.14246C16.7638 3.04869 16.6366 2.996 16.504 2.996H12.504ZM3.48801 11.996C3.42234 11.997 3.35754 12.011 3.29727 12.0371C3.23701 12.0632 3.18247 12.1009 3.13678 12.1481C3.09109 12.1953 3.05513 12.251 3.03098 12.312C3.00682 12.3731 2.99494 12.4383 2.996 12.504V16.504C2.996 16.6366 3.04869 16.7638 3.14246 16.8576C3.23622 16.9513 3.36339 17.004 3.496 17.004H7.496C7.62861 17.004 7.75578 16.9513 7.84955 16.8576C7.94332 16.7638 7.996 16.6366 7.996 16.504C7.996 16.3714 7.94332 16.2442 7.84955 16.1505C7.75578 16.0567 7.62861 16.004 7.496 16.004H3.996V12.504C3.99708 12.437 3.98468 12.3705 3.95953 12.3083C3.93439 12.2462 3.897 12.1898 3.84961 12.1424C3.80222 12.095 3.74581 12.0576 3.68369 12.0325C3.62156 12.0073 3.55502 11.9949 3.48801 11.996ZM16.496 11.996C16.4303 11.997 16.3655 12.011 16.3053 12.0371C16.245 12.0632 16.1905 12.1009 16.1448 12.1481C16.0991 12.1953 16.0631 12.251 16.039 12.312C16.0148 12.3731 16.0029 12.4383 16.004 12.504V16.004H12.504C12.3714 16.004 12.2442 16.0567 12.1505 16.1505C12.0567 16.2442 12.004 16.3714 12.004 16.504C12.004 16.6366 12.0567 16.7638 12.1505 16.8576C12.2442 16.9513 12.3714 17.004 12.504 17.004H16.504C16.6366 17.004 16.7638 16.9513 16.8575 16.8576C16.9513 16.7638 17.004 16.6366 17.004 16.504V12.504C17.0051 12.437 16.9927 12.3705 16.9675 12.3083C16.9424 12.2462 16.905 12.1898 16.8576 12.1424C16.8102 12.095 16.7538 12.0576 16.6917 12.0325C16.6296 12.0073 16.563 11.9949 16.496 11.996Z" fill="currentColor"/>
<path d="M5.496 5.996C5.36339 5.996 5.23622 6.04869 5.14245 6.14246C5.04868 6.23622 4.996 6.36339 4.996 6.496C4.996 6.62861 5.04868 6.75578 5.14245 6.84955C5.23622 6.94332 5.36339 6.996 5.496 6.996H6.496C6.888 6.996 7.24499 7.27001 7.63299 7.86301C8.02099 8.45601 8.37699 9.30901 8.71899 10.18C9.06099 11.05 9.38898 11.936 9.78698 12.646C9.98598 13.002 10.2 13.316 10.473 13.564C10.745 13.813 11.1 13.996 11.496 13.996C12.121 13.996 12.629 13.72 12.943 13.35C13.257 12.98 13.416 12.552 13.559 12.172C13.701 11.792 13.831 11.454 13.973 11.262C14.114 11.069 14.201 10.996 14.496 10.996C14.6286 10.996 14.7558 10.9433 14.8495 10.8495C14.9433 10.7558 14.996 10.6286 14.996 10.496C14.996 10.3634 14.9433 10.2362 14.8495 10.1425C14.7558 10.0487 14.6286 9.996 14.496 9.996C13.916 9.996 13.44 10.298 13.168 10.668C12.896 11.038 12.759 11.451 12.621 11.82C12.483 12.19 12.344 12.513 12.181 12.705C12.019 12.897 11.871 12.996 11.496 12.996C11.392 12.996 11.294 12.961 11.146 12.826C10.999 12.691 10.826 12.459 10.658 12.158C10.321 11.556 9.99401 10.692 9.64801 9.812C9.30301 8.932 8.93998 8.03601 8.46798 7.31601C7.99798 6.59601 7.354 5.996 6.496 5.996H5.496Z" fill="currentColor"/>
</svg>
