<svg width="20" height="20" viewBox="0 0 20 20" fill="none" xmlns="http://www.w3.org/2000/svg">
<path d="M13.676 3C13.5434 3 13.4162 3.05269 13.3224 3.14645C13.2287 3.24022 13.176 3.36739 13.176 3.5C13.176 3.63261 13.2287 3.75979 13.3224 3.85356C13.4162 3.94733 13.5434 4 13.676 4H15.366L11.982 8.27C11.6852 8.09603 11.348 8.00293 11.004 8C10.271 8 9.634 8.406 9.285 9H4.703L5.849 7.853C5.92076 7.78271 5.96967 7.69244 5.98938 7.59395C6.00909 7.49546 5.99868 7.3933 5.95951 7.30081C5.92033 7.20832 5.8542 7.12978 5.76974 7.07541C5.68528 7.02104 5.58641 6.99337 5.486 6.996C5.3562 6.99944 5.23284 7.05323 5.142 7.146L3.142 9.146C3.04827 9.23976 2.99561 9.36691 2.99561 9.4995C2.99561 9.63208 3.04827 9.75923 3.142 9.853L5.142 11.853C5.18813 11.9008 5.24329 11.9389 5.30429 11.9651C5.3653 11.9913 5.43091 12.0051 5.4973 12.0056C5.56368 12.0062 5.62953 11.9936 5.69098 11.9684C5.75242 11.9433 5.80825 11.9062 5.8552 11.8592C5.90214 11.8123 5.93927 11.7564 5.96441 11.695C5.98955 11.6335 6.0022 11.5677 6.00162 11.5013C6.00104 11.4349 5.98725 11.3693 5.96105 11.3083C5.93484 11.2473 5.89676 11.1921 5.849 11.146L4.703 10H9.003C9.003 11.099 9.905 12 11.003 12C12.103 12 13.003 11.099 13.003 10C13.003 9.622 12.89 9.27101 12.705 8.96901L16.004 4.80701V6.328C16.004 6.46061 16.0567 6.58778 16.1504 6.68155C16.2442 6.77532 16.3714 6.828 16.504 6.828C16.6366 6.828 16.7638 6.77532 16.8576 6.68155C16.9513 6.58778 17.004 6.46061 17.004 6.328V3.5C17.004 3.36739 16.9513 3.24022 16.8576 3.14645C16.7638 3.05269 16.6366 3 16.504 3H13.676ZM11.004 9C11.562 9 12.004 9.442 12.004 10C12.004 10.558 11.562 11 11.004 11C10.446 11 10.004 10.558 10.004 10C10.004 9.442 10.446 9 11.004 9Z" fill="currentColor"/>
<path d="M12.248 10.738C12.1525 10.7362 12.0585 10.7618 11.9771 10.8117C11.8957 10.8617 11.8303 10.9339 11.7887 11.0198C11.747 11.1058 11.7308 11.2018 11.7421 11.2967C11.7533 11.3915 11.7914 11.4811 11.852 11.555L15.364 16H13.674C13.5414 16 13.4142 16.0527 13.3204 16.1465C13.2267 16.2402 13.174 16.3674 13.174 16.5C13.174 16.6326 13.2267 16.7598 13.3204 16.8535C13.4142 16.9473 13.5414 17 13.674 17H16.503C16.6356 17 16.7628 16.9473 16.8566 16.8535C16.9503 16.7598 17.003 16.6326 17.003 16.5V13.672C17.003 13.5394 16.9503 13.4122 16.8566 13.3184C16.7628 13.2247 16.6356 13.172 16.503 13.172C16.3704 13.172 16.2432 13.2247 16.1494 13.3184C16.0557 13.4122 16.003 13.5394 16.003 13.672V15.193L12.636 10.933C12.59 10.8733 12.5312 10.8247 12.4638 10.791C12.3965 10.7572 12.3223 10.7391 12.247 10.738H12.248Z" fill="currentColor"/>
</svg>
