<svg width="20" height="20" viewBox="0 0 20 20" fill="none" xmlns="http://www.w3.org/2000/svg">
<path d="M13.49 5.99599C13.4733 5.99648 13.4566 5.99782 13.44 5.99999H10.5C10.3674 5.99999 10.2402 6.05267 10.1464 6.14644C10.0527 6.24021 10 6.36738 10 6.49999C10 6.63259 10.0527 6.75976 10.1464 6.85353C10.2402 6.9473 10.3674 6.99999 10.5 6.99999H12.293L7.146 12.146C7.09952 12.1925 7.06263 12.2477 7.03748 12.3084C7.01232 12.3691 6.99937 12.4342 6.99937 12.5C6.99937 12.5657 7.01232 12.6308 7.03748 12.6916C7.06263 12.7523 7.09952 12.8075 7.146 12.854C7.19249 12.9005 7.24768 12.9374 7.30842 12.9625C7.36916 12.9877 7.43426 13.0006 7.5 13.0006C7.56574 13.0006 7.63084 12.9877 7.69158 12.9625C7.75232 12.9374 7.80751 12.9005 7.854 12.854L13 7.70699V9.49999C13 9.63259 13.0527 9.75976 13.1464 9.85353C13.2402 9.9473 13.3674 9.99999 13.5 9.99999C13.6326 9.99999 13.7598 9.9473 13.8536 9.85353C13.9473 9.75976 14 9.63259 14 9.49999V6.55998C14.0093 6.48831 14.0029 6.41546 13.9813 6.34648C13.9598 6.27751 13.9235 6.21406 13.875 6.16045C13.8265 6.10684 13.767 6.06436 13.7005 6.03597C13.6341 6.00758 13.5622 5.99394 13.49 5.99599Z" fill="currentColor"/>
<path d="M5.492 2.992C5.41666 2.99309 5.34253 3.01119 5.27517 3.04496C5.20781 3.07873 5.14896 3.12728 5.103 3.18699C5.10165 3.18898 5.10032 3.19099 5.099 3.193L3.146 5.14599C3.09951 5.19241 3.06262 5.24754 3.03744 5.30822C3.01226 5.3689 2.99927 5.43394 2.99922 5.49964C2.99918 5.56534 3.01207 5.63041 3.03717 5.69112C3.06226 5.75184 3.09908 5.80701 3.1455 5.85349C3.19192 5.89998 3.24705 5.93688 3.30773 5.96206C3.36841 5.98724 3.43345 6.00022 3.49915 6.00027C3.56485 6.00031 3.62991 5.98743 3.69062 5.96233C3.75134 5.93724 3.80651 5.90042 3.853 5.854L5 4.70699V12.281C4.406 12.629 4 13.267 4 14C4 15.099 4.901 16 6 16C6.733 16 7.37 15.594 7.718 15H15.293L14.146 16.146C14.0521 16.2397 13.9993 16.367 13.9992 16.4996C13.9991 16.6323 14.0517 16.7596 14.1455 16.8535C14.2393 16.9474 14.3665 17.0002 14.4991 17.0003C14.6318 17.0004 14.7591 16.9478 14.853 16.854L16.81 14.896C16.8707 14.8494 16.9199 14.7896 16.9539 14.721C16.9878 14.6524 17.0055 14.577 17.0057 14.5005C17.0059 14.424 16.9886 14.3485 16.955 14.2797C16.9214 14.211 16.8725 14.1509 16.812 14.104C16.81 14.1026 16.808 14.1013 16.806 14.1L14.853 12.146C14.8063 12.0978 14.7503 12.0595 14.6885 12.0334C14.6266 12.0072 14.5601 11.9939 14.493 11.994C14.3933 11.994 14.2959 12.0238 14.2133 12.0795C14.1307 12.1353 14.0666 12.2145 14.0293 12.3069C13.992 12.3993 13.9832 12.5008 14.004 12.5983C14.0248 12.6958 14.0742 12.7848 14.146 12.854L15.293 14H8C8 12.901 7.098 12 6 12V4.70699L7.146 5.85299C7.19212 5.90074 7.2473 5.93885 7.3083 5.96505C7.3693 5.99126 7.43491 6.00505 7.5013 6.00562C7.56769 6.0062 7.63353 5.99355 7.69498 5.96841C7.75643 5.94327 7.81225 5.90615 7.85919 5.8592C7.90614 5.81225 7.94327 5.75642 7.96841 5.69497C7.99355 5.63352 8.0062 5.56768 8.00563 5.50129C8.00505 5.4349 7.99126 5.3693 7.96505 5.3083C7.93885 5.24729 7.90075 5.19211 7.853 5.14599L5.896 3.189C5.84871 3.12691 5.78754 3.07674 5.71739 3.04253C5.64723 3.00833 5.57004 2.99102 5.492 2.992ZM6 13C6.558 13 7 13.442 7 14C7 14.558 6.558 15 6 15C5.442 15 5 14.558 5 14C5 13.442 5.442 13 6 13Z" fill="currentColor"/>
</svg>
