<svg width="20" height="20" viewBox="0 0 20 20" fill="none" xmlns="http://www.w3.org/2000/svg">
<path d="M5.648 3.00099C5.35573 3.01006 5.07848 3.13237 4.875 3.34199L3.343 4.86999C3.23854 4.97434 3.1557 5.0982 3.0992 5.23451C3.0427 5.37081 3.01365 5.51689 3.0137 5.66441C3.01375 5.81192 3.04292 5.95798 3.09952 6.09424C3.15612 6.23051 3.23905 6.35431 3.34359 6.45858C3.44812 6.56285 3.5722 6.64554 3.70875 6.70194C3.8453 6.75835 3.99164 6.78735 4.13941 6.78729C4.28719 6.78724 4.43351 6.75813 4.57002 6.70163C4.70652 6.64513 4.83054 6.56234 4.935 6.45799L6.465 4.93099C6.62878 4.77344 6.74087 4.57002 6.78649 4.34758C6.8321 4.12514 6.8091 3.89412 6.72051 3.685C6.63192 3.47587 6.48191 3.29847 6.29026 3.17618C6.09861 3.05389 5.87433 2.99246 5.647 2.99999L5.648 3.00099ZM10.746 3.00099C10.4535 3.00954 10.1759 3.1315 9.972 3.34099L3.343 9.95799C3.23841 10.0623 3.15544 10.1862 3.09882 10.3226C3.04219 10.4589 3.01303 10.6051 3.01299 10.7527C3.01295 10.9003 3.04204 11.0465 3.09859 11.1829C3.15514 11.3192 3.23805 11.4432 3.34259 11.5476C3.44712 11.652 3.57123 11.7348 3.70783 11.7913C3.84442 11.8479 3.99084 11.877 4.13871 11.877C4.28658 11.877 4.43301 11.848 4.56963 11.7916C4.70626 11.7351 4.83041 11.6523 4.935 11.548L7.064 9.42199C7.18434 8.84496 7.47069 8.31568 7.88784 7.89924C8.305 7.4828 8.83477 7.19735 9.412 7.07799L11.564 4.92799C11.7267 4.77024 11.8378 4.56709 11.8828 4.34519C11.9278 4.12329 11.9045 3.893 11.8161 3.68452C11.7276 3.47605 11.5781 3.29913 11.3871 3.17697C11.1962 3.05482 10.9727 2.99313 10.746 2.99999V3.00099ZM15.846 3.00099C15.5535 3.00954 15.2759 3.1315 15.072 3.34099L11.156 7.25099C11.87 7.55099 12.446 8.12099 12.756 8.82999L16.662 4.92999C16.8253 4.77243 16.9371 4.5692 16.9825 4.34704C17.0279 4.12487 17.0049 3.89419 16.9165 3.68533C16.8281 3.47647 16.6784 3.29921 16.4872 3.17689C16.2959 3.05456 16.072 2.99289 15.845 2.99999L15.846 3.00099ZM15.846 8.09299C15.5537 8.10127 15.2761 8.22286 15.072 8.43199L12.949 10.552C12.8355 11.1473 12.5454 11.6946 12.1165 12.1227C11.6875 12.5508 11.1395 12.8398 10.544 12.952L8.443 15.05C8.33854 15.1543 8.2557 15.2782 8.1992 15.4145C8.1427 15.5508 8.11365 15.6969 8.1137 15.8444C8.11375 15.9919 8.14292 16.138 8.19952 16.2742C8.25612 16.4105 8.33905 16.5343 8.44359 16.6386C8.54812 16.7428 8.6722 16.8255 8.80875 16.8819C8.9453 16.9383 9.09164 16.9673 9.23941 16.9673C9.38719 16.9672 9.53351 16.9381 9.67002 16.8816C9.80652 16.8251 9.93054 16.7423 10.035 16.638L16.662 10.021C16.8246 9.8633 16.9357 9.66025 16.9807 9.43844C17.0257 9.21664 17.0025 8.98644 16.9142 8.77801C16.8259 8.56958 16.6765 8.39265 16.4857 8.27042C16.295 8.14818 16.0716 8.08634 15.845 8.09299H15.846ZM10.003 9.01299C9.443 9.01299 9.012 9.44299 9.005 9.99999C9.015 10.552 9.449 10.988 10.003 10.988C10.1335 10.989 10.2629 10.9643 10.3839 10.9151C10.5048 10.866 10.6148 10.7934 10.7075 10.7016C10.8003 10.6098 10.8739 10.5005 10.9243 10.3801C10.9747 10.2597 11.0007 10.1305 11.001 9.99999C11.0013 9.86937 10.9756 9.74 10.9254 9.61941C10.8752 9.49881 10.8015 9.38941 10.7086 9.29756C10.6158 9.20571 10.5055 9.13325 10.3844 9.08439C10.2633 9.03554 10.1336 9.01127 10.003 9.01299ZM7.238 11.162L3.343 15.05C3.23854 15.1543 3.1557 15.2782 3.0992 15.4145C3.0427 15.5508 3.01365 15.6969 3.0137 15.8444C3.01375 15.9919 3.04292 16.138 3.09952 16.2742C3.15612 16.4105 3.23905 16.5343 3.34359 16.6386C3.44812 16.7428 3.5722 16.8255 3.70875 16.8819C3.8453 16.9383 3.99164 16.9673 4.13941 16.9673C4.28719 16.9672 4.43351 16.9381 4.57002 16.8816C4.70652 16.8251 4.83054 16.7423 4.935 16.638L8.82 12.759C8.10805 12.4483 7.54201 11.8768 7.238 11.162ZM15.845 13.182C15.5526 13.1913 15.2753 13.314 15.072 13.524L13.542 15.05C13.4329 15.1532 13.3456 15.2771 13.2852 15.4145C13.2249 15.5519 13.1928 15.6999 13.1907 15.85C13.1886 16 13.2167 16.1489 13.2732 16.2878C13.3298 16.4268 13.4136 16.5531 13.5199 16.6592C13.6261 16.7653 13.7526 16.8491 13.8918 16.9056C14.031 16.9621 14.1802 16.9902 14.3304 16.9883C14.4807 16.9863 14.6291 16.9543 14.7667 16.8941C14.9044 16.8339 15.0286 16.7469 15.132 16.638L16.662 15.111C16.825 14.9534 16.9364 14.7502 16.9816 14.5282C17.0268 14.3063 17.0037 14.0758 16.9154 13.8672C16.827 13.6585 16.6775 13.4814 16.4865 13.3592C16.2954 13.2369 16.0718 13.1751 15.845 13.182Z" fill="currentColor"/>
</svg>
