<svg width="20" height="20" viewBox="0 0 20 20" fill="none" xmlns="http://www.w3.org/2000/svg">
<path d="M8.506 3C8.10817 3 7.72664 3.15804 7.44534 3.43934C7.16403 3.72064 7.006 4.10218 7.006 4.5C7.006 4.89782 7.16403 5.27936 7.44534 5.56066C7.72664 5.84196 8.10817 6 8.506 6H10.006C11.256 6.006 12.339 6.377 13.02 6.941C13.702 7.507 14.079 8.204 14.008 9.412C13.918 10.948 13.036 11.955 11.51 12.766C9.984 13.576 7.877 13.996 6.063 14H4.506C4.10817 14 3.72664 14.158 3.44534 14.4393C3.16403 14.7206 3.006 15.1022 3.006 15.5C3.006 15.8978 3.16403 16.2794 3.44534 16.5607C3.72664 16.842 4.10817 17 4.506 17H6.07C8.311 16.994 10.799 16.539 12.916 15.414C15.034 14.289 16.844 12.302 17.004 9.588C17.124 7.546 16.284 5.749 14.936 4.631C13.586 3.512 11.826 3.008 10.012 3H10.01H8.506Z" fill="currentColor"/>
</svg>
