<svg width="20" height="20" viewBox="0 0 20 20" fill="none" xmlns="http://www.w3.org/2000/svg">
<path d="M4 8.5V16C4 16.1326 4.05272 16.2598 4.14648 16.3536C4.24025 16.4473 4.36739 16.5 4.5 16.5H15.5C15.6326 16.5 15.7597 16.4473 15.8535 16.3536C15.9473 16.2598 16 16.1326 16 16V8.5H4ZM9 9.5H11C11.2652 9.5 11.5196 9.60537 11.7072 9.79291C11.8947 9.98044 12 10.2348 12 10.5C12 10.7652 11.8947 11.0196 11.7072 11.2071C11.5196 11.3946 11.2652 11.5 11 11.5H9C8.73478 11.5 8.48038 11.3946 8.29285 11.2071C8.10531 11.0196 8 10.7652 8 10.5C8 10.2348 8.10531 9.98044 8.29285 9.79291C8.48038 9.60537 8.73478 9.5 9 9.5ZM3.5 3.5C3.36739 3.5 3.24025 3.55266 3.14648 3.64642C3.05272 3.74019 3 3.86739 3 4V7C3 7.13261 3.05272 7.25981 3.14648 7.35358C3.24025 7.44734 3.36739 7.5 3.5 7.5H16.5C16.6326 7.5 16.7597 7.44734 16.8535 7.35358C16.9473 7.25981 17 7.13261 17 7V4C17 3.86739 16.9473 3.74019 16.8535 3.64642C16.7597 3.55266 16.6326 3.5 16.5 3.5H3.5Z" fill="currentColor"/>
</svg>
