<svg width="20" height="20" viewBox="0 0 20 20" fill="none" xmlns="http://www.w3.org/2000/svg">
<path d="M8.477 2.97799C8.07933 2.98405 7.70035 3.14778 7.42338 3.43319C7.14641 3.7186 6.99412 4.10233 7 4.49999V10.879L3.44 14.439C3.29431 14.5767 3.17771 14.7423 3.09709 14.9259C3.01648 15.1094 2.97348 15.3073 2.97065 15.5078C2.96781 15.7082 3.0052 15.9072 3.08059 16.093C3.15598 16.2788 3.26785 16.4476 3.40959 16.5894C3.55132 16.7312 3.72005 16.8431 3.90579 16.9186C4.09154 16.9941 4.29053 17.0316 4.491 17.0288C4.69148 17.0261 4.88937 16.9832 5.07298 16.9027C5.25659 16.8221 5.42219 16.7056 5.56 16.56L9.122 13H15.502C15.8998 13 16.2814 12.842 16.5627 12.5607C16.844 12.2793 17.002 11.8978 17.002 11.5C17.002 11.1022 16.844 10.7206 16.5627 10.4393C16.2814 10.158 15.8998 9.99999 15.502 9.99999H10V4.49999C10.003 4.29913 9.96557 4.09972 9.89 3.91359C9.81444 3.72745 9.70226 3.5584 9.56012 3.41644C9.41798 3.27449 9.24878 3.16253 9.06255 3.08722C8.87632 3.0119 8.67686 2.97476 8.476 2.97799H8.477Z" fill="currentColor"/>
</svg>
