<svg width="20" height="20" viewBox="0 0 20 20" fill="none" xmlns="http://www.w3.org/2000/svg">
<path d="M4.5 3C4.2444 3.00001 3.99304 3.06533 3.76977 3.18977C3.54651 3.31422 3.35875 3.49364 3.22431 3.71103C3.08986 3.92842 3.0132 4.17656 3.0016 4.4319C2.99 4.68724 3.04383 4.94131 3.158 5.17L8.658 16.17C8.78251 16.4193 8.97402 16.6291 9.21106 16.7757C9.44811 16.9223 9.7213 16.9999 10 16.9999C10.2787 16.9999 10.5519 16.9223 10.7889 16.7757C11.026 16.6291 11.2175 16.4193 11.342 16.17L16.842 5.17C16.9562 4.94131 17.01 4.68724 16.9984 4.4319C16.9868 4.17656 16.9101 3.92842 16.7757 3.71103C16.6413 3.49364 16.4535 3.31422 16.2302 3.18977C16.007 3.06533 15.7556 3.00001 15.5 3H4.5ZM6.926 6H13.074L10 12.147L6.926 6Z" fill="currentColor"/>
</svg>
