<svg width="20" height="20" viewBox="0 0 20 20" fill="none" xmlns="http://www.w3.org/2000/svg">
<path d="M6.507 2.993C6.43986 2.99287 6.37338 3.00626 6.31153 3.03237C6.24968 3.05849 6.19373 3.09679 6.147 3.145L3.147 6.145C3.10058 6.19149 3.06376 6.24666 3.03867 6.30738C3.01357 6.36809 3.00067 6.43315 3.00072 6.49885C3.00077 6.56455 3.01375 6.62959 3.03894 6.69027C3.06412 6.75095 3.10101 6.80607 3.1475 6.8525C3.19399 6.89892 3.24916 6.93573 3.30988 6.96083C3.37059 6.98593 3.43565 6.99882 3.50135 6.99878C3.56705 6.99873 3.63209 6.98574 3.69277 6.96056C3.75345 6.93537 3.80858 6.89849 3.855 6.852L6.855 3.852C6.92647 3.78271 6.97564 3.69366 6.9962 3.59625C7.01676 3.49885 7.00777 3.39752 6.97039 3.30526C6.93301 3.21299 6.86894 3.13398 6.78639 3.07835C6.70383 3.02272 6.60655 2.993 6.507 2.993ZM11.507 2.993C11.4399 2.99287 11.3734 3.00626 11.3115 3.03237C11.2497 3.05849 11.1937 3.09679 11.147 3.145L3.147 11.145C3.05324 11.2389 3.00063 11.3662 3.00072 11.4989C3.00081 11.6315 3.05361 11.7587 3.1475 11.8525C3.24138 11.9463 3.36867 11.9989 3.50135 11.9988C3.63403 11.9987 3.76124 11.9459 3.855 11.852L11.855 3.852C11.9265 3.78271 11.9756 3.69366 11.9962 3.59625C12.0168 3.49885 12.0078 3.39752 11.9704 3.30526C11.933 3.21299 11.8689 3.13398 11.7864 3.07835C11.7038 3.02272 11.6065 2.993 11.507 2.993ZM16.507 2.993C16.4399 2.99287 16.3734 3.00626 16.3115 3.03237C16.2497 3.05849 16.1937 3.09679 16.147 3.145L11.732 7.561C12.004 7.757 12.243 7.996 12.439 8.268L16.855 3.852C16.9265 3.78271 16.9756 3.69366 16.9962 3.59625C17.0168 3.49885 17.0078 3.39752 16.9704 3.30526C16.933 3.21299 16.8689 3.13398 16.7864 3.07835C16.7038 3.02272 16.6065 2.993 16.507 2.993ZM16.507 7.993C16.4399 7.99287 16.3734 8.00626 16.3115 8.03237C16.2497 8.05849 16.1937 8.09679 16.147 8.145L8.147 16.145C8.05324 16.2389 8.00063 16.3662 8.00072 16.4989C8.00081 16.6315 8.05361 16.7587 8.1475 16.8525C8.24138 16.9463 8.36867 16.9989 8.50135 16.9988C8.63403 16.9987 8.76124 16.9459 8.855 16.852L16.855 8.852C16.9265 8.78271 16.9756 8.69366 16.9962 8.59625C17.0168 8.49885 17.0078 8.39752 16.9704 8.30526C16.933 8.21299 16.8689 8.13398 16.7864 8.07835C16.7038 8.02272 16.6065 7.993 16.507 7.993ZM10.001 9C9.73578 9 9.48143 9.10535 9.29389 9.29289C9.10635 9.48043 9.001 9.73478 9.001 10C9.001 10.2652 9.10635 10.5196 9.29389 10.7071C9.48143 10.8946 9.73578 11 10.001 11C10.2662 11 10.5206 10.8946 10.7081 10.7071C10.8956 10.5196 11.001 10.2652 11.001 10C11.001 9.73478 10.8956 9.48043 10.7081 9.29289C10.5206 9.10535 10.2662 9 10.001 9ZM7.564 11.73L3.148 16.146C3.10024 16.1921 3.06215 16.2473 3.03595 16.3083C3.00974 16.3693 2.99595 16.4349 2.99537 16.5013C2.9948 16.5677 3.00745 16.6335 3.03259 16.695C3.05773 16.7564 3.09485 16.8122 3.1418 16.8592C3.18875 16.9061 3.24457 16.9433 3.30602 16.9684C3.36747 16.9935 3.43331 17.0062 3.4997 17.0056C3.56609 17.005 3.6317 16.9913 3.6927 16.965C3.7537 16.9388 3.80887 16.9008 3.855 16.853L8.271 12.437C7.99808 12.2418 7.75921 12.0029 7.564 11.73ZM16.507 12.994C16.4399 12.9939 16.3734 13.0073 16.3115 13.0334C16.2497 13.0595 16.1937 13.0978 16.147 13.146L13.147 16.146C13.1006 16.1925 13.0638 16.2477 13.0387 16.3084C13.0136 16.3691 13.0007 16.4342 13.0007 16.4999C13.0008 16.5655 13.0138 16.6306 13.0389 16.6913C13.0641 16.752 13.101 16.8071 13.1475 16.8535C13.194 16.8999 13.2492 16.9367 13.3099 16.9618C13.3706 16.9869 13.4357 16.9998 13.5014 16.9998C13.567 16.9997 13.6321 16.9867 13.6928 16.9616C13.7535 16.9364 13.8086 16.8995 13.855 16.853L16.855 13.853C16.9265 13.7837 16.9756 13.6947 16.9962 13.5973C17.0168 13.4998 17.0078 13.3985 16.9704 13.3063C16.933 13.214 16.8689 13.135 16.7864 13.0794C16.7038 13.0237 16.6065 12.994 16.507 12.994Z" fill="currentColor"/>
</svg>
