<svg width="20" height="20" viewBox="0 0 20 20" fill="none" xmlns="http://www.w3.org/2000/svg">
<path d="M8.765 2.995C7.205 2.995 5.927 3.68 4.765 4.317C4.68639 4.36001 4.62078 4.42335 4.57504 4.50041C4.52931 4.57746 4.50511 4.66539 4.505 4.755V6.505C4.503 7.085 5.325 7.203 5.485 6.645C6.033 4.783 7.747 3.946 9.356 4.081C9.412 4.084 9.444 4.097 9.499 4.101C11.093 4.29599 12.505 5.387 12.505 7.755V9.005H8.33C6.611 9.005 5.38 9.491 4.592 10.267C3.804 11.042 3.494 12.07 3.494 13.042C3.494 14.417 4.128 15.476 5.074 16.112C6.02 16.749 7.241 17.005 8.504 17.005C10.117 17.005 11.93 16.363 12.959 15.437C13.391 15.866 13.761 16.225 14.072 16.476C14.46 16.788 14.823 17.005 15.254 17.005H16.004C16.319 17.005 16.504 16.755 16.504 16.505C16.504 16.255 16.34 16.005 16.004 16.005C15.8766 15.9907 15.7583 15.932 15.67 15.839C15.577 15.7507 15.5182 15.6324 15.504 15.505V8.505C15.504 7.463 15.42 6.005 14.42 4.929C13.05 3.453 11.504 2.995 8.764 2.995H8.765ZM10.005 10.005H12.505V14.495C11.65 15.115 10.901 15.452 10.225 15.644C10.069 15.691 9.917 15.704 9.759 15.741C9.123 15.845 8.538 15.846 8.101 15.667C7.091 15.253 6.505 14.213 6.505 13.005C6.505 12.366 6.721 11.609 7.249 11.028C7.777 10.448 8.616 10.005 10.005 10.005Z" fill="currentColor"/>
</svg>
