<svg width="20" height="20" viewBox="0 0 20 20" fill="none" xmlns="http://www.w3.org/2000/svg">
<path d="M8 5.5C7.99789 4.83761 7.73383 4.20294 7.26544 3.73456C6.79706 3.26617 6.16239 3.00211 5.5 3C4.125 3 3 4.125 3 5.5C3 6.875 4.125 8 5.5 8C6.875 8 8 6.875 8 5.5Z" fill="currentColor"/>
<path d="M5.5 17C4.677 17 4 16.323 4 15.5C4 14.853 4.421 14.302 5 14.094V9.5C4.99 8.824 6.01 8.824 6 9.5V14.094C6.579 14.302 7 14.854 7 15.5C7 16.323 6.323 17 5.5 17ZM15 17C13.901 17 13 16.099 13 15C13 14.631 13.109 14.29 13.285 13.992L8.146 8.854C7.656 8.382 8.382 7.656 8.854 8.146L13.992 13.286C14.29 13.109 14.632 13 15 13C16.099 13 17 13.901 17 15C17 16.099 16.099 17 15 17ZM15.5 7C14.853 7 14.302 6.579 14.094 6H9.5C8.824 6.01 8.824 4.99 9.5 5H14.094C14.302 4.421 14.854 4 15.5 4C16.323 4 17 4.677 17 5.5C17 6.323 16.323 7 15.5 7Z" fill="currentColor"/>
</svg>
