<svg width="20" height="20" viewBox="0 0 20 20" fill="none" xmlns="http://www.w3.org/2000/svg">
<path d="M16.504 5.99597C16.3912 5.99663 16.282 6.03544 16.194 6.10602C15.98 6.27102 15.774 6.43899 15.578 6.60699C11.544 10.066 11.06 13.117 11 16.49C10.9987 16.5557 11.0103 16.621 11.0342 16.6821C11.0582 16.7433 11.0939 16.7991 11.1394 16.8465C11.1849 16.8939 11.2393 16.9318 11.2994 16.9581C11.3596 16.9845 11.4243 16.9987 11.49 17C11.5557 17.0013 11.6209 16.9897 11.6821 16.9658C11.7433 16.9418 11.7991 16.9061 11.8465 16.8606C11.8939 16.8151 11.9318 16.7607 11.9581 16.7006C11.9844 16.6404 11.9987 16.5757 12 16.51C12.059 13.206 12.376 10.67 16.229 7.367C16.413 7.209 16.606 7.05098 16.807 6.89398C16.8903 6.83061 16.9517 6.74272 16.9824 6.64264C17.0131 6.54255 17.0116 6.43531 16.9781 6.33612C16.9447 6.23693 16.8809 6.15075 16.7958 6.08972C16.7108 6.0287 16.6087 5.9959 16.504 5.99597Z" fill="currentColor"/>
<path d="M5.5 8C5.36739 8 5.24022 8.05266 5.14645 8.14642C5.05269 8.24019 5 8.36739 5 8.5V11.5C5 11.6326 5.05269 11.7598 5.14645 11.8536C5.24022 11.9473 5.36739 12 5.5 12H8.5C8.63261 12 8.75978 11.9473 8.85355 11.8536C8.94731 11.7598 9 11.6326 9 11.5V8.5C9 8.36739 8.94731 8.24019 8.85355 8.14642C8.75978 8.05266 8.63261 8 8.5 8H5.5ZM3.5 13C3.36739 13 3.24022 13.0527 3.14645 13.1464C3.05269 13.2402 3 13.3674 3 13.5V16.5C3 16.6326 3.05269 16.7598 3.14645 16.8536C3.24022 16.9473 3.36739 17 3.5 17H6.5C6.63261 17 6.75978 16.9473 6.85355 16.8536C6.94731 16.7598 7 16.6326 7 16.5V13.5C7 13.3674 6.94731 13.2402 6.85355 13.1464C6.75978 13.0527 6.63261 13 6.5 13H3.5ZM8.5 3C8.36739 3 8.24022 3.05266 8.14645 3.14642C8.05269 3.24019 8 3.36739 8 3.5V6.5C8 6.63261 8.05269 6.75981 8.14645 6.85358C8.24022 6.94734 8.36739 7 8.5 7H11.5C11.6326 7 11.7598 6.94734 11.8535 6.85358C11.9473 6.75981 12 6.63261 12 6.5V3.5C12 3.36739 11.9473 3.24019 11.8535 3.14642C11.7598 3.05266 11.6326 3 11.5 3H8.5Z" fill="currentColor"/>
</svg>
