<svg width="20" height="20" viewBox="0 0 20 20" fill="none" xmlns="http://www.w3.org/2000/svg">
<path d="M3.497 4.998C3.36439 4.998 3.23722 5.05069 3.14346 5.14445C3.04969 5.23822 2.997 5.36539 2.997 5.498V14.498C2.997 14.6306 3.04969 14.7578 3.14346 14.8515C3.23722 14.9453 3.36439 14.998 3.497 14.998H12.497C12.604 14.998 12.697 14.958 12.778 14.9L9.436 11.559C9.29666 11.4197 9.18615 11.2543 9.11074 11.0722C9.03533 10.8902 8.99651 10.695 8.99651 10.498C8.99651 10.301 9.03533 10.1058 9.11074 9.9238C9.18615 9.74175 9.29666 9.57633 9.436 9.437C9.57533 9.29766 9.74075 9.18715 9.9228 9.11174C10.1048 9.03633 10.3 8.99751 10.497 8.99751C10.694 8.99751 10.8892 9.03633 11.0712 9.11174C11.2533 9.18715 11.4187 9.29766 11.558 9.437L12.997 10.877V5.498C12.997 5.36539 12.9443 5.23822 12.8505 5.14445C12.7568 5.05069 12.6296 4.998 12.497 4.998H11.013L10.997 5.498V5.998H4.997V5.498L5.01301 4.998H3.497ZM8.497 2.998C8.62961 2.998 8.75678 3.05069 8.85055 3.14445C8.94432 3.23822 8.997 3.36539 8.997 3.498V3.998H10.497C10.564 3.99586 10.6307 4.00721 10.6933 4.03137C10.7558 4.05554 10.8128 4.09203 10.8609 4.13867C10.9091 4.18532 10.9474 4.24116 10.9735 4.30289C10.9996 4.36462 11.013 4.43097 11.013 4.498V4.998H5.01301V4.498C5.01301 4.245 5.162 4.003 5.497 3.998H6.997V3.498C6.997 3.36539 7.04969 3.23822 7.14346 3.14445C7.23722 3.05069 7.36439 2.998 7.497 2.998H8.497Z" fill="currentColor"/>
<path d="M16.489 17.002C16.4723 17.0015 16.4556 17.0002 16.439 16.998H12.499C12.3664 16.998 12.2392 16.9453 12.1455 16.8515C12.0517 16.7578 11.999 16.6306 11.999 16.498C11.999 16.3654 12.0517 16.2382 12.1455 16.1445C12.2392 16.0507 12.3664 15.998 12.499 15.998H15.292L10.145 10.851C10.0973 10.8049 10.0592 10.7497 10.0329 10.6887C10.0067 10.6277 9.99295 10.5621 9.99237 10.4957C9.9918 10.4293 10.0044 10.3635 10.0296 10.302C10.0547 10.2406 10.0919 10.1847 10.1388 10.1378C10.1858 10.0909 10.2416 10.0537 10.303 10.0286C10.3645 10.0035 10.4303 9.9908 10.4967 9.99138C10.5631 9.99196 10.6287 10.0057 10.6897 10.032C10.7507 10.0582 10.8059 10.0962 10.852 10.144L15.999 15.291V12.498C15.999 12.3654 16.0517 12.2382 16.1455 12.1445C16.2392 12.0507 16.3664 11.998 16.499 11.998C16.6316 11.998 16.7588 12.0507 16.8526 12.1445C16.9463 12.2382 16.999 12.3654 16.999 12.498V16.441C17.0077 16.5124 17.0008 16.5848 16.979 16.6532C16.9571 16.7217 16.9207 16.7847 16.8723 16.8378C16.8239 16.891 16.7646 16.9331 16.6985 16.9612C16.6323 16.9894 16.5609 17.003 16.489 17.001V17.002Z" fill="currentColor"/>
</svg>
