<svg width="20" height="20" viewBox="0 0 20 20" fill="none" xmlns="http://www.w3.org/2000/svg">
<path d="M12.504 2.99602C12.3714 2.99602 12.2442 3.04867 12.1504 3.14244C12.0567 3.23621 12.004 3.36341 12.004 3.49602V4.28899L15.711 7.99602H16.504C16.6366 7.99602 16.7638 7.9433 16.8576 7.84953C16.9513 7.75576 17.004 7.62863 17.004 7.49602V6.49602C17.0037 6.36352 16.9508 6.23653 16.857 6.14299L13.857 3.14299C13.7635 3.04915 13.6365 2.99631 13.504 2.99602H12.504ZM11.297 4.99602L9.29701 6.99602H6.50401C6.43824 6.99603 6.37311 7.009 6.31236 7.03423C6.25162 7.05945 6.19645 7.09641 6.15001 7.14299L5.15001 8.14299C5.05627 8.23675 5.00362 8.36392 5.00362 8.49651C5.00362 8.62909 5.05627 8.75626 5.15001 8.85002L11.15 14.85C11.2438 14.9438 11.3709 14.9964 11.5035 14.9964C11.6361 14.9964 11.7632 14.9438 11.857 14.85L12.857 13.85C12.9036 13.8036 12.9405 13.7484 12.9658 13.6877C12.991 13.6269 13.004 13.5618 13.004 13.496V10.703L15.004 8.70299L11.297 4.99602ZM7.244 12.242C7.11421 12.2454 6.99085 12.2992 6.90001 12.392L3.15001 16.142C3.10352 16.1884 3.06661 16.2436 3.04143 16.3042C3.01624 16.3649 3.00327 16.43 3.00322 16.4957C3.00317 16.5613 3.01609 16.6264 3.04118 16.6871C3.06628 16.7478 3.10307 16.803 3.14949 16.8495C3.19591 16.896 3.25104 16.9329 3.31172 16.9581C3.3724 16.9832 3.43746 16.9962 3.50316 16.9963C3.56886 16.9963 3.63391 16.9835 3.69463 16.9584C3.75534 16.9333 3.81052 16.8964 3.85701 16.85L7.60701 13.1C7.67912 13.0298 7.72836 12.9394 7.74828 12.8407C7.76819 12.7421 7.75786 12.6397 7.71864 12.547C7.67942 12.4543 7.61314 12.3756 7.52846 12.3212C7.44377 12.2667 7.34462 12.2391 7.244 12.242Z" fill="currentColor"/>
</svg>
