<svg width="20" height="20" viewBox="0 0 20 20" fill="none" xmlns="http://www.w3.org/2000/svg">
<path d="M3.49599 2.996C3.36339 2.996 3.23621 3.04869 3.14244 3.14246C3.04867 3.23622 2.99599 3.36339 2.99599 3.496V7.496C2.99599 7.62861 3.04867 7.75578 3.14244 7.84955C3.23621 7.94332 3.36339 7.996 3.49599 7.996C3.6286 7.996 3.75578 7.94332 3.84955 7.84955C3.94332 7.75578 3.99599 7.62861 3.99599 7.496V3.996H7.49599C7.6286 3.996 7.75578 3.94332 7.84955 3.84955C7.94332 3.75578 7.99599 3.62861 7.99599 3.496C7.99599 3.36339 7.94332 3.23622 7.84955 3.14246C7.75578 3.04869 7.6286 2.996 7.49599 2.996H3.49599ZM12.504 2.996C12.3714 2.996 12.2442 3.04869 12.1504 3.14246C12.0567 3.23622 12.004 3.36339 12.004 3.496C12.004 3.62861 12.0567 3.75578 12.1504 3.84955C12.2442 3.94332 12.3714 3.996 12.504 3.996H16.004V7.496C16.004 7.62861 16.0567 7.75578 16.1504 7.84955C16.2442 7.94332 16.3714 7.996 16.504 7.996C16.6366 7.996 16.7638 7.94332 16.8576 7.84955C16.9513 7.75578 17.004 7.62861 17.004 7.496V3.496C17.004 3.36339 16.9513 3.23622 16.8576 3.14246C16.7638 3.04869 16.6366 2.996 16.504 2.996H12.504ZM3.48799 11.996C3.42233 11.997 3.35751 12.011 3.29725 12.0371C3.23698 12.0632 3.18245 12.1009 3.13676 12.1481C3.09108 12.1953 3.05513 12.251 3.03098 12.312C3.00682 12.3731 2.99494 12.4383 2.99599 12.504V16.504C2.99599 16.6366 3.04867 16.7638 3.14244 16.8576C3.23621 16.9513 3.36339 17.004 3.49599 17.004H7.49599C7.6286 17.004 7.75578 16.9513 7.84955 16.8576C7.94332 16.7638 7.99599 16.6366 7.99599 16.504C7.99599 16.3714 7.94332 16.2442 7.84955 16.1505C7.75578 16.0567 7.6286 16.004 7.49599 16.004H3.99599V12.504C3.99708 12.437 3.98467 12.3705 3.95953 12.3083C3.93438 12.2462 3.897 12.1898 3.84961 12.1424C3.80222 12.095 3.74579 12.0576 3.68367 12.0325C3.62155 12.0073 3.555 11.9949 3.48799 11.996ZM16.496 11.996C16.4303 11.997 16.3655 12.011 16.3053 12.0371C16.245 12.0632 16.1905 12.1009 16.1448 12.1481C16.0991 12.1953 16.0631 12.251 16.039 12.312C16.0148 12.3731 16.0029 12.4383 16.004 12.504V16.004H12.504C12.3714 16.004 12.2442 16.0567 12.1504 16.1505C12.0567 16.2442 12.004 16.3714 12.004 16.504C12.004 16.6366 12.0567 16.7638 12.1504 16.8576C12.2442 16.9513 12.3714 17.004 12.504 17.004H16.504C16.6366 17.004 16.7638 16.9513 16.8576 16.8576C16.9513 16.7638 17.004 16.6366 17.004 16.504V12.504C17.0051 12.437 16.9927 12.3705 16.9675 12.3083C16.9424 12.2462 16.905 12.1898 16.8576 12.1424C16.8102 12.095 16.7538 12.0576 16.6917 12.0325C16.6295 12.0073 16.563 11.9949 16.496 11.996Z" fill="currentColor"/>
<path d="M11.996 9.99998C11.996 10.5294 11.7857 11.0371 11.4114 11.4114C11.0371 11.7857 10.5294 11.996 10 11.996C9.7378 11.9961 9.47814 11.9446 9.23586 11.8443C8.99358 11.7441 8.77342 11.5971 8.58797 11.4117C8.40252 11.2264 8.25541 11.0063 8.15504 10.7641C8.05467 10.5218 8.00301 10.2622 8.00301 9.99998C8.00287 9.7377 8.05444 9.47796 8.15475 9.23561C8.25506 8.99326 8.40215 8.77307 8.58762 8.5876C8.77308 8.40214 8.99328 8.25505 9.23563 8.15474C9.47797 8.05443 9.73771 8.00286 10 8.00299C10.2622 8.00299 10.5218 8.05464 10.7641 8.15501C11.0063 8.25539 11.2264 8.4025 11.4117 8.58795C11.5971 8.7734 11.7441 8.99356 11.8444 9.23584C11.9446 9.47812 11.9961 9.73778 11.996 9.99998Z" fill="currentColor"/>
</svg>
