<svg width="20" height="20" viewBox="0 0 20 20" fill="none" xmlns="http://www.w3.org/2000/svg">
<path d="M9 3L8.84399 4.90601C8.22099 5.04901 7.767 5.158 7.25 5.5L5.5 4L4 5.5L5.5 7.25C5.158 7.767 5.04901 8.21999 4.90601 8.84399L3 9V11L4.90601 11.156C5.04901 11.779 5.158 12.233 5.5 12.75L4 14.5L5.5 16L7.25 14.5C7.767 14.842 8.21999 14.951 8.84399 15.094L9 17H11L11.156 15.094C11.779 14.951 12.233 14.842 12.75 14.5L14.5 16L16 14.5L14.5 12.75C14.842 12.233 14.951 11.78 15.094 11.156L17 11V9L15.094 8.84399C14.951 8.22099 14.842 7.767 14.5 7.25L16 5.5L14.5 4L12.75 5.5C12.233 5.158 11.78 5.04901 11.156 4.90601L11 3H10H9ZM10 8C11.116 8 12 8.884 12 10C12 11.116 11.116 12 10 12C8.884 12 8 11.116 8 10C8 8.884 8.884 8 10 8Z" fill="currentColor"/>
</svg>
