<svg width="20" height="20" viewBox="0 0 20 20" fill="none" xmlns="http://www.w3.org/2000/svg">
<path d="M10.0012 3.00266C6.14103 3.00266 3.00196 6.14172 3.00196 10.0019C3.00196 13.862 6.14103 17.0011 10.0012 17.0011C13.8613 17.0011 17.0004 13.862 17.0004 10.0019C17.0004 6.14172 13.8613 3.00266 10.0012 3.00266ZM10.0012 4.00104C10.7895 4.00013 11.5702 4.15471 12.2987 4.45596C13.0271 4.7572 13.689 5.19919 14.2464 5.7566C14.8038 6.31401 15.2458 6.97592 15.5471 7.70438C15.8483 8.43285 16.0029 9.21358 16.002 10.0019C16.0029 10.7902 15.8483 11.5709 15.5471 12.2994C15.2458 13.0278 14.8038 13.6897 14.2464 14.2471C13.689 14.8046 13.0271 15.2465 12.2987 15.5478C11.5702 15.849 10.7895 16.0036 10.0012 16.0027C9.21288 16.0036 8.43215 15.849 7.70369 15.5478C6.97522 15.2465 6.31334 14.8046 5.75593 14.2471C5.19852 13.6897 4.75654 13.0278 4.45529 12.2994C4.15404 11.5709 3.99943 10.7902 4.00035 10.0019C3.99943 9.21358 4.15404 8.43285 4.45529 7.70438C4.75654 6.97592 5.19852 6.31401 5.75593 5.7566C6.31334 5.19919 6.97522 4.7572 7.70369 4.45596C8.43215 4.15471 9.21288 4.00013 10.0012 4.00104Z" fill="currentColor"/>
<path d="M10.0012 5.00116C7.25124 5.00116 5.0005 7.25192 5.0005 10.0019C5.0005 12.7518 7.25124 15.0026 10.0012 15.0026C12.7511 15.0026 15.0019 12.7518 15.0019 10.0019C15.0019 7.25192 12.7511 5.00116 10.0012 5.00116ZM10.0012 7.00317C10.3955 7.00121 10.7863 7.07744 11.151 7.22745C11.5157 7.37746 11.8471 7.59829 12.1259 7.87714C12.4047 8.15598 12.6256 8.48734 12.7756 8.85203C12.9256 9.21673 13.0018 9.60752 12.9999 10.0019C13.0018 10.3962 12.9256 10.787 12.7756 11.1517C12.6256 11.5164 12.4047 11.8477 12.1259 12.1266C11.8471 12.4054 11.5157 12.6263 11.151 12.7763C10.7863 12.9263 10.3955 13.0025 10.0012 13.0006C9.60684 13.0025 9.21602 12.9263 8.85132 12.7763C8.48663 12.6263 8.15529 12.4054 7.87645 12.1266C7.59761 11.8477 7.3768 11.5164 7.22679 11.1517C7.07679 10.787 7.00056 10.3962 7.00251 10.0019C7.00056 9.60752 7.07679 9.21673 7.22679 8.85203C7.3768 8.48734 7.59761 8.15598 7.87645 7.87714C8.15529 7.59829 8.48663 7.37746 8.85132 7.22745C9.21602 7.07744 9.60684 7.00121 10.0012 7.00317Z" fill="currentColor"/>
</svg>
