<svg width="20" height="20" viewBox="0 0 20 20" fill="none" xmlns="http://www.w3.org/2000/svg">
<path d="M9.496 2.496C5.636 2.496 2.496 5.636 2.496 9.496C2.496 13.356 5.636 16.496 9.496 16.496C13.356 16.496 16.496 13.356 16.496 9.496C16.496 5.636 13.356 2.496 9.496 2.496ZM9.496 3.496C10.595 3.496 11.496 4.397 11.496 5.496C11.496 6.595 10.595 7.496 9.496 7.496C8.397 7.496 7.496 6.595 7.496 5.496C7.496 4.397 8.397 3.496 9.496 3.496ZM5.496 7.496C6.595 7.496 7.496 8.397 7.496 9.496C7.496 10.595 6.595 11.496 5.496 11.496C4.397 11.496 3.496 10.595 3.496 9.496C3.496 8.397 4.397 7.496 5.496 7.496ZM13.496 7.496C14.595 7.496 15.496 8.397 15.496 9.496C15.496 10.595 14.595 11.496 13.496 11.496C12.397 11.496 11.496 10.595 11.496 9.496C11.496 8.397 12.397 7.496 13.496 7.496ZM9.496 8.496C10.042 8.496 10.496 8.95 10.496 9.496C10.496 10.042 10.042 10.496 9.496 10.496C8.95 10.496 8.496 10.042 8.496 9.496C8.496 8.95 8.95 8.496 9.496 8.496ZM9.496 11.496C10.595 11.496 11.496 12.397 11.496 13.496C11.496 14.595 10.595 15.496 9.496 15.496C8.397 15.496 7.496 14.595 7.496 13.496C7.496 12.397 8.397 11.496 9.496 11.496ZM14.461 15.496C14.3345 15.5028 14.2153 15.5574 14.1275 15.6487C14.0397 15.7401 13.9898 15.8613 13.988 15.988C13.9869 16.055 13.9993 16.1216 14.0245 16.1837C14.0496 16.2458 14.087 16.3022 14.1344 16.3496C14.1818 16.397 14.2382 16.4344 14.3003 16.4595C14.3624 16.4847 14.429 16.4971 14.496 16.496H14.996C15.829 16.496 16.143 16.85 16.642 17.35C16.6885 17.3965 16.7437 17.4334 16.8044 17.4585C16.8652 17.4837 16.9303 17.4966 16.996 17.4966C17.0617 17.4966 17.1269 17.4837 17.1876 17.4585C17.2483 17.4334 17.3035 17.3965 17.35 17.35C17.3965 17.3035 17.4334 17.2483 17.4585 17.1876C17.4837 17.1269 17.4966 17.0617 17.4966 16.996C17.4966 16.9303 17.4837 16.8652 17.4585 16.8044C17.4334 16.7437 17.3965 16.6885 17.35 16.642C16.85 16.142 16.163 15.496 14.996 15.496H14.496C14.4843 15.4956 14.4727 15.4956 14.461 15.496Z" fill="currentColor"/>
</svg>
