<svg width="20" height="20" viewBox="0 0 20 20" fill="none" xmlns="http://www.w3.org/2000/svg">
<path d="M4.991 4.49801C4.91004 4.49948 4.83064 4.5206 4.75964 4.55954C4.68864 4.59848 4.62816 4.65408 4.58341 4.72156C4.53865 4.78905 4.51095 4.86639 4.50269 4.94694C4.49443 5.0275 4.50586 5.10885 4.536 5.18401L8.536 15.186C8.57462 15.2845 8.6435 15.3682 8.73271 15.4251C8.82193 15.482 8.92689 15.5091 9.03249 15.5025C9.13809 15.496 9.23889 15.4561 9.32038 15.3886C9.40188 15.3211 9.45986 15.2295 9.486 15.127L10.661 10.658L15.128 9.48201C15.2295 9.45512 15.3199 9.39697 15.3865 9.3158C15.4531 9.23463 15.4924 9.13457 15.499 9.02979C15.5055 8.92501 15.4789 8.82083 15.4229 8.73203C15.3669 8.64322 15.2844 8.57429 15.187 8.53501L5.187 4.53301C5.12469 4.50827 5.05802 4.49637 4.991 4.49801Z" fill="currentColor"/>
</svg>
