<svg width="20" height="20" viewBox="0 0 20 20" fill="none" xmlns="http://www.w3.org/2000/svg">
<path d="M5.57599 2.98202C5.49604 2.98034 5.41667 2.99611 5.34344 3.02823C5.27022 3.06035 5.20488 3.10804 5.15198 3.168C4.68598 3.682 3.94997 4.299 3.94897 5.311C3.94897 6.495 4.80501 7.425 5.89301 8.229C6.98001 9.032 8.37199 9.75602 9.73999 10.486C10.182 10.722 10.623 10.956 11.049 11.19C12.162 11.797 13.184 12.404 13.893 13.008C14.601 13.612 14.952 14.167 14.951 14.691C14.951 15.172 14.623 15.698 14.156 16.072C14.0995 16.1172 14.0525 16.173 14.0176 16.2364C13.9828 16.2997 13.9607 16.3693 13.9527 16.4412C13.9447 16.5131 13.9509 16.5858 13.9711 16.6553C13.9912 16.7247 14.0248 16.7895 14.07 16.846C14.1152 16.9025 14.171 16.9495 14.2344 16.9844C14.2977 17.0193 14.3673 17.0413 14.4392 17.0493C14.5111 17.0573 14.5838 17.051 14.6533 17.0309C14.7227 17.0108 14.7875 16.9772 14.844 16.932C15.497 16.408 16.05 15.63 16.051 14.693C16.051 13.699 15.431 12.873 14.605 12.17C13.78 11.467 12.707 10.841 11.575 10.223C11.14 9.98602 10.699 9.75301 10.26 9.51801C8.88601 8.78401 7.525 8.06702 6.547 7.34402C5.569 6.62102 5.04801 5.93702 5.04901 5.31302C5.04901 4.87302 5.44598 4.48202 5.96698 3.90802C6.03967 3.83046 6.08838 3.73348 6.10712 3.62885C6.12586 3.52421 6.11383 3.41639 6.07257 3.31842C6.03131 3.22045 5.96259 3.13655 5.87463 3.07684C5.78668 3.01714 5.68331 2.98421 5.57703 2.98202H5.57599Z" fill="currentColor"/>
<path d="M14.455 2.94702C14.3455 2.95467 14.2408 2.99489 14.1544 3.0625C14.068 3.13012 14.0038 3.22204 13.97 3.32645C13.9363 3.43086 13.9345 3.54299 13.965 3.64841C13.9954 3.75383 14.0567 3.84771 14.141 3.918C14.581 4.3 14.953 4.95202 14.953 5.50202C14.951 6.06802 14.699 6.454 14.211 6.862C13.721 7.269 13.004 7.63501 12.254 8.01001C12.1894 8.04232 12.1318 8.08703 12.0845 8.1416C12.0371 8.19618 12.001 8.25954 11.9781 8.32807C11.9553 8.3966 11.9462 8.46896 11.9513 8.54102C11.9564 8.61307 11.9757 8.68341 12.008 8.74802C12.0403 8.81263 12.085 8.87025 12.1396 8.91758C12.1942 8.9649 12.2575 9.00102 12.326 9.02387C12.3946 9.04671 12.4669 9.05581 12.539 9.05069C12.6111 9.04557 12.6814 9.02633 12.746 8.99402C13.496 8.61902 14.277 8.23502 14.914 7.70502C15.551 7.17502 16.051 6.43502 16.053 5.50202C16.053 4.51502 15.51 3.65003 14.859 3.08603C14.8043 3.03709 14.7404 2.99955 14.671 2.97568C14.6016 2.95181 14.5282 2.94207 14.455 2.94702ZM7.50201 10.949C7.41579 10.9493 7.33085 10.9698 7.25403 11.009C6.50403 11.385 5.723 11.769 5.086 12.299C4.449 12.829 3.94902 13.569 3.94702 14.502C3.94702 15.49 4.48299 16.355 5.14099 16.92C5.19588 16.9672 5.25955 17.003 5.32831 17.0256C5.39706 17.0481 5.4696 17.0569 5.54175 17.0514C5.6139 17.0459 5.68422 17.0263 5.74878 16.9937C5.81334 16.961 5.87089 16.9159 5.91803 16.861C5.96517 16.8061 6.00101 16.7425 6.02356 16.6737C6.04611 16.605 6.05492 16.5325 6.04944 16.4603C6.04396 16.3881 6.02431 16.3178 5.99164 16.2532C5.95897 16.1886 5.9139 16.1312 5.85901 16.084C5.41201 15.699 5.047 15.064 5.047 14.502C5.049 13.936 5.301 13.55 5.789 13.142C6.279 12.735 6.99597 12.369 7.74597 11.994C7.85835 11.9396 7.94891 11.8486 8.00269 11.7359C8.05646 11.6232 8.07026 11.4955 8.04187 11.3739C8.01348 11.2523 7.94455 11.144 7.84644 11.0668C7.74832 10.9896 7.62688 10.948 7.50201 10.949Z" fill="currentColor"/>
<path d="M6.5 14.002C6.36739 14.002 6.24019 14.0547 6.14642 14.1485C6.05266 14.2422 6 14.3694 6 14.502C6 14.6346 6.05266 14.7618 6.14642 14.8556C6.24019 14.9493 6.36739 15.002 6.5 15.002H8.5C8.61985 15.0036 8.73623 14.962 8.828 14.8849C8.91978 14.8078 8.98083 14.7003 9 14.582C9.01917 14.7003 9.08022 14.8078 9.172 14.8849C9.26377 14.962 9.38015 15.0036 9.5 15.002H13.5C13.6326 15.002 13.7598 14.9493 13.8536 14.8556C13.9473 14.7618 14 14.6346 14 14.502C14 14.3694 13.9473 14.2422 13.8536 14.1485C13.7598 14.0547 13.6326 14.002 13.5 14.002H9.5C9.38015 14.0005 9.26377 14.042 9.172 14.1191C9.08022 14.1962 9.01917 14.3037 9 14.422C8.98083 14.3037 8.91978 14.1962 8.828 14.1191C8.73623 14.042 8.61985 14.0005 8.5 14.002H6.5ZM6.5 5.00203C6.36739 5.00203 6.24019 5.05471 6.14642 5.14848C6.05266 5.24225 6 5.36942 6 5.50203C6 5.63463 6.05266 5.7618 6.14642 5.85557C6.24019 5.94934 6.36739 6.00203 6.5 6.00203H10.5C10.6198 6.00357 10.7362 5.96202 10.828 5.88493C10.9198 5.80784 10.9808 5.70032 11 5.58201C11.0192 5.70032 11.0802 5.80784 11.172 5.88493C11.2638 5.96202 11.3802 6.00357 11.5 6.00203H13.5C13.6326 6.00203 13.7598 5.94934 13.8536 5.85557C13.9473 5.7618 14 5.63463 14 5.50203C14 5.36942 13.9473 5.24225 13.8536 5.14848C13.7598 5.05471 13.6326 5.00203 13.5 5.00203H11.5C11.3802 5.00048 11.2638 5.04203 11.172 5.11912C11.0802 5.19621 11.0192 5.30373 11 5.42204C10.9808 5.30373 10.9198 5.19621 10.828 5.11912C10.7362 5.04203 10.6198 5.00048 10.5 5.00203H6.5Z" fill="currentColor"/>
</svg>
