<svg width="20" height="20" viewBox="0 0 20 20" fill="none" xmlns="http://www.w3.org/2000/svg">
<path d="M6.5 3.5C6.42238 3.5 6.34583 3.51808 6.2764 3.5528C6.20697 3.58751 6.14658 3.63791 6.10001 3.70001L4.75 5.5H4C3.455 5.5 3 5.955 3 6.5V15.5C3 16.045 3.455 16.5 4 16.5H16C16.545 16.5 17 16.045 17 15.5V6.5C17 5.955 16.545 5.5 16 5.5H12.25L10.9 3.70001C10.8534 3.63791 10.793 3.58751 10.7236 3.5528C10.6542 3.51808 10.5776 3.5 10.5 3.5H6.5ZM7.5 4.5H9.5C9.63261 4.5 9.75978 4.55266 9.85355 4.64642C9.94731 4.74019 10 4.86739 10 5V6C10 6.13261 9.94731 6.25981 9.85355 6.35358C9.75978 6.44734 9.63261 6.5 9.5 6.5H7.5C7.36739 6.5 7.24022 6.44734 7.14645 6.35358C7.05269 6.25981 7 6.13261 7 6V5C7 4.86739 7.05269 4.74019 7.14645 4.64642C7.24022 4.55266 7.36739 4.5 7.5 4.5ZM4 7.5H13V14.5H4V8V7.5ZM15 8.5C15.546 8.5 16 8.954 16 9.5C16 10.046 15.546 10.5 15 10.5C14.454 10.5 14 10.046 14 9.5C14 8.954 14.454 8.5 15 8.5ZM15 12.5C15.546 12.5 16 12.954 16 13.5C16 14.046 15.546 14.5 15 14.5C14.454 14.5 14 14.046 14 13.5C14 12.954 14.454 12.5 15 12.5Z" fill="currentColor"/>
<path d="M5.5 8.5C5.36739 8.5 5.24022 8.55266 5.14645 8.64642C5.05269 8.74019 5 8.86739 5 9C5 9.13261 5.05269 9.25981 5.14645 9.35358C5.24022 9.44734 5.36739 9.5 5.5 9.5H11.502C11.6346 9.5 11.7618 9.44734 11.8556 9.35358C11.9493 9.25981 12.002 9.13261 12.002 9C12.002 8.86739 11.9493 8.74019 11.8556 8.64642C11.7618 8.55266 11.6346 8.5 11.502 8.5H5.5ZM5.5 10.5C5.36739 10.5 5.24022 10.5527 5.14645 10.6464C5.05269 10.7402 5 10.8674 5 11C5 11.1326 5.05269 11.2598 5.14645 11.3536C5.24022 11.4473 5.36739 11.5 5.5 11.5H11.502C11.6346 11.5 11.7618 11.4473 11.8556 11.3536C11.9493 11.2598 12.002 11.1326 12.002 11C12.002 10.8674 11.9493 10.7402 11.8556 10.6464C11.7618 10.5527 11.6346 10.5 11.502 10.5H5.5ZM5.5 12.5C5.36739 12.5 5.24022 12.5527 5.14645 12.6464C5.05269 12.7402 5 12.8674 5 13C5 13.1326 5.05269 13.2598 5.14645 13.3536C5.24022 13.4473 5.36739 13.5 5.5 13.5H11.502C11.6346 13.5 11.7618 13.4473 11.8556 13.3536C11.9493 13.2598 12.002 13.1326 12.002 13C12.002 12.8674 11.9493 12.7402 11.8556 12.6464C11.7618 12.5527 11.6346 12.5 11.502 12.5H5.5Z" fill="currentColor"/>
<path d="M14.502 3.50001C13.826 3.49001 13.826 4.51001 14.502 4.50001H15.502C16.178 4.51001 16.178 3.49001 15.502 3.50001H14.502Z" fill="currentColor"/>
</svg>
