<svg width="20" height="20" viewBox="0 0 20 20" fill="none" xmlns="http://www.w3.org/2000/svg">
<path d="M7.482 3C7.38913 3.0034 7.29904 3.03262 7.22184 3.08438C7.14465 3.13614 7.08341 3.20837 7.045 3.293L3.271 11.543L3.268 11.553C3.158 11.806 3 12.101 3 12.5C3 13.338 3.526 14.035 4.297 14.422C5.067 14.809 6.087 14.978 7.32 14.994C7.38978 14.9948 7.45895 14.981 7.52308 14.9535C7.5872 14.926 7.64485 14.8853 7.69232 14.8342C7.7398 14.783 7.77604 14.7225 7.79871 14.6565C7.82139 14.5905 7.83001 14.5205 7.824 14.451C7.825 14.462 7.814 14.073 7.809 13.742C7.804 13.412 7.801 13.072 7.801 13C7.801 11.132 8.816 9.48001 10.321 8.56201C10.4306 8.49487 10.5101 8.38811 10.543 8.26391C10.576 8.13972 10.5599 8.00761 10.498 7.89499L7.938 3.25799C7.89329 3.17702 7.827 3.11003 7.7465 3.06448C7.66599 3.01893 7.57443 2.99662 7.482 3ZM15 3C13.901 3 13 3.901 13 5C13 6.099 13.901 7 15 7C16.099 7 17 6.099 17 5C17 3.901 16.099 3 15 3ZM13 9C10.797 9 9 10.797 9 13C9 15.203 10.797 17 13 17C15.203 17 17 15.203 17 13C17 10.797 15.203 9 13 9ZM13 10C14.663 10 16 11.337 16 13C16 14.663 14.663 16 13 16C11.337 16 10 14.663 10 13C10 11.337 11.337 10 13 10ZM12.459 11.033C11.659 11.033 11 11.693 11 12.494C11 12.6266 11.0527 12.7538 11.1464 12.8476C11.2402 12.9413 11.3674 12.994 11.5 12.994C11.6326 12.994 11.7598 12.9413 11.8536 12.8476C11.9473 12.7538 12 12.6266 12 12.494C12 12.234 12.2 12.034 12.459 12.034C12.5916 12.034 12.7188 11.9813 12.8126 11.8875C12.9063 11.7938 12.959 11.6666 12.959 11.534C12.959 11.4014 12.9063 11.2742 12.8126 11.1804C12.7188 11.0867 12.5916 11.034 12.459 11.034V11.033Z" fill="currentColor"/>
</svg>
