<svg width="20" height="20" viewBox="0 0 20 20" fill="none" xmlns="http://www.w3.org/2000/svg">
<path d="M3.5 3C3.36739 3 3.24022 3.05269 3.14645 3.14645C3.05269 3.24022 3 3.36739 3 3.5V13.5C3 13.6326 3.05269 13.7598 3.14645 13.8535C3.24022 13.9473 3.36739 14 3.5 14H9V16H6.5C5.824 15.99 5.824 17.01 6.5 17H13.5C14.176 17.01 14.176 15.99 13.5 16H11V14H16.5C16.6326 14 16.7598 13.9473 16.8535 13.8535C16.9473 13.7598 17 13.6326 17 13.5V3.5C17 3.36739 16.9473 3.24022 16.8535 3.14645C16.7598 3.05269 16.6326 3 16.5 3H3.5ZM4 4H16V13H4V4Z" fill="currentColor"/>
<path d="M8.49699 5.00295C8.3672 5.00639 8.24384 5.0602 8.153 5.15297L5.153 8.15297C5.10644 8.19942 5.0695 8.25458 5.0443 8.31532C5.01909 8.37607 5.00612 8.44121 5.00612 8.50697C5.00612 8.57274 5.01909 8.63788 5.0443 8.69863C5.0695 8.75937 5.10644 8.81453 5.153 8.86098L8.153 11.861C8.19949 11.9075 8.25467 11.9443 8.31541 11.9695C8.37615 11.9947 8.44126 12.0076 8.507 12.0076C8.57275 12.0076 8.63785 11.9947 8.69859 11.9695C8.75933 11.9443 8.81452 11.9075 8.86101 11.861C8.9075 11.8145 8.94437 11.7593 8.96953 11.6986C8.99469 11.6378 9.00764 11.5727 9.00764 11.507C9.00764 11.4412 8.99469 11.3761 8.96953 11.3154C8.94437 11.2546 8.9075 11.1995 8.86101 11.153L6.714 9.00698H14.507C14.6396 9.00698 14.7668 8.95432 14.8605 8.86055C14.9543 8.76678 15.007 8.63958 15.007 8.50697C15.007 8.37437 14.9543 8.24717 14.8605 8.1534C14.7668 8.05963 14.6396 8.00697 14.507 8.00697H6.714L8.86101 5.86098C8.93319 5.79069 8.98244 5.70023 9.00233 5.60146C9.02223 5.50269 9.01184 5.4002 8.97249 5.30745C8.93314 5.2147 8.86669 5.13602 8.78185 5.08168C8.697 5.02735 8.5977 4.99989 8.49699 5.00295Z" fill="currentColor"/>
</svg>
