<svg width="20" height="20" viewBox="0 0 20 20" fill="none" xmlns="http://www.w3.org/2000/svg">
<path d="M10 2.996C8.202 2.996 7.215 3.229 6.611 3.748C6.008 4.268 6 5.003 6 5.496V5.996H5.998C5.87 5.996 5.087 5.996 4.359 6.533C3.631 7.071 3 8.143 3 10C3 10.847 3.125 11.439 3.353 11.895C3.582 12.35 3.899 12.637 4.168 12.875C4.26746 12.9631 4.39782 13.008 4.53041 12.9999C4.66299 12.9919 4.78695 12.9315 4.875 12.832C4.96305 12.7325 5.00799 12.6022 4.99992 12.4696C4.99186 12.337 4.93146 12.2131 4.832 12.125C4.568 11.891 4.387 11.725 4.248 11.447C4.109 11.17 4 10.75 4 10C4 8.357 4.494 7.677 4.953 7.338C5.413 6.999 5.877 6.996 6 6.996H6.443C6.46257 6.9985 6.48227 6.99983 6.502 7L9.502 6.99C9.63461 6.98974 9.76168 6.9368 9.85526 6.84285C9.94884 6.74889 10.0013 6.62161 10.001 6.489C10.0007 6.35639 9.9478 6.22932 9.85385 6.13574C9.75989 6.04216 9.63261 5.98974 9.5 5.99H9.496L7 5.994V5.496C7 5.002 6.992 4.74 7.264 4.506C7.535 4.272 8.298 3.996 10 3.996C11.702 3.996 12.465 4.272 12.736 4.506C13.008 4.74 13 5.002 13 5.496V7.49C13 7.969 12.735 8.28 12.154 8.62C11.574 8.96 10.722 9.24 9.848 9.521C8.973 9.803 8.073 10.085 7.342 10.51C6.61 10.935 6 11.592 6 12.49V14.504C6 14.998 6.008 15.733 6.611 16.252C7.215 16.772 8.201 17.004 10 17.004C11.798 17.004 12.785 16.771 13.389 16.252C13.992 15.732 14 14.998 14 14.504V14.004C14.127 14.004 14.912 14.004 15.64 13.467C16.37 12.929 17 11.857 17 10C17 8.43 16.33 7.652 15.863 7.156C15.7718 7.05973 15.646 7.00364 15.5134 7.00008C15.3808 6.99651 15.2523 7.04577 15.156 7.137C15.0597 7.22824 15.0036 7.35398 15.0001 7.48657C14.9965 7.61916 15.0458 7.74773 15.137 7.844C15.607 8.343 16 8.675 16 10C16 11.643 15.506 12.323 15.047 12.662C14.587 13.001 14.123 13.004 14 13.004H13.557C13.5374 13.0015 13.5177 13.0002 13.498 13L10.498 13.01C10.4323 13.0101 10.3673 13.0232 10.3067 13.0484C10.2461 13.0737 10.1911 13.1106 10.1447 13.1572C10.0512 13.2511 9.99873 13.3784 9.999 13.511C9.99926 13.6436 10.0522 13.7707 10.1462 13.8643C10.2401 13.9578 10.3674 14.0103 10.5 14.01H10.504L13 14.006V14.504C13 14.998 13.008 15.26 12.736 15.494C12.465 15.728 11.702 16.004 10 16.004C8.298 16.004 7.535 15.728 7.264 15.494C6.992 15.26 7 14.998 7 14.504V12.49C7 12.018 7.264 11.711 7.846 11.373C8.427 11.035 9.277 10.754 10.152 10.473C11.028 10.191 11.927 9.91 12.658 9.483C13.39 9.053 14 8.391 14 7.49V5.496C14 5.002 13.992 4.267 13.389 3.748C12.785 3.228 11.799 2.996 10 2.996Z" fill="currentColor"/>
</svg>
