<svg width="20" height="20" viewBox="0 0 20 20" fill="none" xmlns="http://www.w3.org/2000/svg">
<path d="M7.492 2.995C7.42617 2.99499 7.36099 3.00799 7.3002 3.03325C7.2394 3.0585 7.18419 3.09551 7.13774 3.14215C7.09128 3.18879 7.05449 3.24415 7.02948 3.30504C7.00448 3.36593 6.99174 3.43117 6.992 3.497L6.998 7.003L3.5 7.005C3.36739 7.005 3.24021 7.05767 3.14645 7.15144C3.05268 7.24521 3 7.37239 3 7.505V16.505C3 16.6376 3.05268 16.7648 3.14645 16.8585C3.24021 16.9523 3.36739 17.005 3.5 17.005H12.5C12.6326 17.005 12.7598 16.9523 12.8536 16.8585C12.9473 16.7648 13 16.6376 13 16.505V13.005H16.5C16.6326 13.005 16.7598 12.9523 16.8536 12.8585C16.9473 12.7648 17 12.6376 17 12.505V3.505C17 3.37239 16.9473 3.24521 16.8536 3.15144C16.7598 3.05767 16.6326 3.005 16.5 3.005L7.492 2.995Z" fill="currentColor"/>
</svg>
