<svg width="20" height="20" viewBox="0 0 20 20" fill="none" xmlns="http://www.w3.org/2000/svg">
<path d="M3.5 8C3.36739 8 3.24022 8.05268 3.14645 8.14645C3.05269 8.24021 3 8.36739 3 8.5V16.5C3 16.6326 3.05269 16.7598 3.14645 16.8536C3.24022 16.9473 3.36739 17 3.5 17H11.5C11.6326 17 11.7598 16.9473 11.8535 16.8536C11.9473 16.7598 12 16.6326 12 16.5V8.5C12 8.36739 11.9473 8.24021 11.8535 8.14645C11.7598 8.05268 11.6326 8 11.5 8H3.5ZM10 9C10.546 9 11 9.454 11 10C11 10.546 10.546 11 10 11C9.454 11 9 10.546 9 10C9 9.454 9.454 9 10 9ZM7.02 10.75C7.1038 10.7532 7.18545 10.7774 7.25745 10.8203C7.32944 10.8633 7.38947 10.9237 7.43201 10.996L9.93201 15.246C9.97685 15.322 10.0008 15.4086 10.0013 15.4969C10.0019 15.5851 9.97905 15.672 9.93517 15.7486C9.89128 15.8252 9.8279 15.8888 9.75146 15.9329C9.67503 15.9771 9.58827 16.0002 9.5 16H4.5C4.41173 16.0002 4.32497 15.9771 4.24854 15.9329C4.1721 15.8888 4.10872 15.8252 4.06483 15.7486C4.02095 15.672 3.99813 15.5851 3.99869 15.4969C3.99924 15.4086 4.02315 15.322 4.06799 15.246L6.56799 10.996C6.61396 10.9179 6.6803 10.8537 6.75992 10.8104C6.83953 10.7671 6.92944 10.7462 7.02 10.75Z" fill="currentColor"/>
<path d="M7.5 3C7.36739 3 7.24021 3.05268 7.14645 3.14645C7.05268 3.24021 7 3.36739 7 3.5V6.5C7 6.63261 7.05268 6.75979 7.14645 6.85355C7.24021 6.94732 7.36739 7 7.5 7H16.5C16.6326 7 16.7598 6.94732 16.8536 6.85355C16.9473 6.75979 17 6.63261 17 6.5V3.5C17 3.36739 16.9473 3.24021 16.8536 3.14645C16.7598 3.05268 16.6326 3 16.5 3H7.5ZM8 4H16V6H8V4ZM13 11V12H16V14H13V15H16.5C16.6326 15 16.7598 14.9473 16.8536 14.8536C16.9473 14.7598 17 14.6326 17 14.5V11.5C17 11.3674 16.9473 11.2402 16.8536 11.1464C16.7598 11.0527 16.6326 11 16.5 11H13Z" fill="currentColor"/>
</svg>
