<svg width="20" height="20" viewBox="0 0 20 20" fill="none" xmlns="http://www.w3.org/2000/svg">
<path d="M6.5 5C6.36739 5 6.24021 5.05268 6.14645 5.14645C6.05268 5.24021 6 5.36739 6 5.5V8.5C6 8.63261 6.05268 8.75979 6.14645 8.85355C6.24021 8.94732 6.36739 9 6.5 9H16.5C16.6326 9 16.7598 8.94732 16.8536 8.85355C16.9473 8.75979 17 8.63261 17 8.5V5.5C17 5.36739 16.9473 5.24021 16.8536 5.14645C16.7598 5.05268 16.6326 5 16.5 5H6.5ZM3.5 11C3.36739 11 3.24021 11.0527 3.14645 11.1464C3.05268 11.2402 3 11.3674 3 11.5V14.5C3 14.6326 3.05268 14.7598 3.14645 14.8536C3.24021 14.9473 3.36739 15 3.5 15H13.5C13.6326 15 13.7598 14.9473 13.8536 14.8536C13.9473 14.7598 14 14.6326 14 14.5V11.5C14 11.3674 13.9473 11.2402 13.8536 11.1464C13.7598 11.0527 13.6326 11 13.5 11H3.5Z" fill="currentColor"/>
</svg>
