<svg width="20" height="20" viewBox="0 0 20 20" fill="none" xmlns="http://www.w3.org/2000/svg">
<path d="M7.49199 8.99098C7.42531 8.99044 7.35925 9.00325 7.29759 9.02864C7.23594 9.05403 7.17994 9.09148 7.13298 9.13881C7.08602 9.18614 7.04899 9.24239 7.02409 9.30425C6.9992 9.3661 6.98695 9.43231 6.98802 9.49898L6.98998 10.839C6.61798 10.911 6.27098 11.059 5.96898 11.266L4.84203 10.143C4.75168 10.0507 4.62908 9.99695 4.49999 9.993C4.39957 9.99037 4.30069 10.018 4.21623 10.0724C4.13177 10.1268 4.06565 10.2053 4.02647 10.2978C3.9873 10.3903 3.97692 10.4924 3.99663 10.5909C4.01634 10.6894 4.06526 10.7797 4.13701 10.85L5.26402 11.973C5.05262 12.2786 4.90627 12.6245 4.83403 12.989L3.48802 12.993C3.42236 12.9931 3.35735 13.0062 3.29674 13.0314C3.23613 13.0567 3.18109 13.0936 3.13475 13.1402C3.08841 13.1867 3.05166 13.2419 3.02666 13.3026C3.00165 13.3633 2.98887 13.4283 2.989 13.494C2.98913 13.5596 3.0022 13.6246 3.02745 13.6853C3.0527 13.7459 3.08963 13.8009 3.13616 13.8472C3.18268 13.8936 3.23786 13.9303 3.29857 13.9553C3.35928 13.9803 3.42432 13.9931 3.48998 13.993L4.82799 13.991C4.89599 14.369 5.037 14.723 5.244 15.03L4.13701 16.14C4.08403 16.1846 4.04089 16.2398 4.01036 16.302C3.97983 16.3642 3.96257 16.432 3.95964 16.5012C3.95672 16.5705 3.96822 16.6395 3.99339 16.7041C4.01857 16.7686 4.05686 16.8272 4.10588 16.8761C4.1549 16.9251 4.21355 16.9633 4.27812 16.9884C4.3427 17.0135 4.41179 17.0249 4.481 17.0219C4.55021 17.0188 4.61808 17.0015 4.68022 16.9708C4.74236 16.9402 4.79746 16.897 4.84203 16.844L5.94499 15.743C6.25798 15.9635 6.61412 16.1151 6.98998 16.188L6.98802 17.489C6.98776 17.5547 7.00043 17.6197 7.02532 17.6805C7.0502 17.7412 7.0868 17.7965 7.13304 17.8431C7.17929 17.8897 7.23422 17.9268 7.29479 17.9522C7.35535 17.9775 7.42035 17.9907 7.48601 17.991C7.55167 17.9912 7.61671 17.9786 7.67748 17.9537C7.73824 17.9288 7.79352 17.8922 7.84013 17.846C7.88675 17.7997 7.92383 17.7448 7.9492 17.6842C7.97457 17.6236 7.98776 17.5587 7.98802 17.493L7.98998 16.19C8.36961 16.1233 8.73067 15.9763 9.049 15.759L10.131 16.845C10.1766 16.8946 10.2318 16.9345 10.2932 16.9623C10.3546 16.99 10.4211 17.0051 10.4885 17.0065C10.5558 17.008 10.6228 16.9958 10.6853 16.9707C10.7479 16.9456 10.8048 16.9081 10.8525 16.8604C10.9002 16.8128 10.9377 16.756 10.9629 16.6935C10.9881 16.631 11.0004 16.564 10.999 16.4966C10.9977 16.4292 10.9827 16.3628 10.9551 16.3013C10.9274 16.2399 10.8876 16.1847 10.838 16.139L9.75401 15.049C9.97104 14.7308 10.1183 14.3702 10.186 13.991H11.492C11.6249 13.991 11.7523 13.9382 11.8462 13.8443C11.9402 13.7503 11.993 13.6228 11.993 13.49C11.993 13.3571 11.9402 13.2297 11.8462 13.1357C11.7523 13.0418 11.6249 12.989 11.492 12.989H10.18C10.1052 12.6173 9.95327 12.2653 9.73399 11.956L10.838 10.85C10.9096 10.7806 10.9588 10.6913 10.9793 10.5937C10.9998 10.4961 10.9907 10.3947 10.953 10.3023C10.9154 10.21 10.851 10.131 10.7682 10.0755C10.6853 10.02 10.5877 9.99059 10.488 9.99098C10.4214 9.99125 10.3555 10.0048 10.2942 10.0309C10.2329 10.057 10.1774 10.0951 10.131 10.143L9.02098 11.251C8.70989 11.0434 8.35924 10.9024 7.99101 10.837L7.98601 9.497C7.98761 9.36473 7.93674 9.23719 7.84453 9.14235C7.75232 9.04751 7.62627 8.99309 7.494 8.99098C7.49334 8.99098 7.49266 8.99098 7.49199 8.99098ZM7.48998 12.29C7.80824 12.2897 8.11362 12.4159 8.33885 12.6408C8.56408 12.8656 8.69076 13.1707 8.69103 13.489C8.69129 13.8073 8.56511 14.1126 8.34026 14.3378C8.1154 14.563 7.81025 14.6897 7.49199 14.69C7.17373 14.6903 6.86841 14.5641 6.64317 14.3392C6.41794 14.1144 6.29127 13.8092 6.291 13.491C6.29074 13.1727 6.41691 12.8674 6.64177 12.6422C6.86663 12.4169 7.17172 12.2903 7.48998 12.29Z" fill="currentColor"/>
<path d="M12.492 1.99098C12.4253 1.99044 12.3592 2.00325 12.2976 2.02864C12.2359 2.05403 12.1799 2.09148 12.133 2.13881C12.086 2.18614 12.049 2.24239 12.0241 2.30425C11.9992 2.3661 11.987 2.43231 11.988 2.49898L11.99 3.83898C11.618 3.91098 11.271 4.05898 10.969 4.26598L9.84203 3.14299C9.75168 3.0507 9.62908 2.99695 9.49999 2.993C9.39957 2.99037 9.30069 3.01803 9.21623 3.0724C9.13177 3.12677 9.06565 3.20532 9.02647 3.29781C8.9873 3.3903 8.97692 3.49244 8.99663 3.59093C9.01634 3.68942 9.06526 3.7797 9.13701 3.84999L10.264 4.97298C10.0526 5.27862 9.90627 5.62446 9.83403 5.989L8.48802 5.993C8.35541 5.99326 8.22833 6.0462 8.13475 6.14015C8.04117 6.23411 7.98873 6.36137 7.989 6.49397C7.98926 6.62658 8.0422 6.75366 8.13616 6.84725C8.23011 6.94083 8.35737 6.99326 8.48998 6.993L9.82799 6.99098C9.89599 7.36898 10.037 7.72298 10.244 8.02998L9.13701 9.14C9.08403 9.18464 9.04089 9.2398 9.01036 9.30199C8.97983 9.36417 8.96257 9.43202 8.95964 9.50124C8.95672 9.57045 8.96822 9.63952 8.99339 9.70406C9.01857 9.7686 9.05686 9.82719 9.10588 9.87615C9.1549 9.9251 9.21355 9.96334 9.27812 9.98842C9.3427 10.0135 9.41179 10.0249 9.481 10.0219C9.55021 10.0188 9.61808 10.0015 9.68022 9.97084C9.74236 9.94022 9.79746 9.89702 9.84203 9.84398L10.945 8.743C11.258 8.96348 11.6141 9.11512 11.99 9.18797L11.988 10.489C11.9878 10.5547 12.0004 10.6197 12.0253 10.6805C12.0502 10.7412 12.0868 10.7965 12.133 10.8431C12.1793 10.8897 12.2342 10.9268 12.2948 10.9522C12.3553 10.9775 12.4203 10.9907 12.486 10.991C12.5517 10.9912 12.6167 10.9786 12.6775 10.9537C12.7382 10.9288 12.7935 10.8922 12.8401 10.846C12.8867 10.7997 12.9238 10.7448 12.9492 10.6842C12.9746 10.6236 12.9878 10.5587 12.988 10.493L12.99 9.18999C13.376 9.11999 13.735 8.97197 14.047 8.75697L15.131 9.84499C15.1766 9.89461 15.2318 9.93451 15.2932 9.96227C15.3546 9.99003 15.4211 10.0051 15.4885 10.0065C15.5558 10.008 15.6228 9.99576 15.6853 9.97066C15.7479 9.94555 15.8048 9.90806 15.8525 9.86043C15.9002 9.8128 15.9377 9.75605 15.9629 9.69353C15.9881 9.63101 16.0004 9.56402 15.999 9.49663C15.9977 9.42924 15.9827 9.36281 15.9551 9.30135C15.9274 9.23989 15.8876 9.18468 15.838 9.13899L14.754 8.049C14.971 7.73076 15.1183 7.37018 15.186 6.99098H16.492C16.6249 6.99098 16.7523 6.93821 16.8462 6.84425C16.9402 6.7503 16.993 6.62285 16.993 6.48998C16.993 6.3571 16.9402 6.22968 16.8462 6.13573C16.7523 6.04177 16.6249 5.989 16.492 5.989H15.18C15.1052 5.61726 14.9533 5.26533 14.734 4.95598L15.838 3.84999C15.9096 3.78058 15.9588 3.69133 15.9793 3.59374C15.9998 3.49614 15.9907 3.39467 15.953 3.30232C15.9154 3.20997 15.851 3.13096 15.7682 3.07549C15.6853 3.02001 15.5877 2.99059 15.488 2.99098C15.4214 2.99125 15.3555 3.00483 15.2942 3.03093C15.2329 3.05703 15.1774 3.09515 15.131 3.14299L14.021 4.25099C13.7099 4.0434 13.3592 3.90244 12.991 3.83699L12.986 2.497C12.9876 2.36473 12.9367 2.23719 12.8445 2.14235C12.7523 2.04751 12.6263 1.99309 12.494 1.99098C12.4933 1.99098 12.4927 1.99098 12.492 1.99098ZM12.49 5.28999C12.6476 5.28986 12.8037 5.32075 12.9493 5.38094C13.095 5.44112 13.2273 5.52943 13.3389 5.64076C13.4504 5.7521 13.5389 5.88429 13.5993 6.02983C13.6597 6.17537 13.6909 6.33141 13.691 6.489C13.6912 6.64659 13.6602 6.80265 13.6 6.94829C13.5398 7.09393 13.4516 7.22629 13.3403 7.33782C13.2289 7.44934 13.0967 7.53783 12.9512 7.59825C12.8056 7.65868 12.6496 7.68986 12.492 7.68999C12.1737 7.69025 11.8684 7.56408 11.6432 7.33922C11.4179 7.11436 11.2913 6.80924 11.291 6.49098C11.2907 6.17272 11.4169 5.8674 11.6418 5.64217C11.8666 5.41694 12.1717 5.29026 12.49 5.28999Z" fill="currentColor"/>
</svg>
