<svg width="20" height="20" viewBox="0 0 20 20" fill="none" xmlns="http://www.w3.org/2000/svg">
<path d="M12.504 12.996C12.6363 12.996 12.7633 12.9435 12.857 12.85L14.857 10.85C14.9036 10.8036 14.9405 10.7484 14.9658 10.6877C14.991 10.6269 15.004 10.5618 15.004 10.496L15.004 5.496C15.004 5.36339 14.9513 5.23622 14.8575 5.14246C14.7638 5.04869 14.6366 4.996 14.504 4.996L9.50399 4.996C9.43822 4.99602 9.37309 5.00902 9.31234 5.03424C9.2516 5.05947 9.19643 5.09642 9.14999 5.14301L7.14999 7.14301C7.05652 7.23671 7.00402 7.36365 7.00399 7.496V12.496C7.00399 12.6286 7.05668 12.7558 7.15045 12.8495C7.24422 12.9433 7.37139 12.996 7.50399 12.996L12.504 12.996Z" fill="currentColor"/>
<path d="M11.746 17.004C11.8117 17.0041 11.8768 16.9913 11.9375 16.9662C11.9983 16.9412 12.0535 16.9044 12.1 16.858L16.85 12.108C16.8964 12.0615 16.9332 12.0063 16.9582 11.9455C16.9833 11.8848 16.9961 11.8197 16.996 11.754L17.004 3.49798C17.0043 3.43199 16.9915 3.3666 16.9663 3.30557C16.9412 3.24455 16.9042 3.18909 16.8576 3.14242C16.8109 3.09576 16.7554 3.05879 16.6944 3.03366C16.6334 3.00853 16.568 2.99574 16.502 2.996L8.24599 3.004C8.18029 3.00388 8.11521 3.01673 8.05447 3.04178C7.99372 3.06683 7.93851 3.10359 7.89199 3.14999L3.14199 7.89999C3.09559 7.94651 3.05883 8.00173 3.03378 8.06247C3.00872 8.12321 2.99588 8.18829 2.99599 8.254L3.00399 16.498C3.00452 16.6299 3.05717 16.7563 3.15044 16.8495C3.24372 16.9428 3.37009 16.9955 3.50201 16.996L11.746 17.004ZM11.539 16.004L4.00201 15.998L3.99599 8.461L8.453 4.004L16.003 3.996L15.996 11.546L11.539 16.004Z" fill="currentColor"/>
</svg>
