<svg width="20" height="20" viewBox="0 0 20 20" fill="none" xmlns="http://www.w3.org/2000/svg">
<path d="M3.001 9.5V16.5H4.001V13.5H6.001V14.5H7.001V13.5H9.001V16.5H10.001V13.5H12.001V14.5H13.001V13.5H15.001V16.5H16.001V9.5H15.001V12.5H13.001V11.5H12.001V12.5H10.001V9.5H9.001V12.5H7.001V11.5H6.001V12.5H4.001V9.5H3.001Z" fill="currentColor"/>
<path d="M16.5 7.5C16.6326 7.5 16.7598 7.44731 16.8535 7.35355C16.9473 7.25978 17 7.13261 17 7V4C17 3.86739 16.9473 3.74022 16.8535 3.64645C16.7598 3.55269 16.6326 3.5 16.5 3.5L13.5 3.5C13.3674 3.5 13.2402 3.55269 13.1465 3.64645C13.0527 3.74022 13 3.86739 13 4V7C13 7.13261 13.0527 7.25978 13.1465 7.35355C13.2402 7.44731 13.3674 7.5 13.5 7.5H16.5Z" fill="currentColor"/>
</svg>
