<svg width="20" height="20" viewBox="0 0 20 20" fill="none" xmlns="http://www.w3.org/2000/svg">
<path d="M4.5 4C4.36739 4 4.24021 4.05269 4.14645 4.14645C4.05268 4.24022 4 4.36739 4 4.5V15.5C4 15.6326 4.05268 15.7598 4.14645 15.8535C4.24021 15.9473 4.36739 16 4.5 16H15.5C15.6326 16 15.7598 15.9473 15.8535 15.8535C15.9473 15.7598 16 15.6326 16 15.5V4.5C16 4.36739 15.9473 4.24022 15.8535 4.14645C15.7598 4.05269 15.6326 4 15.5 4H4.5ZM5 5H15V15H5V5Z" fill="currentColor"/>
<path d="M8.531 8C8.39839 8 8.27121 8.05269 8.17744 8.14645C8.08368 8.24022 8.031 8.36739 8.031 8.5V11.5C8.031 11.6326 8.08368 11.7598 8.17744 11.8535C8.27121 11.9473 8.39839 12 8.531 12H11.531C11.6636 12 11.7908 11.9473 11.8846 11.8535C11.9783 11.7598 12.031 11.6326 12.031 11.5V8.5C12.031 8.36739 11.9783 8.24022 11.8846 8.14645C11.7908 8.05269 11.6636 8 11.531 8H8.531Z" fill="currentColor"/>
</svg>
