<svg width="20" height="20" viewBox="0 0 20 20" fill="none" xmlns="http://www.w3.org/2000/svg">
<path d="M3.5 3C3.36739 3 3.24022 3.05269 3.14645 3.14645C3.05269 3.24022 3 3.36739 3 3.5V6.5C3 6.63261 3.05269 6.75978 3.14645 6.85355C3.24022 6.94731 3.36739 7 3.5 7H16.5C16.6326 7 16.7598 6.94731 16.8535 6.85355C16.9473 6.75978 17 6.63261 17 6.5V3.5C17 3.36739 16.9473 3.24022 16.8535 3.14645C16.7598 3.05269 16.6326 3 16.5 3H3.5ZM4 4H16V6H4V4ZM3.5 13C3.36739 13 3.24022 13.0527 3.14645 13.1465C3.05269 13.2402 3 13.3674 3 13.5V16.5C3 16.6326 3.05269 16.7598 3.14645 16.8535C3.24022 16.9473 3.36739 17 3.5 17H16.5C16.6326 17 16.7598 16.9473 16.8535 16.8535C16.9473 16.7598 17 16.6326 17 16.5V13.5C17 13.3674 16.9473 13.2402 16.8535 13.1465C16.7598 13.0527 16.6326 13 16.5 13H3.5ZM4 14H16V16H4V14Z" fill="currentColor"/>
<path d="M12 10C12 10.5304 11.7893 11.0391 11.4142 11.4142C11.0391 11.7893 10.5304 12 10 12C9.46957 12 8.96086 11.7893 8.58578 11.4142C8.21071 11.0391 8 10.5304 8 10C8 9.46957 8.21071 8.96086 8.58578 8.58578C8.96086 8.21071 9.46957 8 10 8C10.5304 8 11.0391 8.21071 11.4142 8.58578C11.7893 8.96086 12 9.46957 12 10Z" fill="currentColor"/>
</svg>
