<svg width="20" height="20" viewBox="0 0 20 20" fill="none" xmlns="http://www.w3.org/2000/svg">
<path d="M6.246 3C6.13935 3.00013 6.03553 3.03436 5.94971 3.09769C5.86389 3.16102 5.80057 3.25012 5.769 3.352L3.019 12.172C3.00395 12.2199 2.99619 12.2698 2.996 12.32V12.494C2.996 12.6266 3.04868 12.7538 3.14245 12.8476C3.23622 12.9413 3.36339 12.994 3.496 12.994C3.62861 12.994 3.75579 12.9413 3.84955 12.8476C3.94332 12.7538 3.996 12.6266 3.996 12.494V12.396L4.742 10C4.74333 10 4.74467 10 4.746 10H8.246C8.24733 10 8.24867 10 8.25 10L8.996 12.396V12.494C8.996 12.6266 9.04868 12.7538 9.14245 12.8476C9.23621 12.9413 9.36339 12.994 9.496 12.994C9.62861 12.994 9.75579 12.9413 9.84955 12.8476C9.94332 12.7538 9.996 12.6266 9.996 12.494V12.32C9.99581 12.2698 9.98805 12.2199 9.973 12.172L7.223 3.352C7.19143 3.25012 7.12811 3.16102 7.04229 3.09769C6.95648 3.03436 6.85266 3.00013 6.746 3H6.246ZM6.496 4.375L7.937 9H5.056L6.496 4.375Z" fill="currentColor"/>
<path d="M11.496 8C11.3634 8 11.2362 8.05268 11.1424 8.14645C11.0487 8.24021 10.996 8.36739 10.996 8.5C10.996 8.63261 11.0487 8.75979 11.1424 8.85355C11.2362 8.94732 11.3634 9 11.496 9H15.996V9.08L11.1 15.445C11.0326 15.5324 10.9961 15.6396 10.996 15.75V16.5C10.996 16.6326 11.0487 16.7598 11.1424 16.8536C11.2362 16.9473 11.3634 17 11.496 17H16.496C16.6286 17 16.7558 16.9473 16.8496 16.8536C16.9433 16.7598 16.996 16.6326 16.996 16.5C16.996 16.3674 16.9433 16.2402 16.8496 16.1464C16.7558 16.0527 16.6286 16 16.496 16H11.996V15.92L16.892 9.555C16.9594 9.4676 16.9959 9.36036 16.996 9.25V8.5C16.996 8.36739 16.9433 8.24021 16.8496 8.14645C16.7558 8.05268 16.6286 8 16.496 8H11.496Z" fill="currentColor"/>
</svg>
