<svg width="20" height="20" viewBox="0 0 20 20" fill="none" xmlns="http://www.w3.org/2000/svg">
<path d="M10 3C6.162 3 3.039 6.105 3.004 9.936C3.0013 9.95723 2.99996 9.9786 3 10C3 13.86 6.14 17 10 17L10.05 16.998C10.0533 16.9974 10.0567 16.9967 10.06 16.996C13.893 16.963 17 13.84 17 10L16.998 9.95001C16.9974 9.94667 16.9967 9.94333 16.996 9.94C16.9785 8.10621 16.2424 6.35244 14.9459 5.05551C13.6493 3.75858 11.8958 3.02198 10.062 3.004C10.0414 3.00138 10.0207 3.00005 10 3ZM10 4C13.32 4 16 6.68 16 10C16 10.17 15.914 10.365 15.652 10.604C15.39 10.842 14.964 11.09 14.416 11.301C13.319 11.723 11.743 12 10 12C9.34 12 8.71799 11.95 8.12299 11.877C8.04395 11.2544 8.00288 10.6276 8 10C8 8.257 8.27701 6.68001 8.70001 5.58401C8.91001 5.03602 9.158 4.60899 9.396 4.34799C9.635 4.08599 9.83 4 10 4ZM8.23599 4.26401C8.05126 4.56949 7.89398 4.89074 7.76599 5.224C7.28299 6.48 7 8.154 7 10C7 10.595 7.03799 11.162 7.094 11.713C6.58033 11.6168 6.07536 11.479 5.58402 11.301C5.03602 11.09 4.60899 10.841 4.34799 10.604C4.08599 10.365 4 10.17 4 10C3.99833 8.71623 4.40908 7.46586 5.17172 6.43317C5.93436 5.40047 7.00854 4.64007 8.23599 4.26401ZM4.26401 11.764C4.55101 11.937 4.866 12.096 5.224 12.234C5.81 12.459 6.49301 12.636 7.23401 12.766C7.34689 13.4514 7.52502 14.1245 7.76599 14.776C7.90399 15.134 8.06299 15.449 8.23599 15.736C7.29988 15.4487 6.44842 14.9364 5.75601 14.244C5.0636 13.5516 4.55134 12.7001 4.26401 11.764ZM15.736 11.764C15.3599 12.9915 14.5995 14.0656 13.5668 14.8283C12.5341 15.5909 11.2838 16.0017 10 16C9.83 16 9.635 15.914 9.396 15.652C9.158 15.39 8.91001 14.964 8.69901 14.416C8.52108 13.9246 8.38327 13.4197 8.28699 12.906C8.83699 12.962 9.405 13 10 13C11.847 13 13.52 12.717 14.775 12.234C15.1086 12.1061 15.4302 11.9488 15.736 11.764Z" fill="currentColor"/>
<path d="M10 7C8.153 7 6.48001 7.28299 5.22501 7.76599C4.59701 8.00699 4.07001 8.29601 3.67401 8.65601C3.27801 9.01601 3 9.479 3 10C3 10.1326 3.05269 10.2598 3.14645 10.3535C3.24022 10.4473 3.36739 10.5 3.5 10.5C3.63261 10.5 3.75978 10.4473 3.85355 10.3535C3.94731 10.2598 4 10.1326 4 10C4 9.83 4.08599 9.635 4.34799 9.396C4.60999 9.158 5.03602 8.91001 5.58401 8.69901C6.68102 8.27701 8.257 8 10 8C11.743 8 13.32 8.27701 14.416 8.70001C14.964 8.91001 15.391 9.158 15.652 9.396C15.914 9.635 16 9.83 16 10C16 10.1326 16.0527 10.2598 16.1465 10.3535C16.2402 10.4473 16.3674 10.5 16.5 10.5C16.6326 10.5 16.7598 10.4473 16.8535 10.3535C16.9473 10.2598 17 10.1326 17 10C17 9.48 16.722 9.01601 16.326 8.65601C15.93 8.29601 15.403 8.00699 14.776 7.76599C13.52 7.28299 11.846 7 10 7Z" fill="currentColor"/>
</svg>
