<svg width="20" height="20" viewBox="0 0 20 20" fill="none" xmlns="http://www.w3.org/2000/svg">
<path d="M7.5 3.5C7.36739 3.5 7.24021 3.55268 7.14645 3.64645C7.05268 3.74021 7 3.86739 7 4V7C7 7.13261 7.05268 7.25979 7.14645 7.35355C7.24021 7.44732 7.36739 7.5 7.5 7.5H10.5C10.6326 7.5 10.7598 7.44732 10.8536 7.35355C10.9473 7.25979 11 7.13261 11 7V4C11 3.86739 10.9473 3.74021 10.8536 3.64645C10.7598 3.55268 10.6326 3.5 10.5 3.5H7.5ZM8 4.5H10V6.5H8V4.5ZM12.5 9.5C12.3674 9.5 12.2402 9.55268 12.1464 9.64645C12.0527 9.74021 12 9.86739 12 10V13C12 13.1326 12.0527 13.2598 12.1464 13.3536C12.2402 13.4473 12.3674 13.5 12.5 13.5H15.5C15.6326 13.5 15.7598 13.4473 15.8536 13.3536C15.9473 13.2598 16 13.1326 16 13V10C16 9.86739 15.9473 9.74021 15.8536 9.64645C15.7598 9.55268 15.6326 9.5 15.5 9.5H12.5ZM13 10.5H15V12.5H13V10.5ZM4.5 12.5C4.36739 12.5 4.24021 12.5527 4.14645 12.6464C4.05268 12.7402 4 12.8674 4 13V16C4 16.1326 4.05268 16.2598 4.14645 16.3536C4.24021 16.4473 4.36739 16.5 4.5 16.5H7.5C7.63261 16.5 7.75979 16.4473 7.85355 16.3536C7.94732 16.2598 8 16.1326 8 16V13C8 12.8674 7.94732 12.7402 7.85355 12.6464C7.75979 12.5527 7.63261 12.5 7.5 12.5H4.5ZM5 13.5H7V15.5H5V13.5Z" fill="currentColor"/>
</svg>
