<svg width="20" height="20" viewBox="0 0 20 20" fill="none" xmlns="http://www.w3.org/2000/svg">
<path d="M13.5 3C13.3674 3 13.2402 3.05269 13.1465 3.14645C13.0527 3.24022 13 3.36739 13 3.5V6.5C13 6.63261 13.0527 6.75978 13.1465 6.85355C13.2402 6.94731 13.3674 7 13.5 7H16.5C16.6326 7 16.7598 6.94731 16.8535 6.85355C16.9473 6.75978 17 6.63261 17 6.5V3.5C17 3.36739 16.9473 3.24022 16.8535 3.14645C16.7598 3.05269 16.6326 3 16.5 3H13.5ZM14 4H16V6H14V4ZM3.5 13C3.36739 13 3.24022 13.0527 3.14645 13.1465C3.05269 13.2402 3 13.3674 3 13.5V16.5C3 16.6326 3.05269 16.7598 3.14645 16.8535C3.24022 16.9473 3.36739 17 3.5 17H6.5C6.63261 17 6.75978 16.9473 6.85355 16.8535C6.94731 16.7598 7 16.6326 7 16.5V13.5C7 13.3674 6.94731 13.2402 6.85355 13.1465C6.75978 13.0527 6.63261 13 6.5 13H3.5ZM4 14H6V16H4V14Z" fill="currentColor"/>
<path d="M6.492 5.99201C6.37581 5.99439 6.26406 6.03718 6.17599 6.11301C6.16919 6.11817 6.16253 6.1235 6.15601 6.129C6.1502 6.13453 6.14454 6.1402 6.13901 6.146C6.13833 6.14733 6.13765 6.14866 6.13699 6.15C6.1258 6.16083 6.11514 6.17218 6.10501 6.18401C6.10434 6.18534 6.10366 6.18667 6.103 6.18801C6.05914 6.24278 6.02733 6.30616 6.00958 6.37404C5.99184 6.44192 5.98856 6.51278 6 6.582V7.5C6 7.63261 6.05269 7.75978 6.14645 7.85355C6.24022 7.94732 6.36739 8 6.5 8C6.63261 8 6.75978 7.94732 6.85355 7.85355C6.94731 7.75978 7 7.63261 7 7.5V7H7.5C7.63261 7 7.75978 6.94732 7.85355 6.85355C7.94731 6.75978 8 6.63261 8 6.5C8 6.3674 7.94731 6.24023 7.85355 6.14646C7.75978 6.05269 7.63261 6 7.5 6H6.57999C6.55095 5.99474 6.52152 5.99207 6.492 5.99201ZM13.492 5.99201C13.4672 5.99283 13.4424 5.9955 13.418 6H12.5C12.3674 6 12.2402 6.05269 12.1465 6.14646C12.0527 6.24023 12 6.3674 12 6.5C12 6.63261 12.0527 6.75978 12.1465 6.85355C12.2402 6.94732 12.3674 7 12.5 7H13V7.5C13 7.63261 13.0527 7.75978 13.1465 7.85355C13.2402 7.94732 13.3674 8 13.5 8C13.6326 8 13.7598 7.94732 13.8535 7.85355C13.9473 7.75978 14 7.63261 14 7.5V6.58001C14.0116 6.5085 14.0074 6.43533 13.9879 6.36557C13.9684 6.29582 13.934 6.23113 13.887 6.176C13.8863 6.17466 13.8857 6.17333 13.885 6.172C13.8752 6.16054 13.8648 6.14954 13.854 6.13901C13.8527 6.13834 13.8513 6.13766 13.85 6.137C13.8392 6.12581 13.8278 6.11513 13.816 6.105C13.8147 6.10433 13.8133 6.10366 13.812 6.103C13.7215 6.0299 13.6083 5.99065 13.492 5.99201ZM9.5 6C9.36739 6 9.24022 6.05269 9.14645 6.14646C9.05269 6.24023 9 6.3674 9 6.5C9 6.63261 9.05269 6.75978 9.14645 6.85355C9.24022 6.94732 9.36739 7 9.5 7H10.5C10.6326 7 10.7598 6.94732 10.8535 6.85355C10.9473 6.75978 11 6.63261 11 6.5C11 6.3674 10.9473 6.24023 10.8535 6.14646C10.7598 6.05269 10.6326 6 10.5 6H9.5ZM6.492 8.99201C6.42634 8.99305 6.36153 9.00702 6.30127 9.03311C6.241 9.05921 6.18647 9.09692 6.14078 9.14409C6.09509 9.19127 6.05913 9.24698 6.03497 9.30805C6.01082 9.36912 5.99894 9.43434 6 9.5V10.5C6 10.6326 6.05269 10.7598 6.14645 10.8535C6.24022 10.9473 6.36739 11 6.5 11C6.63261 11 6.75978 10.9473 6.85355 10.8535C6.94731 10.7598 7 10.6326 7 10.5V9.5C7.00108 9.43299 6.98868 9.36645 6.96353 9.30432C6.93838 9.2422 6.901 9.18577 6.85361 9.13839C6.80622 9.091 6.7498 9.05362 6.68768 9.02848C6.62556 9.00333 6.55901 8.99093 6.492 8.99201ZM13.492 8.99201C13.4263 8.99305 13.3615 9.00702 13.3013 9.03311C13.241 9.05921 13.1865 9.09692 13.1408 9.14409C13.0951 9.19127 13.0591 9.24698 13.035 9.30805C13.0108 9.36912 12.9989 9.43434 13 9.5V10.5C13 10.6326 13.0527 10.7598 13.1465 10.8535C13.2402 10.9473 13.3674 11 13.5 11C13.6326 11 13.7598 10.9473 13.8535 10.8535C13.9473 10.7598 14 10.6326 14 10.5V9.5C14.0011 9.43299 13.9887 9.36645 13.9635 9.30432C13.9384 9.2422 13.901 9.18577 13.8536 9.13839C13.8062 9.091 13.7498 9.05362 13.6877 9.02848C13.6256 9.00333 13.559 8.99093 13.492 8.99201ZM6.492 11.992C6.42634 11.9931 6.36153 12.007 6.30127 12.0331C6.241 12.0592 6.18647 12.0969 6.14078 12.1441C6.09509 12.1913 6.05913 12.247 6.03497 12.308C6.01082 12.3691 5.99894 12.4343 6 12.5V13.42C5.98845 13.4915 5.99257 13.5647 6.01208 13.6344C6.0316 13.7042 6.06603 13.7689 6.11301 13.824C6.11817 13.8308 6.12349 13.8375 6.129 13.844C6.13453 13.8498 6.14019 13.8555 6.146 13.861C6.14733 13.8617 6.14866 13.8623 6.14999 13.863C6.16082 13.8742 6.17216 13.8849 6.18399 13.895C6.18532 13.8957 6.18665 13.8963 6.18799 13.897C6.24276 13.9409 6.30614 13.9727 6.37402 13.9904C6.4419 14.0082 6.51278 14.0114 6.582 14H7.5C7.63261 14 7.75978 13.9473 7.85355 13.8535C7.94731 13.7598 8 13.6326 8 13.5C8 13.3674 7.94731 13.2402 7.85355 13.1465C7.75978 13.0527 7.63261 13 7.5 13H7V12.5C7.00108 12.433 6.98868 12.3664 6.96353 12.3043C6.93838 12.2422 6.901 12.1858 6.85361 12.1384C6.80622 12.091 6.7498 12.0536 6.68768 12.0285C6.62556 12.0033 6.55901 11.9909 6.492 11.992ZM13.492 11.992C13.4263 11.9931 13.3615 12.007 13.3013 12.0331C13.241 12.0592 13.1865 12.0969 13.1408 12.1441C13.0951 12.1913 13.0591 12.247 13.035 12.308C13.0108 12.3691 12.9989 12.4343 13 12.5V13H12.5C12.3674 13 12.2402 13.0527 12.1465 13.1465C12.0527 13.2402 12 13.3674 12 13.5C12 13.6326 12.0527 13.7598 12.1465 13.8535C12.2402 13.9473 12.3674 14 12.5 14H13.42C13.4915 14.0116 13.5647 14.0074 13.6344 13.9879C13.7042 13.9684 13.7689 13.934 13.824 13.887C13.8253 13.8863 13.8267 13.8857 13.828 13.885C13.8395 13.8752 13.8505 13.8648 13.861 13.854C13.8617 13.8527 13.8623 13.8513 13.863 13.85C13.8742 13.8392 13.8849 13.8278 13.895 13.816C13.8957 13.8147 13.8963 13.8133 13.897 13.812C13.9409 13.7572 13.9727 13.6938 13.9904 13.626C14.0082 13.5581 14.0114 13.4872 14 13.418V12.5C14.0011 12.433 13.9887 12.3664 13.9635 12.3043C13.9384 12.2422 13.901 12.1858 13.8536 12.1384C13.8062 12.091 13.7498 12.0536 13.6877 12.0285C13.6256 12.0033 13.559 11.9909 13.492 11.992ZM9.5 13C9.36739 13 9.24022 13.0527 9.14645 13.1465C9.05269 13.2402 9 13.3674 9 13.5C9 13.6326 9.05269 13.7598 9.14645 13.8535C9.24022 13.9473 9.36739 14 9.5 14H10.5C10.6326 14 10.7598 13.9473 10.8535 13.8535C10.9473 13.7598 11 13.6326 11 13.5C11 13.3674 10.9473 13.2402 10.8535 13.1465C10.7598 13.0527 10.6326 13 10.5 13H9.5Z" fill="currentColor"/>
</svg>
