<svg width="20" height="20" viewBox="0 0 20 20" fill="none" xmlns="http://www.w3.org/2000/svg">
<path d="M4.5 3C3.678 3 3 3.678 3 4.5C3 5.323 3.678 6 4.5 6C5.147 6 5.698 5.579 5.906 5H7.094C7.302 5.579 7.854 6 8.5 6C9.322 6 10 5.323 10 4.5C10 3.678 9.322 3 8.5 3C7.854 3 7.303 3.422 7.094 4H5.906C5.697 3.422 5.146 3 4.5 3ZM15.5 3C14.854 3 14.303 3.422 14.094 4H13.5C13.4343 3.99988 13.3692 4.01272 13.3085 4.03777C13.2477 4.06282 13.1925 4.0996 13.146 4.146L9.293 8H5.906C5.697 7.422 5.146 7 4.5 7C3.678 7 3 7.678 3 8.5C3 9.323 3.678 10 4.5 10C5.147 10 5.698 9.579 5.906 9H9.5C9.5657 9.00012 9.63079 8.98728 9.69153 8.96223C9.75227 8.93718 9.80748 8.9004 9.854 8.854L13.707 5H14.094C14.302 5.579 14.854 6 15.5 6C16.323 6 17 5.323 17 4.5C17 3.678 16.323 3 15.5 3ZM4.5 4C4.62709 3.99885 4.74965 4.04712 4.84182 4.13462C4.93399 4.22213 4.98856 4.34202 4.994 4.469C4.99272 4.48965 4.99272 4.51035 4.994 4.531C4.98856 4.65798 4.93399 4.77787 4.84182 4.86538C4.74965 4.95288 4.62709 5.00115 4.5 5C4.43408 5.00094 4.36864 4.98865 4.30755 4.96386C4.24646 4.93907 4.19096 4.90227 4.14435 4.85565C4.09773 4.80904 4.06093 4.75354 4.03614 4.69245C4.01135 4.63136 3.99906 4.56592 4 4.5C4 4.218 4.218 4 4.5 4ZM8.5 4C8.782 4 9 4.218 9 4.5C9 4.782 8.782 5 8.5 5C8.37291 5.00115 8.25035 4.95288 8.15818 4.86538C8.06601 4.77787 8.01144 4.65798 8.006 4.531C8.00728 4.51035 8.00728 4.48965 8.006 4.469C8.01144 4.34202 8.06601 4.22213 8.15818 4.13462C8.25035 4.04712 8.37291 3.99885 8.5 4ZM15.5 4C15.782 4 16 4.218 16 4.5C16 4.782 15.782 5 15.5 5C15.3729 5.00115 15.2503 4.95288 15.1582 4.86538C15.066 4.77787 15.0114 4.65798 15.006 4.531C15.0073 4.51035 15.0073 4.48965 15.006 4.469C15.0114 4.34202 15.066 4.22213 15.1582 4.13462C15.2503 4.04712 15.3729 3.99885 15.5 4ZM15.5 7C14.854 7 14.303 7.422 14.094 8H13.5C13.4343 7.99988 13.3692 8.01272 13.3085 8.03777C13.2477 8.06282 13.1925 8.0996 13.146 8.146L8.146 13.146C8.0996 13.1925 8.06282 13.2477 8.03777 13.3085C8.01272 13.3692 7.99988 13.4343 8 13.5V14.094C7.421 14.302 7 14.854 7 15.5C7 16.323 7.678 17 8.5 17C9.322 17 10 16.323 10 15.5C10 14.853 9.579 14.302 9 14.094V13.707L13.707 9H14.094C14.302 9.579 14.854 10 15.5 10C16.323 10 17 9.323 17 8.5C17 7.678 16.323 7 15.5 7ZM4.5 8C4.782 8 5 8.218 5 8.5C5 8.782 4.782 9 4.5 9C4.43408 9.00094 4.36864 8.98865 4.30755 8.96386C4.24646 8.93907 4.19096 8.90227 4.14435 8.85565C4.09773 8.80904 4.06093 8.75354 4.03614 8.69245C4.01135 8.63136 3.99906 8.56592 4 8.5C4 8.218 4.218 8 4.5 8ZM15.5 8C15.782 8 16 8.218 16 8.5C16 8.782 15.782 9 15.5 9C15.3729 9.00115 15.2503 8.95288 15.1582 8.86538C15.066 8.77787 15.0114 8.65798 15.006 8.531C15.0073 8.51035 15.0073 8.48965 15.006 8.469C15.0114 8.34202 15.066 8.22213 15.1582 8.13462C15.2503 8.04712 15.3729 7.99885 15.5 8ZM4.5 11C3.678 11 3 11.678 3 12.5C3 13.323 3.678 14 4.5 14C5.322 14 6 13.323 6 12.5C6 11.678 5.322 11 4.5 11ZM15.5 11C14.677 11 14 11.677 14 12.5C14 12.73 14.058 12.947 14.152 13.143C14.15 13.1443 14.148 13.1457 14.146 13.147L13.146 14.147C13.1447 14.149 13.1433 14.151 13.142 14.153C12.9424 14.054 12.7228 14.0017 12.5 14C11.678 14 11 14.678 11 15.5C11 16.323 11.677 17 12.5 17C13.323 17 14 16.323 14 15.5C14 15.27 13.942 15.055 13.848 14.86C13.85 14.8577 13.852 14.8554 13.854 14.853L14.854 13.853C14.8553 13.8517 14.8567 13.8503 14.858 13.849C15.053 13.944 15.27 14 15.5 14C16.323 14 17 13.323 17 12.5C17 11.678 16.323 11 15.5 11ZM4.5 12C4.782 12 5 12.218 5 12.5C5 12.782 4.782 13 4.5 13C4.43408 13.0009 4.36864 12.9887 4.30755 12.9639C4.24646 12.9391 4.19096 12.9023 4.14435 12.8557C4.09773 12.809 4.06093 12.7535 4.03614 12.6925C4.01135 12.6314 3.99906 12.5659 4 12.5C4 12.218 4.218 12 4.5 12ZM15.5 12C15.782 12 16 12.218 16 12.5C16 12.782 15.782 13 15.5 13C15.4341 13.0009 15.3686 12.9887 15.3075 12.9639C15.2465 12.9391 15.191 12.9023 15.1443 12.8557C15.0977 12.809 15.0609 12.7535 15.0361 12.6925C15.0113 12.6314 14.9991 12.5659 15 12.5C15 12.218 15.218 12 15.5 12ZM12.5 15C12.782 15 13 15.218 13 15.5C13 15.782 12.782 16 12.5 16C12.4341 16.0009 12.3686 15.9887 12.3075 15.9639C12.2465 15.9391 12.191 15.9023 12.1443 15.8557C12.0977 15.809 12.0609 15.7535 12.0361 15.6925C12.0113 15.6314 11.9991 15.5659 12 15.5C12 15.218 12.218 15 12.5 15ZM8.47 15.006C8.48266 15.0065 8.49534 15.0065 8.508 15.006C8.51367 15.0061 8.51933 15.0061 8.525 15.006C8.65312 15.0097 8.77468 15.0635 8.86351 15.1559C8.95235 15.2483 9.00136 15.3718 9 15.5C9 15.782 8.782 16 8.5 16C8.43408 16.0009 8.36864 15.9887 8.30755 15.9639C8.24646 15.9391 8.19096 15.9023 8.14435 15.8557C8.09773 15.809 8.06093 15.7535 8.03614 15.6925C8.01135 15.6314 7.99906 15.5659 8 15.5C7.99886 15.3727 8.04726 15.25 8.13498 15.1578C8.2227 15.0656 8.34285 15.0112 8.47 15.006Z" fill="currentColor"/>
</svg>
