<svg width="20" height="20" viewBox="0 0 20 20" fill="none" xmlns="http://www.w3.org/2000/svg">
<path d="M4.5 3C4.36739 3 4.24025 3.05272 4.14648 3.14648C4.05272 3.24025 4 3.36739 4 3.5V16.5C4 16.6326 4.05272 16.7597 4.14648 16.8535C4.24025 16.9473 4.36739 17 4.5 17H5V15H6V17H15.5C15.6326 17 15.7597 16.9473 15.8535 16.8535C15.9473 16.7597 16 16.6326 16 16.5V3.5C16 3.36739 15.9473 3.24025 15.8535 3.14648C15.7597 3.05272 15.6326 3 15.5 3H6V5H5V3H4.5ZM8 5H14V6H8V5ZM5 6H6V8H5V6ZM8 7H14V8H8V7ZM5 9H6V11H5V9ZM8 9H14V10H8V9ZM8 11H12V12H8V11ZM5 12H6V14H5V12Z" fill="currentColor"/>
</svg>
