<svg width="20" height="20" viewBox="0 0 20 20" fill="none" xmlns="http://www.w3.org/2000/svg">
<path d="M4 4V7H7V4H4ZM7 7V10H10V7H7ZM10 7H13V4H10V7ZM13 7V10H16V7H13ZM13 10H10V13H13V10ZM13 13V16H16V13H13ZM10 13H7V16H10V13ZM7 13V10H4V13H7Z" fill="currentColor"/>
<path d="M3.5 3C3.36739 3 3.24021 3.05266 3.14645 3.14642C3.05268 3.24019 3 3.36739 3 3.5V16.5C3 16.6326 3.05268 16.7598 3.14645 16.8536C3.24021 16.9473 3.36739 17 3.5 17H16.5C16.6326 17 16.7598 16.9473 16.8536 16.8536C16.9473 16.7598 17 16.6326 17 16.5V3.5C17 3.36739 16.9473 3.24019 16.8536 3.14642C16.7598 3.05266 16.6326 3 16.5 3H3.5ZM4 4H16V16H4V4Z" fill="currentColor"/>
</svg>
