<svg width="20" height="20" viewBox="0 0 20 20" fill="none" xmlns="http://www.w3.org/2000/svg">
<path d="M11.064 2.99298C10.729 3.31758 10.4627 3.70607 10.2806 4.1355C10.0985 4.56492 10.0044 5.02655 10.004 5.49298C10.004 6.99298 10.754 7.993 12.004 8.638V15.493C11.975 17.522 15.033 17.522 15.004 15.493V8.63995C16.294 7.97395 17.004 6.99298 17.004 5.49298C17.004 4.51398 16.596 3.62898 15.944 2.99298H15.004V5.99298L14.004 6.99298H13.004L12.004 5.99298V2.99298H11.064ZM13.004 14.993H14.004V15.993H13.004V14.993Z" fill="currentColor"/>
<path d="M6.00401 8.99298V3.49298C6.00401 3.36037 5.95132 3.23317 5.85756 3.1394C5.76379 3.04564 5.63662 2.99298 5.50401 2.99298C5.3714 2.99298 5.24423 3.04564 5.15046 3.1394C5.05669 3.23317 5.00401 3.36037 5.00401 3.49298V8.99298H6.00401ZM6.75401 10.993H7.50401C8.18001 11.003 8.18001 9.98298 7.50401 9.99298H3.50401C2.82801 9.98298 2.82801 11.003 3.50401 10.993H4.25401V11.993C3.50401 11.993 3.00401 12.493 3.00401 13.243V14.493C3.00401 15.278 3.31601 15.933 3.78901 16.36C4.25708 16.7733 4.86157 16.9988 5.486 16.993C6.096 16.993 6.716 16.789 7.197 16.364C7.679 15.94 8.00401 15.283 8.00401 14.493V13.243C8.00401 12.493 7.50401 11.993 6.75401 11.993V10.993Z" fill="currentColor"/>
</svg>
