<svg width="20" height="20" viewBox="0 0 20 20" fill="none" xmlns="http://www.w3.org/2000/svg">
<path d="M3 3V5H5V3H3ZM5 5V7H7V5H5ZM7 5H9V3H7V5ZM9 5V7H11V5H9ZM11 5H13V3H11V5ZM13 5V7H15V5H13ZM15 5H17V3H15V5ZM15 7V9H17V7H15ZM5 9V7H3V9H5ZM7 9H9V7H7V9ZM11 9H13V7H11V9Z" fill="currentColor"/>
<path d="M3 10V13.5C3 13.8978 3.15803 14.2794 3.43934 14.5607C3.72064 14.842 4.10218 15 4.5 15C4.89782 15 5.27936 14.842 5.56066 14.5607C5.84197 14.2794 6 13.8978 6 13.5V13C6 12.5 6.534 12 7 12C7.26522 12 7.51957 12.1054 7.70711 12.2929C7.89464 12.4804 8 12.7348 8 13V15.5C8 15.8978 8.15803 16.2794 8.43934 16.5607C8.72064 16.842 9.10218 17 9.5 17C9.89782 17 10.2794 16.842 10.5607 16.5607C10.842 16.2794 11 15.8978 11 15.5V14C11 13.7348 11.1054 13.4804 11.2929 13.2929C11.4804 13.1054 11.7348 13 12 13C12.2652 13 12.5196 12.8946 12.7071 12.7071C12.8946 12.5196 13 12.2652 13 12V10H5H3Z" fill="currentColor"/>
</svg>
