<svg width="20" height="20" viewBox="0 0 20 20" fill="none" xmlns="http://www.w3.org/2000/svg">
<path d="M16.508 6.49298C16.6404 6.49509 16.7666 6.54966 16.8589 6.64472C16.9511 6.73977 17.0019 6.86754 17 6.99998V13C17 13.1326 16.9473 13.2598 16.8536 13.3535C16.7598 13.4473 16.6326 13.5 16.5 13.5C16.3674 13.5 16.2402 13.4473 16.1464 13.3535C16.0527 13.2598 16 13.1326 16 13V10.075C15.9804 10.1929 15.9192 10.3 15.8275 10.3766C15.7357 10.4533 15.6196 10.4946 15.5 10.493H14.5C14.3674 10.493 14.2402 10.4403 14.1464 10.3465C14.0527 10.2528 14 10.1256 14 9.99298C14 9.86038 14.0527 9.7332 14.1464 9.63943C14.2402 9.54566 14.3674 9.49298 14.5 9.49298H15.5C15.62 9.49148 15.7365 9.53318 15.8283 9.61047C15.9201 9.68776 15.981 9.79549 16 9.91398V6.99998C15.9991 6.93306 16.0116 6.86662 16.0368 6.80462C16.062 6.74261 16.0994 6.6863 16.1467 6.63902C16.1941 6.59174 16.2505 6.55445 16.3126 6.52936C16.3746 6.50428 16.4411 6.49191 16.508 6.49298ZM3.508 6.49298C3.64044 6.49509 3.76663 6.54966 3.85887 6.64472C3.95111 6.73977 4.00187 6.86754 4 6.99998V13C4 13.1326 3.94732 13.2598 3.85355 13.3535C3.75979 13.4473 3.63261 13.5 3.5 13.5C3.36739 13.5 3.24021 13.4473 3.14645 13.3535C3.05268 13.2598 3 13.1326 3 13V6.99998C2.99905 6.93306 3.01156 6.86662 3.03676 6.80462C3.06197 6.74261 3.09937 6.6863 3.14675 6.63902C3.19412 6.59174 3.25051 6.55445 3.31256 6.52936C3.37462 6.50428 3.44108 6.49191 3.508 6.49298ZM8.506 6.49498C8.60555 6.49499 8.70283 6.52471 8.78539 6.58034C8.86794 6.63597 8.93201 6.71498 8.96939 6.80724C9.00677 6.89951 9.01576 7.00083 8.9952 7.09824C8.97464 7.19564 8.92548 7.28469 8.854 7.35398L6.207 9.99998L8.854 12.647C8.90042 12.6935 8.93723 12.7486 8.96233 12.8094C8.98743 12.8701 9.00032 12.9351 9.00028 13.0008C9.00023 13.0665 8.98725 13.1316 8.96206 13.1923C8.93688 13.2529 8.89999 13.3081 8.8535 13.3545C8.80701 13.4009 8.75184 13.4377 8.69112 13.4628C8.63041 13.4879 8.56534 13.5008 8.49965 13.5008C8.43395 13.5007 8.3689 13.4877 8.30823 13.4625C8.24755 13.4374 8.19242 13.4005 8.146 13.354L5.146 10.354C5.05226 10.2602 4.99961 10.1331 4.99961 10.0005C4.99961 9.8679 5.05226 9.74075 5.146 9.64699L8.146 6.64698C8.19273 6.59878 8.24869 6.56047 8.31054 6.53436C8.37239 6.50824 8.43886 6.49485 8.506 6.49498ZM12.5 9.49998C12.6326 9.49998 12.7598 9.55266 12.8536 9.64643C12.9473 9.7402 13 9.86738 13 9.99998C13 10.1326 12.9473 10.2598 12.8536 10.3535C12.7598 10.4473 12.6326 10.5 12.5 10.5H11.5C11.3674 10.5 11.2402 10.4473 11.1464 10.3535C11.0527 10.2598 11 10.1326 11 9.99998C11 9.86738 11.0527 9.7402 11.1464 9.64643C11.2402 9.55266 11.3674 9.49998 11.5 9.49998H12.5ZM9.5 9.49998C9.63261 9.49998 9.75979 9.55266 9.85355 9.64643C9.94732 9.7402 10 9.86738 10 9.99998C10 10.1326 9.94732 10.2598 9.85355 10.3535C9.75979 10.4473 9.63261 10.5 9.5 10.5H8.5C8.36739 10.5 8.24021 10.4473 8.14645 10.3535C8.05268 10.2598 8 10.1326 8 9.99998C8 9.86738 8.05268 9.7402 8.14645 9.64643C8.24021 9.55266 8.36739 9.49998 8.5 9.49998H9.5Z" fill="currentColor"/>
</svg>
