<svg width="20" height="20" viewBox="0 0 20 20" fill="none" xmlns="http://www.w3.org/2000/svg">
<path d="M7 14.997C7 16.097 6.1 16.999 5 16.999C3.9 16.999 3 16.097 3 14.997C3 13.897 3.9 12.993 5 12.993C6.1 12.993 7 13.897 7 14.997ZM6 14.997C6.00119 14.8651 5.97617 14.7344 5.92639 14.6123C5.87661 14.4902 5.80307 14.3792 5.71002 14.2858C5.61698 14.1924 5.50629 14.1184 5.3844 14.0681C5.26251 14.0178 5.13185 13.9923 5 13.993C4.442 13.993 4 14.437 4 14.997C3.9988 15.1287 4.02383 15.2594 4.07364 15.3814C4.12344 15.5034 4.19703 15.6142 4.2901 15.7075C4.38317 15.8007 4.49387 15.8745 4.61575 15.9246C4.73763 15.9746 4.86825 15.9999 5 15.999C5.558 15.999 6 15.557 6 14.997ZM17 4.99698C16.9974 5.52623 16.7857 6.03299 16.4111 6.40686C16.0365 6.78073 15.5293 6.9914 15 6.99298C13.902 6.99298 13 6.09398 13 4.99698C13 3.89998 13.902 3.00098 15 3.00098C16.098 3.00098 17 3.89998 17 4.99698Z" fill="currentColor"/>
<path d="M9.49599 3.99799C9.36338 3.99799 9.23621 4.05064 9.14245 4.14441C9.04868 4.23818 8.99599 4.36538 8.99599 4.49799C8.99599 4.63059 9.04868 4.75773 9.14245 4.8515C9.23621 4.94527 9.36338 4.99799 9.49599 4.99799H11.496C11.6286 4.99799 11.7558 4.94527 11.8495 4.8515C11.9433 4.75773 11.996 4.63059 11.996 4.49799C11.996 4.36538 11.9433 4.23818 11.8495 4.14441C11.7558 4.05064 11.6286 3.99799 11.496 3.99799H9.49599ZM7.48598 4.99194C7.35625 4.99617 7.23327 5.05072 7.14299 5.14398L6.14299 6.14398C6.09524 6.19011 6.05714 6.24527 6.03093 6.30627C6.00473 6.36728 5.99095 6.43288 5.99038 6.49927C5.9898 6.56566 6.00244 6.63148 6.02758 6.69293C6.05272 6.75438 6.08985 6.81023 6.1368 6.85718C6.18375 6.90412 6.23957 6.94123 6.30102 6.96637C6.36246 6.99151 6.42829 7.00418 6.49468 7.0036C6.56107 7.00302 6.6267 6.98922 6.6877 6.96301C6.74871 6.93681 6.80387 6.89871 6.85 6.85095L7.85 5.85095C7.92255 5.78073 7.97214 5.6902 7.99224 5.59125C8.01234 5.4923 8.002 5.3896 7.96261 5.29663C7.92321 5.20366 7.85661 5.12475 7.77154 5.07037C7.68646 5.01599 7.5869 4.98866 7.48598 4.99194ZM6.484 7.99194C6.38432 7.99194 6.28693 8.02176 6.2043 8.07751C6.12168 8.13327 6.05758 8.21244 6.02028 8.30487C5.98299 8.39731 5.97419 8.49877 5.99498 8.59625C6.01578 8.69374 6.06522 8.78276 6.13698 8.85193L7.13698 9.85193C7.23087 9.94568 7.35815 9.99832 7.49083 9.99823C7.62352 9.99814 7.75075 9.94533 7.8445 9.85144C7.93826 9.75755 7.99087 9.6303 7.99077 9.49762C7.99068 9.36494 7.93787 9.23774 7.84398 9.14398L6.84398 8.14398C6.79726 8.09577 6.74131 8.05743 6.67946 8.03131C6.61761 8.0052 6.55114 7.99181 6.484 7.99194ZM9.49599 9.99799C9.36338 9.99799 9.23621 10.0506 9.14245 10.1444C9.04868 10.2382 8.99599 10.3654 8.99599 10.498C8.99599 10.6306 9.04868 10.7577 9.14245 10.8515C9.23621 10.9453 9.36338 10.998 9.49599 10.998H10.496C10.6286 10.998 10.7558 10.9453 10.8495 10.8515C10.9433 10.7577 10.996 10.6306 10.996 10.498C10.996 10.3654 10.9433 10.2382 10.8495 10.1444C10.7558 10.0506 10.6286 9.99799 10.496 9.99799H9.49599ZM12.492 10.9919C12.3921 10.9913 12.2942 11.0207 12.2111 11.0762C12.1281 11.1318 12.0635 11.2109 12.0258 11.3035C11.9882 11.396 11.9791 11.4978 11.9998 11.5955C12.0205 11.6933 12.07 11.7826 12.142 11.8519L13.142 12.8519C13.1885 12.8984 13.2437 12.9354 13.3044 12.9605C13.3651 12.9857 13.4302 12.9986 13.496 12.9986C13.5617 12.9986 13.6268 12.9857 13.6876 12.9605C13.7483 12.9354 13.8035 12.8984 13.85 12.8519C13.8965 12.8054 13.9334 12.7503 13.9585 12.6895C13.9837 12.6288 13.9966 12.5637 13.9966 12.498C13.9966 12.4322 13.9837 12.3671 13.9585 12.3064C13.9334 12.2457 13.8965 12.1905 13.85 12.144L12.85 11.144C12.8035 11.096 12.7478 11.0578 12.6864 11.0317C12.6249 11.0056 12.5588 10.9921 12.492 10.9919ZM13.486 13.9919C13.3563 13.9962 13.2333 14.0507 13.143 14.144L12.143 15.144C12.0952 15.1901 12.0571 15.2453 12.0309 15.3063C12.0047 15.3673 11.991 15.4329 11.9904 15.4993C11.9898 15.5657 12.0024 15.6315 12.0276 15.6929C12.0527 15.7544 12.0899 15.8102 12.1368 15.8572C12.1837 15.9041 12.2396 15.9412 12.301 15.9664C12.3625 15.9915 12.4283 16.0042 12.4947 16.0036C12.5611 16.003 12.6267 15.9892 12.6877 15.963C12.7487 15.9368 12.8039 15.8987 12.85 15.851L13.85 14.851C13.9225 14.7807 13.9721 14.6902 13.9922 14.5912C14.0123 14.4923 14.002 14.3896 13.9626 14.2966C13.9232 14.2037 13.8566 14.1248 13.7715 14.0704C13.6865 14.016 13.5869 13.9887 13.486 13.9919ZM8.48998 14.998C8.35737 14.998 8.2302 15.0506 8.13643 15.1444C8.04267 15.2382 7.98998 15.3654 7.98998 15.498C7.98998 15.6306 8.04267 15.7577 8.13643 15.8515C8.2302 15.9453 8.35737 15.998 8.48998 15.998H10.49C10.6226 15.998 10.7498 15.9453 10.8436 15.8515C10.9373 15.7577 10.99 15.6306 10.99 15.498C10.99 15.3654 10.9373 15.2382 10.8436 15.1444C10.7498 15.0506 10.6226 14.998 10.49 14.998H8.48998Z" fill="currentColor"/>
</svg>
