<svg width="20" height="20" viewBox="0 0 20 20" fill="none" xmlns="http://www.w3.org/2000/svg">
<path d="M13.494 3.99701C13.3942 3.99681 13.2967 4.02645 13.2139 4.08213C13.1312 4.13781 13.0669 4.21698 13.0295 4.30946C12.9921 4.40193 12.9832 4.50348 13.0039 4.60106C13.0247 4.69864 13.0742 4.78777 13.146 4.857L15.793 7.50301L13.146 10.149C12.656 10.621 13.382 11.347 13.854 10.857L16.854 7.857C16.9006 7.81056 16.9375 7.75539 16.9627 7.69464C16.9879 7.6339 17.0009 7.56877 17.0009 7.50301C17.0009 7.43724 16.9879 7.37212 16.9627 7.31137C16.9375 7.25063 16.9006 7.19546 16.854 7.14901L13.854 4.14901C13.8073 4.1008 13.7513 4.06249 13.6895 4.03638C13.6276 4.01026 13.5611 3.99688 13.494 3.99701ZM4.492 7.00301C4.42634 7.00405 4.36152 7.01802 4.30125 7.04411C4.24099 7.07021 4.18647 7.10792 4.14078 7.15509C4.09509 7.20227 4.05914 7.25798 4.03499 7.31905C4.01083 7.38012 3.99894 7.44535 4 7.51101V8.51101C3.99 9.18701 5.01 9.18701 5 8.51101V7.51101C5.00108 7.444 4.98868 7.37745 4.96353 7.31533C4.93838 7.25321 4.90101 7.19678 4.85362 7.14939C4.80623 7.102 4.74979 7.06462 4.68767 7.03948C4.62555 7.01433 4.55901 7.00193 4.492 7.00301ZM9.5 7.00301C8.824 6.99301 8.824 8.01301 9.5 8.00301H10.5C11.176 8.01301 11.176 6.99301 10.5 7.00301H9.5ZM12.5 7.00301C11.824 6.99301 11.824 8.01301 12.5 8.00301H13.5C14.176 8.01301 14.176 6.99301 13.5 7.00301H12.5ZM6.5 7.01101C5.824 7.00101 5.824 8.02101 6.5 8.01101H7.5C8.176 8.02101 8.176 7.00101 7.5 7.01101H6.5ZM4.492 10.003C4.42634 10.004 4.36152 10.018 4.30125 10.0441C4.24099 10.0702 4.18647 10.1079 4.14078 10.1551C4.09509 10.2023 4.05914 10.258 4.03499 10.319C4.01083 10.3801 3.99894 10.4453 4 10.511V11.511C3.99 12.187 5.01 12.187 5 11.511V10.511C5.00108 10.444 4.98868 10.3775 4.96353 10.3153C4.93838 10.2532 4.90101 10.1968 4.85362 10.1494C4.80623 10.102 4.74979 10.0646 4.68767 10.0395C4.62555 10.0143 4.55901 10.0019 4.492 10.003ZM4.5 13.003C3.677 13.003 3 13.68 3 14.503C3 15.326 3.677 16.003 4.5 16.003C5.323 16.003 6 15.326 6 14.503C6 13.68 5.323 13.003 4.5 13.003Z" fill="currentColor"/>
</svg>
