<svg width="20" height="20" viewBox="0 0 20 20" fill="none" xmlns="http://www.w3.org/2000/svg">
<path d="M4 3C3.86739 3 3.74021 3.05268 3.64645 3.14645C3.55268 3.24021 3.5 3.36739 3.5 3.5C3.5 3.63261 3.55268 3.75979 3.64645 3.85355C3.74021 3.94732 3.86739 4 4 4H5.508V10.004C5.508 12.204 7.306 13.996 9.508 14H10.508C10.5087 14 10.5093 14 10.51 14C12.712 13.995 14.508 12.204 14.508 10.004V4H16C16.1326 4 16.2598 3.94732 16.3536 3.85355C16.4473 3.75979 16.5 3.63261 16.5 3.5C16.5 3.36739 16.4473 3.24021 16.3536 3.14645C16.2598 3.05268 16.1326 3 16 3H12C11.8674 3 11.7402 3.05268 11.6464 3.14645C11.5527 3.24021 11.5 3.36739 11.5 3.5C11.5 3.63261 11.5527 3.75979 11.6464 3.85355C11.7402 3.94732 11.8674 4 12 4H13.508V10.004C13.5081 10.398 13.4305 10.7881 13.2796 11.1521C13.1287 11.516 12.9075 11.8466 12.6287 12.1249C12.3498 12.4032 12.0188 12.6238 11.6545 12.7739C11.2903 12.9241 10.9 13.0009 10.506 13H9.508C9.11411 13.0009 8.72392 12.9241 8.35979 12.7739C7.99565 12.6237 7.66475 12.4031 7.38604 12.1248C7.10733 11.8465 6.88631 11.5158 6.73563 11.1519C6.58496 10.788 6.5076 10.3979 6.508 10.004V4H8C8.13261 4 8.25979 3.94732 8.35355 3.85355C8.44732 3.75979 8.5 3.63261 8.5 3.5C8.5 3.36739 8.44732 3.24021 8.35355 3.14645C8.25979 3.05268 8.13261 3 8 3H4ZM5 16C4.86739 16 4.74021 16.0527 4.64645 16.1464C4.55268 16.2402 4.5 16.3674 4.5 16.5C4.5 16.6326 4.55268 16.7598 4.64645 16.8536C4.74021 16.9473 4.86739 17 5 17H15C15.1326 17 15.2598 16.9473 15.3536 16.8536C15.4473 16.7598 15.5 16.6326 15.5 16.5C15.5 16.3674 15.4473 16.2402 15.3536 16.1464C15.2598 16.0527 15.1326 16 15 16H5Z" fill="currentColor"/>
</svg>
