<svg width="20" height="20" viewBox="0 0 20 20" fill="none" xmlns="http://www.w3.org/2000/svg">
<path d="M12.504 2.99603C12.3714 2.99603 12.2442 3.04869 12.1504 3.14246C12.0567 3.23622 12.004 3.36342 12.004 3.49603V4.289L9.29701 6.99603H6.50401C6.43824 6.99605 6.37311 7.00902 6.31236 7.03424C6.25162 7.05947 6.19645 7.09642 6.15001 7.14301L5.15001 8.14301C5.05627 8.23677 5.00362 8.36394 5.00362 8.49652C5.00362 8.6291 5.05627 8.75627 5.15001 8.85004L11.15 14.85C11.2438 14.9438 11.3709 14.9964 11.5035 14.9964C11.6361 14.9964 11.7632 14.9438 11.857 14.85L12.857 13.85C12.9036 13.8036 12.9405 13.7484 12.9658 13.6877C12.991 13.6269 13.004 13.5618 13.004 13.496V10.703L15.711 7.99603H16.504C16.6366 7.99603 16.7638 7.94332 16.8576 7.84955C16.9513 7.75578 17.004 7.62864 17.004 7.49603V6.49603C17.0037 6.36354 16.9508 6.23655 16.857 6.14301L13.857 3.14301C13.7635 3.04917 13.6365 2.99633 13.504 2.99603H12.504ZM13.004 3.99603H13.297L16.004 6.703V6.99603H15.504C15.4382 6.99605 15.3731 7.00902 15.3124 7.03424C15.2516 7.05947 15.1964 7.09642 15.15 7.14301L12.15 10.143C12.0565 10.2367 12.004 10.3637 12.004 10.496V13.289L11.504 13.789L6.21101 8.49603L6.71101 7.99603H9.50401C9.63637 7.996 9.7633 7.94351 9.85701 7.85004L12.857 4.85004C12.9036 4.8036 12.9405 4.74843 12.9658 4.68768C12.991 4.62694 13.004 4.56181 13.004 4.49603V3.99603ZM7.244 12.242C7.11421 12.2454 6.99085 12.2993 6.90001 12.392L3.15001 16.142C3.10352 16.1885 3.06661 16.2436 3.04143 16.3043C3.01624 16.3649 3.00327 16.43 3.00322 16.4957C3.00317 16.5614 3.01609 16.6264 3.04118 16.6871C3.06628 16.7478 3.10307 16.803 3.14949 16.8495C3.19591 16.896 3.25104 16.9329 3.31172 16.9581C3.3724 16.9833 3.43746 16.9962 3.50316 16.9963C3.56886 16.9963 3.63391 16.9835 3.69463 16.9584C3.75534 16.9333 3.81052 16.8965 3.85701 16.85L7.60701 13.1C7.67912 13.0298 7.72836 12.9394 7.74828 12.8408C7.76819 12.7421 7.75786 12.6397 7.71864 12.547C7.67942 12.4543 7.61314 12.3756 7.52846 12.3212C7.44377 12.2668 7.34462 12.2392 7.244 12.242Z" fill="currentColor"/>
</svg>
