<svg width="20" height="20" viewBox="0 0 20 20" fill="none" xmlns="http://www.w3.org/2000/svg">
<path d="M16.497 4.00202L12.997 4.01001L13.002 5.01001L16 5.00403V10.004L12.998 10.01L13.002 11.01L16.502 11.002C16.6343 11.0015 16.7609 10.9486 16.8543 10.8549C16.9476 10.7612 17 10.6343 17 10.502V4.50202C17 4.43619 16.987 4.37098 16.9618 4.31018C16.9365 4.24939 16.8995 4.19423 16.8528 4.14777C16.8062 4.10131 16.7509 4.0645 16.69 4.03949C16.6291 4.01448 16.5638 4.00175 16.498 4.00202H16.497ZM4 13.004V16.496C4 16.6286 4.05268 16.7558 4.14645 16.8496C4.24021 16.9433 4.36739 16.996 4.5 16.996H10.5C10.6326 16.996 10.7598 16.9433 10.8536 16.8496C10.9473 16.7558 11 16.6286 11 16.496V13.004H10V15.997H5V13.005L4 13.004Z" fill="currentColor"/>
<path d="M3.5 3.00403C3.36739 3.00403 3.24021 3.05668 3.14645 3.15045C3.05268 3.24422 3 3.37142 3 3.50403V11.504C3 11.6366 3.05268 11.7638 3.14645 11.8575C3.24021 11.9513 3.36739 12.004 3.5 12.004H11.5C11.6326 12.004 11.7598 11.9513 11.8536 11.8575C11.9473 11.7638 12 11.6366 12 11.504V3.50403C12 3.37142 11.9473 3.24422 11.8536 3.15045C11.7598 3.05668 11.6326 3.00403 11.5 3.00403H3.5Z" fill="currentColor"/>
</svg>
