<svg width="20" height="20" viewBox="0 0 20 20" fill="none" xmlns="http://www.w3.org/2000/svg">
<path d="M10.983 1.99799C10.7183 2.0022 10.4661 2.1112 10.2816 2.30109C10.0972 2.49099 9.99553 2.74627 9.999 3.01099V10.011H8.897L7.987 3.86499C7.97229 3.73132 7.93076 3.60199 7.86492 3.48473C7.79907 3.36748 7.71024 3.26471 7.60376 3.18258C7.49728 3.10045 7.37533 3.04064 7.24519 3.00672C7.11506 2.97281 6.97943 2.96549 6.8464 2.98521C6.71338 3.00492 6.5857 3.05126 6.47099 3.12146C6.35629 3.19166 6.25693 3.28427 6.17885 3.39376C6.10076 3.50325 6.04557 3.62736 6.01655 3.75867C5.98754 3.88998 5.98531 4.02579 6.01 4.15799L7 10.828V13.011H6V11.265L3.409 10.1C3.19847 10.006 2.96195 9.9877 2.73946 10.0481C2.51697 10.1085 2.32218 10.2439 2.18807 10.4315C2.05396 10.619 1.98876 10.8471 2.00351 11.0771C2.01825 11.3072 2.11205 11.5251 2.269 11.694L5.769 15.444C7.219 16.998 9.156 18.087 10.891 17.999C11.9683 17.9205 12.9987 17.5265 13.8535 16.8662C14.7084 16.2059 15.3499 15.3085 15.698 14.286L17.954 8.01599C17.9922 7.92237 18.011 7.822 18.0094 7.72091C18.0078 7.61983 17.9858 7.52011 17.9446 7.42776C17.9035 7.3354 17.8441 7.25231 17.7701 7.18349C17.696 7.11466 17.6088 7.06152 17.5137 7.02725C17.4186 6.99298 17.3175 6.9783 17.2166 6.98408C17.1157 6.98986 17.017 7.01599 16.9264 7.06089C16.8358 7.1058 16.7552 7.16855 16.6895 7.24538C16.6238 7.32221 16.5743 7.41154 16.544 7.50799L15.644 10.012H14.903L15.981 4.19399C16.011 4.06253 16.0142 3.92635 15.9902 3.79365C15.9662 3.66095 15.9157 3.53447 15.8416 3.42181C15.7675 3.30915 15.6714 3.21264 15.559 3.13808C15.4466 3.06353 15.3204 3.01247 15.1878 2.98797C15.0552 2.96347 14.919 2.96605 14.7874 2.99554C14.6558 3.02503 14.5316 3.08083 14.4221 3.15958C14.3126 3.23833 14.2202 3.33841 14.1504 3.45379C14.0807 3.56917 14.0349 3.69748 14.016 3.83099L12.872 10.012H11.999V3.01199C12.0008 2.87822 11.9757 2.74546 11.9252 2.62156C11.8747 2.49767 11.7999 2.38516 11.7051 2.2907C11.6104 2.19625 11.4977 2.12176 11.3736 2.07165C11.2496 2.02154 11.1168 1.99683 10.983 1.99899V1.99799Z" fill="currentColor"/>
</svg>
