<svg width="20" height="20" viewBox="0 0 20 20" fill="none" xmlns="http://www.w3.org/2000/svg">
<path d="M2.5 2C2.36739 2 2.24021 2.05268 2.14645 2.14645C2.05268 2.24021 2 2.36739 2 2.5V17.5C2 17.6326 2.05268 17.7598 2.14645 17.8536C2.24021 17.9473 2.36739 18 2.5 18H17.5C17.6326 18 17.7598 17.9473 17.8536 17.8536C17.9473 17.7598 18 17.6326 18 17.5V2.5C18 2.36739 17.9473 2.24021 17.8536 2.14645C17.7598 2.05268 17.6326 2 17.5 2H2.5ZM3 3H7V7H3V3ZM8 3H12V7H8V3ZM13 3H17V7H13V3ZM3 8H7V12H3V8ZM8 8H12V12H8V8ZM13 8H17V12H13V8ZM3 13H7V17H3V13ZM8 13H12V17H8V13ZM13 13H17V17H13V13Z" fill="currentColor"/>
</svg>
