<svg width="20" height="20" viewBox="0 0 20 20" fill="none" xmlns="http://www.w3.org/2000/svg">
<path d="M11.508 1.992C7.939 1.992 5.008 4.924 5.008 8.492C5.008 9.918 5.481 11.238 6.271 12.315L2.301 16.285C2.11336 16.4725 2.00789 16.7269 2.0078 16.9922C2.0077 17.2574 2.11299 17.5119 2.3005 17.6995C2.48801 17.8871 2.74238 17.9926 3.00765 17.9927C3.27292 17.9928 3.52736 17.8875 3.715 17.7L7.685 13.73C8.7917 14.5486 10.1315 14.9912 11.508 14.993C15.076 14.993 18.008 12.062 18.008 8.493C18.008 4.925 15.076 1.993 11.508 1.993V1.992ZM11.508 4.992C11.558 4.992 11.606 5.006 11.656 5.008C11.759 5.03992 11.849 5.1043 11.9124 5.19152C11.9758 5.27875 12.0094 5.38416 12.008 5.492V7.992H14.508C14.617 7.99057 14.7234 8.02477 14.8111 8.08939C14.8988 8.15401 14.9631 8.24553 14.994 8.35C14.994 8.35067 14.994 8.35134 14.994 8.352C14.994 8.399 15.008 8.444 15.008 8.492C15.008 8.542 14.996 8.587 14.994 8.635C14.9629 8.7393 14.8986 8.83059 14.8109 8.89502C14.7232 8.95945 14.6168 8.9935 14.508 8.992H12.008V11.492C12.0097 11.6011 11.9756 11.7078 11.9109 11.7957C11.8463 11.8837 11.7546 11.948 11.65 11.979C11.602 11.981 11.558 11.992 11.51 11.992C11.46 11.992 11.416 11.981 11.367 11.979C11.262 11.9484 11.1699 11.8842 11.1049 11.7962C11.0399 11.7082 11.0055 11.6014 11.007 11.492V8.992H8.507C8.39818 8.9935 8.29184 8.95945 8.20412 8.89502C8.11641 8.83059 8.05212 8.7393 8.021 8.635C8.021 8.63434 8.021 8.63367 8.021 8.633C8.021 8.585 8.007 8.54 8.007 8.493C8.007 8.443 8.019 8.398 8.021 8.35C8.05198 8.24536 8.11635 8.15373 8.20428 8.08909C8.29221 8.02445 8.39888 7.99035 8.508 7.992H11.008V5.492C11.0066 5.38428 11.0399 5.27897 11.1032 5.19176C11.1664 5.10455 11.2562 5.0401 11.359 5.008C11.409 5.006 11.457 4.992 11.508 4.992Z" fill="currentColor"/>
</svg>
