<svg width="20" height="20" viewBox="0 0 20 20" fill="none" xmlns="http://www.w3.org/2000/svg">
<path d="M11.5 3C8.775 3 7.37301 4.87801 6.14001 6.15201C6.0496 6.24529 5.99902 6.37009 5.99902 6.5C5.99902 6.62991 6.0496 6.75471 6.14001 6.84799C7.37301 8.12299 8.775 10 11.5 10C14.225 10 15.626 8.12099 16.86 6.84399C16.9498 6.75081 17 6.62644 17 6.49701C17 6.36758 16.9498 6.24318 16.86 6.14999C15.626 4.87299 14.224 3 11.5 3ZM11.5 4C12.875 4 14 5.125 14 6.5C14 7.875 12.875 9 11.5 9C10.8376 8.99789 10.2029 8.73383 9.73456 8.26544C9.26617 7.79706 9.00211 7.16239 9 6.5C9 5.125 10.125 4 11.5 4ZM11.5 5C10.666 5 10 5.666 10 6.5C10 7.334 10.666 8 11.5 8C12.334 8 13 7.334 13 6.5C13 5.666 12.334 5 11.5 5Z" fill="currentColor"/>
<path d="M3.50201 9C3.41914 8.99976 3.33751 9.02014 3.26446 9.05927C3.19141 9.0984 3.1292 9.15507 3.08349 9.22418C3.03778 9.2933 3.00998 9.3727 3.00256 9.45523C2.99514 9.53777 3.00836 9.62083 3.04101 9.69699L6.04101 16.697C6.08095 16.7902 6.14825 16.8691 6.23406 16.9232C6.31987 16.9772 6.42009 17.0039 6.52142 16.9997C6.62275 16.9954 6.72044 16.9605 6.80145 16.8994C6.88245 16.8384 6.94294 16.7542 6.97497 16.658L7.89501 13.894L10.658 12.974C10.754 12.9419 10.8379 12.8814 10.8988 12.8006C10.9597 12.7198 10.9946 12.6224 10.9989 12.5213C11.0032 12.4202 10.9768 12.3201 10.923 12.2344C10.8693 12.1486 10.7909 12.0812 10.698 12.041L3.69799 9.04099C3.63609 9.01424 3.56944 9.00031 3.50201 9Z" fill="currentColor"/>
</svg>
