<svg width="20" height="20" viewBox="0 0 20 20" fill="none" xmlns="http://www.w3.org/2000/svg">
<path d="M3.5 3C3.36739 3 3.24022 3.05268 3.14645 3.14645C3.05269 3.24021 3 3.36739 3 3.5V16.5C3 16.6326 3.05269 16.7598 3.14645 16.8536C3.24022 16.9473 3.36739 17 3.5 17H16.5C16.6326 17 16.7598 16.9473 16.8535 16.8536C16.9473 16.7598 17 16.6326 17 16.5V12H16V16H4V4H16V5H17V3.5C17 3.36739 16.9473 3.24021 16.8535 3.14645C16.7598 3.05268 16.6326 3 16.5 3H3.5Z" fill="currentColor"/>
<path d="M6.50001 6.00001C5.82401 5.99001 5.82401 7.01001 6.50001 7.00001H17V6.00001H6.50001ZM6.50001 8.00001C5.82401 7.99001 5.82401 9.01001 6.50001 9.00001H17V8.00001H6.50001ZM6.50001 10C5.82401 9.99001 5.82401 11.01 6.50001 11H17V10H6.50001Z" fill="currentColor"/>
</svg>
